tick	time	channel	track	pitch	velocity	instrument
0	0	1	1	64	80	1
0	0	3	1	46	64	1
29	46	1	1	64	0	1
30	48	1	1	65	80	1
59	94	1	1	65	0	1
59	94	3	1	46	0	1
60	96	1	1	67	80	1
60	96	3	1	53	64	1
89	142	1	1	67	0	1
90	144	1	1	69	80	1
119	190	3	1	53	0	1
120	192	3	1	57	64	1
149	238	1	1	69	0	1
150	240	1	1	60	80	1
179	286	1	1	60	0	1
180	288	1	1	72	80	1
209	334	1	1	72	0	1
210	336	1	1	69	80	1
239	382	3	1	57	0	1
240	384	3	1	48	64	1
299	478	3	1	48	0	1
300	480	3	1	52	64	1
359	574	3	1	52	0	1
360	576	3	1	55	64	1
479	766	1	1	69	0	1
479	766	3	1	55	0	1
480	768	1	1	64	80	1
480	768	3	1	45	64	1
509	814	1	1	64	0	1
510	816	1	1	65	80	1
539	862	1	1	65	0	1
539	862	3	1	45	0	1
540	864	1	1	67	80	1
540	864	3	1	52	64	1
569	910	1	1	67	0	1
570	912	1	1	69	80	1
599	958	3	1	52	0	1
600	960	3	1	55	64	1
629	1006	1	1	69	0	1
630	1008	1	1	60	80	1
659	1054	1	1	60	0	1
660	1056	1	1	72	80	1
689	1102	1	1	72	0	1
690	1104	1	1	69	80	1
719	1150	1	1	69	0	1
719	1150	3	1	55	0	1
720	1152	1	1	67	80	1
720	1152	3	1	50	64	1
749	1198	1	1	67	0	1
750	1200	1	1	69	80	1
779	1246	1	1	69	0	1
779	1246	3	1	50	0	1
780	1248	1	1	65	80	1
780	1248	3	1	53	64	1
809	1294	1	1	65	0	1
810	1296	1	1	67	80	1
839	1342	1	1	67	0	1
839	1342	3	1	53	0	1
840	1344	1	1	64	80	1
840	1344	3	1	57	64	1
869	1390	1	1	64	0	1
870	1392	1	1	65	80	1
899	1438	1	1	65	0	1
900	1440	1	1	60	80	1
959	1534	1	1	60	0	1
959	1534	3	1	57	0	1
960	1536	1	1	64	80	1
960	1536	3	1	46	64	1
989	1582	1	1	64	0	1
990	1584	1	1	65	80	1
1019	1630	1	1	65	0	1
1019	1630	3	1	46	0	1
1020	1632	1	1	67	80	1
1020	1632	3	1	53	64	1
1049	1678	1	1	67	0	1
1050	1680	1	1	69	80	1
1079	1726	3	1	53	0	1
1080	1728	3	1	57	64	1
1109	1774	1	1	69	0	1
1110	1776	1	1	60	80	1
1139	1822	1	1	60	0	1
1140	1824	1	1	72	80	1
1169	1870	1	1	72	0	1
1170	1872	1	1	69	80	1
1199	1918	3	1	57	0	1
1200	1920	3	1	48	64	1
1259	2014	3	1	48	0	1
1260	2016	3	1	52	64	1
1319	2110	3	1	52	0	1
1320	2112	3	1	55	64	1
1439	2302	1	1	69	0	1
1439	2302	3	1	55	0	1
1440	2304	1	1	64	80	1
1440	2304	3	1	45	64	1
1469	2350	1	1	64	0	1
1470	2352	1	1	65	80	1
1499	2398	1	1	65	0	1
1499	2398	3	1	45	0	1
1500	2400	1	1	67	80	1
1500	2400	3	1	52	64	1
1529	2446	1	1	67	0	1
1530	2448	1	1	69	80	1
1559	2494	3	1	52	0	1
1560	2496	3	1	55	64	1
1589	2542	1	1	69	0	1
1590	2544	1	1	60	80	1
1619	2590	1	1	60	0	1
1620	2592	1	1	72	80	1
1649	2638	1	1	72	0	1
1650	2640	1	1	69	80	1
1650	2640	9	6	38	72	0
1665	2664	9	6	38	0	0
1665	2664	9	6	38	72	0
1679	2686	1	1	69	0	1
1679	2686	3	1	55	0	1
1680	2688	1	1	67	80	1
1680	2688	3	1	50	64	1
1680	2688	9	6	38	0	0
1680	2688	9	6	38	72	0
1709	2734	1	1	67	0	1
1710	2736	1	1	69	80	1
1710	2736	9	6	38	0	0
1710	2736	9	6	38	72	0
1739	2782	1	1	69	0	1
1739	2782	3	1	50	0	1
1740	2784	1	1	65	80	1
1740	2784	3	1	53	64	1
1740	2784	9	6	35	72	0
1740	2784	9	6	38	0	0
1769	2830	1	1	65	0	1
1770	2832	1	1	67	80	1
1770	2832	9	6	35	0	0
1770	2832	9	6	38	72	0
1799	2878	1	1	67	0	1
1799	2878	3	1	53	0	1
1800	2880	1	1	64	80	1
1800	2880	3	1	57	64	1
1800	2880	9	6	38	0	0
1800	2880	9	6	38	72	0
1829	2926	1	1	64	0	1
1830	2928	1	1	65	80	1
1859	2974	1	1	65	0	1
1860	2976	1	1	60	80	1
1860	2976	9	6	38	0	0
1860	2976	9	6	38	72	0
1890	3024	9	6	38	0	0
1890	3024	9	6	38	72	0
1919	3070	1	1	60	0	1
1919	3070	3	1	57	0	1
1920	3072	1	1	76	80	1
1920	3072	4	2	58	56	4
1920	3072	6	4	58	36	48
1920	3072	6	4	69	34	48
1920	3072	6	4	74	48	48
1920	3072	7	5	46	62	35
1920	3072	9	6	35	72	0
1920	3072	9	6	38	0	0
1920	3072	9	6	49	72	0
1949	3118	1	1	76	0	1
1950	3120	1	1	77	80	1
1979	3166	1	1	77	0	1
1980	3168	1	1	79	80	1
1980	3168	4	2	65	53	4
1980	3168	9	6	35	0	0
1980	3168	9	6	35	72	0
1980	3168	9	6	42	72	0
1980	3168	9	6	49	0	0
2009	3214	1	1	79	0	1
2010	3216	1	1	81	80	1
2040	3264	4	2	69	53	4
2040	3264	9	6	35	0	0
2040	3264	9	6	38	72	0
2040	3264	9	6	42	0	0
2040	3264	9	6	42	72	0
2069	3310	1	1	81	0	1
2070	3312	1	1	72	80	1
2092	3347	4	2	58	0	4
2099	3358	1	1	72	0	1
2100	3360	1	1	84	80	1
2100	3360	4	2	74	56	4
2100	3360	9	6	38	0	0
2100	3360	9	6	42	0	0
2100	3360	9	6	42	72	0
2121	3393	7	5	46	0	35
2129	3406	1	1	84	0	1
2130	3408	1	1	81	80	1
2157	3451	4	2	74	0	4
2160	3456	4	2	55	53	4
2160	3456	4	2	60	53	4
2160	3456	4	2	65	0	4
2160	3456	4	2	67	56	4
2160	3456	4	2	69	0	4
2160	3456	6	4	48	36	48
2160	3456	6	4	58	0	48
2160	3456	6	4	60	34	48
2160	3456	6	4	64	48	48
2160	3456	6	4	69	0	48
2160	3456	6	4	74	0	48
2160	3456	7	5	36	68	35
2160	3456	9	6	35	72	0
2160	3456	9	6	42	0	0
2160	3456	9	6	42	72	0
2190	3504	9	6	38	72	0
2190	3504	9	6	42	0	0
2217	3547	4	2	67	0	4
2220	3552	4	2	64	39	4
2220	3552	9	6	35	0	0
2220	3552	9	6	35	72	0
2220	3552	9	6	38	0	0
2220	3552	9	6	42	72	0
2250	3600	5	3	55	53	25
2275	3640	7	5	36	0	35
2277	3643	4	2	64	0	4
2280	3648	4	2	72	56	4
2280	3648	5	3	60	62	25
2280	3648	5	3	64	68	25
2280	3648	7	5	40	65	35
2280	3648	9	6	35	0	0
2280	3648	9	6	38	72	0
2280	3648	9	6	42	0	0
2280	3648	9	6	42	72	0
2336	3737	5	3	55	0	25
2337	3739	4	2	72	0	4
2337	3739	5	3	60	0	25
2337	3739	5	3	64	0	25
2337	3739	7	5	40	0	35
2340	3744	4	2	67	45	4
2340	3744	7	5	31	59	35
2340	3744	9	6	38	0	0
2340	3744	9	6	42	0	0
2340	3744	9	6	42	72	0
2381	3809	6	4	48	0	48
2383	3812	4	2	55	0	4
2385	3816	4	2	60	0	4
2397	3835	4	2	67	0	4
2397	3835	7	5	31	0	35
2399	3838	1	1	81	0	1
2400	3840	1	1	76	80	1
2400	3840	4	2	57	56	4
2400	3840	6	4	60	0	48
2400	3840	6	4	64	0	48
2400	3840	6	4	67	34	48
2400	3840	6	4	72	48	48
2400	3840	6	4	76	45	48
2400	3840	7	5	45	65	35
2400	3840	9	6	35	72	0
2400	3840	9	6	42	0	0
2400	3840	9	6	42	72	0
2429	3886	1	1	76	0	1
2430	3888	1	1	77	80	1
2459	3934	1	1	77	0	1
2460	3936	1	1	79	80	1
2460	3936	4	2	64	53	4
2460	3936	9	6	35	0	0
2460	3936	9	6	35	72	0
2460	3936	9	6	42	0	0
2460	3936	9	6	42	72	0
2489	3982	1	1	79	0	1
2490	3984	1	1	81	80	1
2520	4032	4	2	67	53	4
2520	4032	9	6	35	0	0
2520	4032	9	6	38	72	0
2520	4032	9	6	42	0	0
2520	4032	9	6	42	72	0
2549	4078	1	1	81	0	1
2550	4080	1	1	72	80	1
2572	4115	4	2	57	0	4
2579	4126	1	1	72	0	1
2580	4128	1	1	84	80	1
2580	4128	4	2	72	56	4
2580	4128	9	6	38	0	0
2580	4128	9	6	42	0	0
2580	4128	9	6	42	72	0
2601	4161	7	5	45	0	35
2609	4174	1	1	84	0	1
2610	4176	1	1	81	80	1
2610	4176	9	6	38	72	0
2610	4176	9	6	42	0	0
2637	4219	4	2	72	0	4
2639	4222	1	1	81	0	1
2640	4224	1	1	79	80	1
2640	4224	4	2	57	53	4
2640	4224	4	2	60	53	4
2640	4224	4	2	64	0	4
2640	4224	4	2	67	0	4
2640	4224	4	2	69	56	4
2640	4224	6	4	60	34	48
2640	4224	6	4	65	48	48
2640	4224	6	4	67	0	48
2640	4224	6	4	69	45	48
2640	4224	6	4	72	0	48
2640	4224	6	4	76	0	48
2640	4224	7	5	38	65	35
2640	4224	9	6	35	72	0
2640	4224	9	6	38	0	0
2640	4224	9	6	42	72	0
2669	4270	1	1	79	0	1
2670	4272	1	1	81	80	1
2670	4272	9	6	38	72	0
2670	4272	9	6	42	0	0
2697	4315	4	2	69	0	4
2699	4318	1	1	81	0	1
2700	4320	1	1	77	80	1
2700	4320	4	2	65	39	4
2700	4320	9	6	35	0	0
2700	4320	9	6	35	72	0
2700	4320	9	6	38	0	0
2700	4320	9	6	42	72	0
2729	4366	1	1	77	0	1
2730	4368	1	1	79	80	1
2730	4368	5	3	57	53	25
2757	4411	4	2	65	0	4
2759	4414	1	1	79	0	1
2760	4416	1	1	76	80	1
2760	4416	4	2	69	56	4
2760	4416	5	3	62	62	25
2760	4416	5	3	65	68	25
2760	4416	9	6	35	0	0
2760	4416	9	6	38	72	0
2760	4416	9	6	42	0	0
2760	4416	9	6	42	72	0
2789	4462	1	1	76	0	1
2790	4464	1	1	77	80	1
2812	4499	7	5	38	0	35
2816	4505	5	3	57	0	25
2817	4507	4	2	69	0	4
2817	4507	5	3	62	0	25
2817	4507	5	3	65	0	25
2819	4510	1	1	77	0	1
2820	4512	1	1	72	80	1
2820	4512	4	2	65	45	4
2820	4512	7	5	33	68	35
2820	4512	9	6	38	0	0
2820	4512	9	6	42	0	0
2820	4512	9	6	42	72	0
2841	4545	6	4	60	0	48
2841	4545	6	4	65	0	48
2861	4577	6	4	69	0	48
2863	4580	4	2	57	0	4
2865	4584	4	2	60	0	4
2877	4603	4	2	65	0	4
2877	4603	7	5	33	0	35
2879	4606	1	1	72	0	1
2880	4608	1	1	76	80	1
2880	4608	4	2	58	56	4
2880	4608	6	4	58	41	48
2880	4608	6	4	69	36	48
2880	4608	6	4	74	46	48
2880	4608	7	5	46	72	35
2880	4608	9	6	35	72	0
2880	4608	9	6	42	0	0
2880	4608	9	6	42	72	0
2909	4654	1	1	76	0	1
2910	4656	1	1	77	80	1
2910	4656	9	6	38	72	0
2910	4656	9	6	42	0	0
2939	4702	1	1	77	0	1
2940	4704	1	1	79	80	1
2940	4704	4	2	65	53	4
2940	4704	9	6	35	0	0
2940	4704	9	6	35	72	0
2940	4704	9	6	38	0	0
2940	4704	9	6	42	72	0
2969	4750	1	1	79	0	1
2970	4752	1	1	81	80	1
3000	4800	4	2	69	53	4
3000	4800	9	6	35	0	0
3000	4800	9	6	38	72	0
3000	4800	9	6	42	0	0
3000	4800	9	6	42	72	0
3029	4846	1	1	81	0	1
3030	4848	1	1	72	80	1
3052	4883	4	2	58	0	4
3059	4894	1	1	72	0	1
3060	4896	1	1	84	80	1
3060	4896	4	2	74	56	4
3060	4896	9	6	38	0	0
3060	4896	9	6	42	0	0
3060	4896	9	6	42	72	0
3081	4929	7	5	46	0	35
3089	4942	1	1	84	0	1
3090	4944	1	1	81	80	1
3090	4944	9	6	38	72	0
3090	4944	9	6	42	0	0
3117	4987	4	2	74	0	4
3120	4992	4	2	55	53	4
3120	4992	4	2	60	53	4
3120	4992	4	2	65	0	4
3120	4992	4	2	67	56	4
3120	4992	4	2	69	0	4
3120	4992	6	4	48	41	48
3120	4992	6	4	58	0	48
3120	4992	6	4	60	36	48
3120	4992	6	4	64	46	48
3120	4992	6	4	69	0	48
3120	4992	6	4	74	0	48
3120	4992	7	5	36	65	35
3120	4992	9	6	35	72	0
3120	4992	9	6	38	0	0
3120	4992	9	6	42	72	0
3150	5040	9	6	38	72	0
3150	5040	9	6	42	0	0
3177	5083	4	2	67	0	4
3180	5088	4	2	64	39	4
3180	5088	9	6	38	0	0
3180	5088	9	6	50	72	0
3210	5136	5	3	55	53	25
3235	5176	7	5	36	0	35
3237	5179	4	2	64	0	4
3240	5184	4	2	72	56	4
3240	5184	5	3	60	62	25
3240	5184	5	3	64	68	25
3240	5184	7	5	40	72	35
3240	5184	9	6	35	0	0
3240	5184	9	6	47	72	0
3240	5184	9	6	50	0	0
3270	5232	9	6	47	0	0
3270	5232	9	6	47	72	0
3296	5273	5	3	55	0	25
3297	5275	4	2	72	0	4
3297	5275	5	3	60	0	25
3297	5275	5	3	64	0	25
3297	5275	7	5	40	0	35
3300	5280	4	2	67	45	4
3300	5280	7	5	31	68	35
3300	5280	9	6	45	72	0
3300	5280	9	6	47	0	0
3341	5345	6	4	48	0	48
3341	5345	6	4	60	0	48
3341	5345	6	4	64	0	48
3343	5348	4	2	55	0	4
3345	5352	4	2	60	0	4
3357	5371	4	2	67	0	4
3357	5371	7	5	31	0	35
3359	5374	1	1	81	0	1
3360	5376	1	1	62	80	1
3360	5376	1	1	67	80	1
3360	5376	4	2	50	56	4
3360	5376	6	4	62	44	48
3360	5376	6	4	67	44	48
3360	5376	6	4	69	48	48
3360	5376	7	5	38	65	35
3360	5376	9	6	35	72	0
3360	5376	9	6	45	0	0
3360	5376	9	6	49	72	0
3420	5472	4	2	57	53	4
3480	5568	4	2	62	53	4
3480	5568	9	6	35	0	0
3480	5568	9	6	49	0	0
3532	5651	4	2	50	0	4
3540	5664	4	2	67	56	4
3561	5697	7	5	38	0	35
3597	5755	4	2	67	0	4
3599	5758	1	1	62	0	1
3599	5758	1	1	67	0	1
3600	5760	1	1	62	80	1
3600	5760	1	1	66	80	1
3600	5760	4	2	57	0	4
3600	5760	4	2	57	53	4
3600	5760	4	2	62	0	4
3600	5760	4	2	62	53	4
3600	5760	4	2	69	56	4
3600	5760	6	4	62	0	48
3600	5760	6	4	62	44	48
3600	5760	6	4	66	44	48
3600	5760	6	4	67	0	48
3600	5760	6	4	69	0	48
3600	5760	6	4	69	48	48
3600	5760	7	5	38	65	35
3600	5760	9	6	51	72	0
3615	5784	9	6	51	0	0
3615	5784	9	6	51	72	0
3630	5808	9	6	51	0	0
3657	5851	4	2	69	0	4
3660	5856	4	2	66	39	4
3690	5904	5	3	57	53	25
3717	5947	4	2	66	0	4
3720	5952	4	2	69	56	4
3720	5952	5	3	62	62	25
3720	5952	5	3	66	68	25
3776	6041	5	3	57	0	25
3777	6043	4	2	69	0	4
3777	6043	5	3	62	0	25
3777	6043	5	3	66	0	25
3780	6048	4	2	66	45	4
3792	6067	6	4	62	0	48
3792	6067	6	4	66	0	48
3792	6067	6	4	69	0	48
3801	6081	7	5	38	0	35
3823	6116	4	2	57	0	4
3825	6120	4	2	62	0	4
3837	6139	4	2	66	0	4
3838	6140	1	1	62	0	1
3838	6140	1	1	66	0	1
3840	6144	1	1	67	80	1
3840	6144	1	7	67	80	39
3840	6144	4	2	53	56	4
3840	6144	7	5	41	68	35
3840	6144	9	6	35	72	0
3840	6144	9	6	49	72	0
3900	6240	4	2	60	53	4
3900	6240	6	4	57	51	48
3900	6240	9	6	42	72	0
3900	6240	9	6	49	0	0
3929	6286	1	1	65	80	1
3929	6286	1	1	67	0	1
3929	6286	1	7	65	80	39
3929	6286	1	7	67	0	39
3959	6334	1	1	65	0	1
3959	6334	1	7	65	0	39
3960	6336	1	1	67	80	1
3960	6336	1	7	67	80	39
3960	6336	4	2	65	53	4
3960	6336	6	4	60	51	48
3960	6336	9	6	35	0	0
3960	6336	9	6	38	72	0
3960	6336	9	6	42	0	0
3960	6336	9	6	42	72	0
4012	6419	4	2	53	0	4
4015	6424	6	4	57	0	48
4020	6432	4	2	69	56	4
4020	6432	6	4	65	56	48
4020	6432	9	6	38	0	0
4020	6432	9	6	42	0	0
4020	6432	9	6	42	72	0
4041	6465	7	5	41	0	35
4049	6478	1	1	67	0	1
4049	6478	1	7	67	0	39
4050	6480	1	1	65	80	1
4050	6480	1	7	65	80	39
4075	6520	6	4	60	0	48
4077	6523	4	2	69	0	4
4079	6526	1	1	65	0	1
4079	6526	1	1	67	80	1
4079	6526	1	7	65	0	39
4079	6526	1	7	67	80	39
4080	6528	4	2	72	56	4
4080	6528	6	4	69	51	48
4080	6528	7	5	41	65	35
4080	6528	9	6	42	0	0
4080	6528	9	6	42	72	0
4135	6616	6	4	65	0	48
4137	6619	4	2	72	0	4
4139	6622	1	1	67	0	1
4139	6622	1	7	67	0	39
4140	6624	1	1	69	80	1
4140	6624	1	7	69	80	39
4140	6624	4	2	69	39	4
4140	6624	9	6	35	72	0
4140	6624	9	6	42	0	0
4140	6624	9	6	42	72	0
4170	6672	5	3	60	53	25
4195	6712	6	4	69	0	48
4197	6715	4	2	69	0	4
4199	6718	1	1	69	0	1
4199	6718	1	7	69	0	39
4200	6720	1	1	72	80	1
4200	6720	1	7	72	80	39
4200	6720	4	2	72	56	4
4200	6720	5	3	65	62	25
4200	6720	5	3	69	68	25
4200	6720	9	6	35	0	0
4200	6720	9	6	38	72	0
4200	6720	9	6	42	0	0
4200	6720	9	6	42	72	0
4256	6809	5	3	60	0	25
4257	6811	4	2	72	0	4
4257	6811	5	3	65	0	25
4257	6811	5	3	69	0	25
4259	6814	1	1	72	0	1
4259	6814	1	7	72	0	39
4260	6816	1	1	69	80	1
4260	6816	1	7	69	80	39
4260	6816	4	2	69	45	4
4260	6816	9	6	38	0	0
4260	6816	9	6	42	0	0
4260	6816	9	6	42	72	0
4281	6849	7	5	41	0	35
4289	6862	1	1	69	0	1
4289	6862	1	7	69	0	39
4290	6864	1	1	67	80	1
4290	6864	1	7	67	80	39
4303	6884	4	2	60	0	4
4305	6888	4	2	65	0	4
4317	6907	4	2	69	0	4
4319	6910	1	1	67	0	1
4319	6910	1	7	67	0	39
4320	6912	1	1	67	80	1
4320	6912	1	7	67	80	39
4320	6912	4	2	48	56	4
4320	6912	7	5	36	68	35
4320	6912	9	6	35	72	0
4320	6912	9	6	42	0	0
4320	6912	9	6	42	72	0
4380	7008	4	2	55	53	4
4380	7008	6	4	52	51	48
4380	7008	9	6	42	0	0
4380	7008	9	6	42	72	0
4409	7054	1	1	67	0	1
4409	7054	1	7	67	0	39
4410	7056	1	1	65	80	1
4410	7056	1	7	65	80	39
4439	7102	1	1	65	0	1
4439	7102	1	7	65	0	39
4440	7104	1	1	67	80	1
4440	7104	1	7	67	80	39
4440	7104	4	2	60	53	4
4440	7104	6	4	55	53	48
4440	7104	9	6	35	0	0
4440	7104	9	6	38	72	0
4440	7104	9	6	42	0	0
4440	7104	9	6	42	72	0
4492	7187	4	2	48	0	4
4495	7192	6	4	52	0	48
4500	7200	4	2	64	56	4
4500	7200	6	4	60	51	48
4500	7200	9	6	38	0	0
4500	7200	9	6	42	0	0
4500	7200	9	6	42	72	0
4521	7233	7	5	36	0	35
4529	7246	1	1	67	0	1
4529	7246	1	7	67	0	39
4530	7248	1	1	65	80	1
4530	7248	1	7	65	80	39
4555	7288	6	4	55	0	48
4557	7291	4	2	64	0	4
4559	7294	1	1	65	0	1
4559	7294	1	7	65	0	39
4560	7296	1	1	67	80	1
4560	7296	1	7	67	80	39
4560	7296	4	2	67	56	4
4560	7296	7	5	36	68	35
4560	7296	9	6	42	0	0
4560	7296	9	6	42	72	0
4589	7342	1	1	67	0	1
4589	7342	1	7	67	0	39
4590	7344	1	1	69	80	1
4590	7344	1	7	69	80	39
4615	7384	6	4	60	0	48
4617	7387	4	2	67	0	4
4619	7390	1	1	69	0	1
4619	7390	1	7	69	0	39
4620	7392	1	1	67	80	1
4620	7392	1	7	67	80	39
4620	7392	4	2	64	39	4
4620	7392	9	6	35	72	0
4620	7392	9	6	42	0	0
4620	7392	9	6	42	72	0
4649	7438	1	1	67	0	1
4649	7438	1	7	67	0	39
4650	7440	1	1	65	80	1
4650	7440	1	7	65	80	39
4650	7440	5	3	55	53	25
4650	7440	6	4	55	45	48
4677	7483	4	2	64	0	4
4679	7486	1	1	65	0	1
4679	7486	1	7	65	0	39
4680	7488	1	1	60	80	1
4680	7488	1	7	60	80	39
4680	7488	4	2	67	56	4
4680	7488	5	3	60	62	25
4680	7488	5	3	64	68	25
4680	7488	6	4	60	59	48
4680	7488	9	6	35	0	0
4680	7488	9	6	38	72	0
4680	7488	9	6	42	0	0
4680	7488	9	6	42	72	0
4736	7577	5	3	55	0	25
4736	7577	6	4	55	0	48
4737	7579	4	2	67	0	4
4737	7579	5	3	60	0	25
4737	7579	5	3	64	0	25
4737	7579	6	4	60	0	48
4740	7584	4	2	64	45	4
4740	7584	9	6	38	0	0
4740	7584	9	6	42	0	0
4740	7584	9	6	42	72	0
4761	7617	7	5	36	0	35
4783	7652	4	2	55	0	4
4785	7656	4	2	60	0	4
4797	7675	4	2	64	0	4
4799	7678	1	1	60	0	1
4799	7678	1	7	60	0	39
4800	7680	1	1	67	80	1
4800	7680	1	7	67	80	39
4800	7680	4	2	48	56	4
4800	7680	7	5	36	76	35
4800	7680	9	6	35	72	0
4800	7680	9	6	42	0	0
4800	7680	9	6	42	72	0
4860	7776	4	2	55	53	4
4860	7776	6	4	51	48	48
4860	7776	9	6	42	0	0
4860	7776	9	6	42	72	0
4889	7822	1	1	67	0	1
4889	7822	1	7	67	0	39
4890	7824	1	1	65	80	1
4890	7824	1	7	65	80	39
4919	7870	1	1	65	0	1
4919	7870	1	7	65	0	39
4920	7872	1	1	67	80	1
4920	7872	1	7	67	80	39
4920	7872	4	2	60	53	4
4920	7872	6	4	55	53	48
4920	7872	9	6	35	0	0
4920	7872	9	6	38	72	0
4920	7872	9	6	42	0	0
4920	7872	9	6	42	72	0
4972	7955	4	2	48	0	4
4975	7960	6	4	51	0	48
4980	7968	4	2	63	56	4
4980	7968	6	4	60	53	48
4980	7968	9	6	38	0	0
4980	7968	9	6	42	0	0
4980	7968	9	6	42	72	0
5001	8001	7	5	36	0	35
5009	8014	1	1	67	0	1
5009	8014	1	7	67	0	39
5010	8016	1	1	65	80	1
5010	8016	1	7	65	80	39
5035	8056	6	4	55	0	48
5037	8059	4	2	63	0	4
5039	8062	1	1	65	0	1
5039	8062	1	7	65	0	39
5040	8064	1	1	67	80	1
5040	8064	1	7	67	80	39
5040	8064	4	2	67	56	4
5040	8064	6	4	63	48	48
5040	8064	7	5	36	72	35
5040	8064	9	6	42	0	0
5040	8064	9	6	42	72	0
5095	8152	6	4	60	0	48
5097	8155	4	2	67	0	4
5099	8158	1	1	67	0	1
5099	8158	1	7	67	0	39
5100	8160	1	1	69	80	1
5100	8160	1	7	69	80	39
5100	8160	4	2	63	39	4
5100	8160	9	6	35	72	0
5100	8160	9	6	42	0	0
5100	8160	9	6	42	72	0
5130	8208	5	3	55	53	25
5155	8248	6	4	63	0	48
5157	8251	4	2	63	0	4
5159	8254	1	1	69	0	1
5159	8254	1	1	72	80	1
5159	8254	1	7	69	0	39
5159	8254	1	7	72	80	39
5160	8256	4	2	67	56	4
5160	8256	5	3	60	62	25
5160	8256	5	3	63	68	25
5160	8256	9	6	35	0	0
5160	8256	9	6	38	72	0
5160	8256	9	6	42	0	0
5160	8256	9	6	42	72	0
5212	8339	7	5	36	0	35
5216	8345	5	3	55	0	25
5217	8347	4	2	67	0	4
5217	8347	5	3	60	0	25
5217	8347	5	3	63	0	25
5219	8350	1	1	69	80	1
5219	8350	1	1	72	0	1
5219	8350	1	7	69	80	39
5219	8350	1	7	72	0	39
5220	8352	4	2	63	45	4
5220	8352	7	5	43	62	35
5220	8352	9	6	38	0	0
5220	8352	9	6	42	0	0
5220	8352	9	6	42	72	0
5249	8398	1	1	69	0	1
5249	8398	1	7	69	0	39
5250	8400	1	1	67	80	1
5250	8400	1	7	67	80	39
5263	8420	4	2	55	0	4
5265	8424	4	2	60	0	4
5277	8443	4	2	63	0	4
5277	8443	7	5	43	0	35
5279	8446	1	1	67	0	1
5279	8446	1	7	67	0	39
5280	8448	1	1	67	80	1
5280	8448	1	7	67	80	39
5280	8448	4	2	58	56	4
5280	8448	7	5	46	72	35
5280	8448	9	6	35	72	0
5280	8448	9	6	42	0	0
5280	8448	9	6	42	72	0
5340	8544	4	2	65	53	4
5340	8544	6	4	62	48	48
5340	8544	9	6	42	0	0
5340	8544	9	6	42	72	0
5368	8588	1	1	67	0	1
5368	8588	1	7	67	0	39
5369	8590	1	1	69	80	1
5369	8590	1	7	69	80	39
5399	8638	1	1	69	0	1
5399	8638	1	7	69	0	39
5400	8640	1	1	67	80	1
5400	8640	1	7	67	80	39
5400	8640	4	2	69	53	4
5400	8640	6	4	65	45	48
5400	8640	9	6	35	0	0
5400	8640	9	6	38	72	0
5400	8640	9	6	42	0	0
5400	8640	9	6	42	72	0
5452	8723	4	2	58	0	4
5455	8728	6	4	62	0	48
5459	8734	1	1	67	0	1
5459	8734	1	7	67	0	39
5460	8736	1	1	65	80	1
5460	8736	1	7	65	80	39
5460	8736	4	2	74	56	4
5460	8736	6	4	69	62	48
5460	8736	9	6	38	0	0
5460	8736	9	6	42	0	0
5460	8736	9	6	42	72	0
5481	8769	7	5	46	0	35
5488	8780	1	1	65	0	1
5488	8780	1	7	65	0	39
5490	8784	1	1	67	80	1
5490	8784	1	7	67	80	39
5515	8824	6	4	65	0	48
5517	8827	4	2	74	0	4
5518	8828	1	1	67	0	1
5518	8828	1	7	67	0	39
5520	8832	1	1	67	80	1
5520	8832	1	7	67	80	39
5520	8832	4	2	77	56	4
5520	8832	6	4	74	53	48
5520	8832	7	5	46	72	35
5520	8832	9	6	42	0	0
5520	8832	9	6	42	72	0
5575	8920	6	4	69	0	48
5577	8923	4	2	77	0	4
5580	8928	4	2	74	39	4
5580	8928	9	6	35	72	0
5580	8928	9	6	42	0	0
5580	8928	9	6	42	72	0
5610	8976	5	3	65	53	25
5635	9016	6	4	74	0	48
5637	9019	4	2	74	0	4
5640	9024	4	2	77	56	4
5640	9024	5	3	69	62	25
5640	9024	5	3	74	68	25
5640	9024	9	6	35	0	0
5640	9024	9	6	38	72	0
5640	9024	9	6	42	0	0
5640	9024	9	6	42	72	0
5696	9113	5	3	65	0	25
5697	9115	4	2	77	0	4
5697	9115	5	3	69	0	25
5697	9115	5	3	74	0	25
5700	9120	4	2	74	45	4
5700	9120	9	6	38	0	0
5700	9120	9	6	42	0	0
5700	9120	9	6	42	72	0
5743	9188	4	2	65	0	4
5745	9192	4	2	69	0	4
5750	9200	7	5	46	0	35
5757	9211	4	2	74	0	4
5759	9214	1	1	67	0	1
5759	9214	1	7	67	0	39
5760	9216	1	1	67	80	1
5760	9216	1	7	67	80	39
5760	9216	4	2	55	56	4
5760	9216	7	5	43	68	35
5760	9216	9	6	35	72	0
5760	9216	9	6	42	0	0
5760	9216	9	6	42	72	0
5820	9312	4	2	62	53	4
5820	9312	6	4	58	51	48
5820	9312	9	6	42	0	0
5820	9312	9	6	42	72	0
5849	9358	1	1	67	0	1
5849	9358	1	7	67	0	39
5850	9360	1	1	65	80	1
5850	9360	1	7	65	80	39
5879	9406	1	1	65	0	1
5879	9406	1	1	67	80	1
5879	9406	1	7	65	0	39
5879	9406	1	7	67	80	39
5880	9408	4	2	65	53	4
5880	9408	6	4	62	51	48
5880	9408	9	6	35	0	0
5880	9408	9	6	38	72	0
5880	9408	9	6	42	0	0
5880	9408	9	6	42	72	0
5932	9491	4	2	55	0	4
5935	9496	6	4	58	0	48
5940	9504	4	2	70	56	4
5940	9504	6	4	65	56	48
5940	9504	9	6	38	0	0
5940	9504	9	6	42	0	0
5940	9504	9	6	42	72	0
5961	9537	7	5	43	0	35
5969	9550	1	1	67	0	1
5969	9550	1	7	67	0	39
5970	9552	1	1	65	80	1
5970	9552	1	7	65	80	39
5995	9592	6	4	62	0	48
5997	9595	4	2	70	0	4
5999	9598	1	1	65	0	1
5999	9598	1	7	65	0	39
6000	9600	1	1	67	80	1
6000	9600	1	7	67	80	39
6000	9600	4	2	55	53	4
6000	9600	4	2	60	53	4
6000	9600	4	2	62	0	4
6000	9600	4	2	65	0	4
6000	9600	4	2	67	56	4
6000	9600	6	4	60	56	48
6000	9600	6	4	64	51	48
6000	9600	6	4	65	0	48
6000	9600	7	5	36	65	35
6000	9600	9	6	42	0	0
6000	9600	9	6	42	72	0
6055	9688	6	4	60	0	48
6057	9691	4	2	67	0	4
6059	9694	1	1	67	0	1
6059	9694	1	7	67	0	39
6060	9696	1	1	69	80	1
6060	9696	1	7	69	80	39
6060	9696	4	2	64	39	4
6060	9696	9	6	35	72	0
6060	9696	9	6	42	0	0
6060	9696	9	6	42	72	0
6090	9744	5	3	55	53	25
6115	9784	6	4	64	0	48
6117	9787	4	2	64	0	4
6119	9790	1	1	69	0	1
6119	9790	1	7	69	0	39
6120	9792	1	1	72	80	1
6120	9792	1	7	72	80	39
6120	9792	4	2	67	56	4
6120	9792	5	3	60	62	25
6120	9792	5	3	64	68	25
6120	9792	9	6	35	0	0
6120	9792	9	6	38	72	0
6120	9792	9	6	42	0	0
6120	9792	9	6	42	72	0
6176	9881	5	3	55	0	25
6177	9883	4	2	67	0	4
6177	9883	5	3	60	0	25
6177	9883	5	3	64	0	25
6179	9886	1	1	72	0	1
6179	9886	1	7	72	0	39
6180	9888	1	1	69	80	1
6180	9888	1	7	69	80	39
6180	9888	4	2	64	45	4
6180	9888	9	6	38	0	0
6180	9888	9	6	42	0	0
6180	9888	9	6	42	72	0
6201	9921	7	5	36	0	35
6209	9934	1	1	69	0	1
6209	9934	1	7	69	0	39
6210	9936	1	1	67	80	1
6210	9936	1	7	67	80	39
6223	9956	4	2	55	0	4
6225	9960	4	2	60	0	4
6237	9979	4	2	64	0	4
6239	9982	1	1	67	0	1
6239	9982	1	7	67	0	39
6240	9984	1	1	67	80	1
6240	9984	1	7	67	80	39
6240	9984	4	2	50	56	4
6240	9984	7	5	38	68	35
6240	9984	9	6	35	72	0
6240	9984	9	6	42	0	0
6240	9984	9	6	42	72	0
6300	10080	4	2	57	53	4
6300	10080	6	4	53	51	48
6300	10080	9	6	42	0	0
6300	10080	9	6	42	72	0
6329	10126	1	1	67	0	1
6329	10126	1	7	67	0	39
6330	10128	1	1	69	80	1
6330	10128	1	7	69	80	39
6358	10172	1	1	69	0	1
6358	10172	1	7	69	0	39
6360	10176	1	1	67	80	1
6360	10176	1	7	67	80	39
6360	10176	4	2	62	53	4
6360	10176	6	4	57	53	48
6360	10176	9	6	35	0	0
6360	10176	9	6	38	72	0
6360	10176	9	6	42	0	0
6360	10176	9	6	42	72	0
6412	10259	4	2	50	0	4
6415	10264	6	4	53	0	48
6419	10270	1	1	67	0	1
6419	10270	1	7	67	0	39
6420	10272	1	1	65	80	1
6420	10272	1	7	65	80	39
6420	10272	4	2	65	56	4
6420	10272	6	4	62	51	48
6420	10272	9	6	38	0	0
6420	10272	9	6	42	0	0
6420	10272	9	6	42	72	0
6441	10305	7	5	38	0	35
6449	10318	1	1	62	80	1
6449	10318	1	1	65	0	1
6449	10318	1	7	62	80	39
6449	10318	1	7	65	0	39
6475	10360	6	4	57	0	48
6477	10363	4	2	65	0	4
6479	10366	1	1	62	0	1
6479	10366	1	7	62	0	39
6480	10368	1	1	62	80	1
6480	10368	1	7	62	80	39
6480	10368	4	2	69	56	4
6480	10368	7	5	38	68	35
6480	10368	9	6	42	0	0
6480	10368	9	6	42	72	0
6535	10456	6	4	62	0	48
6537	10459	4	2	69	0	4
6540	10464	4	2	65	39	4
6540	10464	9	6	35	72	0
6540	10464	9	6	42	0	0
6540	10464	9	6	42	72	0
6570	10512	5	3	57	53	25
6570	10512	6	4	57	45	48
6597	10555	4	2	65	0	4
6599	10558	1	1	62	0	1
6599	10558	1	7	62	0	39
6600	10560	1	1	69	80	1
6600	10560	1	7	69	80	39
6600	10560	4	2	69	56	4
6600	10560	5	3	62	62	25
6600	10560	5	3	65	68	25
6600	10560	6	4	62	59	48
6600	10560	9	6	35	0	0
6600	10560	9	6	38	72	0
6600	10560	9	6	42	0	0
6600	10560	9	6	42	72	0
6629	10606	1	1	69	0	1
6629	10606	1	7	69	0	39
6630	10608	1	1	67	80	1
6630	10608	1	7	67	80	39
6656	10649	5	3	57	0	25
6656	10649	6	4	57	0	48
6657	10651	4	2	69	0	4
6657	10651	5	3	62	0	25
6657	10651	5	3	65	0	25
6657	10651	6	4	62	0	48
6658	10652	1	1	67	0	1
6658	10652	1	7	67	0	39
6660	10656	1	1	65	80	1
6660	10656	1	7	65	80	39
6660	10656	4	2	65	45	4
6660	10656	9	6	38	0	0
6660	10656	9	6	42	0	0
6660	10656	9	6	42	72	0
6681	10689	7	5	38	0	35
6689	10702	1	1	65	0	1
6689	10702	1	7	65	0	39
6690	10704	1	1	67	80	1
6690	10704	1	7	67	80	39
6703	10724	4	2	57	0	4
6705	10728	4	2	62	0	4
6717	10747	4	2	65	0	4
6719	10750	1	1	65	80	1
6719	10750	1	1	67	0	1
6719	10750	1	7	65	80	39
6719	10750	1	7	67	0	39
6720	10752	4	2	58	56	4
6720	10752	7	5	46	76	35
6720	10752	9	6	35	72	0
6720	10752	9	6	42	0	0
6720	10752	9	6	42	72	0
6780	10848	4	2	65	53	4
6780	10848	6	4	62	48	48
6780	10848	9	6	42	0	0
6780	10848	9	6	42	72	0
6839	10942	1	1	65	0	1
6839	10942	1	7	65	0	39
6840	10944	1	1	69	80	1
6840	10944	1	7	69	80	39
6840	10944	4	2	70	53	4
6840	10944	6	4	65	53	48
6840	10944	9	6	35	0	0
6840	10944	9	6	38	72	0
6840	10944	9	6	42	0	0
6840	10944	9	6	42	72	0
6869	10990	1	1	69	0	1
6869	10990	1	7	69	0	39
6870	10992	1	1	67	80	1
6870	10992	1	7	67	80	39
6892	11027	4	2	58	0	4
6895	11032	6	4	62	0	48
6899	11038	1	1	67	0	1
6899	11038	1	7	67	0	39
6900	11040	1	1	65	80	1
6900	11040	1	7	65	80	39
6900	11040	4	2	74	56	4
6900	11040	6	4	70	53	48
6900	11040	9	6	38	0	0
6900	11040	9	6	42	0	0
6900	11040	9	6	42	72	0
6921	11073	7	5	46	0	35
6928	11084	1	1	65	0	1
6928	11084	1	7	65	0	39
6930	11088	1	1	67	80	1
6930	11088	1	7	67	80	39
6955	11128	6	4	65	0	48
6957	11131	4	2	74	0	4
6959	11134	1	1	67	0	1
6959	11134	1	7	67	0	39
6960	11136	1	1	65	80	1
6960	11136	1	7	65	80	39
6960	11136	4	2	55	53	4
6960	11136	4	2	60	53	4
6960	11136	4	2	65	0	4
6960	11136	4	2	67	56	4
6960	11136	4	2	70	0	4
6960	11136	6	4	60	53	48
6960	11136	6	4	64	48	48
6960	11136	6	4	70	0	48
6960	11136	7	5	36	72	35
6960	11136	9	6	42	0	0
6960	11136	9	6	42	72	0
7015	11224	6	4	60	0	48
7017	11227	4	2	67	0	4
7020	11232	4	2	64	39	4
7020	11232	9	6	35	72	0
7020	11232	9	6	42	0	0
7020	11232	9	6	42	72	0
7049	11278	1	1	65	0	1
7049	11278	1	7	65	0	39
7050	11280	1	1	60	80	1
7050	11280	1	7	60	80	39
7050	11280	5	3	55	53	25
7075	11320	6	4	64	0	48
7077	11323	4	2	64	0	4
7079	11326	1	1	60	0	1
7079	11326	1	7	60	0	39
7080	11328	1	1	69	80	1
7080	11328	1	7	69	80	39
7080	11328	4	2	67	56	4
7080	11328	5	3	60	62	25
7080	11328	5	3	64	68	25
7080	11328	9	6	35	0	0
7080	11328	9	6	38	72	0
7080	11328	9	6	42	0	0
7080	11328	9	6	42	72	0
7109	11374	1	1	69	0	1
7109	11374	1	7	69	0	39
7110	11376	1	1	67	80	1
7110	11376	1	7	67	80	39
7132	11411	7	5	36	0	35
7136	11417	5	3	55	0	25
7137	11419	4	2	67	0	4
7137	11419	5	3	60	0	25
7137	11419	5	3	64	0	25
7139	11422	1	1	67	0	1
7139	11422	1	7	67	0	39
7140	11424	1	1	65	80	1
7140	11424	1	7	65	80	39
7140	11424	4	2	64	45	4
7140	11424	7	5	43	62	35
7140	11424	9	6	38	0	0
7140	11424	9	6	42	0	0
7140	11424	9	6	42	72	0
7169	11470	1	1	65	0	1
7169	11470	1	7	65	0	39
7170	11472	1	1	67	80	1
7170	11472	1	7	67	80	39
7183	11492	4	2	55	0	4
7185	11496	4	2	60	0	4
7197	11515	4	2	64	0	4
7197	11515	7	5	43	0	35
7199	11518	1	1	67	0	1
7199	11518	1	7	67	0	39
7200	11520	1	1	65	80	1
7200	11520	1	7	65	80	39
7200	11520	4	2	53	56	4
7200	11520	7	5	41	68	35
7200	11520	9	6	35	72	0
7200	11520	9	6	42	0	0
7200	11520	9	6	42	72	0
7260	11616	4	2	60	53	4
7260	11616	9	6	42	0	0
7260	11616	9	6	42	72	0
7320	11712	4	2	65	53	4
7320	11712	9	6	35	0	0
7320	11712	9	6	38	72	0
7320	11712	9	6	42	0	0
7320	11712	9	6	42	72	0
7350	11760	7	5	41	0	35
7380	11808	4	2	53	0	4
7380	11808	4	2	69	56	4
7380	11808	7	5	50	65	35
7380	11808	9	6	38	0	0
7380	11808	9	6	42	0	0
7380	11808	9	6	42	72	0
7410	11856	5	3	60	53	25
7410	11856	7	5	48	65	35
7410	11856	7	5	50	0	35
7436	11897	4	2	60	0	4
7439	11902	1	1	65	0	1
7439	11902	1	7	65	0	39
7440	11904	1	1	65	80	1
7440	11904	1	7	65	80	39
7440	11904	4	2	63	53	4
7440	11904	4	2	65	0	4
7440	11904	4	2	69	0	4
7440	11904	4	2	69	56	4
7440	11904	4	2	72	56	4
7440	11904	5	3	60	0	25
7440	11904	5	3	60	53	25
7440	11904	5	3	65	62	25
7440	11904	5	3	69	68	25
7440	11904	6	4	72	44	48
7440	11904	7	5	41	76	35
7440	11904	7	5	48	0	35
7440	11904	9	6	42	0	0
7440	11904	9	6	42	72	0
7498	11996	1	1	65	0	1
7498	11996	1	7	65	0	39
7500	12000	1	1	67	80	1
7500	12000	1	7	67	80	39
7500	12000	9	6	35	72	0
7500	12000	9	6	42	0	0
7500	12000	9	6	42	72	0
7527	12043	5	3	60	0	25
7528	12044	6	4	72	0	48
7557	12091	5	3	65	0	25
7557	12091	5	3	69	0	25
7559	12094	1	1	67	0	1
7559	12094	1	7	67	0	39
7560	12096	1	1	69	80	1
7560	12096	1	7	69	80	39
7560	12096	6	4	77	59	48
7560	12096	9	6	35	0	0
7560	12096	9	6	38	72	0
7560	12096	9	6	42	0	0
7560	12096	9	6	42	72	0
7618	12188	6	4	77	0	48
7619	12190	1	1	69	0	1
7619	12190	1	7	69	0	39
7620	12192	1	1	65	80	1
7620	12192	1	7	65	80	39
7620	12192	6	4	75	52	48
7620	12192	9	6	38	0	0
7620	12192	9	6	42	0	0
7620	12192	9	6	45	72	0
7650	12240	7	5	41	0	35
7650	12240	9	6	45	0	0
7650	12240	9	6	45	72	0
7672	12275	4	2	63	0	4
7674	12278	4	2	69	0	4
7675	12280	4	2	72	0	4
7677	12283	6	4	75	0	48
7679	12286	1	1	65	0	1
7679	12286	1	7	65	0	39
7680	12288	1	1	74	80	1
7680	12288	1	7	74	80	39
7680	12288	4	2	58	56	4
7680	12288	6	4	58	36	48
7680	12288	6	4	70	34	48
7680	12288	6	4	74	48	48
7680	12288	7	5	46	62	35
7680	12288	9	6	35	72	0
7680	12288	9	6	45	0	0
7680	12288	9	6	49	72	0
7739	12382	1	1	74	0	1
7739	12382	1	7	74	0	39
7740	12384	1	1	72	80	1
7740	12384	1	7	72	80	39
7740	12384	4	2	65	53	4
7740	12384	9	6	42	72	0
7740	12384	9	6	49	0	0
7769	12430	1	1	72	0	1
7769	12430	1	7	72	0	39
7770	12432	1	1	74	80	1
7770	12432	1	7	74	80	39
7800	12480	4	2	70	53	4
7800	12480	9	6	35	0	0
7800	12480	9	6	38	72	0
7800	12480	9	6	42	0	0
7800	12480	9	6	42	72	0
7852	12563	4	2	58	0	4
7860	12576	4	2	74	56	4
7860	12576	9	6	38	0	0
7860	12576	9	6	42	0	0
7860	12576	9	6	42	72	0
7881	12609	7	5	46	0	35
7889	12622	1	1	65	80	1
7889	12622	1	1	74	0	1
7889	12622	1	7	65	80	39
7889	12622	1	7	74	0	39
7890	12624	9	6	38	72	0
7890	12624	9	6	42	0	0
7917	12667	4	2	74	0	4
7919	12670	1	1	65	0	1
7919	12670	1	7	65	0	39
7920	12672	1	1	76	80	1
7920	12672	1	7	76	80	39
7920	12672	4	2	55	53	4
7920	12672	4	2	60	53	4
7920	12672	4	2	65	0	4
7920	12672	4	2	67	56	4
7920	12672	4	2	70	0	4
7920	12672	6	4	48	36	48
7920	12672	6	4	58	0	48
7920	12672	6	4	60	34	48
7920	12672	6	4	64	48	48
7920	12672	6	4	70	0	48
7920	12672	6	4	74	0	48
7920	12672	7	5	36	68	35
7920	12672	9	6	35	72	0
7920	12672	9	6	38	0	0
7920	12672	9	6	42	72	0
7950	12720	9	6	38	72	0
7950	12720	9	6	42	0	0
7977	12763	4	2	67	0	4
7979	12766	1	1	76	0	1
7979	12766	1	7	76	0	39
7980	12768	1	1	74	80	1
7980	12768	1	7	74	80	39
7980	12768	4	2	64	39	4
7980	12768	9	6	35	0	0
7980	12768	9	6	35	72	0
7980	12768	9	6	38	0	0
7980	12768	9	6	42	72	0
8009	12814	1	1	74	0	1
8009	12814	1	7	74	0	39
8010	12816	1	1	76	80	1
8010	12816	1	7	76	80	39
8010	12816	5	3	55	53	25
8035	12856	7	5	36	0	35
8037	12859	4	2	64	0	4
8040	12864	4	2	72	56	4
8040	12864	5	3	60	62	25
8040	12864	5	3	64	68	25
8040	12864	7	5	40	65	35
8040	12864	9	6	35	0	0
8040	12864	9	6	38	72	0
8040	12864	9	6	42	0	0
8040	12864	9	6	42	72	0
8096	12953	5	3	55	0	25
8097	12955	4	2	72	0	4
8097	12955	5	3	60	0	25
8097	12955	5	3	64	0	25
8097	12955	7	5	40	0	35
8100	12960	4	2	67	45	4
8100	12960	7	5	31	59	35
8100	12960	9	6	38	0	0
8100	12960	9	6	42	0	0
8100	12960	9	6	42	72	0
8141	13025	6	4	48	0	48
8143	13028	4	2	55	0	4
8145	13032	4	2	60	0	4
8157	13051	4	2	67	0	4
8157	13051	7	5	31	0	35
8159	13054	1	1	76	0	1
8159	13054	1	1	76	80	1
8159	13054	1	7	76	0	39
8159	13054	1	7	76	80	39
8160	13056	4	2	57	56	4
8160	13056	6	4	60	0	48
8160	13056	6	4	64	0	48
8160	13056	6	4	69	34	48
8160	13056	6	4	73	48	48
8160	13056	6	4	76	45	48
8160	13056	7	5	45	65	35
8160	13056	9	6	35	72	0
8160	13056	9	6	42	0	0
8160	13056	9	6	42	72	0
8219	13150	1	1	76	0	1
8219	13150	1	7	76	0	39
8220	13152	1	1	74	80	1
8220	13152	1	7	74	80	39
8220	13152	4	2	64	53	4
8220	13152	9	6	42	0	0
8220	13152	9	6	42	72	0
8249	13198	1	1	74	0	1
8249	13198	1	7	74	0	39
8250	13200	1	1	76	80	1
8250	13200	1	7	76	80	39
8280	13248	4	2	69	53	4
8280	13248	9	6	35	0	0
8280	13248	9	6	38	72	0
8280	13248	9	6	42	0	0
8280	13248	9	6	42	72	0
8332	13331	4	2	57	0	4
8340	13344	4	2	73	56	4
8340	13344	9	6	38	0	0
8340	13344	9	6	42	0	0
8340	13344	9	6	42	72	0
8361	13377	7	5	45	0	35
8369	13390	1	1	76	0	1
8369	13390	1	7	76	0	39
8370	13392	1	1	69	80	1
8370	13392	1	7	69	80	39
8370	13392	9	6	38	72	0
8370	13392	9	6	42	0	0
8397	13435	4	2	73	0	4
8399	13438	1	1	69	0	1
8399	13438	1	7	69	0	39
8400	13440	1	1	77	80	1
8400	13440	1	7	77	80	39
8400	13440	4	2	57	53	4
8400	13440	4	2	62	53	4
8400	13440	4	2	64	0	4
8400	13440	4	2	69	0	4
8400	13440	4	2	69	56	4
8400	13440	6	4	62	34	48
8400	13440	6	4	65	48	48
8400	13440	6	4	69	0	48
8400	13440	6	4	69	45	48
8400	13440	6	4	73	0	48
8400	13440	6	4	76	0	48
8400	13440	7	5	38	65	35
8400	13440	9	6	35	72	0
8400	13440	9	6	38	0	0
8400	13440	9	6	42	72	0
8429	13486	1	1	77	0	1
8429	13486	1	7	77	0	39
8430	13488	1	1	79	80	1
8430	13488	1	7	79	80	39
8430	13488	9	6	38	72	0
8430	13488	9	6	42	0	0
8457	13531	4	2	69	0	4
8459	13534	1	1	79	0	1
8459	13534	1	7	79	0	39
8460	13536	1	1	77	80	1
8460	13536	1	7	77	80	39
8460	13536	4	2	65	39	4
8460	13536	9	6	35	0	0
8460	13536	9	6	35	72	0
8460	13536	9	6	38	0	0
8460	13536	9	6	42	72	0
8489	13582	1	1	77	0	1
8489	13582	1	7	77	0	39
8490	13584	1	1	76	80	1
8490	13584	1	7	76	80	39
8490	13584	5	3	57	53	25
8517	13627	4	2	65	0	4
8519	13630	1	1	76	0	1
8519	13630	1	7	76	0	39
8520	13632	1	1	74	80	1
8520	13632	1	7	74	80	39
8520	13632	4	2	69	56	4
8520	13632	5	3	62	62	25
8520	13632	5	3	65	68	25
8520	13632	9	6	35	0	0
8520	13632	9	6	38	72	0
8520	13632	9	6	42	0	0
8520	13632	9	6	42	72	0
8572	13715	7	5	38	0	35
8576	13721	5	3	57	0	25
8577	13723	4	2	69	0	4
8577	13723	5	3	62	0	25
8577	13723	5	3	65	0	25
8579	13726	1	1	74	0	1
8579	13726	1	7	74	0	39
8580	13728	1	1	72	80	1
8580	13728	1	7	72	80	39
8580	13728	4	2	65	45	4
8580	13728	7	5	33	68	35
8580	13728	9	6	38	0	0
8580	13728	9	6	42	0	0
8580	13728	9	6	42	72	0
8601	13761	6	4	62	0	48
8601	13761	6	4	65	0	48
8621	13793	6	4	69	0	48
8623	13796	4	2	57	0	4
8625	13800	4	2	62	0	4
8637	13819	4	2	65	0	4
8637	13819	7	5	33	0	35
8639	13822	1	1	72	0	1
8639	13822	1	7	72	0	39
8640	13824	1	1	74	80	1
8640	13824	1	7	74	80	39
8640	13824	4	2	58	56	4
8640	13824	6	4	58	41	48
8640	13824	6	4	70	36	48
8640	13824	6	4	74	46	48
8640	13824	7	5	46	72	35
8640	13824	9	6	35	72	0
8640	13824	9	6	42	0	0
8640	13824	9	6	42	72	0
8699	13918	1	1	74	0	1
8699	13918	1	7	74	0	39
8700	13920	1	1	72	80	1
8700	13920	1	7	72	80	39
8700	13920	4	2	65	53	4
8700	13920	9	6	42	0	0
8700	13920	9	6	42	72	0
8729	13966	1	1	72	0	1
8729	13966	1	7	72	0	39
8730	13968	1	1	74	80	1
8730	13968	1	7	74	80	39
8760	14016	4	2	70	53	4
8760	14016	9	6	35	0	0
8760	14016	9	6	38	72	0
8760	14016	9	6	42	0	0
8760	14016	9	6	42	72	0
8789	14062	1	1	74	0	1
8789	14062	1	7	74	0	39
8790	14064	1	1	72	80	1
8790	14064	1	7	72	80	39
8812	14099	4	2	58	0	4
8819	14110	1	1	72	0	1
8819	14110	1	7	72	0	39
8820	14112	1	1	74	80	1
8820	14112	1	7	74	80	39
8820	14112	4	2	74	56	4
8820	14112	9	6	38	0	0
8820	14112	9	6	42	0	0
8820	14112	9	6	42	72	0
8841	14145	7	5	46	0	35
8849	14158	1	1	74	0	1
8849	14158	1	7	74	0	39
8850	14160	1	1	72	80	1
8850	14160	1	7	72	80	39
8850	14160	9	6	38	72	0
8850	14160	9	6	42	0	0
8877	14203	4	2	74	0	4
8879	14206	1	1	72	0	1
8879	14206	1	7	72	0	39
8880	14208	1	1	74	80	1
8880	14208	1	7	74	80	39
8880	14208	4	2	55	53	4
8880	14208	4	2	60	53	4
8880	14208	4	2	65	0	4
8880	14208	4	2	67	56	4
8880	14208	4	2	70	0	4
8880	14208	6	4	48	41	48
8880	14208	6	4	58	0	48
8880	14208	6	4	60	36	48
8880	14208	6	4	64	46	48
8880	14208	6	4	70	0	48
8880	14208	6	4	74	0	48
8880	14208	7	5	36	65	35
8880	14208	9	6	35	72	0
8880	14208	9	6	38	0	0
8880	14208	9	6	42	72	0
8910	14256	9	6	38	72	0
8910	14256	9	6	42	0	0
8937	14299	4	2	67	0	4
8939	14302	1	1	74	0	1
8939	14302	1	7	74	0	39
8940	14304	1	1	72	80	1
8940	14304	1	7	72	80	39
8940	14304	4	2	64	39	4
8940	14304	9	6	35	0	0
8940	14304	9	6	35	72	0
8940	14304	9	6	38	0	0
8940	14304	9	6	42	72	0
8969	14350	1	1	72	0	1
8969	14350	1	7	72	0	39
8970	14352	1	1	67	80	1
8970	14352	1	7	67	80	39
8970	14352	5	3	55	53	25
8995	14392	7	5	36	0	35
8997	14395	4	2	64	0	4
9000	14400	4	2	72	56	4
9000	14400	5	3	60	62	25
9000	14400	5	3	64	68	25
9000	14400	7	5	40	72	35
9000	14400	9	6	35	0	0
9000	14400	9	6	38	72	0
9000	14400	9	6	42	0	0
9000	14400	9	6	42	72	0
9056	14489	5	3	55	0	25
9057	14491	4	2	72	0	4
9057	14491	5	3	60	0	25
9057	14491	5	3	64	0	25
9057	14491	7	5	40	0	35
9059	14494	1	1	67	0	1
9059	14494	1	7	67	0	39
9060	14496	1	1	72	80	1
9060	14496	1	7	72	80	39
9060	14496	4	2	67	45	4
9060	14496	7	5	31	68	35
9060	14496	9	6	38	0	0
9060	14496	9	6	42	0	0
9060	14496	9	6	42	72	0
9089	14542	1	1	72	0	1
9089	14542	1	7	72	0	39
9090	14544	1	1	69	80	1
9090	14544	1	7	69	80	39
9101	14561	6	4	48	0	48
9101	14561	6	4	60	0	48
9101	14561	6	4	64	0	48
9103	14564	4	2	55	0	4
9105	14568	4	2	60	0	4
9117	14587	4	2	67	0	4
9117	14587	7	5	31	0	35
9119	14590	1	1	69	0	1
9119	14590	1	7	69	0	39
9120	14592	1	1	69	80	1
9120	14592	1	7	69	80	39
9120	14592	4	2	53	56	4
9120	14592	6	4	65	44	48
9120	14592	6	4	69	44	48
9120	14592	6	4	72	48	48
9120	14592	7	5	41	65	35
9120	14592	9	6	35	72	0
9120	14592	9	6	42	0	0
9120	14592	9	6	42	72	0
9180	14688	4	2	60	53	4
9180	14688	9	6	42	0	0
9180	14688	9	6	42	72	0
9240	14784	4	2	65	53	4
9240	14784	9	6	35	0	0
9240	14784	9	6	38	72	0
9240	14784	9	6	42	0	0
9240	14784	9	6	42	72	0
9292	14867	4	2	53	0	4
9300	14880	4	2	69	56	4
9300	14880	9	6	38	0	0
9300	14880	9	6	42	0	0
9300	14880	9	6	42	72	0
9321	14913	7	5	41	0	35
9330	14928	9	6	38	72	0
9330	14928	9	6	42	0	0
9357	14971	4	2	69	0	4
9359	14974	1	1	69	0	1
9359	14974	1	7	69	0	39
9360	14976	1	1	65	80	1
9360	14976	1	7	65	80	39
9360	14976	4	2	60	0	4
9360	14976	4	2	60	53	4
9360	14976	4	2	63	53	4
9360	14976	4	2	65	0	4
9360	14976	4	2	72	56	4
9360	14976	6	4	63	44	48
9360	14976	6	4	65	0	48
9360	14976	6	4	69	0	48
9360	14976	6	4	69	44	48
9360	14976	6	4	72	0	48
9360	14976	6	4	72	48	48
9360	14976	7	5	41	65	35
9360	14976	9	6	35	72	0
9360	14976	9	6	38	0	0
9360	14976	9	6	42	72	0
9390	15024	9	6	38	72	0
9390	15024	9	6	42	0	0
9417	15067	4	2	72	0	4
9419	15070	1	1	65	0	1
9419	15070	1	7	65	0	39
9420	15072	1	1	67	80	1
9420	15072	1	7	67	80	39
9420	15072	4	2	69	39	4
9420	15072	9	6	35	0	0
9420	15072	9	6	35	72	0
9420	15072	9	6	38	0	0
9420	15072	9	6	42	72	0
9450	15120	5	3	60	53	25
9477	15163	4	2	69	0	4
9479	15166	1	1	67	0	1
9479	15166	1	7	67	0	39
9480	15168	1	1	69	80	1
9480	15168	1	7	69	80	39
9480	15168	4	2	72	56	4
9480	15168	5	3	65	62	25
9480	15168	5	3	69	68	25
9480	15168	9	6	35	0	0
9480	15168	9	6	38	72	0
9480	15168	9	6	42	0	0
9480	15168	9	6	42	72	0
9536	15257	5	3	60	0	25
9537	15259	4	2	72	0	4
9537	15259	5	3	65	0	25
9537	15259	5	3	69	0	25
9539	15262	1	1	69	0	1
9539	15262	1	7	69	0	39
9540	15264	1	1	65	80	1
9540	15264	1	7	65	80	39
9540	15264	4	2	69	45	4
9540	15264	9	6	38	0	0
9540	15264	9	6	42	0	0
9540	15264	9	6	46	72	0
9552	15283	6	4	63	0	48
9552	15283	6	4	69	0	48
9552	15283	6	4	72	0	48
9561	15297	7	5	41	0	35
9583	15332	4	2	60	0	4
9585	15336	4	2	63	0	4
9597	15355	4	2	69	0	4
9599	15358	1	1	65	0	1
9599	15358	1	7	65	0	39
9600	15360	1	1	74	80	1
9600	15360	1	7	74	80	39
9600	15360	4	2	58	56	4
9600	15360	6	4	58	36	48
9600	15360	6	4	70	34	48
9600	15360	6	4	74	48	48
9600	15360	7	5	46	62	35
9600	15360	9	6	35	72	0
9600	15360	9	6	42	72	0
9600	15360	9	6	46	0	0
9659	15454	1	1	74	0	1
9659	15454	1	7	74	0	39
9660	15456	1	1	72	80	1
9660	15456	1	7	72	80	39
9660	15456	4	2	65	53	4
9660	15456	9	6	42	0	0
9660	15456	9	6	42	72	0
9689	15502	1	1	72	0	1
9689	15502	1	7	72	0	39
9690	15504	1	1	74	80	1
9690	15504	1	7	74	80	39
9720	15552	4	2	70	53	4
9720	15552	9	6	35	0	0
9720	15552	9	6	38	72	0
9720	15552	9	6	42	0	0
9720	15552	9	6	42	72	0
9772	15635	4	2	58	0	4
9780	15648	4	2	74	56	4
9780	15648	9	6	38	0	0
9780	15648	9	6	42	0	0
9780	15648	9	6	42	72	0
9801	15681	7	5	46	0	35
9809	15694	1	1	74	0	1
9809	15694	1	7	74	0	39
9810	15696	1	1	65	80	1
9810	15696	1	7	65	80	39
9810	15696	9	6	38	72	0
9810	15696	9	6	42	0	0
9837	15739	4	2	74	0	4
9839	15742	1	1	65	0	1
9839	15742	1	7	65	0	39
9840	15744	1	1	76	80	1
9840	15744	1	7	76	80	39
9840	15744	4	2	55	53	4
9840	15744	4	2	60	53	4
9840	15744	4	2	65	0	4
9840	15744	4	2	67	56	4
9840	15744	4	2	70	0	4
9840	15744	6	4	48	36	48
9840	15744	6	4	58	0	48
9840	15744	6	4	60	34	48
9840	15744	6	4	64	48	48
9840	15744	6	4	70	0	48
9840	15744	6	4	74	0	48
9840	15744	7	5	36	68	35
9840	15744	9	6	35	72	0
9840	15744	9	6	38	0	0
9840	15744	9	6	42	72	0
9870	15792	9	6	38	72	0
9870	15792	9	6	42	0	0
9897	15835	4	2	67	0	4
9899	15838	1	1	76	0	1
9899	15838	1	7	76	0	39
9900	15840	1	1	74	80	1
9900	15840	1	7	74	80	39
9900	15840	4	2	64	39	4
9900	15840	9	6	35	0	0
9900	15840	9	6	35	72	0
9900	15840	9	6	38	0	0
9900	15840	9	6	42	72	0
9929	15886	1	1	74	0	1
9929	15886	1	7	74	0	39
9930	15888	1	1	76	80	1
9930	15888	1	7	76	80	39
9930	15888	5	3	55	53	25
9955	15928	7	5	36	0	35
9957	15931	4	2	64	0	4
9960	15936	4	2	72	56	4
9960	15936	5	3	60	62	25
9960	15936	5	3	64	68	25
9960	15936	7	5	40	65	35
9960	15936	9	6	35	0	0
9960	15936	9	6	38	72	0
9960	15936	9	6	42	0	0
9960	15936	9	6	42	72	0
10016	16025	5	3	55	0	25
10017	16027	4	2	72	0	4
10017	16027	5	3	60	0	25
10017	16027	5	3	64	0	25
10017	16027	7	5	40	0	35
10020	16032	4	2	67	45	4
10020	16032	7	5	31	59	35
10020	16032	9	6	38	0	0
10020	16032	9	6	42	0	0
10020	16032	9	6	42	72	0
10061	16097	6	4	48	0	48
10063	16100	4	2	55	0	4
10065	16104	4	2	60	0	4
10077	16123	4	2	67	0	4
10077	16123	7	5	31	0	35
10079	16126	1	1	76	0	1
10079	16126	1	7	76	0	39
10080	16128	1	1	76	80	1
10080	16128	1	7	76	80	39
10080	16128	4	2	57	56	4
10080	16128	6	4	60	0	48
10080	16128	6	4	64	0	48
10080	16128	6	4	69	34	48
10080	16128	6	4	73	48	48
10080	16128	6	4	76	45	48
10080	16128	7	5	45	65	35
10080	16128	9	6	35	72	0
10080	16128	9	6	42	0	0
10080	16128	9	6	42	72	0
10139	16222	1	1	76	0	1
10139	16222	1	7	76	0	39
10140	16224	1	1	74	80	1
10140	16224	1	7	74	80	39
10140	16224	4	2	64	53	4
10140	16224	9	6	42	0	0
10140	16224	9	6	42	72	0
10169	16270	1	1	74	0	1
10169	16270	1	7	74	0	39
10170	16272	1	1	76	80	1
10170	16272	1	7	76	80	39
10200	16320	4	2	69	53	4
10200	16320	9	6	35	0	0
10200	16320	9	6	38	72	0
10200	16320	9	6	42	0	0
10200	16320	9	6	42	72	0
10252	16403	4	2	57	0	4
10260	16416	4	2	73	56	4
10260	16416	9	6	38	0	0
10260	16416	9	6	42	0	0
10260	16416	9	6	42	72	0
10281	16449	7	5	45	0	35
10289	16462	1	1	76	0	1
10289	16462	1	7	76	0	39
10290	16464	1	1	69	80	1
10290	16464	1	7	69	80	39
10290	16464	9	6	38	72	0
10290	16464	9	6	42	0	0
10317	16507	4	2	73	0	4
10319	16510	1	1	69	0	1
10319	16510	1	1	77	80	1
10319	16510	1	7	69	0	39
10319	16510	1	7	77	80	39
10320	16512	4	2	57	53	4
10320	16512	4	2	62	53	4
10320	16512	4	2	64	0	4
10320	16512	4	2	69	0	4
10320	16512	4	2	69	56	4
10320	16512	6	4	62	34	48
10320	16512	6	4	65	48	48
10320	16512	6	4	69	0	48
10320	16512	6	4	69	45	48
10320	16512	6	4	73	0	48
10320	16512	6	4	76	0	48
10320	16512	7	5	38	65	35
10320	16512	9	6	35	72	0
10320	16512	9	6	38	0	0
10320	16512	9	6	42	72	0
10349	16558	1	1	77	0	1
10349	16558	1	7	77	0	39
10350	16560	1	1	79	80	1
10350	16560	1	7	79	80	39
10350	16560	9	6	38	72	0
10350	16560	9	6	42	0	0
10377	16603	4	2	69	0	4
10378	16604	1	1	79	0	1
10378	16604	1	7	79	0	39
10380	16608	1	1	77	80	1
10380	16608	1	7	77	80	39
10380	16608	4	2	65	39	4
10380	16608	9	6	35	0	0
10380	16608	9	6	35	72	0
10380	16608	9	6	38	0	0
10380	16608	9	6	42	72	0
10409	16654	1	1	77	0	1
10409	16654	1	7	77	0	39
10410	16656	1	1	76	80	1
10410	16656	1	7	76	80	39
10410	16656	5	3	57	53	25
10437	16699	4	2	65	0	4
10439	16702	1	1	74	80	1
10439	16702	1	1	76	0	1
10439	16702	1	7	74	80	39
10439	16702	1	7	76	0	39
10440	16704	4	2	69	56	4
10440	16704	5	3	62	62	25
10440	16704	5	3	65	68	25
10440	16704	9	6	35	0	0
10440	16704	9	6	38	72	0
10440	16704	9	6	42	0	0
10440	16704	9	6	42	72	0
10492	16787	7	5	38	0	35
10496	16793	5	3	57	0	25
10497	16795	4	2	69	0	4
10497	16795	5	3	62	0	25
10497	16795	5	3	65	0	25
10499	16798	1	1	74	0	1
10499	16798	1	7	74	0	39
10500	16800	1	1	72	80	1
10500	16800	1	7	72	80	39
10500	16800	4	2	65	45	4
10500	16800	7	5	33	68	35
10500	16800	9	6	38	0	0
10500	16800	9	6	42	0	0
10500	16800	9	6	42	72	0
10521	16833	6	4	62	0	48
10521	16833	6	4	65	0	48
10541	16865	6	4	69	0	48
10543	16868	4	2	57	0	4
10545	16872	4	2	62	0	4
10557	16891	4	2	65	0	4
10557	16891	7	5	33	0	35
10559	16894	1	1	72	0	1
10559	16894	1	7	72	0	39
10560	16896	1	1	74	80	1
10560	16896	1	7	74	80	39
10560	16896	4	2	58	56	4
10560	16896	6	4	58	41	48
10560	16896	6	4	70	36	48
10560	16896	6	4	74	46	48
10560	16896	7	5	46	72	35
10560	16896	9	6	35	72	0
10560	16896	9	6	42	0	0
10560	16896	9	6	42	72	0
10619	16990	1	1	74	0	1
10619	16990	1	1	81	80	1
10619	16990	1	7	74	0	39
10619	16990	1	7	81	80	39
10620	16992	4	2	65	53	4
10620	16992	9	6	42	0	0
10620	16992	9	6	42	72	0
10648	17036	1	1	81	0	1
10648	17036	1	7	81	0	39
10650	17040	1	1	81	80	1
10650	17040	1	7	81	80	39
10680	17088	4	2	70	53	4
10680	17088	9	6	35	0	0
10680	17088	9	6	38	72	0
10680	17088	9	6	42	0	0
10680	17088	9	6	42	72	0
10732	17171	4	2	58	0	4
10739	17182	1	1	72	80	1
10739	17182	1	1	81	0	1
10739	17182	1	7	72	80	39
10739	17182	1	7	81	0	39
10740	17184	4	2	74	56	4
10740	17184	9	6	38	0	0
10740	17184	9	6	42	0	0
10740	17184	9	6	42	72	0
10761	17217	7	5	46	0	35
10770	17232	9	6	38	72	0
10770	17232	9	6	42	0	0
10797	17275	4	2	74	0	4
10799	17278	1	1	72	0	1
10799	17278	1	7	72	0	39
10800	17280	1	1	74	80	1
10800	17280	1	7	74	80	39
10800	17280	4	2	55	53	4
10800	17280	4	2	60	53	4
10800	17280	4	2	65	0	4
10800	17280	4	2	67	56	4
10800	17280	4	2	70	0	4
10800	17280	6	4	48	41	48
10800	17280	6	4	58	0	48
10800	17280	6	4	60	36	48
10800	17280	6	4	64	46	48
10800	17280	6	4	70	0	48
10800	17280	6	4	74	0	48
10800	17280	7	5	36	65	35
10800	17280	9	6	35	72	0
10800	17280	9	6	38	0	0
10800	17280	9	6	42	72	0
10830	17328	9	6	38	72	0
10830	17328	9	6	42	0	0
10857	17371	4	2	67	0	4
10859	17374	1	1	74	0	1
10859	17374	1	7	74	0	39
10860	17376	1	1	81	80	1
10860	17376	1	7	81	80	39
10860	17376	4	2	64	39	4
10860	17376	9	6	35	0	0
10860	17376	9	6	35	72	0
10860	17376	9	6	38	0	0
10860	17376	9	6	42	72	0
10889	17422	1	1	81	0	1
10889	17422	1	7	81	0	39
10890	17424	1	1	81	80	1
10890	17424	1	7	81	80	39
10890	17424	5	3	55	53	25
10915	17464	7	5	36	0	35
10917	17467	4	2	64	0	4
10920	17472	4	2	72	56	4
10920	17472	5	3	60	62	25
10920	17472	5	3	64	68	25
10920	17472	7	5	40	72	35
10920	17472	9	6	35	0	0
10920	17472	9	6	38	72	0
10920	17472	9	6	42	0	0
10920	17472	9	6	42	72	0
10976	17561	5	3	55	0	25
10977	17563	4	2	72	0	4
10977	17563	5	3	60	0	25
10977	17563	5	3	64	0	25
10977	17563	7	5	40	0	35
10979	17566	1	1	81	0	1
10979	17566	1	7	81	0	39
10980	17568	1	1	72	80	1
10980	17568	1	7	72	80	39
10980	17568	4	2	67	45	4
10980	17568	7	5	31	68	35
10980	17568	9	6	38	0	0
10980	17568	9	6	42	0	0
10980	17568	9	6	42	72	0
11009	17614	1	1	72	0	1
11009	17614	1	7	72	0	39
11010	17616	1	1	74	80	1
11010	17616	1	7	74	80	39
11021	17633	6	4	48	0	48
11021	17633	6	4	60	0	48
11021	17633	6	4	64	0	48
11023	17636	4	2	55	0	4
11025	17640	4	2	60	0	4
11037	17659	4	2	67	0	4
11037	17659	7	5	31	0	35
11039	17662	1	1	74	0	1
11039	17662	1	7	74	0	39
11040	17664	1	1	74	80	1
11040	17664	1	7	74	80	39
11040	17664	5	3	50	65	25
11040	17664	6	4	77	45	48
11040	17664	7	5	50	71	35
11040	17664	9	6	38	72	0
11040	17664	9	6	42	0	0
11040	17664	9	6	45	72	0
11070	17712	5	3	53	53	25
11100	17760	5	3	57	53	25
11100	17760	9	6	38	0	0
11100	17760	9	6	38	72	0
11100	17760	9	6	45	0	0
11100	17760	9	6	45	72	0
11130	17808	5	3	50	0	25
11130	17808	5	3	62	56	25
11160	17856	5	3	53	0	25
11160	17856	5	3	62	65	25
11160	17856	7	5	38	62	35
11160	17856	7	5	50	0	35
11160	17856	9	6	38	0	0
11160	17856	9	6	38	72	0
11160	17856	9	6	45	0	0
11160	17856	9	6	45	72	0
11190	17904	5	3	57	0	25
11190	17904	5	3	69	68	25
11220	17952	9	6	38	0	0
11220	17952	9	6	38	72	0
11220	17952	9	6	45	0	0
11220	17952	9	6	45	72	0
11250	18000	4	2	74	53	4
11279	18046	1	1	74	0	1
11279	18046	1	7	74	0	39
11280	18048	4	2	81	56	4
11280	18048	4	2	86	73	4
11280	18048	9	6	38	0	0
11280	18048	9	6	38	72	0
11280	18048	9	6	45	0	0
11280	18048	9	6	45	72	0
11340	18144	7	5	38	0	35
11340	18144	7	5	45	59	35
11340	18144	9	6	38	0	0
11340	18144	9	6	38	72	0
11340	18144	9	6	45	0	0
11340	18144	9	6	45	72	0
11370	18192	7	5	41	53	35
11370	18192	7	5	45	0	35
11400	18240	1	1	77	80	1
11400	18240	1	7	77	80	39
11400	18240	6	4	77	0	48
11400	18240	7	5	41	0	35
11400	18240	7	5	45	59	35
11459	18334	1	1	77	0	1
11459	18334	1	7	77	0	39
11460	18336	1	1	79	80	1
11460	18336	1	7	79	80	39
11490	18384	4	2	74	0	4
11490	18384	4	2	81	0	4
11490	18384	4	2	86	0	4
11490	18384	5	3	62	0	25
11490	18384	5	3	69	0	25
11490	18384	7	5	45	0	35
11519	18430	1	1	79	0	1
11519	18430	1	7	79	0	39
11520	18432	1	1	81	80	1
11520	18432	1	7	81	80	39
11520	18432	3	1	62	60	1
11520	18432	3	1	65	60	1
11520	18432	3	1	70	60	1
11520	18432	4	2	58	49	4
11520	18432	5	3	62	68	25
11520	18432	5	3	65	65	25
11520	18432	5	3	70	64	25
11520	18432	6	4	86	48	48
11520	18432	6	4	89	48	48
11520	18432	7	5	46	63	35
11520	18432	9	6	35	72	0
11520	18432	9	6	38	0	0
11520	18432	9	6	45	0	0
11520	18432	9	6	49	72	0
11550	18480	5	3	62	0	25
11550	18480	5	3	65	0	25
11550	18480	5	3	70	0	25
11579	18526	1	1	81	0	1
11579	18526	1	7	81	0	39
11580	18528	1	1	86	80	1
11580	18528	1	7	86	80	39
11580	18528	4	2	65	49	4
11580	18528	5	3	62	66	25
11580	18528	5	3	65	66	25
11580	18528	5	3	70	66	25
11580	18528	9	6	35	0	0
11580	18528	9	6	35	72	0
11580	18528	9	6	42	72	0
11580	18528	9	6	49	0	0
11609	18574	1	1	86	0	1
11609	18574	1	7	86	0	39
11610	18576	1	1	84	80	1
11610	18576	1	7	84	80	39
11610	18576	4	2	58	0	4
11610	18576	5	3	62	0	25
11610	18576	5	3	65	0	25
11610	18576	5	3	70	0	25
11640	18624	3	1	62	0	1
11640	18624	3	1	65	0	1
11640	18624	3	1	70	0	1
11640	18624	4	2	70	49	4
11640	18624	5	3	62	64	25
11640	18624	5	3	65	64	25
11640	18624	5	3	70	64	25
11640	18624	9	6	35	0	0
11640	18624	9	6	38	72	0
11640	18624	9	6	42	0	0
11640	18624	9	6	42	72	0
11670	18672	5	3	62	0	25
11670	18672	5	3	65	0	25
11670	18672	5	3	70	0	25
11670	18672	7	5	46	0	35
11699	18718	1	1	84	0	1
11699	18718	1	7	84	0	39
11700	18720	1	1	86	80	1
11700	18720	1	7	86	80	39
11700	18720	3	1	62	60	1
11700	18720	3	1	65	60	1
11700	18720	3	1	70	60	1
11700	18720	4	2	74	50	4
11700	18720	5	3	62	61	25
11700	18720	5	3	65	61	25
11700	18720	5	3	70	61	25
11700	18720	7	5	46	65	35
11700	18720	9	6	38	0	0
11700	18720	9	6	42	0	0
11700	18720	9	6	42	72	0
11729	18766	1	1	84	80	1
11729	18766	1	1	86	0	1
11729	18766	1	7	84	80	39
11729	18766	1	7	86	0	39
11730	18768	4	2	70	0	4
11730	18768	7	5	46	0	35
11760	18816	3	1	52	60	1
11760	18816	3	1	55	60	1
11760	18816	3	1	60	60	1
11760	18816	3	1	62	0	1
11760	18816	3	1	65	0	1
11760	18816	3	1	70	0	1
11760	18816	4	2	55	49	4
11760	18816	4	2	64	0	4
11760	18816	4	2	64	50	4
11760	18816	4	2	65	0	4
11760	18816	4	2	67	50	4
11760	18816	4	2	74	0	4
11760	18816	5	3	52	61	25
11760	18816	5	3	55	61	25
11760	18816	5	3	60	61	25
11760	18816	5	3	62	0	25
11760	18816	5	3	65	0	25
11760	18816	5	3	70	0	25
11760	18816	6	4	76	48	48
11760	18816	6	4	79	48	48
11760	18816	6	4	86	0	48
11760	18816	6	4	89	0	48
11760	18816	7	5	36	65	35
11760	18816	9	6	35	72	0
11760	18816	9	6	42	0	0
11760	18816	9	6	42	72	0
11790	18864	4	2	55	0	4
11790	18864	5	3	52	0	25
11790	18864	5	3	55	0	25
11790	18864	5	3	60	0	25
11790	18864	9	6	38	72	0
11790	18864	9	6	42	0	0
11819	18910	1	1	84	0	1
11819	18910	1	7	84	0	39
11820	18912	1	1	86	80	1
11820	18912	1	7	86	80	39
11820	18912	4	2	64	50	4
11820	18912	4	2	67	0	4
11820	18912	5	3	52	60	25
11820	18912	5	3	55	60	25
11820	18912	5	3	60	60	25
11820	18912	9	6	35	0	0
11820	18912	9	6	35	72	0
11820	18912	9	6	38	0	0
11820	18912	9	6	42	72	0
11849	18958	1	1	86	0	1
11849	18958	1	7	86	0	39
11850	18960	1	1	84	80	1
11850	18960	1	7	84	80	39
11850	18960	5	3	52	0	25
11850	18960	5	3	55	0	25
11850	18960	5	3	60	0	25
11880	19008	4	2	60	50	4
11880	19008	4	2	64	0	4
11880	19008	5	3	52	59	25
11880	19008	7	5	36	0	35
11880	19008	9	6	35	0	0
11880	19008	9	6	38	72	0
11880	19008	9	6	42	0	0
11880	19008	9	6	42	72	0
11910	19056	5	3	52	0	25
11910	19056	5	3	55	59	25
11938	19100	1	1	84	0	1
11938	19100	1	7	84	0	39
11940	19104	1	1	79	80	1
11940	19104	1	7	79	80	39
11940	19104	3	1	52	0	1
11940	19104	3	1	55	0	1
11940	19104	3	1	60	0	1
11940	19104	4	2	55	50	4
11940	19104	5	3	55	0	25
11940	19104	5	3	60	59	25
11940	19104	7	5	43	67	35
11940	19104	9	6	38	0	0
11940	19104	9	6	42	0	0
11940	19104	9	6	42	72	0
11968	19148	1	1	79	0	1
11968	19148	1	7	79	0	39
11970	19152	1	1	81	80	1
11970	19152	1	7	81	80	39
11970	19152	4	2	60	0	4
11970	19152	5	3	60	0	25
11970	19152	6	4	76	0	48
11997	19195	4	2	55	0	4
12000	19200	3	1	60	60	1
12000	19200	3	1	64	60	1
12000	19200	3	1	69	60	1
12000	19200	4	2	57	51	4
12000	19200	5	3	60	59	25
12000	19200	5	3	64	59	25
12000	19200	5	3	69	59	25
12000	19200	6	4	79	0	48
12000	19200	6	4	88	48	48
12000	19200	6	4	93	51	48
12000	19200	7	5	43	0	35
12000	19200	7	5	45	67	35
12000	19200	7	5	52	0	35
12000	19200	7	5	52	67	35
12000	19200	9	6	35	72	0
12000	19200	9	6	42	0	0
12000	19200	9	6	42	72	0
12030	19248	5	3	60	0	25
12030	19248	5	3	64	0	25
12030	19248	5	3	69	0	25
12059	19294	1	1	81	0	1
12059	19294	1	7	81	0	39
12060	19296	1	1	86	80	1
12060	19296	1	7	86	80	39
12060	19296	4	2	64	51	4
12060	19296	5	3	60	59	25
12060	19296	5	3	64	59	25
12060	19296	5	3	69	59	25
12060	19296	9	6	35	0	0
12060	19296	9	6	35	72	0
12060	19296	9	6	42	0	0
12060	19296	9	6	42	72	0
12089	19342	1	1	86	0	1
12089	19342	1	7	86	0	39
12090	19344	1	1	84	80	1
12090	19344	1	7	84	80	39
12090	19344	4	2	57	0	4
12090	19344	5	3	60	0	25
12090	19344	5	3	64	0	25
12090	19344	5	3	69	0	25
12120	19392	3	1	60	0	1
12120	19392	3	1	64	0	1
12120	19392	3	1	69	0	1
12120	19392	4	2	69	51	4
12120	19392	5	3	60	60	25
12120	19392	5	3	64	60	25
12120	19392	5	3	69	60	25
12120	19392	9	6	35	0	0
12120	19392	9	6	38	72	0
12120	19392	9	6	42	0	0
12120	19392	9	6	42	72	0
12150	19440	5	3	60	0	25
12150	19440	5	3	64	0	25
12150	19440	5	3	69	0	25
12150	19440	7	5	45	0	35
12179	19486	1	1	84	0	1
12179	19486	1	7	84	0	39
12180	19488	1	1	86	80	1
12180	19488	1	7	86	80	39
12180	19488	3	1	60	60	1
12180	19488	3	1	64	60	1
12180	19488	3	1	69	60	1
12180	19488	4	2	69	0	4
12180	19488	4	2	72	52	4
12180	19488	5	3	60	60	25
12180	19488	5	3	64	60	25
12180	19488	5	3	69	60	25
12180	19488	7	5	45	67	35
12180	19488	9	6	38	0	0
12180	19488	9	6	42	0	0
12180	19488	9	6	42	72	0
12209	19534	1	1	86	0	1
12209	19534	1	7	86	0	39
12210	19536	1	1	84	80	1
12210	19536	1	7	84	80	39
12210	19536	7	5	45	0	35
12210	19536	9	6	38	72	0
12210	19536	9	6	42	0	0
12240	19584	3	1	53	60	1
12240	19584	3	1	57	60	1
12240	19584	3	1	60	0	1
12240	19584	3	1	62	60	1
12240	19584	3	1	64	0	1
12240	19584	3	1	69	0	1
12240	19584	4	2	57	0	4
12240	19584	4	2	57	51	4
12240	19584	4	2	64	0	4
12240	19584	4	2	65	0	4
12240	19584	4	2	65	52	4
12240	19584	4	2	69	52	4
12240	19584	4	2	72	0	4
12240	19584	5	3	53	60	25
12240	19584	5	3	57	60	25
12240	19584	5	3	60	0	25
12240	19584	5	3	62	60	25
12240	19584	5	3	64	0	25
12240	19584	5	3	69	0	25
12240	19584	6	4	81	48	48
12240	19584	6	4	86	51	48
12240	19584	6	4	88	0	48
12240	19584	6	4	93	0	48
12240	19584	7	5	38	68	35
12240	19584	9	6	35	72	0
12240	19584	9	6	38	0	0
12240	19584	9	6	42	72	0
12270	19632	9	6	38	72	0
12270	19632	9	6	42	0	0
12298	19676	7	5	38	0	35
12299	19678	1	1	84	0	1
12299	19678	1	1	86	80	1
12299	19678	1	7	84	0	39
12299	19678	1	7	86	80	39
12300	19680	4	2	65	52	4
12300	19680	4	2	69	0	4
12300	19680	7	5	33	68	35
12300	19680	9	6	35	0	0
12300	19680	9	6	35	72	0
12300	19680	9	6	38	0	0
12300	19680	9	6	42	72	0
12329	19726	1	1	84	80	1
12329	19726	1	1	86	0	1
12329	19726	1	7	84	80	39
12329	19726	1	7	86	0	39
12330	19728	7	5	29	68	35
12330	19728	7	5	33	0	35
12360	19776	4	2	62	52	4
12360	19776	4	2	65	0	4
12360	19776	5	3	53	0	25
12360	19776	5	3	57	0	25
12360	19776	7	5	29	0	35
12360	19776	7	5	38	68	35
12360	19776	9	6	35	0	0
12360	19776	9	6	38	72	0
12360	19776	9	6	42	0	0
12360	19776	9	6	42	72	0
12390	19824	5	3	62	0	25
12419	19870	1	1	84	0	1
12419	19870	1	7	84	0	39
12420	19872	1	1	79	80	1
12420	19872	1	7	79	80	39
12420	19872	3	1	53	0	1
12420	19872	3	1	57	0	1
12420	19872	3	1	62	0	1
12420	19872	4	2	57	52	4
12420	19872	9	6	38	0	0
12420	19872	9	6	42	0	0
12420	19872	9	6	42	72	0
12449	19918	1	1	79	0	1
12449	19918	1	7	79	0	39
12450	19920	1	1	81	80	1
12450	19920	1	7	81	80	39
12450	19920	4	2	62	0	4
12456	19929	6	4	86	0	48
12477	19963	4	2	57	0	4
12477	19963	7	5	38	0	35
12479	19966	1	1	81	0	1
12479	19966	1	7	81	0	39
12480	19968	1	1	79	80	1
12480	19968	1	7	79	80	39
12480	19968	3	1	62	60	1
12480	19968	3	1	65	60	1
12480	19968	3	1	70	60	1
12480	19968	4	2	58	52	4
12480	19968	5	3	62	60	25
12480	19968	5	3	65	60	25
12480	19968	5	3	70	60	25
12480	19968	6	4	81	0	48
12480	19968	6	4	86	54	48
12480	19968	6	4	89	48	48
12480	19968	7	5	46	68	35
12480	19968	9	6	35	72	0
12480	19968	9	6	42	0	0
12480	19968	9	6	42	72	0
12510	20016	5	3	62	0	25
12510	20016	5	3	65	0	25
12510	20016	5	3	70	0	25
12538	20060	1	1	79	0	1
12538	20060	1	7	79	0	39
12540	20064	1	1	77	80	1
12540	20064	1	7	77	80	39
12540	20064	4	2	58	0	4
12540	20064	4	2	65	52	4
12540	20064	5	3	62	60	25
12540	20064	5	3	65	60	25
12540	20064	5	3	70	60	25
12540	20064	9	6	35	0	0
12540	20064	9	6	35	72	0
12540	20064	9	6	42	0	0
12540	20064	9	6	42	72	0
12569	20110	1	1	77	0	1
12569	20110	1	7	77	0	39
12570	20112	1	1	74	80	1
12570	20112	1	7	74	80	39
12570	20112	5	3	62	0	25
12570	20112	5	3	65	0	25
12570	20112	5	3	70	0	25
12600	20160	3	1	62	0	1
12600	20160	3	1	65	0	1
12600	20160	4	2	70	52	4
12600	20160	5	3	65	61	25
12600	20160	5	3	70	61	25
12600	20160	9	6	35	0	0
12600	20160	9	6	38	72	0
12600	20160	9	6	42	0	0
12600	20160	9	6	42	72	0
12630	20208	3	1	70	0	1
12630	20208	5	3	65	0	25
12630	20208	5	3	70	0	25
12630	20208	7	5	46	0	35
12659	20254	1	1	74	0	1
12659	20254	1	7	74	0	39
12660	20256	1	1	77	80	1
12660	20256	1	7	77	80	39
12660	20256	3	1	62	60	1
12660	20256	3	1	65	60	1
12660	20256	3	1	70	60	1
12660	20256	4	2	70	0	4
12660	20256	4	2	74	52	4
12660	20256	5	3	62	62	25
12660	20256	5	3	65	62	25
12660	20256	5	3	70	62	25
12660	20256	7	5	46	68	35
12660	20256	9	6	38	0	0
12660	20256	9	6	42	0	0
12660	20256	9	6	42	72	0
12689	20302	1	1	77	0	1
12689	20302	1	7	77	0	39
12690	20304	1	1	77	80	1
12690	20304	1	7	77	80	39
12690	20304	4	2	65	0	4
12690	20304	7	5	46	0	35
12690	20304	9	6	38	72	0
12690	20304	9	6	42	0	0
12719	20350	1	1	77	0	1
12719	20350	1	7	77	0	39
12720	20352	1	1	79	80	1
12720	20352	1	7	79	80	39
12720	20352	3	1	52	60	1
12720	20352	3	1	55	60	1
12720	20352	3	1	60	60	1
12720	20352	3	1	62	0	1
12720	20352	3	1	65	0	1
12720	20352	3	1	70	0	1
12720	20352	4	2	64	0	4
12720	20352	4	2	64	52	4
12720	20352	4	2	67	52	4
12720	20352	4	2	74	0	4
12720	20352	5	3	52	62	25
12720	20352	5	3	55	62	25
12720	20352	5	3	60	62	25
12720	20352	5	3	62	0	25
12720	20352	5	3	65	0	25
12720	20352	5	3	70	0	25
12720	20352	6	4	76	54	48
12720	20352	6	4	79	48	48
12720	20352	6	4	86	0	48
12720	20352	6	4	89	0	48
12720	20352	7	5	36	69	35
12720	20352	9	6	35	72	0
12720	20352	9	6	38	0	0
12720	20352	9	6	42	72	0
12749	20398	1	1	79	0	1
12749	20398	1	7	79	0	39
12750	20400	1	1	77	80	1
12750	20400	1	7	77	80	39
12750	20400	5	3	52	0	25
12750	20400	5	3	55	0	25
12750	20400	5	3	60	0	25
12750	20400	9	6	38	72	0
12750	20400	9	6	42	0	0
12779	20446	1	1	77	0	1
12779	20446	1	7	77	0	39
12780	20448	1	1	74	80	1
12780	20448	1	7	74	80	39
12780	20448	4	2	64	52	4
12780	20448	4	2	67	0	4
12780	20448	5	3	52	64	25
12780	20448	5	3	55	64	25
12780	20448	5	3	60	64	25
12780	20448	9	6	35	0	0
12780	20448	9	6	35	72	0
12780	20448	9	6	38	0	0
12780	20448	9	6	42	72	0
12810	20496	5	3	52	0	25
12810	20496	5	3	55	0	25
12810	20496	5	3	60	0	25
12840	20544	4	2	60	52	4
12840	20544	4	2	64	0	4
12840	20544	5	3	52	64	25
12840	20544	7	5	36	0	35
12840	20544	9	6	35	0	0
12840	20544	9	6	38	72	0
12840	20544	9	6	42	0	0
12840	20544	9	6	42	72	0
12869	20590	1	1	74	0	1
12869	20590	1	1	77	80	1
12869	20590	1	7	74	0	39
12869	20590	1	7	77	80	39
12870	20592	5	3	52	0	25
12870	20592	5	3	55	64	25
12900	20640	3	1	52	0	1
12900	20640	3	1	55	0	1
12900	20640	3	1	60	0	1
12900	20640	4	2	55	52	4
12900	20640	4	2	60	0	4
12900	20640	5	3	55	0	25
12900	20640	5	3	60	67	25
12900	20640	7	5	43	69	35
12900	20640	9	6	38	0	0
12900	20640	9	6	42	0	0
12900	20640	9	6	42	72	0
12930	20688	5	3	60	0	25
12936	20697	6	4	76	0	48
12957	20731	4	2	55	0	4
12957	20731	7	5	43	0	35
12959	20734	1	1	77	0	1
12959	20734	1	7	77	0	39
12960	20736	1	1	81	80	1
12960	20736	1	7	81	80	39
12960	20736	3	1	57	61	1
12960	20736	3	1	60	61	1
12960	20736	3	1	65	61	1
12960	20736	4	2	53	52	4
12960	20736	5	3	57	68	25
12960	20736	5	3	60	68	25
12960	20736	5	3	65	68	25
12960	20736	6	4	79	0	48
12960	20736	6	4	84	48	48
12960	20736	6	4	89	54	48
12960	20736	7	5	41	69	35
12960	20736	9	6	35	72	0
12960	20736	9	6	42	0	0
12960	20736	9	6	42	72	0
12990	20784	5	3	57	0	25
12990	20784	5	3	60	0	25
12990	20784	5	3	65	0	25
13020	20832	4	2	60	52	4
13020	20832	5	3	60	68	25
13020	20832	5	3	65	68	25
13020	20832	9	6	35	0	0
13020	20832	9	6	35	72	0
13020	20832	9	6	42	0	0
13020	20832	9	6	42	72	0
13050	20880	5	3	60	0	25
13050	20880	5	3	65	0	25
13080	20928	3	1	57	0	1
13080	20928	3	1	60	0	1
13080	20928	4	2	65	52	4
13080	20928	5	3	57	68	25
13080	20928	5	3	60	68	25
13080	20928	5	3	65	68	25
13080	20928	7	5	41	0	35
13080	20928	9	6	35	0	0
13080	20928	9	6	38	72	0
13080	20928	9	6	42	0	0
13080	20928	9	6	42	72	0
13108	20972	1	1	81	0	1
13108	20972	1	7	81	0	39
13110	20976	1	1	82	80	1
13110	20976	1	7	82	80	39
13110	20976	3	1	65	0	1
13110	20976	5	3	57	0	25
13110	20976	5	3	60	0	25
13110	20976	5	3	65	0	25
13139	21022	1	1	82	0	1
13139	21022	1	7	82	0	39
13140	21024	1	1	81	80	1
13140	21024	1	7	81	80	39
13140	21024	3	1	57	62	1
13140	21024	3	1	60	62	1
13140	21024	3	1	65	62	1
13140	21024	4	2	65	0	4
13140	21024	4	2	69	52	4
13140	21024	5	3	57	67	25
13140	21024	5	3	60	67	25
13140	21024	5	3	65	67	25
13140	21024	7	5	41	68	35
13140	21024	9	6	38	0	0
13140	21024	9	6	42	0	0
13140	21024	9	6	42	72	0
13169	21070	1	1	81	0	1
13169	21070	1	7	81	0	39
13170	21072	1	1	79	80	1
13170	21072	1	7	79	80	39
13170	21072	7	5	41	0	35
13170	21072	9	6	38	72	0
13170	21072	9	6	42	0	0
13199	21118	1	1	79	0	1
13199	21118	1	7	79	0	39
13200	21120	1	1	81	80	1
13200	21120	1	7	81	80	39
13200	21120	3	1	57	0	1
13200	21120	3	1	60	0	1
13200	21120	3	1	61	62	1
13200	21120	3	1	64	62	1
13200	21120	3	1	65	0	1
13200	21120	3	1	69	62	1
13200	21120	4	2	53	0	4
13200	21120	4	2	57	52	4
13200	21120	4	2	60	0	4
13200	21120	4	2	64	52	4
13200	21120	4	2	69	0	4
13200	21120	4	2	73	0	4
13200	21120	4	2	73	52	4
13200	21120	4	2	76	52	4
13200	21120	5	3	57	0	25
13200	21120	5	3	60	0	25
13200	21120	5	3	61	67	25
13200	21120	5	3	64	67	25
13200	21120	5	3	65	0	25
13200	21120	5	3	69	67	25
13200	21120	6	4	84	0	48
13200	21120	6	4	88	48	48
13200	21120	6	4	89	0	48
13200	21120	6	4	93	54	48
13200	21120	7	5	45	68	35
13200	21120	9	6	35	72	0
13200	21120	9	6	38	0	0
13200	21120	9	6	42	72	0
13229	21166	1	1	81	0	1
13229	21166	1	7	81	0	39
13230	21168	1	1	79	80	1
13230	21168	1	7	79	80	39
13230	21168	4	2	57	0	4
13230	21168	9	6	38	72	0
13230	21168	9	6	42	0	0
13260	21216	4	2	64	0	4
13260	21216	4	2	73	52	4
13260	21216	4	2	76	0	4
13260	21216	9	6	35	0	0
13260	21216	9	6	35	72	0
13260	21216	9	6	38	0	0
13260	21216	9	6	42	72	0
13287	21259	6	4	88	0	48
13319	21310	1	1	79	0	1
13319	21310	1	7	79	0	39
13320	21312	1	1	77	80	1
13320	21312	1	7	77	80	39
13320	21312	4	2	69	52	4
13320	21312	4	2	73	0	4
13320	21312	5	3	61	0	25
13320	21312	9	6	35	0	0
13320	21312	9	6	38	72	0
13320	21312	9	6	42	0	0
13320	21312	9	6	42	72	0
13350	21360	5	3	64	0	25
13350	21360	5	3	69	0	25
13350	21360	7	5	45	0	35
13379	21406	1	1	77	0	1
13379	21406	1	7	77	0	39
13380	21408	1	1	79	80	1
13380	21408	1	7	79	80	39
13380	21408	3	1	61	0	1
13380	21408	3	1	64	0	1
13380	21408	3	1	69	0	1
13380	21408	4	2	64	51	4
13380	21408	4	2	69	0	4
13380	21408	6	4	93	0	48
13380	21408	9	6	38	0	0
13380	21408	9	6	42	0	0
13380	21408	9	6	50	72	0
13410	21456	4	2	64	0	4
13410	21456	9	6	50	0	0
13410	21456	9	6	50	72	0
13439	21502	1	1	79	0	1
13439	21502	1	1	81	80	1
13439	21502	1	7	79	0	39
13439	21502	1	7	81	80	39
13440	21504	3	1	62	60	1
13440	21504	3	1	65	60	1
13440	21504	3	1	70	60	1
13440	21504	4	2	58	49	4
13440	21504	5	3	62	68	25
13440	21504	5	3	65	65	25
13440	21504	5	3	70	64	25
13440	21504	6	4	86	48	48
13440	21504	6	4	89	48	48
13440	21504	7	5	46	63	35
13440	21504	9	6	35	72	0
13440	21504	9	6	49	72	0
13440	21504	9	6	50	0	0
13470	21552	5	3	62	0	25
13470	21552	5	3	65	0	25
13470	21552	5	3	70	0	25
13499	21598	1	1	81	0	1
13499	21598	1	7	81	0	39
13500	21600	1	1	86	80	1
13500	21600	1	7	86	80	39
13500	21600	4	2	65	49	4
13500	21600	5	3	62	66	25
13500	21600	5	3	65	66	25
13500	21600	5	3	70	66	25
13500	21600	9	6	35	0	0
13500	21600	9	6	35	72	0
13500	21600	9	6	42	72	0
13500	21600	9	6	49	0	0
13529	21646	1	1	86	0	1
13529	21646	1	7	86	0	39
13530	21648	1	1	84	80	1
13530	21648	1	7	84	80	39
13530	21648	4	2	58	0	4
13530	21648	5	3	62	0	25
13530	21648	5	3	65	0	25
13530	21648	5	3	70	0	25
13560	21696	3	1	62	0	1
13560	21696	3	1	65	0	1
13560	21696	3	1	70	0	1
13560	21696	4	2	70	49	4
13560	21696	5	3	62	64	25
13560	21696	5	3	65	64	25
13560	21696	5	3	70	64	25
13560	21696	9	6	35	0	0
13560	21696	9	6	38	72	0
13560	21696	9	6	42	0	0
13560	21696	9	6	42	72	0
13590	21744	5	3	62	0	25
13590	21744	5	3	65	0	25
13590	21744	5	3	70	0	25
13590	21744	7	5	46	0	35
13619	21790	1	1	84	0	1
13619	21790	1	7	84	0	39
13620	21792	1	1	86	80	1
13620	21792	1	7	86	80	39
13620	21792	3	1	62	60	1
13620	21792	3	1	65	60	1
13620	21792	3	1	70	60	1
13620	21792	4	2	74	50	4
13620	21792	5	3	62	61	25
13620	21792	5	3	65	61	25
13620	21792	5	3	70	61	25
13620	21792	7	5	46	65	35
13620	21792	9	6	38	0	0
13620	21792	9	6	42	0	0
13620	21792	9	6	42	72	0
13648	21836	1	1	86	0	1
13648	21836	1	7	86	0	39
13650	21840	1	1	84	80	1
13650	21840	1	7	84	80	39
13650	21840	4	2	70	0	4
13650	21840	7	5	46	0	35
13680	21888	3	1	52	60	1
13680	21888	3	1	55	60	1
13680	21888	3	1	60	60	1
13680	21888	3	1	62	0	1
13680	21888	3	1	65	0	1
13680	21888	3	1	70	0	1
13680	21888	4	2	55	49	4
13680	21888	4	2	64	0	4
13680	21888	4	2	64	50	4
13680	21888	4	2	65	0	4
13680	21888	4	2	67	50	4
13680	21888	4	2	74	0	4
13680	21888	5	3	52	61	25
13680	21888	5	3	55	61	25
13680	21888	5	3	60	61	25
13680	21888	5	3	62	0	25
13680	21888	5	3	65	0	25
13680	21888	5	3	70	0	25
13680	21888	6	4	76	48	48
13680	21888	6	4	79	48	48
13680	21888	6	4	86	0	48
13680	21888	6	4	89	0	48
13680	21888	7	5	36	65	35
13680	21888	9	6	35	72	0
13680	21888	9	6	42	0	0
13680	21888	9	6	42	72	0
13710	21936	4	2	55	0	4
13710	21936	5	3	52	0	25
13710	21936	5	3	55	0	25
13710	21936	5	3	60	0	25
13710	21936	9	6	38	72	0
13710	21936	9	6	42	0	0
13739	21982	1	1	84	0	1
13739	21982	1	7	84	0	39
13740	21984	1	1	86	80	1
13740	21984	1	7	86	80	39
13740	21984	4	2	64	50	4
13740	21984	4	2	67	0	4
13740	21984	5	3	52	60	25
13740	21984	5	3	55	60	25
13740	21984	5	3	60	60	25
13740	21984	9	6	35	0	0
13740	21984	9	6	35	72	0
13740	21984	9	6	38	0	0
13740	21984	9	6	42	72	0
13769	22030	1	1	86	0	1
13769	22030	1	7	86	0	39
13770	22032	1	1	84	80	1
13770	22032	1	7	84	80	39
13770	22032	5	3	52	0	25
13770	22032	5	3	55	0	25
13770	22032	5	3	60	0	25
13800	22080	4	2	60	50	4
13800	22080	4	2	64	0	4
13800	22080	5	3	52	59	25
13800	22080	7	5	36	0	35
13800	22080	9	6	35	0	0
13800	22080	9	6	38	72	0
13800	22080	9	6	42	0	0
13800	22080	9	6	42	72	0
13830	22128	5	3	52	0	25
13830	22128	5	3	55	59	25
13859	22174	1	1	84	0	1
13859	22174	1	7	84	0	39
13860	22176	1	1	81	80	1
13860	22176	1	7	81	80	39
13860	22176	3	1	52	0	1
13860	22176	3	1	55	0	1
13860	22176	3	1	60	0	1
13860	22176	4	2	55	50	4
13860	22176	5	3	55	0	25
13860	22176	5	3	60	59	25
13860	22176	7	5	43	67	35
13860	22176	9	6	38	0	0
13860	22176	9	6	42	0	0
13860	22176	9	6	42	72	0
13890	22224	4	2	60	0	4
13890	22224	5	3	60	0	25
13890	22224	6	4	76	0	48
13917	22267	4	2	55	0	4
13919	22270	1	1	81	0	1
13919	22270	1	7	81	0	39
13920	22272	1	1	81	80	1
13920	22272	1	7	81	80	39
13920	22272	3	1	60	60	1
13920	22272	3	1	64	60	1
13920	22272	3	1	69	60	1
13920	22272	4	2	57	51	4
13920	22272	5	3	60	59	25
13920	22272	5	3	64	59	25
13920	22272	5	3	69	59	25
13920	22272	6	4	79	0	48
13920	22272	6	4	88	48	48
13920	22272	6	4	93	51	48
13920	22272	7	5	43	0	35
13920	22272	7	5	45	67	35
13920	22272	7	5	52	0	35
13920	22272	7	5	52	67	35
13920	22272	9	6	35	72	0
13920	22272	9	6	42	0	0
13920	22272	9	6	42	72	0
13950	22320	5	3	60	0	25
13950	22320	5	3	64	0	25
13950	22320	5	3	69	0	25
13979	22366	1	1	81	0	1
13979	22366	1	7	81	0	39
13980	22368	1	1	86	80	1
13980	22368	1	7	86	80	39
13980	22368	4	2	64	51	4
13980	22368	5	3	60	59	25
13980	22368	5	3	64	59	25
13980	22368	5	3	69	59	25
13980	22368	9	6	35	0	0
13980	22368	9	6	35	72	0
13980	22368	9	6	42	0	0
13980	22368	9	6	42	72	0
14009	22414	1	1	84	80	1
14009	22414	1	1	86	0	1
14009	22414	1	7	84	80	39
14009	22414	1	7	86	0	39
14010	22416	4	2	57	0	4
14010	22416	5	3	60	0	25
14010	22416	5	3	64	0	25
14010	22416	5	3	69	0	25
14040	22464	3	1	60	0	1
14040	22464	3	1	64	0	1
14040	22464	3	1	69	0	1
14040	22464	4	2	69	51	4
14040	22464	5	3	60	60	25
14040	22464	5	3	64	60	25
14040	22464	5	3	69	60	25
14040	22464	9	6	35	0	0
14040	22464	9	6	38	72	0
14040	22464	9	6	42	0	0
14040	22464	9	6	42	72	0
14070	22512	5	3	60	0	25
14070	22512	5	3	64	0	25
14070	22512	5	3	69	0	25
14070	22512	7	5	45	0	35
14099	22558	1	1	84	0	1
14099	22558	1	7	84	0	39
14100	22560	1	1	86	80	1
14100	22560	1	7	86	80	39
14100	22560	3	1	60	60	1
14100	22560	3	1	64	60	1
14100	22560	3	1	69	60	1
14100	22560	4	2	69	0	4
14100	22560	4	2	72	52	4
14100	22560	5	3	60	60	25
14100	22560	5	3	64	60	25
14100	22560	5	3	69	60	25
14100	22560	7	5	45	67	35
14100	22560	9	6	38	0	0
14100	22560	9	6	42	0	0
14100	22560	9	6	42	72	0
14129	22606	1	1	86	0	1
14129	22606	1	7	86	0	39
14130	22608	1	1	84	80	1
14130	22608	1	7	84	80	39
14130	22608	7	5	45	0	35
14130	22608	9	6	38	72	0
14130	22608	9	6	42	0	0
14160	22656	3	1	53	60	1
14160	22656	3	1	57	60	1
14160	22656	3	1	60	0	1
14160	22656	3	1	62	60	1
14160	22656	3	1	64	0	1
14160	22656	3	1	69	0	1
14160	22656	4	2	57	0	4
14160	22656	4	2	57	51	4
14160	22656	4	2	64	0	4
14160	22656	4	2	65	0	4
14160	22656	4	2	65	52	4
14160	22656	4	2	69	52	4
14160	22656	4	2	72	0	4
14160	22656	5	3	53	60	25
14160	22656	5	3	57	60	25
14160	22656	5	3	60	0	25
14160	22656	5	3	62	60	25
14160	22656	5	3	64	0	25
14160	22656	5	3	69	0	25
14160	22656	6	4	81	48	48
14160	22656	6	4	86	51	48
14160	22656	6	4	88	0	48
14160	22656	6	4	93	0	48
14160	22656	7	5	38	68	35
14160	22656	9	6	35	72	0
14160	22656	9	6	38	0	0
14160	22656	9	6	42	72	0
14190	22704	9	6	38	72	0
14190	22704	9	6	42	0	0
14218	22748	1	1	84	0	1
14218	22748	1	7	84	0	39
14218	22748	7	5	38	0	35
14220	22752	1	1	86	80	1
14220	22752	1	7	86	80	39
14220	22752	4	2	65	52	4
14220	22752	4	2	69	0	4
14220	22752	7	5	33	68	35
14220	22752	9	6	35	0	0
14220	22752	9	6	35	72	0
14220	22752	9	6	38	0	0
14220	22752	9	6	42	72	0
14248	22796	1	1	86	0	1
14248	22796	1	7	86	0	39
14250	22800	1	1	84	80	1
14250	22800	1	7	84	80	39
14250	22800	7	5	29	68	35
14250	22800	7	5	33	0	35
14280	22848	4	2	62	52	4
14280	22848	4	2	65	0	4
14280	22848	5	3	53	0	25
14280	22848	5	3	57	0	25
14280	22848	7	5	29	0	35
14280	22848	7	5	38	68	35
14280	22848	9	6	35	0	0
14280	22848	9	6	42	0	0
14280	22848	9	6	42	72	0
14309	22894	1	1	84	0	1
14309	22894	1	7	84	0	39
14310	22896	1	1	81	80	1
14310	22896	1	7	81	80	39
14310	22896	5	3	62	0	25
14340	22944	3	1	53	0	1
14340	22944	3	1	57	0	1
14340	22944	3	1	62	0	1
14340	22944	4	2	57	52	4
14340	22944	9	6	42	0	0
14340	22944	9	6	42	72	0
14370	22992	4	2	62	0	4
14376	23001	6	4	86	0	48
14397	23035	4	2	57	0	4
14397	23035	7	5	38	0	35
14399	23038	1	1	81	0	1
14399	23038	1	7	81	0	39
14400	23040	1	1	79	80	1
14400	23040	1	7	79	80	39
14400	23040	3	1	62	60	1
14400	23040	3	1	65	60	1
14400	23040	3	1	70	60	1
14400	23040	4	2	58	52	4
14400	23040	5	3	62	60	25
14400	23040	5	3	65	60	25
14400	23040	5	3	70	60	25
14400	23040	6	4	81	0	48
14400	23040	6	4	86	54	48
14400	23040	6	4	89	48	48
14400	23040	7	5	46	68	35
14400	23040	9	6	35	72	0
14400	23040	9	6	42	0	0
14400	23040	9	6	49	72	0
14430	23088	5	3	62	0	25
14430	23088	5	3	65	0	25
14430	23088	5	3	70	0	25
14459	23134	1	1	79	0	1
14459	23134	1	7	79	0	39
14460	23136	1	1	77	80	1
14460	23136	1	7	77	80	39
14460	23136	4	2	58	0	4
14460	23136	4	2	65	52	4
14460	23136	5	3	62	60	25
14460	23136	5	3	65	60	25
14460	23136	5	3	70	60	25
14460	23136	9	6	35	0	0
14460	23136	9	6	35	72	0
14460	23136	9	6	42	72	0
14460	23136	9	6	49	0	0
14489	23182	1	1	77	0	1
14489	23182	1	7	77	0	39
14490	23184	1	1	74	80	1
14490	23184	1	7	74	80	39
14490	23184	5	3	62	0	25
14490	23184	5	3	65	0	25
14490	23184	5	3	70	0	25
14520	23232	3	1	62	0	1
14520	23232	3	1	65	0	1
14520	23232	4	2	70	52	4
14520	23232	5	3	65	61	25
14520	23232	5	3	70	61	25
14520	23232	9	6	35	0	0
14520	23232	9	6	38	72	0
14520	23232	9	6	42	0	0
14520	23232	9	6	42	72	0
14549	23278	1	1	74	0	1
14549	23278	1	7	74	0	39
14550	23280	1	1	81	80	1
14550	23280	1	7	81	80	39
14550	23280	3	1	70	0	1
14550	23280	5	3	65	0	25
14550	23280	5	3	70	0	25
14550	23280	7	5	46	0	35
14580	23328	3	1	62	60	1
14580	23328	3	1	65	60	1
14580	23328	3	1	70	60	1
14580	23328	4	2	70	0	4
14580	23328	4	2	74	52	4
14580	23328	5	3	62	62	25
14580	23328	5	3	65	62	25
14580	23328	5	3	70	62	25
14580	23328	7	5	46	68	35
14580	23328	9	6	38	0	0
14580	23328	9	6	42	0	0
14580	23328	9	6	42	72	0
14610	23376	4	2	65	0	4
14610	23376	7	5	46	0	35
14610	23376	9	6	38	72	0
14610	23376	9	6	42	0	0
14639	23422	1	1	79	80	1
14639	23422	1	1	81	0	1
14639	23422	1	7	79	80	39
14639	23422	1	7	81	0	39
14640	23424	3	1	52	60	1
14640	23424	3	1	55	60	1
14640	23424	3	1	60	60	1
14640	23424	3	1	62	0	1
14640	23424	3	1	65	0	1
14640	23424	3	1	70	0	1
14640	23424	4	2	64	0	4
14640	23424	4	2	64	52	4
14640	23424	4	2	67	52	4
14640	23424	4	2	74	0	4
14640	23424	5	3	52	62	25
14640	23424	5	3	55	62	25
14640	23424	5	3	60	62	25
14640	23424	5	3	62	0	25
14640	23424	5	3	65	0	25
14640	23424	5	3	70	0	25
14640	23424	6	4	76	54	48
14640	23424	6	4	79	48	48
14640	23424	6	4	86	0	48
14640	23424	6	4	89	0	48
14640	23424	7	5	36	69	35
14640	23424	9	6	35	72	0
14640	23424	9	6	38	0	0
14640	23424	9	6	42	72	0
14669	23470	1	1	79	0	1
14669	23470	1	7	79	0	39
14670	23472	1	1	77	80	1
14670	23472	1	7	77	80	39
14670	23472	5	3	52	0	25
14670	23472	5	3	55	0	25
14670	23472	5	3	60	0	25
14670	23472	9	6	38	72	0
14670	23472	9	6	42	0	0
14699	23518	1	1	77	0	1
14699	23518	1	7	77	0	39
14700	23520	1	1	74	80	1
14700	23520	1	7	74	80	39
14700	23520	4	2	64	52	4
14700	23520	4	2	67	0	4
14700	23520	5	3	52	64	25
14700	23520	5	3	55	64	25
14700	23520	5	3	60	64	25
14700	23520	9	6	35	0	0
14700	23520	9	6	35	72	0
14700	23520	9	6	38	0	0
14700	23520	9	6	42	72	0
14730	23568	5	3	52	0	25
14730	23568	5	3	55	0	25
14730	23568	5	3	60	0	25
14760	23616	4	2	60	52	4
14760	23616	4	2	64	0	4
14760	23616	5	3	52	64	25
14760	23616	7	5	36	0	35
14760	23616	9	6	35	0	0
14760	23616	9	6	38	72	0
14760	23616	9	6	42	0	0
14760	23616	9	6	42	72	0
14788	23660	1	1	74	0	1
14788	23660	1	7	74	0	39
14790	23664	1	1	77	80	1
14790	23664	1	7	77	80	39
14790	23664	5	3	52	0	25
14790	23664	5	3	55	64	25
14820	23712	3	1	52	0	1
14820	23712	3	1	55	0	1
14820	23712	3	1	60	0	1
14820	23712	4	2	55	52	4
14820	23712	4	2	60	0	4
14820	23712	5	3	55	0	25
14820	23712	5	3	60	67	25
14820	23712	7	5	43	69	35
14820	23712	9	6	38	0	0
14820	23712	9	6	42	0	0
14820	23712	9	6	42	72	0
14850	23760	5	3	60	0	25
14856	23769	6	4	76	0	48
14877	23803	4	2	55	0	4
14877	23803	7	5	43	0	35
14879	23806	1	1	77	0	1
14879	23806	1	7	77	0	39
14880	23808	1	1	77	80	1
14880	23808	1	7	77	80	39
14880	23808	3	1	53	61	1
14880	23808	3	1	57	61	1
14880	23808	3	1	62	61	1
14880	23808	4	2	50	52	4
14880	23808	5	3	53	68	25
14880	23808	5	3	57	68	25
14880	23808	5	3	62	68	25
14880	23808	6	4	79	0	48
14880	23808	6	4	81	48	48
14880	23808	6	4	86	54	48
14880	23808	7	5	38	69	35
14880	23808	9	6	35	72	0
14880	23808	9	6	42	0	0
14880	23808	9	6	42	72	0
14910	23856	5	3	53	0	25
14910	23856	5	3	57	0	25
14910	23856	5	3	62	0	25
14940	23904	4	2	57	52	4
14940	23904	5	3	57	68	25
14940	23904	5	3	62	68	25
14940	23904	9	6	35	0	0
14940	23904	9	6	35	72	0
14940	23904	9	6	42	0	0
14940	23904	9	6	42	72	0
14970	23952	5	3	57	0	25
14970	23952	5	3	62	0	25
15000	24000	3	1	53	0	1
15000	24000	3	1	57	0	1
15000	24000	4	2	62	52	4
15000	24000	5	3	53	68	25
15000	24000	5	3	57	68	25
15000	24000	5	3	62	68	25
15000	24000	7	5	38	0	35
15000	24000	9	6	35	0	0
15000	24000	9	6	38	72	0
15000	24000	9	6	42	0	0
15000	24000	9	6	42	72	0
15030	24048	3	1	62	0	1
15030	24048	5	3	53	0	25
15030	24048	5	3	57	0	25
15030	24048	5	3	62	0	25
15060	24096	3	1	53	62	1
15060	24096	3	1	57	62	1
15060	24096	3	1	62	62	1
15060	24096	4	2	62	0	4
15060	24096	4	2	65	52	4
15060	24096	5	3	53	67	25
15060	24096	5	3	57	67	25
15060	24096	5	3	62	67	25
15060	24096	7	5	38	68	35
15060	24096	9	6	38	0	0
15060	24096	9	6	42	0	0
15060	24096	9	6	42	72	0
15090	24144	7	5	38	0	35
15090	24144	9	6	38	72	0
15090	24144	9	6	42	0	0
15119	24190	1	1	77	0	1
15119	24190	1	7	77	0	39
15120	24192	4	2	65	0	4
15120	24192	4	2	69	52	4
15120	24192	7	5	38	68	35
15120	24192	9	6	35	72	0
15120	24192	9	6	38	0	0
15120	24192	9	6	42	72	0
15150	24240	4	2	50	0	4
15150	24240	9	6	38	72	0
15150	24240	9	6	42	0	0
15180	24288	4	2	57	0	4
15180	24288	4	2	65	52	4
15180	24288	4	2	69	0	4
15180	24288	9	6	35	0	0
15180	24288	9	6	35	72	0
15180	24288	9	6	38	0	0
15207	24331	6	4	81	0	48
15239	24382	9	6	35	0	0
15240	24384	1	1	74	80	1
15240	24384	1	7	74	80	39
15240	24384	4	2	62	52	4
15240	24384	4	2	65	0	4
15240	24384	5	3	53	0	25
15269	24430	1	1	74	0	1
15269	24430	1	7	74	0	39
15270	24432	1	1	81	80	1
15270	24432	1	7	81	80	39
15270	24432	5	3	57	0	25
15270	24432	5	3	62	0	25
15270	24432	7	5	38	0	35
15300	24480	3	1	53	0	1
15300	24480	3	1	57	0	1
15300	24480	3	1	62	0	1
15300	24480	4	2	57	51	4
15300	24480	4	2	62	0	4
15300	24480	6	4	86	0	48
15330	24528	4	2	57	0	4
15358	24572	1	1	81	0	1
15358	24572	1	7	81	0	39
15360	24576	1	1	79	80	1
15360	24576	1	7	79	80	39
15360	24576	3	1	62	60	1
15360	24576	3	1	65	60	1
15360	24576	3	1	70	60	1
15360	24576	4	2	58	49	4
15360	24576	5	3	62	68	25
15360	24576	5	3	65	65	25
15360	24576	5	3	70	64	25
15360	24576	6	4	86	48	48
15360	24576	6	4	89	48	48
15360	24576	7	5	46	63	35
15360	24576	9	6	35	72	0
15360	24576	9	6	49	72	0
15390	24624	5	3	62	0	25
15390	24624	5	3	65	0	25
15390	24624	5	3	70	0	25
15418	24668	1	1	79	0	1
15418	24668	1	7	79	0	39
15420	24672	1	1	77	80	1
15420	24672	1	7	77	80	39
15420	24672	4	2	65	49	4
15420	24672	5	3	62	66	25
15420	24672	5	3	65	66	25
15420	24672	5	3	70	66	25
15420	24672	9	6	49	0	0
15420	24672	9	6	50	72	0
15449	24718	1	1	77	0	1
15449	24718	1	7	77	0	39
15450	24720	1	1	74	80	1
15450	24720	1	7	74	80	39
15450	24720	4	2	58	0	4
15450	24720	5	3	62	0	25
15450	24720	5	3	65	0	25
15450	24720	5	3	70	0	25
15480	24768	3	1	62	0	1
15480	24768	3	1	65	0	1
15480	24768	3	1	70	0	1
15480	24768	4	2	70	49	4
15480	24768	5	3	62	64	25
15480	24768	5	3	65	64	25
15480	24768	5	3	70	64	25
15480	24768	9	6	35	0	0
15480	24768	9	6	47	72	0
15480	24768	9	6	50	0	0
15509	24814	1	1	74	0	1
15509	24814	1	7	74	0	39
15510	24816	1	1	81	80	1
15510	24816	1	7	81	80	39
15510	24816	5	3	62	0	25
15510	24816	5	3	65	0	25
15510	24816	5	3	70	0	25
15510	24816	7	5	46	0	35
15540	24864	3	1	62	60	1
15540	24864	3	1	65	60	1
15540	24864	3	1	70	60	1
15540	24864	4	2	74	50	4
15540	24864	5	3	62	61	25
15540	24864	5	3	65	61	25
15540	24864	5	3	70	61	25
15540	24864	7	5	46	65	35
15540	24864	9	6	38	72	0
15540	24864	9	6	47	0	0
15569	24910	1	1	81	0	1
15569	24910	1	7	81	0	39
15570	24912	1	1	79	80	1
15570	24912	1	7	79	80	39
15570	24912	4	2	70	0	4
15570	24912	7	5	46	0	35
15599	24958	1	1	79	0	1
15599	24958	1	7	79	0	39
15600	24960	1	1	79	80	1
15600	24960	1	7	79	80	39
15600	24960	3	1	52	60	1
15600	24960	3	1	55	60	1
15600	24960	3	1	60	60	1
15600	24960	3	1	62	0	1
15600	24960	3	1	65	0	1
15600	24960	3	1	70	0	1
15600	24960	4	2	55	49	4
15600	24960	4	2	64	0	4
15600	24960	4	2	64	50	4
15600	24960	4	2	65	0	4
15600	24960	4	2	67	50	4
15600	24960	4	2	74	0	4
15600	24960	5	3	52	61	25
15600	24960	5	3	55	61	25
15600	24960	5	3	60	61	25
15600	24960	5	3	62	0	25
15600	24960	5	3	65	0	25
15600	24960	5	3	70	0	25
15600	24960	6	4	76	48	48
15600	24960	6	4	79	48	48
15600	24960	6	4	86	0	48
15600	24960	6	4	89	0	48
15600	24960	7	5	36	65	35
15600	24960	9	6	35	72	0
15600	24960	9	6	38	0	0
15600	24960	9	6	49	72	0
15629	25006	1	1	79	0	1
15629	25006	1	7	79	0	39
15630	25008	1	1	77	80	1
15630	25008	1	7	77	80	39
15630	25008	4	2	55	0	4
15630	25008	5	3	52	0	25
15630	25008	5	3	55	0	25
15630	25008	5	3	60	0	25
15660	25056	4	2	64	50	4
15660	25056	4	2	67	0	4
15660	25056	5	3	52	60	25
15660	25056	5	3	55	60	25
15660	25056	5	3	60	60	25
15689	25102	1	1	77	0	1
15689	25102	1	7	77	0	39
15690	25104	1	1	74	80	1
15690	25104	1	7	74	80	39
15690	25104	5	3	52	0	25
15690	25104	5	3	55	0	25
15690	25104	5	3	60	0	25
15720	25152	4	2	60	50	4
15720	25152	4	2	64	0	4
15720	25152	5	3	52	59	25
15720	25152	7	5	36	0	35
15720	25152	9	6	35	0	0
15720	25152	9	6	49	0	0
15749	25198	1	1	74	0	1
15749	25198	1	1	77	80	1
15749	25198	1	7	74	0	39
15749	25198	1	7	77	80	39
15750	25200	5	3	52	0	25
15750	25200	5	3	55	59	25
15780	25248	3	1	52	0	1
15780	25248	3	1	55	0	1
15780	25248	3	1	60	0	1
15780	25248	4	2	55	50	4
15780	25248	5	3	55	0	25
15780	25248	5	3	60	59	25
15780	25248	7	5	43	67	35
15810	25296	4	2	60	0	4
15810	25296	5	3	60	0	25
15810	25296	6	4	76	0	48
15837	25339	4	2	55	0	4
15839	25342	1	1	77	0	1
15839	25342	1	7	77	0	39
15839	25342	6	4	79	0	48
15839	25342	7	5	43	0	35
15840	25344	1	1	77	80	1
15840	25344	1	7	77	80	39
15840	25344	3	1	57	66	1
15840	25344	3	1	62	66	1
15840	25344	3	1	65	66	1
15840	25344	4	2	50	50	4
15840	25344	4	2	62	50	4
16011	25617	3	1	57	0	1
16011	25617	3	1	62	0	1
16011	25617	3	1	65	0	1
16011	25617	4	2	50	0	4
16011	25617	4	2	62	0	4
16020	25632	3	1	57	67	1
16020	25632	3	1	62	67	1
16020	25632	3	1	65	67	1
16020	25632	4	2	50	55	4
16020	25632	4	2	57	55	4
16020	25632	4	2	62	55	4
16079	25726	1	1	77	0	1
16079	25726	1	7	77	0	39
16080	25728	3	1	57	67	1
16191	25905	3	1	57	0	1
16200	25920	3	1	62	68	1
16305	26088	3	1	62	0	1
16305	26088	3	1	65	0	1
16305	26088	4	2	50	0	4
16305	26088	4	2	57	0	4
16305	26088	4	2	62	0	4
16308	26092	3	1	57	0	1
16314	26102	3	1	62	0	1
16319	26110	1	1	76	80	1
16320	26112	4	2	58	56	4
16320	26112	6	4	58	36	48
16320	26112	6	4	69	34	48
16320	26112	6	4	74	48	48
16320	26112	7	5	46	62	35
16321	26113	9	6	35	72	0
16321	26113	9	6	49	72	0
16349	26158	1	1	76	0	1
16349	26158	1	1	77	80	1
16379	26206	1	1	77	0	1
16380	26208	1	1	79	80	1
16380	26208	4	2	65	53	4
16381	26209	9	6	35	0	0
16381	26209	9	6	35	72	0
16381	26209	9	6	42	72	0
16381	26209	9	6	49	0	0
16409	26254	1	1	79	0	1
16410	26256	1	1	81	80	1
16440	26304	4	2	69	53	4
16441	26305	9	6	35	0	0
16441	26305	9	6	38	72	0
16441	26305	9	6	42	0	0
16441	26305	9	6	42	72	0
16469	26350	1	1	81	0	1
16470	26352	1	1	72	80	1
16492	26387	4	2	58	0	4
16499	26398	1	1	72	0	1
16500	26400	1	1	84	80	1
16500	26400	4	2	74	56	4
16501	26401	9	6	38	0	0
16501	26401	9	6	42	0	0
16501	26401	9	6	42	72	0
16521	26433	7	5	46	0	35
16529	26446	1	1	84	0	1
16530	26448	1	1	81	80	1
16557	26491	4	2	74	0	4
16560	26496	4	2	55	53	4
16560	26496	4	2	60	53	4
16560	26496	4	2	65	0	4
16560	26496	4	2	67	56	4
16560	26496	4	2	69	0	4
16560	26496	6	4	48	36	48
16560	26496	6	4	58	0	48
16560	26496	6	4	60	34	48
16560	26496	6	4	64	48	48
16560	26496	6	4	69	0	48
16560	26496	6	4	74	0	48
16560	26496	7	5	36	68	35
16561	26497	9	6	35	72	0
16561	26497	9	6	42	0	0
16561	26497	9	6	42	72	0
16591	26545	9	6	38	72	0
16591	26545	9	6	42	0	0
16617	26587	4	2	67	0	4
16620	26592	4	2	64	39	4
16621	26593	9	6	35	0	0
16621	26593	9	6	35	72	0
16621	26593	9	6	38	0	0
16621	26593	9	6	42	72	0
16650	26640	5	3	55	53	25
16675	26680	7	5	36	0	35
16677	26683	4	2	64	0	4
16680	26688	4	2	72	56	4
16680	26688	5	3	60	62	25
16680	26688	5	3	64	68	25
16680	26688	7	5	40	65	35
16681	26689	9	6	35	0	0
16681	26689	9	6	38	72	0
16681	26689	9	6	42	0	0
16681	26689	9	6	42	72	0
16736	26777	5	3	55	0	25
16737	26779	4	2	72	0	4
16737	26779	5	3	60	0	25
16737	26779	5	3	64	0	25
16737	26779	7	5	40	0	35
16740	26784	4	2	67	45	4
16740	26784	7	5	31	59	35
16741	26785	9	6	38	0	0
16741	26785	9	6	42	0	0
16741	26785	9	6	42	72	0
16781	26849	6	4	48	0	48
16783	26852	4	2	55	0	4
16785	26856	4	2	60	0	4
16797	26875	4	2	67	0	4
16797	26875	7	5	31	0	35
16799	26878	1	1	81	0	1
16800	26880	1	1	76	80	1
16800	26880	4	2	57	56	4
16800	26880	6	4	60	0	48
16800	26880	6	4	64	0	48
16800	26880	6	4	67	34	48
16800	26880	6	4	72	48	48
16800	26880	6	4	76	45	48
16800	26880	7	5	45	65	35
16801	26881	9	6	35	72	0
16801	26881	9	6	42	0	0
16801	26881	9	6	42	72	0
16829	26926	1	1	76	0	1
16830	26928	1	1	77	80	1
16859	26974	1	1	77	0	1
16860	26976	1	1	79	80	1
16860	26976	4	2	64	53	4
16861	26977	9	6	35	0	0
16861	26977	9	6	35	72	0
16861	26977	9	6	42	0	0
16861	26977	9	6	42	72	0
16889	27022	1	1	79	0	1
16890	27024	1	1	81	80	1
16920	27072	4	2	67	53	4
16921	27073	9	6	35	0	0
16921	27073	9	6	38	72	0
16921	27073	9	6	42	0	0
16921	27073	9	6	42	72	0
16949	27118	1	1	81	0	1
16950	27120	1	1	72	80	1
16972	27155	4	2	57	0	4
16979	27166	1	1	72	0	1
16980	27168	1	1	84	80	1
16980	27168	4	2	72	56	4
16981	27169	9	6	38	0	0
16981	27169	9	6	42	0	0
16981	27169	9	6	42	72	0
17001	27201	7	5	45	0	35
17009	27214	1	1	84	0	1
17010	27216	1	1	81	80	1
17011	27217	9	6	38	72	0
17011	27217	9	6	42	0	0
17037	27259	4	2	72	0	4
17039	27262	1	1	81	0	1
17040	27264	1	1	79	80	1
17040	27264	4	2	57	53	4
17040	27264	4	2	60	53	4
17040	27264	4	2	64	0	4
17040	27264	4	2	67	0	4
17040	27264	4	2	69	56	4
17040	27264	6	4	60	34	48
17040	27264	6	4	65	48	48
17040	27264	6	4	67	0	48
17040	27264	6	4	69	45	48
17040	27264	6	4	72	0	48
17040	27264	6	4	76	0	48
17040	27264	7	5	38	65	35
17041	27265	9	6	35	72	0
17041	27265	9	6	38	0	0
17041	27265	9	6	42	72	0
17069	27310	1	1	79	0	1
17070	27312	1	1	81	80	1
17071	27313	9	6	38	72	0
17071	27313	9	6	42	0	0
17097	27355	4	2	69	0	4
17099	27358	1	1	81	0	1
17100	27360	1	1	77	80	1
17100	27360	4	2	65	39	4
17101	27361	9	6	35	0	0
17101	27361	9	6	35	72	0
17101	27361	9	6	38	0	0
17101	27361	9	6	42	72	0
17129	27406	1	1	77	0	1
17130	27408	1	1	79	80	1
17130	27408	5	3	57	53	25
17157	27451	4	2	65	0	4
17159	27454	1	1	79	0	1
17160	27456	1	1	76	80	1
17160	27456	4	2	69	56	4
17160	27456	5	3	62	62	25
17160	27456	5	3	65	68	25
17161	27457	9	6	35	0	0
17161	27457	9	6	38	72	0
17161	27457	9	6	42	0	0
17161	27457	9	6	42	72	0
17189	27502	1	1	76	0	1
17190	27504	1	1	77	80	1
17212	27539	7	5	38	0	35
17216	27545	5	3	57	0	25
17217	27547	4	2	69	0	4
17217	27547	5	3	62	0	25
17217	27547	5	3	65	0	25
17219	27550	1	1	77	0	1
17220	27552	1	1	72	80	1
17220	27552	4	2	65	45	4
17220	27552	7	5	33	68	35
17221	27553	9	6	38	0	0
17221	27553	9	6	42	0	0
17221	27553	9	6	42	72	0
17241	27585	6	4	60	0	48
17241	27585	6	4	65	0	48
17261	27617	6	4	69	0	48
17263	27620	4	2	57	0	4
17265	27624	4	2	60	0	4
17277	27643	4	2	65	0	4
17277	27643	7	5	33	0	35
17279	27646	1	1	72	0	1
17280	27648	1	1	76	80	1
17280	27648	4	2	58	56	4
17280	27648	6	4	58	41	48
17280	27648	6	4	69	36	48
17280	27648	6	4	74	46	48
17280	27648	7	5	46	72	35
17281	27649	9	6	35	72	0
17281	27649	9	6	42	0	0
17281	27649	9	6	42	72	0
17309	27694	1	1	76	0	1
17310	27696	1	1	77	80	1
17311	27697	9	6	38	72	0
17311	27697	9	6	42	0	0
17339	27742	1	1	77	0	1
17340	27744	1	1	79	80	1
17340	27744	4	2	65	53	4
17341	27745	9	6	35	0	0
17341	27745	9	6	35	72	0
17341	27745	9	6	38	0	0
17341	27745	9	6	42	72	0
17369	27790	1	1	79	0	1
17370	27792	1	1	81	80	1
17400	27840	4	2	69	53	4
17401	27841	9	6	35	0	0
17401	27841	9	6	38	72	0
17401	27841	9	6	42	0	0
17401	27841	9	6	42	72	0
17429	27886	1	1	81	0	1
17430	27888	1	1	72	80	1
17452	27923	4	2	58	0	4
17459	27934	1	1	72	0	1
17460	27936	1	1	84	80	1
17460	27936	4	2	74	56	4
17461	27937	9	6	38	0	0
17461	27937	9	6	42	0	0
17461	27937	9	6	42	72	0
17481	27969	7	5	46	0	35
17489	27982	1	1	84	0	1
17490	27984	1	1	81	80	1
17491	27985	9	6	38	72	0
17491	27985	9	6	42	0	0
17517	28027	4	2	74	0	4
17520	28032	4	2	55	53	4
17520	28032	4	2	60	53	4
17520	28032	4	2	65	0	4
17520	28032	4	2	67	56	4
17520	28032	4	2	69	0	4
17520	28032	6	4	48	41	48
17520	28032	6	4	58	0	48
17520	28032	6	4	60	36	48
17520	28032	6	4	64	46	48
17520	28032	6	4	69	0	48
17520	28032	6	4	74	0	48
17520	28032	7	5	36	65	35
17521	28033	9	6	35	72	0
17521	28033	9	6	38	0	0
17521	28033	9	6	42	72	0
17551	28081	9	6	38	72	0
17551	28081	9	6	42	0	0
17577	28123	4	2	67	0	4
17580	28128	4	2	64	39	4
17581	28129	9	6	35	0	0
17581	28129	9	6	35	72	0
17581	28129	9	6	38	0	0
17581	28129	9	6	50	72	0
17610	28176	5	3	55	53	25
17635	28216	7	5	36	0	35
17637	28219	4	2	64	0	4
17640	28224	4	2	72	56	4
17640	28224	5	3	60	62	25
17640	28224	5	3	64	68	25
17640	28224	7	5	40	72	35
17641	28225	9	6	35	0	0
17641	28225	9	6	47	72	0
17641	28225	9	6	50	0	0
17671	28273	9	6	47	0	0
17671	28273	9	6	47	72	0
17696	28313	5	3	55	0	25
17697	28315	4	2	72	0	4
17697	28315	5	3	60	0	25
17697	28315	5	3	64	0	25
17697	28315	7	5	40	0	35
17700	28320	4	2	67	45	4
17700	28320	7	5	31	68	35
17701	28321	9	6	45	72	0
17701	28321	9	6	47	0	0
17741	28385	6	4	48	0	48
17741	28385	6	4	60	0	48
17741	28385	6	4	64	0	48
17743	28388	4	2	55	0	4
17745	28392	4	2	60	0	4
17757	28411	4	2	67	0	4
17757	28411	7	5	31	0	35
17759	28414	1	1	81	0	1
17760	28416	1	1	62	80	1
17760	28416	1	1	67	80	1
17760	28416	4	2	50	56	4
17760	28416	6	4	62	44	48
17760	28416	6	4	67	44	48
17760	28416	6	4	69	48	48
17760	28416	7	5	38	65	35
17761	28417	9	6	35	72	0
17761	28417	9	6	45	0	0
17761	28417	9	6	49	72	0
17820	28512	4	2	57	53	4
17880	28608	4	2	62	53	4
17881	28609	9	6	35	0	0
17881	28609	9	6	49	0	0
17932	28691	4	2	50	0	4
17940	28704	4	2	67	56	4
17961	28737	7	5	38	0	35
17997	28795	4	2	67	0	4
17999	28798	1	1	62	0	1
17999	28798	1	1	67	0	1
18000	28800	1	1	62	80	1
18000	28800	1	1	66	80	1
18000	28800	4	2	57	0	4
18000	28800	4	2	57	53	4
18000	28800	4	2	62	0	4
18000	28800	4	2	62	53	4
18000	28800	4	2	69	56	4
18000	28800	6	4	62	0	48
18000	28800	6	4	62	44	48
18000	28800	6	4	66	44	48
18000	28800	6	4	67	0	48
18000	28800	6	4	69	0	48
18000	28800	6	4	69	48	48
18000	28800	7	5	38	65	35
18001	28801	9	6	51	72	0
18016	28825	9	6	51	0	0
18016	28825	9	6	51	72	0
18031	28849	9	6	51	0	0
18057	28891	4	2	69	0	4
18060	28896	4	2	66	39	4
18090	28944	5	3	57	53	25
18117	28987	4	2	66	0	4
18120	28992	4	2	69	56	4
18120	28992	5	3	62	62	25
18120	28992	5	3	66	68	25
18176	29081	5	3	57	0	25
18177	29083	4	2	69	0	4
18177	29083	5	3	62	0	25
18177	29083	5	3	66	0	25
18180	29088	4	2	66	45	4
18192	29107	6	4	62	0	48
18192	29107	6	4	66	0	48
18192	29107	6	4	69	0	48
18201	29121	7	5	38	0	35
18223	29156	4	2	57	0	4
18225	29160	4	2	62	0	4
18237	29179	4	2	66	0	4
18239	29182	1	1	62	0	1
18239	29182	1	1	66	0	1
18240	29184	1	1	67	80	1
18240	29184	1	7	67	80	39
18240	29184	4	2	53	56	4
18240	29184	7	5	41	68	35
18241	29185	9	6	35	72	0
18241	29185	9	6	49	72	0
18300	29280	4	2	60	53	4
18300	29280	6	4	57	51	48
18301	29281	9	6	42	72	0
18301	29281	9	6	49	0	0
18329	29326	1	1	67	0	1
18329	29326	1	7	67	0	39
18330	29328	1	1	65	80	1
18330	29328	1	7	65	80	39
18359	29374	1	1	65	0	1
18359	29374	1	7	65	0	39
18360	29376	1	1	67	80	1
18360	29376	1	7	67	80	39
18360	29376	4	2	65	53	4
18360	29376	6	4	60	51	48
18361	29377	9	6	35	0	0
18361	29377	9	6	38	72	0
18361	29377	9	6	42	0	0
18361	29377	9	6	42	72	0
18412	29459	4	2	53	0	4
18415	29464	6	4	57	0	48
18420	29472	4	2	69	56	4
18420	29472	6	4	65	56	48
18421	29473	9	6	38	0	0
18421	29473	9	6	42	0	0
18421	29473	9	6	42	72	0
18441	29505	7	5	41	0	35
18449	29518	1	1	67	0	1
18449	29518	1	7	67	0	39
18450	29520	1	1	65	80	1
18450	29520	1	7	65	80	39
18475	29560	6	4	60	0	48
18477	29563	4	2	69	0	4
18479	29566	1	1	65	0	1
18479	29566	1	7	65	0	39
18480	29568	1	1	67	80	1
18480	29568	1	7	67	80	39
18480	29568	4	2	72	56	4
18480	29568	6	4	69	51	48
18480	29568	7	5	41	65	35
18481	29569	9	6	42	0	0
18481	29569	9	6	42	72	0
18535	29656	6	4	65	0	48
18537	29659	4	2	72	0	4
18539	29662	1	1	67	0	1
18539	29662	1	7	67	0	39
18540	29664	1	1	69	80	1
18540	29664	1	7	69	80	39
18540	29664	4	2	69	39	4
18541	29665	9	6	35	72	0
18541	29665	9	6	42	0	0
18541	29665	9	6	42	72	0
18570	29712	5	3	60	53	25
18595	29752	6	4	69	0	48
18597	29755	4	2	69	0	4
18599	29758	1	1	69	0	1
18599	29758	1	7	69	0	39
18600	29760	1	1	72	80	1
18600	29760	1	7	72	80	39
18600	29760	4	2	72	56	4
18600	29760	5	3	65	62	25
18600	29760	5	3	69	68	25
18601	29761	9	6	35	0	0
18601	29761	9	6	38	72	0
18601	29761	9	6	42	0	0
18601	29761	9	6	42	72	0
18656	29849	5	3	60	0	25
18657	29851	4	2	72	0	4
18657	29851	5	3	65	0	25
18657	29851	5	3	69	0	25
18659	29854	1	1	72	0	1
18659	29854	1	7	72	0	39
18660	29856	1	1	69	80	1
18660	29856	1	7	69	80	39
18660	29856	4	2	69	45	4
18661	29857	9	6	38	0	0
18661	29857	9	6	42	0	0
18661	29857	9	6	42	72	0
18681	29889	7	5	41	0	35
18689	29902	1	1	69	0	1
18689	29902	1	7	69	0	39
18690	29904	1	1	67	80	1
18690	29904	1	7	67	80	39
18703	29924	4	2	60	0	4
18705	29928	4	2	65	0	4
18717	29947	4	2	69	0	4
18719	29950	1	1	67	0	1
18719	29950	1	7	67	0	39
18720	29952	1	1	67	80	1
18720	29952	1	7	67	80	39
18720	29952	4	2	48	56	4
18720	29952	7	5	36	68	35
18721	29953	9	6	35	72	0
18721	29953	9	6	42	0	0
18721	29953	9	6	42	72	0
18780	30048	4	2	55	53	4
18780	30048	6	4	52	51	48
18781	30049	9	6	42	0	0
18781	30049	9	6	42	72	0
18809	30094	1	1	67	0	1
18809	30094	1	7	67	0	39
18810	30096	1	1	65	80	1
18810	30096	1	7	65	80	39
18839	30142	1	1	65	0	1
18839	30142	1	7	65	0	39
18840	30144	1	1	67	80	1
18840	30144	1	7	67	80	39
18840	30144	4	2	60	53	4
18840	30144	6	4	55	53	48
18841	30145	9	6	35	0	0
18841	30145	9	6	38	72	0
18841	30145	9	6	42	0	0
18841	30145	9	6	42	72	0
18892	30227	4	2	48	0	4
18895	30232	6	4	52	0	48
18900	30240	4	2	64	56	4
18900	30240	6	4	60	51	48
18901	30241	9	6	38	0	0
18901	30241	9	6	42	0	0
18901	30241	9	6	42	72	0
18921	30273	7	5	36	0	35
18929	30286	1	1	67	0	1
18929	30286	1	7	67	0	39
18930	30288	1	1	65	80	1
18930	30288	1	7	65	80	39
18955	30328	6	4	55	0	48
18957	30331	4	2	64	0	4
18959	30334	1	1	65	0	1
18959	30334	1	7	65	0	39
18960	30336	1	1	67	80	1
18960	30336	1	7	67	80	39
18960	30336	4	2	67	56	4
18960	30336	7	5	36	68	35
18961	30337	9	6	42	0	0
18961	30337	9	6	42	72	0
18989	30382	1	1	67	0	1
18989	30382	1	7	67	0	39
18990	30384	1	1	69	80	1
18990	30384	1	7	69	80	39
19015	30424	6	4	60	0	48
19017	30427	4	2	67	0	4
19019	30430	1	1	69	0	1
19019	30430	1	7	69	0	39
19020	30432	1	1	67	80	1
19020	30432	1	7	67	80	39
19020	30432	4	2	64	39	4
19021	30433	9	6	35	72	0
19021	30433	9	6	42	0	0
19021	30433	9	6	42	72	0
19049	30478	1	1	67	0	1
19049	30478	1	7	67	0	39
19050	30480	1	1	65	80	1
19050	30480	1	7	65	80	39
19050	30480	5	3	55	53	25
19050	30480	6	4	55	45	48
19077	30523	4	2	64	0	4
19079	30526	1	1	65	0	1
19079	30526	1	7	65	0	39
19080	30528	1	1	60	80	1
19080	30528	1	7	60	80	39
19080	30528	4	2	67	56	4
19080	30528	5	3	60	62	25
19080	30528	5	3	64	68	25
19080	30528	6	4	60	59	48
19081	30529	9	6	35	0	0
19081	30529	9	6	38	72	0
19081	30529	9	6	42	0	0
19081	30529	9	6	42	72	0
19136	30617	5	3	55	0	25
19136	30617	6	4	55	0	48
19137	30619	4	2	67	0	4
19137	30619	5	3	60	0	25
19137	30619	5	3	64	0	25
19137	30619	6	4	60	0	48
19140	30624	4	2	64	45	4
19141	30625	9	6	38	0	0
19141	30625	9	6	42	0	0
19141	30625	9	6	42	72	0
19161	30657	7	5	36	0	35
19183	30692	4	2	55	0	4
19185	30696	4	2	60	0	4
19197	30715	4	2	64	0	4
19199	30718	1	1	60	0	1
19199	30718	1	7	60	0	39
19200	30720	1	1	67	80	1
19200	30720	1	7	67	80	39
19200	30720	4	2	48	56	4
19200	30720	7	5	36	76	35
19201	30721	9	6	35	72	0
19201	30721	9	6	42	0	0
19201	30721	9	6	42	72	0
19260	30816	4	2	55	53	4
19260	30816	6	4	51	48	48
19261	30817	9	6	42	0	0
19261	30817	9	6	42	72	0
19289	30862	1	1	67	0	1
19289	30862	1	7	67	0	39
19290	30864	1	1	65	80	1
19290	30864	1	7	65	80	39
19319	30910	1	1	65	0	1
19319	30910	1	7	65	0	39
19320	30912	1	1	67	80	1
19320	30912	1	7	67	80	39
19320	30912	4	2	60	53	4
19320	30912	6	4	55	53	48
19321	30913	9	6	35	0	0
19321	30913	9	6	38	72	0
19321	30913	9	6	42	0	0
19321	30913	9	6	42	72	0
19372	30995	4	2	48	0	4
19375	31000	6	4	51	0	48
19380	31008	4	2	63	56	4
19380	31008	6	4	60	53	48
19381	31009	9	6	38	0	0
19381	31009	9	6	42	0	0
19381	31009	9	6	42	72	0
19401	31041	7	5	36	0	35
19409	31054	1	1	67	0	1
19409	31054	1	7	67	0	39
19410	31056	1	1	65	80	1
19410	31056	1	7	65	80	39
19435	31096	6	4	55	0	48
19437	31099	4	2	63	0	4
19439	31102	1	1	65	0	1
19439	31102	1	7	65	0	39
19440	31104	1	1	67	80	1
19440	31104	1	7	67	80	39
19440	31104	4	2	67	56	4
19440	31104	6	4	63	48	48
19440	31104	7	5	36	72	35
19441	31105	9	6	42	0	0
19441	31105	9	6	42	72	0
19495	31192	6	4	60	0	48
19497	31195	4	2	67	0	4
19499	31198	1	1	67	0	1
19499	31198	1	7	67	0	39
19500	31200	1	1	69	80	1
19500	31200	1	7	69	80	39
19500	31200	4	2	63	39	4
19501	31201	9	6	35	72	0
19501	31201	9	6	42	0	0
19501	31201	9	6	42	72	0
19530	31248	5	3	55	53	25
19555	31288	6	4	63	0	48
19557	31291	4	2	63	0	4
19559	31294	1	1	69	0	1
19559	31294	1	7	69	0	39
19560	31296	1	1	72	80	1
19560	31296	1	7	72	80	39
19560	31296	4	2	67	56	4
19560	31296	5	3	60	62	25
19560	31296	5	3	63	68	25
19561	31297	9	6	35	0	0
19561	31297	9	6	38	72	0
19561	31297	9	6	42	0	0
19561	31297	9	6	42	72	0
19612	31379	7	5	36	0	35
19616	31385	5	3	55	0	25
19617	31387	4	2	67	0	4
19617	31387	5	3	60	0	25
19617	31387	5	3	63	0	25
19619	31390	1	1	72	0	1
19619	31390	1	7	72	0	39
19620	31392	1	1	69	80	1
19620	31392	1	7	69	80	39
19620	31392	4	2	63	45	4
19620	31392	7	5	43	62	35
19621	31393	9	6	38	0	0
19621	31393	9	6	42	0	0
19621	31393	9	6	42	72	0
19649	31438	1	1	69	0	1
19649	31438	1	7	69	0	39
19650	31440	1	1	67	80	1
19650	31440	1	7	67	80	39
19663	31460	4	2	55	0	4
19665	31464	4	2	60	0	4
19677	31483	4	2	63	0	4
19677	31483	7	5	43	0	35
19679	31486	1	1	67	0	1
19679	31486	1	7	67	0	39
19680	31488	1	1	67	80	1
19680	31488	1	7	67	80	39
19680	31488	4	2	58	56	4
19680	31488	7	5	46	72	35
19681	31489	9	6	35	72	0
19681	31489	9	6	42	0	0
19681	31489	9	6	42	72	0
19740	31584	4	2	65	53	4
19740	31584	6	4	62	48	48
19741	31585	9	6	42	0	0
19741	31585	9	6	42	72	0
19769	31630	1	1	67	0	1
19769	31630	1	7	67	0	39
19770	31632	1	1	69	80	1
19770	31632	1	7	69	80	39
19799	31678	1	1	69	0	1
19799	31678	1	7	69	0	39
19800	31680	1	1	67	80	1
19800	31680	1	7	67	80	39
19800	31680	4	2	69	53	4
19800	31680	6	4	65	45	48
19801	31681	9	6	35	0	0
19801	31681	9	6	38	72	0
19801	31681	9	6	42	0	0
19801	31681	9	6	42	72	0
19852	31763	4	2	58	0	4
19855	31768	6	4	62	0	48
19859	31774	1	1	67	0	1
19859	31774	1	7	67	0	39
19860	31776	1	1	65	80	1
19860	31776	1	7	65	80	39
19860	31776	4	2	74	56	4
19860	31776	6	4	69	62	48
19861	31777	9	6	38	0	0
19861	31777	9	6	42	0	0
19861	31777	9	6	42	72	0
19881	31809	7	5	46	0	35
19889	31822	1	1	65	0	1
19889	31822	1	7	65	0	39
19890	31824	1	1	67	80	1
19890	31824	1	7	67	80	39
19915	31864	6	4	65	0	48
19917	31867	4	2	74	0	4
19919	31870	1	1	67	0	1
19919	31870	1	7	67	0	39
19920	31872	1	1	67	80	1
19920	31872	1	7	67	80	39
19920	31872	4	2	77	56	4
19920	31872	6	4	74	53	48
19920	31872	7	5	46	72	35
19921	31873	9	6	42	0	0
19921	31873	9	6	42	72	0
19975	31960	6	4	69	0	48
19977	31963	4	2	77	0	4
19980	31968	4	2	74	39	4
19981	31969	9	6	35	72	0
19981	31969	9	6	42	0	0
19981	31969	9	6	42	72	0
20010	32016	5	3	65	53	25
20035	32056	6	4	74	0	48
20037	32059	4	2	74	0	4
20040	32064	4	2	77	56	4
20040	32064	5	3	69	62	25
20040	32064	5	3	74	68	25
20041	32065	9	6	35	0	0
20041	32065	9	6	38	72	0
20041	32065	9	6	42	0	0
20041	32065	9	6	42	72	0
20096	32153	5	3	65	0	25
20097	32155	4	2	77	0	4
20097	32155	5	3	69	0	25
20097	32155	5	3	74	0	25
20100	32160	4	2	74	45	4
20101	32161	9	6	38	0	0
20101	32161	9	6	42	0	0
20101	32161	9	6	42	72	0
20143	32228	4	2	65	0	4
20145	32232	4	2	69	0	4
20150	32240	7	5	46	0	35
20157	32251	4	2	74	0	4
20159	32254	1	1	67	0	1
20159	32254	1	7	67	0	39
20160	32256	1	1	67	80	1
20160	32256	1	7	67	80	39
20160	32256	4	2	55	56	4
20160	32256	7	5	43	68	35
20161	32257	9	6	35	72	0
20161	32257	9	6	42	0	0
20161	32257	9	6	42	72	0
20220	32352	4	2	62	53	4
20220	32352	6	4	58	51	48
20221	32353	9	6	42	0	0
20221	32353	9	6	42	72	0
20249	32398	1	1	65	80	1
20249	32398	1	1	67	0	1
20249	32398	1	7	65	80	39
20249	32398	1	7	67	0	39
20279	32446	1	1	65	0	1
20279	32446	1	7	65	0	39
20280	32448	1	1	67	80	1
20280	32448	1	7	67	80	39
20280	32448	4	2	65	53	4
20280	32448	6	4	62	51	48
20281	32449	9	6	35	0	0
20281	32449	9	6	38	72	0
20281	32449	9	6	42	0	0
20281	32449	9	6	42	72	0
20332	32531	4	2	55	0	4
20335	32536	6	4	58	0	48
20340	32544	4	2	70	56	4
20340	32544	6	4	65	56	48
20341	32545	9	6	38	0	0
20341	32545	9	6	42	0	0
20341	32545	9	6	42	72	0
20361	32577	7	5	43	0	35
20369	32590	1	1	67	0	1
20369	32590	1	7	67	0	39
20370	32592	1	1	65	80	1
20370	32592	1	7	65	80	39
20395	32632	6	4	62	0	48
20397	32635	4	2	70	0	4
20398	32636	1	1	65	0	1
20398	32636	1	7	65	0	39
20400	32640	1	1	67	80	1
20400	32640	1	7	67	80	39
20400	32640	4	2	55	53	4
20400	32640	4	2	60	53	4
20400	32640	4	2	62	0	4
20400	32640	4	2	65	0	4
20400	32640	4	2	67	56	4
20400	32640	6	4	60	56	48
20400	32640	6	4	64	51	48
20400	32640	6	4	65	0	48
20400	32640	7	5	36	65	35
20401	32641	9	6	42	0	0
20401	32641	9	6	42	72	0
20455	32728	6	4	60	0	48
20457	32731	4	2	67	0	4
20459	32734	1	1	67	0	1
20459	32734	1	7	67	0	39
20460	32736	1	1	69	80	1
20460	32736	1	7	69	80	39
20460	32736	4	2	64	39	4
20461	32737	9	6	35	72	0
20461	32737	9	6	42	0	0
20461	32737	9	6	42	72	0
20490	32784	5	3	55	53	25
20515	32824	6	4	64	0	48
20517	32827	4	2	64	0	4
20518	32828	1	1	69	0	1
20518	32828	1	7	69	0	39
20520	32832	1	1	72	80	1
20520	32832	1	7	72	80	39
20520	32832	4	2	67	56	4
20520	32832	5	3	60	62	25
20520	32832	5	3	64	68	25
20521	32833	9	6	35	0	0
20521	32833	9	6	38	72	0
20521	32833	9	6	42	0	0
20521	32833	9	6	42	72	0
20576	32921	5	3	55	0	25
20577	32923	4	2	67	0	4
20577	32923	5	3	60	0	25
20577	32923	5	3	64	0	25
20579	32926	1	1	72	0	1
20579	32926	1	7	72	0	39
20580	32928	1	1	69	80	1
20580	32928	1	7	69	80	39
20580	32928	4	2	64	45	4
20581	32929	9	6	38	0	0
20581	32929	9	6	42	0	0
20581	32929	9	6	42	72	0
20601	32961	7	5	36	0	35
20609	32974	1	1	69	0	1
20609	32974	1	7	69	0	39
20610	32976	1	1	67	80	1
20610	32976	1	7	67	80	39
20623	32996	4	2	55	0	4
20625	33000	4	2	60	0	4
20637	33019	4	2	64	0	4
20639	33022	1	1	67	0	1
20639	33022	1	1	67	80	1
20639	33022	1	7	67	0	39
20639	33022	1	7	67	80	39
20640	33024	4	2	50	56	4
20640	33024	7	5	38	68	35
20641	33025	9	6	35	72	0
20641	33025	9	6	42	0	0
20641	33025	9	6	42	72	0
20700	33120	4	2	57	53	4
20700	33120	6	4	53	51	48
20701	33121	9	6	42	0	0
20701	33121	9	6	42	72	0
20729	33166	1	1	67	0	1
20729	33166	1	7	67	0	39
20730	33168	1	1	69	80	1
20730	33168	1	7	69	80	39
20759	33214	1	1	69	0	1
20759	33214	1	7	69	0	39
20760	33216	1	1	67	80	1
20760	33216	1	7	67	80	39
20760	33216	4	2	62	53	4
20760	33216	6	4	57	53	48
20761	33217	9	6	35	0	0
20761	33217	9	6	38	72	0
20761	33217	9	6	42	0	0
20761	33217	9	6	42	72	0
20812	33299	4	2	50	0	4
20815	33304	6	4	53	0	48
20819	33310	1	1	67	0	1
20819	33310	1	7	67	0	39
20820	33312	1	1	65	80	1
20820	33312	1	7	65	80	39
20820	33312	4	2	65	56	4
20820	33312	6	4	62	51	48
20821	33313	9	6	38	0	0
20821	33313	9	6	42	0	0
20821	33313	9	6	42	72	0
20841	33345	7	5	38	0	35
20848	33356	1	1	65	0	1
20848	33356	1	7	65	0	39
20850	33360	1	1	62	80	1
20850	33360	1	7	62	80	39
20875	33400	6	4	57	0	48
20877	33403	4	2	65	0	4
20878	33404	1	1	62	0	1
20878	33404	1	7	62	0	39
20879	33406	1	1	62	80	1
20879	33406	1	7	62	80	39
20880	33408	4	2	69	56	4
20880	33408	7	5	38	68	35
20881	33409	9	6	42	0	0
20881	33409	9	6	42	72	0
20935	33496	6	4	62	0	48
20937	33499	4	2	69	0	4
20940	33504	4	2	65	39	4
20941	33505	9	6	35	72	0
20941	33505	9	6	42	0	0
20941	33505	9	6	42	72	0
20970	33552	5	3	57	53	25
20970	33552	6	4	57	45	48
20997	33595	4	2	65	0	4
20999	33598	1	1	62	0	1
20999	33598	1	7	62	0	39
21000	33600	1	1	69	80	1
21000	33600	1	7	69	80	39
21000	33600	4	2	69	56	4
21000	33600	5	3	62	62	25
21000	33600	5	3	65	68	25
21000	33600	6	4	62	59	48
21001	33601	9	6	35	0	0
21001	33601	9	6	38	72	0
21001	33601	9	6	42	0	0
21001	33601	9	6	42	72	0
21029	33646	1	1	69	0	1
21029	33646	1	7	69	0	39
21030	33648	1	1	67	80	1
21030	33648	1	7	67	80	39
21056	33689	5	3	57	0	25
21056	33689	6	4	57	0	48
21057	33691	4	2	69	0	4
21057	33691	5	3	62	0	25
21057	33691	5	3	65	0	25
21057	33691	6	4	62	0	48
21059	33694	1	1	67	0	1
21059	33694	1	7	67	0	39
21060	33696	1	1	65	80	1
21060	33696	1	7	65	80	39
21060	33696	4	2	65	45	4
21061	33697	9	6	38	0	0
21061	33697	9	6	42	0	0
21061	33697	9	6	42	72	0
21081	33729	7	5	38	0	35
21088	33740	1	1	65	0	1
21088	33740	1	7	65	0	39
21090	33744	1	1	67	80	1
21090	33744	1	7	67	80	39
21103	33764	4	2	57	0	4
21105	33768	4	2	62	0	4
21117	33787	4	2	65	0	4
21118	33788	1	1	67	0	1
21118	33788	1	7	67	0	39
21120	33792	1	1	65	80	1
21120	33792	1	7	65	80	39
21120	33792	4	2	58	56	4
21120	33792	7	5	46	76	35
21121	33793	9	6	35	72	0
21121	33793	9	6	42	0	0
21121	33793	9	6	42	72	0
21180	33888	4	2	65	53	4
21180	33888	6	4	62	48	48
21181	33889	9	6	42	0	0
21181	33889	9	6	42	72	0
21239	33982	1	1	65	0	1
21239	33982	1	1	69	80	1
21239	33982	1	7	65	0	39
21239	33982	1	7	69	80	39
21240	33984	4	2	70	53	4
21240	33984	6	4	65	53	48
21241	33985	9	6	35	0	0
21241	33985	9	6	38	72	0
21241	33985	9	6	42	0	0
21241	33985	9	6	42	72	0
21269	34030	1	1	69	0	1
21269	34030	1	7	69	0	39
21270	34032	1	1	67	80	1
21270	34032	1	7	67	80	39
21292	34067	4	2	58	0	4
21295	34072	6	4	62	0	48
21299	34078	1	1	67	0	1
21299	34078	1	7	67	0	39
21300	34080	1	1	65	80	1
21300	34080	1	7	65	80	39
21300	34080	4	2	74	56	4
21300	34080	6	4	70	53	48
21301	34081	9	6	38	0	0
21301	34081	9	6	42	0	0
21301	34081	9	6	42	72	0
21321	34113	7	5	46	0	35
21329	34126	1	1	65	0	1
21329	34126	1	7	65	0	39
21330	34128	1	1	67	80	1
21330	34128	1	7	67	80	39
21355	34168	6	4	65	0	48
21357	34171	4	2	74	0	4
21359	34174	1	1	67	0	1
21359	34174	1	7	67	0	39
21360	34176	1	1	65	80	1
21360	34176	1	7	65	80	39
21360	34176	4	2	55	53	4
21360	34176	4	2	60	53	4
21360	34176	4	2	65	0	4
21360	34176	4	2	67	56	4
21360	34176	4	2	70	0	4
21360	34176	6	4	60	53	48
21360	34176	6	4	64	48	48
21360	34176	6	4	70	0	48
21360	34176	7	5	36	72	35
21361	34177	9	6	42	0	0
21361	34177	9	6	42	72	0
21415	34264	6	4	60	0	48
21417	34267	4	2	67	0	4
21420	34272	4	2	64	39	4
21421	34273	9	6	35	72	0
21421	34273	9	6	42	0	0
21421	34273	9	6	42	72	0
21448	34316	1	1	65	0	1
21448	34316	1	7	65	0	39
21449	34318	1	1	60	80	1
21449	34318	1	7	60	80	39
21450	34320	5	3	55	53	25
21475	34360	6	4	64	0	48
21477	34363	4	2	64	0	4
21479	34366	1	1	60	0	1
21479	34366	1	1	69	80	1
21479	34366	1	7	60	0	39
21479	34366	1	7	69	80	39
21480	34368	4	2	67	56	4
21480	34368	5	3	60	62	25
21480	34368	5	3	64	68	25
21481	34369	9	6	35	0	0
21481	34369	9	6	38	72	0
21481	34369	9	6	42	0	0
21481	34369	9	6	42	72	0
21509	34414	1	1	69	0	1
21509	34414	1	7	69	0	39
21510	34416	1	1	67	80	1
21510	34416	1	7	67	80	39
21532	34451	7	5	36	0	35
21536	34457	5	3	55	0	25
21537	34459	4	2	67	0	4
21537	34459	5	3	60	0	25
21537	34459	5	3	64	0	25
21539	34462	1	1	67	0	1
21539	34462	1	7	67	0	39
21540	34464	1	1	65	80	1
21540	34464	1	7	65	80	39
21540	34464	4	2	64	45	4
21540	34464	7	5	43	62	35
21541	34465	9	6	38	0	0
21541	34465	9	6	42	0	0
21541	34465	9	6	42	72	0
21569	34510	1	1	65	0	1
21569	34510	1	7	65	0	39
21570	34512	1	1	67	80	1
21570	34512	1	7	67	80	39
21583	34532	4	2	55	0	4
21585	34536	4	2	60	0	4
21597	34555	4	2	64	0	4
21597	34555	7	5	43	0	35
21599	34558	1	1	67	0	1
21599	34558	1	7	67	0	39
21600	34560	1	1	65	80	1
21600	34560	1	7	65	80	39
21600	34560	4	2	53	56	4
21600	34560	7	5	41	68	35
21601	34561	9	6	35	72	0
21601	34561	9	6	42	0	0
21601	34561	9	6	42	72	0
21660	34656	4	2	60	53	4
21661	34657	9	6	42	0	0
21661	34657	9	6	42	72	0
21720	34752	4	2	65	53	4
21721	34753	9	6	35	0	0
21721	34753	9	6	38	72	0
21721	34753	9	6	42	0	0
21721	34753	9	6	42	72	0
21750	34800	7	5	41	0	35
21780	34848	4	2	53	0	4
21780	34848	4	2	69	56	4
21780	34848	7	5	50	65	35
21781	34849	9	6	38	0	0
21781	34849	9	6	42	0	0
21781	34849	9	6	42	72	0
21810	34896	5	3	60	53	25
21810	34896	7	5	48	65	35
21810	34896	7	5	50	0	35
21836	34937	4	2	60	0	4
21839	34942	1	1	65	0	1
21839	34942	1	7	65	0	39
21840	34944	1	1	65	80	1
21840	34944	1	7	65	80	39
21840	34944	4	2	63	53	4
21840	34944	4	2	65	0	4
21840	34944	4	2	69	0	4
21840	34944	4	2	69	56	4
21840	34944	4	2	72	56	4
21840	34944	5	3	60	0	25
21840	34944	5	3	60	53	25
21840	34944	5	3	65	62	25
21840	34944	5	3	69	68	25
21840	34944	6	4	72	44	48
21840	34944	7	5	41	76	35
21840	34944	7	5	48	0	35
21841	34945	9	6	42	0	0
21841	34945	9	6	42	72	0
21898	35036	1	1	65	0	1
21898	35036	1	7	65	0	39
21900	35040	1	1	67	80	1
21900	35040	1	7	67	80	39
21901	35041	9	6	35	72	0
21901	35041	9	6	42	0	0
21901	35041	9	6	42	72	0
21927	35083	5	3	60	0	25
21928	35084	6	4	72	0	48
21957	35131	5	3	65	0	25
21957	35131	5	3	69	0	25
21958	35132	1	1	67	0	1
21958	35132	1	7	67	0	39
21960	35136	1	1	69	80	1
21960	35136	1	7	69	80	39
21960	35136	6	4	77	59	48
21961	35137	9	6	35	0	0
21961	35137	9	6	38	72	0
21961	35137	9	6	42	0	0
21961	35137	9	6	42	72	0
22018	35228	1	1	69	0	1
22018	35228	1	7	69	0	39
22018	35228	6	4	77	0	48
22020	35232	1	1	65	80	1
22020	35232	1	7	65	80	39
22020	35232	6	4	75	52	48
22021	35233	9	6	38	0	0
22021	35233	9	6	42	0	0
22021	35233	9	6	45	72	0
22050	35280	7	5	41	0	35
22051	35281	9	6	45	0	0
22051	35281	9	6	45	72	0
22072	35315	4	2	63	0	4
22074	35318	4	2	69	0	4
22075	35320	4	2	72	0	4
22077	35323	6	4	75	0	48
22079	35326	1	1	65	0	1
22079	35326	1	7	65	0	39
22080	35328	1	1	74	80	1
22080	35328	1	7	74	80	39
22080	35328	4	2	58	56	4
22080	35328	6	4	58	36	48
22080	35328	6	4	70	34	48
22080	35328	6	4	74	48	48
22080	35328	7	5	46	62	35
22081	35329	9	6	35	72	0
22081	35329	9	6	45	0	0
22081	35329	9	6	49	72	0
22139	35422	1	1	74	0	1
22139	35422	1	7	74	0	39
22140	35424	1	1	72	80	1
22140	35424	1	7	72	80	39
22140	35424	4	2	65	53	4
22141	35425	9	6	42	72	0
22141	35425	9	6	49	0	0
22169	35470	1	1	72	0	1
22169	35470	1	7	72	0	39
22170	35472	1	1	74	80	1
22170	35472	1	7	74	80	39
22200	35520	4	2	70	53	4
22201	35521	9	6	35	0	0
22201	35521	9	6	38	72	0
22201	35521	9	6	42	0	0
22201	35521	9	6	42	72	0
22252	35603	4	2	58	0	4
22260	35616	4	2	74	56	4
22261	35617	9	6	38	0	0
22261	35617	9	6	42	0	0
22261	35617	9	6	42	72	0
22281	35649	7	5	46	0	35
22289	35662	1	1	74	0	1
22289	35662	1	7	74	0	39
22290	35664	1	1	65	80	1
22290	35664	1	7	65	80	39
22291	35665	9	6	38	72	0
22291	35665	9	6	42	0	0
22317	35707	4	2	74	0	4
22319	35710	1	1	65	0	1
22319	35710	1	1	76	80	1
22319	35710	1	7	65	0	39
22319	35710	1	7	76	80	39
22320	35712	4	2	55	53	4
22320	35712	4	2	60	53	4
22320	35712	4	2	65	0	4
22320	35712	4	2	67	56	4
22320	35712	4	2	70	0	4
22320	35712	6	4	48	36	48
22320	35712	6	4	58	0	48
22320	35712	6	4	60	34	48
22320	35712	6	4	64	48	48
22320	35712	6	4	70	0	48
22320	35712	6	4	74	0	48
22320	35712	7	5	36	68	35
22321	35713	9	6	35	72	0
22321	35713	9	6	38	0	0
22321	35713	9	6	42	72	0
22351	35761	9	6	38	72	0
22351	35761	9	6	42	0	0
22377	35803	4	2	67	0	4
22379	35806	1	1	74	80	1
22379	35806	1	1	76	0	1
22379	35806	1	7	74	80	39
22379	35806	1	7	76	0	39
22380	35808	4	2	64	39	4
22381	35809	9	6	35	0	0
22381	35809	9	6	35	72	0
22381	35809	9	6	38	0	0
22381	35809	9	6	42	72	0
22409	35854	1	1	74	0	1
22409	35854	1	7	74	0	39
22410	35856	1	1	76	80	1
22410	35856	1	7	76	80	39
22410	35856	5	3	55	53	25
22435	35896	7	5	36	0	35
22437	35899	4	2	64	0	4
22440	35904	4	2	72	56	4
22440	35904	5	3	60	62	25
22440	35904	5	3	64	68	25
22440	35904	7	5	40	65	35
22441	35905	9	6	35	0	0
22441	35905	9	6	38	72	0
22441	35905	9	6	42	0	0
22441	35905	9	6	42	72	0
22496	35993	5	3	55	0	25
22497	35995	4	2	72	0	4
22497	35995	5	3	60	0	25
22497	35995	5	3	64	0	25
22497	35995	7	5	40	0	35
22500	36000	4	2	67	45	4
22500	36000	7	5	31	59	35
22501	36001	9	6	38	0	0
22501	36001	9	6	42	0	0
22501	36001	9	6	42	72	0
22541	36065	6	4	48	0	48
22543	36068	4	2	55	0	4
22545	36072	4	2	60	0	4
22557	36091	4	2	67	0	4
22557	36091	7	5	31	0	35
22559	36094	1	1	76	0	1
22559	36094	1	7	76	0	39
22560	36096	1	1	76	80	1
22560	36096	1	7	76	80	39
22560	36096	4	2	57	56	4
22560	36096	6	4	60	0	48
22560	36096	6	4	64	0	48
22560	36096	6	4	69	34	48
22560	36096	6	4	73	48	48
22560	36096	6	4	76	45	48
22560	36096	7	5	45	65	35
22561	36097	9	6	35	72	0
22561	36097	9	6	42	0	0
22561	36097	9	6	42	72	0
22619	36190	1	1	76	0	1
22619	36190	1	7	76	0	39
22620	36192	1	1	74	80	1
22620	36192	1	7	74	80	39
22620	36192	4	2	64	53	4
22621	36193	9	6	42	0	0
22621	36193	9	6	42	72	0
22649	36238	1	1	74	0	1
22649	36238	1	7	74	0	39
22650	36240	1	1	76	80	1
22650	36240	1	7	76	80	39
22680	36288	4	2	69	53	4
22681	36289	9	6	35	0	0
22681	36289	9	6	38	72	0
22681	36289	9	6	42	0	0
22681	36289	9	6	42	72	0
22732	36371	4	2	57	0	4
22740	36384	4	2	73	56	4
22741	36385	9	6	38	0	0
22741	36385	9	6	42	0	0
22741	36385	9	6	42	72	0
22761	36417	7	5	45	0	35
22769	36430	1	1	76	0	1
22769	36430	1	7	76	0	39
22770	36432	1	1	69	80	1
22770	36432	1	7	69	80	39
22771	36433	9	6	38	72	0
22771	36433	9	6	42	0	0
22797	36475	4	2	73	0	4
22799	36478	1	1	69	0	1
22799	36478	1	7	69	0	39
22800	36480	1	1	77	80	1
22800	36480	1	7	77	80	39
22800	36480	4	2	57	53	4
22800	36480	4	2	62	53	4
22800	36480	4	2	64	0	4
22800	36480	4	2	69	0	4
22800	36480	4	2	69	56	4
22800	36480	6	4	62	34	48
22800	36480	6	4	65	48	48
22800	36480	6	4	69	0	48
22800	36480	6	4	69	45	48
22800	36480	6	4	73	0	48
22800	36480	6	4	76	0	48
22800	36480	7	5	38	65	35
22801	36481	9	6	35	72	0
22801	36481	9	6	38	0	0
22801	36481	9	6	42	72	0
22829	36526	1	1	77	0	1
22829	36526	1	1	79	80	1
22829	36526	1	7	77	0	39
22829	36526	1	7	79	80	39
22831	36529	9	6	38	72	0
22831	36529	9	6	42	0	0
22857	36571	4	2	69	0	4
22859	36574	1	1	79	0	1
22859	36574	1	7	79	0	39
22860	36576	1	1	77	80	1
22860	36576	1	7	77	80	39
22860	36576	4	2	65	39	4
22861	36577	9	6	35	0	0
22861	36577	9	6	35	72	0
22861	36577	9	6	38	0	0
22861	36577	9	6	42	72	0
22889	36622	1	1	76	80	1
22889	36622	1	1	77	0	1
22889	36622	1	7	76	80	39
22889	36622	1	7	77	0	39
22890	36624	5	3	57	53	25
22917	36667	4	2	65	0	4
22919	36670	1	1	76	0	1
22919	36670	1	7	76	0	39
22920	36672	1	1	74	80	1
22920	36672	1	7	74	80	39
22920	36672	4	2	69	56	4
22920	36672	5	3	62	62	25
22920	36672	5	3	65	68	25
22921	36673	9	6	35	0	0
22921	36673	9	6	38	72	0
22921	36673	9	6	42	0	0
22921	36673	9	6	42	72	0
22972	36755	7	5	38	0	35
22976	36761	5	3	57	0	25
22977	36763	4	2	69	0	4
22977	36763	5	3	62	0	25
22977	36763	5	3	65	0	25
22979	36766	1	1	74	0	1
22979	36766	1	7	74	0	39
22980	36768	1	1	72	80	1
22980	36768	1	7	72	80	39
22980	36768	4	2	65	45	4
22980	36768	7	5	33	68	35
22981	36769	9	6	38	0	0
22981	36769	9	6	42	0	0
22981	36769	9	6	42	72	0
23001	36801	6	4	62	0	48
23001	36801	6	4	65	0	48
23021	36833	6	4	69	0	48
23023	36836	4	2	57	0	4
23025	36840	4	2	62	0	4
23037	36859	4	2	65	0	4
23037	36859	7	5	33	0	35
23038	36860	1	1	72	0	1
23038	36860	1	7	72	0	39
23040	36864	1	1	74	80	1
23040	36864	1	7	74	80	39
23040	36864	4	2	58	56	4
23040	36864	6	4	58	41	48
23040	36864	6	4	70	36	48
23040	36864	6	4	74	46	48
23040	36864	7	5	46	72	35
23041	36865	9	6	35	72	0
23041	36865	9	6	42	0	0
23041	36865	9	6	42	72	0
23098	36956	1	1	74	0	1
23098	36956	1	7	74	0	39
23100	36960	1	1	72	80	1
23100	36960	1	7	72	80	39
23100	36960	4	2	65	53	4
23101	36961	9	6	42	0	0
23101	36961	9	6	42	72	0
23129	37006	1	1	72	0	1
23129	37006	1	7	72	0	39
23130	37008	1	1	74	80	1
23130	37008	1	7	74	80	39
23160	37056	4	2	70	53	4
23161	37057	9	6	35	0	0
23161	37057	9	6	38	72	0
23161	37057	9	6	42	0	0
23161	37057	9	6	42	72	0
23189	37102	1	1	74	0	1
23189	37102	1	7	74	0	39
23190	37104	1	1	72	80	1
23190	37104	1	7	72	80	39
23212	37139	4	2	58	0	4
23219	37150	1	1	72	0	1
23219	37150	1	7	72	0	39
23220	37152	1	1	74	80	1
23220	37152	1	7	74	80	39
23220	37152	4	2	74	56	4
23221	37153	9	6	38	0	0
23221	37153	9	6	42	0	0
23221	37153	9	6	42	72	0
23241	37185	7	5	46	0	35
23249	37198	1	1	74	0	1
23249	37198	1	7	74	0	39
23250	37200	1	1	72	80	1
23250	37200	1	7	72	80	39
23251	37201	9	6	38	72	0
23251	37201	9	6	42	0	0
23277	37243	4	2	74	0	4
23279	37246	1	1	72	0	1
23279	37246	1	7	72	0	39
23280	37248	1	1	74	80	1
23280	37248	1	7	74	80	39
23280	37248	4	2	55	53	4
23280	37248	4	2	60	53	4
23280	37248	4	2	65	0	4
23280	37248	4	2	67	56	4
23280	37248	4	2	70	0	4
23280	37248	6	4	48	41	48
23280	37248	6	4	58	0	48
23280	37248	6	4	60	36	48
23280	37248	6	4	64	46	48
23280	37248	6	4	70	0	48
23280	37248	6	4	74	0	48
23280	37248	7	5	36	65	35
23281	37249	9	6	35	72	0
23281	37249	9	6	38	0	0
23281	37249	9	6	42	72	0
23311	37297	9	6	38	72	0
23311	37297	9	6	42	0	0
23337	37339	4	2	67	0	4
23339	37342	1	1	74	0	1
23339	37342	1	7	74	0	39
23340	37344	1	1	72	80	1
23340	37344	1	7	72	80	39
23340	37344	4	2	64	39	4
23341	37345	9	6	35	0	0
23341	37345	9	6	35	72	0
23341	37345	9	6	38	0	0
23341	37345	9	6	42	72	0
23369	37390	1	1	72	0	1
23369	37390	1	7	72	0	39
23370	37392	1	1	67	80	1
23370	37392	1	7	67	80	39
23370	37392	5	3	55	53	25
23395	37432	7	5	36	0	35
23397	37435	4	2	64	0	4
23400	37440	4	2	72	56	4
23400	37440	5	3	60	62	25
23400	37440	5	3	64	68	25
23400	37440	7	5	40	72	35
23401	37441	9	6	35	0	0
23401	37441	9	6	38	72	0
23401	37441	9	6	42	0	0
23401	37441	9	6	42	72	0
23456	37529	5	3	55	0	25
23457	37531	4	2	72	0	4
23457	37531	5	3	60	0	25
23457	37531	5	3	64	0	25
23457	37531	7	5	40	0	35
23459	37534	1	1	67	0	1
23459	37534	1	1	72	80	1
23459	37534	1	7	67	0	39
23459	37534	1	7	72	80	39
23460	37536	4	2	67	45	4
23460	37536	7	5	31	68	35
23461	37537	9	6	38	0	0
23461	37537	9	6	42	0	0
23461	37537	9	6	42	72	0
23489	37582	1	1	72	0	1
23489	37582	1	7	72	0	39
23490	37584	1	1	69	80	1
23490	37584	1	7	69	80	39
23501	37601	6	4	48	0	48
23501	37601	6	4	60	0	48
23501	37601	6	4	64	0	48
23503	37604	4	2	55	0	4
23505	37608	4	2	60	0	4
23517	37627	4	2	67	0	4
23517	37627	7	5	31	0	35
23519	37630	1	1	69	0	1
23519	37630	1	1	69	80	1
23519	37630	1	7	69	0	39
23519	37630	1	7	69	80	39
23520	37632	4	2	53	56	4
23520	37632	6	4	65	44	48
23520	37632	6	4	69	44	48
23520	37632	6	4	72	48	48
23520	37632	7	5	41	65	35
23521	37633	9	6	35	72	0
23521	37633	9	6	42	0	0
23521	37633	9	6	42	72	0
23580	37728	4	2	60	53	4
23581	37729	9	6	42	0	0
23581	37729	9	6	42	72	0
23640	37824	4	2	65	53	4
23641	37825	9	6	35	0	0
23641	37825	9	6	38	72	0
23641	37825	9	6	42	0	0
23641	37825	9	6	42	72	0
23692	37907	4	2	53	0	4
23700	37920	4	2	69	56	4
23701	37921	9	6	38	0	0
23701	37921	9	6	42	0	0
23701	37921	9	6	42	72	0
23721	37953	7	5	41	0	35
23731	37969	9	6	38	72	0
23731	37969	9	6	42	0	0
23757	38011	4	2	69	0	4
23759	38014	1	1	69	0	1
23759	38014	1	7	69	0	39
23760	38016	1	1	65	80	1
23760	38016	1	7	65	80	39
23760	38016	4	2	60	0	4
23760	38016	4	2	60	53	4
23760	38016	4	2	63	53	4
23760	38016	4	2	65	0	4
23760	38016	4	2	72	56	4
23760	38016	6	4	63	44	48
23760	38016	6	4	65	0	48
23760	38016	6	4	69	0	48
23760	38016	6	4	69	44	48
23760	38016	6	4	72	0	48
23760	38016	6	4	72	48	48
23760	38016	7	5	41	65	35
23761	38017	9	6	35	72	0
23761	38017	9	6	38	0	0
23761	38017	9	6	42	72	0
23791	38065	9	6	38	72	0
23791	38065	9	6	42	0	0
23817	38107	4	2	72	0	4
23819	38110	1	1	65	0	1
23819	38110	1	7	65	0	39
23820	38112	1	1	67	80	1
23820	38112	1	7	67	80	39
23820	38112	4	2	69	39	4
23821	38113	9	6	35	0	0
23821	38113	9	6	35	72	0
23821	38113	9	6	38	0	0
23821	38113	9	6	42	72	0
23850	38160	5	3	60	53	25
23877	38203	4	2	69	0	4
23879	38206	1	1	67	0	1
23879	38206	1	7	67	0	39
23880	38208	1	1	69	80	1
23880	38208	1	7	69	80	39
23880	38208	4	2	72	56	4
23880	38208	5	3	65	62	25
23880	38208	5	3	69	68	25
23881	38209	9	6	35	0	0
23881	38209	9	6	38	72	0
23881	38209	9	6	42	0	0
23881	38209	9	6	42	72	0
23936	38297	5	3	60	0	25
23937	38299	4	2	72	0	4
23937	38299	5	3	65	0	25
23937	38299	5	3	69	0	25
23939	38302	1	1	69	0	1
23939	38302	1	7	69	0	39
23940	38304	1	1	65	80	1
23940	38304	1	7	65	80	39
23940	38304	4	2	69	45	4
23941	38305	9	6	38	0	0
23941	38305	9	6	42	0	0
23941	38305	9	6	42	72	0
23952	38323	6	4	63	0	48
23952	38323	6	4	69	0	48
23952	38323	6	4	72	0	48
23961	38337	7	5	41	0	35
23983	38372	4	2	60	0	4
23985	38376	4	2	63	0	4
23997	38395	4	2	69	0	4
23999	38398	1	1	65	0	1
23999	38398	1	7	65	0	39
24000	38400	1	1	74	80	1
24000	38400	1	7	74	80	39
24000	38400	4	2	58	56	4
24000	38400	6	4	58	36	48
24000	38400	6	4	70	34	48
24000	38400	6	4	74	48	48
24000	38400	7	5	46	62	35
24001	38401	9	6	35	72	0
24001	38401	9	6	42	0	0
24001	38401	9	6	42	72	0
24059	38494	1	1	74	0	1
24059	38494	1	7	74	0	39
24060	38496	1	1	72	80	1
24060	38496	1	7	72	80	39
24060	38496	4	2	65	53	4
24061	38497	9	6	42	0	0
24061	38497	9	6	42	72	0
24089	38542	1	1	72	0	1
24089	38542	1	1	74	80	1
24089	38542	1	7	72	0	39
24089	38542	1	7	74	80	39
24120	38592	4	2	70	53	4
24121	38593	9	6	35	0	0
24121	38593	9	6	38	72	0
24121	38593	9	6	42	0	0
24121	38593	9	6	42	72	0
24172	38675	4	2	58	0	4
24180	38688	4	2	74	56	4
24181	38689	9	6	38	0	0
24181	38689	9	6	42	0	0
24181	38689	9	6	42	72	0
24201	38721	7	5	46	0	35
24209	38734	1	1	74	0	1
24209	38734	1	7	74	0	39
24210	38736	1	1	65	80	1
24210	38736	1	7	65	80	39
24211	38737	9	6	38	72	0
24211	38737	9	6	42	0	0
24237	38779	4	2	74	0	4
24238	38780	1	1	65	0	1
24238	38780	1	7	65	0	39
24240	38784	1	1	76	80	1
24240	38784	1	7	76	80	39
24240	38784	4	2	55	53	4
24240	38784	4	2	60	53	4
24240	38784	4	2	65	0	4
24240	38784	4	2	67	56	4
24240	38784	4	2	70	0	4
24240	38784	6	4	48	36	48
24240	38784	6	4	58	0	48
24240	38784	6	4	60	34	48
24240	38784	6	4	64	48	48
24240	38784	6	4	70	0	48
24240	38784	6	4	74	0	48
24240	38784	7	5	36	68	35
24241	38785	9	6	35	72	0
24241	38785	9	6	38	0	0
24241	38785	9	6	42	72	0
24271	38833	9	6	38	72	0
24271	38833	9	6	42	0	0
24297	38875	4	2	67	0	4
24298	38876	1	1	76	0	1
24298	38876	1	7	76	0	39
24300	38880	1	1	74	80	1
24300	38880	1	7	74	80	39
24300	38880	4	2	64	39	4
24301	38881	9	6	35	0	0
24301	38881	9	6	35	72	0
24301	38881	9	6	38	0	0
24301	38881	9	6	42	72	0
24329	38926	1	1	74	0	1
24329	38926	1	7	74	0	39
24330	38928	1	1	76	80	1
24330	38928	1	7	76	80	39
24330	38928	5	3	55	53	25
24355	38968	7	5	36	0	35
24357	38971	4	2	64	0	4
24360	38976	4	2	72	56	4
24360	38976	5	3	60	62	25
24360	38976	5	3	64	68	25
24360	38976	7	5	40	65	35
24361	38977	9	6	35	0	0
24361	38977	9	6	38	72	0
24361	38977	9	6	42	0	0
24361	38977	9	6	42	72	0
24416	39065	5	3	55	0	25
24417	39067	4	2	72	0	4
24417	39067	5	3	60	0	25
24417	39067	5	3	64	0	25
24417	39067	7	5	40	0	35
24420	39072	4	2	67	45	4
24420	39072	7	5	31	59	35
24421	39073	9	6	38	0	0
24421	39073	9	6	42	0	0
24421	39073	9	6	42	72	0
24461	39137	6	4	48	0	48
24463	39140	4	2	55	0	4
24465	39144	4	2	60	0	4
24477	39163	4	2	67	0	4
24477	39163	7	5	31	0	35
24479	39166	1	1	76	0	1
24479	39166	1	7	76	0	39
24480	39168	1	1	76	80	1
24480	39168	1	7	76	80	39
24480	39168	4	2	57	56	4
24480	39168	6	4	60	0	48
24480	39168	6	4	64	0	48
24480	39168	6	4	69	34	48
24480	39168	6	4	73	48	48
24480	39168	6	4	76	45	48
24480	39168	7	5	45	65	35
24481	39169	9	6	35	72	0
24481	39169	9	6	42	0	0
24481	39169	9	6	42	72	0
24539	39262	1	1	76	0	1
24539	39262	1	7	76	0	39
24540	39264	1	1	74	80	1
24540	39264	1	7	74	80	39
24540	39264	4	2	64	53	4
24541	39265	9	6	42	0	0
24541	39265	9	6	42	72	0
24569	39310	1	1	74	0	1
24569	39310	1	7	74	0	39
24570	39312	1	1	76	80	1
24570	39312	1	7	76	80	39
24600	39360	4	2	69	53	4
24601	39361	9	6	35	0	0
24601	39361	9	6	38	72	0
24601	39361	9	6	42	0	0
24601	39361	9	6	42	72	0
24652	39443	4	2	57	0	4
24660	39456	4	2	73	56	4
24661	39457	9	6	38	0	0
24661	39457	9	6	42	0	0
24661	39457	9	6	42	72	0
24681	39489	7	5	45	0	35
24689	39502	1	1	76	0	1
24689	39502	1	7	76	0	39
24690	39504	1	1	69	80	1
24690	39504	1	7	69	80	39
24691	39505	9	6	38	72	0
24691	39505	9	6	42	0	0
24717	39547	4	2	73	0	4
24719	39550	1	1	69	0	1
24719	39550	1	7	69	0	39
24720	39552	1	1	77	80	1
24720	39552	1	7	77	80	39
24720	39552	4	2	57	53	4
24720	39552	4	2	62	53	4
24720	39552	4	2	64	0	4
24720	39552	4	2	69	0	4
24720	39552	4	2	69	56	4
24720	39552	6	4	62	34	48
24720	39552	6	4	65	48	48
24720	39552	6	4	69	0	48
24720	39552	6	4	69	45	48
24720	39552	6	4	73	0	48
24720	39552	6	4	76	0	48
24720	39552	7	5	38	65	35
24721	39553	9	6	35	72	0
24721	39553	9	6	38	0	0
24721	39553	9	6	42	72	0
24749	39598	1	1	77	0	1
24749	39598	1	7	77	0	39
24750	39600	1	1	79	80	1
24750	39600	1	7	79	80	39
24751	39601	9	6	38	72	0
24751	39601	9	6	42	0	0
24777	39643	4	2	69	0	4
24779	39646	1	1	79	0	1
24779	39646	1	7	79	0	39
24780	39648	1	1	77	80	1
24780	39648	1	7	77	80	39
24780	39648	4	2	65	39	4
24781	39649	9	6	35	0	0
24781	39649	9	6	35	72	0
24781	39649	9	6	38	0	0
24781	39649	9	6	42	72	0
24808	39692	1	1	77	0	1
24808	39692	1	7	77	0	39
24810	39696	1	1	76	80	1
24810	39696	1	7	76	80	39
24810	39696	5	3	57	53	25
24837	39739	4	2	65	0	4
24839	39742	1	1	76	0	1
24839	39742	1	7	76	0	39
24840	39744	1	1	74	80	1
24840	39744	1	7	74	80	39
24840	39744	4	2	69	56	4
24840	39744	5	3	62	62	25
24840	39744	5	3	65	68	25
24841	39745	9	6	35	0	0
24841	39745	9	6	38	72	0
24841	39745	9	6	42	0	0
24841	39745	9	6	42	72	0
24892	39827	7	5	38	0	35
24896	39833	5	3	57	0	25
24897	39835	4	2	69	0	4
24897	39835	5	3	62	0	25
24897	39835	5	3	65	0	25
24899	39838	1	1	74	0	1
24899	39838	1	7	74	0	39
24900	39840	1	1	72	80	1
24900	39840	1	7	72	80	39
24900	39840	4	2	65	45	4
24900	39840	7	5	33	68	35
24901	39841	9	6	38	0	0
24901	39841	9	6	42	0	0
24901	39841	9	6	42	72	0
24921	39873	6	4	62	0	48
24921	39873	6	4	65	0	48
24941	39905	6	4	69	0	48
24943	39908	4	2	57	0	4
24945	39912	4	2	62	0	4
24957	39931	4	2	65	0	4
24957	39931	7	5	33	0	35
24959	39934	1	1	72	0	1
24959	39934	1	7	72	0	39
24960	39936	1	1	74	80	1
24960	39936	1	7	74	80	39
24960	39936	4	2	58	56	4
24960	39936	6	4	58	41	48
24960	39936	6	4	70	36	48
24960	39936	6	4	74	46	48
24960	39936	7	5	46	72	35
24961	39937	9	6	35	72	0
24961	39937	9	6	42	0	0
24961	39937	9	6	42	72	0
25019	40030	1	1	74	0	1
25019	40030	1	7	74	0	39
25020	40032	1	1	81	80	1
25020	40032	1	7	81	80	39
25020	40032	4	2	65	53	4
25021	40033	9	6	42	0	0
25021	40033	9	6	42	72	0
25049	40078	1	1	81	0	1
25049	40078	1	7	81	0	39
25050	40080	1	1	81	80	1
25050	40080	1	7	81	80	39
25080	40128	4	2	70	53	4
25081	40129	9	6	35	0	0
25081	40129	9	6	38	72	0
25081	40129	9	6	42	0	0
25081	40129	9	6	42	72	0
25132	40211	4	2	58	0	4
25139	40222	1	1	81	0	1
25139	40222	1	7	81	0	39
25140	40224	1	1	72	80	1
25140	40224	1	7	72	80	39
25140	40224	4	2	74	56	4
25141	40225	9	6	38	0	0
25141	40225	9	6	42	0	0
25141	40225	9	6	42	72	0
25161	40257	7	5	46	0	35
25171	40273	9	6	38	72	0
25171	40273	9	6	42	0	0
25197	40315	4	2	74	0	4
25199	40318	1	1	72	0	1
25199	40318	1	7	72	0	39
25200	40320	1	1	74	80	1
25200	40320	1	7	74	80	39
25200	40320	4	2	55	53	4
25200	40320	4	2	60	53	4
25200	40320	4	2	65	0	4
25200	40320	4	2	67	56	4
25200	40320	4	2	70	0	4
25200	40320	6	4	48	41	48
25200	40320	6	4	58	0	48
25200	40320	6	4	60	36	48
25200	40320	6	4	64	46	48
25200	40320	6	4	70	0	48
25200	40320	6	4	74	0	48
25200	40320	7	5	36	65	35
25201	40321	9	6	35	72	0
25201	40321	9	6	38	0	0
25201	40321	9	6	42	72	0
25231	40369	9	6	38	72	0
25231	40369	9	6	42	0	0
25257	40411	4	2	67	0	4
25259	40414	1	1	74	0	1
25259	40414	1	7	74	0	39
25260	40416	1	1	81	80	1
25260	40416	1	7	81	80	39
25260	40416	4	2	64	39	4
25261	40417	9	6	35	0	0
25261	40417	9	6	35	72	0
25261	40417	9	6	38	0	0
25261	40417	9	6	42	72	0
25289	40462	1	1	81	0	1
25289	40462	1	7	81	0	39
25290	40464	1	1	81	80	1
25290	40464	1	7	81	80	39
25290	40464	5	3	55	53	25
25315	40504	7	5	36	0	35
25317	40507	4	2	64	0	4
25320	40512	4	2	72	56	4
25320	40512	5	3	60	62	25
25320	40512	5	3	64	68	25
25320	40512	7	5	40	72	35
25321	40513	9	6	35	0	0
25321	40513	9	6	38	72	0
25321	40513	9	6	42	0	0
25321	40513	9	6	42	72	0
25376	40601	5	3	55	0	25
25377	40603	4	2	72	0	4
25377	40603	5	3	60	0	25
25377	40603	5	3	64	0	25
25377	40603	7	5	40	0	35
25378	40604	1	1	81	0	1
25378	40604	1	7	81	0	39
25380	40608	1	1	72	80	1
25380	40608	1	7	72	80	39
25380	40608	4	2	67	45	4
25380	40608	7	5	31	68	35
25381	40609	9	6	38	0	0
25381	40609	9	6	42	0	0
25381	40609	9	6	42	72	0
25409	40654	1	1	72	0	1
25409	40654	1	7	72	0	39
25410	40656	1	1	74	80	1
25410	40656	1	7	74	80	39
25421	40673	6	4	48	0	48
25421	40673	6	4	60	0	48
25421	40673	6	4	64	0	48
25423	40676	4	2	55	0	4
25425	40680	4	2	60	0	4
25437	40699	4	2	67	0	4
25437	40699	7	5	31	0	35
25438	40700	1	1	74	0	1
25438	40700	1	7	74	0	39
25440	40704	1	1	74	80	1
25440	40704	1	7	74	80	39
25440	40704	5	3	50	65	25
25440	40704	6	4	77	45	48
25440	40704	7	5	50	71	35
25441	40705	9	6	38	72	0
25441	40705	9	6	42	0	0
25441	40705	9	6	45	72	0
25470	40752	5	3	53	53	25
25500	40800	5	3	57	53	25
25501	40801	9	6	38	0	0
25501	40801	9	6	38	72	0
25501	40801	9	6	45	0	0
25501	40801	9	6	45	72	0
25530	40848	5	3	50	0	25
25530	40848	5	3	62	56	25
25560	40896	5	3	53	0	25
25560	40896	5	3	62	65	25
25560	40896	7	5	38	62	35
25560	40896	7	5	50	0	35
25561	40897	9	6	38	0	0
25561	40897	9	6	38	72	0
25561	40897	9	6	45	0	0
25561	40897	9	6	45	72	0
25590	40944	5	3	57	0	25
25590	40944	5	3	69	68	25
25621	40993	9	6	38	0	0
25621	40993	9	6	38	72	0
25621	40993	9	6	45	0	0
25621	40993	9	6	45	72	0
25650	41040	4	2	74	53	4
25679	41086	1	1	74	0	1
25679	41086	1	7	74	0	39
25680	41088	4	2	81	56	4
25680	41088	4	2	86	73	4
25681	41089	9	6	38	0	0
25681	41089	9	6	38	72	0
25681	41089	9	6	45	0	0
25681	41089	9	6	45	72	0
25740	41184	7	5	38	0	35
25740	41184	7	5	45	59	35
25741	41185	9	6	38	0	0
25741	41185	9	6	38	72	0
25741	41185	9	6	45	0	0
25741	41185	9	6	45	72	0
25770	41232	7	5	41	53	35
25770	41232	7	5	45	0	35
25799	41278	1	1	77	80	1
25799	41278	1	7	77	80	39
25800	41280	6	4	77	0	48
25800	41280	7	5	41	0	35
25800	41280	7	5	45	59	35
25859	41374	1	1	77	0	1
25859	41374	1	7	77	0	39
25860	41376	1	1	79	80	1
25860	41376	1	7	79	80	39
25890	41424	4	2	74	0	4
25890	41424	4	2	81	0	4
25890	41424	4	2	86	0	4
25890	41424	5	3	62	0	25
25890	41424	5	3	69	0	25
25890	41424	7	5	45	0	35
25919	41470	1	1	79	0	1
25919	41470	1	7	79	0	39
25920	41472	1	1	81	80	1
25920	41472	1	7	81	80	39
25920	41472	3	1	62	60	1
25920	41472	3	1	65	60	1
25920	41472	3	1	70	60	1
25920	41472	4	2	58	49	4
25920	41472	5	3	62	68	25
25920	41472	5	3	65	65	25
25920	41472	5	3	70	64	25
25920	41472	6	4	86	48	48
25920	41472	6	4	89	48	48
25920	41472	7	5	46	63	35
25921	41473	9	6	35	72	0
25921	41473	9	6	38	0	0
25921	41473	9	6	45	0	0
25921	41473	9	6	49	72	0
25950	41520	5	3	62	0	25
25950	41520	5	3	65	0	25
25950	41520	5	3	70	0	25
25979	41566	1	1	81	0	1
25979	41566	1	7	81	0	39
25980	41568	1	1	86	80	1
25980	41568	1	7	86	80	39
25980	41568	4	2	65	49	4
25980	41568	5	3	62	66	25
25980	41568	5	3	65	66	25
25980	41568	5	3	70	66	25
25981	41569	9	6	35	0	0
25981	41569	9	6	35	72	0
25981	41569	9	6	42	72	0
25981	41569	9	6	49	0	0
26008	41612	1	1	86	0	1
26008	41612	1	7	86	0	39
26010	41616	1	1	84	80	1
26010	41616	1	7	84	80	39
26010	41616	4	2	58	0	4
26010	41616	5	3	62	0	25
26010	41616	5	3	65	0	25
26010	41616	5	3	70	0	25
26040	41664	3	1	62	0	1
26040	41664	3	1	65	0	1
26040	41664	3	1	70	0	1
26040	41664	4	2	70	49	4
26040	41664	5	3	62	64	25
26040	41664	5	3	65	64	25
26040	41664	5	3	70	64	25
26041	41665	9	6	35	0	0
26041	41665	9	6	38	72	0
26041	41665	9	6	42	0	0
26041	41665	9	6	42	72	0
26070	41712	5	3	62	0	25
26070	41712	5	3	65	0	25
26070	41712	5	3	70	0	25
26070	41712	7	5	46	0	35
26099	41758	1	1	84	0	1
26099	41758	1	7	84	0	39
26100	41760	1	1	86	80	1
26100	41760	1	7	86	80	39
26100	41760	3	1	62	60	1
26100	41760	3	1	65	60	1
26100	41760	3	1	70	60	1
26100	41760	4	2	74	50	4
26100	41760	5	3	62	61	25
26100	41760	5	3	65	61	25
26100	41760	5	3	70	61	25
26100	41760	7	5	46	65	35
26101	41761	9	6	38	0	0
26101	41761	9	6	42	0	0
26101	41761	9	6	42	72	0
26129	41806	1	1	86	0	1
26129	41806	1	7	86	0	39
26130	41808	1	1	84	80	1
26130	41808	1	7	84	80	39
26130	41808	4	2	70	0	4
26130	41808	7	5	46	0	35
26160	41856	3	1	52	60	1
26160	41856	3	1	55	60	1
26160	41856	3	1	60	60	1
26160	41856	3	1	62	0	1
26160	41856	3	1	65	0	1
26160	41856	3	1	70	0	1
26160	41856	4	2	55	49	4
26160	41856	4	2	64	0	4
26160	41856	4	2	64	50	4
26160	41856	4	2	65	0	4
26160	41856	4	2	67	50	4
26160	41856	4	2	74	0	4
26160	41856	5	3	52	61	25
26160	41856	5	3	55	61	25
26160	41856	5	3	60	61	25
26160	41856	5	3	62	0	25
26160	41856	5	3	65	0	25
26160	41856	5	3	70	0	25
26160	41856	6	4	76	48	48
26160	41856	6	4	79	48	48
26160	41856	6	4	86	0	48
26160	41856	6	4	89	0	48
26160	41856	7	5	36	65	35
26161	41857	9	6	35	72	0
26161	41857	9	6	42	0	0
26161	41857	9	6	42	72	0
26190	41904	4	2	55	0	4
26190	41904	5	3	52	0	25
26190	41904	5	3	55	0	25
26190	41904	5	3	60	0	25
26191	41905	9	6	38	72	0
26191	41905	9	6	42	0	0
26219	41950	1	1	84	0	1
26219	41950	1	7	84	0	39
26220	41952	1	1	86	80	1
26220	41952	1	7	86	80	39
26220	41952	4	2	64	50	4
26220	41952	4	2	67	0	4
26220	41952	5	3	52	60	25
26220	41952	5	3	55	60	25
26220	41952	5	3	60	60	25
26221	41953	9	6	35	0	0
26221	41953	9	6	35	72	0
26221	41953	9	6	38	0	0
26221	41953	9	6	42	72	0
26249	41998	1	1	86	0	1
26249	41998	1	7	86	0	39
26250	42000	1	1	84	80	1
26250	42000	1	7	84	80	39
26250	42000	5	3	52	0	25
26250	42000	5	3	55	0	25
26250	42000	5	3	60	0	25
26280	42048	4	2	60	50	4
26280	42048	4	2	64	0	4
26280	42048	5	3	52	59	25
26280	42048	7	5	36	0	35
26281	42049	9	6	35	0	0
26281	42049	9	6	38	72	0
26281	42049	9	6	42	0	0
26281	42049	9	6	42	72	0
26310	42096	5	3	52	0	25
26310	42096	5	3	55	59	25
26339	42142	1	1	84	0	1
26339	42142	1	7	84	0	39
26340	42144	1	1	79	80	1
26340	42144	1	7	79	80	39
26340	42144	3	1	52	0	1
26340	42144	3	1	55	0	1
26340	42144	3	1	60	0	1
26340	42144	4	2	55	50	4
26340	42144	5	3	55	0	25
26340	42144	5	3	60	59	25
26340	42144	7	5	43	67	35
26341	42145	9	6	38	0	0
26341	42145	9	6	42	0	0
26341	42145	9	6	42	72	0
26369	42190	1	1	79	0	1
26369	42190	1	1	81	80	1
26369	42190	1	7	79	0	39
26369	42190	1	7	81	80	39
26370	42192	4	2	60	0	4
26370	42192	5	3	60	0	25
26370	42192	6	4	76	0	48
26397	42235	4	2	55	0	4
26400	42240	3	1	60	60	1
26400	42240	3	1	64	60	1
26400	42240	3	1	69	60	1
26400	42240	4	2	57	51	4
26400	42240	5	3	60	59	25
26400	42240	5	3	64	59	25
26400	42240	5	3	69	59	25
26400	42240	6	4	79	0	48
26400	42240	6	4	88	48	48
26400	42240	6	4	93	51	48
26400	42240	7	5	43	0	35
26400	42240	7	5	45	67	35
26400	42240	7	5	52	0	35
26400	42240	7	5	52	67	35
26401	42241	9	6	35	72	0
26401	42241	9	6	42	0	0
26401	42241	9	6	42	72	0
26430	42288	5	3	60	0	25
26430	42288	5	3	64	0	25
26430	42288	5	3	69	0	25
26459	42334	1	1	81	0	1
26459	42334	1	7	81	0	39
26460	42336	1	1	86	80	1
26460	42336	1	7	86	80	39
26460	42336	4	2	64	51	4
26460	42336	5	3	60	59	25
26460	42336	5	3	64	59	25
26460	42336	5	3	69	59	25
26461	42337	9	6	35	0	0
26461	42337	9	6	35	72	0
26461	42337	9	6	42	0	0
26461	42337	9	6	42	72	0
26489	42382	1	1	86	0	1
26489	42382	1	7	86	0	39
26490	42384	1	1	84	80	1
26490	42384	1	7	84	80	39
26490	42384	4	2	57	0	4
26490	42384	5	3	60	0	25
26490	42384	5	3	64	0	25
26490	42384	5	3	69	0	25
26520	42432	3	1	60	0	1
26520	42432	3	1	64	0	1
26520	42432	3	1	69	0	1
26520	42432	4	2	69	51	4
26520	42432	5	3	60	60	25
26520	42432	5	3	64	60	25
26520	42432	5	3	69	60	25
26521	42433	9	6	35	0	0
26521	42433	9	6	38	72	0
26521	42433	9	6	42	0	0
26521	42433	9	6	42	72	0
26550	42480	5	3	60	0	25
26550	42480	5	3	64	0	25
26550	42480	5	3	69	0	25
26550	42480	7	5	45	0	35
26578	42524	1	1	84	0	1
26578	42524	1	7	84	0	39
26580	42528	1	1	86	80	1
26580	42528	1	7	86	80	39
26580	42528	3	1	60	60	1
26580	42528	3	1	64	60	1
26580	42528	3	1	69	60	1
26580	42528	4	2	69	0	4
26580	42528	4	2	72	52	4
26580	42528	5	3	60	60	25
26580	42528	5	3	64	60	25
26580	42528	5	3	69	60	25
26580	42528	7	5	45	67	35
26581	42529	9	6	38	0	0
26581	42529	9	6	42	0	0
26581	42529	9	6	42	72	0
26609	42574	1	1	86	0	1
26609	42574	1	7	86	0	39
26610	42576	1	1	84	80	1
26610	42576	1	7	84	80	39
26610	42576	7	5	45	0	35
26611	42577	9	6	38	72	0
26611	42577	9	6	42	0	0
26640	42624	3	1	53	60	1
26640	42624	3	1	57	60	1
26640	42624	3	1	60	0	1
26640	42624	3	1	62	60	1
26640	42624	3	1	64	0	1
26640	42624	3	1	69	0	1
26640	42624	4	2	57	0	4
26640	42624	4	2	57	51	4
26640	42624	4	2	64	0	4
26640	42624	4	2	65	0	4
26640	42624	4	2	65	52	4
26640	42624	4	2	69	52	4
26640	42624	4	2	72	0	4
26640	42624	5	3	53	60	25
26640	42624	5	3	57	60	25
26640	42624	5	3	60	0	25
26640	42624	5	3	62	60	25
26640	42624	5	3	64	0	25
26640	42624	5	3	69	0	25
26640	42624	6	4	81	48	48
26640	42624	6	4	86	51	48
26640	42624	6	4	88	0	48
26640	42624	6	4	93	0	48
26640	42624	7	5	38	68	35
26641	42625	9	6	35	72	0
26641	42625	9	6	38	0	0
26641	42625	9	6	42	72	0
26671	42673	9	6	38	72	0
26671	42673	9	6	42	0	0
26698	42716	7	5	38	0	35
26699	42718	1	1	84	0	1
26699	42718	1	7	84	0	39
26700	42720	1	1	86	80	1
26700	42720	1	7	86	80	39
26700	42720	4	2	65	52	4
26700	42720	4	2	69	0	4
26700	42720	7	5	33	68	35
26701	42721	9	6	35	0	0
26701	42721	9	6	35	72	0
26701	42721	9	6	38	0	0
26701	42721	9	6	42	72	0
26729	42766	1	1	86	0	1
26729	42766	1	7	86	0	39
26730	42768	1	1	84	80	1
26730	42768	1	7	84	80	39
26730	42768	7	5	29	68	35
26730	42768	7	5	33	0	35
26760	42816	4	2	62	52	4
26760	42816	4	2	65	0	4
26760	42816	5	3	53	0	25
26760	42816	5	3	57	0	25
26760	42816	7	5	29	0	35
26760	42816	7	5	38	68	35
26761	42817	9	6	35	0	0
26761	42817	9	6	38	72	0
26761	42817	9	6	42	0	0
26761	42817	9	6	42	72	0
26790	42864	5	3	62	0	25
26819	42910	1	1	84	0	1
26819	42910	1	7	84	0	39
26820	42912	1	1	79	80	1
26820	42912	1	7	79	80	39
26820	42912	3	1	53	0	1
26820	42912	3	1	57	0	1
26820	42912	3	1	62	0	1
26820	42912	4	2	57	52	4
26821	42913	9	6	38	0	0
26821	42913	9	6	42	0	0
26821	42913	9	6	42	72	0
26849	42958	1	1	79	0	1
26849	42958	1	7	79	0	39
26850	42960	1	1	81	80	1
26850	42960	1	7	81	80	39
26850	42960	4	2	62	0	4
26856	42969	6	4	86	0	48
26877	43003	4	2	57	0	4
26877	43003	7	5	38	0	35
26879	43006	1	1	79	80	1
26879	43006	1	1	81	0	1
26879	43006	1	7	79	80	39
26879	43006	1	7	81	0	39
26880	43008	3	1	62	60	1
26880	43008	3	1	65	60	1
26880	43008	3	1	70	60	1
26880	43008	4	2	58	52	4
26880	43008	5	3	62	60	25
26880	43008	5	3	65	60	25
26880	43008	5	3	70	60	25
26880	43008	6	4	81	0	48
26880	43008	6	4	86	54	48
26880	43008	6	4	89	48	48
26880	43008	7	5	46	68	35
26881	43009	9	6	35	72	0
26881	43009	9	6	42	0	0
26881	43009	9	6	42	72	0
26910	43056	5	3	62	0	25
26910	43056	5	3	65	0	25
26910	43056	5	3	70	0	25
26939	43102	1	1	77	80	1
26939	43102	1	1	79	0	1
26939	43102	1	7	77	80	39
26939	43102	1	7	79	0	39
26940	43104	4	2	58	0	4
26940	43104	4	2	65	52	4
26940	43104	5	3	62	60	25
26940	43104	5	3	65	60	25
26940	43104	5	3	70	60	25
26941	43105	9	6	35	0	0
26941	43105	9	6	35	72	0
26941	43105	9	6	42	0	0
26941	43105	9	6	42	72	0
26969	43150	1	1	77	0	1
26969	43150	1	7	77	0	39
26970	43152	1	1	74	80	1
26970	43152	1	7	74	80	39
26970	43152	5	3	62	0	25
26970	43152	5	3	65	0	25
26970	43152	5	3	70	0	25
27000	43200	3	1	62	0	1
27000	43200	3	1	65	0	1
27000	43200	4	2	70	52	4
27000	43200	5	3	65	61	25
27000	43200	5	3	70	61	25
27001	43201	9	6	35	0	0
27001	43201	9	6	38	72	0
27001	43201	9	6	42	0	0
27001	43201	9	6	42	72	0
27030	43248	3	1	70	0	1
27030	43248	5	3	65	0	25
27030	43248	5	3	70	0	25
27030	43248	7	5	46	0	35
27059	43294	1	1	74	0	1
27059	43294	1	7	74	0	39
27060	43296	1	1	77	80	1
27060	43296	1	7	77	80	39
27060	43296	3	1	62	60	1
27060	43296	3	1	65	60	1
27060	43296	3	1	70	60	1
27060	43296	4	2	70	0	4
27060	43296	4	2	74	52	4
27060	43296	5	3	62	62	25
27060	43296	5	3	65	62	25
27060	43296	5	3	70	62	25
27060	43296	7	5	46	68	35
27061	43297	9	6	38	0	0
27061	43297	9	6	42	0	0
27061	43297	9	6	42	72	0
27088	43340	1	1	77	0	1
27088	43340	1	7	77	0	39
27090	43344	1	1	77	80	1
27090	43344	1	7	77	80	39
27090	43344	4	2	65	0	4
27090	43344	7	5	46	0	35
27091	43345	9	6	38	72	0
27091	43345	9	6	42	0	0
27119	43390	1	1	77	0	1
27119	43390	1	7	77	0	39
27120	43392	1	1	79	80	1
27120	43392	1	7	79	80	39
27120	43392	3	1	52	60	1
27120	43392	3	1	55	60	1
27120	43392	3	1	60	60	1
27120	43392	3	1	62	0	1
27120	43392	3	1	65	0	1
27120	43392	3	1	70	0	1
27120	43392	4	2	64	0	4
27120	43392	4	2	64	52	4
27120	43392	4	2	67	52	4
27120	43392	4	2	74	0	4
27120	43392	5	3	52	62	25
27120	43392	5	3	55	62	25
27120	43392	5	3	60	62	25
27120	43392	5	3	62	0	25
27120	43392	5	3	65	0	25
27120	43392	5	3	70	0	25
27120	43392	6	4	76	54	48
27120	43392	6	4	79	48	48
27120	43392	6	4	86	0	48
27120	43392	6	4	89	0	48
27120	43392	7	5	36	69	35
27121	43393	9	6	35	72	0
27121	43393	9	6	38	0	0
27121	43393	9	6	42	72	0
27148	43436	1	1	79	0	1
27148	43436	1	7	79	0	39
27150	43440	1	1	77	80	1
27150	43440	1	7	77	80	39
27150	43440	5	3	52	0	25
27150	43440	5	3	55	0	25
27150	43440	5	3	60	0	25
27151	43441	9	6	38	72	0
27151	43441	9	6	42	0	0
27179	43486	1	1	77	0	1
27179	43486	1	7	77	0	39
27180	43488	1	1	74	80	1
27180	43488	1	7	74	80	39
27180	43488	4	2	64	52	4
27180	43488	4	2	67	0	4
27180	43488	5	3	52	64	25
27180	43488	5	3	55	64	25
27180	43488	5	3	60	64	25
27181	43489	9	6	35	0	0
27181	43489	9	6	35	72	0
27181	43489	9	6	38	0	0
27181	43489	9	6	42	72	0
27210	43536	5	3	52	0	25
27210	43536	5	3	55	0	25
27210	43536	5	3	60	0	25
27240	43584	4	2	60	52	4
27240	43584	4	2	64	0	4
27240	43584	5	3	52	64	25
27240	43584	7	5	36	0	35
27241	43585	9	6	35	0	0
27241	43585	9	6	38	72	0
27241	43585	9	6	42	0	0
27241	43585	9	6	42	72	0
27269	43630	1	1	74	0	1
27269	43630	1	7	74	0	39
27270	43632	1	1	77	80	1
27270	43632	1	7	77	80	39
27270	43632	5	3	52	0	25
27270	43632	5	3	55	64	25
27300	43680	3	1	52	0	1
27300	43680	3	1	55	0	1
27300	43680	3	1	60	0	1
27300	43680	4	2	55	52	4
27300	43680	4	2	60	0	4
27300	43680	5	3	55	0	25
27300	43680	5	3	60	67	25
27300	43680	7	5	43	69	35
27301	43681	9	6	38	0	0
27301	43681	9	6	42	0	0
27301	43681	9	6	42	72	0
27330	43728	5	3	60	0	25
27336	43737	6	4	76	0	48
27357	43771	4	2	55	0	4
27357	43771	7	5	43	0	35
27359	43774	1	1	77	0	1
27359	43774	1	7	77	0	39
27360	43776	1	1	81	80	1
27360	43776	1	7	81	80	39
27360	43776	3	1	57	61	1
27360	43776	3	1	60	61	1
27360	43776	3	1	65	61	1
27360	43776	4	2	53	52	4
27360	43776	5	3	57	68	25
27360	43776	5	3	60	68	25
27360	43776	5	3	65	68	25
27360	43776	6	4	79	0	48
27360	43776	6	4	84	48	48
27360	43776	6	4	89	54	48
27360	43776	7	5	41	69	35
27361	43777	9	6	35	72	0
27361	43777	9	6	42	0	0
27361	43777	9	6	42	72	0
27390	43824	5	3	57	0	25
27390	43824	5	3	60	0	25
27390	43824	5	3	65	0	25
27420	43872	4	2	60	52	4
27420	43872	5	3	60	68	25
27420	43872	5	3	65	68	25
27421	43873	9	6	35	0	0
27421	43873	9	6	35	72	0
27421	43873	9	6	42	0	0
27421	43873	9	6	42	72	0
27450	43920	5	3	60	0	25
27450	43920	5	3	65	0	25
27480	43968	3	1	57	0	1
27480	43968	3	1	60	0	1
27480	43968	4	2	65	52	4
27480	43968	5	3	57	68	25
27480	43968	5	3	60	68	25
27480	43968	5	3	65	68	25
27480	43968	7	5	41	0	35
27481	43969	9	6	35	0	0
27481	43969	9	6	38	72	0
27481	43969	9	6	42	0	0
27481	43969	9	6	42	72	0
27509	44014	1	1	81	0	1
27509	44014	1	1	82	80	1
27509	44014	1	7	81	0	39
27509	44014	1	7	82	80	39
27510	44016	3	1	65	0	1
27510	44016	5	3	57	0	25
27510	44016	5	3	60	0	25
27510	44016	5	3	65	0	25
27539	44062	1	1	82	0	1
27539	44062	1	7	82	0	39
27540	44064	1	1	81	80	1
27540	44064	1	7	81	80	39
27540	44064	3	1	57	62	1
27540	44064	3	1	60	62	1
27540	44064	3	1	65	62	1
27540	44064	4	2	65	0	4
27540	44064	4	2	69	52	4
27540	44064	5	3	57	67	25
27540	44064	5	3	60	67	25
27540	44064	5	3	65	67	25
27540	44064	7	5	41	68	35
27541	44065	9	6	38	0	0
27541	44065	9	6	42	0	0
27541	44065	9	6	42	72	0
27569	44110	1	1	81	0	1
27569	44110	1	7	81	0	39
27570	44112	1	1	79	80	1
27570	44112	1	7	79	80	39
27570	44112	7	5	41	0	35
27571	44113	9	6	38	72	0
27571	44113	9	6	42	0	0
27599	44158	1	1	79	0	1
27599	44158	1	7	79	0	39
27600	44160	1	1	81	80	1
27600	44160	1	7	81	80	39
27600	44160	3	1	57	0	1
27600	44160	3	1	60	0	1
27600	44160	3	1	61	62	1
27600	44160	3	1	64	62	1
27600	44160	3	1	65	0	1
27600	44160	3	1	69	62	1
27600	44160	4	2	53	0	4
27600	44160	4	2	57	52	4
27600	44160	4	2	60	0	4
27600	44160	4	2	64	52	4
27600	44160	4	2	69	0	4
27600	44160	4	2	73	0	4
27600	44160	4	2	73	52	4
27600	44160	4	2	76	52	4
27600	44160	5	3	57	0	25
27600	44160	5	3	60	0	25
27600	44160	5	3	61	67	25
27600	44160	5	3	64	67	25
27600	44160	5	3	65	0	25
27600	44160	5	3	69	67	25
27600	44160	6	4	84	0	48
27600	44160	6	4	88	48	48
27600	44160	6	4	89	0	48
27600	44160	6	4	93	54	48
27600	44160	7	5	45	68	35
27601	44161	9	6	35	72	0
27601	44161	9	6	38	0	0
27601	44161	9	6	42	72	0
27629	44206	1	1	81	0	1
27629	44206	1	7	81	0	39
27630	44208	1	1	79	80	1
27630	44208	1	7	79	80	39
27630	44208	4	2	57	0	4
27631	44209	9	6	38	72	0
27631	44209	9	6	42	0	0
27660	44256	4	2	64	0	4
27660	44256	4	2	73	52	4
27660	44256	4	2	76	0	4
27661	44257	9	6	35	0	0
27661	44257	9	6	35	72	0
27661	44257	9	6	38	0	0
27661	44257	9	6	42	72	0
27687	44299	6	4	88	0	48
27718	44348	1	1	79	0	1
27718	44348	1	7	79	0	39
27720	44352	1	1	77	80	1
27720	44352	1	7	77	80	39
27720	44352	4	2	69	52	4
27720	44352	4	2	73	0	4
27720	44352	5	3	61	0	25
27721	44353	9	6	35	0	0
27721	44353	9	6	38	72	0
27721	44353	9	6	42	0	0
27721	44353	9	6	42	72	0
27750	44400	5	3	64	0	25
27750	44400	5	3	69	0	25
27750	44400	7	5	45	0	35
27779	44446	1	1	77	0	1
27779	44446	1	7	77	0	39
27780	44448	1	1	79	80	1
27780	44448	1	7	79	80	39
27780	44448	3	1	61	0	1
27780	44448	3	1	64	0	1
27780	44448	3	1	69	0	1
27780	44448	4	2	64	51	4
27780	44448	4	2	69	0	4
27780	44448	6	4	93	0	48
27781	44449	9	6	38	0	0
27781	44449	9	6	42	0	0
27781	44449	9	6	50	72	0
27810	44496	4	2	64	0	4
27811	44497	9	6	50	0	0
27811	44497	9	6	50	72	0
27839	44542	1	1	79	0	1
27839	44542	1	7	79	0	39
27840	44544	1	1	81	80	1
27840	44544	1	7	81	80	39
27840	44544	3	1	62	60	1
27840	44544	3	1	65	60	1
27840	44544	3	1	70	60	1
27840	44544	4	2	58	49	4
27840	44544	5	3	62	68	25
27840	44544	5	3	65	65	25
27840	44544	5	3	70	64	25
27840	44544	6	4	86	48	48
27840	44544	6	4	89	48	48
27840	44544	7	5	46	63	35
27841	44545	9	6	35	72	0
27841	44545	9	6	49	72	0
27841	44545	9	6	50	0	0
27870	44592	5	3	62	0	25
27870	44592	5	3	65	0	25
27870	44592	5	3	70	0	25
27899	44638	1	1	81	0	1
27899	44638	1	7	81	0	39
27900	44640	1	1	86	80	1
27900	44640	1	7	86	80	39
27900	44640	4	2	65	49	4
27900	44640	5	3	62	66	25
27900	44640	5	3	65	66	25
27900	44640	5	3	70	66	25
27901	44641	9	6	35	0	0
27901	44641	9	6	35	72	0
27901	44641	9	6	42	72	0
27901	44641	9	6	49	0	0
27929	44686	1	1	86	0	1
27929	44686	1	7	86	0	39
27930	44688	1	1	84	80	1
27930	44688	1	7	84	80	39
27930	44688	4	2	58	0	4
27930	44688	5	3	62	0	25
27930	44688	5	3	65	0	25
27930	44688	5	3	70	0	25
27960	44736	3	1	62	0	1
27960	44736	3	1	65	0	1
27960	44736	3	1	70	0	1
27960	44736	4	2	70	49	4
27960	44736	5	3	62	64	25
27960	44736	5	3	65	64	25
27960	44736	5	3	70	64	25
27961	44737	9	6	35	0	0
27961	44737	9	6	38	72	0
27961	44737	9	6	42	0	0
27961	44737	9	6	42	72	0
27990	44784	5	3	62	0	25
27990	44784	5	3	65	0	25
27990	44784	5	3	70	0	25
27990	44784	7	5	46	0	35
28019	44830	1	1	84	0	1
28019	44830	1	1	86	80	1
28019	44830	1	7	84	0	39
28019	44830	1	7	86	80	39
28020	44832	3	1	62	60	1
28020	44832	3	1	65	60	1
28020	44832	3	1	70	60	1
28020	44832	4	2	74	50	4
28020	44832	5	3	62	61	25
28020	44832	5	3	65	61	25
28020	44832	5	3	70	61	25
28020	44832	7	5	46	65	35
28021	44833	9	6	38	0	0
28021	44833	9	6	42	0	0
28021	44833	9	6	42	72	0
28049	44878	1	1	86	0	1
28049	44878	1	7	86	0	39
28050	44880	1	1	84	80	1
28050	44880	1	7	84	80	39
28050	44880	4	2	70	0	4
28050	44880	7	5	46	0	35
28080	44928	3	1	52	60	1
28080	44928	3	1	55	60	1
28080	44928	3	1	60	60	1
28080	44928	3	1	62	0	1
28080	44928	3	1	65	0	1
28080	44928	3	1	70	0	1
28080	44928	4	2	55	49	4
28080	44928	4	2	64	0	4
28080	44928	4	2	64	50	4
28080	44928	4	2	65	0	4
28080	44928	4	2	67	50	4
28080	44928	4	2	74	0	4
28080	44928	5	3	52	61	25
28080	44928	5	3	55	61	25
28080	44928	5	3	60	61	25
28080	44928	5	3	62	0	25
28080	44928	5	3	65	0	25
28080	44928	5	3	70	0	25
28080	44928	6	4	76	48	48
28080	44928	6	4	79	48	48
28080	44928	6	4	86	0	48
28080	44928	6	4	89	0	48
28080	44928	7	5	36	65	35
28081	44929	9	6	35	72	0
28081	44929	9	6	42	0	0
28081	44929	9	6	42	72	0
28110	44976	4	2	55	0	4
28110	44976	5	3	52	0	25
28110	44976	5	3	55	0	25
28110	44976	5	3	60	0	25
28111	44977	9	6	38	72	0
28111	44977	9	6	42	0	0
28139	45022	1	1	84	0	1
28139	45022	1	7	84	0	39
28140	45024	1	1	86	80	1
28140	45024	1	7	86	80	39
28140	45024	4	2	64	50	4
28140	45024	4	2	67	0	4
28140	45024	5	3	52	60	25
28140	45024	5	3	55	60	25
28140	45024	5	3	60	60	25
28141	45025	9	6	35	0	0
28141	45025	9	6	35	72	0
28141	45025	9	6	38	0	0
28141	45025	9	6	42	72	0
28169	45070	1	1	86	0	1
28169	45070	1	7	86	0	39
28170	45072	1	1	84	80	1
28170	45072	1	7	84	80	39
28170	45072	5	3	52	0	25
28170	45072	5	3	55	0	25
28170	45072	5	3	60	0	25
28200	45120	4	2	60	50	4
28200	45120	4	2	64	0	4
28200	45120	5	3	52	59	25
28200	45120	7	5	36	0	35
28201	45121	9	6	35	0	0
28201	45121	9	6	38	72	0
28201	45121	9	6	42	0	0
28201	45121	9	6	42	72	0
28230	45168	5	3	52	0	25
28230	45168	5	3	55	59	25
28259	45214	1	1	84	0	1
28259	45214	1	7	84	0	39
28260	45216	1	1	81	80	1
28260	45216	1	7	81	80	39
28260	45216	3	1	52	0	1
28260	45216	3	1	55	0	1
28260	45216	3	1	60	0	1
28260	45216	4	2	55	50	4
28260	45216	5	3	55	0	25
28260	45216	5	3	60	59	25
28260	45216	7	5	43	67	35
28261	45217	9	6	38	0	0
28261	45217	9	6	42	0	0
28261	45217	9	6	42	72	0
28290	45264	4	2	60	0	4
28290	45264	5	3	60	0	25
28290	45264	6	4	76	0	48
28317	45307	4	2	55	0	4
28319	45310	1	1	81	0	1
28319	45310	1	7	81	0	39
28320	45312	1	1	81	80	1
28320	45312	1	7	81	80	39
28320	45312	3	1	60	60	1
28320	45312	3	1	64	60	1
28320	45312	3	1	69	60	1
28320	45312	4	2	57	51	4
28320	45312	5	3	60	59	25
28320	45312	5	3	64	59	25
28320	45312	5	3	69	59	25
28320	45312	6	4	79	0	48
28320	45312	6	4	88	48	48
28320	45312	6	4	93	51	48
28320	45312	7	5	43	0	35
28320	45312	7	5	45	67	35
28320	45312	7	5	52	0	35
28320	45312	7	5	52	67	35
28321	45313	9	6	35	72	0
28321	45313	9	6	42	0	0
28321	45313	9	6	42	72	0
28350	45360	5	3	60	0	25
28350	45360	5	3	64	0	25
28350	45360	5	3	69	0	25
28379	45406	1	1	81	0	1
28379	45406	1	7	81	0	39
28380	45408	1	1	86	80	1
28380	45408	1	7	86	80	39
28380	45408	4	2	64	51	4
28380	45408	5	3	60	59	25
28380	45408	5	3	64	59	25
28380	45408	5	3	69	59	25
28381	45409	9	6	35	0	0
28381	45409	9	6	35	72	0
28381	45409	9	6	42	0	0
28381	45409	9	6	42	72	0
28409	45454	1	1	86	0	1
28409	45454	1	7	86	0	39
28410	45456	1	1	84	80	1
28410	45456	1	7	84	80	39
28410	45456	4	2	57	0	4
28410	45456	5	3	60	0	25
28410	45456	5	3	64	0	25
28410	45456	5	3	69	0	25
28440	45504	3	1	60	0	1
28440	45504	3	1	64	0	1
28440	45504	3	1	69	0	1
28440	45504	4	2	69	51	4
28440	45504	5	3	60	60	25
28440	45504	5	3	64	60	25
28440	45504	5	3	69	60	25
28441	45505	9	6	35	0	0
28441	45505	9	6	38	72	0
28441	45505	9	6	42	0	0
28441	45505	9	6	42	72	0
28470	45552	5	3	60	0	25
28470	45552	5	3	64	0	25
28470	45552	5	3	69	0	25
28470	45552	7	5	45	0	35
28499	45598	1	1	84	0	1
28499	45598	1	7	84	0	39
28500	45600	1	1	86	80	1
28500	45600	1	7	86	80	39
28500	45600	3	1	60	60	1
28500	45600	3	1	64	60	1
28500	45600	3	1	69	60	1
28500	45600	4	2	69	0	4
28500	45600	4	2	72	52	4
28500	45600	5	3	60	60	25
28500	45600	5	3	64	60	25
28500	45600	5	3	69	60	25
28500	45600	7	5	45	67	35
28501	45601	9	6	38	0	0
28501	45601	9	6	42	0	0
28501	45601	9	6	42	72	0
28529	45646	1	1	86	0	1
28529	45646	1	7	86	0	39
28530	45648	1	1	84	80	1
28530	45648	1	7	84	80	39
28530	45648	7	5	45	0	35
28531	45649	9	6	38	72	0
28531	45649	9	6	42	0	0
28560	45696	3	1	53	60	1
28560	45696	3	1	57	60	1
28560	45696	3	1	60	0	1
28560	45696	3	1	62	60	1
28560	45696	3	1	64	0	1
28560	45696	3	1	69	0	1
28560	45696	4	2	57	0	4
28560	45696	4	2	57	51	4
28560	45696	4	2	64	0	4
28560	45696	4	2	65	0	4
28560	45696	4	2	65	52	4
28560	45696	4	2	69	52	4
28560	45696	4	2	72	0	4
28560	45696	5	3	53	60	25
28560	45696	5	3	57	60	25
28560	45696	5	3	60	0	25
28560	45696	5	3	62	60	25
28560	45696	5	3	64	0	25
28560	45696	5	3	69	0	25
28560	45696	6	4	81	48	48
28560	45696	6	4	86	51	48
28560	45696	6	4	88	0	48
28560	45696	6	4	93	0	48
28560	45696	7	5	38	68	35
28561	45697	9	6	35	72	0
28561	45697	9	6	38	0	0
28561	45697	9	6	42	72	0
28591	45745	9	6	38	72	0
28591	45745	9	6	42	0	0
28618	45788	7	5	38	0	35
28619	45790	1	1	84	0	1
28619	45790	1	7	84	0	39
28620	45792	1	1	86	80	1
28620	45792	1	7	86	80	39
28620	45792	4	2	65	52	4
28620	45792	4	2	69	0	4
28620	45792	7	5	33	68	35
28621	45793	9	6	35	0	0
28621	45793	9	6	35	72	0
28621	45793	9	6	38	0	0
28621	45793	9	6	42	72	0
28649	45838	1	1	84	80	1
28649	45838	1	1	86	0	1
28649	45838	1	7	84	80	39
28649	45838	1	7	86	0	39
28650	45840	7	5	29	68	35
28650	45840	7	5	33	0	35
28680	45888	4	2	62	52	4
28680	45888	4	2	65	0	4
28680	45888	5	3	53	0	25
28680	45888	5	3	57	0	25
28680	45888	7	5	29	0	35
28680	45888	7	5	38	68	35
28681	45889	9	6	35	0	0
28681	45889	9	6	38	72	0
28681	45889	9	6	42	0	0
28681	45889	9	6	42	72	0
28709	45934	1	1	81	80	1
28709	45934	1	1	84	0	1
28709	45934	1	7	81	80	39
28709	45934	1	7	84	0	39
28710	45936	5	3	62	0	25
28740	45984	3	1	53	0	1
28740	45984	3	1	57	0	1
28740	45984	3	1	62	0	1
28740	45984	4	2	57	52	4
28741	45985	9	6	38	0	0
28741	45985	9	6	42	0	0
28741	45985	9	6	42	72	0
28770	46032	4	2	62	0	4
28776	46041	6	4	86	0	48
28797	46075	4	2	57	0	4
28797	46075	7	5	38	0	35
28798	46076	1	1	81	0	1
28798	46076	1	7	81	0	39
28800	46080	1	1	79	80	1
28800	46080	1	7	79	80	39
28800	46080	3	1	62	60	1
28800	46080	3	1	65	60	1
28800	46080	3	1	70	60	1
28800	46080	4	2	58	52	4
28800	46080	5	3	62	60	25
28800	46080	5	3	65	60	25
28800	46080	5	3	70	60	25
28800	46080	6	4	81	0	48
28800	46080	6	4	86	54	48
28800	46080	6	4	89	48	48
28800	46080	7	5	46	68	35
28801	46081	9	6	35	72	0
28801	46081	9	6	42	0	0
28801	46081	9	6	49	72	0
28830	46128	5	3	62	0	25
28830	46128	5	3	65	0	25
28830	46128	5	3	70	0	25
28858	46172	1	1	79	0	1
28858	46172	1	7	79	0	39
28860	46176	1	1	77	80	1
28860	46176	1	7	77	80	39
28860	46176	4	2	58	0	4
28860	46176	4	2	65	52	4
28860	46176	5	3	62	60	25
28860	46176	5	3	65	60	25
28860	46176	5	3	70	60	25
28861	46177	9	6	35	0	0
28861	46177	9	6	35	72	0
28861	46177	9	6	42	72	0
28861	46177	9	6	49	0	0
28889	46222	1	1	77	0	1
28889	46222	1	7	77	0	39
28890	46224	1	1	74	80	1
28890	46224	1	7	74	80	39
28890	46224	5	3	62	0	25
28890	46224	5	3	65	0	25
28890	46224	5	3	70	0	25
28920	46272	3	1	62	0	1
28920	46272	3	1	65	0	1
28920	46272	4	2	70	52	4
28920	46272	5	3	65	61	25
28920	46272	5	3	70	61	25
28921	46273	9	6	35	0	0
28921	46273	9	6	38	72	0
28921	46273	9	6	42	0	0
28921	46273	9	6	42	72	0
28949	46318	1	1	74	0	1
28949	46318	1	7	74	0	39
28950	46320	1	1	81	80	1
28950	46320	1	7	81	80	39
28950	46320	3	1	70	0	1
28950	46320	5	3	65	0	25
28950	46320	5	3	70	0	25
28950	46320	7	5	46	0	35
28980	46368	3	1	62	60	1
28980	46368	3	1	65	60	1
28980	46368	3	1	70	60	1
28980	46368	4	2	70	0	4
28980	46368	4	2	74	52	4
28980	46368	5	3	62	62	25
28980	46368	5	3	65	62	25
28980	46368	5	3	70	62	25
28980	46368	7	5	46	68	35
28981	46369	9	6	38	0	0
28981	46369	9	6	42	0	0
28981	46369	9	6	42	72	0
29010	46416	4	2	65	0	4
29010	46416	7	5	46	0	35
29011	46417	9	6	38	72	0
29011	46417	9	6	42	0	0
29039	46462	1	1	81	0	1
29039	46462	1	7	81	0	39
29040	46464	1	1	79	80	1
29040	46464	1	7	79	80	39
29040	46464	3	1	52	60	1
29040	46464	3	1	55	60	1
29040	46464	3	1	60	60	1
29040	46464	3	1	62	0	1
29040	46464	3	1	65	0	1
29040	46464	3	1	70	0	1
29040	46464	4	2	64	0	4
29040	46464	4	2	64	52	4
29040	46464	4	2	67	52	4
29040	46464	4	2	74	0	4
29040	46464	5	3	52	62	25
29040	46464	5	3	55	62	25
29040	46464	5	3	60	62	25
29040	46464	5	3	62	0	25
29040	46464	5	3	65	0	25
29040	46464	5	3	70	0	25
29040	46464	6	4	76	54	48
29040	46464	6	4	79	48	48
29040	46464	6	4	86	0	48
29040	46464	6	4	89	0	48
29040	46464	7	5	36	69	35
29041	46465	9	6	35	72	0
29041	46465	9	6	38	0	0
29041	46465	9	6	42	72	0
29069	46510	1	1	79	0	1
29069	46510	1	7	79	0	39
29070	46512	1	1	77	80	1
29070	46512	1	7	77	80	39
29070	46512	5	3	52	0	25
29070	46512	5	3	55	0	25
29070	46512	5	3	60	0	25
29071	46513	9	6	38	72	0
29071	46513	9	6	42	0	0
29099	46558	1	1	77	0	1
29099	46558	1	7	77	0	39
29100	46560	1	1	74	80	1
29100	46560	1	7	74	80	39
29100	46560	4	2	64	52	4
29100	46560	4	2	67	0	4
29100	46560	5	3	52	64	25
29100	46560	5	3	55	64	25
29100	46560	5	3	60	64	25
29101	46561	9	6	35	0	0
29101	46561	9	6	35	72	0
29101	46561	9	6	38	0	0
29101	46561	9	6	42	72	0
29130	46608	5	3	52	0	25
29130	46608	5	3	55	0	25
29130	46608	5	3	60	0	25
29160	46656	4	2	60	52	4
29160	46656	4	2	64	0	4
29160	46656	5	3	52	64	25
29160	46656	7	5	36	0	35
29161	46657	9	6	35	0	0
29161	46657	9	6	38	72	0
29161	46657	9	6	42	0	0
29161	46657	9	6	42	72	0
29189	46702	1	1	74	0	1
29189	46702	1	7	74	0	39
29190	46704	1	1	77	80	1
29190	46704	1	7	77	80	39
29190	46704	5	3	52	0	25
29190	46704	5	3	55	64	25
29220	46752	3	1	52	0	1
29220	46752	3	1	55	0	1
29220	46752	3	1	60	0	1
29220	46752	4	2	55	52	4
29220	46752	4	2	60	0	4
29220	46752	5	3	55	0	25
29220	46752	5	3	60	67	25
29220	46752	7	5	43	69	35
29221	46753	9	6	38	0	0
29221	46753	9	6	42	0	0
29221	46753	9	6	42	72	0
29250	46800	5	3	60	0	25
29256	46809	6	4	76	0	48
29277	46843	4	2	55	0	4
29277	46843	7	5	43	0	35
29279	46846	1	1	77	0	1
29279	46846	1	1	77	80	1
29279	46846	1	7	77	0	39
29279	46846	1	7	77	80	39
29279	46846	6	4	79	0	48
29280	46848	3	1	57	66	1
29280	46848	3	1	62	66	1
29280	46848	3	1	65	66	1
29280	46848	4	2	50	50	4
29280	46848	4	2	62	50	4
29280	46848	7	5	38	68	35
29281	46849	9	6	35	72	0
29281	46849	9	6	42	0	0
29281	46849	9	6	42	72	0
29310	46896	7	5	38	0	35
29340	46944	7	5	38	68	35
29341	46945	9	6	35	0	0
29341	46945	9	6	35	72	0
29341	46945	9	6	42	0	0
29341	46945	9	6	42	72	0
29370	46992	7	5	38	0	35
29371	46993	9	6	35	0	0
29371	46993	9	6	35	72	0
29400	47040	7	5	38	68	35
29401	47041	9	6	35	0	0
29401	47041	9	6	38	72	0
29401	47041	9	6	42	0	0
29401	47041	9	6	42	72	0
29430	47088	7	5	38	0	35
29451	47121	3	1	57	0	1
29451	47121	3	1	62	0	1
29451	47121	3	1	65	0	1
29451	47121	4	2	50	0	4
29451	47121	4	2	62	0	4
29460	47136	3	1	57	67	1
29460	47136	3	1	62	67	1
29460	47136	3	1	65	67	1
29460	47136	4	2	50	55	4
29460	47136	4	2	57	55	4
29460	47136	4	2	62	55	4
29460	47136	7	5	38	68	35
29461	47137	9	6	38	0	0
29461	47137	9	6	42	0	0
29461	47137	9	6	42	72	0
29491	47185	9	6	38	72	0
29491	47185	9	6	42	0	0
29519	47230	1	1	77	0	1
29519	47230	1	7	77	0	39
29520	47232	3	1	57	67	1
29521	47233	9	6	35	72	0
29521	47233	9	6	38	0	0
29521	47233	9	6	42	72	0
29551	47281	9	6	38	72	0
29551	47281	9	6	42	0	0
29581	47329	9	6	35	0	0
29581	47329	9	6	35	72	0
29581	47329	9	6	38	0	0
29581	47329	9	6	42	72	0
29631	47409	3	1	57	0	1
29640	47424	1	1	77	80	1
29640	47424	1	7	77	80	39
29640	47424	3	1	62	68	1
29641	47425	9	6	35	0	0
29641	47425	9	6	38	72	0
29641	47425	9	6	42	0	0
29699	47518	1	1	77	0	1
29699	47518	1	7	77	0	39
29700	47520	1	1	79	80	1
29700	47520	1	7	79	80	39
29700	47520	7	5	38	0	35
29701	47521	9	6	38	0	0
29701	47521	9	6	38	72	0
29716	47545	9	6	38	0	0
29716	47545	9	6	38	72	0
29731	47569	9	6	38	0	0
29731	47569	9	6	38	72	0
29745	47592	3	1	62	0	1
29745	47592	3	1	65	0	1
29745	47592	4	2	50	0	4
29745	47592	4	2	57	0	4
29745	47592	4	2	62	0	4
29746	47593	9	6	38	0	0
29748	47596	3	1	57	0	1
29749	47598	7	5	52	0	35
29754	47606	3	1	62	0	1
29759	47614	1	1	79	0	1
29759	47614	1	7	79	0	39
29760	47616	1	1	81	80	1
29760	47616	1	7	81	80	39
29760	47616	4	2	58	56	4
29761	47617	9	6	35	72	0
29761	47617	9	6	49	72	0
29789	47662	9	6	35	0	0
29789	47662	9	6	49	0	0
29819	47710	1	1	81	0	1
29819	47710	1	7	81	0	39
29820	47712	1	1	86	80	1
29820	47712	1	7	86	80	39
29820	47712	4	2	65	53	4
29820	47712	6	4	62	51	48
29849	47758	1	1	84	80	1
29849	47758	1	1	86	0	1
29849	47758	1	7	84	80	39
29849	47758	1	7	86	0	39
29880	47808	4	2	70	53	4
29880	47808	6	4	65	51	48
29932	47891	4	2	58	0	4
29935	47896	6	4	62	0	48
29938	47900	1	1	84	0	1
29938	47900	1	7	84	0	39
29940	47904	1	1	86	80	1
29940	47904	1	7	86	80	39
29940	47904	4	2	74	56	4
29940	47904	6	4	70	56	48
29969	47950	1	1	86	0	1
29969	47950	1	7	86	0	39
29970	47952	1	1	84	80	1
29970	47952	1	7	84	80	39
29995	47992	6	4	65	0	48
29997	47995	4	2	74	0	4
30000	48000	4	2	55	53	4
30000	48000	4	2	60	53	4
30000	48000	4	2	65	0	4
30000	48000	4	2	67	56	4
30000	48000	4	2	70	0	4
30000	48000	6	4	60	56	48
30000	48000	6	4	64	51	48
30000	48000	6	4	70	0	48
30055	48088	6	4	60	0	48
30057	48091	4	2	67	0	4
30058	48092	1	1	84	0	1
30058	48092	1	7	84	0	39
30060	48096	1	1	86	80	1
30060	48096	1	7	86	80	39
30060	48096	4	2	64	39	4
30089	48142	1	1	86	0	1
30089	48142	1	7	86	0	39
30090	48144	1	1	84	80	1
30090	48144	1	7	84	80	39
30090	48144	5	3	55	53	25
30115	48184	6	4	64	0	48
30117	48187	4	2	64	0	4
30120	48192	4	2	67	56	4
30120	48192	5	3	60	62	25
30120	48192	5	3	64	68	25
30176	48281	5	3	55	0	25
30177	48283	4	2	67	0	4
30177	48283	5	3	60	0	25
30177	48283	5	3	64	0	25
30179	48286	1	1	84	0	1
30179	48286	1	7	84	0	39
30180	48288	1	1	79	80	1
30180	48288	1	7	79	80	39
30180	48288	4	2	64	45	4
30209	48334	1	1	79	0	1
30209	48334	1	7	79	0	39
30210	48336	1	1	81	80	1
30210	48336	1	7	81	80	39
30223	48356	4	2	55	0	4
30225	48360	4	2	60	0	4
30237	48379	4	2	64	0	4
30240	48384	4	2	57	56	4
30299	48478	1	1	81	0	1
30299	48478	1	1	86	80	1
30299	48478	1	7	81	0	39
30299	48478	1	7	86	80	39
30300	48480	4	2	64	53	4
30300	48480	6	4	60	51	48
30329	48526	1	1	86	0	1
30329	48526	1	7	86	0	39
30330	48528	1	1	84	80	1
30330	48528	1	7	84	80	39
30360	48576	4	2	69	53	4
30360	48576	6	4	64	53	48
30412	48659	4	2	57	0	4
30415	48664	6	4	60	0	48
30419	48670	1	1	84	0	1
30419	48670	1	1	86	80	1
30419	48670	1	7	84	0	39
30419	48670	1	7	86	80	39
30420	48672	4	2	72	56	4
30420	48672	6	4	69	51	48
30449	48718	1	1	86	0	1
30449	48718	1	7	86	0	39
30450	48720	1	1	84	80	1
30450	48720	1	7	84	80	39
30475	48760	6	4	64	0	48
30477	48763	4	2	72	0	4
30480	48768	4	2	57	53	4
30480	48768	4	2	62	53	4
30480	48768	4	2	64	0	4
30480	48768	4	2	69	0	4
30480	48768	4	2	69	56	4
30480	48768	6	4	62	51	48
30480	48768	6	4	69	0	48
30535	48856	6	4	62	0	48
30537	48859	4	2	69	0	4
30539	48862	1	1	84	0	1
30539	48862	1	7	84	0	39
30540	48864	1	1	86	80	1
30540	48864	1	7	86	80	39
30540	48864	4	2	65	39	4
30568	48908	1	1	86	0	1
30568	48908	1	7	86	0	39
30570	48912	1	1	84	80	1
30570	48912	1	7	84	80	39
30570	48912	5	3	57	53	25
30570	48912	6	4	57	45	48
30597	48955	4	2	65	0	4
30600	48960	4	2	69	56	4
30600	48960	5	3	62	62	25
30600	48960	5	3	65	68	25
30600	48960	6	4	62	59	48
30656	49049	5	3	57	0	25
30656	49049	6	4	57	0	48
30657	49051	4	2	69	0	4
30657	49051	5	3	62	0	25
30657	49051	5	3	65	0	25
30657	49051	6	4	62	0	48
30659	49054	1	1	84	0	1
30659	49054	1	7	84	0	39
30660	49056	1	1	79	80	1
30660	49056	1	7	79	80	39
30660	49056	4	2	65	45	4
30689	49102	1	1	79	0	1
30689	49102	1	7	79	0	39
30690	49104	1	1	81	80	1
30690	49104	1	7	81	80	39
30703	49124	4	2	57	0	4
30705	49128	4	2	62	0	4
30717	49147	4	2	65	0	4
30719	49150	1	1	81	0	1
30719	49150	1	7	81	0	39
30720	49152	1	1	79	80	1
30720	49152	1	7	79	80	39
30720	49152	4	2	58	56	4
30779	49246	1	1	79	0	1
30779	49246	1	7	79	0	39
30780	49248	1	1	77	80	1
30780	49248	1	7	77	80	39
30780	49248	4	2	65	53	4
30780	49248	6	4	62	48	48
30809	49294	1	1	77	0	1
30809	49294	1	7	77	0	39
30810	49296	1	1	74	80	1
30810	49296	1	7	74	80	39
30840	49344	4	2	70	53	4
30840	49344	6	4	65	53	48
30892	49427	4	2	58	0	4
30895	49432	6	4	62	0	48
30899	49438	1	1	74	0	1
30899	49438	1	7	74	0	39
30900	49440	1	1	77	80	1
30900	49440	1	7	77	80	39
30900	49440	4	2	74	56	4
30900	49440	6	4	70	53	48
30929	49486	1	1	77	0	1
30929	49486	1	1	77	80	1
30929	49486	1	7	77	0	39
30929	49486	1	7	77	80	39
30955	49528	6	4	65	0	48
30957	49531	4	2	74	0	4
30959	49534	1	1	77	0	1
30959	49534	1	7	77	0	39
30960	49536	1	1	79	80	1
30960	49536	1	7	79	80	39
30960	49536	4	2	55	53	4
30960	49536	4	2	60	53	4
30960	49536	4	2	65	0	4
30960	49536	4	2	67	56	4
30960	49536	4	2	70	0	4
30960	49536	6	4	60	53	48
30960	49536	6	4	64	48	48
30960	49536	6	4	70	0	48
30989	49582	1	1	77	80	1
30989	49582	1	1	79	0	1
30989	49582	1	7	77	80	39
30989	49582	1	7	79	0	39
31015	49624	6	4	60	0	48
31017	49627	4	2	67	0	4
31019	49630	1	1	77	0	1
31019	49630	1	7	77	0	39
31020	49632	1	1	74	80	1
31020	49632	1	7	74	80	39
31020	49632	4	2	64	39	4
31050	49680	5	3	55	53	25
31075	49720	6	4	64	0	48
31077	49723	4	2	64	0	4
31080	49728	4	2	67	56	4
31080	49728	5	3	60	62	25
31080	49728	5	3	64	68	25
31109	49774	1	1	74	0	1
31109	49774	1	7	74	0	39
31110	49776	1	1	77	80	1
31110	49776	1	7	77	80	39
31136	49817	5	3	55	0	25
31137	49819	4	2	67	0	4
31137	49819	5	3	60	0	25
31137	49819	5	3	64	0	25
31140	49824	4	2	64	45	4
31183	49892	4	2	55	0	4
31185	49896	4	2	60	0	4
31197	49915	4	2	64	0	4
31198	49916	1	1	77	0	1
31198	49916	1	7	77	0	39
31200	49920	1	1	81	80	1
31200	49920	1	7	81	80	39
31200	49920	4	2	53	56	4
31260	50016	4	2	60	53	4
31260	50016	6	4	57	48	48
31320	50112	4	2	65	53	4
31320	50112	6	4	60	45	48
31349	50158	1	1	81	0	1
31349	50158	1	7	81	0	39
31350	50160	1	1	82	80	1
31350	50160	1	7	82	80	39
31372	50195	4	2	53	0	4
31375	50200	6	4	57	0	48
31379	50206	1	1	82	0	1
31379	50206	1	7	82	0	39
31380	50208	1	1	81	80	1
31380	50208	1	7	81	80	39
31380	50208	4	2	69	56	4
31380	50208	6	4	65	62	48
31409	50254	1	1	81	0	1
31409	50254	1	7	81	0	39
31410	50256	1	1	79	80	1
31410	50256	1	7	79	80	39
31435	50296	6	4	60	0	48
31437	50299	4	2	69	0	4
31439	50302	1	1	79	0	1
31439	50302	1	1	81	80	1
31439	50302	1	7	79	0	39
31439	50302	1	7	81	80	39
31440	50304	4	2	60	0	4
31440	50304	4	2	64	53	4
31440	50304	4	2	65	0	4
31440	50304	4	2	69	53	4
31440	50304	4	2	76	56	4
31440	50304	6	4	65	0	48
31440	50304	6	4	69	62	48
31440	50304	6	4	73	53	48
31469	50350	1	1	81	0	1
31469	50350	1	7	81	0	39
31470	50352	1	1	79	80	1
31470	50352	1	7	79	80	39
31495	50392	6	4	69	0	48
31497	50395	4	2	76	0	4
31500	50400	4	2	73	39	4
31530	50448	5	3	64	53	25
31555	50488	6	4	73	0	48
31557	50491	4	2	73	0	4
31559	50494	1	1	77	80	1
31559	50494	1	1	79	0	1
31559	50494	1	7	77	80	39
31559	50494	1	7	79	0	39
31560	50496	4	2	76	56	4
31560	50496	5	3	69	62	25
31560	50496	5	3	73	68	25
31616	50585	5	3	64	0	25
31617	50587	4	2	76	0	4
31617	50587	5	3	69	0	25
31617	50587	5	3	73	0	25
31619	50590	1	1	77	0	1
31619	50590	1	7	77	0	39
31620	50592	1	1	79	80	1
31620	50592	1	7	79	80	39
31620	50592	4	2	73	45	4
31663	50660	4	2	64	0	4
31665	50664	4	2	69	0	4
31677	50683	4	2	73	0	4
31679	50686	1	1	79	0	1
31679	50686	1	7	79	0	39
31680	50688	1	1	81	80	1
31680	50688	1	7	81	80	39
31680	50688	4	2	58	56	4
31680	50688	6	4	58	36	48
31680	50688	6	4	70	34	48
31680	50688	6	4	74	48	48
31739	50782	1	1	81	0	1
31739	50782	1	7	81	0	39
31740	50784	1	1	86	80	1
31740	50784	1	7	86	80	39
31740	50784	4	2	65	53	4
31768	50828	1	1	86	0	1
31768	50828	1	7	86	0	39
31770	50832	1	1	84	80	1
31770	50832	1	7	84	80	39
31800	50880	4	2	70	53	4
31852	50963	4	2	58	0	4
31859	50974	1	1	84	0	1
31859	50974	1	7	84	0	39
31860	50976	1	1	86	80	1
31860	50976	1	7	86	80	39
31860	50976	4	2	74	56	4
31889	51022	1	1	86	0	1
31889	51022	1	7	86	0	39
31890	51024	1	1	84	80	1
31890	51024	1	7	84	80	39
31917	51067	4	2	74	0	4
31919	51070	1	1	84	0	1
31919	51070	1	7	84	0	39
31920	51072	1	1	84	80	1
31920	51072	1	7	84	80	39
31920	51072	4	2	55	53	4
31920	51072	4	2	60	53	4
31920	51072	4	2	65	0	4
31920	51072	4	2	67	56	4
31920	51072	4	2	70	0	4
31920	51072	6	4	48	36	48
31920	51072	6	4	58	0	48
31920	51072	6	4	60	34	48
31920	51072	6	4	64	48	48
31920	51072	6	4	70	0	48
31920	51072	6	4	74	0	48
31977	51163	4	2	67	0	4
31979	51166	1	1	84	0	1
31979	51166	1	7	84	0	39
31980	51168	1	1	86	80	1
31980	51168	1	7	86	80	39
31980	51168	4	2	64	39	4
32009	51214	1	1	86	0	1
32009	51214	1	7	86	0	39
32010	51216	1	1	84	80	1
32010	51216	1	7	84	80	39
32010	51216	5	3	55	53	25
32037	51259	4	2	64	0	4
32040	51264	4	2	72	56	4
32040	51264	5	3	60	62	25
32040	51264	5	3	64	68	25
32096	51353	5	3	55	0	25
32097	51355	4	2	72	0	4
32097	51355	5	3	60	0	25
32097	51355	5	3	64	0	25
32099	51358	1	1	84	0	1
32099	51358	1	7	84	0	39
32100	51360	1	1	81	80	1
32100	51360	1	7	81	80	39
32100	51360	4	2	67	45	4
32141	51425	6	4	48	0	48
32143	51428	4	2	55	0	4
32145	51432	4	2	60	0	4
32157	51451	4	2	67	0	4
32159	51454	1	1	81	0	1
32159	51454	1	7	81	0	39
32160	51456	1	1	81	80	1
32160	51456	1	7	81	80	39
32160	51456	4	2	57	56	4
32160	51456	6	4	60	0	48
32160	51456	6	4	64	0	48
32160	51456	6	4	69	34	48
32160	51456	6	4	72	48	48
32160	51456	6	4	76	45	48
32219	51550	1	1	81	0	1
32219	51550	1	7	81	0	39
32220	51552	1	1	86	80	1
32220	51552	1	7	86	80	39
32220	51552	4	2	64	53	4
32249	51598	1	1	86	0	1
32249	51598	1	7	86	0	39
32250	51600	1	1	84	80	1
32250	51600	1	7	84	80	39
32280	51648	4	2	69	53	4
32332	51731	4	2	57	0	4
32338	51740	1	1	84	0	1
32338	51740	1	7	84	0	39
32340	51744	1	1	86	80	1
32340	51744	1	7	86	80	39
32340	51744	4	2	72	56	4
32369	51790	1	1	86	0	1
32369	51790	1	7	86	0	39
32370	51792	1	1	84	80	1
32370	51792	1	7	84	80	39
32397	51835	4	2	72	0	4
32400	51840	4	2	57	53	4
32400	51840	4	2	62	53	4
32400	51840	4	2	64	0	4
32400	51840	4	2	69	0	4
32400	51840	4	2	69	56	4
32400	51840	6	4	62	34	48
32400	51840	6	4	65	48	48
32400	51840	6	4	69	0	48
32400	51840	6	4	69	45	48
32400	51840	6	4	72	0	48
32400	51840	6	4	76	0	48
32457	51931	4	2	69	0	4
32459	51934	1	1	84	0	1
32459	51934	1	7	84	0	39
32460	51936	1	1	86	80	1
32460	51936	1	7	86	80	39
32460	51936	4	2	65	39	4
32489	51982	1	1	86	0	1
32489	51982	1	7	86	0	39
32490	51984	1	1	84	80	1
32490	51984	1	7	84	80	39
32490	51984	5	3	57	53	25
32517	52027	4	2	65	0	4
32520	52032	4	2	69	56	4
32520	52032	5	3	62	62	25
32520	52032	5	3	65	68	25
32549	52078	1	1	84	0	1
32549	52078	1	7	84	0	39
32550	52080	1	1	81	80	1
32550	52080	1	7	81	80	39
32576	52121	5	3	57	0	25
32577	52123	4	2	69	0	4
32577	52123	5	3	62	0	25
32577	52123	5	3	65	0	25
32580	52128	4	2	65	45	4
32601	52161	6	4	62	0	48
32601	52161	6	4	65	0	48
32621	52193	6	4	69	0	48
32623	52196	4	2	57	0	4
32625	52200	4	2	62	0	4
32637	52219	4	2	65	0	4
32639	52222	1	1	79	80	1
32639	52222	1	1	81	0	1
32639	52222	1	7	79	80	39
32639	52222	1	7	81	0	39
32640	52224	4	2	58	56	4
32640	52224	6	4	58	41	48
32640	52224	6	4	70	36	48
32640	52224	6	4	74	46	48
32699	52318	1	1	77	80	1
32699	52318	1	1	79	0	1
32699	52318	1	7	77	80	39
32699	52318	1	7	79	0	39
32700	52320	4	2	65	53	4
32729	52366	1	1	77	0	1
32729	52366	1	7	77	0	39
32730	52368	1	1	74	80	1
32730	52368	1	7	74	80	39
32760	52416	4	2	70	53	4
32789	52462	1	1	74	0	1
32789	52462	1	7	74	0	39
32790	52464	1	1	81	80	1
32790	52464	1	7	81	80	39
32812	52499	4	2	58	0	4
32820	52512	4	2	74	56	4
32877	52603	4	2	74	0	4
32879	52606	1	1	81	0	1
32879	52606	1	7	81	0	39
32880	52608	1	1	79	80	1
32880	52608	1	7	79	80	39
32880	52608	4	2	55	53	4
32880	52608	4	2	60	53	4
32880	52608	4	2	65	0	4
32880	52608	4	2	67	56	4
32880	52608	4	2	70	0	4
32880	52608	6	4	48	41	48
32880	52608	6	4	58	0	48
32880	52608	6	4	60	36	48
32880	52608	6	4	64	46	48
32880	52608	6	4	70	0	48
32880	52608	6	4	74	0	48
32909	52654	1	1	79	0	1
32909	52654	1	7	79	0	39
32910	52656	1	1	77	80	1
32910	52656	1	7	77	80	39
32937	52699	4	2	67	0	4
32939	52702	1	1	77	0	1
32939	52702	1	7	77	0	39
32940	52704	1	1	74	80	1
32940	52704	1	7	74	80	39
32940	52704	4	2	64	39	4
32970	52752	5	3	55	53	25
32997	52795	4	2	64	0	4
33000	52800	4	2	72	56	4
33000	52800	5	3	60	62	25
33000	52800	5	3	64	68	25
33029	52846	1	1	74	0	1
33029	52846	1	7	74	0	39
33030	52848	1	1	77	80	1
33030	52848	1	7	77	80	39
33056	52889	5	3	55	0	25
33057	52891	4	2	72	0	4
33057	52891	5	3	60	0	25
33057	52891	5	3	64	0	25
33060	52896	4	2	67	45	4
33101	52961	6	4	48	0	48
33101	52961	6	4	60	0	48
33101	52961	6	4	64	0	48
33103	52964	4	2	55	0	4
33105	52968	4	2	60	0	4
33117	52987	4	2	67	0	4
33119	52990	1	1	77	0	1
33119	52990	1	7	77	0	39
33120	52992	1	1	77	80	1
33120	52992	1	7	77	80	39
33120	52992	5	3	50	65	25
33120	52992	6	4	77	45	48
33150	53040	5	3	53	53	25
33180	53088	5	3	57	53	25
33210	53136	5	3	50	0	25
33210	53136	5	3	62	56	25
33240	53184	5	3	53	0	25
33240	53184	5	3	62	65	25
33270	53232	5	3	57	0	25
33270	53232	5	3	69	68	25
33330	53328	4	2	74	53	4
33359	53374	1	1	77	0	1
33359	53374	1	7	77	0	39
33360	53376	4	2	81	56	4
33360	53376	4	2	86	73	4
33420	53472	7	5	45	59	35
33450	53520	7	5	41	53	35
33450	53520	7	5	45	0	35
33480	53568	1	1	77	80	1
33480	53568	1	7	77	80	39
33480	53568	6	4	77	0	48
33480	53568	7	5	41	0	35
33480	53568	7	5	45	59	35
33539	53662	1	1	77	0	1
33539	53662	1	7	77	0	39
33540	53664	1	1	79	80	1
33540	53664	1	7	79	80	39
33570	53712	4	2	74	0	4
33570	53712	4	2	81	0	4
33570	53712	4	2	86	0	4
33570	53712	5	3	62	0	25
33570	53712	5	3	69	0	25
33570	53712	7	5	45	0	35
33599	53758	1	1	79	0	1
33599	53758	1	7	79	0	39
33600	53760	1	1	81	80	1
33600	53760	1	7	81	80	39
33600	53760	3	1	62	60	1
33600	53760	3	1	65	60	1
33600	53760	3	1	70	60	1
33600	53760	4	2	58	49	4
33600	53760	5	3	62	68	25
33600	53760	5	3	65	65	25
33600	53760	5	3	70	64	25
33600	53760	6	4	86	48	48
33600	53760	6	4	89	48	48
33600	53760	7	5	46	63	35
33606	53769	9	6	35	72	0
33606	53769	9	6	49	72	0
33630	53808	5	3	62	0	25
33630	53808	5	3	65	0	25
33630	53808	5	3	70	0	25
33659	53854	1	1	81	0	1
33659	53854	1	7	81	0	39
33660	53856	1	1	86	80	1
33660	53856	1	7	86	80	39
33660	53856	4	2	65	49	4
33660	53856	5	3	62	66	25
33660	53856	5	3	65	66	25
33660	53856	5	3	70	66	25
33666	53865	9	6	35	0	0
33666	53865	9	6	35	72	0
33666	53865	9	6	42	72	0
33666	53865	9	6	49	0	0
33689	53902	1	1	86	0	1
33689	53902	1	7	86	0	39
33690	53904	1	1	84	80	1
33690	53904	1	7	84	80	39
33690	53904	4	2	58	0	4
33690	53904	5	3	62	0	25
33690	53904	5	3	65	0	25
33690	53904	5	3	70	0	25
33720	53952	3	1	62	0	1
33720	53952	3	1	65	0	1
33720	53952	3	1	70	0	1
33720	53952	4	2	70	49	4
33720	53952	5	3	62	64	25
33720	53952	5	3	65	64	25
33720	53952	5	3	70	64	25
33726	53961	9	6	35	0	0
33726	53961	9	6	38	72	0
33726	53961	9	6	42	0	0
33726	53961	9	6	42	72	0
33750	54000	5	3	62	0	25
33750	54000	5	3	65	0	25
33750	54000	5	3	70	0	25
33750	54000	7	5	46	0	35
33779	54046	1	1	84	0	1
33779	54046	1	7	84	0	39
33780	54048	1	1	86	80	1
33780	54048	1	7	86	80	39
33780	54048	3	1	62	60	1
33780	54048	3	1	65	60	1
33780	54048	3	1	70	60	1
33780	54048	4	2	74	50	4
33780	54048	5	3	62	61	25
33780	54048	5	3	65	61	25
33780	54048	5	3	70	61	25
33780	54048	7	5	46	65	35
33786	54057	9	6	38	0	0
33786	54057	9	6	42	0	0
33786	54057	9	6	42	72	0
33809	54094	1	1	86	0	1
33809	54094	1	7	86	0	39
33810	54096	1	1	84	80	1
33810	54096	1	7	84	80	39
33810	54096	4	2	70	0	4
33810	54096	7	5	46	0	35
33840	54144	3	1	52	60	1
33840	54144	3	1	55	60	1
33840	54144	3	1	60	60	1
33840	54144	3	1	62	0	1
33840	54144	3	1	65	0	1
33840	54144	3	1	70	0	1
33840	54144	4	2	55	49	4
33840	54144	4	2	64	0	4
33840	54144	4	2	64	50	4
33840	54144	4	2	65	0	4
33840	54144	4	2	67	50	4
33840	54144	4	2	74	0	4
33840	54144	5	3	52	61	25
33840	54144	5	3	55	61	25
33840	54144	5	3	60	61	25
33840	54144	5	3	62	0	25
33840	54144	5	3	65	0	25
33840	54144	5	3	70	0	25
33840	54144	6	4	76	48	48
33840	54144	6	4	79	48	48
33840	54144	6	4	86	0	48
33840	54144	6	4	89	0	48
33840	54144	7	5	36	65	35
33846	54153	9	6	35	72	0
33846	54153	9	6	42	0	0
33846	54153	9	6	42	72	0
33870	54192	4	2	55	0	4
33870	54192	5	3	52	0	25
33870	54192	5	3	55	0	25
33870	54192	5	3	60	0	25
33876	54201	9	6	38	72	0
33876	54201	9	6	42	0	0
33899	54238	1	1	84	0	1
33899	54238	1	7	84	0	39
33900	54240	1	1	86	80	1
33900	54240	1	7	86	80	39
33900	54240	4	2	64	50	4
33900	54240	4	2	67	0	4
33900	54240	5	3	52	60	25
33900	54240	5	3	55	60	25
33900	54240	5	3	60	60	25
33906	54249	9	6	35	0	0
33906	54249	9	6	35	72	0
33906	54249	9	6	38	0	0
33906	54249	9	6	42	72	0
33929	54286	1	1	86	0	1
33929	54286	1	7	86	0	39
33930	54288	1	1	84	80	1
33930	54288	1	7	84	80	39
33930	54288	5	3	52	0	25
33930	54288	5	3	55	0	25
33930	54288	5	3	60	0	25
33960	54336	4	2	60	50	4
33960	54336	4	2	64	0	4
33960	54336	5	3	52	59	25
33960	54336	7	5	36	0	35
33966	54345	9	6	35	0	0
33966	54345	9	6	38	72	0
33966	54345	9	6	42	0	0
33966	54345	9	6	42	72	0
33990	54384	5	3	52	0	25
33990	54384	5	3	55	59	25
34019	54430	1	1	84	0	1
34019	54430	1	7	84	0	39
34020	54432	1	1	79	80	1
34020	54432	1	7	79	80	39
34020	54432	3	1	52	0	1
34020	54432	3	1	55	0	1
34020	54432	3	1	60	0	1
34020	54432	4	2	55	50	4
34020	54432	5	3	55	0	25
34020	54432	5	3	60	59	25
34020	54432	7	5	43	67	35
34026	54441	9	6	38	0	0
34026	54441	9	6	42	0	0
34026	54441	9	6	42	72	0
34049	54478	1	1	79	0	1
34049	54478	1	7	79	0	39
34050	54480	1	1	81	80	1
34050	54480	1	7	81	80	39
34050	54480	4	2	60	0	4
34050	54480	5	3	60	0	25
34050	54480	6	4	76	0	48
34077	54523	4	2	55	0	4
34080	54528	3	1	60	60	1
34080	54528	3	1	64	60	1
34080	54528	3	1	69	60	1
34080	54528	4	2	57	51	4
34080	54528	5	3	60	59	25
34080	54528	5	3	64	59	25
34080	54528	5	3	69	59	25
34080	54528	6	4	79	0	48
34080	54528	6	4	88	48	48
34080	54528	6	4	93	51	48
34080	54528	7	5	43	0	35
34080	54528	7	5	45	67	35
34080	54528	7	5	52	67	35
34086	54537	9	6	35	72	0
34086	54537	9	6	42	0	0
34086	54537	9	6	42	72	0
34110	54576	5	3	60	0	25
34110	54576	5	3	64	0	25
34110	54576	5	3	69	0	25
34139	54622	1	1	81	0	1
34139	54622	1	7	81	0	39
34140	54624	1	1	86	80	1
34140	54624	1	7	86	80	39
34140	54624	4	2	64	51	4
34140	54624	5	3	60	59	25
34140	54624	5	3	64	59	25
34140	54624	5	3	69	59	25
34146	54633	9	6	35	0	0
34146	54633	9	6	35	72	0
34146	54633	9	6	42	0	0
34146	54633	9	6	42	72	0
34169	54670	1	1	86	0	1
34169	54670	1	7	86	0	39
34170	54672	1	1	84	80	1
34170	54672	1	7	84	80	39
34170	54672	4	2	57	0	4
34170	54672	5	3	60	0	25
34170	54672	5	3	64	0	25
34170	54672	5	3	69	0	25
34200	54720	3	1	60	0	1
34200	54720	3	1	64	0	1
34200	54720	3	1	69	0	1
34200	54720	4	2	69	51	4
34200	54720	5	3	60	60	25
34200	54720	5	3	64	60	25
34200	54720	5	3	69	60	25
34206	54729	9	6	35	0	0
34206	54729	9	6	38	72	0
34206	54729	9	6	42	0	0
34206	54729	9	6	42	72	0
34230	54768	5	3	60	0	25
34230	54768	5	3	64	0	25
34230	54768	5	3	69	0	25
34230	54768	7	5	45	0	35
34259	54814	1	1	84	0	1
34259	54814	1	7	84	0	39
34260	54816	1	1	86	80	1
34260	54816	1	7	86	80	39
34260	54816	3	1	60	60	1
34260	54816	3	1	64	60	1
34260	54816	3	1	69	60	1
34260	54816	4	2	69	0	4
34260	54816	4	2	72	52	4
34260	54816	5	3	60	60	25
34260	54816	5	3	64	60	25
34260	54816	5	3	69	60	25
34260	54816	7	5	45	67	35
34266	54825	9	6	38	0	0
34266	54825	9	6	42	0	0
34266	54825	9	6	42	72	0
34289	54862	1	1	86	0	1
34289	54862	1	7	86	0	39
34290	54864	1	1	84	80	1
34290	54864	1	7	84	80	39
34290	54864	7	5	45	0	35
34296	54873	9	6	38	72	0
34296	54873	9	6	42	0	0
34320	54912	3	1	53	60	1
34320	54912	3	1	57	60	1
34320	54912	3	1	60	0	1
34320	54912	3	1	62	60	1
34320	54912	3	1	64	0	1
34320	54912	3	1	69	0	1
34320	54912	4	2	57	0	4
34320	54912	4	2	57	51	4
34320	54912	4	2	64	0	4
34320	54912	4	2	65	0	4
34320	54912	4	2	65	52	4
34320	54912	4	2	69	52	4
34320	54912	4	2	72	0	4
34320	54912	5	3	53	60	25
34320	54912	5	3	57	60	25
34320	54912	5	3	60	0	25
34320	54912	5	3	62	60	25
34320	54912	5	3	64	0	25
34320	54912	5	3	69	0	25
34320	54912	6	4	81	48	48
34320	54912	6	4	86	51	48
34320	54912	6	4	88	0	48
34320	54912	6	4	93	0	48
34320	54912	7	5	38	68	35
34326	54921	9	6	35	72	0
34326	54921	9	6	38	0	0
34326	54921	9	6	42	72	0
34356	54969	9	6	38	72	0
34356	54969	9	6	42	0	0
34378	55004	7	5	38	0	35
34379	55006	1	1	84	0	1
34379	55006	1	7	84	0	39
34380	55008	1	1	86	80	1
34380	55008	1	7	86	80	39
34380	55008	4	2	65	52	4
34380	55008	4	2	69	0	4
34380	55008	7	5	33	68	35
34386	55017	9	6	35	0	0
34386	55017	9	6	35	72	0
34386	55017	9	6	38	0	0
34386	55017	9	6	42	72	0
34409	55054	1	1	86	0	1
34409	55054	1	7	86	0	39
34410	55056	1	1	84	80	1
34410	55056	1	7	84	80	39
34410	55056	7	5	29	68	35
34410	55056	7	5	33	0	35
34440	55104	4	2	62	52	4
34440	55104	4	2	65	0	4
34440	55104	5	3	53	0	25
34440	55104	5	3	57	0	25
34440	55104	7	5	29	0	35
34440	55104	7	5	38	68	35
34446	55113	9	6	35	0	0
34446	55113	9	6	38	72	0
34446	55113	9	6	42	0	0
34446	55113	9	6	42	72	0
34470	55152	5	3	62	0	25
34499	55198	1	1	84	0	1
34499	55198	1	7	84	0	39
34500	55200	1	1	81	80	1
34500	55200	1	7	81	80	39
34500	55200	3	1	53	0	1
34500	55200	3	1	57	0	1
34500	55200	3	1	62	0	1
34500	55200	4	2	57	52	4
34506	55209	9	6	38	0	0
34506	55209	9	6	42	0	0
34506	55209	9	6	42	72	0
34530	55248	4	2	62	0	4
34536	55257	6	4	86	0	48
34557	55291	4	2	57	0	4
34557	55291	7	5	38	0	35
34559	55294	1	1	81	0	1
34559	55294	1	7	81	0	39
34560	55296	1	1	79	80	1
34560	55296	1	7	79	80	39
34560	55296	3	1	62	60	1
34560	55296	3	1	65	60	1
34560	55296	3	1	70	60	1
34560	55296	4	2	58	52	4
34560	55296	5	3	62	60	25
34560	55296	5	3	65	60	25
34560	55296	5	3	70	60	25
34560	55296	6	4	81	0	48
34560	55296	6	4	86	54	48
34560	55296	6	4	89	48	48
34560	55296	7	5	46	68	35
34566	55305	9	6	35	72	0
34566	55305	9	6	42	0	0
34566	55305	9	6	42	72	0
34590	55344	5	3	62	0	25
34590	55344	5	3	65	0	25
34590	55344	5	3	70	0	25
34619	55390	1	1	79	0	1
34619	55390	1	7	79	0	39
34620	55392	1	1	77	80	1
34620	55392	1	7	77	80	39
34620	55392	4	2	58	0	4
34620	55392	4	2	65	52	4
34620	55392	5	3	62	60	25
34620	55392	5	3	65	60	25
34620	55392	5	3	70	60	25
34626	55401	9	6	35	0	0
34626	55401	9	6	35	72	0
34626	55401	9	6	42	0	0
34626	55401	9	6	42	72	0
34649	55438	1	1	77	0	1
34649	55438	1	7	77	0	39
34650	55440	1	1	74	80	1
34650	55440	1	7	74	80	39
34650	55440	5	3	62	0	25
34650	55440	5	3	65	0	25
34650	55440	5	3	70	0	25
34680	55488	3	1	62	0	1
34680	55488	3	1	65	0	1
34680	55488	4	2	70	52	4
34680	55488	5	3	65	61	25
34680	55488	5	3	70	61	25
34686	55497	9	6	35	0	0
34686	55497	9	6	38	72	0
34686	55497	9	6	42	0	0
34686	55497	9	6	42	72	0
34710	55536	3	1	70	0	1
34710	55536	5	3	65	0	25
34710	55536	5	3	70	0	25
34710	55536	7	5	46	0	35
34739	55582	1	1	74	0	1
34739	55582	1	7	74	0	39
34740	55584	1	1	77	80	1
34740	55584	1	7	77	80	39
34740	55584	3	1	62	60	1
34740	55584	3	1	65	60	1
34740	55584	3	1	70	60	1
34740	55584	4	2	70	0	4
34740	55584	4	2	74	52	4
34740	55584	5	3	62	62	25
34740	55584	5	3	65	62	25
34740	55584	5	3	70	62	25
34740	55584	7	5	46	68	35
34746	55593	9	6	38	0	0
34746	55593	9	6	42	0	0
34746	55593	9	6	42	72	0
34769	55630	1	1	77	0	1
34769	55630	1	7	77	0	39
34770	55632	1	1	77	80	1
34770	55632	1	7	77	80	39
34770	55632	4	2	65	0	4
34770	55632	7	5	46	0	35
34776	55641	9	6	38	72	0
34776	55641	9	6	42	0	0
34799	55678	1	1	77	0	1
34799	55678	1	7	77	0	39
34800	55680	1	1	79	80	1
34800	55680	1	7	79	80	39
34800	55680	3	1	52	60	1
34800	55680	3	1	55	60	1
34800	55680	3	1	60	60	1
34800	55680	3	1	62	0	1
34800	55680	3	1	65	0	1
34800	55680	3	1	70	0	1
34800	55680	4	2	64	0	4
34800	55680	4	2	64	52	4
34800	55680	4	2	67	52	4
34800	55680	4	2	74	0	4
34800	55680	5	3	52	62	25
34800	55680	5	3	55	62	25
34800	55680	5	3	60	62	25
34800	55680	5	3	62	0	25
34800	55680	5	3	65	0	25
34800	55680	5	3	70	0	25
34800	55680	6	4	76	54	48
34800	55680	6	4	79	48	48
34800	55680	6	4	86	0	48
34800	55680	6	4	89	0	48
34800	55680	7	5	36	69	35
34806	55689	9	6	35	72	0
34806	55689	9	6	38	0	0
34806	55689	9	6	42	72	0
34829	55726	1	1	79	0	1
34829	55726	1	7	79	0	39
34830	55728	1	1	77	80	1
34830	55728	1	7	77	80	39
34830	55728	5	3	52	0	25
34830	55728	5	3	55	0	25
34830	55728	5	3	60	0	25
34836	55737	9	6	38	72	0
34836	55737	9	6	42	0	0
34859	55774	1	1	77	0	1
34859	55774	1	7	77	0	39
34860	55776	1	1	74	80	1
34860	55776	1	7	74	80	39
34860	55776	4	2	64	52	4
34860	55776	4	2	67	0	4
34860	55776	5	3	52	64	25
34860	55776	5	3	55	64	25
34860	55776	5	3	60	64	25
34866	55785	9	6	35	0	0
34866	55785	9	6	35	72	0
34866	55785	9	6	38	0	0
34866	55785	9	6	42	72	0
34890	55824	5	3	52	0	25
34890	55824	5	3	55	0	25
34890	55824	5	3	60	0	25
34920	55872	4	2	60	52	4
34920	55872	4	2	64	0	4
34920	55872	5	3	52	64	25
34920	55872	7	5	36	0	35
34926	55881	9	6	35	0	0
34926	55881	9	6	38	72	0
34926	55881	9	6	42	0	0
34926	55881	9	6	42	72	0
34949	55918	1	1	74	0	1
34949	55918	1	7	74	0	39
34950	55920	1	1	77	80	1
34950	55920	1	7	77	80	39
34950	55920	5	3	52	0	25
34950	55920	5	3	55	64	25
34980	55968	3	1	52	0	1
34980	55968	3	1	55	0	1
34980	55968	3	1	60	0	1
34980	55968	4	2	55	52	4
34980	55968	4	2	60	0	4
34980	55968	5	3	55	0	25
34980	55968	5	3	60	67	25
34980	55968	7	5	43	69	35
34986	55977	9	6	38	0	0
34986	55977	9	6	42	0	0
34986	55977	9	6	42	72	0
35010	56016	5	3	60	0	25
35016	56025	6	4	76	0	48
35037	56059	4	2	55	0	4
35037	56059	7	5	43	0	35
35039	56062	1	1	77	0	1
35039	56062	1	7	77	0	39
35040	56064	1	1	81	80	1
35040	56064	1	7	81	80	39
35040	56064	3	1	57	61	1
35040	56064	3	1	60	61	1
35040	56064	3	1	65	61	1
35040	56064	4	2	53	52	4
35040	56064	5	3	57	68	25
35040	56064	5	3	60	68	25
35040	56064	5	3	65	68	25
35040	56064	6	4	79	0	48
35040	56064	6	4	84	48	48
35040	56064	6	4	89	54	48
35040	56064	7	5	41	69	35
35046	56073	9	6	35	72	0
35046	56073	9	6	42	0	0
35046	56073	9	6	42	72	0
35070	56112	5	3	57	0	25
35070	56112	5	3	60	0	25
35070	56112	5	3	65	0	25
35100	56160	4	2	60	52	4
35100	56160	5	3	60	68	25
35100	56160	5	3	65	68	25
35106	56169	9	6	35	0	0
35106	56169	9	6	35	72	0
35106	56169	9	6	42	0	0
35106	56169	9	6	42	72	0
35130	56208	5	3	60	0	25
35130	56208	5	3	65	0	25
35160	56256	3	1	57	0	1
35160	56256	3	1	60	0	1
35160	56256	4	2	65	52	4
35160	56256	5	3	57	68	25
35160	56256	5	3	60	68	25
35160	56256	5	3	65	68	25
35160	56256	7	5	41	0	35
35166	56265	9	6	35	0	0
35166	56265	9	6	38	72	0
35166	56265	9	6	42	0	0
35166	56265	9	6	42	72	0
35189	56302	1	1	81	0	1
35189	56302	1	7	81	0	39
35190	56304	1	1	82	80	1
35190	56304	1	7	82	80	39
35190	56304	3	1	65	0	1
35190	56304	5	3	57	0	25
35190	56304	5	3	60	0	25
35190	56304	5	3	65	0	25
35219	56350	1	1	82	0	1
35219	56350	1	7	82	0	39
35220	56352	1	1	81	80	1
35220	56352	1	7	81	80	39
35220	56352	3	1	57	62	1
35220	56352	3	1	60	62	1
35220	56352	3	1	65	62	1
35220	56352	4	2	65	0	4
35220	56352	4	2	69	52	4
35220	56352	5	3	57	67	25
35220	56352	5	3	60	67	25
35220	56352	5	3	65	67	25
35220	56352	7	5	41	68	35
35226	56361	9	6	38	0	0
35226	56361	9	6	42	0	0
35226	56361	9	6	42	72	0
35249	56398	1	1	81	0	1
35249	56398	1	7	81	0	39
35250	56400	1	1	79	80	1
35250	56400	1	7	79	80	39
35250	56400	7	5	41	0	35
35256	56409	9	6	38	72	0
35256	56409	9	6	42	0	0
35279	56446	1	1	79	0	1
35279	56446	1	7	79	0	39
35280	56448	1	1	81	80	1
35280	56448	1	7	81	80	39
35280	56448	3	1	57	0	1
35280	56448	3	1	60	0	1
35280	56448	3	1	61	62	1
35280	56448	3	1	64	62	1
35280	56448	3	1	65	0	1
35280	56448	3	1	69	62	1
35280	56448	4	2	53	0	4
35280	56448	4	2	57	52	4
35280	56448	4	2	60	0	4
35280	56448	4	2	64	52	4
35280	56448	4	2	69	0	4
35280	56448	4	2	73	0	4
35280	56448	4	2	73	52	4
35280	56448	4	2	76	52	4
35280	56448	5	3	57	0	25
35280	56448	5	3	60	0	25
35280	56448	5	3	61	67	25
35280	56448	5	3	64	67	25
35280	56448	5	3	65	0	25
35280	56448	5	3	69	67	25
35280	56448	6	4	84	0	48
35280	56448	6	4	88	48	48
35280	56448	6	4	89	0	48
35280	56448	6	4	93	54	48
35280	56448	7	5	45	68	35
35286	56457	9	6	35	72	0
35286	56457	9	6	38	0	0
35286	56457	9	6	42	72	0
35309	56494	1	1	81	0	1
35309	56494	1	7	81	0	39
35310	56496	1	1	79	80	1
35310	56496	1	7	79	80	39
35310	56496	4	2	57	0	4
35316	56505	9	6	38	72	0
35316	56505	9	6	42	0	0
35340	56544	4	2	64	0	4
35340	56544	4	2	73	52	4
35340	56544	4	2	76	0	4
35346	56553	9	6	35	0	0
35346	56553	9	6	35	72	0
35346	56553	9	6	38	0	0
35346	56553	9	6	42	72	0
35367	56587	6	4	88	0	48
35399	56638	1	1	79	0	1
35399	56638	1	7	79	0	39
35400	56640	1	1	77	80	1
35400	56640	1	7	77	80	39
35400	56640	4	2	69	52	4
35400	56640	4	2	73	0	4
35400	56640	5	3	61	0	25
35406	56649	9	6	35	0	0
35406	56649	9	6	38	72	0
35406	56649	9	6	42	0	0
35406	56649	9	6	42	72	0
35430	56688	5	3	64	0	25
35430	56688	5	3	69	0	25
35430	56688	7	5	45	0	35
35459	56734	1	1	77	0	1
35459	56734	1	7	77	0	39
35460	56736	1	1	79	80	1
35460	56736	1	7	79	80	39
35460	56736	3	1	61	0	1
35460	56736	3	1	64	0	1
35460	56736	3	1	69	0	1
35460	56736	4	2	64	51	4
35460	56736	4	2	69	0	4
35460	56736	6	4	93	0	48
35466	56745	9	6	38	0	0
35466	56745	9	6	42	0	0
35466	56745	9	6	50	72	0
35490	56784	4	2	64	0	4
35496	56793	9	6	50	0	0
35496	56793	9	6	50	72	0
35519	56830	1	1	79	0	1
35519	56830	1	7	79	0	39
35520	56832	1	1	81	80	1
35520	56832	1	7	81	80	39
35520	56832	3	1	62	60	1
35520	56832	3	1	65	60	1
35520	56832	3	1	70	60	1
35520	56832	4	2	58	49	4
35520	56832	5	3	62	68	25
35520	56832	5	3	65	65	25
35520	56832	5	3	70	64	25
35520	56832	6	4	86	48	48
35520	56832	6	4	89	48	48
35520	56832	7	5	46	63	35
35526	56841	9	6	35	72	0
35526	56841	9	6	49	72	0
35526	56841	9	6	50	0	0
35550	56880	5	3	62	0	25
35550	56880	5	3	65	0	25
35550	56880	5	3	70	0	25
35579	56926	1	1	81	0	1
35579	56926	1	7	81	0	39
35580	56928	1	1	86	80	1
35580	56928	1	7	86	80	39
35580	56928	4	2	65	49	4
35580	56928	5	3	62	66	25
35580	56928	5	3	65	66	25
35580	56928	5	3	70	66	25
35586	56937	9	6	35	0	0
35586	56937	9	6	35	72	0
35586	56937	9	6	42	72	0
35586	56937	9	6	49	0	0
35609	56974	1	1	86	0	1
35609	56974	1	7	86	0	39
35610	56976	1	1	84	80	1
35610	56976	1	7	84	80	39
35610	56976	4	2	58	0	4
35610	56976	5	3	62	0	25
35610	56976	5	3	65	0	25
35610	56976	5	3	70	0	25
35640	57024	3	1	62	0	1
35640	57024	3	1	65	0	1
35640	57024	3	1	70	0	1
35640	57024	4	2	70	49	4
35640	57024	5	3	62	64	25
35640	57024	5	3	65	64	25
35640	57024	5	3	70	64	25
35646	57033	9	6	35	0	0
35646	57033	9	6	38	72	0
35646	57033	9	6	42	0	0
35646	57033	9	6	42	72	0
35670	57072	5	3	62	0	25
35670	57072	5	3	65	0	25
35670	57072	5	3	70	0	25
35670	57072	7	5	46	0	35
35699	57118	1	1	84	0	1
35699	57118	1	7	84	0	39
35700	57120	1	1	86	80	1
35700	57120	1	7	86	80	39
35700	57120	3	1	62	60	1
35700	57120	3	1	65	60	1
35700	57120	3	1	70	60	1
35700	57120	4	2	74	50	4
35700	57120	5	3	62	61	25
35700	57120	5	3	65	61	25
35700	57120	5	3	70	61	25
35700	57120	7	5	46	65	35
35706	57129	9	6	38	0	0
35706	57129	9	6	42	0	0
35706	57129	9	6	42	72	0
35729	57166	1	1	86	0	1
35729	57166	1	7	86	0	39
35730	57168	1	1	84	80	1
35730	57168	1	7	84	80	39
35730	57168	4	2	70	0	4
35730	57168	7	5	46	0	35
35760	57216	3	1	52	60	1
35760	57216	3	1	55	60	1
35760	57216	3	1	60	60	1
35760	57216	3	1	62	0	1
35760	57216	3	1	65	0	1
35760	57216	3	1	70	0	1
35760	57216	4	2	55	49	4
35760	57216	4	2	64	0	4
35760	57216	4	2	64	50	4
35760	57216	4	2	65	0	4
35760	57216	4	2	67	50	4
35760	57216	4	2	74	0	4
35760	57216	5	3	52	61	25
35760	57216	5	3	55	61	25
35760	57216	5	3	60	61	25
35760	57216	5	3	62	0	25
35760	57216	5	3	65	0	25
35760	57216	5	3	70	0	25
35760	57216	6	4	76	48	48
35760	57216	6	4	79	48	48
35760	57216	6	4	86	0	48
35760	57216	6	4	89	0	48
35760	57216	7	5	36	65	35
35766	57225	9	6	35	72	0
35766	57225	9	6	42	0	0
35766	57225	9	6	42	72	0
35790	57264	4	2	55	0	4
35790	57264	5	3	52	0	25
35790	57264	5	3	55	0	25
35790	57264	5	3	60	0	25
35796	57273	9	6	38	72	0
35796	57273	9	6	42	0	0
35819	57310	1	1	84	0	1
35819	57310	1	7	84	0	39
35820	57312	1	1	86	80	1
35820	57312	1	7	86	80	39
35820	57312	4	2	64	50	4
35820	57312	4	2	67	0	4
35820	57312	5	3	52	60	25
35820	57312	5	3	55	60	25
35820	57312	5	3	60	60	25
35826	57321	9	6	35	0	0
35826	57321	9	6	35	72	0
35826	57321	9	6	38	0	0
35826	57321	9	6	42	72	0
35849	57358	1	1	86	0	1
35849	57358	1	7	86	0	39
35850	57360	1	1	84	80	1
35850	57360	1	7	84	80	39
35850	57360	5	3	52	0	25
35850	57360	5	3	55	0	25
35850	57360	5	3	60	0	25
35880	57408	4	2	60	50	4
35880	57408	4	2	64	0	4
35880	57408	5	3	52	59	25
35880	57408	7	5	36	0	35
35886	57417	9	6	35	0	0
35886	57417	9	6	38	72	0
35886	57417	9	6	42	0	0
35886	57417	9	6	42	72	0
35910	57456	5	3	52	0	25
35910	57456	5	3	55	59	25
35939	57502	1	1	84	0	1
35939	57502	1	7	84	0	39
35940	57504	1	1	81	80	1
35940	57504	1	7	81	80	39
35940	57504	3	1	52	0	1
35940	57504	3	1	55	0	1
35940	57504	3	1	60	0	1
35940	57504	4	2	55	50	4
35940	57504	5	3	55	0	25
35940	57504	5	3	60	59	25
35940	57504	7	5	43	67	35
35946	57513	9	6	38	0	0
35946	57513	9	6	42	0	0
35946	57513	9	6	42	72	0
35970	57552	4	2	60	0	4
35970	57552	5	3	60	0	25
35970	57552	6	4	76	0	48
35997	57595	4	2	55	0	4
35999	57598	1	1	81	0	1
35999	57598	1	7	81	0	39
36000	57600	1	1	81	80	1
36000	57600	1	7	81	80	39
36000	57600	3	1	60	60	1
36000	57600	3	1	64	60	1
36000	57600	3	1	69	60	1
36000	57600	4	2	57	51	4
36000	57600	5	3	60	59	25
36000	57600	5	3	64	59	25
36000	57600	5	3	69	59	25
36000	57600	6	4	79	0	48
36000	57600	6	4	88	48	48
36000	57600	6	4	93	51	48
36000	57600	7	5	43	0	35
36000	57600	7	5	45	67	35
36000	57600	7	5	52	0	35
36000	57600	7	5	52	67	35
36006	57609	9	6	35	72	0
36006	57609	9	6	42	0	0
36006	57609	9	6	42	72	0
36030	57648	5	3	60	0	25
36030	57648	5	3	64	0	25
36030	57648	5	3	69	0	25
36059	57694	1	1	81	0	1
36059	57694	1	7	81	0	39
36060	57696	1	1	86	80	1
36060	57696	1	7	86	80	39
36060	57696	4	2	64	51	4
36060	57696	5	3	60	59	25
36060	57696	5	3	64	59	25
36060	57696	5	3	69	59	25
36066	57705	9	6	35	0	0
36066	57705	9	6	35	72	0
36066	57705	9	6	42	0	0
36066	57705	9	6	42	72	0
36089	57742	1	1	86	0	1
36089	57742	1	7	86	0	39
36090	57744	1	1	84	80	1
36090	57744	1	7	84	80	39
36090	57744	4	2	57	0	4
36090	57744	5	3	60	0	25
36090	57744	5	3	64	0	25
36090	57744	5	3	69	0	25
36120	57792	3	1	60	0	1
36120	57792	3	1	64	0	1
36120	57792	3	1	69	0	1
36120	57792	4	2	69	51	4
36120	57792	5	3	60	60	25
36120	57792	5	3	64	60	25
36120	57792	5	3	69	60	25
36126	57801	9	6	35	0	0
36126	57801	9	6	38	72	0
36126	57801	9	6	42	0	0
36126	57801	9	6	42	72	0
36150	57840	5	3	60	0	25
36150	57840	5	3	64	0	25
36150	57840	5	3	69	0	25
36150	57840	7	5	45	0	35
36179	57886	1	1	84	0	1
36179	57886	1	7	84	0	39
36180	57888	1	1	86	80	1
36180	57888	1	7	86	80	39
36180	57888	3	1	60	60	1
36180	57888	3	1	64	60	1
36180	57888	3	1	69	60	1
36180	57888	4	2	69	0	4
36180	57888	4	2	72	52	4
36180	57888	5	3	60	60	25
36180	57888	5	3	64	60	25
36180	57888	5	3	69	60	25
36180	57888	7	5	45	67	35
36186	57897	9	6	38	0	0
36186	57897	9	6	42	0	0
36186	57897	9	6	42	72	0
36209	57934	1	1	86	0	1
36209	57934	1	7	86	0	39
36210	57936	1	1	84	80	1
36210	57936	1	7	84	80	39
36210	57936	7	5	45	0	35
36216	57945	9	6	38	72	0
36216	57945	9	6	42	0	0
36240	57984	3	1	53	60	1
36240	57984	3	1	57	60	1
36240	57984	3	1	60	0	1
36240	57984	3	1	62	60	1
36240	57984	3	1	64	0	1
36240	57984	3	1	69	0	1
36240	57984	4	2	57	0	4
36240	57984	4	2	57	51	4
36240	57984	4	2	64	0	4
36240	57984	4	2	65	0	4
36240	57984	4	2	65	52	4
36240	57984	4	2	69	52	4
36240	57984	4	2	72	0	4
36240	57984	5	3	53	60	25
36240	57984	5	3	57	60	25
36240	57984	5	3	60	0	25
36240	57984	5	3	62	60	25
36240	57984	5	3	64	0	25
36240	57984	5	3	69	0	25
36240	57984	6	4	81	48	48
36240	57984	6	4	86	51	48
36240	57984	6	4	88	0	48
36240	57984	6	4	93	0	48
36240	57984	7	5	38	68	35
36246	57993	9	6	35	72	0
36246	57993	9	6	38	0	0
36246	57993	9	6	42	72	0
36276	58041	9	6	38	72	0
36276	58041	9	6	42	0	0
36298	58076	7	5	38	0	35
36299	58078	1	1	84	0	1
36299	58078	1	7	84	0	39
36300	58080	1	1	86	80	1
36300	58080	1	7	86	80	39
36300	58080	4	2	65	52	4
36300	58080	4	2	69	0	4
36300	58080	7	5	33	68	35
36306	58089	9	6	35	0	0
36306	58089	9	6	35	72	0
36306	58089	9	6	38	0	0
36306	58089	9	6	42	72	0
36329	58126	1	1	86	0	1
36329	58126	1	7	86	0	39
36330	58128	1	1	84	80	1
36330	58128	1	7	84	80	39
36330	58128	7	5	29	68	35
36330	58128	7	5	33	0	35
36360	58176	4	2	62	52	4
36360	58176	4	2	65	0	4
36360	58176	5	3	53	0	25
36360	58176	5	3	57	0	25
36360	58176	7	5	29	0	35
36360	58176	7	5	38	68	35
36365	58184	9	6	35	0	0
36365	58184	9	6	38	72	0
36365	58184	9	6	42	0	0
36365	58184	9	6	42	72	0
36389	58222	1	1	84	0	1
36389	58222	1	7	84	0	39
36390	58224	1	1	81	80	1
36390	58224	1	7	81	80	39
36390	58224	5	3	62	0	25
36420	58272	3	1	53	0	1
36420	58272	3	1	57	0	1
36420	58272	3	1	62	0	1
36420	58272	4	2	57	52	4
36426	58281	9	6	38	0	0
36426	58281	9	6	42	0	0
36426	58281	9	6	42	72	0
36450	58320	4	2	62	0	4
36456	58329	6	4	86	0	48
36477	58363	4	2	57	0	4
36477	58363	7	5	38	0	35
36479	58366	1	1	81	0	1
36479	58366	1	7	81	0	39
36480	58368	1	1	79	80	1
36480	58368	1	7	79	80	39
36480	58368	3	1	62	60	1
36480	58368	3	1	65	60	1
36480	58368	3	1	70	60	1
36480	58368	4	2	58	52	4
36480	58368	5	3	62	60	25
36480	58368	5	3	65	60	25
36480	58368	5	3	70	60	25
36480	58368	6	4	81	0	48
36480	58368	6	4	86	54	48
36480	58368	6	4	89	48	48
36480	58368	7	5	46	68	35
36486	58377	9	6	35	72	0
36486	58377	9	6	42	0	0
36486	58377	9	6	49	72	0
36510	58416	5	3	62	0	25
36510	58416	5	3	65	0	25
36510	58416	5	3	70	0	25
36539	58462	1	1	79	0	1
36539	58462	1	7	79	0	39
36540	58464	1	1	77	80	1
36540	58464	1	7	77	80	39
36540	58464	4	2	58	0	4
36540	58464	4	2	65	52	4
36540	58464	5	3	62	60	25
36540	58464	5	3	65	60	25
36540	58464	5	3	70	60	25
36545	58472	9	6	35	0	0
36545	58472	9	6	35	72	0
36545	58472	9	6	42	72	0
36545	58472	9	6	49	0	0
36569	58510	1	1	77	0	1
36569	58510	1	7	77	0	39
36570	58512	1	1	74	80	1
36570	58512	1	7	74	80	39
36570	58512	5	3	62	0	25
36570	58512	5	3	65	0	25
36570	58512	5	3	70	0	25
36600	58560	3	1	62	0	1
36600	58560	3	1	65	0	1
36600	58560	4	2	70	52	4
36600	58560	5	3	65	61	25
36600	58560	5	3	70	61	25
36606	58569	9	6	35	0	0
36606	58569	9	6	38	72	0
36606	58569	9	6	42	0	0
36606	58569	9	6	42	72	0
36629	58606	1	1	74	0	1
36629	58606	1	7	74	0	39
36630	58608	1	1	81	80	1
36630	58608	1	7	81	80	39
36630	58608	3	1	70	0	1
36630	58608	5	3	65	0	25
36630	58608	5	3	70	0	25
36630	58608	7	5	46	0	35
36660	58656	3	1	62	60	1
36660	58656	3	1	65	60	1
36660	58656	3	1	70	60	1
36660	58656	4	2	70	0	4
36660	58656	4	2	74	52	4
36660	58656	5	3	62	62	25
36660	58656	5	3	65	62	25
36660	58656	5	3	70	62	25
36660	58656	7	5	46	68	35
36665	58664	9	6	38	0	0
36665	58664	9	6	42	0	0
36665	58664	9	6	42	72	0
36690	58704	4	2	65	0	4
36690	58704	7	5	46	0	35
36696	58713	9	6	38	72	0
36696	58713	9	6	42	0	0
36719	58750	1	1	81	0	1
36719	58750	1	7	81	0	39
36720	58752	1	1	79	80	1
36720	58752	1	7	79	80	39
36720	58752	3	1	52	60	1
36720	58752	3	1	55	60	1
36720	58752	3	1	60	60	1
36720	58752	3	1	62	0	1
36720	58752	3	1	65	0	1
36720	58752	3	1	70	0	1
36720	58752	4	2	64	0	4
36720	58752	4	2	64	52	4
36720	58752	4	2	67	52	4
36720	58752	4	2	74	0	4
36720	58752	5	3	52	62	25
36720	58752	5	3	55	62	25
36720	58752	5	3	60	62	25
36720	58752	5	3	62	0	25
36720	58752	5	3	65	0	25
36720	58752	5	3	70	0	25
36720	58752	6	4	76	54	48
36720	58752	6	4	79	48	48
36720	58752	6	4	86	0	48
36720	58752	6	4	89	0	48
36720	58752	7	5	36	69	35
36726	58761	9	6	35	72	0
36726	58761	9	6	38	0	0
36749	58798	1	1	79	0	1
36749	58798	1	7	79	0	39
36750	58800	1	1	77	80	1
36750	58800	1	7	77	80	39
36750	58800	5	3	52	0	25
36750	58800	5	3	55	0	25
36750	58800	5	3	60	0	25
36756	58809	9	6	38	72	0
36779	58846	1	1	77	0	1
36779	58846	1	7	77	0	39
36780	58848	1	1	74	80	1
36780	58848	1	7	74	80	39
36780	58848	4	2	64	52	4
36780	58848	4	2	67	0	4
36780	58848	5	3	52	64	25
36780	58848	5	3	55	64	25
36780	58848	5	3	60	64	25
36786	58857	9	6	35	0	0
36786	58857	9	6	35	72	0
36786	58857	9	6	38	0	0
36786	58857	9	6	42	72	0
36810	58896	5	3	52	0	25
36810	58896	5	3	55	0	25
36810	58896	5	3	60	0	25
36840	58944	4	2	60	52	4
36840	58944	4	2	64	0	4
36840	58944	5	3	52	64	25
36840	58944	7	5	36	0	35
36846	58953	9	6	35	0	0
36846	58953	9	6	38	72	0
36846	58953	9	6	42	0	0
36846	58953	9	6	42	72	0
36869	58990	1	1	74	0	1
36869	58990	1	7	74	0	39
36870	58992	1	1	77	80	1
36870	58992	1	7	77	80	39
36870	58992	5	3	52	0	25
36870	58992	5	3	55	64	25
36900	59040	3	1	52	0	1
36900	59040	3	1	55	0	1
36900	59040	3	1	60	0	1
36900	59040	4	2	55	52	4
36900	59040	4	2	60	0	4
36900	59040	5	3	55	0	25
36900	59040	5	3	60	67	25
36900	59040	7	5	43	69	35
36906	59049	9	6	38	0	0
36906	59049	9	6	42	0	0
36906	59049	9	6	42	72	0
36930	59088	5	3	60	0	25
36936	59097	6	4	76	0	48
36957	59131	4	2	55	0	4
36957	59131	7	5	43	0	35
36959	59134	1	1	77	0	1
36959	59134	1	7	77	0	39
36959	59134	6	4	79	0	48
36960	59136	1	1	77	80	1
36960	59136	1	7	77	80	39
36960	59136	3	1	57	66	1
36960	59136	3	1	62	66	1
36960	59136	3	1	65	66	1
36960	59136	4	2	50	50	4
36960	59136	4	2	62	50	4
36960	59136	7	5	38	68	35
36966	59145	9	6	35	72	0
36966	59145	9	6	42	0	0
36966	59145	9	6	42	72	0
36990	59184	7	5	38	0	35
37020	59232	7	5	38	68	35
37026	59241	9	6	35	0	0
37026	59241	9	6	35	72	0
37026	59241	9	6	42	0	0
37026	59241	9	6	42	72	0
37050	59280	7	5	38	0	35
37080	59328	7	5	38	68	35
37086	59337	9	6	35	0	0
37086	59337	9	6	38	72	0
37086	59337	9	6	42	0	0
37086	59337	9	6	42	72	0
37110	59376	7	5	38	0	35
37131	59409	3	1	57	0	1
37131	59409	3	1	62	0	1
37131	59409	3	1	65	0	1
37131	59409	4	2	50	0	4
37131	59409	4	2	62	0	4
37140	59424	3	1	57	67	1
37140	59424	3	1	62	67	1
37140	59424	3	1	65	67	1
37140	59424	4	2	50	55	4
37140	59424	4	2	57	55	4
37140	59424	4	2	62	55	4
37140	59424	7	5	38	68	35
37146	59433	9	6	38	0	0
37146	59433	9	6	42	0	0
37146	59433	9	6	42	72	0
37176	59481	9	6	38	72	0
37176	59481	9	6	42	0	0
37199	59518	1	1	77	0	1
37199	59518	1	7	77	0	39
37200	59520	3	1	57	67	1
37206	59529	9	6	35	72	0
37206	59529	9	6	38	0	0
37206	59529	9	6	42	72	0
37236	59577	9	6	38	72	0
37236	59577	9	6	42	0	0
37266	59625	9	6	35	0	0
37266	59625	9	6	35	72	0
37266	59625	9	6	38	0	0
37266	59625	9	6	42	72	0
37311	59697	3	1	57	0	1
37320	59712	1	1	86	80	1
37320	59712	1	7	86	80	39
37320	59712	3	1	62	68	1
37326	59721	9	6	35	0	0
37326	59721	9	6	38	72	0
37326	59721	9	6	42	0	0
37326	59721	9	6	42	72	0
37349	59758	1	1	86	0	1
37349	59758	1	7	86	0	39
37350	59760	1	1	81	80	1
37350	59760	1	7	81	80	39
37380	59808	7	5	38	0	35
37386	59817	9	6	38	0	0
37386	59817	9	6	42	0	0
37386	59817	9	6	42	72	0
37425	59880	3	1	62	0	1
37425	59880	3	1	65	0	1
37425	59880	4	2	50	0	4
37425	59880	4	2	57	0	4
37425	59880	4	2	62	0	4
37428	59884	3	1	57	0	1
37434	59894	3	1	62	0	1
37439	59902	1	1	81	0	1
37439	59902	1	7	81	0	39
37440	59904	1	1	79	80	1
37440	59904	1	7	79	80	39
37440	59904	3	1	62	60	1
37440	59904	3	1	65	60	1
37440	59904	3	1	70	60	1
37440	59904	4	2	58	49	4
37440	59904	5	3	62	68	25
37440	59904	5	3	65	65	25
37440	59904	5	3	70	64	25
37440	59904	6	4	86	48	48
37440	59904	6	4	89	48	48
37440	59904	7	5	46	63	35
37446	59913	9	6	35	0	0
37446	59913	9	6	35	72	0
37446	59913	9	6	49	0	0
37446	59913	9	6	49	72	0
37470	59952	5	3	62	0	25
37470	59952	5	3	65	0	25
37470	59952	5	3	70	0	25
37499	59998	1	1	79	0	1
37499	59998	1	7	79	0	39
37500	60000	1	1	77	80	1
37500	60000	1	7	77	80	39
37500	60000	4	2	65	49	4
37500	60000	5	3	62	66	25
37500	60000	5	3	65	66	25
37500	60000	5	3	70	66	25
37506	60009	9	6	35	72	0
37506	60009	9	6	42	72	0
37506	60009	9	6	49	0	0
37529	60046	1	1	77	0	1
37529	60046	1	7	77	0	39
37530	60048	1	1	86	80	1
37530	60048	1	7	86	80	39
37530	60048	4	2	58	0	4
37530	60048	5	3	62	0	25
37530	60048	5	3	65	0	25
37530	60048	5	3	70	0	25
37560	60096	3	1	62	0	1
37560	60096	3	1	65	0	1
37560	60096	3	1	70	0	1
37560	60096	4	2	70	49	4
37560	60096	5	3	62	64	25
37560	60096	5	3	65	64	25
37560	60096	5	3	70	64	25
37566	60105	9	6	35	0	0
37566	60105	9	6	38	72	0
37566	60105	9	6	42	0	0
37566	60105	9	6	42	72	0
37589	60142	1	1	86	0	1
37589	60142	1	7	86	0	39
37590	60144	1	1	81	80	1
37590	60144	1	7	81	80	39
37590	60144	5	3	62	0	25
37590	60144	5	3	65	0	25
37590	60144	5	3	70	0	25
37590	60144	7	5	46	0	35
37620	60192	3	1	62	60	1
37620	60192	3	1	65	60	1
37620	60192	3	1	70	60	1
37620	60192	4	2	74	50	4
37620	60192	5	3	62	61	25
37620	60192	5	3	65	61	25
37620	60192	5	3	70	61	25
37620	60192	7	5	46	65	35
37626	60201	9	6	38	0	0
37626	60201	9	6	42	0	0
37626	60201	9	6	42	72	0
37650	60240	4	2	70	0	4
37650	60240	7	5	46	0	35
37679	60286	1	1	81	0	1
37679	60286	1	7	81	0	39
37680	60288	1	1	79	80	1
37680	60288	1	7	79	80	39
37680	60288	3	1	52	60	1
37680	60288	3	1	55	60	1
37680	60288	3	1	60	60	1
37680	60288	3	1	62	0	1
37680	60288	3	1	65	0	1
37680	60288	3	1	70	0	1
37680	60288	4	2	55	49	4
37680	60288	4	2	64	0	4
37680	60288	4	2	64	50	4
37680	60288	4	2	65	0	4
37680	60288	4	2	67	50	4
37680	60288	4	2	74	0	4
37680	60288	5	3	52	61	25
37680	60288	5	3	55	61	25
37680	60288	5	3	60	61	25
37680	60288	5	3	62	0	25
37680	60288	5	3	65	0	25
37680	60288	5	3	70	0	25
37680	60288	6	4	76	48	48
37680	60288	6	4	79	48	48
37680	60288	6	4	86	0	48
37680	60288	6	4	89	0	48
37680	60288	7	5	36	65	35
37686	60297	9	6	35	72	0
37686	60297	9	6	42	0	0
37686	60297	9	6	42	72	0
37709	60334	1	1	79	0	1
37709	60334	1	7	79	0	39
37710	60336	1	1	77	80	1
37710	60336	1	7	77	80	39
37710	60336	4	2	55	0	4
37710	60336	5	3	52	0	25
37710	60336	5	3	55	0	25
37710	60336	5	3	60	0	25
37716	60345	9	6	38	72	0
37716	60345	9	6	42	0	0
37739	60382	1	1	77	0	1
37739	60382	1	7	77	0	39
37740	60384	1	1	74	80	1
37740	60384	1	7	74	80	39
37740	60384	4	2	64	50	4
37740	60384	4	2	67	0	4
37740	60384	5	3	52	60	25
37740	60384	5	3	55	60	25
37740	60384	5	3	60	60	25
37746	60393	9	6	35	0	0
37746	60393	9	6	35	72	0
37746	60393	9	6	38	0	0
37746	60393	9	6	42	72	0
37770	60432	5	3	52	0	25
37770	60432	5	3	55	0	25
37770	60432	5	3	60	0	25
37800	60480	4	2	60	50	4
37800	60480	4	2	64	0	4
37800	60480	5	3	52	59	25
37800	60480	7	5	36	0	35
37806	60489	9	6	35	0	0
37806	60489	9	6	38	72	0
37806	60489	9	6	42	0	0
37806	60489	9	6	42	72	0
37829	60526	1	1	74	0	1
37829	60526	1	7	74	0	39
37830	60528	1	1	77	80	1
37830	60528	1	7	77	80	39
37830	60528	5	3	52	0	25
37830	60528	5	3	55	59	25
37860	60576	3	1	52	0	1
37860	60576	3	1	55	0	1
37860	60576	3	1	60	0	1
37860	60576	4	2	55	50	4
37860	60576	5	3	55	0	25
37860	60576	5	3	60	59	25
37860	60576	7	5	43	67	35
37866	60585	9	6	38	0	0
37866	60585	9	6	42	0	0
37866	60585	9	6	42	72	0
37890	60624	4	2	60	0	4
37890	60624	5	3	60	0	25
37890	60624	6	4	76	0	48
37917	60667	4	2	55	0	4
37919	60670	1	1	77	0	1
37919	60670	1	7	77	0	39
37920	60672	1	1	77	80	1
37920	60672	1	7	77	80	39
37920	60672	3	1	53	60	1
37920	60672	3	1	57	60	1
37920	60672	3	1	62	60	1
37920	60672	4	2	50	51	4
37920	60672	5	3	53	59	25
37920	60672	5	3	57	59	25
37920	60672	5	3	62	59	25
37920	60672	6	4	79	0	48
37920	60672	6	4	81	48	48
37920	60672	6	4	86	51	48
37920	60672	7	5	38	67	35
37920	60672	7	5	43	0	35
37920	60672	7	5	45	0	35
37920	60672	7	5	45	67	35
37926	60681	9	6	35	72	0
37926	60681	9	6	42	0	0
37926	60681	9	6	42	72	0
37950	60720	5	3	53	0	25
37950	60720	5	3	57	0	25
37950	60720	5	3	62	0	25
37980	60768	4	2	57	51	4
37980	60768	5	3	53	59	25
37980	60768	5	3	57	59	25
37980	60768	5	3	62	59	25
37986	60777	9	6	35	0	0
37986	60777	9	6	35	72	0
37986	60777	9	6	42	0	0
37986	60777	9	6	42	72	0
38010	60816	4	2	50	0	4
38010	60816	5	3	53	0	25
38010	60816	5	3	57	0	25
38010	60816	5	3	62	0	25
38040	60864	3	1	53	0	1
38040	60864	3	1	57	0	1
38040	60864	3	1	62	0	1
38040	60864	4	2	62	51	4
38040	60864	5	3	53	60	25
38040	60864	5	3	57	60	25
38040	60864	5	3	62	60	25
38046	60873	9	6	35	0	0
38046	60873	9	6	38	72	0
38046	60873	9	6	42	0	0
38046	60873	9	6	42	72	0
38070	60912	5	3	53	0	25
38070	60912	5	3	57	0	25
38070	60912	5	3	62	0	25
38070	60912	7	5	38	0	35
38100	60960	3	1	53	60	1
38100	60960	3	1	57	60	1
38100	60960	3	1	62	60	1
38100	60960	4	2	62	0	4
38100	60960	4	2	65	52	4
38100	60960	5	3	53	60	25
38100	60960	5	3	57	60	25
38100	60960	5	3	62	60	25
38100	60960	7	5	38	67	35
38106	60969	9	6	38	0	0
38106	60969	9	6	42	0	0
38106	60969	9	6	42	72	0
38130	61008	7	5	38	0	35
38136	61017	9	6	38	72	0
38136	61017	9	6	42	0	0
38160	61056	4	2	57	0	4
38160	61056	4	2	65	0	4
38160	61056	4	2	69	52	4
38160	61056	7	5	38	68	35
38166	61065	9	6	35	72	0
38166	61065	9	6	38	0	0
38166	61065	9	6	42	72	0
38196	61113	9	6	38	72	0
38196	61113	9	6	42	0	0
38218	61148	7	5	38	0	35
38220	61152	4	2	65	52	4
38220	61152	4	2	69	0	4
38220	61152	7	5	33	68	35
38226	61161	9	6	35	0	0
38226	61161	9	6	35	72	0
38226	61161	9	6	38	0	0
38226	61161	9	6	42	72	0
38250	61200	7	5	29	68	35
38250	61200	7	5	33	0	35
38279	61246	1	1	77	0	1
38279	61246	1	7	77	0	39
38280	61248	4	2	62	52	4
38280	61248	4	2	65	0	4
38280	61248	5	3	53	0	25
38280	61248	5	3	57	0	25
38280	61248	7	5	29	0	35
38280	61248	7	5	38	68	35
38286	61257	9	6	35	0	0
38286	61257	9	6	38	72	0
38286	61257	9	6	42	0	0
38286	61257	9	6	42	72	0
38310	61296	5	3	62	0	25
38340	61344	3	1	53	0	1
38340	61344	3	1	57	0	1
38340	61344	3	1	62	0	1
38340	61344	4	2	57	52	4
38346	61353	9	6	38	0	0
38346	61353	9	6	42	0	0
38346	61353	9	6	42	72	0
38370	61392	4	2	62	0	4
38376	61401	6	4	86	0	48
38397	61435	4	2	57	0	4
38397	61435	7	5	38	0	35
38399	61438	6	4	81	0	48
38400	61440	1	1	76	80	1
38400	61440	4	2	58	56	4
38400	61440	6	4	58	36	48
38400	61440	6	4	69	34	48
38400	61440	6	4	74	48	48
38400	61440	7	5	46	62	35
38406	61449	9	6	35	72	0
38406	61449	9	6	42	0	0
38406	61449	9	6	42	72	0
38429	61486	1	1	76	0	1
38430	61488	1	1	77	80	1
38459	61534	1	1	77	0	1
38460	61536	1	1	79	80	1
38460	61536	4	2	65	53	4
38466	61545	9	6	35	0	0
38466	61545	9	6	35	72	0
38466	61545	9	6	42	0	0
38466	61545	9	6	42	72	0
38489	61582	1	1	79	0	1
38490	61584	1	1	81	80	1
38520	61632	4	2	69	53	4
38526	61641	9	6	35	0	0
38526	61641	9	6	38	72	0
38526	61641	9	6	42	0	0
38526	61641	9	6	42	72	0
38549	61678	1	1	81	0	1
38550	61680	1	1	72	80	1
38572	61715	4	2	58	0	4
38579	61726	1	1	72	0	1
38580	61728	1	1	84	80	1
38580	61728	4	2	74	56	4
38586	61737	9	6	38	0	0
38586	61737	9	6	42	0	0
38586	61737	9	6	42	72	0
38601	61761	7	5	46	0	35
38609	61774	1	1	84	0	1
38610	61776	1	1	81	80	1
38616	61785	9	6	38	72	0
38616	61785	9	6	42	0	0
38637	61819	4	2	74	0	4
38640	61824	4	2	55	53	4
38640	61824	4	2	60	53	4
38640	61824	4	2	65	0	4
38640	61824	4	2	67	56	4
38640	61824	4	2	69	0	4
38640	61824	6	4	48	36	48
38640	61824	6	4	58	0	48
38640	61824	6	4	60	34	48
38640	61824	6	4	64	48	48
38640	61824	6	4	69	0	48
38640	61824	6	4	74	0	48
38640	61824	7	5	36	68	35
38646	61833	9	6	35	72	0
38646	61833	9	6	38	0	0
38646	61833	9	6	42	72	0
38676	61881	9	6	38	72	0
38676	61881	9	6	42	0	0
38697	61915	4	2	67	0	4
38700	61920	4	2	64	39	4
38706	61929	9	6	35	0	0
38706	61929	9	6	35	72	0
38706	61929	9	6	38	0	0
38706	61929	9	6	42	72	0
38730	61968	5	3	55	53	25
38755	62008	7	5	36	0	35
38757	62011	4	2	64	0	4
38760	62016	4	2	72	56	4
38760	62016	5	3	60	62	25
38760	62016	5	3	64	68	25
38760	62016	7	5	40	65	35
38766	62025	9	6	35	0	0
38766	62025	9	6	38	72	0
38766	62025	9	6	42	0	0
38766	62025	9	6	42	72	0
38816	62105	5	3	55	0	25
38817	62107	4	2	72	0	4
38817	62107	5	3	60	0	25
38817	62107	5	3	64	0	25
38817	62107	7	5	40	0	35
38820	62112	4	2	67	45	4
38820	62112	7	5	31	59	35
38826	62121	9	6	38	0	0
38826	62121	9	6	42	0	0
38826	62121	9	6	42	72	0
38861	62177	6	4	48	0	48
38863	62180	4	2	55	0	4
38865	62184	4	2	60	0	4
38877	62203	4	2	67	0	4
38877	62203	7	5	31	0	35
38879	62206	1	1	81	0	1
38880	62208	1	1	76	80	1
38880	62208	4	2	57	56	4
38880	62208	6	4	60	0	48
38880	62208	6	4	64	0	48
38880	62208	6	4	67	34	48
38880	62208	6	4	72	48	48
38880	62208	6	4	76	45	48
38880	62208	7	5	45	65	35
38886	62217	9	6	35	72	0
38886	62217	9	6	42	0	0
38886	62217	9	6	42	72	0
38909	62254	1	1	76	0	1
38910	62256	1	1	77	80	1
38939	62302	1	1	77	0	1
38940	62304	1	1	79	80	1
38940	62304	4	2	64	53	4
38946	62313	9	6	35	0	0
38946	62313	9	6	35	72	0
38946	62313	9	6	42	0	0
38946	62313	9	6	42	72	0
38969	62350	1	1	79	0	1
38970	62352	1	1	81	80	1
39000	62400	4	2	67	53	4
39006	62409	9	6	35	0	0
39006	62409	9	6	38	72	0
39006	62409	9	6	42	0	0
39006	62409	9	6	42	72	0
39029	62446	1	1	81	0	1
39030	62448	1	1	72	80	1
39052	62483	4	2	57	0	4
39059	62494	1	1	72	0	1
39060	62496	1	1	84	80	1
39060	62496	4	2	72	56	4
39066	62505	9	6	38	0	0
39066	62505	9	6	42	0	0
39066	62505	9	6	42	72	0
39081	62529	7	5	45	0	35
39089	62542	1	1	84	0	1
39090	62544	1	1	81	80	1
39096	62553	9	6	38	72	0
39096	62553	9	6	42	0	0
39117	62587	4	2	72	0	4
39119	62590	1	1	81	0	1
39120	62592	1	1	79	80	1
39120	62592	4	2	57	53	4
39120	62592	4	2	60	53	4
39120	62592	4	2	64	0	4
39120	62592	4	2	67	0	4
39120	62592	4	2	69	56	4
39120	62592	6	4	60	34	48
39120	62592	6	4	65	48	48
39120	62592	6	4	67	0	48
39120	62592	6	4	69	45	48
39120	62592	6	4	72	0	48
39120	62592	6	4	76	0	48
39120	62592	7	5	38	65	35
39126	62601	9	6	35	72	0
39126	62601	9	6	38	0	0
39126	62601	9	6	42	72	0
39149	62638	1	1	79	0	1
39150	62640	1	1	81	80	1
39156	62649	9	6	38	72	0
39156	62649	9	6	42	0	0
39177	62683	4	2	69	0	4
39179	62686	1	1	81	0	1
39180	62688	1	1	77	80	1
39180	62688	4	2	65	39	4
39186	62697	9	6	35	0	0
39186	62697	9	6	35	72	0
39186	62697	9	6	38	0	0
39186	62697	9	6	42	72	0
39209	62734	1	1	77	0	1
39210	62736	1	1	79	80	1
39210	62736	5	3	57	53	25
39237	62779	4	2	65	0	4
39239	62782	1	1	79	0	1
39240	62784	1	1	76	80	1
39240	62784	4	2	69	56	4
39240	62784	5	3	62	62	25
39240	62784	5	3	65	68	25
39246	62793	9	6	35	0	0
39246	62793	9	6	38	72	0
39246	62793	9	6	42	0	0
39246	62793	9	6	42	72	0
39269	62830	1	1	76	0	1
39270	62832	1	1	77	80	1
39292	62867	7	5	38	0	35
39296	62873	5	3	57	0	25
39297	62875	4	2	69	0	4
39297	62875	5	3	62	0	25
39297	62875	5	3	65	0	25
39299	62878	1	1	77	0	1
39300	62880	1	1	72	80	1
39300	62880	4	2	65	45	4
39300	62880	7	5	33	68	35
39306	62889	9	6	38	0	0
39306	62889	9	6	42	0	0
39306	62889	9	6	50	72	0
39321	62913	6	4	60	0	48
39321	62913	6	4	65	0	48
39336	62937	9	6	50	0	0
39336	62937	9	6	50	72	0
39341	62945	6	4	69	0	48
39343	62948	4	2	57	0	4
39345	62952	4	2	60	0	4
39357	62971	4	2	65	0	4
39357	62971	7	5	33	0	35
39359	62974	1	1	72	0	1
39360	62976	1	1	76	80	1
39360	62976	4	2	58	56	4
39360	62976	6	4	58	41	48
39360	62976	6	4	69	36	48
39360	62976	6	4	74	46	48
39360	62976	7	5	46	72	35
39366	62985	9	6	35	72	0
39366	62985	9	6	49	72	0
39366	62985	9	6	50	0	0
39389	63022	1	1	76	0	1
39390	63024	1	1	77	80	1
39419	63070	1	1	77	0	1
39420	63072	1	1	79	80	1
39420	63072	4	2	65	53	4
39426	63081	9	6	35	0	0
39426	63081	9	6	35	72	0
39426	63081	9	6	42	72	0
39426	63081	9	6	49	0	0
39449	63118	1	1	79	0	1
39450	63120	1	1	81	80	1
39480	63168	4	2	69	53	4
39486	63177	9	6	35	0	0
39486	63177	9	6	38	72	0
39486	63177	9	6	42	0	0
39486	63177	9	6	42	72	0
39509	63214	1	1	81	0	1
39510	63216	1	1	72	80	1
39532	63251	4	2	58	0	4
39539	63262	1	1	72	0	1
39540	63264	1	1	84	80	1
39540	63264	4	2	74	56	4
39546	63273	9	6	38	0	0
39546	63273	9	6	42	0	0
39546	63273	9	6	42	72	0
39561	63297	7	5	46	0	35
39569	63310	1	1	84	0	1
39570	63312	1	1	81	80	1
39597	63355	4	2	74	0	4
39600	63360	4	2	55	53	4
39600	63360	4	2	60	53	4
39600	63360	4	2	65	0	4
39600	63360	4	2	67	56	4
39600	63360	4	2	69	0	4
39600	63360	6	4	48	41	48
39600	63360	6	4	58	0	48
39600	63360	6	4	60	36	48
39600	63360	6	4	64	46	48
39600	63360	6	4	69	0	48
39600	63360	6	4	74	0	48
39600	63360	7	5	36	65	35
39606	63369	9	6	35	72	0
39606	63369	9	6	42	0	0
39606	63369	9	6	42	72	0
39636	63417	9	6	38	72	0
39636	63417	9	6	42	0	0
39657	63451	4	2	67	0	4
39660	63456	4	2	64	39	4
39666	63465	9	6	35	0	0
39666	63465	9	6	35	72	0
39666	63465	9	6	38	0	0
39666	63465	9	6	42	72	0
39690	63504	5	3	55	53	25
39715	63544	7	5	36	0	35
39717	63547	4	2	64	0	4
39720	63552	4	2	72	56	4
39720	63552	5	3	60	62	25
39720	63552	5	3	64	68	25
39720	63552	7	5	40	72	35
39726	63561	9	6	35	0	0
39726	63561	9	6	38	72	0
39726	63561	9	6	42	0	0
39726	63561	9	6	42	72	0
39776	63641	5	3	55	0	25
39777	63643	4	2	72	0	4
39777	63643	5	3	60	0	25
39777	63643	5	3	64	0	25
39777	63643	7	5	40	0	35
39780	63648	4	2	67	45	4
39780	63648	7	5	31	68	35
39786	63657	9	6	38	0	0
39786	63657	9	6	42	0	0
39786	63657	9	6	42	72	0
39821	63713	6	4	48	0	48
39821	63713	6	4	60	0	48
39821	63713	6	4	64	0	48
39823	63716	4	2	55	0	4
39825	63720	4	2	60	0	4
39837	63739	4	2	67	0	4
39837	63739	7	5	31	0	35
39839	63742	1	1	81	0	1
39840	63744	1	1	76	80	1
39840	63744	4	2	57	56	4
39840	63744	6	4	67	44	48
39840	63744	6	4	72	44	48
39840	63744	6	4	76	48	48
39840	63744	7	5	45	65	35
39846	63753	9	6	35	72	0
39846	63753	9	6	42	0	0
39846	63753	9	6	42	72	0
39869	63790	1	1	76	0	1
39870	63792	1	1	77	80	1
39899	63838	1	1	77	0	1
39900	63840	1	1	79	80	1
39900	63840	4	2	64	53	4
39906	63849	9	6	35	0	0
39906	63849	9	6	35	72	0
39906	63849	9	6	42	0	0
39906	63849	9	6	42	72	0
39929	63886	1	1	79	0	1
39929	63886	1	1	81	80	1
39960	63936	4	2	67	53	4
39966	63945	9	6	35	0	0
39966	63945	9	6	38	72	0
39966	63945	9	6	42	0	0
39966	63945	9	6	42	72	0
39989	63982	1	1	81	0	1
39990	63984	1	1	72	80	1
40012	64019	4	2	57	0	4
40018	64028	1	1	72	0	1
40020	64032	1	1	84	80	1
40020	64032	4	2	72	56	4
40026	64041	9	6	38	0	0
40026	64041	9	6	42	0	0
40026	64041	9	6	42	72	0
40041	64065	7	5	45	0	35
40049	64078	1	1	84	0	1
40050	64080	1	1	81	80	1
40056	64089	9	6	38	72	0
40056	64089	9	6	42	0	0
40077	64123	4	2	72	0	4
40079	64126	1	1	81	0	1
40080	64128	1	1	79	80	1
40080	64128	4	2	57	53	4
40080	64128	4	2	60	53	4
40080	64128	4	2	64	0	4
40080	64128	4	2	67	0	4
40080	64128	4	2	69	56	4
40080	64128	6	4	60	44	48
40080	64128	6	4	65	44	48
40080	64128	6	4	67	0	48
40080	64128	6	4	69	48	48
40080	64128	6	4	72	0	48
40080	64128	6	4	76	0	48
40080	64128	7	5	38	65	35
40086	64137	9	6	35	72	0
40086	64137	9	6	38	0	0
40086	64137	9	6	42	72	0
40109	64174	1	1	79	0	1
40110	64176	1	1	81	80	1
40116	64185	9	6	38	72	0
40116	64185	9	6	42	0	0
40137	64219	4	2	69	0	4
40138	64220	1	1	81	0	1
40140	64224	1	1	77	80	1
40140	64224	4	2	65	39	4
40146	64233	9	6	35	0	0
40146	64233	9	6	35	72	0
40146	64233	9	6	38	0	0
40146	64233	9	6	42	72	0
40169	64270	1	1	77	0	1
40170	64272	1	1	79	80	1
40170	64272	5	3	57	53	25
40197	64315	4	2	65	0	4
40199	64318	1	1	76	80	1
40199	64318	1	1	79	0	1
40200	64320	4	2	69	56	4
40200	64320	5	3	62	62	25
40200	64320	5	3	65	68	25
40206	64329	9	6	35	0	0
40206	64329	9	6	38	72	0
40206	64329	9	6	42	0	0
40206	64329	9	6	42	72	0
40229	64366	1	1	76	0	1
40230	64368	1	1	77	80	1
40256	64409	5	3	57	0	25
40257	64411	4	2	69	0	4
40257	64411	5	3	62	0	25
40257	64411	5	3	65	0	25
40259	64414	1	1	77	0	1
40260	64416	1	1	72	80	1
40260	64416	4	2	65	45	4
40266	64425	9	6	38	0	0
40266	64425	9	6	42	0	0
40266	64425	9	6	42	72	0
40272	64435	6	4	60	0	48
40272	64435	6	4	65	0	48
40272	64435	6	4	69	0	48
40281	64449	7	5	38	0	35
40303	64484	4	2	57	0	4
40305	64488	4	2	60	0	4
40317	64507	4	2	65	0	4
40319	64510	1	1	72	0	1
40320	64512	1	1	76	80	1
40320	64512	4	2	58	56	4
40320	64512	6	4	58	36	48
40320	64512	6	4	69	34	48
40320	64512	6	4	74	48	48
40320	64512	7	5	46	62	35
40326	64521	9	6	35	72	0
40326	64521	9	6	42	0	0
40326	64521	9	6	42	72	0
40349	64558	1	1	76	0	1
40350	64560	1	1	77	80	1
40379	64606	1	1	77	0	1
40379	64606	1	1	79	80	1
40380	64608	4	2	65	53	4
40386	64617	9	6	35	0	0
40386	64617	9	6	35	72	0
40386	64617	9	6	42	0	0
40386	64617	9	6	42	72	0
40408	64652	1	1	79	0	1
40410	64656	1	1	81	80	1
40440	64704	4	2	69	53	4
40446	64713	9	6	35	0	0
40446	64713	9	6	38	72	0
40446	64713	9	6	42	0	0
40446	64713	9	6	42	72	0
40469	64750	1	1	81	0	1
40470	64752	1	1	72	80	1
40492	64787	4	2	58	0	4
40499	64798	1	1	72	0	1
40499	64798	1	1	84	80	1
40500	64800	4	2	74	56	4
40506	64809	9	6	38	0	0
40506	64809	9	6	42	0	0
40506	64809	9	6	42	72	0
40521	64833	7	5	46	0	35
40529	64846	1	1	84	0	1
40530	64848	1	1	81	80	1
40536	64857	9	6	38	72	0
40536	64857	9	6	42	0	0
40557	64891	4	2	74	0	4
40560	64896	4	2	55	53	4
40560	64896	4	2	60	53	4
40560	64896	4	2	65	0	4
40560	64896	4	2	67	56	4
40560	64896	4	2	69	0	4
40560	64896	6	4	48	36	48
40560	64896	6	4	58	0	48
40560	64896	6	4	60	34	48
40560	64896	6	4	64	48	48
40560	64896	6	4	69	0	48
40560	64896	6	4	74	0	48
40560	64896	7	5	36	68	35
40566	64905	9	6	35	72	0
40566	64905	9	6	38	0	0
40566	64905	9	6	42	72	0
40596	64953	9	6	38	72	0
40596	64953	9	6	42	0	0
40617	64987	4	2	67	0	4
40620	64992	4	2	64	39	4
40626	65001	9	6	35	0	0
40626	65001	9	6	35	72	0
40626	65001	9	6	38	0	0
40626	65001	9	6	42	72	0
40650	65040	5	3	55	53	25
40675	65080	7	5	36	0	35
40677	65083	4	2	64	0	4
40680	65088	4	2	72	56	4
40680	65088	5	3	60	62	25
40680	65088	5	3	64	68	25
40680	65088	7	5	40	65	35
40686	65097	9	6	35	0	0
40686	65097	9	6	38	72	0
40686	65097	9	6	42	0	0
40686	65097	9	6	42	72	0
40736	65177	5	3	55	0	25
40737	65179	4	2	72	0	4
40737	65179	5	3	60	0	25
40737	65179	5	3	64	0	25
40737	65179	7	5	40	0	35
40740	65184	4	2	67	45	4
40740	65184	7	5	31	59	35
40746	65193	9	6	38	0	0
40746	65193	9	6	42	0	0
40746	65193	9	6	42	72	0
40781	65249	6	4	48	0	48
40783	65252	4	2	55	0	4
40785	65256	4	2	60	0	4
40797	65275	4	2	67	0	4
40797	65275	7	5	31	0	35
40799	65278	1	1	81	0	1
40800	65280	1	1	62	80	1
40800	65280	1	1	67	80	1
40800	65280	4	2	50	56	4
40800	65280	6	4	60	0	48
40800	65280	6	4	62	34	48
40800	65280	6	4	64	0	48
40800	65280	6	4	67	48	48
40800	65280	6	4	69	45	48
40800	65280	7	5	38	65	35
40806	65289	9	6	35	72	0
40806	65289	9	6	42	0	0
40806	65289	9	6	42	72	0
40860	65376	4	2	57	53	4
40866	65385	9	6	35	0	0
40866	65385	9	6	35	72	0
40866	65385	9	6	42	0	0
40866	65385	9	6	42	72	0
40920	65472	4	2	62	53	4
40926	65481	9	6	35	0	0
40926	65481	9	6	38	72	0
40926	65481	9	6	42	0	0
40926	65481	9	6	42	72	0
40972	65555	4	2	50	0	4
40980	65568	4	2	67	56	4
40986	65577	9	6	38	0	0
40986	65577	9	6	42	0	0
40986	65577	9	6	42	72	0
41001	65601	7	5	38	0	35
41016	65625	9	6	38	72	0
41016	65625	9	6	42	0	0
41037	65659	4	2	67	0	4
41039	65662	1	1	62	0	1
41039	65662	1	1	67	0	1
41040	65664	1	1	62	80	1
41040	65664	1	1	66	80	1
41040	65664	4	2	57	0	4
41040	65664	4	2	57	53	4
41040	65664	4	2	62	0	4
41040	65664	4	2	62	53	4
41040	65664	4	2	69	56	4
41040	65664	6	4	62	0	48
41040	65664	6	4	62	34	48
41040	65664	6	4	66	48	48
41040	65664	6	4	67	0	48
41040	65664	6	4	69	0	48
41040	65664	6	4	69	45	48
41040	65664	7	5	38	65	35
41046	65673	9	6	38	0	0
41046	65673	9	6	38	72	0
41076	65721	9	6	38	0	0
41076	65721	9	6	38	72	0
41097	65755	4	2	69	0	4
41100	65760	4	2	66	39	4
41106	65769	9	6	38	0	0
41106	65769	9	6	38	72	0
41130	65808	5	3	57	53	25
41136	65817	9	6	38	0	0
41136	65817	9	6	38	72	0
41157	65851	4	2	66	0	4
41160	65856	4	2	69	56	4
41160	65856	5	3	62	62	25
41160	65856	5	3	66	68	25
41166	65865	9	6	38	0	0
41166	65865	9	6	38	72	0
41196	65913	9	6	38	0	0
41196	65913	9	6	38	72	0
41212	65939	7	5	38	0	35
41216	65945	5	3	57	0	25
41217	65947	4	2	69	0	4
41217	65947	5	3	62	0	25
41217	65947	5	3	66	0	25
41220	65952	4	2	66	45	4
41220	65952	7	5	33	68	35
41226	65961	9	6	38	0	0
41226	65961	9	6	38	72	0
41241	65985	6	4	62	0	48
41241	65985	6	4	66	0	48
41256	66009	9	6	38	0	0
41256	66009	9	6	38	72	0
41261	66017	6	4	69	0	48
41263	66020	4	2	57	0	4
41265	66024	4	2	62	0	4
41277	66043	4	2	66	0	4
41277	66043	7	5	33	0	35
41279	66046	1	1	0	0	1
41279	66046	1	1	62	0	1
41279	66046	1	1	66	0	1
41279	66046	3	1	0	0	1
41280	66048	9	6	49	90	0
41286	66057	9	6	38	0	0
41286	66057	9	6	49	0	0
