time	duration	track	channel	instrument	pitch	velocity	bar	beat
0	87873	1	0	48	65	120	0.000000	0.000000
0	87873	1	0	48	70	120	0.000000	0.000000
0	87873	1	0	48	77	120	0.000000	0.000000
0	87873	2	1	48	63	120	0.000000	0.000000
0	87873	2	1	48	70	120	0.000000	0.000000
175746	87873	2	1	48	63	120	0.125000	0.500000
175746	87873	2	1	48	70	120	0.125000	0.500000
527239	87873	2	1	48	63	120	0.375000	1.500000
527239	87873	2	1	48	70	120	0.375000	1.500000
702986	87873	1	0	48	77	120	0.500000	2.000000
702986	87873	1	0	48	82	120	0.500000	2.000000
702986	87873	1	0	48	89	120	0.500000	2.000000
702986	87873	2	1	48	63	120	0.500000	2.000000
702986	87873	2	1	48	70	120	0.500000	2.000000
878732	87873	2	1	48	63	120	0.625000	2.500000
878732	87873	2	1	48	70	120	0.625000	2.500000
1230225	87873	2	1	48	63	120	0.875000	3.500000
1230225	87873	2	1	48	70	120	0.875000	3.500000
1405972	87873	1	0	48	72	120	1.000000	4.000000
1405972	87873	1	0	48	77	120	1.000000	4.000000
1405972	87873	1	0	48	84	120	1.000000	4.000000
1405972	87873	2	1	48	63	120	1.000000	4.000000
1405972	87873	2	1	48	70	120	1.000000	4.000000
1581718	87873	2	1	48	63	120	1.125000	4.500000
1581718	87873	2	1	48	70	120	1.125000	4.500000
1933211	87873	2	1	48	63	120	1.375000	5.500000
1933211	87873	2	1	48	70	120	1.375000	5.500000
2108958	87873	2	1	48	63	120	1.500000	6.000000
2108958	87873	2	1	48	70	120	1.500000	6.000000
2284704	87873	2	1	48	63	120	1.625000	6.500000
2284704	87873	2	1	48	70	120	1.625000	6.500000
2460451	87873	2	1	48	63	120	1.750000	7.000000
2460451	87873	2	1	48	70	120	1.750000	7.000000
2636197	87873	2	1	48	65	120	1.875000	7.500000
2636197	87873	2	1	48	72	120	1.875000	7.500000
2811944	87873	1	0	48	70	120	2.000000	8.000000
2811944	87873	1	0	48	77	120	2.000000	8.000000
2811944	87873	1	0	48	82	120	2.000000	8.000000
2811944	87873	2	1	48	63	120	2.000000	8.000000
2811944	87873	2	1	48	70	120	2.000000	8.000000
2987690	87873	2	1	48	63	120	2.125000	8.500000
2987690	87873	2	1	48	70	120	2.125000	8.500000
3339183	87873	2	1	48	63	120	2.375000	9.500000
3339183	87873	2	1	48	70	120	2.375000	9.500000
3514930	87873	1	0	48	77	120	2.500000	10.000000
3514930	87873	1	0	48	82	120	2.500000	10.000000
3514930	87873	1	0	48	89	120	2.500000	10.000000
3514930	87873	2	1	48	63	120	2.500000	10.000000
3514930	87873	2	1	48	70	120	2.500000	10.000000
3690676	87873	2	1	48	63	120	2.625000	10.500000
3690676	87873	2	1	48	70	120	2.625000	10.500000
4042169	87873	2	1	48	63	120	2.875000	11.500000
4042169	87873	2	1	48	70	120	2.875000	11.500000
4217916	87873	1	0	48	65	120	3.000000	12.000000
4217916	87873	1	0	48	70	120	3.000000	12.000000
4217916	87873	1	0	48	77	120	3.000000	12.000000
4217916	87873	2	1	48	63	120	3.000000	12.000000
4217916	87873	2	1	48	70	120	3.000000	12.000000
4393662	87873	2	1	48	63	120	3.125000	12.500000
4393662	87873	2	1	48	70	120	3.125000	12.500000
4745155	87873	2	1	48	63	120	3.375000	13.500000
4745155	87873	2	1	48	70	120	3.375000	13.500000
4920902	87873	2	1	48	63	120	3.500000	14.000000
4920902	87873	2	1	48	70	120	3.500000	14.000000
5096648	87873	2	1	48	63	120	3.625000	14.500000
5096648	87873	2	1	48	70	120	3.625000	14.500000
5272395	87873	2	1	48	63	120	3.750000	15.000000
5272395	87873	2	1	48	70	120	3.750000	15.000000
5448141	87873	2	1	48	65	120	3.875000	15.500000
5448141	87873	2	1	48	72	120	3.875000	15.500000
5623888	87873	1	0	48	65	120	4.000000	16.000000
5623888	87873	1	0	48	69	120	4.000000	16.000000
5623888	87873	1	0	48	77	120	4.000000	16.000000
5623888	87873	2	1	48	62	120	4.000000	16.000000
5623888	87873	2	1	48	69	120	4.000000	16.000000
5799634	87873	2	1	48	62	120	4.125000	16.500000
5799634	87873	2	1	48	69	120	4.125000	16.500000
6151127	87873	2	1	48	62	120	4.375000	17.500000
6151127	87873	2	1	48	69	120	4.375000	17.500000
6326874	87873	1	0	48	69	120	4.500000	18.000000
6326874	87873	1	0	48	77	120	4.500000	18.000000
6326874	87873	1	0	48	81	120	4.500000	18.000000
6326874	87873	2	1	48	62	120	4.500000	18.000000
6326874	87873	2	1	48	69	120	4.500000	18.000000
6502620	87873	2	1	48	62	120	4.625000	18.500000
6502620	87873	2	1	48	69	120	4.625000	18.500000
6854113	87873	2	1	48	62	120	4.875000	19.500000
6854113	87873	2	1	48	69	120	4.875000	19.500000
7029860	87873	1	0	48	81	120	5.000000	20.000000
7029860	87873	1	0	48	84	120	5.000000	20.000000
7029860	87873	1	0	48	93	120	5.000000	20.000000
7029860	87873	2	1	48	62	120	5.000000	20.000000
7029860	87873	2	1	48	69	120	5.000000	20.000000
7205606	87873	2	1	48	62	120	5.125000	20.500000
7205606	87873	2	1	48	69	120	5.125000	20.500000
7557099	87873	2	1	48	62	120	5.375000	21.500000
7557099	87873	2	1	48	69	120	5.375000	21.500000
7732846	87873	2	1	48	62	120	5.500000	22.000000
7732846	87873	2	1	48	69	120	5.500000	22.000000
7908592	87873	2	1	48	62	120	5.625000	22.500000
7908592	87873	2	1	48	69	120	5.625000	22.500000
8084339	87873	1	0	48	82	120	5.750000	23.000000
8084339	87873	1	0	48	86	120	5.750000	23.000000
8084339	87873	1	0	48	94	120	5.750000	23.000000
8084339	87873	2	1	48	62	120	5.750000	23.000000
8084339	87873	2	1	48	69	120	5.750000	23.000000
8435832	87873	1	0	48	81	120	6.000000	24.000000
8435832	87873	1	0	48	84	120	6.000000	24.000000
8435832	87873	1	0	48	93	120	6.000000	24.000000
8435832	87873	2	1	48	67	120	6.000000	24.000000
8435832	87873	2	1	48	79	120	6.000000	24.000000
8611578	87873	2	1	48	67	120	6.125000	24.500000
8611578	87873	2	1	48	79	120	6.125000	24.500000
8963071	87873	2	1	48	67	120	6.375000	25.500000
8963071	87873	2	1	48	79	120	6.375000	25.500000
9138818	87873	1	0	48	77	120	6.500000	26.000000
9138818	87873	1	0	48	81	120	6.500000	26.000000
9138818	87873	1	0	48	89	120	6.500000	26.000000
9138818	87873	2	1	48	69	120	6.500000	26.000000
9138818	87873	2	1	48	81	120	6.500000	26.000000
9314564	87873	2	1	48	69	120	6.625000	26.500000
9314564	87873	2	1	48	81	120	6.625000	26.500000
9666057	87873	2	1	48	69	120	6.875000	27.500000
9666057	87873	2	1	48	81	120	6.875000	27.500000
9841804	87873	1	0	48	74	120	7.000000	28.000000
9841804	87873	1	0	48	77	120	7.000000	28.000000
9841804	87873	1	0	48	86	120	7.000000	28.000000
9841804	87873	2	1	48	69	120	7.000000	28.000000
9841804	87873	2	1	48	81	120	7.000000	28.000000
10017550	87873	2	1	48	70	120	7.125000	28.500000
10017550	87873	2	1	48	82	120	7.125000	28.500000
10193297	87873	2	1	48	69	120	7.250000	29.000000
10193297	87873	2	1	48	81	120	7.250000	29.000000
10369043	87873	2	1	48	65	120	7.375000	29.500000
10369043	87873	2	1	48	70	120	7.375000	29.500000
10369043	87873	2	1	48	82	120	7.375000	29.500000
10544790	87873	2	1	48	62	120	7.500000	30.000000
10544790	87873	2	1	48	69	120	7.500000	30.000000
10544790	87873	2	1	48	81	120	7.500000	30.000000
10720536	87873	2	1	48	60	120	7.625000	30.500000
10720536	87873	2	1	48	65	120	7.625000	30.500000
10720536	87873	2	1	48	77	120	7.625000	30.500000
10896283	87873	2	1	48	58	120	7.750000	31.000000
10896283	87873	2	1	48	74	120	7.750000	31.000000
11072029	87873	2	1	48	57	120	7.875000	31.500000
11072029	87873	2	1	48	65	120	7.875000	31.500000
11072029	87873	2	1	48	72	120	7.875000	31.500000
11247776	87873	1	0	48	65	120	8.000000	32.000000
11247776	87873	1	0	48	70	120	8.000000	32.000000
11247776	87873	1	0	48	77	120	8.000000	32.000000
11247776	87873	2	1	48	58	120	8.000000	32.000000
11247776	87873	2	1	48	63	120	8.000000	32.000000
11247776	87873	2	1	48	70	120	8.000000	32.000000
11423522	87873	2	1	48	63	120	8.125000	32.500000
11423522	87873	2	1	48	70	120	8.125000	32.500000
11775015	87873	2	1	48	63	120	8.375000	33.500000
11775015	87873	2	1	48	70	120	8.375000	33.500000
11950762	87873	1	0	48	77	120	8.500000	34.000000
11950762	87873	1	0	48	82	120	8.500000	34.000000
11950762	87873	1	0	48	89	120	8.500000	34.000000
11950762	87873	2	1	48	63	120	8.500000	34.000000
11950762	87873	2	1	48	70	120	8.500000	34.000000
12126508	87873	2	1	48	63	120	8.625000	34.500000
12126508	87873	2	1	48	70	120	8.625000	34.500000
12478001	87873	2	1	48	63	120	8.875000	35.500000
12478001	87873	2	1	48	70	120	8.875000	35.500000
12653748	87873	1	0	48	72	120	9.000000	36.000000
12653748	87873	1	0	48	77	120	9.000000	36.000000
12653748	87873	1	0	48	84	120	9.000000	36.000000
12653748	87873	2	1	48	63	120	9.000000	36.000000
12653748	87873	2	1	48	70	120	9.000000	36.000000
12829494	87873	2	1	48	63	120	9.125000	36.500000
12829494	87873	2	1	48	70	120	9.125000	36.500000
13180987	87873	2	1	48	63	120	9.375000	37.500000
13180987	87873	2	1	48	70	120	9.375000	37.500000
13356734	87873	2	1	48	63	120	9.500000	38.000000
13356734	87873	2	1	48	70	120	9.500000	38.000000
13532480	87873	2	1	48	63	120	9.625000	38.500000
13532480	87873	2	1	48	70	120	9.625000	38.500000
13708227	87873	2	1	48	63	120	9.750000	39.000000
13708227	87873	2	1	48	70	120	9.750000	39.000000
13883973	87873	2	1	48	65	120	9.875000	39.500000
13883973	87873	2	1	48	72	120	9.875000	39.500000
14059720	87873	1	0	48	70	120	10.000000	40.000000
14059720	87873	1	0	48	77	120	10.000000	40.000000
14059720	87873	1	0	48	82	120	10.000000	40.000000
14059720	87873	2	1	48	63	120	10.000000	40.000000
14059720	87873	2	1	48	70	120	10.000000	40.000000
14235466	87873	2	1	48	63	120	10.125000	40.500000
14235466	87873	2	1	48	70	120	10.125000	40.500000
14586959	87873	2	1	48	63	120	10.375000	41.500000
14586959	87873	2	1	48	70	120	10.375000	41.500000
14762706	87873	1	0	48	77	120	10.500000	42.000000
14762706	87873	1	0	48	82	120	10.500000	42.000000
14762706	87873	1	0	48	89	120	10.500000	42.000000
14762706	87873	2	1	48	63	120	10.500000	42.000000
14762706	87873	2	1	48	70	120	10.500000	42.000000
14938452	87873	2	1	48	63	120	10.625000	42.500000
14938452	87873	2	1	48	70	120	10.625000	42.500000
15289945	87873	2	1	48	63	120	10.875000	43.500000
15289945	87873	2	1	48	70	120	10.875000	43.500000
15465692	87873	1	0	48	65	120	11.000000	44.000000
15465692	87873	1	0	48	70	120	11.000000	44.000000
15465692	87873	1	0	48	77	120	11.000000	44.000000
15465692	87873	2	1	48	63	120	11.000000	44.000000
15465692	87873	2	1	48	65	120	11.000000	44.000000
15465692	87873	2	1	48	70	120	11.000000	44.000000
15641438	87873	2	1	48	63	120	11.125000	44.500000
15641438	87873	2	1	48	70	120	11.125000	44.500000
15992931	87873	2	1	48	63	120	11.375000	45.500000
15992931	87873	2	1	48	70	120	11.375000	45.500000
16168678	87873	2	1	48	63	120	11.500000	46.000000
16168678	87873	2	1	48	70	120	11.500000	46.000000
16344424	87873	2	1	48	63	120	11.625000	46.500000
16344424	87873	2	1	48	70	120	11.625000	46.500000
16520171	87873	2	1	48	63	120	11.750000	47.000000
16520171	87873	2	1	48	70	120	11.750000	47.000000
16695917	87873	2	1	48	65	120	11.875000	47.500000
16695917	87873	2	1	48	72	120	11.875000	47.500000
16871664	87873	1	0	48	65	120	12.000000	48.000000
16871664	87873	1	0	48	69	120	12.000000	48.000000
16871664	87873	1	0	48	77	120	12.000000	48.000000
16871664	87873	2	1	48	62	120	12.000000	48.000000
16871664	87873	2	1	48	69	120	12.000000	48.000000
17047410	87873	2	1	48	62	120	12.125000	48.500000
17047410	87873	2	1	48	69	120	12.125000	48.500000
17398903	87873	2	1	48	62	120	12.375000	49.500000
17398903	87873	2	1	48	69	120	12.375000	49.500000
17574650	87873	1	0	48	69	120	12.500000	50.000000
17574650	87873	1	0	48	77	120	12.500000	50.000000
17574650	87873	1	0	48	81	120	12.500000	50.000000
17574650	87873	2	1	48	62	120	12.500000	50.000000
17574650	87873	2	1	48	69	120	12.500000	50.000000
17750396	87873	2	1	48	62	120	12.625000	50.500000
17750396	87873	2	1	48	69	120	12.625000	50.500000
18101889	87873	2	1	48	62	120	12.875000	51.500000
18101889	87873	2	1	48	69	120	12.875000	51.500000
18277636	87873	1	0	48	81	120	13.000000	52.000000
18277636	87873	1	0	48	84	120	13.000000	52.000000
18277636	87873	1	0	48	93	120	13.000000	52.000000
18277636	87873	2	1	48	62	120	13.000000	52.000000
18277636	87873	2	1	48	69	120	13.000000	52.000000
18453382	87873	2	1	48	62	120	13.125000	52.500000
18453382	87873	2	1	48	69	120	13.125000	52.500000
18804875	87873	2	1	48	62	120	13.375000	53.500000
18804875	87873	2	1	48	69	120	13.375000	53.500000
18980622	87873	2	1	48	62	120	13.500000	54.000000
18980622	87873	2	1	48	69	120	13.500000	54.000000
19156368	87873	2	1	48	62	120	13.625000	54.500000
19156368	87873	2	1	48	69	120	13.625000	54.500000
19332115	87873	1	0	48	82	120	13.750000	55.000000
19332115	87873	1	0	48	86	120	13.750000	55.000000
19332115	87873	1	0	48	94	120	13.750000	55.000000
19332115	87873	2	1	48	62	120	13.750000	55.000000
19332115	87873	2	1	48	69	120	13.750000	55.000000
19683608	87873	1	0	48	81	120	14.000000	56.000000
19683608	87873	1	0	48	84	120	14.000000	56.000000
19683608	87873	1	0	48	93	120	14.000000	56.000000
19683608	87873	2	1	48	67	120	14.000000	56.000000
19683608	1405972	16	15	119	57	100	14.000000	56.000000
20386594	87873	1	0	48	77	120	14.500000	58.000000
20386594	87873	1	0	48	81	120	14.500000	58.000000
20386594	87873	1	0	48	89	120	14.500000	58.000000
20386594	87873	2	1	48	69	120	14.500000	58.000000
21089580	87873	1	0	48	74	120	15.000000	60.000000
21089580	87873	1	0	48	77	120	15.000000	60.000000
21089580	87873	1	0	48	86	120	15.000000	60.000000
21089580	87873	2	1	48	70	120	15.000000	60.000000
21265326	175747	3	2	80	82	120	15.125000	60.500000
21265326	175747	12	11	30	70	120	15.125000	60.500000
21353199	43585	10	9	16	47	100	15.187500	60.750000
21396784	44289	10	9	16	47	100	15.218500	60.874000
21441073	175746	3	2	80	81	120	15.250000	61.000000
21441073	175746	10	9	16	47	100	15.250000	61.000000
21441073	175746	12	11	30	69	120	15.250000	61.000000
21616819	175747	3	2	80	77	120	15.375000	61.500000
21616819	175747	10	9	16	47	100	15.375000	61.500000
21616819	175747	12	11	30	65	120	15.375000	61.500000
21792566	175746	3	2	80	74	120	15.500000	62.000000
21792566	175746	10	9	16	45	100	15.500000	62.000000
21792566	175746	12	11	30	62	120	15.500000	62.000000
21968312	175747	3	2	80	72	120	15.625000	62.500000
21968312	87170	10	9	16	45	100	15.625000	62.500000
21968312	175747	12	11	30	60	120	15.625000	62.500000
22056185	43585	10	9	16	43	100	15.687500	62.750000
22099770	44289	10	9	16	43	100	15.718500	62.874000
22144059	175746	3	2	80	70	120	15.750000	63.000000
22144059	175746	10	9	16	43	100	15.750000	63.000000
22144059	175746	12	11	30	58	120	15.750000	63.000000
22319805	175747	3	2	80	65	120	15.875000	63.500000
22319805	175747	10	9	16	41	100	15.875000	63.500000
22319805	175747	12	11	30	53	120	15.875000	63.500000
22495552	87873	1	0	48	82	120	16.000000	64.000000
22495552	87873	1	0	48	86	120	16.000000	64.000000
22495552	2811944	2	1	48	39	100	16.000000	64.000000
22495552	2811944	2	1	48	46	100	16.000000	64.000000
22495552	2811944	2	1	48	51	100	16.000000	64.000000
22495552	702986	2	1	48	53	120	16.000000	64.000000
22495552	702986	2	1	48	65	120	16.000000	64.000000
22495552	702986	3	2	80	65	120	16.000000	64.000000
22495552	702986	4	3	57	53	120	16.000000	64.000000
22495552	175746	10	9	16	36	100	16.000000	64.000000
22495552	175746	10	9	16	46	80	16.000000	64.000000
22495552	175746	10	9	16	49	100	16.000000	64.000000
22495552	175746	13	12	29	51	120	16.000000	64.000000
22495552	175746	14	13	30	51	120	16.000000	64.000000
22495552	175746	15	14	33	39	120	16.000000	64.000000
22671298	175747	10	9	16	36	100	16.125000	64.500000
22671298	175747	13	12	29	39	120	16.125000	64.500000
22671298	175747	14	13	30	39	120	16.125000	64.500000
22671298	175747	15	14	33	27	120	16.125000	64.500000
22847045	175746	10	9	16	38	100	16.250000	65.000000
22847045	175746	10	9	16	46	80	16.250000	65.000000
22847045	175746	13	12	29	39	120	16.250000	65.000000
22847045	175746	14	13	30	39	120	16.250000	65.000000
22847045	175746	15	14	33	27	120	16.250000	65.000000
23022791	87873	1	0	48	82	120	16.375000	65.500000
23022791	87873	1	0	48	86	120	16.375000	65.500000
23022791	175747	10	9	16	36	100	16.375000	65.500000
23022791	175747	13	12	29	51	120	16.375000	65.500000
23022791	175747	14	13	30	51	120	16.375000	65.500000
23022791	175747	15	14	33	39	120	16.375000	65.500000
23198538	702986	2	1	48	65	120	16.500000	66.000000
23198538	702986	2	1	48	77	120	16.500000	66.000000
23198538	702986	3	2	80	77	120	16.500000	66.000000
23198538	702986	4	3	57	65	120	16.500000	66.000000
23198538	175746	10	9	16	36	100	16.500000	66.000000
23198538	175746	10	9	16	46	80	16.500000	66.000000
23198538	175746	13	12	29	39	120	16.500000	66.000000
23198538	175746	14	13	30	39	120	16.500000	66.000000
23198538	175746	15	14	33	27	120	16.500000	66.000000
23374284	175747	10	9	16	36	100	16.625000	66.500000
23374284	175747	13	12	29	39	120	16.625000	66.500000
23374284	175747	14	13	30	39	120	16.625000	66.500000
23374284	175747	15	14	33	27	120	16.625000	66.500000
23550031	87873	1	0	48	82	120	16.750000	67.000000
23550031	87873	1	0	48	86	120	16.750000	67.000000
23550031	175746	10	9	16	38	100	16.750000	67.000000
23550031	175746	10	9	16	46	80	16.750000	67.000000
23550031	175746	13	12	29	51	120	16.750000	67.000000
23550031	175746	14	13	30	51	120	16.750000	67.000000
23550031	175746	15	14	33	39	120	16.750000	67.000000
23725777	175747	10	9	16	36	100	16.875000	67.500000
23725777	175747	13	12	29	39	120	16.875000	67.500000
23725777	175747	14	13	30	39	120	16.875000	67.500000
23725777	175747	15	14	33	27	120	16.875000	67.500000
23901524	1054479	2	1	48	60	120	17.000000	68.000000
23901524	1054479	2	1	48	72	120	17.000000	68.000000
23901524	1054479	3	2	80	72	120	17.000000	68.000000
23901524	1054479	4	3	57	60	120	17.000000	68.000000
23901524	175746	10	9	16	36	100	17.000000	68.000000
23901524	175746	10	9	16	46	80	17.000000	68.000000
23901524	175746	13	12	29	39	120	17.000000	68.000000
23901524	175746	14	13	30	39	120	17.000000	68.000000
23901524	175746	15	14	33	27	120	17.000000	68.000000
24077270	87873	1	0	48	82	120	17.125000	68.500000
24077270	87873	1	0	48	86	120	17.125000	68.500000
24077270	175747	10	9	16	36	100	17.125000	68.500000
24077270	175747	13	12	29	51	120	17.125000	68.500000
24077270	175747	14	13	30	51	120	17.125000	68.500000
24077270	175747	15	14	33	39	120	17.125000	68.500000
24253017	175746	10	9	16	38	100	17.250000	69.000000
24253017	175746	10	9	16	46	80	17.250000	69.000000
24253017	175746	13	12	29	39	120	17.250000	69.000000
24253017	175746	14	13	30	39	120	17.250000	69.000000
24253017	175746	15	14	33	27	120	17.250000	69.000000
24428763	175747	10	9	16	36	100	17.375000	69.500000
24428763	175747	13	12	29	39	120	17.375000	69.500000
24428763	175747	14	13	30	39	120	17.375000	69.500000
24428763	175747	15	14	33	27	120	17.375000	69.500000
24604510	87873	1	0	48	82	120	17.500000	70.000000
24604510	87873	1	0	48	86	120	17.500000	70.000000
24604510	175746	10	9	16	36	100	17.500000	70.000000
24604510	175746	10	9	16	46	80	17.500000	70.000000
24604510	175746	13	12	29	51	120	17.500000	70.000000
24604510	175746	14	13	30	51	120	17.500000	70.000000
24604510	175746	15	14	33	39	120	17.500000	70.000000
24780256	175747	10	9	16	36	100	17.625000	70.500000
24780256	175747	13	12	29	39	120	17.625000	70.500000
24780256	175747	14	13	30	39	120	17.625000	70.500000
24780256	175747	15	14	33	27	120	17.625000	70.500000
24956003	87873	1	0	48	82	120	17.750000	71.000000
24956003	87873	1	0	48	86	120	17.750000	71.000000
24956003	175746	10	9	16	38	100	17.750000	71.000000
24956003	175746	10	9	16	46	80	17.750000	71.000000
24956003	175746	13	12	29	51	120	17.750000	71.000000
24956003	175746	14	13	30	51	120	17.750000	71.000000
24956003	175746	15	14	33	39	120	17.750000	71.000000
25131749	87873	1	0	48	86	120	17.875000	71.500000
25131749	87873	1	0	48	89	120	17.875000	71.500000
25131749	175747	10	9	16	36	100	17.875000	71.500000
25131749	175747	13	12	29	53	120	17.875000	71.500000
25131749	175747	14	13	30	53	120	17.875000	71.500000
25131749	175747	15	14	33	41	120	17.875000	71.500000
25307496	87873	1	0	48	82	120	18.000000	72.000000
25307496	87873	1	0	48	86	120	18.000000	72.000000
25307496	2811944	2	1	48	39	100	18.000000	72.000000
25307496	2811944	2	1	48	46	100	18.000000	72.000000
25307496	2811944	2	1	48	51	100	18.000000	72.000000
25307496	702986	2	1	48	58	120	18.000000	72.000000
25307496	702986	2	1	48	70	120	18.000000	72.000000
25307496	702986	3	2	80	70	120	18.000000	72.000000
25307496	702986	4	3	57	58	120	18.000000	72.000000
25307496	175746	10	9	16	36	100	18.000000	72.000000
25307496	175746	10	9	16	46	80	18.000000	72.000000
25307496	175746	13	12	29	51	120	18.000000	72.000000
25307496	175746	14	13	30	51	120	18.000000	72.000000
25307496	175746	15	14	33	39	120	18.000000	72.000000
25483242	175747	10	9	16	36	100	18.125000	72.500000
25483242	175747	13	12	29	39	120	18.125000	72.500000
25483242	175747	14	13	30	39	120	18.125000	72.500000
25483242	175747	15	14	33	27	120	18.125000	72.500000
25658989	175746	10	9	16	38	100	18.250000	73.000000
25658989	175746	10	9	16	46	80	18.250000	73.000000
25658989	175746	13	12	29	39	120	18.250000	73.000000
25658989	175746	14	13	30	39	120	18.250000	73.000000
25658989	175746	15	14	33	27	120	18.250000	73.000000
25834735	87873	1	0	48	82	120	18.375000	73.500000
25834735	87873	1	0	48	86	120	18.375000	73.500000
25834735	175747	10	9	16	36	100	18.375000	73.500000
25834735	175747	13	12	29	51	120	18.375000	73.500000
25834735	175747	14	13	30	51	120	18.375000	73.500000
25834735	175747	15	14	33	39	120	18.375000	73.500000
26010482	702986	2	1	48	65	120	18.500000	74.000000
26010482	702986	2	1	48	77	120	18.500000	74.000000
26010482	702986	3	2	80	77	120	18.500000	74.000000
26010482	702986	4	3	57	65	120	18.500000	74.000000
26010482	175746	10	9	16	36	100	18.500000	74.000000
26010482	175746	10	9	16	46	80	18.500000	74.000000
26010482	175746	13	12	29	39	120	18.500000	74.000000
26010482	175746	14	13	30	39	120	18.500000	74.000000
26010482	175746	15	14	33	27	120	18.500000	74.000000
26186228	175747	10	9	16	36	100	18.625000	74.500000
26186228	175747	13	12	29	39	120	18.625000	74.500000
26186228	175747	14	13	30	39	120	18.625000	74.500000
26186228	175747	15	14	33	27	120	18.625000	74.500000
26361975	87873	1	0	48	82	120	18.750000	75.000000
26361975	87873	1	0	48	86	120	18.750000	75.000000
26361975	175746	10	9	16	38	100	18.750000	75.000000
26361975	175746	10	9	16	46	80	18.750000	75.000000
26361975	175746	13	12	29	51	120	18.750000	75.000000
26361975	175746	14	13	30	51	120	18.750000	75.000000
26361975	175746	15	14	33	39	120	18.750000	75.000000
26537721	175747	10	9	16	36	100	18.875000	75.500000
26537721	175747	13	12	29	39	120	18.875000	75.500000
26537721	175747	14	13	30	39	120	18.875000	75.500000
26537721	175747	15	14	33	27	120	18.875000	75.500000
26713468	1054479	2	1	48	53	120	19.000000	76.000000
26713468	1054479	2	1	48	65	120	19.000000	76.000000
26713468	1054479	3	2	80	65	120	19.000000	76.000000
26713468	1054479	4	3	57	53	120	19.000000	76.000000
26713468	175746	10	9	16	36	100	19.000000	76.000000
26713468	175746	10	9	16	46	80	19.000000	76.000000
26713468	175746	13	12	29	39	120	19.000000	76.000000
26713468	175746	14	13	30	39	120	19.000000	76.000000
26713468	175746	15	14	33	27	120	19.000000	76.000000
26889214	87873	1	0	48	82	120	19.125000	76.500000
26889214	87873	1	0	48	86	120	19.125000	76.500000
26889214	175747	10	9	16	36	100	19.125000	76.500000
26889214	175747	13	12	29	51	120	19.125000	76.500000
26889214	175747	14	13	30	51	120	19.125000	76.500000
26889214	175747	15	14	33	39	120	19.125000	76.500000
27064961	175746	10	9	16	38	100	19.250000	77.000000
27064961	175746	10	9	16	46	80	19.250000	77.000000
27064961	175746	13	12	29	39	120	19.250000	77.000000
27064961	175746	14	13	30	39	120	19.250000	77.000000
27064961	175746	15	14	33	27	120	19.250000	77.000000
27240707	175747	10	9	16	36	100	19.375000	77.500000
27240707	175747	13	12	29	39	120	19.375000	77.500000
27240707	175747	14	13	30	39	120	19.375000	77.500000
27240707	175747	15	14	33	27	120	19.375000	77.500000
27416454	87873	1	0	48	82	120	19.500000	78.000000
27416454	87873	1	0	48	86	120	19.500000	78.000000
27416454	175746	10	9	16	36	100	19.500000	78.000000
27416454	175746	10	9	16	46	80	19.500000	78.000000
27416454	175746	13	12	29	51	120	19.500000	78.000000
27416454	175746	14	13	30	51	120	19.500000	78.000000
27416454	175746	15	14	33	39	120	19.500000	78.000000
27592200	175747	10	9	16	36	100	19.625000	78.500000
27592200	175747	13	12	29	39	120	19.625000	78.500000
27592200	175747	14	13	30	39	120	19.625000	78.500000
27592200	175747	15	14	33	27	120	19.625000	78.500000
27767947	87873	1	0	48	82	120	19.750000	79.000000
27767947	87873	1	0	48	86	120	19.750000	79.000000
27767947	175746	10	9	16	38	100	19.750000	79.000000
27767947	175746	10	9	16	46	80	19.750000	79.000000
27767947	175746	13	12	29	51	120	19.750000	79.000000
27767947	175746	14	13	30	51	120	19.750000	79.000000
27767947	175746	15	14	33	39	120	19.750000	79.000000
27943693	87873	1	0	48	86	120	19.875000	79.500000
27943693	87873	1	0	48	89	120	19.875000	79.500000
27943693	175747	10	9	16	36	100	19.875000	79.500000
27943693	175747	13	12	29	53	120	19.875000	79.500000
27943693	175747	14	13	30	53	120	19.875000	79.500000
27943693	175747	15	14	33	41	120	19.875000	79.500000
28119440	87873	1	0	48	81	120	20.000000	80.000000
28119440	87873	1	0	48	86	120	20.000000	80.000000
28119440	2811944	2	1	48	38	100	20.000000	80.000000
28119440	2811944	2	1	48	45	100	20.000000	80.000000
28119440	2811944	2	1	48	50	100	20.000000	80.000000
28119440	702986	2	1	48	57	120	20.000000	80.000000
28119440	702986	2	1	48	62	120	20.000000	80.000000
28119440	702986	2	1	48	69	120	20.000000	80.000000
28119440	702986	3	2	80	62	120	20.000000	80.000000
28119440	702986	3	2	80	69	120	20.000000	80.000000
28119440	702986	4	3	57	50	120	20.000000	80.000000
28119440	175746	10	9	16	36	100	20.000000	80.000000
28119440	175746	10	9	16	46	80	20.000000	80.000000
28119440	175746	13	12	29	50	120	20.000000	80.000000
28119440	175746	14	13	30	50	120	20.000000	80.000000
28119440	175746	15	14	33	38	120	20.000000	80.000000
28295186	175747	10	9	16	36	100	20.125000	80.500000
28295186	175747	13	12	29	38	120	20.125000	80.500000
28295186	175747	14	13	30	38	120	20.125000	80.500000
28295186	175747	15	14	33	26	120	20.125000	80.500000
28470933	175746	10	9	16	38	100	20.250000	81.000000
28470933	175746	10	9	16	46	80	20.250000	81.000000
28470933	175746	13	12	29	38	120	20.250000	81.000000
28470933	175746	14	13	30	38	120	20.250000	81.000000
28470933	175746	15	14	33	26	120	20.250000	81.000000
28646679	175747	10	9	16	36	100	20.375000	81.500000
28646679	175747	13	12	29	38	120	20.375000	81.500000
28646679	175747	14	13	30	38	120	20.375000	81.500000
28646679	175747	15	14	33	26	120	20.375000	81.500000
28822426	87873	1	0	48	81	120	20.500000	82.000000
28822426	87873	1	0	48	86	120	20.500000	82.000000
28822426	702986	2	1	48	62	120	20.500000	82.000000
28822426	702986	2	1	48	69	120	20.500000	82.000000
28822426	702986	2	1	48	74	120	20.500000	82.000000
28822426	702986	3	2	80	69	120	20.500000	82.000000
28822426	702986	3	2	80	74	120	20.500000	82.000000
28822426	702986	4	3	57	57	120	20.500000	82.000000
28822426	175746	10	9	16	36	100	20.500000	82.000000
28822426	175746	10	9	16	46	80	20.500000	82.000000
28822426	175746	13	12	29	50	120	20.500000	82.000000
28822426	175746	14	13	30	50	120	20.500000	82.000000
28822426	175746	15	14	33	38	120	20.500000	82.000000
28998172	175747	10	9	16	36	100	20.625000	82.500000
28998172	175747	13	12	29	38	120	20.625000	82.500000
28998172	175747	14	13	30	38	120	20.625000	82.500000
28998172	175747	15	14	33	26	120	20.625000	82.500000
29173919	175746	10	9	16	38	100	20.750000	83.000000
29173919	175746	10	9	16	46	80	20.750000	83.000000
29173919	175746	13	12	29	38	120	20.750000	83.000000
29173919	175746	14	13	30	38	120	20.750000	83.000000
29173919	175746	15	14	33	26	120	20.750000	83.000000
29349665	87873	1	0	48	81	120	20.875000	83.500000
29349665	87873	1	0	48	86	120	20.875000	83.500000
29349665	175747	10	9	16	36	100	20.875000	83.500000
29349665	175747	13	12	29	50	120	20.875000	83.500000
29349665	175747	14	13	30	50	120	20.875000	83.500000
29349665	175747	15	14	33	38	120	20.875000	83.500000
29525412	702986	2	1	48	69	120	21.000000	84.000000
29525412	702986	2	1	48	77	120	21.000000	84.000000
29525412	702986	2	1	48	81	120	21.000000	84.000000
29525412	702986	3	2	80	69	120	21.000000	84.000000
29525412	702986	3	2	80	77	120	21.000000	84.000000
29525412	702986	4	3	57	65	120	21.000000	84.000000
29525412	175746	10	9	16	36	100	21.000000	84.000000
29525412	175746	10	9	16	46	80	21.000000	84.000000
29525412	175746	13	12	29	38	120	21.000000	84.000000
29525412	175746	14	13	30	38	120	21.000000	84.000000
29525412	175746	15	14	33	26	120	21.000000	84.000000
29701158	87873	1	0	48	81	120	21.125000	84.500000
29701158	87873	1	0	48	84	120	21.125000	84.500000
29701158	175747	10	9	16	36	100	21.125000	84.500000
29701158	175747	13	12	29	50	120	21.125000	84.500000
29701158	175747	14	13	30	50	120	21.125000	84.500000
29701158	175747	15	14	33	38	120	21.125000	84.500000
29876905	175746	10	9	16	38	100	21.250000	85.000000
29876905	175746	10	9	16	46	80	21.250000	85.000000
29876905	175746	13	12	29	38	120	21.250000	85.000000
29876905	175746	14	13	30	38	120	21.250000	85.000000
29876905	175746	15	14	33	26	120	21.250000	85.000000
30052651	175747	10	9	16	36	100	21.375000	85.500000
30052651	175747	13	12	29	38	120	21.375000	85.500000
30052651	175747	14	13	30	38	120	21.375000	85.500000
30052651	175747	15	14	33	26	120	21.375000	85.500000
30228398	87873	1	0	48	81	120	21.500000	86.000000
30228398	87873	1	0	48	84	120	21.500000	86.000000
30228398	175746	10	9	16	36	100	21.500000	86.000000
30228398	175746	10	9	16	46	80	21.500000	86.000000
30228398	175746	13	12	29	50	120	21.500000	86.000000
30228398	175746	14	13	30	50	120	21.500000	86.000000
30228398	175746	15	14	33	38	120	21.500000	86.000000
30404144	175747	10	9	16	36	100	21.625000	86.500000
30404144	175747	13	12	29	38	120	21.625000	86.500000
30404144	175747	14	13	30	38	120	21.625000	86.500000
30404144	175747	15	14	33	26	120	21.625000	86.500000
30579891	87873	1	0	48	91	120	21.750000	87.000000
30579891	351493	2	1	48	70	120	21.750000	87.000000
30579891	351493	2	1	48	79	120	21.750000	87.000000
30579891	351493	2	1	48	82	120	21.750000	87.000000
30579891	351493	3	2	80	70	120	21.750000	87.000000
30579891	351493	3	2	80	79	120	21.750000	87.000000
30579891	87873	3	2	80	91	80	21.750000	87.000000
30579891	351493	4	3	57	67	120	21.750000	87.000000
30579891	175746	10	9	16	38	100	21.750000	87.000000
30579891	175746	10	9	16	46	80	21.750000	87.000000
30579891	175746	13	12	29	26	120	21.750000	87.000000
30579891	175746	13	12	29	38	120	21.750000	87.000000
30579891	175746	14	13	30	26	120	21.750000	87.000000
30579891	175746	14	13	30	38	120	21.750000	87.000000
30579891	175746	15	14	33	14	120	21.750000	87.000000
30579891	175746	15	14	33	26	120	21.750000	87.000000
30755637	87873	1	0	48	94	120	21.875000	87.500000
30755637	87873	3	2	80	94	80	21.875000	87.500000
30755637	175747	10	9	16	36	100	21.875000	87.500000
30755637	175747	13	12	29	29	120	21.875000	87.500000
30755637	175747	13	12	29	41	120	21.875000	87.500000
30755637	175747	14	13	30	29	120	21.875000	87.500000
30755637	175747	14	13	30	41	120	21.875000	87.500000
30755637	175747	15	14	33	17	120	21.875000	87.500000
30755637	175747	15	14	33	29	120	21.875000	87.500000
30931384	702986	2	1	48	38	100	22.000000	88.000000
30931384	702986	2	1	48	45	100	22.000000	88.000000
30931384	702986	2	1	48	50	100	22.000000	88.000000
30931384	702986	2	1	48	69	120	22.000000	88.000000
30931384	702986	2	1	48	77	120	22.000000	88.000000
30931384	702986	2	1	48	81	120	22.000000	88.000000
30931384	702986	3	2	80	69	120	22.000000	88.000000
30931384	702986	3	2	80	77	120	22.000000	88.000000
30931384	702986	4	3	57	65	120	22.000000	88.000000
30931384	175746	10	9	16	36	100	22.000000	88.000000
30931384	175746	10	9	16	46	80	22.000000	88.000000
30931384	351493	13	12	29	31	120	22.000000	88.000000
30931384	351493	13	12	29	43	120	22.000000	88.000000
30931384	351493	14	13	30	31	120	22.000000	88.000000
30931384	351493	14	13	30	43	120	22.000000	88.000000
30931384	175746	15	14	33	19	120	22.000000	88.000000
30931384	175746	15	14	33	31	120	22.000000	88.000000
31107130	87873	3	2	80	89	80	22.125000	88.500000
31107130	175747	10	9	16	36	100	22.125000	88.500000
31282877	87873	3	2	80	96	80	22.250000	89.000000
31282877	175746	10	9	16	38	100	22.250000	89.000000
31282877	175746	10	9	16	46	80	22.250000	89.000000
31282877	351493	13	12	29	31	120	22.250000	89.000000
31282877	351493	13	12	29	43	120	22.250000	89.000000
31282877	351493	14	13	30	31	120	22.250000	89.000000
31282877	351493	14	13	30	43	120	22.250000	89.000000
31282877	175746	15	14	33	19	120	22.250000	89.000000
31282877	175746	15	14	33	31	120	22.250000	89.000000
31458623	87873	3	2	80	98	80	22.375000	89.500000
31458623	175747	10	9	16	36	100	22.375000	89.500000
31634370	702986	2	1	48	41	100	22.500000	90.000000
31634370	702986	2	1	48	48	100	22.500000	90.000000
31634370	702986	2	1	48	53	100	22.500000	90.000000
31634370	702986	2	1	48	60	120	22.500000	90.000000
31634370	702986	2	1	48	65	120	22.500000	90.000000
31634370	702986	2	1	48	72	120	22.500000	90.000000
31634370	702986	2	1	48	77	120	22.500000	90.000000
31634370	702986	3	2	80	65	120	22.500000	90.000000
31634370	702986	3	2	80	72	120	22.500000	90.000000
31634370	702986	4	3	57	60	120	22.500000	90.000000
31634370	175746	10	9	16	36	100	22.500000	90.000000
31634370	175746	10	9	16	46	80	22.500000	90.000000
31634370	351493	13	12	29	33	120	22.500000	90.000000
31634370	351493	13	12	29	45	120	22.500000	90.000000
31634370	351493	14	13	30	33	120	22.500000	90.000000
31634370	351493	14	13	30	45	120	22.500000	90.000000
31634370	175746	15	14	33	21	120	22.500000	90.000000
31634370	175746	15	14	33	33	120	22.500000	90.000000
31810116	87873	3	2	80	94	80	22.625000	90.500000
31810116	175747	10	9	16	36	100	22.625000	90.500000
31985863	87873	3	2	80	96	80	22.750000	91.000000
31985863	175746	10	9	16	38	100	22.750000	91.000000
31985863	175746	10	9	16	46	80	22.750000	91.000000
31985863	351493	13	12	29	33	120	22.750000	91.000000
31985863	351493	13	12	29	45	120	22.750000	91.000000
31985863	351493	14	13	30	33	120	22.750000	91.000000
31985863	351493	14	13	30	45	120	22.750000	91.000000
31985863	175746	15	14	33	21	120	22.750000	91.000000
31985863	175746	15	14	33	33	120	22.750000	91.000000
32161609	87873	3	2	80	98	80	22.875000	91.500000
32161609	175747	10	9	16	36	100	22.875000	91.500000
32337356	1405972	2	1	48	43	100	23.000000	92.000000
32337356	1405972	2	1	48	50	100	23.000000	92.000000
32337356	1405972	2	1	48	55	100	23.000000	92.000000
32337356	702986	2	1	48	58	120	23.000000	92.000000
32337356	702986	2	1	48	67	120	23.000000	92.000000
32337356	702986	2	1	48	70	120	23.000000	92.000000
32337356	702986	2	1	48	79	120	23.000000	92.000000
32337356	702986	3	2	80	67	120	23.000000	92.000000
32337356	702986	3	2	80	70	120	23.000000	92.000000
32337356	87873	3	2	80	106	80	23.000000	92.000000
32337356	702986	4	3	57	58	120	23.000000	92.000000
32337356	175746	10	9	16	36	100	23.000000	92.000000
32337356	175746	10	9	16	46	80	23.000000	92.000000
32337356	351493	13	12	29	34	120	23.000000	92.000000
32337356	351493	13	12	29	46	120	23.000000	92.000000
32337356	351493	14	13	30	34	120	23.000000	92.000000
32337356	351493	14	13	30	46	120	23.000000	92.000000
32337356	175746	15	14	33	22	120	23.000000	92.000000
32337356	175746	15	14	33	34	120	23.000000	92.000000
32513102	87873	3	2	80	98	80	23.125000	92.500000
32513102	87873	5	4	0	82	120	23.125000	92.500000
32513102	175747	10	9	16	36	100	23.125000	92.500000
32688849	87873	3	2	80	96	80	23.250000	93.000000
32688849	87873	5	4	0	81	120	23.250000	93.000000
32688849	175746	10	9	16	38	100	23.250000	93.000000
32688849	175746	10	9	16	46	80	23.250000	93.000000
32688849	351493	13	12	29	34	120	23.250000	93.000000
32688849	351493	13	12	29	46	120	23.250000	93.000000
32688849	351493	14	13	30	34	120	23.250000	93.000000
32688849	351493	14	13	30	46	120	23.250000	93.000000
32688849	175746	15	14	33	22	120	23.250000	93.000000
32688849	175746	15	14	33	34	120	23.250000	93.000000
32864595	87873	3	2	80	98	80	23.375000	93.500000
32864595	87873	5	4	0	77	120	23.375000	93.500000
32864595	175747	10	9	16	36	100	23.375000	93.500000
33040342	87873	3	2	80	96	80	23.500000	94.000000
33040342	87873	5	4	0	74	120	23.500000	94.000000
33040342	175746	10	9	16	36	100	23.500000	94.000000
33040342	175746	10	9	16	46	80	23.500000	94.000000
33040342	175746	13	12	29	36	120	23.500000	94.000000
33040342	175746	13	12	29	48	120	23.500000	94.000000
33040342	175746	14	13	30	36	120	23.500000	94.000000
33040342	175746	14	13	30	48	120	23.500000	94.000000
33040342	175746	15	14	33	24	120	23.500000	94.000000
33040342	175746	15	14	33	36	120	23.500000	94.000000
33216088	87873	3	2	80	94	80	23.625000	94.500000
33216088	87873	5	4	0	72	120	23.625000	94.500000
33216088	175747	10	9	16	36	100	23.625000	94.500000
33216088	175747	13	12	29	34	120	23.625000	94.500000
33216088	175747	13	12	29	46	120	23.625000	94.500000
33216088	175747	14	13	30	34	120	23.625000	94.500000
33216088	175747	14	13	30	46	120	23.625000	94.500000
33216088	175747	15	14	33	22	120	23.625000	94.500000
33216088	175747	15	14	33	34	120	23.625000	94.500000
33391835	87873	3	2	80	96	80	23.750000	95.000000
33391835	87873	5	4	0	70	120	23.750000	95.000000
33391835	175746	10	9	16	38	100	23.750000	95.000000
33391835	175746	10	9	16	46	80	23.750000	95.000000
33391835	175746	13	12	29	36	120	23.750000	95.000000
33391835	175746	13	12	29	48	120	23.750000	95.000000
33391835	175746	14	13	30	36	120	23.750000	95.000000
33391835	175746	14	13	30	48	120	23.750000	95.000000
33391835	175746	15	14	33	24	120	23.750000	95.000000
33391835	175746	15	14	33	36	120	23.750000	95.000000
33567581	87873	3	2	80	98	80	23.875000	95.500000
33567581	87873	5	4	0	65	120	23.875000	95.500000
33567581	175747	10	9	16	36	100	23.875000	95.500000
33567581	175747	13	12	29	38	120	23.875000	95.500000
33567581	175747	13	12	29	50	120	23.875000	95.500000
33567581	175747	14	13	30	38	120	23.875000	95.500000
33567581	175747	14	13	30	50	120	23.875000	95.500000
33567581	175747	15	14	33	26	120	23.875000	95.500000
33567581	175747	15	14	33	38	120	23.875000	95.500000
33743328	87873	1	0	48	82	120	24.000000	96.000000
33743328	87873	1	0	48	86	120	24.000000	96.000000
33743328	2811944	2	1	48	39	100	24.000000	96.000000
33743328	2811944	2	1	48	46	100	24.000000	96.000000
33743328	2811944	2	1	48	51	100	24.000000	96.000000
33743328	702986	2	1	48	53	120	24.000000	96.000000
33743328	702986	2	1	48	65	120	24.000000	96.000000
33743328	702986	3	2	80	65	120	24.000000	96.000000
33743328	702986	4	3	57	53	120	24.000000	96.000000
33743328	175746	10	9	16	36	100	24.000000	96.000000
33743328	175746	10	9	16	46	80	24.000000	96.000000
33743328	175746	10	9	16	49	100	24.000000	96.000000
33743328	175746	13	12	29	51	120	24.000000	96.000000
33743328	175746	14	13	30	51	120	24.000000	96.000000
33743328	175746	15	14	33	39	120	24.000000	96.000000
33919074	175747	10	9	16	36	100	24.125000	96.500000
33919074	175747	13	12	29	39	120	24.125000	96.500000
33919074	175747	14	13	30	39	120	24.125000	96.500000
33919074	175747	15	14	33	27	120	24.125000	96.500000
34094821	175746	10	9	16	38	100	24.250000	97.000000
34094821	175746	10	9	16	46	80	24.250000	97.000000
34094821	175746	13	12	29	39	120	24.250000	97.000000
34094821	175746	14	13	30	39	120	24.250000	97.000000
34094821	175746	15	14	33	27	120	24.250000	97.000000
34270567	87873	1	0	48	82	120	24.375000	97.500000
34270567	87873	1	0	48	86	120	24.375000	97.500000
34270567	175747	10	9	16	36	100	24.375000	97.500000
34270567	175747	13	12	29	51	120	24.375000	97.500000
34270567	175747	14	13	30	51	120	24.375000	97.500000
34270567	175747	15	14	33	39	120	24.375000	97.500000
34446314	702986	2	1	48	65	120	24.500000	98.000000
34446314	702986	2	1	48	77	120	24.500000	98.000000
34446314	702986	3	2	80	77	120	24.500000	98.000000
34446314	702986	4	3	57	65	120	24.500000	98.000000
34446314	175746	10	9	16	36	100	24.500000	98.000000
34446314	175746	10	9	16	46	80	24.500000	98.000000
34446314	175746	13	12	29	39	120	24.500000	98.000000
34446314	175746	14	13	30	39	120	24.500000	98.000000
34446314	175746	15	14	33	27	120	24.500000	98.000000
34622060	175747	10	9	16	36	100	24.625000	98.500000
34622060	175747	13	12	29	39	120	24.625000	98.500000
34622060	175747	14	13	30	39	120	24.625000	98.500000
34622060	175747	15	14	33	27	120	24.625000	98.500000
34797807	87873	1	0	48	82	120	24.750000	99.000000
34797807	87873	1	0	48	86	120	24.750000	99.000000
34797807	175746	10	9	16	38	100	24.750000	99.000000
34797807	175746	10	9	16	46	80	24.750000	99.000000
34797807	175746	13	12	29	51	120	24.750000	99.000000
34797807	175746	14	13	30	51	120	24.750000	99.000000
34797807	175746	15	14	33	39	120	24.750000	99.000000
34973553	175747	10	9	16	36	100	24.875000	99.500000
34973553	175747	13	12	29	39	120	24.875000	99.500000
34973553	175747	14	13	30	39	120	24.875000	99.500000
34973553	175747	15	14	33	27	120	24.875000	99.500000
35149300	1054479	2	1	48	60	120	25.000000	100.000000
35149300	1054479	2	1	48	72	120	25.000000	100.000000
35149300	1054479	3	2	80	72	120	25.000000	100.000000
35149300	1054479	4	3	57	60	120	25.000000	100.000000
35149300	175746	10	9	16	36	100	25.000000	100.000000
35149300	175746	10	9	16	46	80	25.000000	100.000000
35149300	175746	13	12	29	39	120	25.000000	100.000000
35149300	175746	14	13	30	39	120	25.000000	100.000000
35149300	175746	15	14	33	27	120	25.000000	100.000000
35325046	87873	1	0	48	82	120	25.125000	100.500000
35325046	87873	1	0	48	86	120	25.125000	100.500000
35325046	175747	10	9	16	36	100	25.125000	100.500000
35325046	175747	13	12	29	51	120	25.125000	100.500000
35325046	175747	14	13	30	51	120	25.125000	100.500000
35325046	175747	15	14	33	39	120	25.125000	100.500000
35500793	175746	10	9	16	38	100	25.250000	101.000000
35500793	175746	10	9	16	46	80	25.250000	101.000000
35500793	175746	13	12	29	39	120	25.250000	101.000000
35500793	175746	14	13	30	39	120	25.250000	101.000000
35500793	175746	15	14	33	27	120	25.250000	101.000000
35676539	175747	10	9	16	36	100	25.375000	101.500000
35676539	175747	13	12	29	39	120	25.375000	101.500000
35676539	175747	14	13	30	39	120	25.375000	101.500000
35676539	175747	15	14	33	27	120	25.375000	101.500000
35852286	87873	1	0	48	82	120	25.500000	102.000000
35852286	87873	1	0	48	86	120	25.500000	102.000000
35852286	175746	10	9	16	36	100	25.500000	102.000000
35852286	175746	10	9	16	46	80	25.500000	102.000000
35852286	175746	13	12	29	51	120	25.500000	102.000000
35852286	175746	14	13	30	51	120	25.500000	102.000000
35852286	175746	15	14	33	39	120	25.500000	102.000000
36028032	175747	10	9	16	36	100	25.625000	102.500000
36028032	175747	13	12	29	39	120	25.625000	102.500000
36028032	175747	14	13	30	39	120	25.625000	102.500000
36028032	175747	15	14	33	27	120	25.625000	102.500000
36203779	87873	1	0	48	82	120	25.750000	103.000000
36203779	87873	1	0	48	86	120	25.750000	103.000000
36203779	175746	10	9	16	38	100	25.750000	103.000000
36203779	175746	10	9	16	46	80	25.750000	103.000000
36203779	175746	13	12	29	51	120	25.750000	103.000000
36203779	175746	14	13	30	51	120	25.750000	103.000000
36203779	175746	15	14	33	39	120	25.750000	103.000000
36379525	87873	1	0	48	86	120	25.875000	103.500000
36379525	87873	1	0	48	89	120	25.875000	103.500000
36379525	175747	10	9	16	36	100	25.875000	103.500000
36379525	175747	13	12	29	53	120	25.875000	103.500000
36379525	175747	14	13	30	53	120	25.875000	103.500000
36379525	175747	15	14	33	41	120	25.875000	103.500000
36555272	87873	1	0	48	82	120	26.000000	104.000000
36555272	87873	1	0	48	86	120	26.000000	104.000000
36555272	2811944	2	1	48	39	100	26.000000	104.000000
36555272	2811944	2	1	48	46	100	26.000000	104.000000
36555272	2811944	2	1	48	51	100	26.000000	104.000000
36555272	702986	2	1	48	58	120	26.000000	104.000000
36555272	702986	2	1	48	70	120	26.000000	104.000000
36555272	702986	3	2	80	70	120	26.000000	104.000000
36555272	702986	4	3	57	58	120	26.000000	104.000000
36555272	175746	10	9	16	36	100	26.000000	104.000000
36555272	175746	10	9	16	46	80	26.000000	104.000000
36555272	175746	13	12	29	51	120	26.000000	104.000000
36555272	175746	14	13	30	51	120	26.000000	104.000000
36555272	175746	15	14	33	39	120	26.000000	104.000000
36731018	175747	10	9	16	36	100	26.125000	104.500000
36731018	175747	13	12	29	39	120	26.125000	104.500000
36731018	175747	14	13	30	39	120	26.125000	104.500000
36731018	175747	15	14	33	27	120	26.125000	104.500000
36906765	175746	10	9	16	38	100	26.250000	105.000000
36906765	175746	10	9	16	46	80	26.250000	105.000000
36906765	175746	13	12	29	39	120	26.250000	105.000000
36906765	175746	14	13	30	39	120	26.250000	105.000000
36906765	175746	15	14	33	27	120	26.250000	105.000000
37082511	87873	1	0	48	82	120	26.375000	105.500000
37082511	87873	1	0	48	86	120	26.375000	105.500000
37082511	175747	10	9	16	36	100	26.375000	105.500000
37082511	175747	13	12	29	51	120	26.375000	105.500000
37082511	175747	14	13	30	51	120	26.375000	105.500000
37082511	175747	15	14	33	39	120	26.375000	105.500000
37258258	702986	2	1	48	65	120	26.500000	106.000000
37258258	702986	2	1	48	77	120	26.500000	106.000000
37258258	702986	3	2	80	77	120	26.500000	106.000000
37258258	702986	4	3	57	65	120	26.500000	106.000000
37258258	175746	10	9	16	36	100	26.500000	106.000000
37258258	175746	10	9	16	46	80	26.500000	106.000000
37258258	175746	13	12	29	39	120	26.500000	106.000000
37258258	175746	14	13	30	39	120	26.500000	106.000000
37258258	175746	15	14	33	27	120	26.500000	106.000000
37434004	175747	10	9	16	36	100	26.625000	106.500000
37434004	175747	13	12	29	39	120	26.625000	106.500000
37434004	175747	14	13	30	39	120	26.625000	106.500000
37434004	175747	15	14	33	27	120	26.625000	106.500000
37609751	87873	1	0	48	82	120	26.750000	107.000000
37609751	87873	1	0	48	86	120	26.750000	107.000000
37609751	175746	10	9	16	38	100	26.750000	107.000000
37609751	175746	10	9	16	46	80	26.750000	107.000000
37609751	175746	13	12	29	51	120	26.750000	107.000000
37609751	175746	14	13	30	51	120	26.750000	107.000000
37609751	175746	15	14	33	39	120	26.750000	107.000000
37785497	175747	10	9	16	36	100	26.875000	107.500000
37785497	175747	13	12	29	39	120	26.875000	107.500000
37785497	175747	14	13	30	39	120	26.875000	107.500000
37785497	175747	15	14	33	27	120	26.875000	107.500000
37961244	1054479	2	1	48	53	120	27.000000	108.000000
37961244	1054479	2	1	48	65	120	27.000000	108.000000
37961244	1054479	3	2	80	65	120	27.000000	108.000000
37961244	1054479	4	3	57	53	120	27.000000	108.000000
37961244	175746	10	9	16	36	100	27.000000	108.000000
37961244	175746	10	9	16	46	80	27.000000	108.000000
37961244	175746	13	12	29	39	120	27.000000	108.000000
37961244	175746	14	13	30	39	120	27.000000	108.000000
37961244	175746	15	14	33	27	120	27.000000	108.000000
38136990	87873	1	0	48	82	120	27.125000	108.500000
38136990	87873	1	0	48	86	120	27.125000	108.500000
38136990	175747	10	9	16	36	100	27.125000	108.500000
38136990	175747	13	12	29	51	120	27.125000	108.500000
38136990	175747	14	13	30	51	120	27.125000	108.500000
38136990	175747	15	14	33	39	120	27.125000	108.500000
38312737	175746	10	9	16	38	100	27.250000	109.000000
38312737	175746	10	9	16	46	80	27.250000	109.000000
38312737	175746	13	12	29	39	120	27.250000	109.000000
38312737	175746	14	13	30	39	120	27.250000	109.000000
38312737	175746	15	14	33	27	120	27.250000	109.000000
38488483	175747	10	9	16	36	100	27.375000	109.500000
38488483	175747	13	12	29	39	120	27.375000	109.500000
38488483	175747	14	13	30	39	120	27.375000	109.500000
38488483	175747	15	14	33	27	120	27.375000	109.500000
38664230	87873	1	0	48	82	120	27.500000	110.000000
38664230	87873	1	0	48	86	120	27.500000	110.000000
38664230	175746	10	9	16	36	100	27.500000	110.000000
38664230	175746	10	9	16	46	80	27.500000	110.000000
38664230	175746	13	12	29	51	120	27.500000	110.000000
38664230	175746	14	13	30	51	120	27.500000	110.000000
38664230	175746	15	14	33	39	120	27.500000	110.000000
38839976	175747	10	9	16	36	100	27.625000	110.500000
38839976	175747	13	12	29	39	120	27.625000	110.500000
38839976	175747	14	13	30	39	120	27.625000	110.500000
38839976	175747	15	14	33	27	120	27.625000	110.500000
39015723	87873	1	0	48	82	120	27.750000	111.000000
39015723	87873	1	0	48	86	120	27.750000	111.000000
39015723	175746	10	9	16	38	100	27.750000	111.000000
39015723	175746	10	9	16	46	80	27.750000	111.000000
39015723	175746	13	12	29	51	120	27.750000	111.000000
39015723	175746	14	13	30	51	120	27.750000	111.000000
39015723	175746	15	14	33	39	120	27.750000	111.000000
39191469	87873	1	0	48	86	120	27.875000	111.500000
39191469	87873	1	0	48	89	120	27.875000	111.500000
39191469	175747	10	9	16	36	100	27.875000	111.500000
39191469	175747	13	12	29	53	120	27.875000	111.500000
39191469	175747	14	13	30	53	120	27.875000	111.500000
39191469	175747	15	14	33	41	120	27.875000	111.500000
39367216	87873	1	0	48	81	120	28.000000	112.000000
39367216	87873	1	0	48	86	120	28.000000	112.000000
39367216	2811944	2	1	48	38	100	28.000000	112.000000
39367216	2811944	2	1	48	45	100	28.000000	112.000000
39367216	2811944	2	1	48	50	100	28.000000	112.000000
39367216	702986	2	1	48	57	120	28.000000	112.000000
39367216	702986	2	1	48	62	120	28.000000	112.000000
39367216	702986	2	1	48	69	120	28.000000	112.000000
39367216	702986	3	2	80	62	120	28.000000	112.000000
39367216	702986	3	2	80	69	120	28.000000	112.000000
39367216	702986	4	3	57	50	120	28.000000	112.000000
39367216	175746	10	9	16	36	100	28.000000	112.000000
39367216	175746	10	9	16	46	80	28.000000	112.000000
39367216	175746	13	12	29	50	120	28.000000	112.000000
39367216	175746	14	13	30	50	120	28.000000	112.000000
39367216	175746	15	14	33	38	120	28.000000	112.000000
39542962	175747	10	9	16	36	100	28.125000	112.500000
39542962	175747	13	12	29	38	120	28.125000	112.500000
39542962	175747	14	13	30	38	120	28.125000	112.500000
39542962	175747	15	14	33	26	120	28.125000	112.500000
39718709	175746	10	9	16	38	100	28.250000	113.000000
39718709	175746	10	9	16	46	80	28.250000	113.000000
39718709	175746	13	12	29	38	120	28.250000	113.000000
39718709	175746	14	13	30	38	120	28.250000	113.000000
39718709	175746	15	14	33	26	120	28.250000	113.000000
39894455	175747	10	9	16	36	100	28.375000	113.500000
39894455	175747	13	12	29	38	120	28.375000	113.500000
39894455	175747	14	13	30	38	120	28.375000	113.500000
39894455	175747	15	14	33	26	120	28.375000	113.500000
40070202	87873	1	0	48	81	120	28.500000	114.000000
40070202	87873	1	0	48	86	120	28.500000	114.000000
40070202	702986	2	1	48	62	120	28.500000	114.000000
40070202	702986	2	1	48	69	120	28.500000	114.000000
40070202	702986	2	1	48	74	120	28.500000	114.000000
40070202	702986	3	2	80	69	120	28.500000	114.000000
40070202	702986	3	2	80	74	120	28.500000	114.000000
40070202	702986	4	3	57	57	120	28.500000	114.000000
40070202	175746	10	9	16	36	100	28.500000	114.000000
40070202	175746	10	9	16	46	80	28.500000	114.000000
40070202	175746	13	12	29	50	120	28.500000	114.000000
40070202	175746	14	13	30	50	120	28.500000	114.000000
40070202	175746	15	14	33	38	120	28.500000	114.000000
40245948	175747	10	9	16	36	100	28.625000	114.500000
40245948	175747	13	12	29	38	120	28.625000	114.500000
40245948	175747	14	13	30	38	120	28.625000	114.500000
40245948	175747	15	14	33	26	120	28.625000	114.500000
40421695	175746	10	9	16	38	100	28.750000	115.000000
40421695	175746	10	9	16	46	80	28.750000	115.000000
40421695	175746	13	12	29	38	120	28.750000	115.000000
40421695	175746	14	13	30	38	120	28.750000	115.000000
40421695	175746	15	14	33	26	120	28.750000	115.000000
40597441	87873	1	0	48	81	120	28.875000	115.500000
40597441	87873	1	0	48	86	120	28.875000	115.500000
40597441	175747	10	9	16	36	100	28.875000	115.500000
40597441	175747	13	12	29	50	120	28.875000	115.500000
40597441	175747	14	13	30	50	120	28.875000	115.500000
40597441	175747	15	14	33	38	120	28.875000	115.500000
40773188	702986	2	1	48	69	120	29.000000	116.000000
40773188	702986	2	1	48	77	120	29.000000	116.000000
40773188	702986	2	1	48	81	120	29.000000	116.000000
40773188	702986	3	2	80	69	120	29.000000	116.000000
40773188	702986	3	2	80	77	120	29.000000	116.000000
40773188	702986	4	3	57	65	120	29.000000	116.000000
40773188	175746	10	9	16	36	100	29.000000	116.000000
40773188	175746	10	9	16	46	80	29.000000	116.000000
40773188	175746	13	12	29	38	120	29.000000	116.000000
40773188	175746	14	13	30	38	120	29.000000	116.000000
40773188	175746	15	14	33	26	120	29.000000	116.000000
40948934	87873	1	0	48	81	120	29.125000	116.500000
40948934	87873	1	0	48	84	120	29.125000	116.500000
40948934	175747	10	9	16	36	100	29.125000	116.500000
40948934	175747	13	12	29	50	120	29.125000	116.500000
40948934	175747	14	13	30	50	120	29.125000	116.500000
40948934	175747	15	14	33	38	120	29.125000	116.500000
41124681	175746	10	9	16	38	100	29.250000	117.000000
41124681	175746	10	9	16	46	80	29.250000	117.000000
41124681	175746	13	12	29	38	120	29.250000	117.000000
41124681	175746	14	13	30	38	120	29.250000	117.000000
41124681	175746	15	14	33	26	120	29.250000	117.000000
41300427	175747	10	9	16	36	100	29.375000	117.500000
41300427	175747	13	12	29	38	120	29.375000	117.500000
41300427	175747	14	13	30	38	120	29.375000	117.500000
41300427	175747	15	14	33	26	120	29.375000	117.500000
41476174	87873	1	0	48	81	120	29.500000	118.000000
41476174	87873	1	0	48	84	120	29.500000	118.000000
41476174	175746	10	9	16	36	100	29.500000	118.000000
41476174	175746	10	9	16	46	80	29.500000	118.000000
41476174	175746	13	12	29	50	120	29.500000	118.000000
41476174	175746	14	13	30	50	120	29.500000	118.000000
41476174	175746	15	14	33	38	120	29.500000	118.000000
41651920	175747	10	9	16	36	100	29.625000	118.500000
41651920	175747	13	12	29	38	120	29.625000	118.500000
41651920	175747	14	13	30	38	120	29.625000	118.500000
41651920	175747	15	14	33	26	120	29.625000	118.500000
41827667	87873	1	0	48	91	120	29.750000	119.000000
41827667	351493	2	1	48	70	120	29.750000	119.000000
41827667	351493	2	1	48	79	120	29.750000	119.000000
41827667	351493	2	1	48	82	120	29.750000	119.000000
41827667	351493	3	2	80	70	120	29.750000	119.000000
41827667	351493	3	2	80	79	120	29.750000	119.000000
41827667	87873	3	2	80	91	80	29.750000	119.000000
41827667	351493	4	3	57	67	120	29.750000	119.000000
41827667	175746	10	9	16	38	100	29.750000	119.000000
41827667	175746	10	9	16	46	80	29.750000	119.000000
41827667	175746	13	12	29	26	120	29.750000	119.000000
41827667	175746	13	12	29	38	120	29.750000	119.000000
41827667	175746	14	13	30	26	120	29.750000	119.000000
41827667	175746	14	13	30	38	120	29.750000	119.000000
41827667	175746	15	14	33	14	120	29.750000	119.000000
41827667	175746	15	14	33	26	120	29.750000	119.000000
42003413	87873	1	0	48	94	120	29.875000	119.500000
42003413	87873	3	2	80	94	80	29.875000	119.500000
42003413	175747	10	9	16	36	100	29.875000	119.500000
42003413	175747	13	12	29	29	120	29.875000	119.500000
42003413	175747	13	12	29	41	120	29.875000	119.500000
42003413	175747	14	13	30	29	120	29.875000	119.500000
42003413	175747	14	13	30	41	120	29.875000	119.500000
42003413	175747	15	14	33	17	120	29.875000	119.500000
42003413	175747	15	14	33	29	120	29.875000	119.500000
42179160	702986	2	1	48	38	100	30.000000	120.000000
42179160	702986	2	1	48	45	100	30.000000	120.000000
42179160	702986	2	1	48	50	100	30.000000	120.000000
42179160	702986	2	1	48	69	120	30.000000	120.000000
42179160	702986	2	1	48	77	120	30.000000	120.000000
42179160	702986	2	1	48	81	120	30.000000	120.000000
42179160	702986	3	2	80	69	120	30.000000	120.000000
42179160	702986	3	2	80	77	120	30.000000	120.000000
42179160	702986	4	3	57	65	120	30.000000	120.000000
42179160	175746	10	9	16	36	100	30.000000	120.000000
42179160	175746	10	9	16	46	80	30.000000	120.000000
42179160	351493	13	12	29	31	120	30.000000	120.000000
42179160	351493	13	12	29	43	120	30.000000	120.000000
42179160	351493	14	13	30	31	120	30.000000	120.000000
42179160	351493	14	13	30	43	120	30.000000	120.000000
42179160	175746	15	14	33	19	120	30.000000	120.000000
42179160	175746	15	14	33	31	120	30.000000	120.000000
42354906	87873	3	2	80	89	80	30.125000	120.500000
42354906	175747	10	9	16	36	100	30.125000	120.500000
42530653	87873	3	2	80	96	80	30.250000	121.000000
42530653	175746	10	9	16	38	100	30.250000	121.000000
42530653	175746	10	9	16	46	80	30.250000	121.000000
42530653	351493	13	12	29	31	120	30.250000	121.000000
42530653	351493	13	12	29	43	120	30.250000	121.000000
42530653	351493	14	13	30	31	120	30.250000	121.000000
42530653	351493	14	13	30	43	120	30.250000	121.000000
42530653	175746	15	14	33	19	120	30.250000	121.000000
42530653	175746	15	14	33	31	120	30.250000	121.000000
42706399	87873	3	2	80	98	80	30.375000	121.500000
42706399	175747	10	9	16	36	100	30.375000	121.500000
42882146	702986	2	1	48	41	100	30.500000	122.000000
42882146	702986	2	1	48	48	100	30.500000	122.000000
42882146	702986	2	1	48	53	100	30.500000	122.000000
42882146	702986	2	1	48	60	120	30.500000	122.000000
42882146	702986	2	1	48	65	120	30.500000	122.000000
42882146	702986	2	1	48	72	120	30.500000	122.000000
42882146	702986	2	1	48	77	120	30.500000	122.000000
42882146	702986	3	2	80	65	120	30.500000	122.000000
42882146	702986	3	2	80	72	120	30.500000	122.000000
42882146	702986	4	3	57	60	120	30.500000	122.000000
42882146	175746	10	9	16	36	100	30.500000	122.000000
42882146	175746	10	9	16	46	80	30.500000	122.000000
42882146	351493	13	12	29	33	120	30.500000	122.000000
42882146	351493	13	12	29	45	120	30.500000	122.000000
42882146	351493	14	13	30	33	120	30.500000	122.000000
42882146	351493	14	13	30	45	120	30.500000	122.000000
42882146	175746	15	14	33	21	120	30.500000	122.000000
42882146	175746	15	14	33	33	120	30.500000	122.000000
43057892	87873	3	2	80	94	80	30.625000	122.500000
43057892	175747	10	9	16	36	100	30.625000	122.500000
43233639	87873	3	2	80	96	80	30.750000	123.000000
43233639	175746	10	9	16	38	100	30.750000	123.000000
43233639	175746	10	9	16	46	80	30.750000	123.000000
43233639	351493	13	12	29	33	120	30.750000	123.000000
43233639	351493	13	12	29	45	120	30.750000	123.000000
43233639	351493	14	13	30	33	120	30.750000	123.000000
43233639	351493	14	13	30	45	120	30.750000	123.000000
43233639	175746	15	14	33	21	120	30.750000	123.000000
43233639	175746	15	14	33	33	120	30.750000	123.000000
43409385	87873	3	2	80	98	80	30.875000	123.500000
43409385	175747	10	9	16	36	100	30.875000	123.500000
43585132	1405972	2	1	48	43	100	31.000000	124.000000
43585132	1405972	2	1	48	50	100	31.000000	124.000000
43585132	1405972	2	1	48	55	100	31.000000	124.000000
43585132	702986	2	1	48	58	120	31.000000	124.000000
43585132	702986	2	1	48	67	120	31.000000	124.000000
43585132	702986	2	1	48	70	120	31.000000	124.000000
43585132	702986	2	1	48	79	120	31.000000	124.000000
43585132	702986	3	2	80	67	120	31.000000	124.000000
43585132	702986	3	2	80	70	120	31.000000	124.000000
43585132	87873	3	2	80	106	80	31.000000	124.000000
43585132	702986	4	3	57	58	120	31.000000	124.000000
43585132	175746	10	9	16	36	100	31.000000	124.000000
43585132	175746	10	9	16	46	80	31.000000	124.000000
43585132	351493	13	12	29	34	120	31.000000	124.000000
43585132	351493	13	12	29	46	120	31.000000	124.000000
43585132	351493	14	13	30	34	120	31.000000	124.000000
43585132	351493	14	13	30	46	120	31.000000	124.000000
43585132	175746	15	14	33	22	120	31.000000	124.000000
43585132	175746	15	14	33	34	120	31.000000	124.000000
43760878	87873	3	2	80	98	80	31.125000	124.500000
43760878	87873	5	4	0	82	120	31.125000	124.500000
43760878	175747	10	9	16	36	100	31.125000	124.500000
43936625	87873	3	2	80	96	80	31.250000	125.000000
43936625	87873	5	4	0	81	120	31.250000	125.000000
43936625	175746	10	9	16	38	100	31.250000	125.000000
43936625	175746	10	9	16	46	80	31.250000	125.000000
43936625	351493	13	12	29	34	120	31.250000	125.000000
43936625	351493	13	12	29	46	120	31.250000	125.000000
43936625	351493	14	13	30	34	120	31.250000	125.000000
43936625	351493	14	13	30	46	120	31.250000	125.000000
43936625	175746	15	14	33	22	120	31.250000	125.000000
43936625	175746	15	14	33	34	120	31.250000	125.000000
44112371	87873	3	2	80	98	80	31.375000	125.500000
44112371	87873	5	4	0	77	120	31.375000	125.500000
44112371	175747	10	9	16	36	100	31.375000	125.500000
44288118	87873	3	2	80	96	80	31.500000	126.000000
44288118	87873	5	4	0	74	120	31.500000	126.000000
44288118	175746	10	9	16	36	100	31.500000	126.000000
44288118	175746	10	9	16	46	80	31.500000	126.000000
44288118	175746	13	12	29	36	120	31.500000	126.000000
44288118	175746	13	12	29	48	120	31.500000	126.000000
44288118	175746	14	13	30	36	120	31.500000	126.000000
44288118	175746	14	13	30	48	120	31.500000	126.000000
44288118	175746	15	14	33	24	120	31.500000	126.000000
44288118	175746	15	14	33	36	120	31.500000	126.000000
44463864	87873	3	2	80	94	80	31.625000	126.500000
44463864	87873	5	4	0	72	120	31.625000	126.500000
44463864	175747	10	9	16	36	100	31.625000	126.500000
44463864	175747	13	12	29	34	120	31.625000	126.500000
44463864	175747	13	12	29	46	120	31.625000	126.500000
44463864	175747	14	13	30	34	120	31.625000	126.500000
44463864	175747	14	13	30	46	120	31.625000	126.500000
44463864	175747	15	14	33	22	120	31.625000	126.500000
44463864	175747	15	14	33	34	120	31.625000	126.500000
44639611	87873	3	2	80	96	80	31.750000	127.000000
44639611	87873	5	4	0	70	120	31.750000	127.000000
44639611	175746	10	9	16	38	100	31.750000	127.000000
44639611	175746	10	9	16	46	80	31.750000	127.000000
44639611	175746	13	12	29	36	120	31.750000	127.000000
44639611	175746	13	12	29	48	120	31.750000	127.000000
44639611	175746	14	13	30	36	120	31.750000	127.000000
44639611	175746	14	13	30	48	120	31.750000	127.000000
44639611	175746	15	14	33	24	120	31.750000	127.000000
44639611	175746	15	14	33	36	120	31.750000	127.000000
44815357	87873	3	2	80	98	80	31.875000	127.500000
44815357	87873	5	4	0	65	120	31.875000	127.500000
44815357	175747	10	9	16	36	100	31.875000	127.500000
44815357	175747	13	12	29	38	120	31.875000	127.500000
44815357	175747	13	12	29	50	120	31.875000	127.500000
44815357	175747	14	13	30	38	120	31.875000	127.500000
44815357	175747	14	13	30	50	120	31.875000	127.500000
44815357	175747	15	14	33	26	120	31.875000	127.500000
44815357	175747	15	14	33	38	120	31.875000	127.500000
44991104	175849	6	5	110	65	120	32.000000	128.000000
44991104	351699	10	9	16	36	100	32.000000	128.000000
44991104	351699	10	9	16	49	100	32.000000	128.000000
44991104	175849	13	12	29	36	100	32.000000	128.000000
44991104	175849	13	12	29	48	100	32.000000	128.000000
44991104	175849	14	13	30	36	100	32.000000	128.000000
44991104	175849	14	13	30	48	100	32.000000	128.000000
44991104	175849	15	14	33	24	120	32.000000	128.000000
44991104	175849	15	14	33	36	120	32.000000	128.000000
45342803	175850	6	5	110	58	120	32.125000	128.500000
45342803	175850	8	7	110	65	90	32.125000	128.500000
45342803	351700	10	9	16	46	80	32.125000	128.500000
45342803	175850	13	12	29	36	100	32.125000	128.500000
45342803	175850	13	12	29	48	100	32.125000	128.500000
45342803	175850	14	13	30	36	100	32.125000	128.500000
45342803	175850	14	13	30	48	100	32.125000	128.500000
45342803	175850	15	14	33	24	120	32.125000	128.500000
45342803	175850	15	14	33	36	120	32.125000	128.500000
45694503	175849	6	5	110	60	120	32.250000	129.000000
45694503	175849	8	7	110	58	90	32.250000	129.000000
45694503	351699	10	9	16	38	100	32.250000	129.000000
45870352	175850	13	12	29	36	100	32.312500	129.250000
45870352	175850	13	12	29	48	100	32.312500	129.250000
45870352	175850	14	13	30	36	100	32.312500	129.250000
45870352	175850	14	13	30	48	100	32.312500	129.250000
45870352	175850	15	14	33	24	120	32.312500	129.250000
45870352	175850	15	14	33	36	120	32.312500	129.250000
46046202	175850	6	5	110	58	120	32.375000	129.500000
46046202	175850	8	7	110	60	90	32.375000	129.500000
46046202	351700	10	9	16	47	100	32.375000	129.500000
46046202	351700	13	12	29	36	100	32.375000	129.500000
46046202	351700	13	12	29	48	100	32.375000	129.500000
46046202	351700	14	13	30	36	100	32.375000	129.500000
46046202	351700	14	13	30	48	100	32.375000	129.500000
46046202	351700	15	14	33	24	120	32.375000	129.500000
46046202	351700	15	14	33	36	120	32.375000	129.500000
46397902	175849	6	5	110	53	120	32.500000	130.000000
46397902	175849	8	7	110	58	90	32.500000	130.000000
46397902	351699	10	9	16	36	100	32.500000	130.000000
46397902	351699	10	9	16	43	100	32.500000	130.000000
46397902	175849	13	12	29	36	100	32.500000	130.000000
46397902	175849	13	12	29	48	100	32.500000	130.000000
46397902	175849	14	13	30	36	100	32.500000	130.000000
46397902	175849	14	13	30	48	100	32.500000	130.000000
46397902	175849	15	14	33	24	120	32.500000	130.000000
46397902	175849	15	14	33	36	120	32.500000	130.000000
46749601	175850	6	5	110	58	120	32.625000	130.500000
46749601	175850	8	7	110	53	90	32.625000	130.500000
46749601	703399	10	9	16	46	80	32.625000	130.500000
46749601	175850	13	12	29	36	100	32.625000	130.500000
46749601	175850	13	12	29	48	100	32.625000	130.500000
46749601	175850	14	13	30	36	100	32.625000	130.500000
46749601	175850	14	13	30	48	100	32.625000	130.500000
46749601	175850	15	14	33	24	120	32.625000	130.500000
46749601	175850	15	14	33	36	120	32.625000	130.500000
47101301	175849	6	5	110	60	120	32.750000	131.000000
47101301	175849	8	7	110	58	90	32.750000	131.000000
47101301	351699	10	9	16	38	100	32.750000	131.000000
47277150	175850	13	12	29	36	100	32.812500	131.250000
47277150	175850	13	12	29	48	100	32.812500	131.250000
47277150	175850	14	13	30	36	100	32.812500	131.250000
47277150	175850	14	13	30	48	100	32.812500	131.250000
47277150	175850	15	14	33	24	120	32.812500	131.250000
47277150	175850	15	14	33	36	120	32.812500	131.250000
47453000	175850	6	5	110	58	120	32.875000	131.500000
47453000	175850	8	7	110	60	90	32.875000	131.500000
47453000	351700	10	9	16	47	100	32.875000	131.500000
47453000	351700	13	12	29	36	100	32.875000	131.500000
47453000	351700	13	12	29	48	100	32.875000	131.500000
47453000	351700	14	13	30	36	100	32.875000	131.500000
47453000	351700	14	13	30	48	100	32.875000	131.500000
47453000	351700	15	14	33	24	120	32.875000	131.500000
47453000	351700	15	14	33	36	120	32.875000	131.500000
47804700	175849	6	5	110	53	120	33.000000	132.000000
47804700	175849	8	7	110	58	90	33.000000	132.000000
47804700	351699	10	9	16	36	100	33.000000	132.000000
47804700	351699	10	9	16	43	100	33.000000	132.000000
47804700	175849	13	12	29	38	100	33.000000	132.000000
47804700	175849	13	12	29	50	100	33.000000	132.000000
47804700	175849	14	13	30	38	100	33.000000	132.000000
47804700	175849	14	13	30	50	100	33.000000	132.000000
47804700	175849	15	14	33	26	120	33.000000	132.000000
47804700	175849	15	14	33	38	120	33.000000	132.000000
48156399	175850	6	5	110	53	120	33.125000	132.500000
48156399	175850	8	7	110	53	90	33.125000	132.500000
48156399	351700	10	9	16	46	80	33.125000	132.500000
48156399	175850	13	12	29	38	100	33.125000	132.500000
48156399	175850	13	12	29	50	100	33.125000	132.500000
48156399	175850	14	13	30	38	100	33.125000	132.500000
48156399	175850	14	13	30	50	100	33.125000	132.500000
48156399	175850	15	14	33	26	120	33.125000	132.500000
48156399	175850	15	14	33	38	120	33.125000	132.500000
48332249	175850	6	5	110	58	120	33.187500	132.750000
48508099	175849	6	5	110	60	120	33.250000	133.000000
48508099	175849	8	7	110	53	90	33.250000	133.000000
48508099	351699	10	9	16	38	100	33.250000	133.000000
48683948	175850	8	7	110	58	90	33.312500	133.250000
48683948	175850	13	12	29	38	100	33.312500	133.250000
48683948	175850	13	12	29	50	100	33.312500	133.250000
48683948	175850	14	13	30	38	100	33.312500	133.250000
48683948	175850	14	13	30	50	100	33.312500	133.250000
48683948	175850	15	14	33	26	120	33.312500	133.250000
48683948	175850	15	14	33	38	120	33.312500	133.250000
48859798	175850	6	5	110	63	120	33.375000	133.500000
48859798	175850	8	7	110	60	90	33.375000	133.500000
48859798	351700	10	9	16	47	100	33.375000	133.500000
48859798	351700	13	12	29	38	100	33.375000	133.500000
48859798	351700	13	12	29	50	100	33.375000	133.500000
48859798	351700	14	13	30	38	100	33.375000	133.500000
48859798	351700	14	13	30	50	100	33.375000	133.500000
48859798	351700	15	14	33	26	120	33.375000	133.500000
48859798	351700	15	14	33	38	120	33.375000	133.500000
49211498	175849	6	5	110	62	120	33.500000	134.000000
49211498	175849	8	7	110	63	90	33.500000	134.000000
49211498	351699	10	9	16	36	100	33.500000	134.000000
49211498	351699	10	9	16	43	100	33.500000	134.000000
49211498	175849	13	12	29	38	100	33.500000	134.000000
49211498	175849	13	12	29	50	100	33.500000	134.000000
49211498	175849	14	13	30	38	100	33.500000	134.000000
49211498	175849	14	13	30	50	100	33.500000	134.000000
49211498	175849	15	14	33	26	120	33.500000	134.000000
49211498	175849	15	14	33	38	120	33.500000	134.000000
49563197	175850	6	5	110	63	120	33.625000	134.500000
49563197	175850	8	7	110	62	90	33.625000	134.500000
49563197	351700	10	9	16	46	80	33.625000	134.500000
49563197	175850	13	12	29	38	100	33.625000	134.500000
49563197	175850	13	12	29	50	100	33.625000	134.500000
49563197	175850	14	13	30	38	100	33.625000	134.500000
49563197	175850	14	13	30	50	100	33.625000	134.500000
49563197	175850	15	14	33	26	120	33.625000	134.500000
49563197	175850	15	14	33	38	120	33.625000	134.500000
49914897	175849	6	5	110	62	120	33.750000	135.000000
49914897	175849	8	7	110	63	90	33.750000	135.000000
49914897	351699	10	9	16	38	100	33.750000	135.000000
50090746	175850	6	5	110	60	120	33.812500	135.250000
50090746	175850	13	12	29	38	100	33.812500	135.250000
50090746	175850	13	12	29	50	100	33.812500	135.250000
50090746	175850	14	13	30	38	100	33.812500	135.250000
50090746	175850	14	13	30	50	100	33.812500	135.250000
50090746	175850	15	14	33	26	120	33.812500	135.250000
50090746	175850	15	14	33	38	120	33.812500	135.250000
50266596	175850	6	5	110	58	120	33.875000	135.500000
50266596	175850	8	7	110	62	90	33.875000	135.500000
50266596	351700	10	9	16	47	100	33.875000	135.500000
50266596	351700	13	12	29	38	100	33.875000	135.500000
50266596	351700	13	12	29	50	100	33.875000	135.500000
50266596	351700	14	13	30	38	100	33.875000	135.500000
50266596	351700	14	13	30	50	100	33.875000	135.500000
50266596	351700	15	14	33	26	120	33.875000	135.500000
50266596	351700	15	14	33	38	120	33.875000	135.500000
50442446	175850	8	7	110	60	90	33.937500	135.750000
50618296	175849	6	5	110	65	120	34.000000	136.000000
50618296	175849	7	6	110	70	100	34.000000	136.000000
50618296	175849	8	7	110	58	90	34.000000	136.000000
50618296	351699	10	9	16	36	100	34.000000	136.000000
50618296	351699	10	9	16	43	100	34.000000	136.000000
50618296	175849	13	12	29	39	100	34.000000	136.000000
50618296	175849	13	12	29	51	100	34.000000	136.000000
50618296	175849	14	13	30	39	100	34.000000	136.000000
50618296	175849	14	13	30	51	100	34.000000	136.000000
50618296	175849	15	14	33	27	120	34.000000	136.000000
50618296	175849	15	14	33	39	120	34.000000	136.000000
50969995	175850	6	5	110	58	120	34.125000	136.500000
50969995	175850	8	7	110	65	90	34.125000	136.500000
50969995	351700	10	9	16	46	80	34.125000	136.500000
50969995	175850	13	12	29	39	100	34.125000	136.500000
50969995	175850	13	12	29	51	100	34.125000	136.500000
50969995	175850	14	13	30	39	100	34.125000	136.500000
50969995	175850	14	13	30	51	100	34.125000	136.500000
50969995	175850	15	14	33	27	120	34.125000	136.500000
50969995	175850	15	14	33	39	120	34.125000	136.500000
51321695	175849	6	5	110	60	120	34.250000	137.000000
51321695	175849	7	6	110	69	100	34.250000	137.000000
51321695	175849	8	7	110	58	90	34.250000	137.000000
51321695	351699	10	9	16	38	100	34.250000	137.000000
51497544	175850	13	12	29	39	100	34.312500	137.250000
51497544	175850	13	12	29	51	100	34.312500	137.250000
51497544	175850	14	13	30	39	100	34.312500	137.250000
51497544	175850	14	13	30	51	100	34.312500	137.250000
51497544	175850	15	14	33	27	120	34.312500	137.250000
51497544	175850	15	14	33	39	120	34.312500	137.250000
51673394	175850	6	5	110	58	120	34.375000	137.500000
51673394	175850	8	7	110	60	90	34.375000	137.500000
51673394	351700	10	9	16	47	100	34.375000	137.500000
51673394	351700	13	12	29	39	100	34.375000	137.500000
51673394	351700	13	12	29	51	100	34.375000	137.500000
51673394	351700	14	13	30	39	100	34.375000	137.500000
51673394	351700	14	13	30	51	100	34.375000	137.500000
51673394	351700	15	14	33	27	120	34.375000	137.500000
51673394	351700	15	14	33	39	120	34.375000	137.500000
52025094	175849	6	5	110	53	120	34.500000	138.000000
52025094	175849	7	6	110	70	100	34.500000	138.000000
52025094	175849	8	7	110	58	90	34.500000	138.000000
52025094	351699	10	9	16	36	100	34.500000	138.000000
52025094	351699	10	9	16	43	100	34.500000	138.000000
52025094	175849	13	12	29	39	100	34.500000	138.000000
52025094	175849	13	12	29	51	100	34.500000	138.000000
52025094	175849	14	13	30	39	100	34.500000	138.000000
52025094	175849	14	13	30	51	100	34.500000	138.000000
52025094	175849	15	14	33	27	120	34.500000	138.000000
52025094	175849	15	14	33	39	120	34.500000	138.000000
52376793	175850	6	5	110	58	120	34.625000	138.500000
52376793	175850	8	7	110	53	90	34.625000	138.500000
52376793	351700	10	9	16	46	80	34.625000	138.500000
52376793	175850	13	12	29	39	100	34.625000	138.500000
52376793	175850	13	12	29	51	100	34.625000	138.500000
52376793	175850	14	13	30	39	100	34.625000	138.500000
52376793	175850	14	13	30	51	100	34.625000	138.500000
52376793	175850	15	14	33	27	120	34.625000	138.500000
52376793	175850	15	14	33	39	120	34.625000	138.500000
52728493	175849	6	5	110	60	120	34.750000	139.000000
52728493	175849	7	6	110	69	100	34.750000	139.000000
52728493	175849	8	7	110	58	90	34.750000	139.000000
52728493	351699	10	9	16	38	100	34.750000	139.000000
52904342	175850	13	12	29	39	100	34.812500	139.250000
52904342	175850	13	12	29	51	100	34.812500	139.250000
52904342	175850	14	13	30	39	100	34.812500	139.250000
52904342	175850	14	13	30	51	100	34.812500	139.250000
52904342	175850	15	14	33	27	120	34.812500	139.250000
52904342	175850	15	14	33	39	120	34.812500	139.250000
53080192	175850	6	5	110	58	120	34.875000	139.500000
53080192	175850	7	6	110	70	100	34.875000	139.500000
53080192	175850	8	7	110	60	90	34.875000	139.500000
53080192	351700	10	9	16	47	100	34.875000	139.500000
53080192	351700	13	12	29	39	100	34.875000	139.500000
53080192	351700	13	12	29	51	100	34.875000	139.500000
53080192	351700	14	13	30	39	100	34.875000	139.500000
53080192	351700	14	13	30	51	100	34.875000	139.500000
53080192	351700	15	14	33	27	120	34.875000	139.500000
53080192	351700	15	14	33	39	120	34.875000	139.500000
53431892	175849	6	5	110	53	120	35.000000	140.000000
53431892	175849	7	6	110	72	100	35.000000	140.000000
53431892	175849	8	7	110	58	90	35.000000	140.000000
53431892	351699	10	9	16	36	100	35.000000	140.000000
53431892	351699	10	9	16	43	100	35.000000	140.000000
53431892	175849	13	12	29	41	100	35.000000	140.000000
53431892	175849	13	12	29	53	100	35.000000	140.000000
53431892	175849	14	13	30	41	100	35.000000	140.000000
53431892	175849	14	13	30	53	100	35.000000	140.000000
53431892	175849	15	14	33	29	120	35.000000	140.000000
53431892	175849	15	14	33	41	120	35.000000	140.000000
53783591	175850	6	5	110	53	120	35.125000	140.500000
53783591	175850	8	7	110	53	90	35.125000	140.500000
53783591	351700	10	9	16	46	80	35.125000	140.500000
53783591	175850	13	12	29	41	100	35.125000	140.500000
53783591	175850	13	12	29	53	100	35.125000	140.500000
53783591	175850	14	13	30	41	100	35.125000	140.500000
53783591	175850	14	13	30	53	100	35.125000	140.500000
53783591	175850	15	14	33	29	120	35.125000	140.500000
53783591	175850	15	14	33	41	120	35.125000	140.500000
53959441	175850	6	5	110	58	120	35.187500	140.750000
53959441	175850	7	6	110	65	100	35.187500	140.750000
54135291	175849	6	5	110	60	120	35.250000	141.000000
54135291	175849	7	6	110	72	100	35.250000	141.000000
54135291	175849	8	7	110	53	90	35.250000	141.000000
54135291	351699	10	9	16	38	100	35.250000	141.000000
54311140	175850	7	6	110	70	100	35.312500	141.250000
54311140	175850	8	7	110	58	90	35.312500	141.250000
54311140	175850	13	12	29	41	100	35.312500	141.250000
54311140	175850	13	12	29	53	100	35.312500	141.250000
54311140	175850	14	13	30	41	100	35.312500	141.250000
54311140	175850	14	13	30	53	100	35.312500	141.250000
54311140	175850	15	14	33	29	120	35.312500	141.250000
54311140	175850	15	14	33	41	120	35.312500	141.250000
54486990	175850	6	5	110	63	120	35.375000	141.500000
54486990	175850	7	6	110	69	100	35.375000	141.500000
54486990	175850	8	7	110	60	90	35.375000	141.500000
54486990	351700	10	9	16	47	100	35.375000	141.500000
54486990	351700	13	12	29	41	100	35.375000	141.500000
54486990	351700	13	12	29	53	100	35.375000	141.500000
54486990	351700	14	13	30	41	100	35.375000	141.500000
54486990	351700	14	13	30	53	100	35.375000	141.500000
54486990	351700	15	14	33	29	120	35.375000	141.500000
54486990	351700	15	14	33	41	120	35.375000	141.500000
54838690	175849	6	5	110	62	120	35.500000	142.000000
54838690	175849	7	6	110	70	100	35.500000	142.000000
54838690	175849	8	7	110	63	90	35.500000	142.000000
54838690	351699	10	9	16	36	100	35.500000	142.000000
54838690	351699	10	9	16	43	100	35.500000	142.000000
54838690	175849	13	12	29	41	100	35.500000	142.000000
54838690	175849	13	12	29	53	100	35.500000	142.000000
54838690	175849	14	13	30	41	100	35.500000	142.000000
54838690	175849	14	13	30	53	100	35.500000	142.000000
54838690	175849	15	14	33	29	120	35.500000	142.000000
54838690	175849	15	14	33	41	120	35.500000	142.000000
55190389	175850	6	5	110	63	120	35.625000	142.500000
55190389	175850	7	6	110	69	100	35.625000	142.500000
55190389	175850	8	7	110	62	90	35.625000	142.500000
55190389	351700	10	9	16	46	80	35.625000	142.500000
55190389	175850	13	12	29	41	100	35.625000	142.500000
55190389	175850	13	12	29	53	100	35.625000	142.500000
55190389	175850	14	13	30	41	100	35.625000	142.500000
55190389	175850	14	13	30	53	100	35.625000	142.500000
55190389	175850	15	14	33	29	120	35.625000	142.500000
55190389	175850	15	14	33	41	120	35.625000	142.500000
55542089	175849	6	5	110	62	120	35.750000	143.000000
55542089	175849	7	6	110	70	100	35.750000	143.000000
55542089	175849	8	7	110	63	90	35.750000	143.000000
55542089	351699	10	9	16	38	100	35.750000	143.000000
55717938	175850	6	5	110	60	120	35.812500	143.250000
55717938	175850	13	12	29	41	100	35.812500	143.250000
55717938	175850	13	12	29	53	100	35.812500	143.250000
55717938	175850	14	13	30	41	100	35.812500	143.250000
55717938	175850	14	13	30	53	100	35.812500	143.250000
55717938	175850	15	14	33	29	120	35.812500	143.250000
55717938	175850	15	14	33	41	120	35.812500	143.250000
55893788	175850	6	5	110	58	120	35.875000	143.500000
55893788	175850	7	6	110	72	100	35.875000	143.500000
55893788	175850	8	7	110	62	90	35.875000	143.500000
55893788	351700	10	9	16	47	100	35.875000	143.500000
55893788	351700	13	12	29	41	100	35.875000	143.500000
55893788	351700	13	12	29	53	100	35.875000	143.500000
55893788	351700	14	13	30	41	100	35.875000	143.500000
55893788	351700	14	13	30	53	100	35.875000	143.500000
55893788	351700	15	14	33	29	120	35.875000	143.500000
55893788	351700	15	14	33	41	120	35.875000	143.500000
56069638	175850	8	7	110	60	90	35.937500	143.750000
56245488	2813596	2	1	48	48	100	36.000000	144.000000
56245488	2813596	2	1	48	60	100	36.000000	144.000000
56245488	2813596	2	1	48	70	100	36.000000	144.000000
56245488	175849	5	4	0	74	100	36.000000	144.000000
56245488	175849	6	5	110	65	120	36.000000	144.000000
56245488	175849	7	6	110	70	100	36.000000	144.000000
56245488	175849	7	6	110	74	100	36.000000	144.000000
56245488	175849	8	7	110	58	90	36.000000	144.000000
56245488	351699	10	9	16	36	100	36.000000	144.000000
56245488	351699	10	9	16	43	100	36.000000	144.000000
56245488	175849	13	12	29	36	100	36.000000	144.000000
56245488	175849	13	12	29	48	100	36.000000	144.000000
56245488	175849	14	13	30	36	100	36.000000	144.000000
56245488	175849	14	13	30	48	100	36.000000	144.000000
56245488	175849	15	14	33	24	120	36.000000	144.000000
56245488	175849	15	14	33	36	120	36.000000	144.000000
56597187	175850	6	5	110	58	120	36.125000	144.500000
56597187	175850	8	7	110	65	90	36.125000	144.500000
56597187	351700	10	9	16	46	80	36.125000	144.500000
56597187	175850	13	12	29	36	100	36.125000	144.500000
56597187	175850	13	12	29	48	100	36.125000	144.500000
56597187	175850	14	13	30	36	100	36.125000	144.500000
56597187	175850	14	13	30	48	100	36.125000	144.500000
56597187	175850	15	14	33	24	120	36.125000	144.500000
56597187	175850	15	14	33	36	120	36.125000	144.500000
56948887	175849	5	4	0	77	100	36.250000	145.000000
56948887	175849	6	5	110	60	120	36.250000	145.000000
56948887	175849	7	6	110	69	100	36.250000	145.000000
56948887	175849	7	6	110	77	100	36.250000	145.000000
56948887	175849	8	7	110	58	90	36.250000	145.000000
56948887	351699	10	9	16	38	100	36.250000	145.000000
57124736	175850	13	12	29	36	100	36.312500	145.250000
57124736	175850	13	12	29	48	100	36.312500	145.250000
57124736	175850	14	13	30	36	100	36.312500	145.250000
57124736	175850	14	13	30	48	100	36.312500	145.250000
57124736	175850	15	14	33	24	120	36.312500	145.250000
57124736	175850	15	14	33	36	120	36.312500	145.250000
57300586	175850	6	5	110	58	120	36.375000	145.500000
57300586	175850	8	7	110	60	90	36.375000	145.500000
57300586	351700	10	9	16	47	100	36.375000	145.500000
57300586	351700	13	12	29	36	100	36.375000	145.500000
57300586	351700	13	12	29	48	100	36.375000	145.500000
57300586	351700	14	13	30	36	100	36.375000	145.500000
57300586	351700	14	13	30	48	100	36.375000	145.500000
57300586	351700	15	14	33	24	120	36.375000	145.500000
57300586	351700	15	14	33	36	120	36.375000	145.500000
57652286	175849	5	4	0	74	100	36.500000	146.000000
57652286	175849	6	5	110	53	120	36.500000	146.000000
57652286	175849	7	6	110	70	100	36.500000	146.000000
57652286	175849	7	6	110	74	100	36.500000	146.000000
57652286	175849	8	7	110	58	90	36.500000	146.000000
57652286	351699	10	9	16	36	100	36.500000	146.000000
57652286	351699	10	9	16	43	100	36.500000	146.000000
57652286	175849	13	12	29	36	100	36.500000	146.000000
57652286	175849	13	12	29	48	100	36.500000	146.000000
57652286	175849	14	13	30	36	100	36.500000	146.000000
57652286	175849	14	13	30	48	100	36.500000	146.000000
57652286	175849	15	14	33	24	120	36.500000	146.000000
57652286	175849	15	14	33	36	120	36.500000	146.000000
58003985	175850	6	5	110	58	120	36.625000	146.500000
58003985	175850	8	7	110	53	90	36.625000	146.500000
58003985	351700	10	9	16	46	80	36.625000	146.500000
58003985	175850	13	12	29	36	100	36.625000	146.500000
58003985	175850	13	12	29	48	100	36.625000	146.500000
58003985	175850	14	13	30	36	100	36.625000	146.500000
58003985	175850	14	13	30	48	100	36.625000	146.500000
58003985	175850	15	14	33	24	120	36.625000	146.500000
58003985	175850	15	14	33	36	120	36.625000	146.500000
58355685	175849	5	4	0	77	100	36.750000	147.000000
58355685	175849	6	5	110	60	120	36.750000	147.000000
58355685	175849	7	6	110	69	100	36.750000	147.000000
58355685	175849	7	6	110	77	100	36.750000	147.000000
58355685	175849	8	7	110	58	90	36.750000	147.000000
58355685	351699	10	9	16	38	100	36.750000	147.000000
58531534	175850	13	12	29	36	100	36.812500	147.250000
58531534	175850	13	12	29	48	100	36.812500	147.250000
58531534	175850	14	13	30	36	100	36.812500	147.250000
58531534	175850	14	13	30	48	100	36.812500	147.250000
58531534	175850	15	14	33	24	120	36.812500	147.250000
58531534	175850	15	14	33	36	120	36.812500	147.250000
58707384	175850	5	4	0	74	100	36.875000	147.500000
58707384	175850	6	5	110	58	120	36.875000	147.500000
58707384	175850	7	6	110	70	100	36.875000	147.500000
58707384	175850	7	6	110	74	100	36.875000	147.500000
58707384	175850	8	7	110	60	90	36.875000	147.500000
58707384	351700	10	9	16	47	100	36.875000	147.500000
58707384	351700	13	12	29	36	100	36.875000	147.500000
58707384	351700	13	12	29	48	100	36.875000	147.500000
58707384	351700	14	13	30	36	100	36.875000	147.500000
58707384	351700	14	13	30	48	100	36.875000	147.500000
58707384	351700	15	14	33	24	120	36.875000	147.500000
58707384	351700	15	14	33	36	120	36.875000	147.500000
59059084	2813596	2	1	48	50	100	37.000000	148.000000
59059084	2813596	2	1	48	62	100	37.000000	148.000000
59059084	2813596	2	1	48	72	100	37.000000	148.000000
59059084	175849	5	4	0	77	100	37.000000	148.000000
59059084	175849	6	5	110	53	120	37.000000	148.000000
59059084	175849	7	6	110	72	100	37.000000	148.000000
59059084	175849	7	6	110	77	100	37.000000	148.000000
59059084	175849	8	7	110	58	90	37.000000	148.000000
59059084	351699	10	9	16	36	100	37.000000	148.000000
59059084	351699	10	9	16	43	100	37.000000	148.000000
59059084	175849	13	12	29	38	100	37.000000	148.000000
59059084	175849	13	12	29	50	100	37.000000	148.000000
59059084	175849	14	13	30	38	100	37.000000	148.000000
59059084	175849	14	13	30	50	100	37.000000	148.000000
59059084	175849	15	14	33	26	120	37.000000	148.000000
59059084	175849	15	14	33	38	120	37.000000	148.000000
59410783	175850	6	5	110	53	120	37.125000	148.500000
59410783	175850	8	7	110	53	90	37.125000	148.500000
59410783	351700	10	9	16	46	80	37.125000	148.500000
59410783	175850	13	12	29	38	100	37.125000	148.500000
59410783	175850	13	12	29	50	100	37.125000	148.500000
59410783	175850	14	13	30	38	100	37.125000	148.500000
59410783	175850	14	13	30	50	100	37.125000	148.500000
59410783	175850	15	14	33	26	120	37.125000	148.500000
59410783	175850	15	14	33	38	120	37.125000	148.500000
59586633	175850	5	4	0	72	100	37.187500	148.750000
59586633	175850	6	5	110	58	120	37.187500	148.750000
59586633	175850	7	6	110	65	100	37.187500	148.750000
59586633	175850	7	6	110	72	100	37.187500	148.750000
59762483	175849	5	4	0	77	100	37.250000	149.000000
59762483	175849	6	5	110	60	120	37.250000	149.000000
59762483	175849	7	6	110	72	100	37.250000	149.000000
59762483	175849	7	6	110	77	100	37.250000	149.000000
59762483	175849	8	7	110	53	90	37.250000	149.000000
59762483	351699	10	9	16	38	100	37.250000	149.000000
59938332	175850	5	4	0	75	100	37.312500	149.250000
59938332	175850	7	6	110	70	100	37.312500	149.250000
59938332	175850	7	6	110	75	100	37.312500	149.250000
59938332	175850	8	7	110	58	90	37.312500	149.250000
59938332	175850	13	12	29	38	100	37.312500	149.250000
59938332	175850	13	12	29	50	100	37.312500	149.250000
59938332	175850	14	13	30	38	100	37.312500	149.250000
59938332	175850	14	13	30	50	100	37.312500	149.250000
59938332	175850	15	14	33	26	120	37.312500	149.250000
59938332	175850	15	14	33	38	120	37.312500	149.250000
60114182	175850	5	4	0	74	100	37.375000	149.500000
60114182	175850	6	5	110	63	120	37.375000	149.500000
60114182	175850	7	6	110	69	100	37.375000	149.500000
60114182	175850	7	6	110	74	100	37.375000	149.500000
60114182	175850	8	7	110	60	90	37.375000	149.500000
60114182	351700	10	9	16	47	100	37.375000	149.500000
60114182	351700	13	12	29	38	100	37.375000	149.500000
60114182	351700	13	12	29	50	100	37.375000	149.500000
60114182	351700	14	13	30	38	100	37.375000	149.500000
60114182	351700	14	13	30	50	100	37.375000	149.500000
60114182	351700	15	14	33	26	120	37.375000	149.500000
60114182	351700	15	14	33	38	120	37.375000	149.500000
60290032	175850	7	6	110	77	100	37.437500	149.750000
60465882	175849	5	4	0	70	100	37.500000	150.000000
60465882	175849	6	5	110	62	120	37.500000	150.000000
60465882	175849	7	6	110	70	100	37.500000	150.000000
60465882	175849	7	6	110	78	100	37.500000	150.000000
60465882	175849	8	7	110	63	90	37.500000	150.000000
60465882	351699	10	9	16	36	100	37.500000	150.000000
60465882	351699	10	9	16	43	100	37.500000	150.000000
60465882	175849	13	12	29	38	100	37.500000	150.000000
60465882	175849	13	12	29	50	100	37.500000	150.000000
60465882	175849	14	13	30	38	100	37.500000	150.000000
60465882	175849	14	13	30	50	100	37.500000	150.000000
60465882	175849	15	14	33	26	120	37.500000	150.000000
60465882	175849	15	14	33	38	120	37.500000	150.000000
60641731	175850	7	6	110	79	100	37.562500	150.250000
60817581	175850	6	5	110	63	120	37.625000	150.500000
60817581	175850	7	6	110	69	100	37.625000	150.500000
60817581	175850	7	6	110	77	100	37.625000	150.500000
60817581	175850	8	7	110	62	90	37.625000	150.500000
60817581	351700	10	9	16	46	80	37.625000	150.500000
60817581	175850	13	12	29	38	100	37.625000	150.500000
60817581	175850	13	12	29	50	100	37.625000	150.500000
60817581	175850	14	13	30	38	100	37.625000	150.500000
60817581	175850	14	13	30	50	100	37.625000	150.500000
60817581	175850	15	14	33	26	120	37.625000	150.500000
60817581	175850	15	14	33	38	120	37.625000	150.500000
60993431	175850	5	4	0	72	100	37.687500	150.750000
60993431	175850	7	6	110	72	100	37.687500	150.750000
61169281	175849	5	4	0	74	100	37.750000	151.000000
61169281	175849	6	5	110	62	120	37.750000	151.000000
61169281	175849	7	6	110	70	100	37.750000	151.000000
61169281	175849	7	6	110	74	100	37.750000	151.000000
61169281	175849	8	7	110	63	90	37.750000	151.000000
61169281	351699	10	9	16	38	100	37.750000	151.000000
61345130	175850	6	5	110	60	120	37.812500	151.250000
61345130	175850	13	12	29	38	100	37.812500	151.250000
61345130	175850	13	12	29	50	100	37.812500	151.250000
61345130	175850	14	13	30	38	100	37.812500	151.250000
61345130	175850	14	13	30	50	100	37.812500	151.250000
61345130	175850	15	14	33	26	120	37.812500	151.250000
61345130	175850	15	14	33	38	120	37.812500	151.250000
61520980	175850	5	4	0	77	100	37.875000	151.500000
61520980	175850	6	5	110	58	120	37.875000	151.500000
61520980	175850	7	6	110	72	100	37.875000	151.500000
61520980	175850	7	6	110	77	100	37.875000	151.500000
61520980	175850	8	7	110	62	90	37.875000	151.500000
61520980	351700	10	9	16	47	100	37.875000	151.500000
61520980	351700	13	12	29	38	100	37.875000	151.500000
61520980	351700	13	12	29	50	100	37.875000	151.500000
61520980	351700	14	13	30	38	100	37.875000	151.500000
61520980	351700	14	13	30	50	100	37.875000	151.500000
61520980	351700	15	14	33	26	120	37.875000	151.500000
61520980	351700	15	14	33	38	120	37.875000	151.500000
61696830	175850	8	7	110	60	90	37.937500	151.750000
61872680	2813596	2	1	48	51	100	38.000000	152.000000
61872680	2813596	2	1	48	63	100	38.000000	152.000000
61872680	2813596	2	1	48	70	100	38.000000	152.000000
61872680	2813596	2	1	48	74	100	38.000000	152.000000
61872680	175849	5	4	0	74	100	38.000000	152.000000
61872680	175849	6	5	110	65	120	38.000000	152.000000
61872680	175849	7	6	110	70	100	38.000000	152.000000
61872680	175849	7	6	110	74	100	38.000000	152.000000
61872680	175849	8	7	110	58	90	38.000000	152.000000
61872680	351699	10	9	16	36	100	38.000000	152.000000
61872680	351699	10	9	16	43	100	38.000000	152.000000
61872680	175849	13	12	29	39	100	38.000000	152.000000
61872680	175849	13	12	29	51	100	38.000000	152.000000
61872680	175849	14	13	30	39	100	38.000000	152.000000
61872680	175849	14	13	30	51	100	38.000000	152.000000
61872680	175849	15	14	33	27	120	38.000000	152.000000
61872680	175849	15	14	33	39	120	38.000000	152.000000
62224379	175850	6	5	110	58	120	38.125000	152.500000
62224379	175850	8	7	110	65	90	38.125000	152.500000
62224379	351700	10	9	16	46	80	38.125000	152.500000
62224379	175850	13	12	29	39	100	38.125000	152.500000
62224379	175850	13	12	29	51	100	38.125000	152.500000
62224379	175850	14	13	30	39	100	38.125000	152.500000
62224379	175850	14	13	30	51	100	38.125000	152.500000
62224379	175850	15	14	33	27	120	38.125000	152.500000
62224379	175850	15	14	33	39	120	38.125000	152.500000
62576079	175849	5	4	0	70	100	38.250000	153.000000
62576079	175849	6	5	110	60	120	38.250000	153.000000
62576079	175849	7	6	110	69	100	38.250000	153.000000
62576079	175849	7	6	110	77	100	38.250000	153.000000
62576079	175849	8	7	110	58	90	38.250000	153.000000
62576079	351699	10	9	16	38	100	38.250000	153.000000
62751928	175850	13	12	29	39	100	38.312500	153.250000
62751928	175850	13	12	29	51	100	38.312500	153.250000
62751928	175850	14	13	30	39	100	38.312500	153.250000
62751928	175850	14	13	30	51	100	38.312500	153.250000
62751928	175850	15	14	33	27	120	38.312500	153.250000
62751928	175850	15	14	33	39	120	38.312500	153.250000
62927778	175850	6	5	110	58	120	38.375000	153.500000
62927778	175850	8	7	110	60	90	38.375000	153.500000
62927778	351700	10	9	16	47	100	38.375000	153.500000
62927778	351700	13	12	29	39	100	38.375000	153.500000
62927778	351700	13	12	29	51	100	38.375000	153.500000
62927778	351700	14	13	30	39	100	38.375000	153.500000
62927778	351700	14	13	30	51	100	38.375000	153.500000
62927778	351700	15	14	33	27	120	38.375000	153.500000
62927778	351700	15	14	33	39	120	38.375000	153.500000
63279478	175849	5	4	0	74	100	38.500000	154.000000
63279478	175849	6	5	110	53	120	38.500000	154.000000
63279478	175849	7	6	110	70	100	38.500000	154.000000
63279478	175849	7	6	110	74	100	38.500000	154.000000
63279478	175849	8	7	110	58	90	38.500000	154.000000
63279478	351699	10	9	16	36	100	38.500000	154.000000
63279478	351699	10	9	16	43	100	38.500000	154.000000
63279478	175849	13	12	29	39	100	38.500000	154.000000
63279478	175849	13	12	29	51	100	38.500000	154.000000
63279478	175849	14	13	30	39	100	38.500000	154.000000
63279478	175849	14	13	30	51	100	38.500000	154.000000
63279478	175849	15	14	33	27	120	38.500000	154.000000
63279478	175849	15	14	33	39	120	38.500000	154.000000
63631177	175850	6	5	110	58	120	38.625000	154.500000
63631177	175850	8	7	110	53	90	38.625000	154.500000
63631177	351700	10	9	16	46	80	38.625000	154.500000
63631177	175850	13	12	29	39	100	38.625000	154.500000
63631177	175850	13	12	29	51	100	38.625000	154.500000
63631177	175850	14	13	30	39	100	38.625000	154.500000
63631177	175850	14	13	30	51	100	38.625000	154.500000
63631177	175850	15	14	33	27	120	38.625000	154.500000
63631177	175850	15	14	33	39	120	38.625000	154.500000
63982877	175849	5	4	0	70	100	38.750000	155.000000
63982877	175849	6	5	110	60	120	38.750000	155.000000
63982877	175849	7	6	110	69	100	38.750000	155.000000
63982877	175849	7	6	110	77	100	38.750000	155.000000
63982877	175849	8	7	110	58	90	38.750000	155.000000
63982877	351699	10	9	16	38	100	38.750000	155.000000
64158726	175850	13	12	29	39	100	38.812500	155.250000
64158726	175850	13	12	29	51	100	38.812500	155.250000
64158726	175850	14	13	30	39	100	38.812500	155.250000
64158726	175850	14	13	30	51	100	38.812500	155.250000
64158726	175850	15	14	33	27	120	38.812500	155.250000
64158726	175850	15	14	33	39	120	38.812500	155.250000
64334576	175850	5	4	0	74	100	38.875000	155.500000
64334576	175850	6	5	110	58	120	38.875000	155.500000
64334576	175850	7	6	110	70	100	38.875000	155.500000
64334576	175850	7	6	110	74	100	38.875000	155.500000
64334576	175850	8	7	110	60	90	38.875000	155.500000
64334576	351700	10	9	16	47	100	38.875000	155.500000
64334576	351700	13	12	29	39	100	38.875000	155.500000
64334576	351700	13	12	29	51	100	38.875000	155.500000
64334576	351700	14	13	30	39	100	38.875000	155.500000
64334576	351700	14	13	30	51	100	38.875000	155.500000
64334576	351700	15	14	33	27	120	38.875000	155.500000
64334576	351700	15	14	33	39	120	38.875000	155.500000
64686276	1406798	2	1	48	53	100	39.000000	156.000000
64686276	1406798	2	1	48	65	100	39.000000	156.000000
64686276	1406798	2	1	48	72	100	39.000000	156.000000
64686276	1406798	2	1	48	75	100	39.000000	156.000000
64686276	175849	5	4	0	75	100	39.000000	156.000000
64686276	175849	6	5	110	53	120	39.000000	156.000000
64686276	175849	7	6	110	72	100	39.000000	156.000000
64686276	175849	7	6	110	77	100	39.000000	156.000000
64686276	175849	8	7	110	58	90	39.000000	156.000000
64686276	351699	10	9	16	36	100	39.000000	156.000000
64686276	351699	10	9	16	43	100	39.000000	156.000000
64686276	175849	13	12	29	41	100	39.000000	156.000000
64686276	175849	13	12	29	53	100	39.000000	156.000000
64686276	175849	14	13	30	41	100	39.000000	156.000000
64686276	175849	14	13	30	53	100	39.000000	156.000000
64686276	175849	15	14	33	29	120	39.000000	156.000000
64686276	175849	15	14	33	41	120	39.000000	156.000000
65037975	175850	6	5	110	53	120	39.125000	156.500000
65037975	175850	8	7	110	53	90	39.125000	156.500000
65037975	351700	10	9	16	46	80	39.125000	156.500000
65037975	175850	13	12	29	41	100	39.125000	156.500000
65037975	175850	13	12	29	53	100	39.125000	156.500000
65037975	175850	14	13	30	41	100	39.125000	156.500000
65037975	175850	14	13	30	53	100	39.125000	156.500000
65037975	175850	15	14	33	29	120	39.125000	156.500000
65037975	175850	15	14	33	41	120	39.125000	156.500000
65213825	175850	5	4	0	74	100	39.187500	156.750000
65213825	175850	6	5	110	58	120	39.187500	156.750000
65213825	175850	7	6	110	65	100	39.187500	156.750000
65213825	175850	7	6	110	72	100	39.187500	156.750000
65389675	175849	5	4	0	75	100	39.250000	157.000000
65389675	175849	6	5	110	60	120	39.250000	157.000000
65389675	175849	7	6	110	72	100	39.250000	157.000000
65389675	175849	7	6	110	77	100	39.250000	157.000000
65389675	175849	8	7	110	53	90	39.250000	157.000000
65389675	351699	10	9	16	38	100	39.250000	157.000000
65565524	175850	7	6	110	70	100	39.312500	157.250000
65565524	175850	7	6	110	75	100	39.312500	157.250000
65565524	175850	8	7	110	58	90	39.312500	157.250000
65565524	175850	13	12	29	41	100	39.312500	157.250000
65565524	175850	13	12	29	53	100	39.312500	157.250000
65565524	175850	14	13	30	41	100	39.312500	157.250000
65565524	175850	14	13	30	53	100	39.312500	157.250000
65565524	175850	15	14	33	29	120	39.312500	157.250000
65565524	175850	15	14	33	41	120	39.312500	157.250000
65741374	175850	6	5	110	63	120	39.375000	157.500000
65741374	175850	7	6	110	69	100	39.375000	157.500000
65741374	175850	7	6	110	74	100	39.375000	157.500000
65741374	175850	8	7	110	60	90	39.375000	157.500000
65741374	351700	10	9	16	47	100	39.375000	157.500000
65741374	351700	13	12	29	41	100	39.375000	157.500000
65741374	351700	13	12	29	53	100	39.375000	157.500000
65741374	351700	14	13	30	41	100	39.375000	157.500000
65741374	351700	14	13	30	53	100	39.375000	157.500000
65741374	351700	15	14	33	29	120	39.375000	157.500000
65741374	351700	15	14	33	41	120	39.375000	157.500000
66093074	175849	5	4	0	74	100	39.500000	158.000000
66093074	175849	6	5	110	62	120	39.500000	158.000000
66093074	175849	7	6	110	70	100	39.500000	158.000000
66093074	175849	7	6	110	74	100	39.500000	158.000000
66093074	175849	8	7	110	63	90	39.500000	158.000000
66444773	175850	5	4	0	72	100	39.625000	158.500000
66444773	175850	6	5	110	63	120	39.625000	158.500000
66444773	175850	7	6	110	69	100	39.625000	158.500000
66444773	175850	7	6	110	72	100	39.625000	158.500000
66444773	175850	8	7	110	62	90	39.625000	158.500000
66796473	175849	5	4	0	74	100	39.750000	159.000000
66796473	175849	6	5	110	62	120	39.750000	159.000000
66796473	175849	7	6	110	70	100	39.750000	159.000000
66796473	175849	7	6	110	74	100	39.750000	159.000000
66796473	175849	8	7	110	63	90	39.750000	159.000000
66972322	175850	6	5	110	60	120	39.812500	159.250000
67148172	175850	5	4	0	77	100	39.875000	159.500000
67148172	175850	6	5	110	58	120	39.875000	159.500000
67148172	175850	7	6	110	72	100	39.875000	159.500000
67148172	175850	7	6	110	77	100	39.875000	159.500000
67148172	175850	8	7	110	62	90	39.875000	159.500000
67324022	175850	8	7	110	60	90	39.937500	159.750000
67499872	2811944	2	1	48	36	100	40.000000	160.000000
67499872	2811944	2	1	48	48	100	40.000000	160.000000
67499872	2811944	2	1	48	70	100	40.000000	160.000000
67499872	2811944	2	1	48	77	100	40.000000	160.000000
67499872	351493	3	2	80	77	120	40.000000	160.000000
67499872	175746	8	7	110	58	90	40.000000	160.000000
67499872	175746	10	9	16	36	100	40.000000	160.000000
67499872	175746	10	9	16	46	80	40.000000	160.000000
67499872	175746	10	9	16	49	100	40.000000	160.000000
67499872	351493	12	11	30	65	120	40.000000	160.000000
67499872	351493	12	11	30	77	80	40.000000	160.000000
67499872	175746	13	12	29	36	120	40.000000	160.000000
67499872	175746	14	13	30	36	120	40.000000	160.000000
67499872	175746	15	14	33	24	120	40.000000	160.000000
67675618	175747	10	9	16	36	100	40.125000	160.500000
67675618	175747	13	12	29	36	120	40.125000	160.500000
67675618	175747	14	13	30	36	120	40.125000	160.500000
67675618	175747	15	14	33	24	120	40.125000	160.500000
67851365	351493	3	2	80	70	120	40.250000	161.000000
67851365	175746	10	9	16	38	100	40.250000	161.000000
67851365	175746	10	9	16	46	80	40.250000	161.000000
67851365	351493	12	11	30	58	120	40.250000	161.000000
67851365	351493	12	11	30	70	80	40.250000	161.000000
67851365	175746	13	12	29	48	120	40.250000	161.000000
67851365	175746	14	13	30	48	120	40.250000	161.000000
67851365	175746	15	14	33	36	120	40.250000	161.000000
68027111	175747	10	9	16	36	100	40.375000	161.500000
68027111	175747	13	12	29	36	120	40.375000	161.500000
68027111	175747	14	13	30	36	120	40.375000	161.500000
68027111	175747	15	14	33	24	120	40.375000	161.500000
68202858	351493	3	2	80	72	120	40.500000	162.000000
68202858	175746	10	9	16	36	100	40.500000	162.000000
68202858	175746	10	9	16	46	80	40.500000	162.000000
68202858	351493	12	11	30	60	120	40.500000	162.000000
68202858	351493	12	11	30	72	80	40.500000	162.000000
68202858	175746	13	12	29	36	120	40.500000	162.000000
68202858	175746	14	13	30	36	120	40.500000	162.000000
68202858	175746	15	14	33	24	120	40.500000	162.000000
68378604	175747	10	9	16	36	100	40.625000	162.500000
68378604	175747	13	12	29	48	120	40.625000	162.500000
68378604	175747	14	13	30	48	120	40.625000	162.500000
68378604	175747	15	14	33	36	120	40.625000	162.500000
68554351	351493	3	2	80	70	120	40.750000	163.000000
68554351	175746	10	9	16	38	100	40.750000	163.000000
68554351	175746	10	9	16	46	80	40.750000	163.000000
68554351	351493	12	11	30	58	120	40.750000	163.000000
68554351	351493	12	11	30	70	80	40.750000	163.000000
68554351	175746	13	12	29	36	120	40.750000	163.000000
68554351	175746	14	13	30	36	120	40.750000	163.000000
68554351	175746	15	14	33	24	120	40.750000	163.000000
68730097	175747	10	9	16	36	100	40.875000	163.500000
68730097	175747	13	12	29	36	120	40.875000	163.500000
68730097	175747	14	13	30	36	120	40.875000	163.500000
68730097	175747	15	14	33	24	120	40.875000	163.500000
68905844	175746	3	2	80	65	120	41.000000	164.000000
68905844	175746	10	9	16	36	100	41.000000	164.000000
68905844	175746	10	9	16	46	80	41.000000	164.000000
68905844	175746	12	11	30	53	120	41.000000	164.000000
68905844	175746	12	11	30	65	80	41.000000	164.000000
68905844	175746	13	12	29	36	120	41.000000	164.000000
68905844	175746	14	13	30	36	120	41.000000	164.000000
68905844	175746	15	14	33	24	120	41.000000	164.000000
69081590	175747	3	2	80	70	120	41.125000	164.500000
69081590	175747	10	9	16	36	100	41.125000	164.500000
69081590	175747	12	11	30	58	120	41.125000	164.500000
69081590	175747	12	11	30	70	80	41.125000	164.500000
69081590	175747	13	12	29	48	120	41.125000	164.500000
69081590	175747	14	13	30	48	120	41.125000	164.500000
69081590	175747	15	14	33	36	120	41.125000	164.500000
69257337	175746	10	9	16	38	100	41.250000	165.000000
69257337	175746	10	9	16	46	80	41.250000	165.000000
69257337	175746	13	12	29	36	120	41.250000	165.000000
69257337	175746	14	13	30	36	120	41.250000	165.000000
69257337	175746	15	14	33	24	120	41.250000	165.000000
69433083	351493	3	2	80	72	120	41.375000	165.500000
69433083	175747	10	9	16	36	100	41.375000	165.500000
69433083	351493	12	11	30	60	120	41.375000	165.500000
69433083	351493	12	11	30	72	80	41.375000	165.500000
69433083	175747	13	12	29	48	120	41.375000	165.500000
69433083	175747	14	13	30	48	120	41.375000	165.500000
69433083	175747	15	14	33	36	120	41.375000	165.500000
69608830	175746	10	9	16	36	100	41.500000	166.000000
69608830	175746	10	9	16	46	80	41.500000	166.000000
69608830	175746	13	12	29	36	120	41.500000	166.000000
69608830	175746	14	13	30	36	120	41.500000	166.000000
69608830	175746	15	14	33	24	120	41.500000	166.000000
69784576	87873	3	2	80	74	120	41.625000	166.500000
69784576	175747	10	9	16	36	100	41.625000	166.500000
69784576	87873	12	11	30	62	120	41.625000	166.500000
69784576	87873	12	11	30	74	80	41.625000	166.500000
69784576	175747	13	12	29	48	120	41.625000	166.500000
69784576	175747	14	13	30	48	120	41.625000	166.500000
69784576	175747	15	14	33	36	120	41.625000	166.500000
69872449	87874	3	2	80	72	120	41.687500	166.750000
69872449	87874	12	11	30	60	120	41.687500	166.750000
69872449	87874	12	11	30	72	80	41.687500	166.750000
69960323	351493	3	2	80	70	120	41.750000	167.000000
69960323	175746	10	9	16	38	100	41.750000	167.000000
69960323	175746	10	9	16	46	80	41.750000	167.000000
69960323	351493	12	11	30	58	120	41.750000	167.000000
69960323	351493	12	11	30	70	80	41.750000	167.000000
69960323	175746	13	12	29	36	120	41.750000	167.000000
69960323	175746	14	13	30	36	120	41.750000	167.000000
69960323	175746	15	14	33	24	120	41.750000	167.000000
70136069	175747	10	9	16	36	100	41.875000	167.500000
70136069	175747	13	12	29	36	120	41.875000	167.500000
70136069	175747	14	13	30	36	120	41.875000	167.500000
70136069	175747	15	14	33	24	120	41.875000	167.500000
70311816	2811944	2	1	48	38	100	42.000000	168.000000
70311816	2811944	2	1	48	50	100	42.000000	168.000000
70311816	2811944	2	1	48	72	100	42.000000	168.000000
70311816	2811944	2	1	48	79	100	42.000000	168.000000
70311816	351493	3	2	80	65	120	42.000000	168.000000
70311816	175746	10	9	16	36	100	42.000000	168.000000
70311816	175746	10	9	16	46	80	42.000000	168.000000
70311816	351493	12	11	30	53	120	42.000000	168.000000
70311816	351493	12	11	30	65	100	42.000000	168.000000
70311816	175746	13	12	29	38	120	42.000000	168.000000
70311816	175746	14	13	30	38	120	42.000000	168.000000
70311816	175746	15	14	33	26	120	42.000000	168.000000
70487562	175747	10	9	16	36	100	42.125000	168.500000
70487562	175747	13	12	29	38	120	42.125000	168.500000
70487562	175747	14	13	30	38	120	42.125000	168.500000
70487562	175747	15	14	33	26	120	42.125000	168.500000
70663309	351493	3	2	80	70	120	42.250000	169.000000
70663309	175746	10	9	16	38	100	42.250000	169.000000
70663309	175746	10	9	16	46	80	42.250000	169.000000
70663309	351493	12	11	30	58	120	42.250000	169.000000
70663309	351493	12	11	30	70	80	42.250000	169.000000
70663309	175746	13	12	29	50	120	42.250000	169.000000
70663309	175746	14	13	30	50	120	42.250000	169.000000
70663309	175746	15	14	33	38	120	42.250000	169.000000
70839055	175747	10	9	16	36	100	42.375000	169.500000
70839055	175747	13	12	29	38	120	42.375000	169.500000
70839055	175747	14	13	30	38	120	42.375000	169.500000
70839055	175747	15	14	33	26	120	42.375000	169.500000
71014802	175746	3	2	80	72	120	42.500000	170.000000
71014802	175746	10	9	16	36	100	42.500000	170.000000
71014802	175746	10	9	16	46	80	42.500000	170.000000
71014802	175746	12	11	30	60	120	42.500000	170.000000
71014802	175746	12	11	30	72	80	42.500000	170.000000
71014802	175746	13	12	29	38	120	42.500000	170.000000
71014802	175746	14	13	30	38	120	42.500000	170.000000
71014802	175746	15	14	33	26	120	42.500000	170.000000
71190548	175747	3	2	80	75	120	42.625000	170.500000
71190548	175747	10	9	16	36	100	42.625000	170.500000
71190548	175747	12	11	30	63	120	42.625000	170.500000
71190548	175747	12	11	30	75	80	42.625000	170.500000
71190548	175747	13	12	29	50	120	42.625000	170.500000
71190548	175747	14	13	30	50	120	42.625000	170.500000
71190548	175747	15	14	33	38	120	42.625000	170.500000
71366295	175746	10	9	16	38	100	42.750000	171.000000
71366295	175746	10	9	16	46	80	42.750000	171.000000
71366295	175746	13	12	29	38	120	42.750000	171.000000
71366295	175746	14	13	30	38	120	42.750000	171.000000
71366295	175746	15	14	33	26	120	42.750000	171.000000
71542041	351493	3	2	80	74	120	42.875000	171.500000
71542041	175747	10	9	16	36	100	42.875000	171.500000
71542041	351493	12	11	30	62	120	42.875000	171.500000
71542041	351493	12	11	30	74	80	42.875000	171.500000
71542041	175747	13	12	29	38	120	42.875000	171.500000
71542041	175747	14	13	30	38	120	42.875000	171.500000
71542041	175747	15	14	33	26	120	42.875000	171.500000
71717788	175746	10	9	16	36	100	43.000000	172.000000
71717788	175746	10	9	16	46	80	43.000000	172.000000
71717788	175746	13	12	29	38	120	43.000000	172.000000
71717788	175746	14	13	30	38	120	43.000000	172.000000
71717788	175746	15	14	33	26	120	43.000000	172.000000
71893534	87873	3	2	80	75	120	43.125000	172.500000
71893534	175747	10	9	16	36	100	43.125000	172.500000
71893534	87873	12	11	30	63	120	43.125000	172.500000
71893534	87873	12	11	30	75	80	43.125000	172.500000
71893534	175747	13	12	29	38	120	43.125000	172.500000
71893534	175747	14	13	30	38	120	43.125000	172.500000
71893534	175747	15	14	33	26	120	43.125000	172.500000
71981407	87874	3	2	80	74	120	43.187500	172.750000
71981407	87874	12	11	30	62	120	43.187500	172.750000
71981407	87874	12	11	30	74	80	43.187500	172.750000
72069281	351493	3	2	80	72	120	43.250000	173.000000
72069281	175746	10	9	16	38	100	43.250000	173.000000
72069281	175746	10	9	16	46	80	43.250000	173.000000
72069281	351493	12	11	30	60	120	43.250000	173.000000
72069281	351493	12	11	30	72	80	43.250000	173.000000
72069281	175746	13	12	29	50	120	43.250000	173.000000
72069281	175746	14	13	30	50	120	43.250000	173.000000
72069281	175746	15	14	33	38	120	43.250000	173.000000
72245027	175747	10	9	16	36	100	43.375000	173.500000
72245027	175747	13	12	29	38	120	43.375000	173.500000
72245027	175747	14	13	30	38	120	43.375000	173.500000
72245027	175747	15	14	33	26	120	43.375000	173.500000
72420774	351493	3	2	80	70	120	43.500000	174.000000
72420774	175746	10	9	16	36	100	43.500000	174.000000
72420774	175746	10	9	16	46	80	43.500000	174.000000
72420774	351493	12	11	30	58	120	43.500000	174.000000
72420774	351493	12	11	30	70	80	43.500000	174.000000
72420774	175746	13	12	29	38	120	43.500000	174.000000
72420774	175746	14	13	30	38	120	43.500000	174.000000
72420774	175746	15	14	33	26	120	43.500000	174.000000
72596520	175747	10	9	16	36	100	43.625000	174.500000
72596520	175747	13	12	29	50	120	43.625000	174.500000
72596520	175747	14	13	30	50	120	43.625000	174.500000
72596520	175747	15	14	33	38	120	43.625000	174.500000
72772267	351493	3	2	80	65	120	43.750000	175.000000
72772267	175746	10	9	16	38	100	43.750000	175.000000
72772267	175746	10	9	16	46	80	43.750000	175.000000
72772267	351493	12	11	30	53	120	43.750000	175.000000
72772267	351493	12	11	30	65	80	43.750000	175.000000
72772267	175746	13	12	29	38	120	43.750000	175.000000
72772267	175746	14	13	30	38	120	43.750000	175.000000
72772267	175746	15	14	33	26	120	43.750000	175.000000
72948013	175747	10	9	16	36	100	43.875000	175.500000
72948013	175747	13	12	29	50	120	43.875000	175.500000
72948013	175747	14	13	30	50	120	43.875000	175.500000
72948013	175747	15	14	33	38	120	43.875000	175.500000
73123760	2811944	2	1	48	39	100	44.000000	176.000000
73123760	2811944	2	1	48	51	100	44.000000	176.000000
73123760	2811944	2	1	48	70	100	44.000000	176.000000
73123760	2811944	2	1	48	74	100	44.000000	176.000000
73123760	2811944	2	1	48	77	100	44.000000	176.000000
73123760	2811944	2	1	48	82	100	44.000000	176.000000
73123760	351493	3	2	80	77	120	44.000000	176.000000
73123760	175746	10	9	16	36	100	44.000000	176.000000
73123760	175746	10	9	16	46	80	44.000000	176.000000
73123760	351493	12	11	30	65	120	44.000000	176.000000
73123760	351493	12	11	30	77	80	44.000000	176.000000
73123760	175746	13	12	29	39	120	44.000000	176.000000
73123760	175746	14	13	30	39	120	44.000000	176.000000
73123760	175746	15	14	33	27	120	44.000000	176.000000
73299506	175747	10	9	16	36	100	44.125000	176.500000
73299506	175747	13	12	29	39	120	44.125000	176.500000
73299506	175747	14	13	30	39	120	44.125000	176.500000
73299506	175747	15	14	33	27	120	44.125000	176.500000
73475253	351493	3	2	80	70	120	44.250000	177.000000
73475253	175746	10	9	16	38	100	44.250000	177.000000
73475253	175746	10	9	16	46	80	44.250000	177.000000
73475253	351493	12	11	30	58	120	44.250000	177.000000
73475253	351493	12	11	30	70	80	44.250000	177.000000
73475253	175746	13	12	29	51	120	44.250000	177.000000
73475253	175746	14	13	30	51	120	44.250000	177.000000
73475253	175746	15	14	33	39	120	44.250000	177.000000
73650999	175747	10	9	16	36	100	44.375000	177.500000
73650999	175747	13	12	29	39	120	44.375000	177.500000
73650999	175747	14	13	30	39	120	44.375000	177.500000
73650999	175747	15	14	33	27	120	44.375000	177.500000
73826746	351493	3	2	80	72	120	44.500000	178.000000
73826746	175746	10	9	16	36	100	44.500000	178.000000
73826746	175746	10	9	16	46	80	44.500000	178.000000
73826746	351493	12	11	30	60	120	44.500000	178.000000
73826746	351493	12	11	30	72	80	44.500000	178.000000
73826746	175746	13	12	29	39	120	44.500000	178.000000
73826746	175746	14	13	30	39	120	44.500000	178.000000
73826746	175746	15	14	33	27	120	44.500000	178.000000
74002492	175747	10	9	16	36	100	44.625000	178.500000
74002492	175747	13	12	29	51	120	44.625000	178.500000
74002492	175747	14	13	30	51	120	44.625000	178.500000
74002492	175747	15	14	33	39	120	44.625000	178.500000
74178239	351493	3	2	80	70	120	44.750000	179.000000
74178239	175746	10	9	16	38	100	44.750000	179.000000
74178239	175746	10	9	16	46	80	44.750000	179.000000
74178239	351493	12	11	30	58	120	44.750000	179.000000
74178239	351493	12	11	30	70	80	44.750000	179.000000
74178239	175746	13	12	29	39	120	44.750000	179.000000
74178239	175746	14	13	30	39	120	44.750000	179.000000
74178239	175746	15	14	33	27	120	44.750000	179.000000
74353985	175747	10	9	16	36	100	44.875000	179.500000
74353985	175747	13	12	29	39	120	44.875000	179.500000
74353985	175747	14	13	30	39	120	44.875000	179.500000
74353985	175747	15	14	33	27	120	44.875000	179.500000
74529732	175746	3	2	80	65	120	45.000000	180.000000
74529732	175746	10	9	16	36	100	45.000000	180.000000
74529732	175746	10	9	16	46	80	45.000000	180.000000
74529732	175746	12	11	30	53	120	45.000000	180.000000
74529732	175746	12	11	30	65	80	45.000000	180.000000
74529732	175746	13	12	29	39	120	45.000000	180.000000
74529732	175746	14	13	30	39	120	45.000000	180.000000
74529732	175746	15	14	33	27	120	45.000000	180.000000
74705478	175747	3	2	80	70	120	45.125000	180.500000
74705478	175747	10	9	16	36	100	45.125000	180.500000
74705478	175747	12	11	30	58	120	45.125000	180.500000
74705478	175747	12	11	30	70	80	45.125000	180.500000
74705478	175747	13	12	29	51	120	45.125000	180.500000
74705478	175747	14	13	30	51	120	45.125000	180.500000
74705478	175747	15	14	33	39	120	45.125000	180.500000
74881225	175746	10	9	16	38	100	45.250000	181.000000
74881225	175746	10	9	16	46	80	45.250000	181.000000
74881225	175746	13	12	29	39	120	45.250000	181.000000
74881225	175746	14	13	30	39	120	45.250000	181.000000
74881225	175746	15	14	33	27	120	45.250000	181.000000
75056971	351493	3	2	80	72	120	45.375000	181.500000
75056971	175747	10	9	16	36	100	45.375000	181.500000
75056971	351493	12	11	30	60	120	45.375000	181.500000
75056971	351493	12	11	30	72	80	45.375000	181.500000
75056971	175747	13	12	29	51	120	45.375000	181.500000
75056971	175747	14	13	30	51	120	45.375000	181.500000
75056971	175747	15	14	33	39	120	45.375000	181.500000
75232718	175746	10	9	16	36	100	45.500000	182.000000
75232718	175746	10	9	16	46	80	45.500000	182.000000
75232718	175746	13	12	29	39	120	45.500000	182.000000
75232718	175746	14	13	30	39	120	45.500000	182.000000
75232718	175746	15	14	33	27	120	45.500000	182.000000
75408464	87873	3	2	80	74	120	45.625000	182.500000
75408464	175747	10	9	16	36	100	45.625000	182.500000
75408464	87873	12	11	30	62	120	45.625000	182.500000
75408464	87873	12	11	30	74	80	45.625000	182.500000
75408464	175747	13	12	29	51	120	45.625000	182.500000
75408464	175747	14	13	30	51	120	45.625000	182.500000
75408464	175747	15	14	33	39	120	45.625000	182.500000
75496337	87874	3	2	80	72	120	45.687500	182.750000
75496337	87874	12	11	30	60	120	45.687500	182.750000
75496337	87874	12	11	30	72	80	45.687500	182.750000
75584211	351493	3	2	80	70	120	45.750000	183.000000
75584211	175746	10	9	16	38	100	45.750000	183.000000
75584211	175746	10	9	16	46	80	45.750000	183.000000
75584211	351493	12	11	30	58	120	45.750000	183.000000
75584211	351493	12	11	30	70	80	45.750000	183.000000
75584211	175746	13	12	29	39	120	45.750000	183.000000
75584211	175746	14	13	30	39	120	45.750000	183.000000
75584211	175746	15	14	33	27	120	45.750000	183.000000
75759957	175747	10	9	16	36	100	45.875000	183.500000
75759957	175747	13	12	29	39	120	45.875000	183.500000
75759957	175747	14	13	30	39	120	45.875000	183.500000
75759957	175747	15	14	33	27	120	45.875000	183.500000
75935704	1405972	2	1	48	41	100	46.000000	184.000000
75935704	1405972	2	1	48	53	100	46.000000	184.000000
75935704	1405972	2	1	48	72	100	46.000000	184.000000
75935704	1405972	2	1	48	75	100	46.000000	184.000000
75935704	1405972	2	1	48	79	100	46.000000	184.000000
75935704	1405972	2	1	48	84	100	46.000000	184.000000
75935704	351493	3	2	80	65	120	46.000000	184.000000
75935704	175746	10	9	16	36	100	46.000000	184.000000
75935704	175746	10	9	16	46	80	46.000000	184.000000
75935704	351493	12	11	30	53	120	46.000000	184.000000
75935704	351493	12	11	30	65	100	46.000000	184.000000
75935704	175746	13	12	29	41	120	46.000000	184.000000
75935704	175746	14	13	30	41	120	46.000000	184.000000
75935704	175746	15	14	33	29	120	46.000000	184.000000
76111450	175747	10	9	16	36	100	46.125000	184.500000
76111450	175747	13	12	29	41	120	46.125000	184.500000
76111450	175747	14	13	30	41	120	46.125000	184.500000
76111450	175747	15	14	33	29	120	46.125000	184.500000
76287197	351493	3	2	80	70	120	46.250000	185.000000
76287197	175746	10	9	16	38	100	46.250000	185.000000
76287197	175746	10	9	16	46	80	46.250000	185.000000
76287197	351493	12	11	30	58	120	46.250000	185.000000
76287197	351493	12	11	30	70	80	46.250000	185.000000
76287197	175746	13	12	29	53	120	46.250000	185.000000
76287197	175746	14	13	30	53	120	46.250000	185.000000
76287197	175746	15	14	33	41	120	46.250000	185.000000
76462943	175747	10	9	16	36	100	46.375000	185.500000
76462943	175747	13	12	29	41	120	46.375000	185.500000
76462943	175747	14	13	30	41	120	46.375000	185.500000
76462943	175747	15	14	33	29	120	46.375000	185.500000
76638690	175746	3	2	80	72	120	46.500000	186.000000
76638690	175746	10	9	16	36	100	46.500000	186.000000
76638690	175746	10	9	16	46	80	46.500000	186.000000
76638690	175746	12	11	30	60	120	46.500000	186.000000
76638690	175746	12	11	30	72	80	46.500000	186.000000
76638690	175746	13	12	29	41	120	46.500000	186.000000
76638690	175746	14	13	30	41	120	46.500000	186.000000
76638690	175746	15	14	33	29	120	46.500000	186.000000
76814436	175747	3	2	80	75	120	46.625000	186.500000
76814436	175747	10	9	16	36	100	46.625000	186.500000
76814436	175747	12	11	30	63	120	46.625000	186.500000
76814436	175747	12	11	30	75	80	46.625000	186.500000
76814436	175747	13	12	29	53	120	46.625000	186.500000
76814436	175747	14	13	30	53	120	46.625000	186.500000
76814436	175747	15	14	33	41	120	46.625000	186.500000
76990183	175746	10	9	16	38	100	46.750000	187.000000
76990183	175746	10	9	16	46	80	46.750000	187.000000
76990183	175746	13	12	29	41	120	46.750000	187.000000
76990183	175746	14	13	30	41	120	46.750000	187.000000
76990183	175746	15	14	33	29	120	46.750000	187.000000
77165929	351493	3	2	80	74	120	46.875000	187.500000
77165929	175747	10	9	16	36	100	46.875000	187.500000
77165929	351493	12	11	30	62	120	46.875000	187.500000
77165929	351493	12	11	30	74	80	46.875000	187.500000
77165929	175747	13	12	29	41	120	46.875000	187.500000
77165929	175747	14	13	30	41	120	46.875000	187.500000
77165929	175747	15	14	33	29	120	46.875000	187.500000
77341676	1405972	2	1	48	43	100	47.000000	188.000000
77341676	1405972	2	1	48	55	100	47.000000	188.000000
77341676	1405972	2	1	48	70	100	47.000000	188.000000
77341676	1405972	2	1	48	74	100	47.000000	188.000000
77341676	1405972	2	1	48	77	100	47.000000	188.000000
77341676	1405972	2	1	48	82	100	47.000000	188.000000
77341676	175746	10	9	16	36	100	47.000000	188.000000
77341676	175746	10	9	16	46	80	47.000000	188.000000
77341676	175746	13	12	29	43	120	47.000000	188.000000
77341676	175746	14	13	30	43	120	47.000000	188.000000
77341676	175746	15	14	33	31	120	47.000000	188.000000
77517422	87873	3	2	80	75	120	47.125000	188.500000
77517422	175747	10	9	16	36	100	47.125000	188.500000
77517422	87873	12	11	30	63	120	47.125000	188.500000
77517422	87873	12	11	30	75	80	47.125000	188.500000
77517422	175747	13	12	29	55	120	47.125000	188.500000
77517422	175747	14	13	30	55	120	47.125000	188.500000
77517422	175747	15	14	33	43	120	47.125000	188.500000
77605295	87874	3	2	80	74	120	47.187500	188.750000
77605295	87874	12	11	30	62	120	47.187500	188.750000
77605295	87874	12	11	30	74	80	47.187500	188.750000
77693169	351493	3	2	80	72	120	47.250000	189.000000
77693169	175746	10	9	16	38	100	47.250000	189.000000
77693169	175746	10	9	16	46	80	47.250000	189.000000
77693169	351493	12	11	30	60	120	47.250000	189.000000
77693169	351493	12	11	30	72	80	47.250000	189.000000
77693169	175746	13	12	29	43	120	47.250000	189.000000
77693169	175746	14	13	30	43	120	47.250000	189.000000
77693169	175746	15	14	33	31	120	47.250000	189.000000
77868915	175747	10	9	16	36	100	47.375000	189.500000
77868915	175747	13	12	29	55	120	47.375000	189.500000
77868915	175747	14	13	30	55	120	47.375000	189.500000
77868915	175747	15	14	33	43	120	47.375000	189.500000
78044662	351493	3	2	80	70	120	47.500000	190.000000
78044662	175746	10	9	16	36	100	47.500000	190.000000
78044662	175746	10	9	16	46	80	47.500000	190.000000
78044662	351493	12	11	30	58	120	47.500000	190.000000
78044662	351493	12	11	30	70	80	47.500000	190.000000
78044662	175746	13	12	29	43	120	47.500000	190.000000
78044662	175746	14	13	30	43	120	47.500000	190.000000
78044662	175746	15	14	33	31	120	47.500000	190.000000
78220408	175747	10	9	16	36	100	47.625000	190.500000
78220408	175747	13	12	29	55	120	47.625000	190.500000
78220408	175747	14	13	30	55	120	47.625000	190.500000
78220408	175747	15	14	33	43	120	47.625000	190.500000
78396155	351493	3	2	80	65	120	47.750000	191.000000
78396155	175746	10	9	16	38	100	47.750000	191.000000
78396155	175746	10	9	16	46	80	47.750000	191.000000
78396155	351493	12	11	30	53	120	47.750000	191.000000
78396155	351493	12	11	30	65	80	47.750000	191.000000
78396155	175746	13	12	29	43	120	47.750000	191.000000
78396155	175746	14	13	30	43	120	47.750000	191.000000
78396155	175746	15	14	33	31	120	47.750000	191.000000
78571901	175747	10	9	16	36	100	47.875000	191.500000
78571901	175747	13	12	29	55	120	47.875000	191.500000
78571901	175747	14	13	30	55	120	47.875000	191.500000
78571901	175747	15	14	33	43	120	47.875000	191.500000
78747648	2811944	2	1	48	36	100	48.000000	192.000000
78747648	2811944	2	1	48	48	100	48.000000	192.000000
78747648	2811944	2	1	48	58	100	48.000000	192.000000
78747648	2811944	2	1	48	70	100	48.000000	192.000000
78747648	2811944	2	1	48	77	100	48.000000	192.000000
78747648	351493	3	2	80	77	120	48.000000	192.000000
78747648	87873	3	2	80	82	120	48.000000	192.000000
78747648	175746	5	4	0	82	120	48.000000	192.000000
78747648	175746	5	4	0	86	120	48.000000	192.000000
78747648	175746	9	8	9	89	90	48.000000	192.000000
78747648	175746	9	8	9	101	90	48.000000	192.000000
78747648	175746	10	9	16	36	100	48.000000	192.000000
78747648	175746	10	9	16	46	80	48.000000	192.000000
78747648	175746	10	9	16	49	100	48.000000	192.000000
78747648	351493	12	11	30	65	120	48.000000	192.000000
78747648	351493	12	11	30	77	80	48.000000	192.000000
78747648	175746	13	12	29	36	120	48.000000	192.000000
78747648	175746	14	13	30	36	120	48.000000	192.000000
78747648	175746	15	14	33	24	120	48.000000	192.000000
78923394	175747	10	9	16	36	100	48.125000	192.500000
78923394	175747	13	12	29	36	120	48.125000	192.500000
78923394	175747	14	13	30	36	120	48.125000	192.500000
78923394	175747	15	14	33	24	120	48.125000	192.500000
79099141	351493	3	2	80	70	120	48.250000	193.000000
79099141	87873	3	2	80	82	120	48.250000	193.000000
79099141	175746	5	4	0	82	120	48.250000	193.000000
79099141	175746	9	8	9	82	90	48.250000	193.000000
79099141	175746	9	8	9	94	90	48.250000	193.000000
79099141	175746	10	9	16	38	100	48.250000	193.000000
79099141	175746	10	9	16	46	80	48.250000	193.000000
79099141	351493	12	11	30	58	120	48.250000	193.000000
79099141	351493	12	11	30	70	80	48.250000	193.000000
79099141	175746	13	12	29	48	120	48.250000	193.000000
79099141	175746	14	13	30	48	120	48.250000	193.000000
79099141	175746	15	14	33	36	120	48.250000	193.000000
79274887	87873	3	2	80	84	120	48.375000	193.500000
79274887	175747	5	4	0	81	120	48.375000	193.500000
79274887	175747	5	4	0	84	120	48.375000	193.500000
79274887	175747	10	9	16	36	100	48.375000	193.500000
79274887	175747	13	12	29	36	120	48.375000	193.500000
79274887	175747	14	13	30	36	120	48.375000	193.500000
79274887	175747	15	14	33	24	120	48.375000	193.500000
79450634	351493	3	2	80	72	120	48.500000	194.000000
79450634	175746	3	2	80	86	120	48.500000	194.000000
79450634	175746	5	4	0	86	120	48.500000	194.000000
79450634	175746	9	8	9	84	90	48.500000	194.000000
79450634	175746	9	8	9	96	90	48.500000	194.000000
79450634	175746	10	9	16	36	100	48.500000	194.000000
79450634	175746	10	9	16	46	80	48.500000	194.000000
79450634	351493	12	11	30	60	120	48.500000	194.000000
79450634	351493	12	11	30	72	80	48.500000	194.000000
79450634	175746	13	12	29	36	120	48.500000	194.000000
79450634	175746	14	13	30	36	120	48.500000	194.000000
79450634	175746	15	14	33	24	120	48.500000	194.000000
79626380	175747	10	9	16	36	100	48.625000	194.500000
79626380	175747	13	12	29	48	120	48.625000	194.500000
79626380	175747	14	13	30	48	120	48.625000	194.500000
79626380	175747	15	14	33	36	120	48.625000	194.500000
79802127	351493	3	2	80	70	120	48.750000	195.000000
79802127	87873	3	2	80	82	120	48.750000	195.000000
79802127	175746	5	4	0	77	120	48.750000	195.000000
79802127	175746	5	4	0	82	120	48.750000	195.000000
79802127	175746	9	8	9	82	90	48.750000	195.000000
79802127	175746	9	8	9	94	90	48.750000	195.000000
79802127	175746	10	9	16	38	100	48.750000	195.000000
79802127	175746	10	9	16	46	80	48.750000	195.000000
79802127	351493	12	11	30	58	120	48.750000	195.000000
79802127	351493	12	11	30	70	80	48.750000	195.000000
79802127	175746	13	12	29	36	120	48.750000	195.000000
79802127	175746	14	13	30	36	120	48.750000	195.000000
79802127	175746	15	14	33	24	120	48.750000	195.000000
79977873	175747	10	9	16	36	100	48.875000	195.500000
79977873	175747	13	12	29	36	120	48.875000	195.500000
79977873	175747	14	13	30	36	120	48.875000	195.500000
79977873	175747	15	14	33	24	120	48.875000	195.500000
80153620	175746	3	2	80	65	120	49.000000	196.000000
80153620	175746	3	2	80	84	120	49.000000	196.000000
80153620	175746	5	4	0	84	120	49.000000	196.000000
80153620	175746	9	8	9	77	90	49.000000	196.000000
80153620	175746	9	8	9	89	90	49.000000	196.000000
80153620	175746	10	9	16	36	100	49.000000	196.000000
80153620	175746	10	9	16	46	80	49.000000	196.000000
80153620	175746	12	11	30	53	120	49.000000	196.000000
80153620	175746	12	11	30	65	80	49.000000	196.000000
80153620	175746	13	12	29	36	120	49.000000	196.000000
80153620	175746	14	13	30	36	120	49.000000	196.000000
80153620	175746	15	14	33	24	120	49.000000	196.000000
80329366	175747	3	2	80	70	120	49.125000	196.500000
80329366	87873	3	2	80	82	120	49.125000	196.500000
80329366	175747	5	4	0	82	120	49.125000	196.500000
80329366	175747	5	4	0	86	120	49.125000	196.500000
80329366	175747	9	8	9	82	90	49.125000	196.500000
80329366	175747	9	8	9	94	90	49.125000	196.500000
80329366	175747	10	9	16	36	100	49.125000	196.500000
80329366	175747	12	11	30	58	120	49.125000	196.500000
80329366	175747	12	11	30	70	80	49.125000	196.500000
80329366	175747	13	12	29	48	120	49.125000	196.500000
80329366	175747	14	13	30	48	120	49.125000	196.500000
80329366	175747	15	14	33	36	120	49.125000	196.500000
80505113	87873	3	2	80	84	120	49.250000	197.000000
80505113	175746	5	4	0	84	120	49.250000	197.000000
80505113	175746	10	9	16	38	100	49.250000	197.000000
80505113	175746	10	9	16	46	80	49.250000	197.000000
80505113	175746	13	12	29	36	120	49.250000	197.000000
80505113	175746	14	13	30	36	120	49.250000	197.000000
80505113	175746	15	14	33	24	120	49.250000	197.000000
80680859	351493	3	2	80	72	120	49.375000	197.500000
80680859	87873	3	2	80	86	120	49.375000	197.500000
80680859	175747	5	4	0	86	120	49.375000	197.500000
80680859	175747	9	8	9	84	90	49.375000	197.500000
80680859	175747	9	8	9	96	90	49.375000	197.500000
80680859	175747	10	9	16	36	100	49.375000	197.500000
80680859	351493	12	11	30	60	120	49.375000	197.500000
80680859	351493	12	11	30	72	80	49.375000	197.500000
80680859	175747	13	12	29	48	120	49.375000	197.500000
80680859	175747	14	13	30	48	120	49.375000	197.500000
80680859	175747	15	14	33	36	120	49.375000	197.500000
80856606	87873	3	2	80	84	120	49.500000	198.000000
80856606	175746	5	4	0	81	120	49.500000	198.000000
80856606	175746	5	4	0	84	120	49.500000	198.000000
80856606	175746	10	9	16	36	100	49.500000	198.000000
80856606	175746	10	9	16	46	80	49.500000	198.000000
80856606	175746	13	12	29	36	120	49.500000	198.000000
80856606	175746	14	13	30	36	120	49.500000	198.000000
80856606	175746	15	14	33	24	120	49.500000	198.000000
81032352	87873	3	2	80	74	120	49.625000	198.500000
81032352	87873	3	2	80	86	120	49.625000	198.500000
81032352	87873	5	4	0	86	120	49.625000	198.500000
81032352	87873	9	8	9	86	90	49.625000	198.500000
81032352	87873	9	8	9	98	90	49.625000	198.500000
81032352	175747	10	9	16	36	100	49.625000	198.500000
81032352	87873	12	11	30	62	120	49.625000	198.500000
81032352	87873	12	11	30	74	80	49.625000	198.500000
81032352	175747	13	12	29	48	120	49.625000	198.500000
81032352	175747	14	13	30	48	120	49.625000	198.500000
81032352	175747	15	14	33	36	120	49.625000	198.500000
81120225	87874	3	2	80	72	120	49.687500	198.750000
81120225	87874	3	2	80	84	120	49.687500	198.750000
81120225	87874	5	4	0	84	120	49.687500	198.750000
81120225	87874	9	8	9	84	90	49.687500	198.750000
81120225	87874	9	8	9	96	90	49.687500	198.750000
81120225	87874	12	11	30	60	120	49.687500	198.750000
81120225	87874	12	11	30	72	80	49.687500	198.750000
81208099	351493	3	2	80	70	120	49.750000	199.000000
81208099	175746	3	2	80	82	120	49.750000	199.000000
81208099	175746	5	4	0	77	120	49.750000	199.000000
81208099	175746	5	4	0	82	120	49.750000	199.000000
81208099	175746	9	8	9	82	90	49.750000	199.000000
81208099	175746	9	8	9	94	90	49.750000	199.000000
81208099	175746	10	9	16	38	100	49.750000	199.000000
81208099	175746	10	9	16	46	80	49.750000	199.000000
81208099	351493	12	11	30	58	120	49.750000	199.000000
81208099	351493	12	11	30	70	80	49.750000	199.000000
81208099	175746	13	12	29	36	120	49.750000	199.000000
81208099	175746	14	13	30	36	120	49.750000	199.000000
81208099	175746	15	14	33	24	120	49.750000	199.000000
81383845	175747	10	9	16	36	100	49.875000	199.500000
81383845	175747	13	12	29	36	120	49.875000	199.500000
81383845	175747	14	13	30	36	120	49.875000	199.500000
81383845	175747	15	14	33	24	120	49.875000	199.500000
81559592	2811944	2	1	48	38	100	50.000000	200.000000
81559592	2811944	2	1	48	50	100	50.000000	200.000000
81559592	2811944	2	1	48	60	100	50.000000	200.000000
81559592	2811944	2	1	48	72	100	50.000000	200.000000
81559592	2811944	2	1	48	79	100	50.000000	200.000000
81559592	351493	3	2	80	65	120	50.000000	200.000000
81559592	87873	3	2	80	86	120	50.000000	200.000000
81559592	175746	5	4	0	82	120	50.000000	200.000000
81559592	175746	5	4	0	86	120	50.000000	200.000000
81559592	175746	9	8	9	77	90	50.000000	200.000000
81559592	175746	9	8	9	89	90	50.000000	200.000000
81559592	175746	10	9	16	36	100	50.000000	200.000000
81559592	175746	10	9	16	46	80	50.000000	200.000000
81559592	351493	12	11	30	53	120	50.000000	200.000000
81559592	351493	12	11	30	65	100	50.000000	200.000000
81559592	175746	13	12	29	38	120	50.000000	200.000000
81559592	175746	14	13	30	38	120	50.000000	200.000000
81559592	175746	15	14	33	26	120	50.000000	200.000000
81735338	175747	10	9	16	36	100	50.125000	200.500000
81735338	175747	13	12	29	38	120	50.125000	200.500000
81735338	175747	14	13	30	38	120	50.125000	200.500000
81735338	175747	15	14	33	26	120	50.125000	200.500000
81911085	351493	3	2	80	70	120	50.250000	201.000000
81911085	87873	3	2	80	86	120	50.250000	201.000000
81911085	175746	5	4	0	86	120	50.250000	201.000000
81911085	175746	9	8	9	82	90	50.250000	201.000000
81911085	175746	9	8	9	94	90	50.250000	201.000000
81911085	175746	10	9	16	38	100	50.250000	201.000000
81911085	175746	10	9	16	46	80	50.250000	201.000000
81911085	351493	12	11	30	58	120	50.250000	201.000000
81911085	351493	12	11	30	70	80	50.250000	201.000000
81911085	175746	13	12	29	50	120	50.250000	201.000000
81911085	175746	14	13	30	50	120	50.250000	201.000000
81911085	175746	15	14	33	38	120	50.250000	201.000000
82086831	87873	3	2	80	87	120	50.375000	201.500000
82086831	175747	5	4	0	81	120	50.375000	201.500000
82086831	175747	5	4	0	87	120	50.375000	201.500000
82086831	175747	10	9	16	36	100	50.375000	201.500000
82086831	175747	13	12	29	38	120	50.375000	201.500000
82086831	175747	14	13	30	38	120	50.375000	201.500000
82086831	175747	15	14	33	26	120	50.375000	201.500000
82262578	175746	3	2	80	72	120	50.500000	202.000000
82262578	87873	3	2	80	89	120	50.500000	202.000000
82262578	175746	5	4	0	89	120	50.500000	202.000000
82262578	175746	9	8	9	84	90	50.500000	202.000000
82262578	175746	9	8	9	96	90	50.500000	202.000000
82262578	175746	10	9	16	36	100	50.500000	202.000000
82262578	175746	10	9	16	46	80	50.500000	202.000000
82262578	175746	12	11	30	60	120	50.500000	202.000000
82262578	175746	12	11	30	72	80	50.500000	202.000000
82262578	175746	13	12	29	38	120	50.500000	202.000000
82262578	175746	14	13	30	38	120	50.500000	202.000000
82262578	175746	15	14	33	26	120	50.500000	202.000000
82438324	175747	3	2	80	75	120	50.625000	202.500000
82438324	175747	9	8	9	87	90	50.625000	202.500000
82438324	175747	9	8	9	99	90	50.625000	202.500000
82438324	175747	10	9	16	36	100	50.625000	202.500000
82438324	175747	12	11	30	63	120	50.625000	202.500000
82438324	175747	12	11	30	75	80	50.625000	202.500000
82438324	175747	13	12	29	50	120	50.625000	202.500000
82438324	175747	14	13	30	50	120	50.625000	202.500000
82438324	175747	15	14	33	38	120	50.625000	202.500000
82614071	87873	3	2	80	94	120	50.750000	203.000000
82614071	175746	5	4	0	77	120	50.750000	203.000000
82614071	175746	5	4	0	82	120	50.750000	203.000000
82614071	175746	5	4	0	84	120	50.750000	203.000000
82614071	175746	5	4	0	94	120	50.750000	203.000000
82614071	175746	10	9	16	38	100	50.750000	203.000000
82614071	175746	10	9	16	46	80	50.750000	203.000000
82614071	175746	13	12	29	38	120	50.750000	203.000000
82614071	175746	14	13	30	38	120	50.750000	203.000000
82614071	175746	15	14	33	26	120	50.750000	203.000000
82789817	351493	3	2	80	74	120	50.875000	203.500000
82789817	175747	9	8	9	86	90	50.875000	203.500000
82789817	175747	9	8	9	98	90	50.875000	203.500000
82789817	175747	10	9	16	36	100	50.875000	203.500000
82789817	351493	12	11	30	62	120	50.875000	203.500000
82789817	351493	12	11	30	74	80	50.875000	203.500000
82789817	175747	13	12	29	38	120	50.875000	203.500000
82789817	175747	14	13	30	38	120	50.875000	203.500000
82789817	175747	15	14	33	26	120	50.875000	203.500000
82965564	702986	3	2	80	91	120	51.000000	204.000000
82965564	702986	5	4	0	91	120	51.000000	204.000000
82965564	175746	10	9	16	36	100	51.000000	204.000000
82965564	175746	10	9	16	46	80	51.000000	204.000000
82965564	175746	13	12	29	38	120	51.000000	204.000000
82965564	175746	14	13	30	38	120	51.000000	204.000000
82965564	175746	15	14	33	26	120	51.000000	204.000000
83141310	87873	3	2	80	75	120	51.125000	204.500000
83141310	175747	5	4	0	81	120	51.125000	204.500000
83141310	175747	5	4	0	84	120	51.125000	204.500000
83141310	87873	9	8	9	87	90	51.125000	204.500000
83141310	87873	9	8	9	99	90	51.125000	204.500000
83141310	175747	10	9	16	36	100	51.125000	204.500000
83141310	87873	12	11	30	63	120	51.125000	204.500000
83141310	87873	12	11	30	75	80	51.125000	204.500000
83141310	175747	13	12	29	38	120	51.125000	204.500000
83141310	175747	14	13	30	38	120	51.125000	204.500000
83141310	175747	15	14	33	26	120	51.125000	204.500000
83229183	87874	3	2	80	74	120	51.187500	204.750000
83229183	87874	9	8	9	86	90	51.187500	204.750000
83229183	87874	9	8	9	98	90	51.187500	204.750000
83229183	87874	12	11	30	62	120	51.187500	204.750000
83229183	87874	12	11	30	74	80	51.187500	204.750000
83317057	351493	3	2	80	72	120	51.250000	205.000000
83317057	175746	9	8	9	84	90	51.250000	205.000000
83317057	175746	9	8	9	96	90	51.250000	205.000000
83317057	175746	10	9	16	38	100	51.250000	205.000000
83317057	175746	10	9	16	46	80	51.250000	205.000000
83317057	351493	12	11	30	60	120	51.250000	205.000000
83317057	351493	12	11	30	72	80	51.250000	205.000000
83317057	175746	13	12	29	50	120	51.250000	205.000000
83317057	175746	14	13	30	50	120	51.250000	205.000000
83317057	175746	15	14	33	38	120	51.250000	205.000000
83492803	175747	10	9	16	36	100	51.375000	205.500000
83492803	175747	13	12	29	38	120	51.375000	205.500000
83492803	175747	14	13	30	38	120	51.375000	205.500000
83492803	175747	15	14	33	26	120	51.375000	205.500000
83668550	351493	3	2	80	70	120	51.500000	206.000000
83668550	702986	3	2	80	89	120	51.500000	206.000000
83668550	175746	5	4	0	82	120	51.500000	206.000000
83668550	175746	5	4	0	86	120	51.500000	206.000000
83668550	702986	5	4	0	89	120	51.500000	206.000000
83668550	175746	9	8	9	82	90	51.500000	206.000000
83668550	175746	9	8	9	94	90	51.500000	206.000000
83668550	175746	10	9	16	36	100	51.500000	206.000000
83668550	175746	10	9	16	46	80	51.500000	206.000000
83668550	351493	12	11	30	58	120	51.500000	206.000000
83668550	351493	12	11	30	70	80	51.500000	206.000000
83668550	175746	13	12	29	38	120	51.500000	206.000000
83668550	175746	14	13	30	38	120	51.500000	206.000000
83668550	175746	15	14	33	26	120	51.500000	206.000000
83844296	175747	10	9	16	36	100	51.625000	206.500000
83844296	175747	13	12	29	50	120	51.625000	206.500000
83844296	175747	14	13	30	50	120	51.625000	206.500000
83844296	175747	15	14	33	38	120	51.625000	206.500000
84020043	351493	3	2	80	65	120	51.750000	207.000000
84020043	175746	5	4	0	77	120	51.750000	207.000000
84020043	175746	5	4	0	82	120	51.750000	207.000000
84020043	175746	9	8	9	77	90	51.750000	207.000000
84020043	175746	9	8	9	89	90	51.750000	207.000000
84020043	175746	10	9	16	38	100	51.750000	207.000000
84020043	175746	10	9	16	46	80	51.750000	207.000000
84020043	351493	12	11	30	53	120	51.750000	207.000000
84020043	351493	12	11	30	65	80	51.750000	207.000000
84020043	175746	13	12	29	38	120	51.750000	207.000000
84020043	175746	14	13	30	38	120	51.750000	207.000000
84020043	175746	15	14	33	26	120	51.750000	207.000000
84195789	175747	10	9	16	36	100	51.875000	207.500000
84195789	175747	13	12	29	50	120	51.875000	207.500000
84195789	175747	14	13	30	50	120	51.875000	207.500000
84195789	175747	15	14	33	38	120	51.875000	207.500000
84371536	2811944	2	1	48	39	100	52.000000	208.000000
84371536	2811944	2	1	48	51	100	52.000000	208.000000
84371536	2811944	2	1	48	63	100	52.000000	208.000000
84371536	2811944	2	1	48	70	100	52.000000	208.000000
84371536	2811944	2	1	48	74	100	52.000000	208.000000
84371536	2811944	2	1	48	77	100	52.000000	208.000000
84371536	2811944	2	1	48	82	100	52.000000	208.000000
84371536	351493	3	2	80	77	120	52.000000	208.000000
84371536	87873	3	2	80	82	120	52.000000	208.000000
84371536	175746	5	4	0	82	120	52.000000	208.000000
84371536	175746	5	4	0	86	120	52.000000	208.000000
84371536	175746	9	8	9	89	90	52.000000	208.000000
84371536	175746	9	8	9	101	90	52.000000	208.000000
84371536	175746	10	9	16	36	100	52.000000	208.000000
84371536	175746	10	9	16	46	80	52.000000	208.000000
84371536	351493	12	11	30	65	120	52.000000	208.000000
84371536	351493	12	11	30	77	80	52.000000	208.000000
84371536	175746	13	12	29	39	120	52.000000	208.000000
84371536	175746	14	13	30	39	120	52.000000	208.000000
84371536	175746	15	14	33	27	120	52.000000	208.000000
84547282	175747	10	9	16	36	100	52.125000	208.500000
84547282	175747	13	12	29	39	120	52.125000	208.500000
84547282	175747	14	13	30	39	120	52.125000	208.500000
84547282	175747	15	14	33	27	120	52.125000	208.500000
84723029	351493	3	2	80	70	120	52.250000	209.000000
84723029	87873	3	2	80	82	120	52.250000	209.000000
84723029	175746	5	4	0	82	120	52.250000	209.000000
84723029	175746	9	8	9	82	90	52.250000	209.000000
84723029	175746	9	8	9	94	90	52.250000	209.000000
84723029	175746	10	9	16	38	100	52.250000	209.000000
84723029	175746	10	9	16	46	80	52.250000	209.000000
84723029	351493	12	11	30	58	120	52.250000	209.000000
84723029	351493	12	11	30	70	80	52.250000	209.000000
84723029	175746	13	12	29	51	120	52.250000	209.000000
84723029	175746	14	13	30	51	120	52.250000	209.000000
84723029	175746	15	14	33	39	120	52.250000	209.000000
84898775	87873	3	2	80	84	120	52.375000	209.500000
84898775	175747	5	4	0	81	120	52.375000	209.500000
84898775	175747	5	4	0	84	120	52.375000	209.500000
84898775	175747	10	9	16	36	100	52.375000	209.500000
84898775	175747	13	12	29	39	120	52.375000	209.500000
84898775	175747	14	13	30	39	120	52.375000	209.500000
84898775	175747	15	14	33	27	120	52.375000	209.500000
85074522	351493	3	2	80	72	120	52.500000	210.000000
85074522	175746	3	2	80	86	120	52.500000	210.000000
85074522	175746	5	4	0	86	120	52.500000	210.000000
85074522	175746	9	8	9	84	90	52.500000	210.000000
85074522	175746	9	8	9	96	90	52.500000	210.000000
85074522	175746	10	9	16	36	100	52.500000	210.000000
85074522	175746	10	9	16	46	80	52.500000	210.000000
85074522	351493	12	11	30	60	120	52.500000	210.000000
85074522	351493	12	11	30	72	80	52.500000	210.000000
85074522	175746	13	12	29	39	120	52.500000	210.000000
85074522	175746	14	13	30	39	120	52.500000	210.000000
85074522	175746	15	14	33	27	120	52.500000	210.000000
85250268	175747	10	9	16	36	100	52.625000	210.500000
85250268	175747	13	12	29	51	120	52.625000	210.500000
85250268	175747	14	13	30	51	120	52.625000	210.500000
85250268	175747	15	14	33	39	120	52.625000	210.500000
85426015	351493	3	2	80	70	120	52.750000	211.000000
85426015	87873	3	2	80	82	120	52.750000	211.000000
85426015	175746	5	4	0	77	120	52.750000	211.000000
85426015	175746	5	4	0	82	120	52.750000	211.000000
85426015	175746	9	8	9	82	90	52.750000	211.000000
85426015	175746	9	8	9	94	90	52.750000	211.000000
85426015	175746	10	9	16	38	100	52.750000	211.000000
85426015	175746	10	9	16	46	80	52.750000	211.000000
85426015	351493	12	11	30	58	120	52.750000	211.000000
85426015	351493	12	11	30	70	80	52.750000	211.000000
85426015	175746	13	12	29	39	120	52.750000	211.000000
85426015	175746	14	13	30	39	120	52.750000	211.000000
85426015	175746	15	14	33	27	120	52.750000	211.000000
85601761	175747	10	9	16	36	100	52.875000	211.500000
85601761	175747	13	12	29	39	120	52.875000	211.500000
85601761	175747	14	13	30	39	120	52.875000	211.500000
85601761	175747	15	14	33	27	120	52.875000	211.500000
85777508	175746	3	2	80	65	120	53.000000	212.000000
85777508	175746	3	2	80	84	120	53.000000	212.000000
85777508	175746	5	4	0	84	120	53.000000	212.000000
85777508	175746	9	8	9	77	90	53.000000	212.000000
85777508	175746	9	8	9	89	90	53.000000	212.000000
85777508	175746	10	9	16	36	100	53.000000	212.000000
85777508	175746	10	9	16	46	80	53.000000	212.000000
85777508	175746	12	11	30	53	120	53.000000	212.000000
85777508	175746	12	11	30	65	80	53.000000	212.000000
85777508	175746	13	12	29	39	120	53.000000	212.000000
85777508	175746	14	13	30	39	120	53.000000	212.000000
85777508	175746	15	14	33	27	120	53.000000	212.000000
85953254	175747	3	2	80	70	120	53.125000	212.500000
85953254	87873	3	2	80	82	120	53.125000	212.500000
85953254	175747	5	4	0	82	120	53.125000	212.500000
85953254	175747	5	4	0	86	120	53.125000	212.500000
85953254	175747	9	8	9	82	90	53.125000	212.500000
85953254	175747	9	8	9	94	90	53.125000	212.500000
85953254	175747	10	9	16	36	100	53.125000	212.500000
85953254	175747	12	11	30	58	120	53.125000	212.500000
85953254	175747	12	11	30	70	80	53.125000	212.500000
85953254	175747	13	12	29	51	120	53.125000	212.500000
85953254	175747	14	13	30	51	120	53.125000	212.500000
85953254	175747	15	14	33	39	120	53.125000	212.500000
86129001	87873	3	2	80	84	120	53.250000	213.000000
86129001	175746	5	4	0	84	120	53.250000	213.000000
86129001	175746	10	9	16	38	100	53.250000	213.000000
86129001	175746	10	9	16	46	80	53.250000	213.000000
86129001	175746	13	12	29	39	120	53.250000	213.000000
86129001	175746	14	13	30	39	120	53.250000	213.000000
86129001	175746	15	14	33	27	120	53.250000	213.000000
86304747	351493	3	2	80	72	120	53.375000	213.500000
86304747	87873	3	2	80	86	120	53.375000	213.500000
86304747	175747	5	4	0	86	120	53.375000	213.500000
86304747	175747	9	8	9	84	90	53.375000	213.500000
86304747	175747	9	8	9	96	90	53.375000	213.500000
86304747	175747	10	9	16	36	100	53.375000	213.500000
86304747	351493	12	11	30	60	120	53.375000	213.500000
86304747	351493	12	11	30	72	80	53.375000	213.500000
86304747	175747	13	12	29	51	120	53.375000	213.500000
86304747	175747	14	13	30	51	120	53.375000	213.500000
86304747	175747	15	14	33	39	120	53.375000	213.500000
86480494	87873	3	2	80	84	120	53.500000	214.000000
86480494	175746	5	4	0	81	120	53.500000	214.000000
86480494	175746	5	4	0	84	120	53.500000	214.000000
86480494	175746	10	9	16	36	100	53.500000	214.000000
86480494	175746	10	9	16	46	80	53.500000	214.000000
86480494	175746	13	12	29	39	120	53.500000	214.000000
86480494	175746	14	13	30	39	120	53.500000	214.000000
86480494	175746	15	14	33	27	120	53.500000	214.000000
86656240	87873	3	2	80	74	120	53.625000	214.500000
86656240	87873	3	2	80	86	120	53.625000	214.500000
86656240	87873	5	4	0	86	120	53.625000	214.500000
86656240	87873	9	8	9	86	90	53.625000	214.500000
86656240	87873	9	8	9	98	90	53.625000	214.500000
86656240	175747	10	9	16	36	100	53.625000	214.500000
86656240	87873	12	11	30	62	120	53.625000	214.500000
86656240	87873	12	11	30	74	80	53.625000	214.500000
86656240	175747	13	12	29	51	120	53.625000	214.500000
86656240	175747	14	13	30	51	120	53.625000	214.500000
86656240	175747	15	14	33	39	120	53.625000	214.500000
86744113	87874	3	2	80	72	120	53.687500	214.750000
86744113	87874	3	2	80	84	120	53.687500	214.750000
86744113	87874	5	4	0	84	120	53.687500	214.750000
86744113	87874	9	8	9	84	90	53.687500	214.750000
86744113	87874	9	8	9	96	90	53.687500	214.750000
86744113	87874	12	11	30	60	120	53.687500	214.750000
86744113	87874	12	11	30	72	80	53.687500	214.750000
86831987	351493	3	2	80	70	120	53.750000	215.000000
86831987	175746	3	2	80	82	120	53.750000	215.000000
86831987	175746	5	4	0	77	120	53.750000	215.000000
86831987	175746	5	4	0	82	120	53.750000	215.000000
86831987	175746	9	8	9	82	90	53.750000	215.000000
86831987	175746	9	8	9	94	90	53.750000	215.000000
86831987	175746	10	9	16	38	100	53.750000	215.000000
86831987	175746	10	9	16	46	80	53.750000	215.000000
86831987	351493	12	11	30	58	120	53.750000	215.000000
86831987	351493	12	11	30	70	80	53.750000	215.000000
86831987	175746	13	12	29	39	120	53.750000	215.000000
86831987	175746	14	13	30	39	120	53.750000	215.000000
86831987	175746	15	14	33	27	120	53.750000	215.000000
87007733	175747	10	9	16	36	100	53.875000	215.500000
87007733	175747	13	12	29	39	120	53.875000	215.500000
87007733	175747	14	13	30	39	120	53.875000	215.500000
87007733	175747	15	14	33	27	120	53.875000	215.500000
87183480	1405972	2	1	48	41	100	54.000000	216.000000
87183480	1405972	2	1	48	53	100	54.000000	216.000000
87183480	1405972	2	1	48	65	100	54.000000	216.000000
87183480	1405972	2	1	48	72	100	54.000000	216.000000
87183480	1405972	2	1	48	75	100	54.000000	216.000000
87183480	1405972	2	1	48	79	100	54.000000	216.000000
87183480	1405972	2	1	48	84	100	54.000000	216.000000
87183480	351493	3	2	80	65	120	54.000000	216.000000
87183480	87873	3	2	80	86	120	54.000000	216.000000
87183480	175746	5	4	0	82	120	54.000000	216.000000
87183480	175746	5	4	0	86	120	54.000000	216.000000
87183480	175746	9	8	9	77	90	54.000000	216.000000
87183480	175746	9	8	9	89	90	54.000000	216.000000
87183480	175746	10	9	16	36	100	54.000000	216.000000
87183480	175746	10	9	16	46	80	54.000000	216.000000
87183480	351493	12	11	30	53	120	54.000000	216.000000
87183480	351493	12	11	30	65	100	54.000000	216.000000
87183480	175746	13	12	29	41	120	54.000000	216.000000
87183480	175746	14	13	30	41	120	54.000000	216.000000
87183480	175746	15	14	33	29	120	54.000000	216.000000
87359226	175747	10	9	16	36	100	54.125000	216.500000
87359226	175747	13	12	29	41	120	54.125000	216.500000
87359226	175747	14	13	30	41	120	54.125000	216.500000
87359226	175747	15	14	33	29	120	54.125000	216.500000
87534973	351493	3	2	80	70	120	54.250000	217.000000
87534973	87873	3	2	80	86	120	54.250000	217.000000
87534973	175746	5	4	0	86	120	54.250000	217.000000
87534973	175746	9	8	9	82	90	54.250000	217.000000
87534973	175746	9	8	9	94	90	54.250000	217.000000
87534973	175746	10	9	16	38	100	54.250000	217.000000
87534973	175746	10	9	16	46	80	54.250000	217.000000
87534973	351493	12	11	30	58	120	54.250000	217.000000
87534973	351493	12	11	30	70	80	54.250000	217.000000
87534973	175746	13	12	29	53	120	54.250000	217.000000
87534973	175746	14	13	30	53	120	54.250000	217.000000
87534973	175746	15	14	33	41	120	54.250000	217.000000
87710719	87873	3	2	80	87	120	54.375000	217.500000
87710719	175747	5	4	0	81	120	54.375000	217.500000
87710719	175747	5	4	0	87	120	54.375000	217.500000
87710719	175747	10	9	16	36	100	54.375000	217.500000
87710719	175747	13	12	29	41	120	54.375000	217.500000
87710719	175747	14	13	30	41	120	54.375000	217.500000
87710719	175747	15	14	33	29	120	54.375000	217.500000
87886466	175746	3	2	80	72	120	54.500000	218.000000
87886466	87873	3	2	80	89	120	54.500000	218.000000
87886466	175746	5	4	0	89	120	54.500000	218.000000
87886466	175746	9	8	9	84	90	54.500000	218.000000
87886466	175746	9	8	9	96	90	54.500000	218.000000
87886466	175746	10	9	16	36	100	54.500000	218.000000
87886466	175746	10	9	16	46	80	54.500000	218.000000
87886466	175746	12	11	30	60	120	54.500000	218.000000
87886466	175746	12	11	30	72	80	54.500000	218.000000
87886466	175746	13	12	29	41	120	54.500000	218.000000
87886466	175746	14	13	30	41	120	54.500000	218.000000
87886466	175746	15	14	33	29	120	54.500000	218.000000
88062212	175747	3	2	80	75	120	54.625000	218.500000
88062212	175747	9	8	9	87	90	54.625000	218.500000
88062212	175747	9	8	9	99	90	54.625000	218.500000
88062212	175747	10	9	16	36	100	54.625000	218.500000
88062212	175747	12	11	30	63	120	54.625000	218.500000
88062212	175747	12	11	30	75	80	54.625000	218.500000
88062212	175747	13	12	29	53	120	54.625000	218.500000
88062212	175747	14	13	30	53	120	54.625000	218.500000
88062212	175747	15	14	33	41	120	54.625000	218.500000
88237959	87873	3	2	80	94	120	54.750000	219.000000
88237959	175746	5	4	0	77	120	54.750000	219.000000
88237959	175746	5	4	0	82	120	54.750000	219.000000
88237959	175746	5	4	0	84	120	54.750000	219.000000
88237959	175746	5	4	0	94	120	54.750000	219.000000
88237959	175746	10	9	16	38	100	54.750000	219.000000
88237959	175746	10	9	16	46	80	54.750000	219.000000
88237959	175746	13	12	29	41	120	54.750000	219.000000
88237959	175746	14	13	30	41	120	54.750000	219.000000
88237959	175746	15	14	33	29	120	54.750000	219.000000
88413705	351493	3	2	80	74	120	54.875000	219.500000
88413705	175747	9	8	9	86	90	54.875000	219.500000
88413705	175747	9	8	9	98	90	54.875000	219.500000
88413705	175747	10	9	16	36	100	54.875000	219.500000
88413705	351493	12	11	30	62	120	54.875000	219.500000
88413705	351493	12	11	30	74	80	54.875000	219.500000
88413705	175747	13	12	29	41	120	54.875000	219.500000
88413705	175747	14	13	30	41	120	54.875000	219.500000
88413705	175747	15	14	33	29	120	54.875000	219.500000
88589452	1405972	2	1	48	43	100	55.000000	220.000000
88589452	1405972	2	1	48	55	100	55.000000	220.000000
88589452	1405972	2	1	48	67	100	55.000000	220.000000
88589452	1405972	2	1	48	70	100	55.000000	220.000000
88589452	1405972	2	1	48	74	100	55.000000	220.000000
88589452	1405972	2	1	48	77	100	55.000000	220.000000
88589452	1405972	2	1	48	82	100	55.000000	220.000000
88589452	702986	3	2	80	91	120	55.000000	220.000000
88589452	702986	5	4	0	91	120	55.000000	220.000000
88589452	175746	10	9	16	36	100	55.000000	220.000000
88589452	175746	10	9	16	46	80	55.000000	220.000000
88589452	175746	13	12	29	43	120	55.000000	220.000000
88589452	175746	14	13	30	43	120	55.000000	220.000000
88589452	175746	15	14	33	31	120	55.000000	220.000000
88765198	87873	3	2	80	75	120	55.125000	220.500000
88765198	175747	5	4	0	81	120	55.125000	220.500000
88765198	175747	5	4	0	84	120	55.125000	220.500000
88765198	87873	9	8	9	87	90	55.125000	220.500000
88765198	87873	9	8	9	99	90	55.125000	220.500000
88765198	175747	10	9	16	36	100	55.125000	220.500000
88765198	87873	12	11	30	63	120	55.125000	220.500000
88765198	87873	12	11	30	75	80	55.125000	220.500000
88765198	175747	13	12	29	55	120	55.125000	220.500000
88765198	175747	14	13	30	55	120	55.125000	220.500000
88765198	175747	15	14	33	43	120	55.125000	220.500000
88853071	87874	3	2	80	74	120	55.187500	220.750000
88853071	87874	9	8	9	86	90	55.187500	220.750000
88853071	87874	9	8	9	98	90	55.187500	220.750000
88853071	87874	12	11	30	62	120	55.187500	220.750000
88853071	87874	12	11	30	74	80	55.187500	220.750000
88940945	351493	3	2	80	72	120	55.250000	221.000000
88940945	175746	9	8	9	84	90	55.250000	221.000000
88940945	175746	9	8	9	96	90	55.250000	221.000000
88940945	175746	10	9	16	38	100	55.250000	221.000000
88940945	175746	10	9	16	46	80	55.250000	221.000000
88940945	351493	12	11	30	60	120	55.250000	221.000000
88940945	351493	12	11	30	72	80	55.250000	221.000000
88940945	175746	13	12	29	43	120	55.250000	221.000000
88940945	175746	14	13	30	43	120	55.250000	221.000000
88940945	175746	15	14	33	31	120	55.250000	221.000000
89116691	175747	10	9	16	36	100	55.375000	221.500000
89116691	175747	13	12	29	55	120	55.375000	221.500000
89116691	175747	14	13	30	55	120	55.375000	221.500000
89116691	175747	15	14	33	43	120	55.375000	221.500000
89292438	351493	3	2	80	70	120	55.500000	222.000000
89292438	702986	3	2	80	82	120	55.500000	222.000000
89292438	702986	5	4	0	82	120	55.500000	222.000000
89292438	175746	5	4	0	86	120	55.500000	222.000000
89292438	175746	9	8	9	82	90	55.500000	222.000000
89292438	175746	9	8	9	94	90	55.500000	222.000000
89292438	175746	10	9	16	36	100	55.500000	222.000000
89292438	175746	10	9	16	46	80	55.500000	222.000000
89292438	351493	12	11	30	58	120	55.500000	222.000000
89292438	351493	12	11	30	70	80	55.500000	222.000000
89292438	175746	13	12	29	43	120	55.500000	222.000000
89292438	175746	14	13	30	43	120	55.500000	222.000000
89292438	175746	15	14	33	31	120	55.500000	222.000000
89468184	175747	10	9	16	36	100	55.625000	222.500000
89468184	175747	13	12	29	55	120	55.625000	222.500000
89468184	175747	14	13	30	55	120	55.625000	222.500000
89468184	175747	15	14	33	43	120	55.625000	222.500000
89643931	351493	3	2	80	65	120	55.750000	223.000000
89643931	175746	9	8	9	77	90	55.750000	223.000000
89643931	175746	9	8	9	89	90	55.750000	223.000000
89643931	175746	10	9	16	38	100	55.750000	223.000000
89643931	175746	10	9	16	46	80	55.750000	223.000000
89643931	351493	12	11	30	53	120	55.750000	223.000000
89643931	351493	12	11	30	65	80	55.750000	223.000000
89643931	175746	13	12	29	43	120	55.750000	223.000000
89643931	175746	14	13	30	43	120	55.750000	223.000000
89643931	175746	15	14	33	31	120	55.750000	223.000000
89819677	175747	10	9	16	36	100	55.875000	223.500000
89819677	175747	13	12	29	55	120	55.875000	223.500000
89819677	175747	14	13	30	55	120	55.875000	223.500000
89819677	175747	15	14	33	43	120	55.875000	223.500000
89995424	2811944	2	1	48	36	100	56.000000	224.000000
89995424	175746	3	2	80	70	120	56.000000	224.000000
89995424	175746	3	2	80	74	120	56.000000	224.000000
89995424	175746	5	4	0	46	120	56.000000	224.000000
89995424	175746	5	4	0	70	120	56.000000	224.000000
89995424	175746	5	4	0	82	120	56.000000	224.000000
89995424	175746	10	9	16	36	100	56.000000	224.000000
89995424	175746	10	9	16	46	80	56.000000	224.000000
89995424	175746	13	12	29	36	120	56.000000	224.000000
89995424	175746	14	13	30	36	120	56.000000	224.000000
89995424	175746	15	14	33	24	120	56.000000	224.000000
90171170	175747	10	9	16	36	100	56.125000	224.500000
90171170	175747	13	12	29	36	120	56.125000	224.500000
90171170	175747	14	13	30	36	120	56.125000	224.500000
90171170	175747	15	14	33	24	120	56.125000	224.500000
90346917	175746	3	2	80	70	120	56.250000	225.000000
90346917	175746	3	2	80	74	120	56.250000	225.000000
90346917	175746	5	4	0	50	120	56.250000	225.000000
90346917	175746	5	4	0	70	120	56.250000	225.000000
90346917	175746	5	4	0	82	120	56.250000	225.000000
90346917	175746	10	9	16	38	100	56.250000	225.000000
90346917	175746	10	9	16	46	80	56.250000	225.000000
90346917	175746	13	12	29	48	120	56.250000	225.000000
90346917	175746	14	13	30	48	120	56.250000	225.000000
90346917	175746	15	14	33	36	120	56.250000	225.000000
90522663	175747	3	2	80	72	120	56.375000	225.500000
90522663	175747	3	2	80	75	120	56.375000	225.500000
90522663	175747	5	4	0	72	120	56.375000	225.500000
90522663	175747	5	4	0	84	120	56.375000	225.500000
90522663	175747	10	9	16	36	100	56.375000	225.500000
90522663	175747	13	12	29	36	120	56.375000	225.500000
90522663	175747	14	13	30	36	120	56.375000	225.500000
90522663	175747	15	14	33	24	120	56.375000	225.500000
90698410	175746	3	2	80	74	120	56.500000	226.000000
90698410	175746	3	2	80	77	120	56.500000	226.000000
90698410	175746	5	4	0	43	120	56.500000	226.000000
90698410	175746	5	4	0	74	120	56.500000	226.000000
90698410	175746	5	4	0	86	120	56.500000	226.000000
90698410	175746	10	9	16	36	100	56.500000	226.000000
90698410	175746	10	9	16	46	80	56.500000	226.000000
90698410	175746	13	12	29	36	120	56.500000	226.000000
90698410	175746	14	13	30	36	120	56.500000	226.000000
90698410	175746	15	14	33	24	120	56.500000	226.000000
90874156	175747	10	9	16	36	100	56.625000	226.500000
90874156	175747	13	12	29	48	120	56.625000	226.500000
90874156	175747	14	13	30	48	120	56.625000	226.500000
90874156	175747	15	14	33	36	120	56.625000	226.500000
91049903	175746	3	2	80	70	120	56.750000	227.000000
91049903	175746	3	2	80	74	120	56.750000	227.000000
91049903	175746	5	4	0	50	120	56.750000	227.000000
91049903	175746	5	4	0	70	120	56.750000	227.000000
91049903	175746	5	4	0	82	120	56.750000	227.000000
91049903	175746	10	9	16	38	100	56.750000	227.000000
91049903	175746	10	9	16	46	80	56.750000	227.000000
91049903	175746	13	12	29	36	120	56.750000	227.000000
91049903	175746	14	13	30	36	120	56.750000	227.000000
91049903	175746	15	14	33	24	120	56.750000	227.000000
91225649	175747	10	9	16	36	100	56.875000	227.500000
91225649	175747	13	12	29	48	120	56.875000	227.500000
91225649	175747	14	13	30	48	120	56.875000	227.500000
91225649	175747	15	14	33	36	120	56.875000	227.500000
91401396	175746	3	2	80	72	120	57.000000	228.000000
91401396	175746	3	2	80	75	120	57.000000	228.000000
91401396	175746	5	4	0	48	120	57.000000	228.000000
91401396	175746	5	4	0	72	120	57.000000	228.000000
91401396	175746	5	4	0	84	120	57.000000	228.000000
91401396	175746	10	9	16	36	100	57.000000	228.000000
91401396	175746	10	9	16	46	80	57.000000	228.000000
91401396	175746	13	12	29	36	120	57.000000	228.000000
91401396	175746	14	13	30	36	120	57.000000	228.000000
91401396	175746	15	14	33	24	120	57.000000	228.000000
91577142	175747	10	9	16	36	100	57.125000	228.500000
91577142	175747	13	12	29	48	120	57.125000	228.500000
91577142	175747	14	13	30	48	120	57.125000	228.500000
91577142	175747	15	14	33	36	120	57.125000	228.500000
91752889	175746	3	2	80	72	120	57.250000	229.000000
91752889	175746	3	2	80	75	120	57.250000	229.000000
91752889	175746	5	4	0	50	120	57.250000	229.000000
91752889	175746	5	4	0	72	120	57.250000	229.000000
91752889	175746	5	4	0	84	120	57.250000	229.000000
91752889	175746	10	9	16	38	100	57.250000	229.000000
91752889	175746	10	9	16	46	80	57.250000	229.000000
91752889	175746	13	12	29	36	120	57.250000	229.000000
91752889	175746	14	13	30	36	120	57.250000	229.000000
91752889	175746	15	14	33	24	120	57.250000	229.000000
91928635	175747	3	2	80	74	120	57.375000	229.500000
91928635	175747	3	2	80	77	120	57.375000	229.500000
91928635	175747	5	4	0	74	120	57.375000	229.500000
91928635	175747	5	4	0	86	120	57.375000	229.500000
91928635	175747	10	9	16	36	100	57.375000	229.500000
91928635	175747	13	12	29	48	120	57.375000	229.500000
91928635	175747	14	13	30	48	120	57.375000	229.500000
91928635	175747	15	14	33	36	120	57.375000	229.500000
92104382	175746	3	2	80	72	120	57.500000	230.000000
92104382	175746	3	2	80	75	120	57.500000	230.000000
92104382	175746	5	4	0	43	120	57.500000	230.000000
92104382	175746	5	4	0	72	120	57.500000	230.000000
92104382	175746	5	4	0	84	120	57.500000	230.000000
92104382	175746	10	9	16	36	100	57.500000	230.000000
92104382	175746	10	9	16	46	80	57.500000	230.000000
92104382	175746	13	12	29	36	120	57.500000	230.000000
92104382	175746	14	13	30	36	120	57.500000	230.000000
92104382	175746	15	14	33	24	120	57.500000	230.000000
92280128	175747	10	9	16	36	100	57.625000	230.500000
92280128	175747	13	12	29	48	120	57.625000	230.500000
92280128	175747	14	13	30	48	120	57.625000	230.500000
92280128	175747	15	14	33	36	120	57.625000	230.500000
92455875	175746	3	2	80	70	120	57.750000	231.000000
92455875	175746	3	2	80	74	120	57.750000	231.000000
92455875	175746	5	4	0	50	120	57.750000	231.000000
92455875	175746	5	4	0	70	120	57.750000	231.000000
92455875	175746	5	4	0	82	120	57.750000	231.000000
92455875	175746	10	9	16	38	100	57.750000	231.000000
92455875	175746	10	9	16	46	80	57.750000	231.000000
92455875	175746	13	12	29	36	120	57.750000	231.000000
92455875	175746	14	13	30	36	120	57.750000	231.000000
92455875	175746	15	14	33	24	120	57.750000	231.000000
92631621	175747	10	9	16	36	100	57.875000	231.500000
92631621	175747	13	12	29	48	120	57.875000	231.500000
92631621	175747	14	13	30	48	120	57.875000	231.500000
92631621	175747	15	14	33	36	120	57.875000	231.500000
92807368	2811944	2	1	48	38	100	58.000000	232.000000
92807368	175746	3	2	80	74	120	58.000000	232.000000
92807368	175746	3	2	80	77	120	58.000000	232.000000
92807368	175746	5	4	0	50	120	58.000000	232.000000
92807368	175746	5	4	0	74	120	58.000000	232.000000
92807368	175746	5	4	0	86	120	58.000000	232.000000
92807368	175746	10	9	16	36	100	58.000000	232.000000
92807368	175746	10	9	16	46	80	58.000000	232.000000
92807368	175746	13	12	29	38	120	58.000000	232.000000
92807368	175746	14	13	30	38	120	58.000000	232.000000
92807368	175746	15	14	33	26	120	58.000000	232.000000
92983114	175747	10	9	16	36	100	58.125000	232.500000
92983114	175747	13	12	29	38	120	58.125000	232.500000
92983114	175747	14	13	30	38	120	58.125000	232.500000
92983114	175747	15	14	33	26	120	58.125000	232.500000
93158861	175746	3	2	80	74	120	58.250000	233.000000
93158861	175746	3	2	80	77	120	58.250000	233.000000
93158861	175746	5	4	0	53	120	58.250000	233.000000
93158861	175746	5	4	0	74	120	58.250000	233.000000
93158861	175746	5	4	0	86	120	58.250000	233.000000
93158861	175746	10	9	16	38	100	58.250000	233.000000
93158861	175746	10	9	16	46	80	58.250000	233.000000
93158861	175746	13	12	29	50	120	58.250000	233.000000
93158861	175746	14	13	30	50	120	58.250000	233.000000
93158861	175746	15	14	33	38	120	58.250000	233.000000
93334607	175747	3	2	80	75	120	58.375000	233.500000
93334607	175747	3	2	80	79	120	58.375000	233.500000
93334607	175747	5	4	0	75	120	58.375000	233.500000
93334607	175747	5	4	0	87	120	58.375000	233.500000
93334607	175747	10	9	16	36	100	58.375000	233.500000
93334607	175747	13	12	29	38	120	58.375000	233.500000
93334607	175747	14	13	30	38	120	58.375000	233.500000
93334607	175747	15	14	33	26	120	58.375000	233.500000
93510354	175746	3	2	80	77	120	58.500000	234.000000
93510354	175746	3	2	80	82	120	58.500000	234.000000
93510354	175746	5	4	0	45	120	58.500000	234.000000
93510354	175746	5	4	0	77	120	58.500000	234.000000
93510354	175746	5	4	0	89	120	58.500000	234.000000
93510354	175746	10	9	16	36	100	58.500000	234.000000
93510354	175746	10	9	16	46	80	58.500000	234.000000
93510354	175746	13	12	29	38	120	58.500000	234.000000
93510354	175746	14	13	30	38	120	58.500000	234.000000
93510354	175746	15	14	33	26	120	58.500000	234.000000
93686100	175747	10	9	16	36	100	58.625000	234.500000
93686100	175747	13	12	29	50	120	58.625000	234.500000
93686100	175747	14	13	30	50	120	58.625000	234.500000
93686100	175747	15	14	33	38	120	58.625000	234.500000
93861847	175746	3	2	80	82	120	58.750000	235.000000
93861847	175746	5	4	0	53	120	58.750000	235.000000
93861847	175746	5	4	0	82	120	58.750000	235.000000
93861847	175746	5	4	0	94	120	58.750000	235.000000
93861847	175746	10	9	16	38	100	58.750000	235.000000
93861847	175746	10	9	16	46	80	58.750000	235.000000
93861847	175746	13	12	29	38	120	58.750000	235.000000
93861847	175746	14	13	30	38	120	58.750000	235.000000
93861847	175746	15	14	33	26	120	58.750000	235.000000
94037593	175747	10	9	16	36	100	58.875000	235.500000
94037593	175747	13	12	29	50	120	58.875000	235.500000
94037593	175747	14	13	30	50	120	58.875000	235.500000
94037593	175747	15	14	33	38	120	58.875000	235.500000
94213340	702986	3	2	80	79	120	59.000000	236.000000
94213340	702986	3	2	80	82	120	59.000000	236.000000
94213340	175746	5	4	0	50	120	59.000000	236.000000
94213340	702986	5	4	0	79	120	59.000000	236.000000
94213340	702986	5	4	0	91	120	59.000000	236.000000
94213340	175746	10	9	16	36	100	59.000000	236.000000
94213340	175746	10	9	16	46	80	59.000000	236.000000
94213340	175746	13	12	29	38	120	59.000000	236.000000
94213340	175746	14	13	30	38	120	59.000000	236.000000
94213340	175746	15	14	33	26	120	59.000000	236.000000
94389086	175747	10	9	16	36	100	59.125000	236.500000
94389086	175747	13	12	29	38	120	59.125000	236.500000
94389086	175747	14	13	30	38	120	59.125000	236.500000
94389086	175747	15	14	33	26	120	59.125000	236.500000
94564833	175746	5	4	0	53	120	59.250000	237.000000
94564833	175746	10	9	16	38	100	59.250000	237.000000
94564833	175746	10	9	16	46	80	59.250000	237.000000
94564833	175746	13	12	29	50	120	59.250000	237.000000
94564833	175746	14	13	30	50	120	59.250000	237.000000
94564833	175746	15	14	33	38	120	59.250000	237.000000
94740579	175747	10	9	16	36	100	59.375000	237.500000
94740579	175747	13	12	29	38	120	59.375000	237.500000
94740579	175747	14	13	30	38	120	59.375000	237.500000
94740579	175747	15	14	33	26	120	59.375000	237.500000
94916326	702986	3	2	80	77	120	59.500000	238.000000
94916326	702986	3	2	80	84	120	59.500000	238.000000
94916326	175746	5	4	0	48	120	59.500000	238.000000
94916326	702986	5	4	0	77	120	59.500000	238.000000
94916326	702986	5	4	0	89	120	59.500000	238.000000
94916326	175746	10	9	16	36	100	59.500000	238.000000
94916326	175746	10	9	16	46	80	59.500000	238.000000
94916326	175746	13	12	29	38	120	59.500000	238.000000
94916326	175746	14	13	30	38	120	59.500000	238.000000
94916326	175746	15	14	33	26	120	59.500000	238.000000
95092072	175747	10	9	16	36	100	59.625000	238.500000
95092072	175747	13	12	29	50	120	59.625000	238.500000
95092072	175747	14	13	30	50	120	59.625000	238.500000
95092072	175747	15	14	33	38	120	59.625000	238.500000
95267819	175746	5	4	0	53	120	59.750000	239.000000
95267819	175746	10	9	16	38	100	59.750000	239.000000
95267819	175746	10	9	16	46	80	59.750000	239.000000
95267819	175746	13	12	29	38	120	59.750000	239.000000
95267819	175746	14	13	30	38	120	59.750000	239.000000
95267819	175746	15	14	33	26	120	59.750000	239.000000
95443565	175747	10	9	16	36	100	59.875000	239.500000
95443565	175747	13	12	29	50	120	59.875000	239.500000
95443565	175747	14	13	30	50	120	59.875000	239.500000
95443565	175747	15	14	33	38	120	59.875000	239.500000
95619312	2811944	2	1	48	39	100	60.000000	240.000000
95619312	175746	3	2	80	82	120	60.000000	240.000000
95619312	175746	3	2	80	86	120	60.000000	240.000000
95619312	175746	5	4	0	46	120	60.000000	240.000000
95619312	175746	5	4	0	70	120	60.000000	240.000000
95619312	175746	5	4	0	82	120	60.000000	240.000000
95619312	175746	10	9	16	36	100	60.000000	240.000000
95619312	175746	10	9	16	46	80	60.000000	240.000000
95619312	175746	13	12	29	39	120	60.000000	240.000000
95619312	175746	14	13	30	39	120	60.000000	240.000000
95619312	175746	15	14	33	27	120	60.000000	240.000000
95795058	175747	5	4	0	70	120	60.125000	240.500000
95795058	175747	5	4	0	82	120	60.125000	240.500000
95795058	175747	10	9	16	36	100	60.125000	240.500000
95795058	175747	13	12	29	39	120	60.125000	240.500000
95795058	175747	14	13	30	39	120	60.125000	240.500000
95795058	175747	15	14	33	27	120	60.125000	240.500000
95970805	175746	3	2	80	82	120	60.250000	241.000000
95970805	175746	3	2	80	86	120	60.250000	241.000000
95970805	175746	5	4	0	50	120	60.250000	241.000000
95970805	175746	5	4	0	70	120	60.250000	241.000000
95970805	175746	5	4	0	82	120	60.250000	241.000000
95970805	175746	10	9	16	38	100	60.250000	241.000000
95970805	175746	10	9	16	46	80	60.250000	241.000000
95970805	175746	13	12	29	51	120	60.250000	241.000000
95970805	175746	14	13	30	51	120	60.250000	241.000000
95970805	175746	15	14	33	39	120	60.250000	241.000000
96146551	175747	3	2	80	84	120	60.375000	241.500000
96146551	175747	3	2	80	87	120	60.375000	241.500000
96146551	175747	5	4	0	72	120	60.375000	241.500000
96146551	175747	5	4	0	84	120	60.375000	241.500000
96146551	175747	10	9	16	36	100	60.375000	241.500000
96146551	175747	13	12	29	39	120	60.375000	241.500000
96146551	175747	14	13	30	39	120	60.375000	241.500000
96146551	175747	15	14	33	27	120	60.375000	241.500000
96322298	175746	3	2	80	86	120	60.500000	242.000000
96322298	175746	3	2	80	89	120	60.500000	242.000000
96322298	175746	5	4	0	43	120	60.500000	242.000000
96322298	175746	5	4	0	74	120	60.500000	242.000000
96322298	175746	5	4	0	86	120	60.500000	242.000000
96322298	175746	10	9	16	36	100	60.500000	242.000000
96322298	175746	10	9	16	46	80	60.500000	242.000000
96322298	175746	13	12	29	39	120	60.500000	242.000000
96322298	175746	14	13	30	39	120	60.500000	242.000000
96322298	175746	15	14	33	27	120	60.500000	242.000000
96498044	175747	10	9	16	36	100	60.625000	242.500000
96498044	175747	13	12	29	51	120	60.625000	242.500000
96498044	175747	14	13	30	51	120	60.625000	242.500000
96498044	175747	15	14	33	39	120	60.625000	242.500000
96673791	175746	3	2	80	82	120	60.750000	243.000000
96673791	175746	3	2	80	86	120	60.750000	243.000000
96673791	175746	5	4	0	50	120	60.750000	243.000000
96673791	175746	5	4	0	70	120	60.750000	243.000000
96673791	175746	5	4	0	82	120	60.750000	243.000000
96673791	175746	10	9	16	38	100	60.750000	243.000000
96673791	175746	10	9	16	46	80	60.750000	243.000000
96673791	175746	13	12	29	39	120	60.750000	243.000000
96673791	175746	14	13	30	39	120	60.750000	243.000000
96673791	175746	15	14	33	27	120	60.750000	243.000000
96849537	175747	10	9	16	36	100	60.875000	243.500000
96849537	175747	13	12	29	51	120	60.875000	243.500000
96849537	175747	14	13	30	51	120	60.875000	243.500000
96849537	175747	15	14	33	39	120	60.875000	243.500000
97025284	175746	3	2	80	84	120	61.000000	244.000000
97025284	175746	3	2	80	87	120	61.000000	244.000000
97025284	175746	5	4	0	48	120	61.000000	244.000000
97025284	175746	5	4	0	72	120	61.000000	244.000000
97025284	175746	5	4	0	84	120	61.000000	244.000000
97025284	175746	10	9	16	36	100	61.000000	244.000000
97025284	175746	10	9	16	46	80	61.000000	244.000000
97025284	175746	13	12	29	39	120	61.000000	244.000000
97025284	175746	14	13	30	39	120	61.000000	244.000000
97025284	175746	15	14	33	27	120	61.000000	244.000000
97201030	175747	5	4	0	72	120	61.125000	244.500000
97201030	175747	5	4	0	84	120	61.125000	244.500000
97201030	175747	10	9	16	36	100	61.125000	244.500000
97201030	175747	13	12	29	51	120	61.125000	244.500000
97201030	175747	14	13	30	51	120	61.125000	244.500000
97201030	175747	15	14	33	39	120	61.125000	244.500000
97376777	175746	3	2	80	84	120	61.250000	245.000000
97376777	175746	3	2	80	87	120	61.250000	245.000000
97376777	175746	5	4	0	50	120	61.250000	245.000000
97376777	175746	5	4	0	72	120	61.250000	245.000000
97376777	175746	5	4	0	84	120	61.250000	245.000000
97376777	175746	10	9	16	38	100	61.250000	245.000000
97376777	175746	10	9	16	46	80	61.250000	245.000000
97376777	175746	13	12	29	39	120	61.250000	245.000000
97376777	175746	14	13	30	39	120	61.250000	245.000000
97376777	175746	15	14	33	27	120	61.250000	245.000000
97552523	175747	3	2	80	86	120	61.375000	245.500000
97552523	175747	3	2	80	89	120	61.375000	245.500000
97552523	175747	5	4	0	74	120	61.375000	245.500000
97552523	175747	5	4	0	86	120	61.375000	245.500000
97552523	175747	10	9	16	36	100	61.375000	245.500000
97552523	175747	13	12	29	51	120	61.375000	245.500000
97552523	175747	14	13	30	51	120	61.375000	245.500000
97552523	175747	15	14	33	39	120	61.375000	245.500000
97728270	175746	3	2	80	84	120	61.500000	246.000000
97728270	175746	3	2	80	87	120	61.500000	246.000000
97728270	175746	5	4	0	43	120	61.500000	246.000000
97728270	175746	5	4	0	72	120	61.500000	246.000000
97728270	175746	5	4	0	84	120	61.500000	246.000000
97728270	175746	10	9	16	36	100	61.500000	246.000000
97728270	175746	10	9	16	46	80	61.500000	246.000000
97728270	175746	13	12	29	39	120	61.500000	246.000000
97728270	175746	14	13	30	39	120	61.500000	246.000000
97728270	175746	15	14	33	27	120	61.500000	246.000000
97904016	175747	10	9	16	36	100	61.625000	246.500000
97904016	175747	13	12	29	51	120	61.625000	246.500000
97904016	175747	14	13	30	51	120	61.625000	246.500000
97904016	175747	15	14	33	39	120	61.625000	246.500000
98079763	175746	3	2	80	82	120	61.750000	247.000000
98079763	175746	3	2	80	86	120	61.750000	247.000000
98079763	175746	5	4	0	50	120	61.750000	247.000000
98079763	175746	5	4	0	70	120	61.750000	247.000000
98079763	175746	5	4	0	82	120	61.750000	247.000000
98079763	175746	10	9	16	38	100	61.750000	247.000000
98079763	175746	10	9	16	46	80	61.750000	247.000000
98079763	175746	13	12	29	39	120	61.750000	247.000000
98079763	175746	14	13	30	39	120	61.750000	247.000000
98079763	175746	15	14	33	27	120	61.750000	247.000000
98255509	175747	10	9	16	36	100	61.875000	247.500000
98255509	175747	13	12	29	51	120	61.875000	247.500000
98255509	175747	14	13	30	51	120	61.875000	247.500000
98255509	175747	15	14	33	39	120	61.875000	247.500000
98431256	1405972	2	1	48	41	100	62.000000	248.000000
98431256	175746	3	2	80	86	120	62.000000	248.000000
98431256	175746	3	2	80	89	120	62.000000	248.000000
98431256	175746	5	4	0	50	120	62.000000	248.000000
98431256	175746	5	4	0	74	120	62.000000	248.000000
98431256	175746	5	4	0	86	120	62.000000	248.000000
98431256	175746	10	9	16	36	100	62.000000	248.000000
98431256	175746	10	9	16	46	80	62.000000	248.000000
98431256	175746	13	12	29	41	120	62.000000	248.000000
98431256	175746	14	13	30	41	120	62.000000	248.000000
98431256	175746	15	14	33	29	120	62.000000	248.000000
98607002	175747	10	9	16	36	100	62.125000	248.500000
98607002	175747	13	12	29	41	120	62.125000	248.500000
98607002	175747	14	13	30	41	120	62.125000	248.500000
98607002	175747	15	14	33	29	120	62.125000	248.500000
98782749	175746	3	2	80	86	120	62.250000	249.000000
98782749	175746	3	2	80	89	120	62.250000	249.000000
98782749	175746	5	4	0	53	120	62.250000	249.000000
98782749	175746	5	4	0	74	120	62.250000	249.000000
98782749	175746	5	4	0	86	120	62.250000	249.000000
98782749	175746	10	9	16	38	100	62.250000	249.000000
98782749	175746	10	9	16	46	80	62.250000	249.000000
98782749	175746	13	12	29	53	120	62.250000	249.000000
98782749	175746	14	13	30	53	120	62.250000	249.000000
98782749	175746	15	14	33	41	120	62.250000	249.000000
98958495	175747	3	2	80	87	120	62.375000	249.500000
98958495	175747	3	2	80	91	120	62.375000	249.500000
98958495	175747	5	4	0	75	120	62.375000	249.500000
98958495	175747	5	4	0	87	120	62.375000	249.500000
98958495	175747	10	9	16	36	100	62.375000	249.500000
98958495	175747	13	12	29	41	120	62.375000	249.500000
98958495	175747	14	13	30	41	120	62.375000	249.500000
98958495	175747	15	14	33	29	120	62.375000	249.500000
99134242	175746	3	2	80	89	120	62.500000	250.000000
99134242	175746	3	2	80	94	120	62.500000	250.000000
99134242	175746	5	4	0	45	120	62.500000	250.000000
99134242	175746	5	4	0	77	120	62.500000	250.000000
99134242	175746	5	4	0	89	120	62.500000	250.000000
99134242	175746	10	9	16	36	100	62.500000	250.000000
99134242	175746	10	9	16	46	80	62.500000	250.000000
99134242	175746	13	12	29	41	120	62.500000	250.000000
99134242	175746	14	13	30	41	120	62.500000	250.000000
99134242	175746	15	14	33	29	120	62.500000	250.000000
99309988	175747	10	9	16	36	100	62.625000	250.500000
99309988	175747	13	12	29	53	120	62.625000	250.500000
99309988	175747	14	13	30	53	120	62.625000	250.500000
99309988	175747	15	14	33	41	120	62.625000	250.500000
99485735	175746	3	2	80	94	120	62.750000	251.000000
99485735	175746	5	4	0	53	120	62.750000	251.000000
99485735	175746	5	4	0	82	120	62.750000	251.000000
99485735	175746	5	4	0	94	120	62.750000	251.000000
99485735	175746	10	9	16	38	100	62.750000	251.000000
99485735	175746	10	9	16	46	80	62.750000	251.000000
99485735	175746	13	12	29	41	120	62.750000	251.000000
99485735	175746	14	13	30	41	120	62.750000	251.000000
99485735	175746	15	14	33	29	120	62.750000	251.000000
99661481	175747	10	9	16	36	100	62.875000	251.500000
99661481	175747	13	12	29	53	120	62.875000	251.500000
99661481	175747	14	13	30	53	120	62.875000	251.500000
99661481	175747	15	14	33	41	120	62.875000	251.500000
99837228	1405972	2	1	48	43	100	63.000000	252.000000
99837228	702986	3	2	80	82	120	63.000000	252.000000
99837228	702986	3	2	80	91	120	63.000000	252.000000
99837228	175746	5	4	0	50	120	63.000000	252.000000
99837228	702986	5	4	0	79	120	63.000000	252.000000
99837228	702986	5	4	0	91	120	63.000000	252.000000
99837228	175746	10	9	16	36	100	63.000000	252.000000
99837228	175746	10	9	16	46	80	63.000000	252.000000
99837228	175746	13	12	29	43	120	63.000000	252.000000
99837228	175746	14	13	30	43	120	63.000000	252.000000
99837228	175746	15	14	33	31	120	63.000000	252.000000
100012974	175747	10	9	16	36	100	63.125000	252.500000
100012974	175747	13	12	29	55	120	63.125000	252.500000
100012974	175747	14	13	30	55	120	63.125000	252.500000
100012974	175747	15	14	33	43	120	63.125000	252.500000
100188721	175746	5	4	0	53	120	63.250000	253.000000
100188721	175746	10	9	16	38	100	63.250000	253.000000
100188721	175746	10	9	16	46	80	63.250000	253.000000
100188721	175746	13	12	29	43	120	63.250000	253.000000
100188721	175746	14	13	30	43	120	63.250000	253.000000
100188721	175746	15	14	33	31	120	63.250000	253.000000
100364467	175747	10	9	16	36	100	63.375000	253.500000
100364467	175747	13	12	29	55	120	63.375000	253.500000
100364467	175747	14	13	30	55	120	63.375000	253.500000
100364467	175747	15	14	33	43	120	63.375000	253.500000
100540214	702986	3	2	80	82	120	63.500000	254.000000
100540214	702986	3	2	80	89	120	63.500000	254.000000
100540214	175746	5	4	0	50	120	63.500000	254.000000
100540214	702986	5	4	0	77	120	63.500000	254.000000
100540214	702986	5	4	0	89	120	63.500000	254.000000
100540214	175746	10	9	16	36	100	63.500000	254.000000
100540214	175746	10	9	16	46	80	63.500000	254.000000
100540214	175746	13	12	29	43	120	63.500000	254.000000
100540214	175746	14	13	30	43	120	63.500000	254.000000
100540214	175746	15	14	33	31	120	63.500000	254.000000
100715960	175747	10	9	16	36	100	63.625000	254.500000
100715960	175747	13	12	29	55	120	63.625000	254.500000
100715960	175747	14	13	30	55	120	63.625000	254.500000
100715960	175747	15	14	33	43	120	63.625000	254.500000
100891707	175746	5	4	0	53	120	63.750000	255.000000
100891707	175746	10	9	16	38	100	63.750000	255.000000
100891707	175746	10	9	16	46	80	63.750000	255.000000
100891707	175746	13	12	29	43	120	63.750000	255.000000
100891707	175746	14	13	30	43	120	63.750000	255.000000
100891707	175746	15	14	33	31	120	63.750000	255.000000
101067453	175747	10	9	16	36	100	63.875000	255.500000
101067453	175747	13	12	29	55	120	63.875000	255.500000
101067453	175747	14	13	30	55	120	63.875000	255.500000
101067453	175747	15	14	33	43	120	63.875000	255.500000
101243200	2811944	2	1	48	36	100	64.000000	256.000000
101243200	2811944	2	1	48	48	100	64.000000	256.000000
101243200	2811944	2	1	48	58	100	64.000000	256.000000
101243200	2811944	2	1	48	70	100	64.000000	256.000000
101243200	2811944	2	1	48	74	100	64.000000	256.000000
101243200	2811944	2	1	48	77	100	64.000000	256.000000
101243200	2811944	2	1	48	82	100	64.000000	256.000000
101243200	175746	3	2	80	70	120	64.000000	256.000000
101243200	175746	3	2	80	74	120	64.000000	256.000000
101243200	175746	5	4	0	46	120	64.000000	256.000000
101243200	175746	5	4	0	70	120	64.000000	256.000000
101243200	175746	5	4	0	82	120	64.000000	256.000000
101243200	175746	10	9	16	36	100	64.000000	256.000000
101243200	175746	10	9	16	46	80	64.000000	256.000000
101243200	175746	10	9	16	49	100	64.000000	256.000000
101243200	175746	13	12	29	36	120	64.000000	256.000000
101243200	175746	14	13	30	36	120	64.000000	256.000000
101243200	175746	15	14	33	24	120	64.000000	256.000000
101418946	175747	10	9	16	36	100	64.125000	256.500000
101418946	175747	13	12	29	36	120	64.125000	256.500000
101418946	175747	14	13	30	36	120	64.125000	256.500000
101418946	175747	15	14	33	24	120	64.125000	256.500000
101594693	175746	3	2	80	70	120	64.250000	257.000000
101594693	175746	3	2	80	74	120	64.250000	257.000000
101594693	175746	5	4	0	50	120	64.250000	257.000000
101594693	175746	5	4	0	70	120	64.250000	257.000000
101594693	175746	5	4	0	82	120	64.250000	257.000000
101594693	175746	10	9	16	38	100	64.250000	257.000000
101594693	175746	10	9	16	46	80	64.250000	257.000000
101594693	175746	13	12	29	48	120	64.250000	257.000000
101594693	175746	14	13	30	48	120	64.250000	257.000000
101594693	175746	15	14	33	36	120	64.250000	257.000000
101770439	175747	3	2	80	72	120	64.375000	257.500000
101770439	175747	3	2	80	75	120	64.375000	257.500000
101770439	175747	5	4	0	72	120	64.375000	257.500000
101770439	175747	5	4	0	84	120	64.375000	257.500000
101770439	175747	10	9	16	36	100	64.375000	257.500000
101770439	175747	13	12	29	36	120	64.375000	257.500000
101770439	175747	14	13	30	36	120	64.375000	257.500000
101770439	175747	15	14	33	24	120	64.375000	257.500000
101946186	175746	3	2	80	74	120	64.500000	258.000000
101946186	175746	3	2	80	77	120	64.500000	258.000000
101946186	175746	5	4	0	43	120	64.500000	258.000000
101946186	175746	5	4	0	74	120	64.500000	258.000000
101946186	175746	5	4	0	86	120	64.500000	258.000000
101946186	175746	10	9	16	36	100	64.500000	258.000000
101946186	175746	10	9	16	46	80	64.500000	258.000000
101946186	175746	13	12	29	36	120	64.500000	258.000000
101946186	175746	14	13	30	36	120	64.500000	258.000000
101946186	175746	15	14	33	24	120	64.500000	258.000000
102121932	175747	10	9	16	36	100	64.625000	258.500000
102121932	175747	13	12	29	48	120	64.625000	258.500000
102121932	175747	14	13	30	48	120	64.625000	258.500000
102121932	175747	15	14	33	36	120	64.625000	258.500000
102297679	175746	3	2	80	70	120	64.750000	259.000000
102297679	175746	3	2	80	74	120	64.750000	259.000000
102297679	175746	5	4	0	50	120	64.750000	259.000000
102297679	175746	5	4	0	70	120	64.750000	259.000000
102297679	175746	5	4	0	82	120	64.750000	259.000000
102297679	175746	10	9	16	38	100	64.750000	259.000000
102297679	175746	10	9	16	46	80	64.750000	259.000000
102297679	175746	13	12	29	36	120	64.750000	259.000000
102297679	175746	14	13	30	36	120	64.750000	259.000000
102297679	175746	15	14	33	24	120	64.750000	259.000000
102473425	175747	10	9	16	36	100	64.875000	259.500000
102473425	175747	13	12	29	48	120	64.875000	259.500000
102473425	175747	14	13	30	48	120	64.875000	259.500000
102473425	175747	15	14	33	36	120	64.875000	259.500000
102649172	175746	3	2	80	72	120	65.000000	260.000000
102649172	175746	3	2	80	75	120	65.000000	260.000000
102649172	175746	5	4	0	48	120	65.000000	260.000000
102649172	175746	5	4	0	72	120	65.000000	260.000000
102649172	175746	5	4	0	84	120	65.000000	260.000000
102649172	175746	10	9	16	36	100	65.000000	260.000000
102649172	175746	10	9	16	46	80	65.000000	260.000000
102649172	175746	13	12	29	36	120	65.000000	260.000000
102649172	175746	14	13	30	36	120	65.000000	260.000000
102649172	175746	15	14	33	24	120	65.000000	260.000000
102824918	175747	10	9	16	36	100	65.125000	260.500000
102824918	175747	13	12	29	48	120	65.125000	260.500000
102824918	175747	14	13	30	48	120	65.125000	260.500000
102824918	175747	15	14	33	36	120	65.125000	260.500000
103000665	175746	3	2	80	72	120	65.250000	261.000000
103000665	175746	3	2	80	75	120	65.250000	261.000000
103000665	175746	5	4	0	50	120	65.250000	261.000000
103000665	175746	5	4	0	72	120	65.250000	261.000000
103000665	175746	5	4	0	84	120	65.250000	261.000000
103000665	175746	10	9	16	38	100	65.250000	261.000000
103000665	175746	10	9	16	46	80	65.250000	261.000000
103000665	175746	13	12	29	36	120	65.250000	261.000000
103000665	175746	14	13	30	36	120	65.250000	261.000000
103000665	175746	15	14	33	24	120	65.250000	261.000000
103176411	175747	3	2	80	74	120	65.375000	261.500000
103176411	175747	3	2	80	77	120	65.375000	261.500000
103176411	175747	5	4	0	74	120	65.375000	261.500000
103176411	175747	5	4	0	86	120	65.375000	261.500000
103176411	175747	10	9	16	36	100	65.375000	261.500000
103176411	175747	13	12	29	48	120	65.375000	261.500000
103176411	175747	14	13	30	48	120	65.375000	261.500000
103176411	175747	15	14	33	36	120	65.375000	261.500000
103352158	175746	3	2	80	72	120	65.500000	262.000000
103352158	175746	3	2	80	75	120	65.500000	262.000000
103352158	175746	5	4	0	43	120	65.500000	262.000000
103352158	175746	5	4	0	72	120	65.500000	262.000000
103352158	175746	5	4	0	84	120	65.500000	262.000000
103352158	175746	10	9	16	36	100	65.500000	262.000000
103352158	175746	10	9	16	46	80	65.500000	262.000000
103352158	175746	13	12	29	36	120	65.500000	262.000000
103352158	175746	14	13	30	36	120	65.500000	262.000000
103352158	175746	15	14	33	24	120	65.500000	262.000000
103527904	175747	10	9	16	36	100	65.625000	262.500000
103527904	175747	13	12	29	48	120	65.625000	262.500000
103527904	175747	14	13	30	48	120	65.625000	262.500000
103527904	175747	15	14	33	36	120	65.625000	262.500000
103703651	175746	3	2	80	70	120	65.750000	263.000000
103703651	175746	3	2	80	74	120	65.750000	263.000000
103703651	175746	5	4	0	50	120	65.750000	263.000000
103703651	175746	5	4	0	70	120	65.750000	263.000000
103703651	175746	5	4	0	82	120	65.750000	263.000000
103703651	175746	10	9	16	38	100	65.750000	263.000000
103703651	175746	10	9	16	46	80	65.750000	263.000000
103703651	175746	13	12	29	36	120	65.750000	263.000000
103703651	175746	14	13	30	36	120	65.750000	263.000000
103703651	175746	15	14	33	24	120	65.750000	263.000000
103879397	175747	10	9	16	36	100	65.875000	263.500000
103879397	175747	13	12	29	48	120	65.875000	263.500000
103879397	175747	14	13	30	48	120	65.875000	263.500000
103879397	175747	15	14	33	36	120	65.875000	263.500000
104055144	2811944	2	1	48	38	100	66.000000	264.000000
104055144	2811944	2	1	48	50	100	66.000000	264.000000
104055144	2811944	2	1	48	60	100	66.000000	264.000000
104055144	2811944	2	1	48	72	100	66.000000	264.000000
104055144	2811944	2	1	48	75	100	66.000000	264.000000
104055144	2811944	2	1	48	79	100	66.000000	264.000000
104055144	2811944	2	1	48	84	100	66.000000	264.000000
104055144	175746	3	2	80	74	120	66.000000	264.000000
104055144	175746	3	2	80	77	120	66.000000	264.000000
104055144	175746	5	4	0	50	120	66.000000	264.000000
104055144	175746	5	4	0	74	120	66.000000	264.000000
104055144	175746	5	4	0	86	120	66.000000	264.000000
104055144	175746	10	9	16	36	100	66.000000	264.000000
104055144	175746	10	9	16	46	80	66.000000	264.000000
104055144	175746	13	12	29	38	120	66.000000	264.000000
104055144	175746	14	13	30	38	120	66.000000	264.000000
104055144	175746	15	14	33	26	120	66.000000	264.000000
104230890	175747	10	9	16	36	100	66.125000	264.500000
104230890	175747	13	12	29	38	120	66.125000	264.500000
104230890	175747	14	13	30	38	120	66.125000	264.500000
104230890	175747	15	14	33	26	120	66.125000	264.500000
104406637	175746	3	2	80	74	120	66.250000	265.000000
104406637	175746	3	2	80	77	120	66.250000	265.000000
104406637	175746	5	4	0	53	120	66.250000	265.000000
104406637	175746	5	4	0	74	120	66.250000	265.000000
104406637	175746	5	4	0	86	120	66.250000	265.000000
104406637	175746	10	9	16	38	100	66.250000	265.000000
104406637	175746	10	9	16	46	80	66.250000	265.000000
104406637	175746	13	12	29	50	120	66.250000	265.000000
104406637	175746	14	13	30	50	120	66.250000	265.000000
104406637	175746	15	14	33	38	120	66.250000	265.000000
104582383	175747	3	2	80	75	120	66.375000	265.500000
104582383	175747	3	2	80	79	120	66.375000	265.500000
104582383	175747	5	4	0	75	120	66.375000	265.500000
104582383	175747	5	4	0	87	120	66.375000	265.500000
104582383	175747	10	9	16	36	100	66.375000	265.500000
104582383	175747	13	12	29	38	120	66.375000	265.500000
104582383	175747	14	13	30	38	120	66.375000	265.500000
104582383	175747	15	14	33	26	120	66.375000	265.500000
104758130	175746	3	2	80	77	120	66.500000	266.000000
104758130	175746	3	2	80	82	120	66.500000	266.000000
104758130	175746	5	4	0	45	120	66.500000	266.000000
104758130	175746	5	4	0	77	120	66.500000	266.000000
104758130	175746	5	4	0	89	120	66.500000	266.000000
104758130	175746	10	9	16	36	100	66.500000	266.000000
104758130	175746	10	9	16	46	80	66.500000	266.000000
104758130	175746	13	12	29	38	120	66.500000	266.000000
104758130	175746	14	13	30	38	120	66.500000	266.000000
104758130	175746	15	14	33	26	120	66.500000	266.000000
104933876	175747	10	9	16	36	100	66.625000	266.500000
104933876	175747	13	12	29	50	120	66.625000	266.500000
104933876	175747	14	13	30	50	120	66.625000	266.500000
104933876	175747	15	14	33	38	120	66.625000	266.500000
105109623	175746	3	2	80	82	120	66.750000	267.000000
105109623	175746	5	4	0	53	120	66.750000	267.000000
105109623	175746	5	4	0	82	120	66.750000	267.000000
105109623	175746	5	4	0	94	120	66.750000	267.000000
105109623	175746	10	9	16	38	100	66.750000	267.000000
105109623	175746	10	9	16	46	80	66.750000	267.000000
105109623	175746	13	12	29	38	120	66.750000	267.000000
105109623	175746	14	13	30	38	120	66.750000	267.000000
105109623	175746	15	14	33	26	120	66.750000	267.000000
105285369	175747	10	9	16	36	100	66.875000	267.500000
105285369	175747	13	12	29	50	120	66.875000	267.500000
105285369	175747	14	13	30	50	120	66.875000	267.500000
105285369	175747	15	14	33	38	120	66.875000	267.500000
105461116	702986	3	2	80	79	120	67.000000	268.000000
105461116	702986	3	2	80	82	120	67.000000	268.000000
105461116	175746	5	4	0	50	120	67.000000	268.000000
105461116	702986	5	4	0	79	120	67.000000	268.000000
105461116	702986	5	4	0	91	120	67.000000	268.000000
105461116	175746	10	9	16	36	100	67.000000	268.000000
105461116	175746	10	9	16	46	80	67.000000	268.000000
105461116	175746	13	12	29	38	120	67.000000	268.000000
105461116	175746	14	13	30	38	120	67.000000	268.000000
105461116	175746	15	14	33	26	120	67.000000	268.000000
105636862	175747	10	9	16	36	100	67.125000	268.500000
105636862	175747	13	12	29	38	120	67.125000	268.500000
105636862	175747	14	13	30	38	120	67.125000	268.500000
105636862	175747	15	14	33	26	120	67.125000	268.500000
105812609	175746	5	4	0	53	120	67.250000	269.000000
105812609	175746	10	9	16	38	100	67.250000	269.000000
105812609	175746	10	9	16	46	80	67.250000	269.000000
105812609	175746	13	12	29	50	120	67.250000	269.000000
105812609	175746	14	13	30	50	120	67.250000	269.000000
105812609	175746	15	14	33	38	120	67.250000	269.000000
105988355	175747	10	9	16	36	100	67.375000	269.500000
105988355	175747	13	12	29	38	120	67.375000	269.500000
105988355	175747	14	13	30	38	120	67.375000	269.500000
105988355	175747	15	14	33	26	120	67.375000	269.500000
106164102	702986	3	2	80	77	120	67.500000	270.000000
106164102	702986	3	2	80	84	120	67.500000	270.000000
106164102	175746	5	4	0	48	120	67.500000	270.000000
106164102	702986	5	4	0	77	120	67.500000	270.000000
106164102	702986	5	4	0	89	120	67.500000	270.000000
106164102	175746	10	9	16	36	100	67.500000	270.000000
106164102	175746	10	9	16	46	80	67.500000	270.000000
106164102	175746	13	12	29	38	120	67.500000	270.000000
106164102	175746	14	13	30	38	120	67.500000	270.000000
106164102	175746	15	14	33	26	120	67.500000	270.000000
106339848	175747	10	9	16	36	100	67.625000	270.500000
106339848	175747	13	12	29	50	120	67.625000	270.500000
106339848	175747	14	13	30	50	120	67.625000	270.500000
106339848	175747	15	14	33	38	120	67.625000	270.500000
106515595	175746	5	4	0	53	120	67.750000	271.000000
106515595	175746	10	9	16	38	100	67.750000	271.000000
106515595	175746	10	9	16	46	80	67.750000	271.000000
106515595	175746	13	12	29	38	120	67.750000	271.000000
106515595	175746	14	13	30	38	120	67.750000	271.000000
106515595	175746	15	14	33	26	120	67.750000	271.000000
106691341	175747	10	9	16	36	100	67.875000	271.500000
106691341	175747	13	12	29	50	120	67.875000	271.500000
106691341	175747	14	13	30	50	120	67.875000	271.500000
106691341	175747	15	14	33	38	120	67.875000	271.500000
106867088	2811944	2	1	48	39	100	68.000000	272.000000
106867088	2811944	2	1	48	51	100	68.000000	272.000000
106867088	2811944	2	1	48	55	100	68.000000	272.000000
106867088	2811944	2	1	48	62	100	68.000000	272.000000
106867088	2811944	2	1	48	74	100	68.000000	272.000000
106867088	2811944	2	1	48	77	100	68.000000	272.000000
106867088	2811944	2	1	48	82	100	68.000000	272.000000
106867088	2811944	2	1	48	86	100	68.000000	272.000000
106867088	175746	3	2	80	82	120	68.000000	272.000000
106867088	175746	3	2	80	86	120	68.000000	272.000000
106867088	175746	5	4	0	46	120	68.000000	272.000000
106867088	175746	5	4	0	70	120	68.000000	272.000000
106867088	175746	5	4	0	82	120	68.000000	272.000000
106867088	175746	10	9	16	36	100	68.000000	272.000000
106867088	175746	10	9	16	46	80	68.000000	272.000000
106867088	175746	13	12	29	39	120	68.000000	272.000000
106867088	175746	14	13	30	39	120	68.000000	272.000000
106867088	175746	15	14	33	27	120	68.000000	272.000000
107042834	175747	5	4	0	70	120	68.125000	272.500000
107042834	175747	5	4	0	82	120	68.125000	272.500000
107042834	175747	10	9	16	36	100	68.125000	272.500000
107042834	175747	13	12	29	39	120	68.125000	272.500000
107042834	175747	14	13	30	39	120	68.125000	272.500000
107042834	175747	15	14	33	27	120	68.125000	272.500000
107218581	175746	3	2	80	82	120	68.250000	273.000000
107218581	175746	3	2	80	86	120	68.250000	273.000000
107218581	175746	5	4	0	50	120	68.250000	273.000000
107218581	175746	5	4	0	70	120	68.250000	273.000000
107218581	175746	5	4	0	82	120	68.250000	273.000000
107218581	175746	10	9	16	38	100	68.250000	273.000000
107218581	175746	10	9	16	46	80	68.250000	273.000000
107218581	175746	13	12	29	51	120	68.250000	273.000000
107218581	175746	14	13	30	51	120	68.250000	273.000000
107218581	175746	15	14	33	39	120	68.250000	273.000000
107394327	175747	3	2	80	84	120	68.375000	273.500000
107394327	175747	3	2	80	87	120	68.375000	273.500000
107394327	175747	5	4	0	72	120	68.375000	273.500000
107394327	175747	5	4	0	84	120	68.375000	273.500000
107394327	175747	10	9	16	36	100	68.375000	273.500000
107394327	175747	13	12	29	39	120	68.375000	273.500000
107394327	175747	14	13	30	39	120	68.375000	273.500000
107394327	175747	15	14	33	27	120	68.375000	273.500000
107570074	175746	3	2	80	86	120	68.500000	274.000000
107570074	175746	3	2	80	89	120	68.500000	274.000000
107570074	175746	5	4	0	43	120	68.500000	274.000000
107570074	175746	5	4	0	74	120	68.500000	274.000000
107570074	175746	5	4	0	86	120	68.500000	274.000000
107570074	175746	10	9	16	36	100	68.500000	274.000000
107570074	175746	10	9	16	46	80	68.500000	274.000000
107570074	175746	13	12	29	39	120	68.500000	274.000000
107570074	175746	14	13	30	39	120	68.500000	274.000000
107570074	175746	15	14	33	27	120	68.500000	274.000000
107745820	175747	10	9	16	36	100	68.625000	274.500000
107745820	175747	13	12	29	51	120	68.625000	274.500000
107745820	175747	14	13	30	51	120	68.625000	274.500000
107745820	175747	15	14	33	39	120	68.625000	274.500000
107921567	175746	3	2	80	82	120	68.750000	275.000000
107921567	175746	3	2	80	86	120	68.750000	275.000000
107921567	175746	5	4	0	50	120	68.750000	275.000000
107921567	175746	5	4	0	70	120	68.750000	275.000000
107921567	175746	5	4	0	82	120	68.750000	275.000000
107921567	175746	10	9	16	38	100	68.750000	275.000000
107921567	175746	10	9	16	46	80	68.750000	275.000000
107921567	175746	13	12	29	39	120	68.750000	275.000000
107921567	175746	14	13	30	39	120	68.750000	275.000000
107921567	175746	15	14	33	27	120	68.750000	275.000000
108097313	175747	10	9	16	36	100	68.875000	275.500000
108097313	175747	13	12	29	51	120	68.875000	275.500000
108097313	175747	14	13	30	51	120	68.875000	275.500000
108097313	175747	15	14	33	39	120	68.875000	275.500000
108273060	175746	3	2	80	84	120	69.000000	276.000000
108273060	175746	3	2	80	87	120	69.000000	276.000000
108273060	175746	5	4	0	48	120	69.000000	276.000000
108273060	175746	5	4	0	72	120	69.000000	276.000000
108273060	175746	5	4	0	84	120	69.000000	276.000000
108273060	175746	10	9	16	36	100	69.000000	276.000000
108273060	175746	10	9	16	46	80	69.000000	276.000000
108273060	175746	13	12	29	39	120	69.000000	276.000000
108273060	175746	14	13	30	39	120	69.000000	276.000000
108273060	175746	15	14	33	27	120	69.000000	276.000000
108448806	175747	5	4	0	72	120	69.125000	276.500000
108448806	175747	5	4	0	84	120	69.125000	276.500000
108448806	175747	10	9	16	36	100	69.125000	276.500000
108448806	175747	13	12	29	51	120	69.125000	276.500000
108448806	175747	14	13	30	51	120	69.125000	276.500000
108448806	175747	15	14	33	39	120	69.125000	276.500000
108624553	175746	3	2	80	84	120	69.250000	277.000000
108624553	175746	3	2	80	87	120	69.250000	277.000000
108624553	175746	5	4	0	50	120	69.250000	277.000000
108624553	175746	5	4	0	72	120	69.250000	277.000000
108624553	175746	5	4	0	84	120	69.250000	277.000000
108624553	175746	10	9	16	38	100	69.250000	277.000000
108624553	175746	10	9	16	46	80	69.250000	277.000000
108624553	175746	13	12	29	39	120	69.250000	277.000000
108624553	175746	14	13	30	39	120	69.250000	277.000000
108624553	175746	15	14	33	27	120	69.250000	277.000000
108800299	175747	3	2	80	86	120	69.375000	277.500000
108800299	175747	3	2	80	89	120	69.375000	277.500000
108800299	175747	5	4	0	74	120	69.375000	277.500000
108800299	175747	5	4	0	86	120	69.375000	277.500000
108800299	175747	10	9	16	36	100	69.375000	277.500000
108800299	175747	13	12	29	51	120	69.375000	277.500000
108800299	175747	14	13	30	51	120	69.375000	277.500000
108800299	175747	15	14	33	39	120	69.375000	277.500000
108976046	175746	3	2	80	84	120	69.500000	278.000000
108976046	175746	3	2	80	87	120	69.500000	278.000000
108976046	175746	5	4	0	43	120	69.500000	278.000000
108976046	175746	5	4	0	72	120	69.500000	278.000000
108976046	175746	5	4	0	84	120	69.500000	278.000000
108976046	175746	10	9	16	36	100	69.500000	278.000000
108976046	175746	10	9	16	46	80	69.500000	278.000000
108976046	175746	13	12	29	39	120	69.500000	278.000000
108976046	175746	14	13	30	39	120	69.500000	278.000000
108976046	175746	15	14	33	27	120	69.500000	278.000000
109151792	175747	10	9	16	36	100	69.625000	278.500000
109151792	175747	13	12	29	51	120	69.625000	278.500000
109151792	175747	14	13	30	51	120	69.625000	278.500000
109151792	175747	15	14	33	39	120	69.625000	278.500000
109327539	175746	3	2	80	82	120	69.750000	279.000000
109327539	175746	3	2	80	86	120	69.750000	279.000000
109327539	175746	5	4	0	50	120	69.750000	279.000000
109327539	175746	5	4	0	70	120	69.750000	279.000000
109327539	175746	5	4	0	82	120	69.750000	279.000000
109327539	175746	10	9	16	38	100	69.750000	279.000000
109327539	175746	10	9	16	46	80	69.750000	279.000000
109327539	175746	13	12	29	39	120	69.750000	279.000000
109327539	175746	14	13	30	39	120	69.750000	279.000000
109327539	175746	15	14	33	27	120	69.750000	279.000000
109503285	175747	10	9	16	36	100	69.875000	279.500000
109503285	175747	13	12	29	51	120	69.875000	279.500000
109503285	175747	14	13	30	51	120	69.875000	279.500000
109503285	175747	15	14	33	39	120	69.875000	279.500000
109679032	1405972	2	1	48	41	100	70.000000	280.000000
109679032	1405972	2	1	48	53	100	70.000000	280.000000
109679032	1405972	2	1	48	57	100	70.000000	280.000000
109679032	1405972	2	1	48	63	100	70.000000	280.000000
109679032	1405972	2	1	48	75	100	70.000000	280.000000
109679032	1405972	2	1	48	79	100	70.000000	280.000000
109679032	1405972	2	1	48	84	100	70.000000	280.000000
109679032	1405972	2	1	48	87	100	70.000000	280.000000
109679032	175746	3	2	80	86	120	70.000000	280.000000
109679032	175746	3	2	80	89	120	70.000000	280.000000
109679032	175746	5	4	0	50	120	70.000000	280.000000
109679032	175746	5	4	0	74	120	70.000000	280.000000
109679032	175746	5	4	0	86	120	70.000000	280.000000
109679032	175746	10	9	16	36	100	70.000000	280.000000
109679032	175746	10	9	16	46	80	70.000000	280.000000
109679032	175746	13	12	29	41	120	70.000000	280.000000
109679032	175746	14	13	30	41	120	70.000000	280.000000
109679032	175746	15	14	33	29	120	70.000000	280.000000
109854778	175747	10	9	16	36	100	70.125000	280.500000
109854778	175747	13	12	29	41	120	70.125000	280.500000
109854778	175747	14	13	30	41	120	70.125000	280.500000
109854778	175747	15	14	33	29	120	70.125000	280.500000
110030525	175746	3	2	80	86	120	70.250000	281.000000
110030525	175746	3	2	80	89	120	70.250000	281.000000
110030525	175746	5	4	0	53	120	70.250000	281.000000
110030525	175746	5	4	0	74	120	70.250000	281.000000
110030525	175746	5	4	0	86	120	70.250000	281.000000
110030525	175746	10	9	16	38	100	70.250000	281.000000
110030525	175746	10	9	16	46	80	70.250000	281.000000
110030525	175746	13	12	29	53	120	70.250000	281.000000
110030525	175746	14	13	30	53	120	70.250000	281.000000
110030525	175746	15	14	33	41	120	70.250000	281.000000
110206271	175747	3	2	80	87	120	70.375000	281.500000
110206271	175747	3	2	80	91	120	70.375000	281.500000
110206271	175747	5	4	0	75	120	70.375000	281.500000
110206271	175747	5	4	0	87	120	70.375000	281.500000
110206271	175747	10	9	16	36	100	70.375000	281.500000
110206271	175747	13	12	29	41	120	70.375000	281.500000
110206271	175747	14	13	30	41	120	70.375000	281.500000
110206271	175747	15	14	33	29	120	70.375000	281.500000
110382018	175746	3	2	80	89	120	70.500000	282.000000
110382018	175746	3	2	80	94	120	70.500000	282.000000
110382018	175746	5	4	0	45	120	70.500000	282.000000
110382018	175746	5	4	0	77	120	70.500000	282.000000
110382018	175746	5	4	0	89	120	70.500000	282.000000
110382018	175746	10	9	16	36	100	70.500000	282.000000
110382018	175746	10	9	16	46	80	70.500000	282.000000
110382018	175746	13	12	29	41	120	70.500000	282.000000
110382018	175746	14	13	30	41	120	70.500000	282.000000
110382018	175746	15	14	33	29	120	70.500000	282.000000
110557764	175747	10	9	16	36	100	70.625000	282.500000
110557764	175747	13	12	29	53	120	70.625000	282.500000
110557764	175747	14	13	30	53	120	70.625000	282.500000
110557764	175747	15	14	33	41	120	70.625000	282.500000
110733511	175746	3	2	80	94	120	70.750000	283.000000
110733511	175746	5	4	0	53	120	70.750000	283.000000
110733511	175746	5	4	0	82	120	70.750000	283.000000
110733511	175746	5	4	0	94	120	70.750000	283.000000
110733511	175746	10	9	16	38	100	70.750000	283.000000
110733511	175746	10	9	16	46	80	70.750000	283.000000
110733511	175746	13	12	29	41	120	70.750000	283.000000
110733511	175746	14	13	30	41	120	70.750000	283.000000
110733511	175746	15	14	33	29	120	70.750000	283.000000
110909257	175747	10	9	16	36	100	70.875000	283.500000
110909257	175747	13	12	29	53	120	70.875000	283.500000
110909257	175747	14	13	30	53	120	70.875000	283.500000
110909257	175747	15	14	33	41	120	70.875000	283.500000
111085004	1405972	2	1	48	43	100	71.000000	284.000000
111085004	1405972	2	1	48	55	100	71.000000	284.000000
111085004	1405972	2	1	48	58	100	71.000000	284.000000
111085004	1405972	2	1	48	67	100	71.000000	284.000000
111085004	1405972	2	1	48	74	100	71.000000	284.000000
111085004	1405972	2	1	48	77	100	71.000000	284.000000
111085004	1405972	2	1	48	82	100	71.000000	284.000000
111085004	1405972	2	1	48	86	100	71.000000	284.000000
111085004	702986	3	2	80	82	120	71.000000	284.000000
111085004	702986	3	2	80	91	120	71.000000	284.000000
111085004	175746	5	4	0	50	120	71.000000	284.000000
111085004	702986	5	4	0	79	120	71.000000	284.000000
111085004	702986	5	4	0	91	120	71.000000	284.000000
111085004	175746	10	9	16	36	100	71.000000	284.000000
111085004	175746	10	9	16	46	80	71.000000	284.000000
111085004	175746	13	12	29	43	120	71.000000	284.000000
111085004	175746	14	13	30	43	120	71.000000	284.000000
111085004	175746	15	14	33	31	120	71.000000	284.000000
111260750	175747	10	9	16	36	100	71.125000	284.500000
111260750	175747	13	12	29	55	120	71.125000	284.500000
111260750	175747	14	13	30	55	120	71.125000	284.500000
111260750	175747	15	14	33	43	120	71.125000	284.500000
111436497	175746	5	4	0	53	120	71.250000	285.000000
111436497	175746	10	9	16	38	100	71.250000	285.000000
111436497	175746	10	9	16	46	80	71.250000	285.000000
111436497	175746	13	12	29	43	120	71.250000	285.000000
111436497	175746	14	13	30	43	120	71.250000	285.000000
111436497	175746	15	14	33	31	120	71.250000	285.000000
111612243	175747	10	9	16	36	100	71.375000	285.500000
111612243	175747	13	12	29	55	120	71.375000	285.500000
111612243	175747	14	13	30	55	120	71.375000	285.500000
111612243	175747	15	14	33	43	120	71.375000	285.500000
111787990	702986	3	2	80	82	120	71.500000	286.000000
111787990	702986	3	2	80	89	120	71.500000	286.000000
111787990	175746	5	4	0	50	120	71.500000	286.000000
111787990	702986	5	4	0	77	120	71.500000	286.000000
111787990	702986	5	4	0	89	120	71.500000	286.000000
111787990	175746	10	9	16	36	100	71.500000	286.000000
111787990	175746	10	9	16	46	80	71.500000	286.000000
111787990	175746	13	12	29	43	120	71.500000	286.000000
111787990	175746	14	13	30	43	120	71.500000	286.000000
111787990	175746	15	14	33	31	120	71.500000	286.000000
111963736	175747	10	9	16	36	100	71.625000	286.500000
111963736	175747	13	12	29	55	120	71.625000	286.500000
111963736	175747	14	13	30	55	120	71.625000	286.500000
111963736	175747	15	14	33	43	120	71.625000	286.500000
112139483	175746	5	4	0	53	120	71.750000	287.000000
112139483	175746	10	9	16	38	100	71.750000	287.000000
112139483	175746	10	9	16	46	80	71.750000	287.000000
112139483	175746	13	12	29	43	120	71.750000	287.000000
112139483	175746	14	13	30	43	120	71.750000	287.000000
112139483	175746	15	14	33	31	120	71.750000	287.000000
112315229	175747	10	9	16	35	100	71.875000	287.500000
112315229	175747	13	12	29	55	120	71.875000	287.500000
112315229	175747	14	13	30	55	120	71.875000	287.500000
112315229	175747	15	14	33	43	120	71.875000	287.500000
112490976	2811944	2	1	48	37	100	72.000000	288.000000
112490976	2811944	2	1	48	44	100	72.000000	288.000000
112490976	351493	3	2	80	78	120	72.000000	288.000000
112490976	175746	9	8	9	90	90	72.000000	288.000000
112490976	175746	9	8	9	102	90	72.000000	288.000000
112490976	175746	10	9	16	36	100	72.000000	288.000000
112490976	175746	10	9	16	46	80	72.000000	288.000000
112490976	175746	10	9	16	49	100	72.000000	288.000000
112490976	351493	12	11	30	66	120	72.000000	288.000000
112490976	351493	12	11	30	78	80	72.000000	288.000000
112490976	175746	13	12	29	37	120	72.000000	288.000000
112490976	175746	14	13	30	37	120	72.000000	288.000000
112490976	175746	15	14	33	25	120	72.000000	288.000000
112666722	175747	10	9	16	36	100	72.125000	288.500000
112666722	175747	13	12	29	37	120	72.125000	288.500000
112666722	175747	14	13	30	37	120	72.125000	288.500000
112666722	175747	15	14	33	25	120	72.125000	288.500000
112842469	351493	3	2	80	71	120	72.250000	289.000000
112842469	175746	9	8	9	83	90	72.250000	289.000000
112842469	175746	9	8	9	95	90	72.250000	289.000000
112842469	175746	10	9	16	38	100	72.250000	289.000000
112842469	175746	10	9	16	46	80	72.250000	289.000000
112842469	351493	12	11	30	59	120	72.250000	289.000000
112842469	351493	12	11	30	71	80	72.250000	289.000000
112842469	175746	13	12	29	49	120	72.250000	289.000000
112842469	175746	14	13	30	49	120	72.250000	289.000000
112842469	175746	15	14	33	37	120	72.250000	289.000000
113018215	175747	10	9	16	36	100	72.375000	289.500000
113018215	175747	13	12	29	37	120	72.375000	289.500000
113018215	175747	14	13	30	37	120	72.375000	289.500000
113018215	175747	15	14	33	25	120	72.375000	289.500000
113193962	351493	3	2	80	73	120	72.500000	290.000000
113193962	175746	9	8	9	85	90	72.500000	290.000000
113193962	175746	9	8	9	97	90	72.500000	290.000000
113193962	175746	10	9	16	36	100	72.500000	290.000000
113193962	175746	10	9	16	46	80	72.500000	290.000000
113193962	351493	12	11	30	61	120	72.500000	290.000000
113193962	351493	12	11	30	73	80	72.500000	290.000000
113193962	175746	13	12	29	37	120	72.500000	290.000000
113193962	175746	14	13	30	37	120	72.500000	290.000000
113193962	175746	15	14	33	25	120	72.500000	290.000000
113369708	175747	10	9	16	36	100	72.625000	290.500000
113369708	175747	13	12	29	49	120	72.625000	290.500000
113369708	175747	14	13	30	49	120	72.625000	290.500000
113369708	175747	15	14	33	37	120	72.625000	290.500000
113545455	351493	3	2	80	71	120	72.750000	291.000000
113545455	175746	9	8	9	83	90	72.750000	291.000000
113545455	175746	9	8	9	95	90	72.750000	291.000000
113545455	175746	10	9	16	38	100	72.750000	291.000000
113545455	175746	10	9	16	46	80	72.750000	291.000000
113545455	351493	12	11	30	59	120	72.750000	291.000000
113545455	351493	12	11	30	71	80	72.750000	291.000000
113545455	175746	13	12	29	37	120	72.750000	291.000000
113545455	175746	14	13	30	37	120	72.750000	291.000000
113545455	175746	15	14	33	25	120	72.750000	291.000000
113721201	175747	10	9	16	36	100	72.875000	291.500000
113721201	175747	13	12	29	49	120	72.875000	291.500000
113721201	175747	14	13	30	49	120	72.875000	291.500000
113721201	175747	15	14	33	37	120	72.875000	291.500000
113896948	175746	3	2	80	66	120	73.000000	292.000000
113896948	175746	9	8	9	78	90	73.000000	292.000000
113896948	175746	9	8	9	90	90	73.000000	292.000000
113896948	175746	10	9	16	36	100	73.000000	292.000000
113896948	175746	10	9	16	46	80	73.000000	292.000000
113896948	175746	12	11	30	54	120	73.000000	292.000000
113896948	175746	12	11	30	66	80	73.000000	292.000000
113896948	175746	13	12	29	37	120	73.000000	292.000000
113896948	175746	14	13	30	37	120	73.000000	292.000000
113896948	175746	15	14	33	25	120	73.000000	292.000000
114072694	175747	3	2	80	71	120	73.125000	292.500000
114072694	175747	9	8	9	83	90	73.125000	292.500000
114072694	175747	9	8	9	95	90	73.125000	292.500000
114072694	175747	10	9	16	36	100	73.125000	292.500000
114072694	175747	12	11	30	59	120	73.125000	292.500000
114072694	175747	12	11	30	71	80	73.125000	292.500000
114072694	175747	13	12	29	49	120	73.125000	292.500000
114072694	175747	14	13	30	49	120	73.125000	292.500000
114072694	175747	15	14	33	37	120	73.125000	292.500000
114248441	175746	10	9	16	38	100	73.250000	293.000000
114248441	175746	10	9	16	46	80	73.250000	293.000000
114248441	175746	13	12	29	37	120	73.250000	293.000000
114248441	175746	14	13	30	37	120	73.250000	293.000000
114248441	175746	15	14	33	25	120	73.250000	293.000000
114424187	351493	3	2	80	73	120	73.375000	293.500000
114424187	175747	9	8	9	85	90	73.375000	293.500000
114424187	175747	9	8	9	97	90	73.375000	293.500000
114424187	175747	10	9	16	36	100	73.375000	293.500000
114424187	351493	12	11	30	61	120	73.375000	293.500000
114424187	351493	12	11	30	73	80	73.375000	293.500000
114424187	175747	13	12	29	49	120	73.375000	293.500000
114424187	175747	14	13	30	49	120	73.375000	293.500000
114424187	175747	15	14	33	37	120	73.375000	293.500000
114599934	351493	2	1	48	51	100	73.500000	294.000000
114599934	175746	10	9	16	36	100	73.500000	294.000000
114599934	175746	10	9	16	46	80	73.500000	294.000000
114599934	175746	13	12	29	37	120	73.500000	294.000000
114599934	175746	14	13	30	37	120	73.500000	294.000000
114599934	175746	15	14	33	25	120	73.500000	294.000000
114775680	87873	3	2	80	75	120	73.625000	294.500000
114775680	87873	9	8	9	87	90	73.625000	294.500000
114775680	87873	9	8	9	99	90	73.625000	294.500000
114775680	175747	10	9	16	36	100	73.625000	294.500000
114775680	87873	12	11	30	63	120	73.625000	294.500000
114775680	87873	12	11	30	75	80	73.625000	294.500000
114775680	175747	13	12	29	49	120	73.625000	294.500000
114775680	175747	14	13	30	49	120	73.625000	294.500000
114775680	175747	15	14	33	37	120	73.625000	294.500000
114863553	87874	3	2	80	73	120	73.687500	294.750000
114863553	87874	9	8	9	85	90	73.687500	294.750000
114863553	87874	9	8	9	97	90	73.687500	294.750000
114863553	87874	12	11	30	61	120	73.687500	294.750000
114863553	87874	12	11	30	73	80	73.687500	294.750000
114951427	351493	2	1	48	52	100	73.750000	295.000000
114951427	351493	3	2	80	71	120	73.750000	295.000000
114951427	175746	9	8	9	83	90	73.750000	295.000000
114951427	175746	9	8	9	95	90	73.750000	295.000000
114951427	175746	10	9	16	38	100	73.750000	295.000000
114951427	175746	10	9	16	46	80	73.750000	295.000000
114951427	351493	12	11	30	59	120	73.750000	295.000000
114951427	351493	12	11	30	71	80	73.750000	295.000000
114951427	175746	13	12	29	37	120	73.750000	295.000000
114951427	175746	14	13	30	37	120	73.750000	295.000000
114951427	175746	15	14	33	25	120	73.750000	295.000000
115127173	175747	10	9	16	36	100	73.875000	295.500000
115127173	175747	13	12	29	49	120	73.875000	295.500000
115127173	175747	14	13	30	49	120	73.875000	295.500000
115127173	175747	15	14	33	37	120	73.875000	295.500000
115302920	2811944	2	1	48	39	100	74.000000	296.000000
115302920	2811944	2	1	48	46	100	74.000000	296.000000
115302920	702986	2	1	48	54	100	74.000000	296.000000
115302920	351493	3	2	80	66	120	74.000000	296.000000
115302920	175746	9	8	9	78	90	74.000000	296.000000
115302920	175746	9	8	9	90	90	74.000000	296.000000
115302920	175746	10	9	16	36	100	74.000000	296.000000
115302920	175746	10	9	16	46	80	74.000000	296.000000
115302920	351493	11	10	73	78	100	74.000000	296.000000
115302920	351493	12	11	30	54	120	74.000000	296.000000
115302920	351493	12	11	30	66	80	74.000000	296.000000
115302920	175746	13	12	29	39	120	74.000000	296.000000
115302920	175746	14	13	30	39	120	74.000000	296.000000
115302920	175746	15	14	33	27	120	74.000000	296.000000
115478666	175747	10	9	16	36	100	74.125000	296.500000
115478666	175747	13	12	29	39	120	74.125000	296.500000
115478666	175747	14	13	30	39	120	74.125000	296.500000
115478666	175747	15	14	33	27	120	74.125000	296.500000
115654413	351493	3	2	80	71	120	74.250000	297.000000
115654413	175746	9	8	9	83	90	74.250000	297.000000
115654413	175746	9	8	9	95	90	74.250000	297.000000
115654413	175746	10	9	16	38	100	74.250000	297.000000
115654413	175746	10	9	16	46	80	74.250000	297.000000
115654413	351493	12	11	30	59	120	74.250000	297.000000
115654413	351493	12	11	30	71	80	74.250000	297.000000
115654413	175746	13	12	29	51	120	74.250000	297.000000
115654413	175746	14	13	30	51	120	74.250000	297.000000
115654413	175746	15	14	33	39	120	74.250000	297.000000
115830159	175747	10	9	16	36	100	74.375000	297.500000
115830159	175747	13	12	29	39	120	74.375000	297.500000
115830159	175747	14	13	30	39	120	74.375000	297.500000
115830159	175747	15	14	33	27	120	74.375000	297.500000
116005906	702986	2	1	48	59	100	74.500000	298.000000
116005906	175746	3	2	80	73	120	74.500000	298.000000
116005906	175746	9	8	9	85	90	74.500000	298.000000
116005906	175746	9	8	9	97	90	74.500000	298.000000
116005906	175746	10	9	16	36	100	74.500000	298.000000
116005906	175746	10	9	16	46	80	74.500000	298.000000
116005906	175746	11	10	73	78	100	74.500000	298.000000
116005906	175746	12	11	30	61	120	74.500000	298.000000
116005906	175746	12	11	30	73	80	74.500000	298.000000
116005906	175746	13	12	29	39	120	74.500000	298.000000
116005906	175746	14	13	30	39	120	74.500000	298.000000
116005906	175746	15	14	33	27	120	74.500000	298.000000
116181652	175747	3	2	80	76	120	74.625000	298.500000
116181652	175747	9	8	9	88	90	74.625000	298.500000
116181652	175747	9	8	9	100	90	74.625000	298.500000
116181652	175747	10	9	16	36	100	74.625000	298.500000
116181652	175747	11	10	73	76	100	74.625000	298.500000
116181652	175747	12	11	30	64	120	74.625000	298.500000
116181652	175747	12	11	30	76	80	74.625000	298.500000
116181652	175747	13	12	29	51	120	74.625000	298.500000
116181652	175747	14	13	30	51	120	74.625000	298.500000
116181652	175747	15	14	33	39	120	74.625000	298.500000
116357399	175746	10	9	16	38	100	74.750000	299.000000
116357399	175746	10	9	16	46	80	74.750000	299.000000
116357399	175746	13	12	29	39	120	74.750000	299.000000
116357399	175746	14	13	30	39	120	74.750000	299.000000
116357399	175746	15	14	33	27	120	74.750000	299.000000
116533145	351493	3	2	80	75	120	74.875000	299.500000
116533145	175747	9	8	9	87	90	74.875000	299.500000
116533145	175747	9	8	9	99	90	74.875000	299.500000
116533145	175747	10	9	16	36	100	74.875000	299.500000
116533145	351493	11	10	73	78	100	74.875000	299.500000
116533145	351493	12	11	30	63	120	74.875000	299.500000
116533145	351493	12	11	30	75	80	74.875000	299.500000
116533145	175747	13	12	29	51	120	74.875000	299.500000
116533145	175747	14	13	30	51	120	74.875000	299.500000
116533145	175747	15	14	33	39	120	74.875000	299.500000
116708892	702986	2	1	48	58	100	75.000000	300.000000
116708892	175746	10	9	16	36	100	75.000000	300.000000
116708892	175746	10	9	16	46	80	75.000000	300.000000
116708892	175746	13	12	29	39	120	75.000000	300.000000
116708892	175746	14	13	30	39	120	75.000000	300.000000
116708892	175746	15	14	33	27	120	75.000000	300.000000
116884638	87873	3	2	80	76	120	75.125000	300.500000
116884638	87873	9	8	9	88	90	75.125000	300.500000
116884638	87873	9	8	9	100	90	75.125000	300.500000
116884638	175747	10	9	16	36	100	75.125000	300.500000
116884638	87873	11	10	73	80	100	75.125000	300.500000
116884638	87873	12	11	30	64	120	75.125000	300.500000
116884638	87873	12	11	30	76	80	75.125000	300.500000
116884638	175747	13	12	29	39	120	75.125000	300.500000
116884638	175747	14	13	30	39	120	75.125000	300.500000
116884638	175747	15	14	33	27	120	75.125000	300.500000
116972511	87874	3	2	80	75	120	75.187500	300.750000
116972511	87874	9	8	9	87	90	75.187500	300.750000
116972511	87874	9	8	9	99	90	75.187500	300.750000
116972511	87874	11	10	73	78	100	75.187500	300.750000
116972511	87874	12	11	30	63	120	75.187500	300.750000
116972511	87874	12	11	30	75	80	75.187500	300.750000
117060385	351493	3	2	80	73	120	75.250000	301.000000
117060385	175746	9	8	9	85	90	75.250000	301.000000
117060385	175746	9	8	9	97	90	75.250000	301.000000
117060385	175746	10	9	16	38	100	75.250000	301.000000
117060385	175746	10	9	16	46	80	75.250000	301.000000
117060385	351493	11	10	73	76	100	75.250000	301.000000
117060385	351493	12	11	30	61	120	75.250000	301.000000
117060385	351493	12	11	30	73	80	75.250000	301.000000
117060385	175746	13	12	29	51	120	75.250000	301.000000
117060385	175746	14	13	30	51	120	75.250000	301.000000
117060385	175746	15	14	33	39	120	75.250000	301.000000
117236131	175747	10	9	16	36	100	75.375000	301.500000
117236131	175747	13	12	29	39	120	75.375000	301.500000
117236131	175747	14	13	30	39	120	75.375000	301.500000
117236131	175747	15	14	33	27	120	75.375000	301.500000
117411878	702986	2	1	48	54	100	75.500000	302.000000
117411878	351493	3	2	80	71	120	75.500000	302.000000
117411878	175746	9	8	9	83	90	75.500000	302.000000
117411878	175746	9	8	9	95	90	75.500000	302.000000
117411878	175746	10	9	16	36	100	75.500000	302.000000
117411878	175746	10	9	16	46	80	75.500000	302.000000
117411878	351493	11	10	73	75	100	75.500000	302.000000
117411878	351493	12	11	30	59	120	75.500000	302.000000
117411878	351493	12	11	30	71	80	75.500000	302.000000
117411878	175746	13	12	29	39	120	75.500000	302.000000
117411878	175746	14	13	30	39	120	75.500000	302.000000
117411878	175746	15	14	33	27	120	75.500000	302.000000
117587624	175747	10	9	16	36	100	75.625000	302.500000
117587624	175747	13	12	29	51	120	75.625000	302.500000
117587624	175747	14	13	30	51	120	75.625000	302.500000
117587624	175747	15	14	33	39	120	75.625000	302.500000
117763371	351493	3	2	80	66	120	75.750000	303.000000
117763371	175746	9	8	9	78	90	75.750000	303.000000
117763371	175746	9	8	9	90	90	75.750000	303.000000
117763371	175746	10	9	16	38	100	75.750000	303.000000
117763371	175746	10	9	16	46	80	75.750000	303.000000
117763371	351493	11	10	73	76	100	75.750000	303.000000
117763371	351493	12	11	30	54	120	75.750000	303.000000
117763371	351493	12	11	30	66	80	75.750000	303.000000
117763371	175746	13	12	29	39	120	75.750000	303.000000
117763371	175746	14	13	30	39	120	75.750000	303.000000
117763371	175746	15	14	33	27	120	75.750000	303.000000
117939117	175747	10	9	16	36	100	75.875000	303.500000
117939117	175747	13	12	29	51	120	75.875000	303.500000
117939117	175747	14	13	30	51	120	75.875000	303.500000
117939117	175747	15	14	33	39	120	75.875000	303.500000
118114864	2811944	2	1	48	40	100	76.000000	304.000000
118114864	2811944	2	1	48	47	100	76.000000	304.000000
118114864	1405972	2	1	48	56	100	76.000000	304.000000
118114864	351493	3	2	80	78	120	76.000000	304.000000
118114864	175746	9	8	9	90	90	76.000000	304.000000
118114864	175746	9	8	9	102	90	76.000000	304.000000
118114864	175746	10	9	16	36	100	76.000000	304.000000
118114864	175746	10	9	16	46	80	76.000000	304.000000
118114864	702986	11	10	73	78	100	76.000000	304.000000
118114864	351493	12	11	30	66	120	76.000000	304.000000
118114864	351493	12	11	30	78	80	76.000000	304.000000
118114864	175746	13	12	29	40	120	76.000000	304.000000
118114864	175746	14	13	30	40	120	76.000000	304.000000
118114864	175746	15	14	33	28	120	76.000000	304.000000
118290610	175747	10	9	16	36	100	76.125000	304.500000
118290610	175747	13	12	29	40	120	76.125000	304.500000
118290610	175747	14	13	30	40	120	76.125000	304.500000
118290610	175747	15	14	33	28	120	76.125000	304.500000
118466357	351493	3	2	80	71	120	76.250000	305.000000
118466357	175746	9	8	9	83	90	76.250000	305.000000
118466357	175746	9	8	9	95	90	76.250000	305.000000
118466357	175746	10	9	16	38	100	76.250000	305.000000
118466357	175746	10	9	16	46	80	76.250000	305.000000
118466357	351493	12	11	30	59	120	76.250000	305.000000
118466357	351493	12	11	30	71	80	76.250000	305.000000
118466357	175746	13	12	29	52	120	76.250000	305.000000
118466357	175746	14	13	30	52	120	76.250000	305.000000
118466357	175746	15	14	33	40	120	76.250000	305.000000
118642103	175747	10	9	16	36	100	76.375000	305.500000
118642103	175747	13	12	29	40	120	76.375000	305.500000
118642103	175747	14	13	30	40	120	76.375000	305.500000
118642103	175747	15	14	33	28	120	76.375000	305.500000
118817850	351493	3	2	80	73	120	76.500000	306.000000
118817850	175746	9	8	9	85	90	76.500000	306.000000
118817850	175746	9	8	9	97	90	76.500000	306.000000
118817850	175746	10	9	16	36	100	76.500000	306.000000
118817850	175746	10	9	16	46	80	76.500000	306.000000
118817850	351493	12	11	30	61	120	76.500000	306.000000
118817850	351493	12	11	30	73	80	76.500000	306.000000
118817850	175746	13	12	29	40	120	76.500000	306.000000
118817850	175746	14	13	30	40	120	76.500000	306.000000
118817850	175746	15	14	33	28	120	76.500000	306.000000
118993596	175747	10	9	16	36	100	76.625000	306.500000
118993596	175747	13	12	29	52	120	76.625000	306.500000
118993596	175747	14	13	30	52	120	76.625000	306.500000
118993596	175747	15	14	33	40	120	76.625000	306.500000
119169343	351493	3	2	80	71	120	76.750000	307.000000
119169343	175746	9	8	9	83	90	76.750000	307.000000
119169343	175746	9	8	9	95	90	76.750000	307.000000
119169343	175746	10	9	16	38	100	76.750000	307.000000
119169343	175746	10	9	16	46	80	76.750000	307.000000
119169343	351493	12	11	30	59	120	76.750000	307.000000
119169343	351493	12	11	30	71	80	76.750000	307.000000
119169343	175746	13	12	29	40	120	76.750000	307.000000
119169343	175746	14	13	30	40	120	76.750000	307.000000
119169343	175746	15	14	33	28	120	76.750000	307.000000
119345089	175747	10	9	16	36	100	76.875000	307.500000
119345089	175747	13	12	29	52	120	76.875000	307.500000
119345089	175747	14	13	30	52	120	76.875000	307.500000
119345089	175747	15	14	33	40	120	76.875000	307.500000
119520836	1405972	2	1	48	63	100	77.000000	308.000000
119520836	175746	3	2	80	66	120	77.000000	308.000000
119520836	175746	9	8	9	78	90	77.000000	308.000000
119520836	175746	9	8	9	90	90	77.000000	308.000000
119520836	175746	10	9	16	36	100	77.000000	308.000000
119520836	175746	10	9	16	46	80	77.000000	308.000000
119520836	175746	12	11	30	54	120	77.000000	308.000000
119520836	175746	12	11	30	66	80	77.000000	308.000000
119520836	175746	13	12	29	40	120	77.000000	308.000000
119520836	175746	14	13	30	40	120	77.000000	308.000000
119520836	175746	15	14	33	28	120	77.000000	308.000000
119696582	175747	3	2	80	71	120	77.125000	308.500000
119696582	175747	9	8	9	83	90	77.125000	308.500000
119696582	175747	9	8	9	95	90	77.125000	308.500000
119696582	175747	10	9	16	36	100	77.125000	308.500000
119696582	175747	12	11	30	59	120	77.125000	308.500000
119696582	175747	12	11	30	71	80	77.125000	308.500000
119696582	175747	13	12	29	52	120	77.125000	308.500000
119696582	175747	14	13	30	52	120	77.125000	308.500000
119696582	175747	15	14	33	40	120	77.125000	308.500000
119872329	175746	10	9	16	38	100	77.250000	309.000000
119872329	175746	10	9	16	46	80	77.250000	309.000000
119872329	175746	13	12	29	40	120	77.250000	309.000000
119872329	175746	14	13	30	40	120	77.250000	309.000000
119872329	175746	15	14	33	28	120	77.250000	309.000000
120048075	351493	3	2	80	73	120	77.375000	309.500000
120048075	175747	9	8	9	85	90	77.375000	309.500000
120048075	175747	9	8	9	97	90	77.375000	309.500000
120048075	175747	10	9	16	36	100	77.375000	309.500000
120048075	351493	12	11	30	61	120	77.375000	309.500000
120048075	351493	12	11	30	73	80	77.375000	309.500000
120048075	175747	13	12	29	52	120	77.375000	309.500000
120048075	175747	14	13	30	52	120	77.375000	309.500000
120048075	175747	15	14	33	40	120	77.375000	309.500000
120223822	175746	10	9	16	36	100	77.500000	310.000000
120223822	175746	10	9	16	46	80	77.500000	310.000000
120223822	175746	13	12	29	40	120	77.500000	310.000000
120223822	175746	14	13	30	40	120	77.500000	310.000000
120223822	175746	15	14	33	28	120	77.500000	310.000000
120399568	87873	3	2	80	75	120	77.625000	310.500000
120399568	87873	9	8	9	87	90	77.625000	310.500000
120399568	87873	9	8	9	99	90	77.625000	310.500000
120399568	175747	10	9	16	36	100	77.625000	310.500000
120399568	87873	12	11	30	63	120	77.625000	310.500000
120399568	87873	12	11	30	75	80	77.625000	310.500000
120399568	175747	13	12	29	52	120	77.625000	310.500000
120399568	175747	14	13	30	52	120	77.625000	310.500000
120399568	175747	15	14	33	40	120	77.625000	310.500000
120487441	87874	3	2	80	73	120	77.687500	310.750000
120487441	87874	9	8	9	85	90	77.687500	310.750000
120487441	87874	9	8	9	97	90	77.687500	310.750000
120487441	87874	12	11	30	61	120	77.687500	310.750000
120487441	87874	12	11	30	73	80	77.687500	310.750000
120575315	351493	3	2	80	71	120	77.750000	311.000000
120575315	175746	9	8	9	83	90	77.750000	311.000000
120575315	175746	9	8	9	95	90	77.750000	311.000000
120575315	175746	10	9	16	38	100	77.750000	311.000000
120575315	175746	10	9	16	46	80	77.750000	311.000000
120575315	351493	12	11	30	59	120	77.750000	311.000000
120575315	351493	12	11	30	71	80	77.750000	311.000000
120575315	175746	13	12	29	40	120	77.750000	311.000000
120575315	175746	14	13	30	40	120	77.750000	311.000000
120575315	175746	15	14	33	28	120	77.750000	311.000000
120751061	175747	10	9	16	36	100	77.875000	311.500000
120751061	175747	13	12	29	52	120	77.875000	311.500000
120751061	175747	14	13	30	52	120	77.875000	311.500000
120751061	175747	15	14	33	40	120	77.875000	311.500000
120926808	1405972	2	1	48	42	100	78.000000	312.000000
120926808	1405972	2	1	48	49	100	78.000000	312.000000
120926808	702986	2	1	48	61	100	78.000000	312.000000
120926808	351493	3	2	80	63	120	78.000000	312.000000
120926808	351493	3	2	80	66	120	78.000000	312.000000
120926808	175746	9	8	9	78	90	78.000000	312.000000
120926808	175746	9	8	9	90	90	78.000000	312.000000
120926808	175746	10	9	16	36	100	78.000000	312.000000
120926808	175746	10	9	16	46	80	78.000000	312.000000
120926808	351493	12	11	30	66	120	78.000000	312.000000
120926808	351493	12	11	30	78	80	78.000000	312.000000
120926808	175746	13	12	29	42	120	78.000000	312.000000
120926808	175746	14	13	30	42	120	78.000000	312.000000
120926808	175746	15	14	33	30	120	78.000000	312.000000
121102554	175747	10	9	16	36	100	78.125000	312.500000
121102554	175747	13	12	29	42	120	78.125000	312.500000
121102554	175747	14	13	30	42	120	78.125000	312.500000
121102554	175747	15	14	33	30	120	78.125000	312.500000
121278301	351493	3	2	80	68	120	78.250000	313.000000
121278301	351493	3	2	80	71	120	78.250000	313.000000
121278301	175746	9	8	9	83	90	78.250000	313.000000
121278301	175746	9	8	9	95	90	78.250000	313.000000
121278301	175746	10	9	16	38	100	78.250000	313.000000
121278301	175746	10	9	16	46	80	78.250000	313.000000
121278301	351493	12	11	30	59	120	78.250000	313.000000
121278301	351493	12	11	30	71	80	78.250000	313.000000
121278301	175746	13	12	29	54	120	78.250000	313.000000
121278301	175746	14	13	30	54	120	78.250000	313.000000
121278301	175746	15	14	33	42	120	78.250000	313.000000
121454047	175747	10	9	16	36	100	78.375000	313.500000
121454047	175747	13	12	29	42	120	78.375000	313.500000
121454047	175747	14	13	30	42	120	78.375000	313.500000
121454047	175747	15	14	33	30	120	78.375000	313.500000
121629794	702986	2	1	48	63	100	78.500000	314.000000
121629794	175746	3	2	80	73	120	78.500000	314.000000
121629794	175746	3	2	80	83	120	78.500000	314.000000
121629794	175746	9	8	9	85	90	78.500000	314.000000
121629794	175746	9	8	9	97	90	78.500000	314.000000
121629794	175746	10	9	16	36	100	78.500000	314.000000
121629794	175746	10	9	16	46	80	78.500000	314.000000
121629794	175746	12	11	30	61	120	78.500000	314.000000
121629794	175746	12	11	30	73	80	78.500000	314.000000
121629794	175746	13	12	29	42	120	78.500000	314.000000
121629794	175746	14	13	30	42	120	78.500000	314.000000
121629794	175746	15	14	33	30	120	78.500000	314.000000
121805540	175747	3	2	80	76	120	78.625000	314.500000
121805540	175747	3	2	80	82	120	78.625000	314.500000
121805540	175747	9	8	9	88	90	78.625000	314.500000
121805540	175747	9	8	9	100	90	78.625000	314.500000
121805540	175747	10	9	16	36	100	78.625000	314.500000
121805540	175747	12	11	30	64	120	78.625000	314.500000
121805540	175747	12	11	30	76	80	78.625000	314.500000
121805540	175747	13	12	29	54	120	78.625000	314.500000
121805540	175747	14	13	30	54	120	78.625000	314.500000
121805540	175747	15	14	33	42	120	78.625000	314.500000
121981287	175746	10	9	16	38	100	78.750000	315.000000
121981287	175746	10	9	16	46	80	78.750000	315.000000
121981287	175746	13	12	29	42	120	78.750000	315.000000
121981287	175746	14	13	30	42	120	78.750000	315.000000
121981287	175746	15	14	33	30	120	78.750000	315.000000
122157033	175747	3	2	80	75	120	78.875000	315.500000
122157033	175747	3	2	80	78	120	78.875000	315.500000
122157033	175747	9	8	9	87	90	78.875000	315.500000
122157033	175747	9	8	9	99	90	78.875000	315.500000
122157033	175747	10	9	16	36	100	78.875000	315.500000
122157033	351493	12	11	30	66	120	78.875000	315.500000
122157033	351493	12	11	30	78	80	78.875000	315.500000
122157033	175747	13	12	29	54	120	78.875000	315.500000
122157033	175747	14	13	30	54	120	78.875000	315.500000
122157033	175747	15	14	33	42	120	78.875000	315.500000
122332780	1405972	2	1	48	44	100	79.000000	316.000000
122332780	1405972	2	1	48	51	100	79.000000	316.000000
122332780	1405972	2	1	48	66	100	79.000000	316.000000
122332780	175746	10	9	16	36	100	79.000000	316.000000
122332780	175746	10	9	16	46	80	79.000000	316.000000
122332780	175746	13	12	29	44	120	79.000000	316.000000
122332780	175746	14	13	30	44	120	79.000000	316.000000
122332780	175746	15	14	33	32	120	79.000000	316.000000
122508526	175747	3	2	80	71	120	79.125000	316.500000
122508526	175747	3	2	80	75	120	79.125000	316.500000
122508526	87873	9	8	9	88	90	79.125000	316.500000
122508526	87873	9	8	9	100	90	79.125000	316.500000
122508526	175747	10	9	16	36	100	79.125000	316.500000
122508526	175747	12	11	30	63	120	79.125000	316.500000
122508526	175747	12	11	30	75	80	79.125000	316.500000
122508526	175747	13	12	29	56	120	79.125000	316.500000
122508526	175747	14	13	30	56	120	79.125000	316.500000
122508526	175747	15	14	33	44	120	79.125000	316.500000
122596399	87874	9	8	9	87	90	79.187500	316.750000
122596399	87874	9	8	9	99	90	79.187500	316.750000
122684273	175746	3	2	80	70	120	79.250000	317.000000
122684273	175746	3	2	80	73	120	79.250000	317.000000
122684273	175746	9	8	9	85	90	79.250000	317.000000
122684273	175746	9	8	9	97	90	79.250000	317.000000
122684273	175746	10	9	16	38	100	79.250000	317.000000
122684273	175746	10	9	16	46	80	79.250000	317.000000
122684273	175746	12	11	30	61	120	79.250000	317.000000
122684273	175746	12	11	30	73	80	79.250000	317.000000
122684273	175746	13	12	29	44	120	79.250000	317.000000
122684273	175746	14	13	30	44	120	79.250000	317.000000
122684273	175746	15	14	33	32	120	79.250000	317.000000
122860019	351493	3	2	80	68	120	79.375000	317.500000
122860019	351493	3	2	80	71	120	79.375000	317.500000
122860019	175747	10	9	16	36	100	79.375000	317.500000
122860019	351493	12	11	30	59	120	79.375000	317.500000
122860019	351493	12	11	30	71	80	79.375000	317.500000
122860019	175747	13	12	29	56	120	79.375000	317.500000
122860019	175747	14	13	30	56	120	79.375000	317.500000
122860019	175747	15	14	33	44	120	79.375000	317.500000
123035766	175746	9	8	9	83	90	79.500000	318.000000
123035766	175746	9	8	9	95	90	79.500000	318.000000
123035766	175746	10	9	16	36	100	79.500000	318.000000
123035766	175746	10	9	16	46	80	79.500000	318.000000
123035766	175746	13	12	29	44	120	79.500000	318.000000
123035766	175746	14	13	30	44	120	79.500000	318.000000
123035766	175746	15	14	33	32	120	79.500000	318.000000
123211512	175747	3	2	80	70	120	79.625000	318.500000
123211512	175747	3	2	80	73	120	79.625000	318.500000
123211512	175747	10	9	16	36	100	79.625000	318.500000
123211512	175747	12	11	30	61	120	79.625000	318.500000
123211512	175747	12	11	30	73	80	79.625000	318.500000
123211512	175747	13	12	29	56	120	79.625000	318.500000
123211512	175747	14	13	30	56	120	79.625000	318.500000
123211512	175747	15	14	33	44	120	79.625000	318.500000
123387259	175746	3	2	80	68	120	79.750000	319.000000
123387259	175746	3	2	80	71	120	79.750000	319.000000
123387259	175746	9	8	9	78	90	79.750000	319.000000
123387259	175746	9	8	9	90	90	79.750000	319.000000
123387259	175746	10	9	16	38	100	79.750000	319.000000
123387259	175746	10	9	16	46	80	79.750000	319.000000
123387259	175746	12	11	30	59	120	79.750000	319.000000
123387259	175746	12	11	30	71	80	79.750000	319.000000
123387259	175746	13	12	29	44	120	79.750000	319.000000
123387259	175746	14	13	30	44	120	79.750000	319.000000
123387259	175746	15	14	33	32	120	79.750000	319.000000
123563005	175747	3	2	80	63	120	79.875000	319.500000
123563005	175747	3	2	80	66	120	79.875000	319.500000
123563005	175747	10	9	16	36	100	79.875000	319.500000
123563005	175747	12	11	30	54	120	79.875000	319.500000
123563005	175747	12	11	30	66	80	79.875000	319.500000
123563005	175747	13	12	29	56	120	79.875000	319.500000
123563005	175747	14	13	30	56	120	79.875000	319.500000
123563005	175747	15	14	33	44	120	79.875000	319.500000
123738752	2811944	2	1	48	37	100	80.000000	320.000000
123738752	2811944	2	1	48	44	100	80.000000	320.000000
123738752	2108958	2	1	48	56	100	80.000000	320.000000
123738752	351493	3	2	80	78	120	80.000000	320.000000
123738752	175746	9	8	9	90	90	80.000000	320.000000
123738752	175746	9	8	9	102	90	80.000000	320.000000
123738752	175746	10	9	16	36	100	80.000000	320.000000
123738752	175746	10	9	16	46	80	80.000000	320.000000
123738752	175746	10	9	16	49	100	80.000000	320.000000
123738752	351493	12	11	30	66	120	80.000000	320.000000
123738752	351493	12	11	30	78	80	80.000000	320.000000
123738752	175746	13	12	29	37	120	80.000000	320.000000
123738752	175746	14	13	30	37	120	80.000000	320.000000
123738752	175746	15	14	33	25	120	80.000000	320.000000
123914498	175747	10	9	16	36	100	80.125000	320.500000
123914498	175747	13	12	29	37	120	80.125000	320.500000
123914498	175747	14	13	30	37	120	80.125000	320.500000
123914498	175747	15	14	33	25	120	80.125000	320.500000
124090245	351493	3	2	80	71	120	80.250000	321.000000
124090245	175746	9	8	9	83	90	80.250000	321.000000
124090245	175746	9	8	9	95	90	80.250000	321.000000
124090245	175746	10	9	16	38	100	80.250000	321.000000
124090245	175746	10	9	16	46	80	80.250000	321.000000
124090245	351493	12	11	30	59	120	80.250000	321.000000
124090245	351493	12	11	30	71	80	80.250000	321.000000
124090245	175746	13	12	29	49	120	80.250000	321.000000
124090245	175746	14	13	30	49	120	80.250000	321.000000
124090245	175746	15	14	33	37	120	80.250000	321.000000
124265991	175747	10	9	16	36	100	80.375000	321.500000
124265991	175747	13	12	29	37	120	80.375000	321.500000
124265991	175747	14	13	30	37	120	80.375000	321.500000
124265991	175747	15	14	33	25	120	80.375000	321.500000
124441738	351493	3	2	80	73	120	80.500000	322.000000
124441738	175746	9	8	9	85	90	80.500000	322.000000
124441738	175746	9	8	9	97	90	80.500000	322.000000
124441738	175746	10	9	16	36	100	80.500000	322.000000
124441738	175746	10	9	16	46	80	80.500000	322.000000
124441738	351493	12	11	30	61	120	80.500000	322.000000
124441738	351493	12	11	30	73	80	80.500000	322.000000
124441738	175746	13	12	29	37	120	80.500000	322.000000
124441738	175746	14	13	30	37	120	80.500000	322.000000
124441738	175746	15	14	33	25	120	80.500000	322.000000
124617484	175747	10	9	16	36	100	80.625000	322.500000
124617484	175747	13	12	29	49	120	80.625000	322.500000
124617484	175747	14	13	30	49	120	80.625000	322.500000
124617484	175747	15	14	33	37	120	80.625000	322.500000
124793231	351493	3	2	80	71	120	80.750000	323.000000
124793231	175746	9	8	9	83	90	80.750000	323.000000
124793231	175746	9	8	9	95	90	80.750000	323.000000
124793231	175746	10	9	16	38	100	80.750000	323.000000
124793231	175746	10	9	16	46	80	80.750000	323.000000
124793231	351493	12	11	30	59	120	80.750000	323.000000
124793231	351493	12	11	30	71	80	80.750000	323.000000
124793231	175746	13	12	29	37	120	80.750000	323.000000
124793231	175746	14	13	30	37	120	80.750000	323.000000
124793231	175746	15	14	33	25	120	80.750000	323.000000
124968977	175747	10	9	16	36	100	80.875000	323.500000
124968977	175747	13	12	29	49	120	80.875000	323.500000
124968977	175747	14	13	30	49	120	80.875000	323.500000
124968977	175747	15	14	33	37	120	80.875000	323.500000
125144724	175746	3	2	80	66	120	81.000000	324.000000
125144724	175746	9	8	9	78	90	81.000000	324.000000
125144724	175746	9	8	9	90	90	81.000000	324.000000
125144724	175746	10	9	16	36	100	81.000000	324.000000
125144724	175746	10	9	16	46	80	81.000000	324.000000
125144724	175746	12	11	30	54	120	81.000000	324.000000
125144724	175746	12	11	30	66	80	81.000000	324.000000
125144724	175746	13	12	29	37	120	81.000000	324.000000
125144724	175746	14	13	30	37	120	81.000000	324.000000
125144724	175746	15	14	33	25	120	81.000000	324.000000
125320470	175747	3	2	80	71	120	81.125000	324.500000
125320470	175747	9	8	9	83	90	81.125000	324.500000
125320470	175747	9	8	9	95	90	81.125000	324.500000
125320470	175747	10	9	16	36	100	81.125000	324.500000
125320470	175747	12	11	30	59	120	81.125000	324.500000
125320470	175747	12	11	30	71	80	81.125000	324.500000
125320470	175747	13	12	29	49	120	81.125000	324.500000
125320470	175747	14	13	30	49	120	81.125000	324.500000
125320470	175747	15	14	33	37	120	81.125000	324.500000
125496217	175746	10	9	16	38	100	81.250000	325.000000
125496217	175746	10	9	16	46	80	81.250000	325.000000
125496217	175746	13	12	29	37	120	81.250000	325.000000
125496217	175746	14	13	30	37	120	81.250000	325.000000
125496217	175746	15	14	33	25	120	81.250000	325.000000
125671963	351493	3	2	80	73	120	81.375000	325.500000
125671963	175747	9	8	9	85	90	81.375000	325.500000
125671963	175747	9	8	9	97	90	81.375000	325.500000
125671963	175747	10	9	16	36	100	81.375000	325.500000
125671963	351493	12	11	30	61	120	81.375000	325.500000
125671963	351493	12	11	30	73	80	81.375000	325.500000
125671963	175747	13	12	29	49	120	81.375000	325.500000
125671963	175747	14	13	30	49	120	81.375000	325.500000
125671963	175747	15	14	33	37	120	81.375000	325.500000
125847710	351493	2	1	48	51	100	81.500000	326.000000
125847710	175746	10	9	16	36	100	81.500000	326.000000
125847710	175746	10	9	16	46	80	81.500000	326.000000
125847710	175746	13	12	29	37	120	81.500000	326.000000
125847710	175746	14	13	30	37	120	81.500000	326.000000
125847710	175746	15	14	33	25	120	81.500000	326.000000
126023456	87873	3	2	80	75	120	81.625000	326.500000
126023456	87873	9	8	9	87	90	81.625000	326.500000
126023456	87873	9	8	9	99	90	81.625000	326.500000
126023456	175747	10	9	16	36	100	81.625000	326.500000
126023456	87873	12	11	30	63	120	81.625000	326.500000
126023456	87873	12	11	30	75	80	81.625000	326.500000
126023456	175747	13	12	29	49	120	81.625000	326.500000
126023456	175747	14	13	30	49	120	81.625000	326.500000
126023456	175747	15	14	33	37	120	81.625000	326.500000
126111329	87874	3	2	80	73	120	81.687500	326.750000
126111329	87874	9	8	9	85	90	81.687500	326.750000
126111329	87874	9	8	9	97	90	81.687500	326.750000
126111329	87874	12	11	30	61	120	81.687500	326.750000
126111329	87874	12	11	30	73	80	81.687500	326.750000
126199203	351493	2	1	48	52	100	81.750000	327.000000
126199203	351493	3	2	80	71	120	81.750000	327.000000
126199203	175746	9	8	9	83	90	81.750000	327.000000
126199203	175746	9	8	9	95	90	81.750000	327.000000
126199203	175746	10	9	16	38	100	81.750000	327.000000
126199203	175746	10	9	16	46	80	81.750000	327.000000
126199203	351493	12	11	30	59	120	81.750000	327.000000
126199203	351493	12	11	30	71	80	81.750000	327.000000
126199203	175746	13	12	29	37	120	81.750000	327.000000
126199203	175746	14	13	30	37	120	81.750000	327.000000
126199203	175746	15	14	33	25	120	81.750000	327.000000
126374949	175747	10	9	16	36	100	81.875000	327.500000
126374949	175747	13	12	29	49	120	81.875000	327.500000
126374949	175747	14	13	30	49	120	81.875000	327.500000
126374949	175747	15	14	33	37	120	81.875000	327.500000
126550696	2811944	2	1	48	39	100	82.000000	328.000000
126550696	2811944	2	1	48	46	100	82.000000	328.000000
126550696	702986	2	1	48	54	100	82.000000	328.000000
126550696	351493	3	2	80	66	120	82.000000	328.000000
126550696	175746	9	8	9	78	90	82.000000	328.000000
126550696	175746	9	8	9	90	90	82.000000	328.000000
126550696	175746	10	9	16	36	100	82.000000	328.000000
126550696	175746	10	9	16	46	80	82.000000	328.000000
126550696	351493	11	10	73	78	100	82.000000	328.000000
126550696	351493	12	11	30	54	120	82.000000	328.000000
126550696	351493	12	11	30	66	80	82.000000	328.000000
126550696	175746	13	12	29	39	120	82.000000	328.000000
126550696	175746	14	13	30	39	120	82.000000	328.000000
126550696	175746	15	14	33	27	120	82.000000	328.000000
126726442	175747	10	9	16	36	100	82.125000	328.500000
126726442	175747	13	12	29	39	120	82.125000	328.500000
126726442	175747	14	13	30	39	120	82.125000	328.500000
126726442	175747	15	14	33	27	120	82.125000	328.500000
126902189	351493	3	2	80	71	120	82.250000	329.000000
126902189	175746	9	8	9	83	90	82.250000	329.000000
126902189	175746	9	8	9	95	90	82.250000	329.000000
126902189	175746	10	9	16	38	100	82.250000	329.000000
126902189	175746	10	9	16	46	80	82.250000	329.000000
126902189	351493	12	11	30	59	120	82.250000	329.000000
126902189	351493	12	11	30	71	80	82.250000	329.000000
126902189	175746	13	12	29	51	120	82.250000	329.000000
126902189	175746	14	13	30	51	120	82.250000	329.000000
126902189	175746	15	14	33	39	120	82.250000	329.000000
127077935	175747	10	9	16	36	100	82.375000	329.500000
127077935	175747	13	12	29	39	120	82.375000	329.500000
127077935	175747	14	13	30	39	120	82.375000	329.500000
127077935	175747	15	14	33	27	120	82.375000	329.500000
127253682	702986	2	1	48	59	100	82.500000	330.000000
127253682	175746	3	2	80	73	120	82.500000	330.000000
127253682	175746	9	8	9	85	90	82.500000	330.000000
127253682	175746	9	8	9	97	90	82.500000	330.000000
127253682	175746	10	9	16	36	100	82.500000	330.000000
127253682	175746	10	9	16	46	80	82.500000	330.000000
127253682	175746	11	10	73	78	100	82.500000	330.000000
127253682	175746	12	11	30	61	120	82.500000	330.000000
127253682	175746	12	11	30	73	80	82.500000	330.000000
127253682	175746	13	12	29	39	120	82.500000	330.000000
127253682	175746	14	13	30	39	120	82.500000	330.000000
127253682	175746	15	14	33	27	120	82.500000	330.000000
127429428	175747	3	2	80	76	120	82.625000	330.500000
127429428	175747	9	8	9	88	90	82.625000	330.500000
127429428	175747	9	8	9	100	90	82.625000	330.500000
127429428	175747	10	9	16	36	100	82.625000	330.500000
127429428	175747	11	10	73	76	100	82.625000	330.500000
127429428	175747	12	11	30	64	120	82.625000	330.500000
127429428	175747	12	11	30	76	80	82.625000	330.500000
127429428	175747	13	12	29	51	120	82.625000	330.500000
127429428	175747	14	13	30	51	120	82.625000	330.500000
127429428	175747	15	14	33	39	120	82.625000	330.500000
127605175	175746	10	9	16	38	100	82.750000	331.000000
127605175	175746	10	9	16	46	80	82.750000	331.000000
127605175	175746	13	12	29	39	120	82.750000	331.000000
127605175	175746	14	13	30	39	120	82.750000	331.000000
127605175	175746	15	14	33	27	120	82.750000	331.000000
127780921	351493	3	2	80	75	120	82.875000	331.500000
127780921	175747	9	8	9	87	90	82.875000	331.500000
127780921	175747	9	8	9	99	90	82.875000	331.500000
127780921	175747	10	9	16	36	100	82.875000	331.500000
127780921	351493	11	10	73	78	100	82.875000	331.500000
127780921	351493	12	11	30	63	120	82.875000	331.500000
127780921	351493	12	11	30	75	80	82.875000	331.500000
127780921	175747	13	12	29	51	120	82.875000	331.500000
127780921	175747	14	13	30	51	120	82.875000	331.500000
127780921	175747	15	14	33	39	120	82.875000	331.500000
127956668	702986	2	1	48	58	100	83.000000	332.000000
127956668	175746	10	9	16	36	100	83.000000	332.000000
127956668	175746	10	9	16	46	80	83.000000	332.000000
127956668	175746	13	12	29	39	120	83.000000	332.000000
127956668	175746	14	13	30	39	120	83.000000	332.000000
127956668	175746	15	14	33	27	120	83.000000	332.000000
128132414	87873	3	2	80	76	120	83.125000	332.500000
128132414	87873	9	8	9	88	90	83.125000	332.500000
128132414	87873	9	8	9	100	90	83.125000	332.500000
128132414	175747	10	9	16	36	100	83.125000	332.500000
128132414	87873	11	10	73	80	100	83.125000	332.500000
128132414	87873	12	11	30	64	120	83.125000	332.500000
128132414	87873	12	11	30	76	80	83.125000	332.500000
128132414	175747	13	12	29	39	120	83.125000	332.500000
128132414	175747	14	13	30	39	120	83.125000	332.500000
128132414	175747	15	14	33	27	120	83.125000	332.500000
128220287	87874	3	2	80	75	120	83.187500	332.750000
128220287	87874	9	8	9	87	90	83.187500	332.750000
128220287	87874	9	8	9	99	90	83.187500	332.750000
128220287	87874	11	10	73	78	100	83.187500	332.750000
128220287	87874	12	11	30	63	120	83.187500	332.750000
128220287	87874	12	11	30	75	80	83.187500	332.750000
128308161	351493	3	2	80	73	120	83.250000	333.000000
128308161	175746	9	8	9	85	90	83.250000	333.000000
128308161	175746	9	8	9	97	90	83.250000	333.000000
128308161	175746	10	9	16	38	100	83.250000	333.000000
128308161	175746	10	9	16	46	80	83.250000	333.000000
128308161	351493	11	10	73	76	100	83.250000	333.000000
128308161	351493	12	11	30	61	120	83.250000	333.000000
128308161	351493	12	11	30	73	80	83.250000	333.000000
128308161	175746	13	12	29	51	120	83.250000	333.000000
128308161	175746	14	13	30	51	120	83.250000	333.000000
128308161	175746	15	14	33	39	120	83.250000	333.000000
128483907	175747	10	9	16	36	100	83.375000	333.500000
128483907	175747	13	12	29	39	120	83.375000	333.500000
128483907	175747	14	13	30	39	120	83.375000	333.500000
128483907	175747	15	14	33	27	120	83.375000	333.500000
128659654	702986	2	1	48	54	100	83.500000	334.000000
128659654	351493	3	2	80	71	120	83.500000	334.000000
128659654	175746	9	8	9	83	90	83.500000	334.000000
128659654	175746	9	8	9	95	90	83.500000	334.000000
128659654	175746	10	9	16	36	100	83.500000	334.000000
128659654	175746	10	9	16	46	80	83.500000	334.000000
128659654	351493	11	10	73	75	100	83.500000	334.000000
128659654	351493	12	11	30	59	120	83.500000	334.000000
128659654	351493	12	11	30	71	80	83.500000	334.000000
128659654	175746	13	12	29	39	120	83.500000	334.000000
128659654	175746	14	13	30	39	120	83.500000	334.000000
128659654	175746	15	14	33	27	120	83.500000	334.000000
128835400	175747	10	9	16	36	100	83.625000	334.500000
128835400	175747	13	12	29	51	120	83.625000	334.500000
128835400	175747	14	13	30	51	120	83.625000	334.500000
128835400	175747	15	14	33	39	120	83.625000	334.500000
129011147	351493	3	2	80	66	120	83.750000	335.000000
129011147	175746	9	8	9	78	90	83.750000	335.000000
129011147	175746	9	8	9	90	90	83.750000	335.000000
129011147	175746	10	9	16	38	100	83.750000	335.000000
129011147	175746	10	9	16	46	80	83.750000	335.000000
129011147	351493	11	10	73	76	100	83.750000	335.000000
129011147	351493	12	11	30	54	120	83.750000	335.000000
129011147	351493	12	11	30	66	80	83.750000	335.000000
129011147	175746	13	12	29	39	120	83.750000	335.000000
129011147	175746	14	13	30	39	120	83.750000	335.000000
129011147	175746	15	14	33	27	120	83.750000	335.000000
129186893	175747	10	9	16	36	100	83.875000	335.500000
129186893	175747	13	12	29	51	120	83.875000	335.500000
129186893	175747	14	13	30	51	120	83.875000	335.500000
129186893	175747	15	14	33	39	120	83.875000	335.500000
129362640	2811944	2	1	48	40	100	84.000000	336.000000
129362640	2811944	2	1	48	47	100	84.000000	336.000000
129362640	1405972	2	1	48	56	100	84.000000	336.000000
129362640	351493	3	2	80	78	120	84.000000	336.000000
129362640	175746	9	8	9	90	90	84.000000	336.000000
129362640	175746	9	8	9	102	90	84.000000	336.000000
129362640	175746	10	9	16	36	100	84.000000	336.000000
129362640	175746	10	9	16	46	80	84.000000	336.000000
129362640	702986	11	10	73	78	100	84.000000	336.000000
129362640	351493	12	11	30	66	120	84.000000	336.000000
129362640	351493	12	11	30	78	80	84.000000	336.000000
129362640	175746	13	12	29	40	120	84.000000	336.000000
129362640	175746	14	13	30	40	120	84.000000	336.000000
129362640	175746	15	14	33	28	120	84.000000	336.000000
129538386	175747	10	9	16	36	100	84.125000	336.500000
129538386	175747	13	12	29	40	120	84.125000	336.500000
129538386	175747	14	13	30	40	120	84.125000	336.500000
129538386	175747	15	14	33	28	120	84.125000	336.500000
129714133	351493	3	2	80	71	120	84.250000	337.000000
129714133	175746	9	8	9	83	90	84.250000	337.000000
129714133	175746	9	8	9	95	90	84.250000	337.000000
129714133	175746	10	9	16	38	100	84.250000	337.000000
129714133	175746	10	9	16	46	80	84.250000	337.000000
129714133	351493	12	11	30	59	120	84.250000	337.000000
129714133	351493	12	11	30	71	80	84.250000	337.000000
129714133	175746	13	12	29	52	120	84.250000	337.000000
129714133	175746	14	13	30	52	120	84.250000	337.000000
129714133	175746	15	14	33	40	120	84.250000	337.000000
129889879	175747	10	9	16	36	100	84.375000	337.500000
129889879	175747	13	12	29	40	120	84.375000	337.500000
129889879	175747	14	13	30	40	120	84.375000	337.500000
129889879	175747	15	14	33	28	120	84.375000	337.500000
130065626	351493	3	2	80	73	120	84.500000	338.000000
130065626	175746	9	8	9	85	90	84.500000	338.000000
130065626	175746	9	8	9	97	90	84.500000	338.000000
130065626	175746	10	9	16	36	100	84.500000	338.000000
130065626	175746	10	9	16	46	80	84.500000	338.000000
130065626	351493	12	11	30	61	120	84.500000	338.000000
130065626	351493	12	11	30	73	80	84.500000	338.000000
130065626	175746	13	12	29	40	120	84.500000	338.000000
130065626	175746	14	13	30	40	120	84.500000	338.000000
130065626	175746	15	14	33	28	120	84.500000	338.000000
130241372	175747	10	9	16	36	100	84.625000	338.500000
130241372	175747	13	12	29	52	120	84.625000	338.500000
130241372	175747	14	13	30	52	120	84.625000	338.500000
130241372	175747	15	14	33	40	120	84.625000	338.500000
130417119	351493	3	2	80	71	120	84.750000	339.000000
130417119	175746	9	8	9	83	90	84.750000	339.000000
130417119	175746	9	8	9	95	90	84.750000	339.000000
130417119	175746	10	9	16	38	100	84.750000	339.000000
130417119	175746	10	9	16	46	80	84.750000	339.000000
130417119	351493	12	11	30	59	120	84.750000	339.000000
130417119	351493	12	11	30	71	80	84.750000	339.000000
130417119	175746	13	12	29	40	120	84.750000	339.000000
130417119	175746	14	13	30	40	120	84.750000	339.000000
130417119	175746	15	14	33	28	120	84.750000	339.000000
130592865	175747	10	9	16	36	100	84.875000	339.500000
130592865	175747	13	12	29	52	120	84.875000	339.500000
130592865	175747	14	13	30	52	120	84.875000	339.500000
130592865	175747	15	14	33	40	120	84.875000	339.500000
130768612	1405972	2	1	48	63	100	85.000000	340.000000
130768612	175746	3	2	80	66	120	85.000000	340.000000
130768612	175746	9	8	9	78	90	85.000000	340.000000
130768612	175746	9	8	9	90	90	85.000000	340.000000
130768612	175746	10	9	16	36	100	85.000000	340.000000
130768612	175746	10	9	16	46	80	85.000000	340.000000
130768612	175746	12	11	30	54	120	85.000000	340.000000
130768612	175746	12	11	30	66	80	85.000000	340.000000
130768612	175746	13	12	29	40	120	85.000000	340.000000
130768612	175746	14	13	30	40	120	85.000000	340.000000
130768612	175746	15	14	33	28	120	85.000000	340.000000
130944358	175747	3	2	80	71	120	85.125000	340.500000
130944358	175747	9	8	9	83	90	85.125000	340.500000
130944358	175747	9	8	9	95	90	85.125000	340.500000
130944358	175747	10	9	16	36	100	85.125000	340.500000
130944358	175747	12	11	30	59	120	85.125000	340.500000
130944358	175747	12	11	30	71	80	85.125000	340.500000
130944358	175747	13	12	29	52	120	85.125000	340.500000
130944358	175747	14	13	30	52	120	85.125000	340.500000
130944358	175747	15	14	33	40	120	85.125000	340.500000
131120105	175746	10	9	16	38	100	85.250000	341.000000
131120105	175746	10	9	16	46	80	85.250000	341.000000
131120105	175746	13	12	29	40	120	85.250000	341.000000
131120105	175746	14	13	30	40	120	85.250000	341.000000
131120105	175746	15	14	33	28	120	85.250000	341.000000
131295851	351493	3	2	80	73	120	85.375000	341.500000
131295851	175747	9	8	9	85	90	85.375000	341.500000
131295851	175747	9	8	9	97	90	85.375000	341.500000
131295851	175747	10	9	16	36	100	85.375000	341.500000
131295851	351493	12	11	30	61	120	85.375000	341.500000
131295851	351493	12	11	30	73	80	85.375000	341.500000
131295851	175747	13	12	29	52	120	85.375000	341.500000
131295851	175747	14	13	30	52	120	85.375000	341.500000
131295851	175747	15	14	33	40	120	85.375000	341.500000
131471598	175746	10	9	16	36	100	85.500000	342.000000
131471598	175746	10	9	16	46	80	85.500000	342.000000
131471598	175746	13	12	29	40	120	85.500000	342.000000
131471598	175746	14	13	30	40	120	85.500000	342.000000
131471598	175746	15	14	33	28	120	85.500000	342.000000
131647344	87873	3	2	80	75	120	85.625000	342.500000
131647344	87873	9	8	9	87	90	85.625000	342.500000
131647344	87873	9	8	9	99	90	85.625000	342.500000
131647344	175747	10	9	16	36	100	85.625000	342.500000
131647344	87873	12	11	30	63	120	85.625000	342.500000
131647344	87873	12	11	30	75	80	85.625000	342.500000
131647344	175747	13	12	29	52	120	85.625000	342.500000
131647344	175747	14	13	30	52	120	85.625000	342.500000
131647344	175747	15	14	33	40	120	85.625000	342.500000
131735217	87874	3	2	80	73	120	85.687500	342.750000
131735217	87874	9	8	9	85	90	85.687500	342.750000
131735217	87874	9	8	9	97	90	85.687500	342.750000
131735217	87874	12	11	30	61	120	85.687500	342.750000
131735217	87874	12	11	30	73	80	85.687500	342.750000
131823091	351493	3	2	80	71	120	85.750000	343.000000
131823091	175746	9	8	9	83	90	85.750000	343.000000
131823091	175746	9	8	9	95	90	85.750000	343.000000
131823091	175746	10	9	16	38	100	85.750000	343.000000
131823091	175746	10	9	16	46	80	85.750000	343.000000
131823091	351493	12	11	30	59	120	85.750000	343.000000
131823091	351493	12	11	30	71	80	85.750000	343.000000
131823091	175746	13	12	29	40	120	85.750000	343.000000
131823091	175746	14	13	30	40	120	85.750000	343.000000
131823091	175746	15	14	33	28	120	85.750000	343.000000
131998837	175747	10	9	16	36	100	85.875000	343.500000
131998837	175747	13	12	29	52	120	85.875000	343.500000
131998837	175747	14	13	30	52	120	85.875000	343.500000
131998837	175747	15	14	33	40	120	85.875000	343.500000
132174584	1405972	2	1	48	42	100	86.000000	344.000000
132174584	1405972	2	1	48	49	100	86.000000	344.000000
132174584	702986	2	1	48	61	100	86.000000	344.000000
132174584	351493	3	2	80	63	120	86.000000	344.000000
132174584	351493	3	2	80	66	120	86.000000	344.000000
132174584	175746	9	8	9	78	90	86.000000	344.000000
132174584	175746	9	8	9	90	90	86.000000	344.000000
132174584	175746	10	9	16	36	100	86.000000	344.000000
132174584	175746	10	9	16	46	80	86.000000	344.000000
132174584	351493	12	11	30	66	120	86.000000	344.000000
132174584	351493	12	11	30	78	80	86.000000	344.000000
132174584	175746	13	12	29	42	120	86.000000	344.000000
132174584	175746	14	13	30	42	120	86.000000	344.000000
132174584	175746	15	14	33	30	120	86.000000	344.000000
132350330	175747	10	9	16	36	100	86.125000	344.500000
132350330	175747	13	12	29	42	120	86.125000	344.500000
132350330	175747	14	13	30	42	120	86.125000	344.500000
132350330	175747	15	14	33	30	120	86.125000	344.500000
132526077	351493	3	2	80	68	120	86.250000	345.000000
132526077	351493	3	2	80	71	120	86.250000	345.000000
132526077	175746	9	8	9	83	90	86.250000	345.000000
132526077	175746	9	8	9	95	90	86.250000	345.000000
132526077	175746	10	9	16	38	100	86.250000	345.000000
132526077	175746	10	9	16	46	80	86.250000	345.000000
132526077	351493	12	11	30	59	120	86.250000	345.000000
132526077	351493	12	11	30	71	80	86.250000	345.000000
132526077	175746	13	12	29	54	120	86.250000	345.000000
132526077	175746	14	13	30	54	120	86.250000	345.000000
132526077	175746	15	14	33	42	120	86.250000	345.000000
132701823	175747	10	9	16	36	100	86.375000	345.500000
132701823	175747	13	12	29	42	120	86.375000	345.500000
132701823	175747	14	13	30	42	120	86.375000	345.500000
132701823	175747	15	14	33	30	120	86.375000	345.500000
132877570	702986	2	1	48	63	100	86.500000	346.000000
132877570	175746	3	2	80	73	120	86.500000	346.000000
132877570	175746	3	2	80	83	120	86.500000	346.000000
132877570	175746	9	8	9	85	90	86.500000	346.000000
132877570	175746	9	8	9	97	90	86.500000	346.000000
132877570	175746	10	9	16	36	100	86.500000	346.000000
132877570	175746	10	9	16	46	80	86.500000	346.000000
132877570	175746	12	11	30	61	120	86.500000	346.000000
132877570	175746	12	11	30	73	80	86.500000	346.000000
132877570	175746	13	12	29	42	120	86.500000	346.000000
132877570	175746	14	13	30	42	120	86.500000	346.000000
132877570	175746	15	14	33	30	120	86.500000	346.000000
133053316	175747	3	2	80	76	120	86.625000	346.500000
133053316	175747	3	2	80	82	120	86.625000	346.500000
133053316	175747	9	8	9	88	90	86.625000	346.500000
133053316	175747	9	8	9	100	90	86.625000	346.500000
133053316	175747	10	9	16	36	100	86.625000	346.500000
133053316	175747	12	11	30	64	120	86.625000	346.500000
133053316	175747	12	11	30	76	80	86.625000	346.500000
133053316	175747	13	12	29	54	120	86.625000	346.500000
133053316	175747	14	13	30	54	120	86.625000	346.500000
133053316	175747	15	14	33	42	120	86.625000	346.500000
133229063	175746	10	9	16	38	100	86.750000	347.000000
133229063	175746	10	9	16	46	80	86.750000	347.000000
133229063	175746	13	12	29	42	120	86.750000	347.000000
133229063	175746	14	13	30	42	120	86.750000	347.000000
133229063	175746	15	14	33	30	120	86.750000	347.000000
133404809	175747	3	2	80	75	120	86.875000	347.500000
133404809	175747	3	2	80	78	120	86.875000	347.500000
133404809	175747	9	8	9	87	90	86.875000	347.500000
133404809	175747	9	8	9	99	90	86.875000	347.500000
133404809	175747	10	9	16	36	100	86.875000	347.500000
133404809	351493	12	11	30	66	120	86.875000	347.500000
133404809	351493	12	11	30	78	80	86.875000	347.500000
133404809	175747	13	12	29	54	120	86.875000	347.500000
133404809	175747	14	13	30	54	120	86.875000	347.500000
133404809	175747	15	14	33	42	120	86.875000	347.500000
133580556	1405972	2	1	48	44	100	87.000000	348.000000
133580556	1405972	2	1	48	51	100	87.000000	348.000000
133580556	1405972	2	1	48	66	100	87.000000	348.000000
133580556	175746	10	9	16	36	100	87.000000	348.000000
133580556	175746	10	9	16	46	80	87.000000	348.000000
133580556	175746	13	12	29	44	120	87.000000	348.000000
133580556	175746	14	13	30	44	120	87.000000	348.000000
133580556	175746	15	14	33	32	120	87.000000	348.000000
133756302	175747	3	2	80	71	120	87.125000	348.500000
133756302	175747	3	2	80	75	120	87.125000	348.500000
133756302	87873	9	8	9	88	90	87.125000	348.500000
133756302	87873	9	8	9	100	90	87.125000	348.500000
133756302	175747	10	9	16	36	100	87.125000	348.500000
133756302	175747	12	11	30	63	120	87.125000	348.500000
133756302	175747	12	11	30	75	80	87.125000	348.500000
133756302	175747	13	12	29	56	120	87.125000	348.500000
133756302	175747	14	13	30	56	120	87.125000	348.500000
133756302	175747	15	14	33	44	120	87.125000	348.500000
133844175	87874	9	8	9	87	90	87.187500	348.750000
133844175	87874	9	8	9	99	90	87.187500	348.750000
133932049	175746	3	2	80	70	120	87.250000	349.000000
133932049	175746	3	2	80	73	120	87.250000	349.000000
133932049	175746	9	8	9	85	90	87.250000	349.000000
133932049	175746	9	8	9	97	90	87.250000	349.000000
133932049	175746	10	9	16	38	100	87.250000	349.000000
133932049	175746	10	9	16	46	80	87.250000	349.000000
133932049	175746	12	11	30	61	120	87.250000	349.000000
133932049	175746	12	11	30	73	80	87.250000	349.000000
133932049	175746	13	12	29	44	120	87.250000	349.000000
133932049	175746	14	13	30	44	120	87.250000	349.000000
133932049	175746	15	14	33	32	120	87.250000	349.000000
133932049	1054479	16	15	119	69	100	87.250000	349.000000
134107795	351493	3	2	80	68	120	87.375000	349.500000
134107795	351493	3	2	80	71	120	87.375000	349.500000
134107795	175747	10	9	16	36	100	87.375000	349.500000
134107795	351493	12	11	30	59	120	87.375000	349.500000
134107795	351493	12	11	30	71	80	87.375000	349.500000
134107795	175747	13	12	29	56	120	87.375000	349.500000
134107795	175747	14	13	30	56	120	87.375000	349.500000
134107795	175747	15	14	33	44	120	87.375000	349.500000
134283542	175746	9	8	9	83	90	87.500000	350.000000
134283542	175746	9	8	9	95	90	87.500000	350.000000
134283542	175746	10	9	16	36	100	87.500000	350.000000
134283542	175746	10	9	16	46	80	87.500000	350.000000
134283542	175746	13	12	29	44	120	87.500000	350.000000
134283542	175746	14	13	30	44	120	87.500000	350.000000
134283542	175746	15	14	33	32	120	87.500000	350.000000
134459288	175747	3	2	80	70	120	87.625000	350.500000
134459288	175747	3	2	80	73	120	87.625000	350.500000
134459288	175747	10	9	16	36	100	87.625000	350.500000
134459288	175747	12	11	30	61	120	87.625000	350.500000
134459288	175747	12	11	30	73	80	87.625000	350.500000
134459288	175747	13	12	29	56	120	87.625000	350.500000
134459288	175747	14	13	30	56	120	87.625000	350.500000
134459288	175747	15	14	33	44	120	87.625000	350.500000
134635035	175746	3	2	80	68	120	87.750000	351.000000
134635035	175746	3	2	80	71	120	87.750000	351.000000
134635035	175746	9	8	9	78	90	87.750000	351.000000
134635035	175746	9	8	9	90	90	87.750000	351.000000
134635035	175746	10	9	16	38	100	87.750000	351.000000
134635035	175746	10	9	16	46	80	87.750000	351.000000
134635035	175746	12	11	30	59	120	87.750000	351.000000
134635035	175746	12	11	30	71	80	87.750000	351.000000
134635035	175746	13	12	29	44	120	87.750000	351.000000
134635035	175746	14	13	30	44	120	87.750000	351.000000
134635035	175746	15	14	33	32	120	87.750000	351.000000
134810781	175747	3	2	80	63	120	87.875000	351.500000
134810781	175747	3	2	80	66	120	87.875000	351.500000
134810781	175747	10	9	16	36	100	87.875000	351.500000
134810781	175747	12	11	30	54	120	87.875000	351.500000
134810781	175747	12	11	30	66	80	87.875000	351.500000
134810781	175747	13	12	29	56	120	87.875000	351.500000
134810781	175747	14	13	30	56	120	87.875000	351.500000
134810781	175747	15	14	33	44	120	87.875000	351.500000
134986528	2813596	5	4	0	51	100	88.000000	352.000000
134986528	2813596	5	4	0	54	100	88.000000	352.000000
134986528	2813596	5	4	0	58	100	88.000000	352.000000
134986528	2813596	5	4	0	63	100	88.000000	352.000000
134986528	351699	10	9	16	49	80	88.000000	352.000000
135338227	175850	2	1	48	70	100	88.125000	352.500000
135338227	175850	2	1	48	75	100	88.125000	352.500000
135338227	175850	2	1	48	78	100	88.125000	352.500000
135338227	175850	3	2	80	78	120	88.125000	352.500000
135689927	87221	2	1	48	70	100	88.250000	353.000000
135689927	87221	2	1	48	75	100	88.250000	353.000000
135689927	87221	2	1	48	78	100	88.250000	353.000000
135689927	87221	3	2	80	78	120	88.250000	353.000000
135865776	87222	2	1	48	70	100	88.312500	353.250000
135865776	87222	2	1	48	75	100	88.312500	353.250000
135865776	87222	2	1	48	78	100	88.312500	353.250000
135865776	87222	3	2	80	78	120	88.312500	353.250000
136217476	351699	2	1	48	70	100	88.437500	353.750000
136217476	351699	2	1	48	75	100	88.437500	353.750000
136217476	351699	2	1	48	78	100	88.437500	353.750000
136217476	351699	3	2	80	78	120	88.437500	353.750000
136569175	175850	2	1	48	70	100	88.562500	354.250000
136569175	175850	2	1	48	75	100	88.562500	354.250000
136569175	175850	2	1	48	78	100	88.562500	354.250000
136569175	175850	3	2	80	78	120	88.562500	354.250000
136745025	263071	2	1	48	68	100	88.625000	354.500000
136745025	263071	2	1	48	73	100	88.625000	354.500000
136745025	263071	2	1	48	76	100	88.625000	354.500000
136745025	263071	3	2	80	76	120	88.625000	354.500000
137096725	263071	2	1	48	66	100	88.750000	355.000000
137096725	263071	2	1	48	71	100	88.750000	355.000000
137096725	263071	2	1	48	75	100	88.750000	355.000000
137096725	263071	3	2	80	75	120	88.750000	355.000000
137448424	263071	2	1	48	68	100	88.875000	355.500000
137448424	263071	2	1	48	73	100	88.875000	355.500000
137448424	263071	2	1	48	76	100	88.875000	355.500000
137448424	263071	3	2	80	76	120	88.875000	355.500000
137800124	703399	2	1	48	71	100	89.000000	356.000000
137800124	703399	2	1	48	75	100	89.000000	356.000000
137800124	703399	2	1	48	78	100	89.000000	356.000000
137800124	703399	3	2	80	78	120	89.000000	356.000000
137800124	2813596	5	4	0	52	100	89.000000	356.000000
137800124	2813596	5	4	0	56	100	89.000000	356.000000
137800124	2813596	5	4	0	59	100	89.000000	356.000000
137800124	2813596	5	4	0	64	100	89.000000	356.000000
138503523	351699	2	1	48	75	100	89.250000	357.000000
138503523	351699	2	1	48	78	100	89.250000	357.000000
138503523	351699	2	1	48	83	100	89.250000	357.000000
138503523	351699	3	2	80	83	120	89.250000	357.000000
139031072	1230948	2	1	48	71	100	89.437500	357.750000
139031072	1230948	2	1	48	75	100	89.437500	357.750000
139031072	1230948	2	1	48	78	100	89.437500	357.750000
139031072	1230948	3	2	80	78	120	89.437500	357.750000
139910321	351699	12	11	30	61	120	89.750000	359.000000
140262020	351700	12	11	30	63	120	89.875000	359.500000
140613720	2813596	5	4	0	51	100	90.000000	360.000000
140613720	2813596	5	4	0	54	100	90.000000	360.000000
140613720	2813596	5	4	0	58	100	90.000000	360.000000
140613720	2813596	5	4	0	63	100	90.000000	360.000000
140613720	703399	12	11	30	54	120	90.000000	360.000000
140965419	175850	2	1	48	70	100	90.125000	360.500000
140965419	175850	2	1	48	75	100	90.125000	360.500000
140965419	175850	2	1	48	78	100	90.125000	360.500000
140965419	175850	3	2	80	78	120	90.125000	360.500000
141317119	87221	2	1	48	70	100	90.250000	361.000000
141317119	87221	2	1	48	75	100	90.250000	361.000000
141317119	87221	2	1	48	78	100	90.250000	361.000000
141317119	87221	3	2	80	78	120	90.250000	361.000000
141492968	87222	2	1	48	70	100	90.312500	361.250000
141492968	87222	2	1	48	75	100	90.312500	361.250000
141492968	87222	2	1	48	78	100	90.312500	361.250000
141492968	87222	3	2	80	78	120	90.312500	361.250000
141844668	351699	2	1	48	70	100	90.437500	361.750000
141844668	351699	2	1	48	75	100	90.437500	361.750000
141844668	351699	2	1	48	78	100	90.437500	361.750000
141844668	351699	3	2	80	78	120	90.437500	361.750000
142196367	175850	2	1	48	70	100	90.562500	362.250000
142196367	175850	2	1	48	75	100	90.562500	362.250000
142196367	175850	2	1	48	78	100	90.562500	362.250000
142196367	175850	3	2	80	78	120	90.562500	362.250000
142372217	351700	2	1	48	68	100	90.625000	362.500000
142372217	351700	2	1	48	73	100	90.625000	362.500000
142372217	351700	2	1	48	76	100	90.625000	362.500000
142372217	351700	3	2	80	76	120	90.625000	362.500000
142723917	351699	2	1	48	66	100	90.750000	363.000000
142723917	351699	2	1	48	71	100	90.750000	363.000000
142723917	351699	2	1	48	75	100	90.750000	363.000000
142723917	351699	3	2	80	75	120	90.750000	363.000000
143075616	351700	2	1	48	68	100	90.875000	363.500000
143075616	351700	2	1	48	73	100	90.875000	363.500000
143075616	351700	2	1	48	76	100	90.875000	363.500000
143075616	351700	3	2	80	76	120	90.875000	363.500000
143427316	351699	2	1	48	70	100	91.000000	364.000000
143427316	351699	2	1	48	75	100	91.000000	364.000000
143427316	351699	2	1	48	78	100	91.000000	364.000000
143427316	351699	3	2	80	78	120	91.000000	364.000000
143427316	1055098	5	4	0	54	100	91.000000	364.000000
143427316	1055098	5	4	0	58	100	91.000000	364.000000
143427316	1055098	5	4	0	61	100	91.000000	364.000000
143427316	1055098	5	4	0	66	100	91.000000	364.000000
143779015	351700	2	1	48	66	100	91.125000	364.500000
143779015	351700	2	1	48	70	100	91.125000	364.500000
143779015	351700	2	1	48	73	100	91.125000	364.500000
143779015	351700	3	2	80	73	120	91.125000	364.500000
144130715	351699	2	1	48	63	100	91.250000	365.000000
144130715	351699	2	1	48	66	100	91.250000	365.000000
144130715	351699	2	1	48	70	100	91.250000	365.000000
144130715	351699	3	2	80	70	120	91.250000	365.000000
144482414	1758498	2	1	48	63	100	91.375000	365.500000
144482414	1758498	2	1	48	68	100	91.375000	365.500000
144482414	1758498	2	1	48	71	100	91.375000	365.500000
144482414	1758498	3	2	80	71	120	91.375000	365.500000
144482414	1758498	5	4	0	56	100	91.375000	365.500000
144482414	1758498	5	4	0	59	100	91.375000	365.500000
144482414	1758498	5	4	0	63	100	91.375000	365.500000
144482414	1758498	5	4	0	68	100	91.375000	365.500000
144834114	1406798	16	15	119	57	100	91.500000	366.000000
145185813	351700	12	11	30	51	120	91.625000	366.500000
145537513	351699	12	11	30	49	120	91.750000	367.000000
145889212	351700	12	11	30	47	120	91.875000	367.500000
146240912	2811944	2	1	48	39	100	92.000000	368.000000
146240912	2811944	2	1	48	46	100	92.000000	368.000000
146240912	175746	10	9	16	36	100	92.000000	368.000000
146240912	175746	10	9	16	46	80	92.000000	368.000000
146240912	175746	10	9	16	49	100	92.000000	368.000000
146240912	175746	13	12	29	39	120	92.000000	368.000000
146240912	175746	14	13	30	39	120	92.000000	368.000000
146240912	175746	15	14	33	27	120	92.000000	368.000000
146416658	175747	10	9	16	36	100	92.125000	368.500000
146416658	175747	13	12	29	39	120	92.125000	368.500000
146416658	175747	14	13	30	39	120	92.125000	368.500000
146416658	175747	15	14	33	27	120	92.125000	368.500000
146592405	175746	2	1	48	66	100	92.250000	369.000000
146592405	175746	2	1	48	70	100	92.250000	369.000000
146592405	175746	2	1	48	75	100	92.250000	369.000000
146592405	175746	2	1	48	78	100	92.250000	369.000000
146592405	175746	3	2	80	66	120	92.250000	369.000000
146592405	175746	3	2	80	78	120	92.250000	369.000000
146592405	175746	3	2	80	90	100	92.250000	369.000000
146592405	175746	10	9	16	38	100	92.250000	369.000000
146592405	175746	10	9	16	46	80	92.250000	369.000000
146592405	175746	13	12	29	51	120	92.250000	369.000000
146592405	175746	14	13	30	51	120	92.250000	369.000000
146592405	175746	15	14	33	39	120	92.250000	369.000000
146768151	175747	10	9	16	36	100	92.375000	369.500000
146768151	175747	13	12	29	39	120	92.375000	369.500000
146768151	175747	14	13	30	39	120	92.375000	369.500000
146768151	175747	15	14	33	27	120	92.375000	369.500000
146943898	175746	2	1	48	66	100	92.500000	370.000000
146943898	175746	2	1	48	70	100	92.500000	370.000000
146943898	175746	2	1	48	75	100	92.500000	370.000000
146943898	175746	2	1	48	78	100	92.500000	370.000000
146943898	87873	3	2	80	66	120	92.500000	370.000000
146943898	87873	3	2	80	78	120	92.500000	370.000000
146943898	87873	3	2	80	90	100	92.500000	370.000000
146943898	175746	10	9	16	36	100	92.500000	370.000000
146943898	175746	10	9	16	46	80	92.500000	370.000000
146943898	175746	13	12	29	39	120	92.500000	370.000000
146943898	175746	14	13	30	39	120	92.500000	370.000000
146943898	175746	15	14	33	27	120	92.500000	370.000000
147119644	175747	2	1	48	66	100	92.625000	370.500000
147119644	175747	2	1	48	70	100	92.625000	370.500000
147119644	175747	2	1	48	75	100	92.625000	370.500000
147119644	175747	2	1	48	78	100	92.625000	370.500000
147119644	87873	3	2	80	66	120	92.625000	370.500000
147119644	87873	3	2	80	78	120	92.625000	370.500000
147119644	87873	3	2	80	90	100	92.625000	370.500000
147119644	175747	10	9	16	36	100	92.625000	370.500000
147119644	175747	13	12	29	51	120	92.625000	370.500000
147119644	175747	14	13	30	51	120	92.625000	370.500000
147119644	175747	15	14	33	39	120	92.625000	370.500000
147295391	175746	10	9	16	38	100	92.750000	371.000000
147295391	175746	10	9	16	46	80	92.750000	371.000000
147295391	175746	13	12	29	39	120	92.750000	371.000000
147295391	175746	14	13	30	39	120	92.750000	371.000000
147295391	175746	15	14	33	27	120	92.750000	371.000000
147471137	351493	2	1	48	66	100	92.875000	371.500000
147471137	351493	2	1	48	70	100	92.875000	371.500000
147471137	351493	2	1	48	75	100	92.875000	371.500000
147471137	351493	2	1	48	78	100	92.875000	371.500000
147471137	351493	3	2	80	66	120	92.875000	371.500000
147471137	351493	3	2	80	78	120	92.875000	371.500000
147471137	351493	3	2	80	90	100	92.875000	371.500000
147471137	175747	10	9	16	36	100	92.875000	371.500000
147471137	175747	13	12	29	39	120	92.875000	371.500000
147471137	175747	14	13	30	39	120	92.875000	371.500000
147471137	175747	15	14	33	27	120	92.875000	371.500000
147646884	175746	10	9	16	36	100	93.000000	372.000000
147646884	175746	10	9	16	46	80	93.000000	372.000000
147646884	175746	13	12	29	39	120	93.000000	372.000000
147646884	175746	14	13	30	39	120	93.000000	372.000000
147646884	175746	15	14	33	27	120	93.000000	372.000000
147822630	175747	2	1	48	66	100	93.125000	372.500000
147822630	175747	2	1	48	70	100	93.125000	372.500000
147822630	175747	2	1	48	75	100	93.125000	372.500000
147822630	175747	2	1	48	78	100	93.125000	372.500000
147822630	175747	3	2	80	66	120	93.125000	372.500000
147822630	175747	3	2	80	78	120	93.125000	372.500000
147822630	175747	3	2	80	90	100	93.125000	372.500000
147822630	175747	10	9	16	36	100	93.125000	372.500000
147822630	175747	13	12	29	39	120	93.125000	372.500000
147822630	175747	14	13	30	39	120	93.125000	372.500000
147822630	175747	15	14	33	27	120	93.125000	372.500000
147998377	263619	2	1	48	64	100	93.250000	373.000000
147998377	263619	2	1	48	68	100	93.250000	373.000000
147998377	263619	2	1	48	73	100	93.250000	373.000000
147998377	263619	2	1	48	76	100	93.250000	373.000000
147998377	263619	3	2	80	64	120	93.250000	373.000000
147998377	263619	3	2	80	76	120	93.250000	373.000000
147998377	263619	3	2	80	88	100	93.250000	373.000000
147998377	175746	10	9	16	38	100	93.250000	373.000000
147998377	175746	10	9	16	46	80	93.250000	373.000000
147998377	175746	13	12	29	51	120	93.250000	373.000000
147998377	175746	14	13	30	51	120	93.250000	373.000000
147998377	175746	15	14	33	39	120	93.250000	373.000000
148174123	175747	10	9	16	36	100	93.375000	373.500000
148174123	175747	13	12	29	39	120	93.375000	373.500000
148174123	175747	14	13	30	39	120	93.375000	373.500000
148174123	175747	15	14	33	27	120	93.375000	373.500000
148349870	263619	2	1	48	63	100	93.500000	374.000000
148349870	263619	2	1	48	66	100	93.500000	374.000000
148349870	263619	2	1	48	71	100	93.500000	374.000000
148349870	263619	2	1	48	75	100	93.500000	374.000000
148349870	263619	3	2	80	63	120	93.500000	374.000000
148349870	263619	3	2	80	75	120	93.500000	374.000000
148349870	263619	3	2	80	87	100	93.500000	374.000000
148349870	175746	10	9	16	36	100	93.500000	374.000000
148349870	175746	10	9	16	46	80	93.500000	374.000000
148349870	175746	13	12	29	39	120	93.500000	374.000000
148349870	175746	14	13	30	39	120	93.500000	374.000000
148349870	175746	15	14	33	27	120	93.500000	374.000000
148525616	175747	10	9	16	36	100	93.625000	374.500000
148525616	175747	13	12	29	51	120	93.625000	374.500000
148525616	175747	14	13	30	51	120	93.625000	374.500000
148525616	175747	15	14	33	39	120	93.625000	374.500000
148701363	263619	2	1	48	64	100	93.750000	375.000000
148701363	263619	2	1	48	68	100	93.750000	375.000000
148701363	263619	2	1	48	73	100	93.750000	375.000000
148701363	263619	2	1	48	76	100	93.750000	375.000000
148701363	263619	3	2	80	64	120	93.750000	375.000000
148701363	263619	3	2	80	76	120	93.750000	375.000000
148701363	263619	3	2	80	88	100	93.750000	375.000000
148701363	175746	10	9	16	38	100	93.750000	375.000000
148701363	175746	10	9	16	46	80	93.750000	375.000000
148701363	175746	13	12	29	39	120	93.750000	375.000000
148701363	175746	14	13	30	39	120	93.750000	375.000000
148701363	175746	15	14	33	27	120	93.750000	375.000000
148877109	175747	10	9	16	36	100	93.875000	375.500000
148877109	175747	13	12	29	39	120	93.875000	375.500000
148877109	175747	14	13	30	39	120	93.875000	375.500000
148877109	175747	15	14	33	27	120	93.875000	375.500000
149052856	2811944	2	1	48	40	100	94.000000	376.000000
149052856	1405972	2	1	48	47	100	94.000000	376.000000
149052856	702986	2	1	48	66	100	94.000000	376.000000
149052856	702986	2	1	48	71	100	94.000000	376.000000
149052856	702986	2	1	48	75	100	94.000000	376.000000
149052856	702986	2	1	48	78	100	94.000000	376.000000
149052856	702986	3	2	80	66	120	94.000000	376.000000
149052856	702986	3	2	80	78	120	94.000000	376.000000
149052856	702986	3	2	80	90	100	94.000000	376.000000
149052856	87873	5	4	0	88	120	94.000000	376.000000
149052856	175746	10	9	16	36	100	94.000000	376.000000
149052856	175746	10	9	16	46	80	94.000000	376.000000
149052856	175746	13	12	29	40	120	94.000000	376.000000
149052856	175746	14	13	30	40	120	94.000000	376.000000
149052856	175746	15	14	33	28	120	94.000000	376.000000
149228602	87873	5	4	0	92	120	94.125000	376.500000
149228602	175747	10	9	16	36	100	94.125000	376.500000
149228602	175747	13	12	29	40	120	94.125000	376.500000
149228602	175747	14	13	30	40	120	94.125000	376.500000
149228602	175747	15	14	33	28	120	94.125000	376.500000
149404349	87873	5	4	0	95	120	94.250000	377.000000
149404349	175746	10	9	16	38	100	94.250000	377.000000
149404349	175746	10	9	16	46	80	94.250000	377.000000
149404349	175746	13	12	29	52	120	94.250000	377.000000
149404349	175746	14	13	30	52	120	94.250000	377.000000
149404349	175746	15	14	33	40	120	94.250000	377.000000
149580095	87873	5	4	0	100	120	94.375000	377.500000
149580095	175747	10	9	16	36	100	94.375000	377.500000
149580095	175747	13	12	29	40	120	94.375000	377.500000
149580095	175747	14	13	30	40	120	94.375000	377.500000
149580095	175747	15	14	33	28	120	94.375000	377.500000
149755842	351493	2	1	48	71	100	94.500000	378.000000
149755842	351493	2	1	48	75	100	94.500000	378.000000
149755842	351493	2	1	48	78	100	94.500000	378.000000
149755842	351493	2	1	48	83	100	94.500000	378.000000
149755842	351493	3	2	80	71	120	94.500000	378.000000
149755842	351493	3	2	80	83	120	94.500000	378.000000
149755842	351493	3	2	80	95	100	94.500000	378.000000
149755842	87873	5	4	0	95	120	94.500000	378.000000
149755842	175746	10	9	16	36	100	94.500000	378.000000
149755842	175746	10	9	16	46	80	94.500000	378.000000
149755842	175746	13	12	29	40	120	94.500000	378.000000
149755842	175746	14	13	30	40	120	94.500000	378.000000
149755842	175746	15	14	33	28	120	94.500000	378.000000
149931588	87873	5	4	0	92	120	94.625000	378.500000
149931588	175747	10	9	16	36	100	94.625000	378.500000
149931588	175747	13	12	29	52	120	94.625000	378.500000
149931588	175747	14	13	30	52	120	94.625000	378.500000
149931588	175747	15	14	33	40	120	94.625000	378.500000
150107335	175746	10	9	16	38	100	94.750000	379.000000
150107335	175746	10	9	16	46	80	94.750000	379.000000
150107335	175746	13	12	29	40	120	94.750000	379.000000
150107335	175746	14	13	30	40	120	94.750000	379.000000
150107335	175746	15	14	33	28	120	94.750000	379.000000
150283081	878733	2	1	48	66	100	94.875000	379.500000
150283081	878733	2	1	48	71	100	94.875000	379.500000
150283081	878733	2	1	48	75	100	94.875000	379.500000
150283081	878733	2	1	48	78	100	94.875000	379.500000
150283081	878733	3	2	80	66	120	94.875000	379.500000
150283081	878733	3	2	80	78	120	94.875000	379.500000
150283081	878733	3	2	80	90	100	94.875000	379.500000
150283081	87873	5	4	0	100	120	94.875000	379.500000
150283081	175747	10	9	16	36	100	94.875000	379.500000
150283081	175747	13	12	29	40	120	94.875000	379.500000
150283081	175747	14	13	30	40	120	94.875000	379.500000
150283081	175747	15	14	33	28	120	94.875000	379.500000
150458828	1405972	2	1	48	47	100	95.000000	380.000000
150458828	87873	5	4	0	88	120	95.000000	380.000000
150458828	175746	10	9	16	36	100	95.000000	380.000000
150458828	175746	10	9	16	46	80	95.000000	380.000000
150458828	175746	13	12	29	40	120	95.000000	380.000000
150458828	175746	14	13	30	40	120	95.000000	380.000000
150458828	175746	15	14	33	28	120	95.000000	380.000000
150634574	87873	5	4	0	92	120	95.125000	380.500000
150634574	175747	10	9	16	36	100	95.125000	380.500000
150634574	175747	13	12	29	40	120	95.125000	380.500000
150634574	175747	14	13	30	40	120	95.125000	380.500000
150634574	175747	15	14	33	28	120	95.125000	380.500000
150810321	87873	5	4	0	95	120	95.250000	381.000000
150810321	175746	10	9	16	38	100	95.250000	381.000000
150810321	175746	10	9	16	46	80	95.250000	381.000000
150810321	175746	13	12	29	52	120	95.250000	381.000000
150810321	175746	14	13	30	52	120	95.250000	381.000000
150810321	175746	15	14	33	40	120	95.250000	381.000000
150986067	87873	5	4	0	100	120	95.375000	381.500000
150986067	175747	10	9	16	36	100	95.375000	381.500000
150986067	175747	13	12	29	40	120	95.375000	381.500000
150986067	175747	14	13	30	40	120	95.375000	381.500000
150986067	175747	15	14	33	28	120	95.375000	381.500000
151161814	87873	5	4	0	88	120	95.500000	382.000000
151161814	175746	10	9	16	36	100	95.500000	382.000000
151161814	175746	10	9	16	46	80	95.500000	382.000000
151161814	351493	12	11	30	61	120	95.500000	382.000000
151161814	175746	13	12	29	40	120	95.500000	382.000000
151161814	175746	14	13	30	40	120	95.500000	382.000000
151161814	175746	15	14	33	28	120	95.500000	382.000000
151337560	87873	5	4	0	92	120	95.625000	382.500000
151337560	175747	10	9	16	36	100	95.625000	382.500000
151337560	175747	13	12	29	52	120	95.625000	382.500000
151337560	175747	14	13	30	52	120	95.625000	382.500000
151337560	175747	15	14	33	40	120	95.625000	382.500000
151513307	87873	5	4	0	95	120	95.750000	383.000000
151513307	175746	10	9	16	38	100	95.750000	383.000000
151513307	175746	10	9	16	46	80	95.750000	383.000000
151513307	351493	12	11	30	63	120	95.750000	383.000000
151513307	175746	13	12	29	40	120	95.750000	383.000000
151513307	175746	14	13	30	40	120	95.750000	383.000000
151513307	175746	15	14	33	28	120	95.750000	383.000000
151689053	87873	5	4	0	100	120	95.875000	383.500000
151689053	175747	10	9	16	36	100	95.875000	383.500000
151689053	175747	13	12	29	40	120	95.875000	383.500000
151689053	175747	14	13	30	40	120	95.875000	383.500000
151689053	175747	15	14	33	28	120	95.875000	383.500000
151864800	2811944	2	1	48	39	100	96.000000	384.000000
151864800	2811944	2	1	48	46	100	96.000000	384.000000
151864800	175746	10	9	16	36	100	96.000000	384.000000
151864800	175746	10	9	16	46	80	96.000000	384.000000
151864800	702986	12	11	30	54	120	96.000000	384.000000
151864800	175746	13	12	29	39	120	96.000000	384.000000
151864800	175746	14	13	30	39	120	96.000000	384.000000
151864800	175746	15	14	33	27	120	96.000000	384.000000
152040546	175747	10	9	16	36	100	96.125000	384.500000
152040546	175747	13	12	29	39	120	96.125000	384.500000
152040546	175747	14	13	30	39	120	96.125000	384.500000
152040546	175747	15	14	33	27	120	96.125000	384.500000
152216293	175746	2	1	48	66	100	96.250000	385.000000
152216293	175746	2	1	48	70	100	96.250000	385.000000
152216293	175746	2	1	48	75	100	96.250000	385.000000
152216293	175746	2	1	48	78	100	96.250000	385.000000
152216293	175746	3	2	80	66	120	96.250000	385.000000
152216293	175746	3	2	80	78	120	96.250000	385.000000
152216293	175746	3	2	80	90	100	96.250000	385.000000
152216293	175746	10	9	16	38	100	96.250000	385.000000
152216293	175746	10	9	16	46	80	96.250000	385.000000
152216293	175746	13	12	29	51	120	96.250000	385.000000
152216293	175746	14	13	30	51	120	96.250000	385.000000
152216293	175746	15	14	33	39	120	96.250000	385.000000
152392039	175747	10	9	16	36	100	96.375000	385.500000
152392039	175747	13	12	29	39	120	96.375000	385.500000
152392039	175747	14	13	30	39	120	96.375000	385.500000
152392039	175747	15	14	33	27	120	96.375000	385.500000
152567786	175746	2	1	48	66	100	96.500000	386.000000
152567786	175746	2	1	48	70	100	96.500000	386.000000
152567786	175746	2	1	48	75	100	96.500000	386.000000
152567786	175746	2	1	48	78	100	96.500000	386.000000
152567786	87873	3	2	80	66	120	96.500000	386.000000
152567786	87873	3	2	80	78	120	96.500000	386.000000
152567786	87873	3	2	80	90	100	96.500000	386.000000
152567786	175746	10	9	16	36	100	96.500000	386.000000
152567786	175746	10	9	16	46	80	96.500000	386.000000
152567786	175746	13	12	29	39	120	96.500000	386.000000
152567786	175746	14	13	30	39	120	96.500000	386.000000
152567786	175746	15	14	33	27	120	96.500000	386.000000
152743532	175747	2	1	48	66	100	96.625000	386.500000
152743532	175747	2	1	48	70	100	96.625000	386.500000
152743532	175747	2	1	48	75	100	96.625000	386.500000
152743532	175747	2	1	48	78	100	96.625000	386.500000
152743532	87873	3	2	80	66	120	96.625000	386.500000
152743532	87873	3	2	80	78	120	96.625000	386.500000
152743532	87873	3	2	80	90	100	96.625000	386.500000
152743532	175747	10	9	16	36	100	96.625000	386.500000
152743532	175747	13	12	29	51	120	96.625000	386.500000
152743532	175747	14	13	30	51	120	96.625000	386.500000
152743532	175747	15	14	33	39	120	96.625000	386.500000
152919279	175746	10	9	16	38	100	96.750000	387.000000
152919279	175746	10	9	16	46	80	96.750000	387.000000
152919279	175746	13	12	29	39	120	96.750000	387.000000
152919279	175746	14	13	30	39	120	96.750000	387.000000
152919279	175746	15	14	33	27	120	96.750000	387.000000
153095025	351493	2	1	48	66	100	96.875000	387.500000
153095025	351493	2	1	48	70	100	96.875000	387.500000
153095025	351493	2	1	48	75	100	96.875000	387.500000
153095025	351493	2	1	48	78	100	96.875000	387.500000
153095025	351493	3	2	80	66	120	96.875000	387.500000
153095025	351493	3	2	80	78	120	96.875000	387.500000
153095025	351493	3	2	80	90	100	96.875000	387.500000
153095025	175747	10	9	16	36	100	96.875000	387.500000
153095025	175747	13	12	29	39	120	96.875000	387.500000
153095025	175747	14	13	30	39	120	96.875000	387.500000
153095025	175747	15	14	33	27	120	96.875000	387.500000
153270772	175746	10	9	16	36	100	97.000000	388.000000
153270772	175746	10	9	16	46	80	97.000000	388.000000
153270772	175746	13	12	29	39	120	97.000000	388.000000
153270772	175746	14	13	30	39	120	97.000000	388.000000
153270772	175746	15	14	33	27	120	97.000000	388.000000
153446518	175747	2	1	48	66	100	97.125000	388.500000
153446518	175747	2	1	48	70	100	97.125000	388.500000
153446518	175747	2	1	48	75	100	97.125000	388.500000
153446518	175747	2	1	48	78	100	97.125000	388.500000
153446518	175747	3	2	80	66	120	97.125000	388.500000
153446518	175747	3	2	80	78	120	97.125000	388.500000
153446518	175747	3	2	80	90	100	97.125000	388.500000
153446518	175747	10	9	16	36	100	97.125000	388.500000
153446518	175747	13	12	29	39	120	97.125000	388.500000
153446518	175747	14	13	30	39	120	97.125000	388.500000
153446518	175747	15	14	33	27	120	97.125000	388.500000
153622265	351493	2	1	48	64	100	97.250000	389.000000
153622265	351493	2	1	48	68	100	97.250000	389.000000
153622265	351493	2	1	48	73	100	97.250000	389.000000
153622265	351493	2	1	48	76	100	97.250000	389.000000
153622265	351493	3	2	80	64	120	97.250000	389.000000
153622265	351493	3	2	80	76	120	97.250000	389.000000
153622265	351493	3	2	80	88	100	97.250000	389.000000
153622265	175746	10	9	16	38	100	97.250000	389.000000
153622265	175746	10	9	16	46	80	97.250000	389.000000
153622265	175746	13	12	29	51	120	97.250000	389.000000
153622265	175746	14	13	30	51	120	97.250000	389.000000
153622265	175746	15	14	33	39	120	97.250000	389.000000
153798011	175747	10	9	16	36	100	97.375000	389.500000
153798011	175747	13	12	29	39	120	97.375000	389.500000
153798011	175747	14	13	30	39	120	97.375000	389.500000
153798011	175747	15	14	33	27	120	97.375000	389.500000
153973758	351493	2	1	48	63	100	97.500000	390.000000
153973758	351493	2	1	48	66	100	97.500000	390.000000
153973758	351493	2	1	48	71	100	97.500000	390.000000
153973758	351493	2	1	48	75	100	97.500000	390.000000
153973758	351493	3	2	80	63	120	97.500000	390.000000
153973758	351493	3	2	80	75	120	97.500000	390.000000
153973758	351493	3	2	80	87	100	97.500000	390.000000
153973758	175746	10	9	16	36	100	97.500000	390.000000
153973758	175746	10	9	16	46	80	97.500000	390.000000
153973758	175746	13	12	29	39	120	97.500000	390.000000
153973758	175746	14	13	30	39	120	97.500000	390.000000
153973758	175746	15	14	33	27	120	97.500000	390.000000
154149504	175747	10	9	16	36	100	97.625000	390.500000
154149504	175747	13	12	29	51	120	97.625000	390.500000
154149504	175747	14	13	30	51	120	97.625000	390.500000
154149504	175747	15	14	33	39	120	97.625000	390.500000
154325251	351493	2	1	48	64	100	97.750000	391.000000
154325251	351493	2	1	48	68	100	97.750000	391.000000
154325251	351493	2	1	48	73	100	97.750000	391.000000
154325251	351493	2	1	48	76	100	97.750000	391.000000
154325251	351493	3	2	80	64	120	97.750000	391.000000
154325251	351493	3	2	80	76	120	97.750000	391.000000
154325251	351493	3	2	80	88	100	97.750000	391.000000
154325251	175746	10	9	16	38	100	97.750000	391.000000
154325251	175746	10	9	16	46	80	97.750000	391.000000
154325251	175746	13	12	29	39	120	97.750000	391.000000
154325251	175746	14	13	30	39	120	97.750000	391.000000
154325251	175746	15	14	33	27	120	97.750000	391.000000
154500997	175747	10	9	16	36	100	97.875000	391.500000
154500997	175747	13	12	29	39	120	97.875000	391.500000
154500997	175747	14	13	30	39	120	97.875000	391.500000
154500997	175747	15	14	33	30	120	97.875000	391.500000
154676744	1054479	2	1	48	42	100	98.000000	392.000000
154676744	1054479	2	1	48	49	100	98.000000	392.000000
154676744	351493	2	1	48	66	100	98.000000	392.000000
154676744	351493	2	1	48	71	100	98.000000	392.000000
154676744	351493	2	1	48	75	100	98.000000	392.000000
154676744	351493	2	1	48	78	100	98.000000	392.000000
154676744	351493	3	2	80	66	120	98.000000	392.000000
154676744	351493	3	2	80	78	120	98.000000	392.000000
154676744	351493	3	2	80	90	100	98.000000	392.000000
154676744	175746	10	9	16	36	100	98.000000	392.000000
154676744	175746	10	9	16	46	80	98.000000	392.000000
154676744	351493	12	11	30	61	120	98.000000	392.000000
154676744	175746	13	12	29	42	120	98.000000	392.000000
154676744	175746	14	13	30	42	120	98.000000	392.000000
154676744	175746	15	14	33	30	120	98.000000	392.000000
154852490	175747	10	9	16	36	100	98.125000	392.500000
154852490	175747	13	12	29	42	120	98.125000	392.500000
154852490	175747	14	13	30	42	120	98.125000	392.500000
154852490	175747	15	14	33	30	120	98.125000	392.500000
155028237	351493	2	1	48	71	100	98.250000	393.000000
155028237	351493	2	1	48	75	100	98.250000	393.000000
155028237	351493	2	1	48	80	100	98.250000	393.000000
155028237	351493	2	1	48	83	100	98.250000	393.000000
155028237	351493	3	2	80	71	120	98.250000	393.000000
155028237	351493	3	2	80	83	120	98.250000	393.000000
155028237	351493	3	2	80	95	100	98.250000	393.000000
155028237	175746	10	9	16	38	100	98.250000	393.000000
155028237	175746	10	9	16	46	80	98.250000	393.000000
155028237	351493	12	11	30	63	120	98.250000	393.000000
155028237	175746	13	12	29	54	120	98.250000	393.000000
155028237	175746	14	13	30	54	120	98.250000	393.000000
155028237	175746	15	14	33	42	120	98.250000	393.000000
155203983	175747	10	9	16	36	100	98.375000	393.500000
155203983	175747	13	12	29	42	120	98.375000	393.500000
155203983	175747	14	13	30	42	120	98.375000	393.500000
155203983	175747	15	14	33	30	120	98.375000	393.500000
155379730	351493	2	1	48	70	100	98.500000	394.000000
155379730	351493	2	1	48	73	100	98.500000	394.000000
155379730	351493	2	1	48	78	100	98.500000	394.000000
155379730	351493	2	1	48	82	100	98.500000	394.000000
155379730	351493	3	2	80	70	120	98.500000	394.000000
155379730	351493	3	2	80	82	120	98.500000	394.000000
155379730	351493	3	2	80	94	100	98.500000	394.000000
155379730	175746	10	9	16	36	100	98.500000	394.000000
155379730	175746	10	9	16	46	80	98.500000	394.000000
155379730	351493	12	11	30	61	120	98.500000	394.000000
155379730	175746	13	12	29	42	120	98.500000	394.000000
155379730	175746	14	13	30	42	120	98.500000	394.000000
155379730	175746	15	14	33	30	120	98.500000	394.000000
155555476	175747	10	9	16	36	100	98.625000	394.500000
155555476	175747	13	12	29	54	120	98.625000	394.500000
155555476	175747	14	13	30	54	120	98.625000	394.500000
155555476	175747	15	14	33	42	120	98.625000	394.500000
155731223	1757465	2	1	48	44	100	98.750000	395.000000
155731223	1757465	2	1	48	51	100	98.750000	395.000000
155731223	1405972	2	1	48	71	100	98.750000	395.000000
155731223	1405972	2	1	48	75	100	98.750000	395.000000
155731223	1405972	2	1	48	80	100	98.750000	395.000000
155731223	1405972	2	1	48	83	100	98.750000	395.000000
155731223	1405972	3	2	80	71	120	98.750000	395.000000
155731223	1405972	3	2	80	83	120	98.750000	395.000000
155731223	1405972	3	2	80	95	100	98.750000	395.000000
155731223	175746	10	9	16	38	100	98.750000	395.000000
155731223	175746	10	9	16	46	80	98.750000	395.000000
155731223	702986	12	11	30	59	120	98.750000	395.000000
155731223	175746	13	12	29	56	120	98.750000	395.000000
155731223	175746	14	13	30	56	120	98.750000	395.000000
155731223	175746	15	14	33	44	120	98.750000	395.000000
155906969	175747	10	9	16	36	100	98.875000	395.500000
155906969	175747	13	12	29	44	120	98.875000	395.500000
155906969	175747	14	13	30	44	120	98.875000	395.500000
155906969	175747	15	14	33	32	120	98.875000	395.500000
156082716	175746	10	9	16	36	100	99.000000	396.000000
156082716	175746	10	9	16	46	80	99.000000	396.000000
156082716	175746	13	12	29	44	120	99.000000	396.000000
156082716	175746	14	13	30	44	120	99.000000	396.000000
156082716	175746	15	14	33	32	120	99.000000	396.000000
156258462	175747	10	9	16	36	100	99.125000	396.500000
156258462	175747	13	12	29	56	120	99.125000	396.500000
156258462	175747	14	13	30	56	120	99.125000	396.500000
156258462	175747	15	14	33	44	120	99.125000	396.500000
156434209	175746	10	9	16	38	100	99.250000	397.000000
156434209	175746	10	9	16	46	80	99.250000	397.000000
156434209	351493	12	11	30	51	120	99.250000	397.000000
156434209	175746	13	12	29	44	120	99.250000	397.000000
156434209	175746	14	13	30	44	120	99.250000	397.000000
156434209	175746	15	14	33	32	120	99.250000	397.000000
156609955	175747	10	9	16	36	100	99.375000	397.500000
156609955	175747	13	12	29	56	120	99.375000	397.500000
156609955	175747	14	13	30	56	120	99.375000	397.500000
156609955	175747	15	14	33	44	120	99.375000	397.500000
156785702	175746	10	9	16	36	100	99.500000	398.000000
156785702	175746	10	9	16	46	80	99.500000	398.000000
156785702	351493	12	11	30	49	120	99.500000	398.000000
156785702	175746	13	12	29	44	120	99.500000	398.000000
156785702	175746	14	13	30	44	120	99.500000	398.000000
156785702	175746	15	14	33	32	120	99.500000	398.000000
156961448	175747	10	9	16	36	100	99.625000	398.500000
156961448	175747	13	12	29	44	120	99.625000	398.500000
156961448	175747	14	13	30	44	120	99.625000	398.500000
156961448	175747	15	14	33	32	120	99.625000	398.500000
157137195	175746	10	9	16	38	100	99.750000	399.000000
157137195	175746	10	9	16	46	80	99.750000	399.000000
157137195	351493	12	11	30	47	120	99.750000	399.000000
157137195	175746	13	12	29	56	120	99.750000	399.000000
157137195	175746	14	13	30	56	120	99.750000	399.000000
157137195	175746	15	14	33	44	120	99.750000	399.000000
157312941	175747	10	9	16	36	100	99.875000	399.500000
157312941	175747	13	12	29	44	120	99.875000	399.500000
157312941	175747	14	13	30	44	120	99.875000	399.500000
157312941	175747	15	14	33	32	120	99.875000	399.500000
157488688	2811944	2	1	48	39	100	100.000000	400.000000
157488688	2811944	2	1	48	46	100	100.000000	400.000000
157488688	175746	10	9	16	36	100	100.000000	400.000000
157488688	175746	10	9	16	46	80	100.000000	400.000000
157488688	175746	10	9	16	49	100	100.000000	400.000000
157488688	175746	13	12	29	39	120	100.000000	400.000000
157488688	175746	14	13	30	39	120	100.000000	400.000000
157488688	175746	15	14	33	27	120	100.000000	400.000000
157664434	175747	10	9	16	36	100	100.125000	400.500000
157664434	175747	13	12	29	39	120	100.125000	400.500000
157664434	175747	14	13	30	39	120	100.125000	400.500000
157664434	175747	15	14	33	27	120	100.125000	400.500000
157840181	175746	2	1	48	66	100	100.250000	401.000000
157840181	175746	2	1	48	70	100	100.250000	401.000000
157840181	175746	2	1	48	75	100	100.250000	401.000000
157840181	175746	2	1	48	78	100	100.250000	401.000000
157840181	175746	3	2	80	66	120	100.250000	401.000000
157840181	175746	3	2	80	78	120	100.250000	401.000000
157840181	175746	3	2	80	90	100	100.250000	401.000000
157840181	175746	10	9	16	38	100	100.250000	401.000000
157840181	175746	10	9	16	46	80	100.250000	401.000000
157840181	175746	13	12	29	51	120	100.250000	401.000000
157840181	175746	14	13	30	51	120	100.250000	401.000000
157840181	175746	15	14	33	39	120	100.250000	401.000000
158015927	175747	10	9	16	36	100	100.375000	401.500000
158015927	175747	13	12	29	39	120	100.375000	401.500000
158015927	175747	14	13	30	39	120	100.375000	401.500000
158015927	175747	15	14	33	27	120	100.375000	401.500000
158191674	175746	2	1	48	66	100	100.500000	402.000000
158191674	175746	2	1	48	70	100	100.500000	402.000000
158191674	175746	2	1	48	75	100	100.500000	402.000000
158191674	175746	2	1	48	78	100	100.500000	402.000000
158191674	87873	3	2	80	66	120	100.500000	402.000000
158191674	87873	3	2	80	78	120	100.500000	402.000000
158191674	87873	3	2	80	90	100	100.500000	402.000000
158191674	175746	10	9	16	36	100	100.500000	402.000000
158191674	175746	10	9	16	46	80	100.500000	402.000000
158191674	175746	13	12	29	39	120	100.500000	402.000000
158191674	175746	14	13	30	39	120	100.500000	402.000000
158191674	175746	15	14	33	27	120	100.500000	402.000000
158367420	175747	2	1	48	66	100	100.625000	402.500000
158367420	175747	2	1	48	70	100	100.625000	402.500000
158367420	175747	2	1	48	75	100	100.625000	402.500000
158367420	175747	2	1	48	78	100	100.625000	402.500000
158367420	87873	3	2	80	66	120	100.625000	402.500000
158367420	87873	3	2	80	78	120	100.625000	402.500000
158367420	87873	3	2	80	90	100	100.625000	402.500000
158367420	175747	10	9	16	36	100	100.625000	402.500000
158367420	175747	13	12	29	51	120	100.625000	402.500000
158367420	175747	14	13	30	51	120	100.625000	402.500000
158367420	175747	15	14	33	39	120	100.625000	402.500000
158543167	175746	10	9	16	38	100	100.750000	403.000000
158543167	175746	10	9	16	46	80	100.750000	403.000000
158543167	175746	13	12	29	39	120	100.750000	403.000000
158543167	175746	14	13	30	39	120	100.750000	403.000000
158543167	175746	15	14	33	27	120	100.750000	403.000000
158718913	351493	2	1	48	66	100	100.875000	403.500000
158718913	351493	2	1	48	70	100	100.875000	403.500000
158718913	351493	2	1	48	75	100	100.875000	403.500000
158718913	351493	2	1	48	78	100	100.875000	403.500000
158718913	351493	3	2	80	66	120	100.875000	403.500000
158718913	351493	3	2	80	78	120	100.875000	403.500000
158718913	351493	3	2	80	90	100	100.875000	403.500000
158718913	175747	10	9	16	36	100	100.875000	403.500000
158718913	175747	13	12	29	39	120	100.875000	403.500000
158718913	175747	14	13	30	39	120	100.875000	403.500000
158718913	175747	15	14	33	27	120	100.875000	403.500000
158894660	175746	10	9	16	36	100	101.000000	404.000000
158894660	175746	10	9	16	46	80	101.000000	404.000000
158894660	175746	13	12	29	39	120	101.000000	404.000000
158894660	175746	14	13	30	39	120	101.000000	404.000000
158894660	175746	15	14	33	27	120	101.000000	404.000000
159070406	175747	2	1	48	66	100	101.125000	404.500000
159070406	175747	2	1	48	70	100	101.125000	404.500000
159070406	175747	2	1	48	75	100	101.125000	404.500000
159070406	175747	2	1	48	78	100	101.125000	404.500000
159070406	175747	3	2	80	66	120	101.125000	404.500000
159070406	175747	3	2	80	78	120	101.125000	404.500000
159070406	175747	3	2	80	90	100	101.125000	404.500000
159070406	175747	10	9	16	36	100	101.125000	404.500000
159070406	175747	13	12	29	39	120	101.125000	404.500000
159070406	175747	14	13	30	39	120	101.125000	404.500000
159070406	175747	15	14	33	27	120	101.125000	404.500000
159246153	263619	2	1	48	64	100	101.250000	405.000000
159246153	263619	2	1	48	68	100	101.250000	405.000000
159246153	263619	2	1	48	73	100	101.250000	405.000000
159246153	263619	2	1	48	76	100	101.250000	405.000000
159246153	263619	3	2	80	64	120	101.250000	405.000000
159246153	263619	3	2	80	76	120	101.250000	405.000000
159246153	263619	3	2	80	88	100	101.250000	405.000000
159246153	175746	10	9	16	38	100	101.250000	405.000000
159246153	175746	10	9	16	46	80	101.250000	405.000000
159246153	175746	13	12	29	51	120	101.250000	405.000000
159246153	175746	14	13	30	51	120	101.250000	405.000000
159246153	175746	15	14	33	39	120	101.250000	405.000000
159421899	175747	10	9	16	36	100	101.375000	405.500000
159421899	175747	13	12	29	39	120	101.375000	405.500000
159421899	175747	14	13	30	39	120	101.375000	405.500000
159421899	175747	15	14	33	27	120	101.375000	405.500000
159597646	263619	2	1	48	63	100	101.500000	406.000000
159597646	263619	2	1	48	66	100	101.500000	406.000000
159597646	263619	2	1	48	71	100	101.500000	406.000000
159597646	263619	2	1	48	75	100	101.500000	406.000000
159597646	263619	3	2	80	63	120	101.500000	406.000000
159597646	263619	3	2	80	75	120	101.500000	406.000000
159597646	263619	3	2	80	87	100	101.500000	406.000000
159597646	175746	10	9	16	36	100	101.500000	406.000000
159597646	175746	10	9	16	46	80	101.500000	406.000000
159597646	175746	13	12	29	39	120	101.500000	406.000000
159597646	175746	14	13	30	39	120	101.500000	406.000000
159597646	175746	15	14	33	27	120	101.500000	406.000000
159773392	175747	10	9	16	36	100	101.625000	406.500000
159773392	175747	13	12	29	51	120	101.625000	406.500000
159773392	175747	14	13	30	51	120	101.625000	406.500000
159773392	175747	15	14	33	39	120	101.625000	406.500000
159949139	263619	2	1	48	64	100	101.750000	407.000000
159949139	263619	2	1	48	68	100	101.750000	407.000000
159949139	263619	2	1	48	73	100	101.750000	407.000000
159949139	263619	2	1	48	76	100	101.750000	407.000000
159949139	263619	3	2	80	64	120	101.750000	407.000000
159949139	263619	3	2	80	76	120	101.750000	407.000000
159949139	263619	3	2	80	88	100	101.750000	407.000000
159949139	175746	10	9	16	38	100	101.750000	407.000000
159949139	175746	10	9	16	46	80	101.750000	407.000000
159949139	175746	13	12	29	39	120	101.750000	407.000000
159949139	175746	14	13	30	39	120	101.750000	407.000000
159949139	175746	15	14	33	27	120	101.750000	407.000000
160124885	175747	10	9	16	36	100	101.875000	407.500000
160124885	175747	13	12	29	39	120	101.875000	407.500000
160124885	175747	14	13	30	39	120	101.875000	407.500000
160124885	175747	15	14	33	27	120	101.875000	407.500000
160300632	2811944	2	1	48	40	100	102.000000	408.000000
160300632	1405972	2	1	48	47	100	102.000000	408.000000
160300632	702986	2	1	48	66	100	102.000000	408.000000
160300632	702986	2	1	48	71	100	102.000000	408.000000
160300632	702986	2	1	48	75	100	102.000000	408.000000
160300632	702986	2	1	48	78	100	102.000000	408.000000
160300632	702986	3	2	80	66	120	102.000000	408.000000
160300632	702986	3	2	80	78	120	102.000000	408.000000
160300632	702986	3	2	80	90	100	102.000000	408.000000
160300632	87873	5	4	0	88	120	102.000000	408.000000
160300632	175746	10	9	16	36	100	102.000000	408.000000
160300632	175746	10	9	16	46	80	102.000000	408.000000
160300632	175746	13	12	29	40	120	102.000000	408.000000
160300632	175746	14	13	30	40	120	102.000000	408.000000
160300632	175746	15	14	33	28	120	102.000000	408.000000
160476378	87873	5	4	0	92	120	102.125000	408.500000
160476378	175747	10	9	16	36	100	102.125000	408.500000
160476378	175747	13	12	29	40	120	102.125000	408.500000
160476378	175747	14	13	30	40	120	102.125000	408.500000
160476378	175747	15	14	33	28	120	102.125000	408.500000
160652125	87873	5	4	0	95	120	102.250000	409.000000
160652125	175746	10	9	16	38	100	102.250000	409.000000
160652125	175746	10	9	16	46	80	102.250000	409.000000
160652125	175746	13	12	29	52	120	102.250000	409.000000
160652125	175746	14	13	30	52	120	102.250000	409.000000
160652125	175746	15	14	33	40	120	102.250000	409.000000
160827871	87873	5	4	0	100	120	102.375000	409.500000
160827871	175747	10	9	16	36	100	102.375000	409.500000
160827871	175747	13	12	29	40	120	102.375000	409.500000
160827871	175747	14	13	30	40	120	102.375000	409.500000
160827871	175747	15	14	33	28	120	102.375000	409.500000
161003618	351493	2	1	48	71	100	102.500000	410.000000
161003618	351493	2	1	48	75	100	102.500000	410.000000
161003618	351493	2	1	48	78	100	102.500000	410.000000
161003618	351493	2	1	48	83	100	102.500000	410.000000
161003618	351493	3	2	80	71	120	102.500000	410.000000
161003618	351493	3	2	80	83	120	102.500000	410.000000
161003618	351493	3	2	80	95	100	102.500000	410.000000
161003618	87873	5	4	0	95	120	102.500000	410.000000
161003618	175746	10	9	16	36	100	102.500000	410.000000
161003618	175746	10	9	16	46	80	102.500000	410.000000
161003618	175746	13	12	29	40	120	102.500000	410.000000
161003618	175746	14	13	30	40	120	102.500000	410.000000
161003618	175746	15	14	33	28	120	102.500000	410.000000
161179364	87873	5	4	0	92	120	102.625000	410.500000
161179364	175747	10	9	16	36	100	102.625000	410.500000
161179364	175747	13	12	29	52	120	102.625000	410.500000
161179364	175747	14	13	30	52	120	102.625000	410.500000
161179364	175747	15	14	33	40	120	102.625000	410.500000
161355111	175746	10	9	16	38	100	102.750000	411.000000
161355111	175746	10	9	16	46	80	102.750000	411.000000
161355111	175746	13	12	29	40	120	102.750000	411.000000
161355111	175746	14	13	30	40	120	102.750000	411.000000
161355111	175746	15	14	33	28	120	102.750000	411.000000
161530857	878733	2	1	48	66	100	102.875000	411.500000
161530857	878733	2	1	48	71	100	102.875000	411.500000
161530857	878733	2	1	48	75	100	102.875000	411.500000
161530857	878733	2	1	48	78	100	102.875000	411.500000
161530857	878733	3	2	80	66	120	102.875000	411.500000
161530857	878733	3	2	80	78	120	102.875000	411.500000
161530857	878733	3	2	80	90	100	102.875000	411.500000
161530857	87873	5	4	0	100	120	102.875000	411.500000
161530857	175747	10	9	16	36	100	102.875000	411.500000
161530857	175747	13	12	29	40	120	102.875000	411.500000
161530857	175747	14	13	30	40	120	102.875000	411.500000
161530857	175747	15	14	33	28	120	102.875000	411.500000
161706604	1405972	2	1	48	47	100	103.000000	412.000000
161706604	87873	5	4	0	88	120	103.000000	412.000000
161706604	175746	10	9	16	36	100	103.000000	412.000000
161706604	175746	10	9	16	46	80	103.000000	412.000000
161706604	175746	13	12	29	40	120	103.000000	412.000000
161706604	175746	14	13	30	40	120	103.000000	412.000000
161706604	175746	15	14	33	28	120	103.000000	412.000000
161882350	87873	5	4	0	92	120	103.125000	412.500000
161882350	175747	10	9	16	36	100	103.125000	412.500000
161882350	175747	13	12	29	40	120	103.125000	412.500000
161882350	175747	14	13	30	40	120	103.125000	412.500000
161882350	175747	15	14	33	28	120	103.125000	412.500000
162058097	87873	5	4	0	95	120	103.250000	413.000000
162058097	175746	10	9	16	38	100	103.250000	413.000000
162058097	175746	10	9	16	46	80	103.250000	413.000000
162058097	175746	13	12	29	52	120	103.250000	413.000000
162058097	175746	14	13	30	52	120	103.250000	413.000000
162058097	175746	15	14	33	40	120	103.250000	413.000000
162233843	87873	5	4	0	100	120	103.375000	413.500000
162233843	175747	10	9	16	36	100	103.375000	413.500000
162233843	175747	13	12	29	40	120	103.375000	413.500000
162233843	175747	14	13	30	40	120	103.375000	413.500000
162233843	175747	15	14	33	28	120	103.375000	413.500000
162409590	87873	5	4	0	88	120	103.500000	414.000000
162409590	175746	10	9	16	36	100	103.500000	414.000000
162409590	175746	10	9	16	46	80	103.500000	414.000000
162409590	351493	12	11	30	61	120	103.500000	414.000000
162409590	175746	13	12	29	40	120	103.500000	414.000000
162409590	175746	14	13	30	40	120	103.500000	414.000000
162409590	175746	15	14	33	28	120	103.500000	414.000000
162585336	87873	5	4	0	92	120	103.625000	414.500000
162585336	175747	10	9	16	36	100	103.625000	414.500000
162585336	175747	13	12	29	52	120	103.625000	414.500000
162585336	175747	14	13	30	52	120	103.625000	414.500000
162585336	175747	15	14	33	40	120	103.625000	414.500000
162761083	87873	5	4	0	95	120	103.750000	415.000000
162761083	175746	10	9	16	38	100	103.750000	415.000000
162761083	175746	10	9	16	46	80	103.750000	415.000000
162761083	351493	12	11	30	63	120	103.750000	415.000000
162761083	175746	13	12	29	40	120	103.750000	415.000000
162761083	175746	14	13	30	40	120	103.750000	415.000000
162761083	175746	15	14	33	28	120	103.750000	415.000000
162936829	87873	5	4	0	100	120	103.875000	415.500000
162936829	175747	10	9	16	36	100	103.875000	415.500000
162936829	175747	13	12	29	40	120	103.875000	415.500000
162936829	175747	14	13	30	40	120	103.875000	415.500000
162936829	175747	15	14	33	28	120	103.875000	415.500000
163112576	2811944	2	1	48	39	100	104.000000	416.000000
163112576	2811944	2	1	48	46	100	104.000000	416.000000
163112576	175746	10	9	16	36	100	104.000000	416.000000
163112576	175746	10	9	16	46	80	104.000000	416.000000
163112576	702986	12	11	30	54	120	104.000000	416.000000
163112576	175746	13	12	29	39	120	104.000000	416.000000
163112576	175746	14	13	30	39	120	104.000000	416.000000
163112576	175746	15	14	33	27	120	104.000000	416.000000
163288322	175747	10	9	16	36	100	104.125000	416.500000
163288322	175747	13	12	29	39	120	104.125000	416.500000
163288322	175747	14	13	30	39	120	104.125000	416.500000
163288322	175747	15	14	33	27	120	104.125000	416.500000
163464069	175746	2	1	48	66	100	104.250000	417.000000
163464069	175746	2	1	48	70	100	104.250000	417.000000
163464069	175746	2	1	48	75	100	104.250000	417.000000
163464069	175746	2	1	48	78	100	104.250000	417.000000
163464069	175746	3	2	80	66	120	104.250000	417.000000
163464069	175746	3	2	80	78	120	104.250000	417.000000
163464069	175746	3	2	80	90	100	104.250000	417.000000
163464069	175746	10	9	16	38	100	104.250000	417.000000
163464069	175746	10	9	16	46	80	104.250000	417.000000
163464069	175746	13	12	29	51	120	104.250000	417.000000
163464069	175746	14	13	30	51	120	104.250000	417.000000
163464069	175746	15	14	33	39	120	104.250000	417.000000
163639815	175747	10	9	16	36	100	104.375000	417.500000
163639815	175747	13	12	29	39	120	104.375000	417.500000
163639815	175747	14	13	30	39	120	104.375000	417.500000
163639815	175747	15	14	33	27	120	104.375000	417.500000
163815562	175746	2	1	48	66	100	104.500000	418.000000
163815562	175746	2	1	48	70	100	104.500000	418.000000
163815562	175746	2	1	48	75	100	104.500000	418.000000
163815562	175746	2	1	48	78	100	104.500000	418.000000
163815562	87873	3	2	80	66	120	104.500000	418.000000
163815562	87873	3	2	80	78	120	104.500000	418.000000
163815562	87873	3	2	80	90	100	104.500000	418.000000
163815562	175746	10	9	16	36	100	104.500000	418.000000
163815562	175746	10	9	16	46	80	104.500000	418.000000
163815562	175746	13	12	29	39	120	104.500000	418.000000
163815562	175746	14	13	30	39	120	104.500000	418.000000
163815562	175746	15	14	33	27	120	104.500000	418.000000
163991308	175747	2	1	48	66	100	104.625000	418.500000
163991308	175747	2	1	48	70	100	104.625000	418.500000
163991308	175747	2	1	48	75	100	104.625000	418.500000
163991308	175747	2	1	48	78	100	104.625000	418.500000
163991308	87873	3	2	80	66	120	104.625000	418.500000
163991308	87873	3	2	80	78	120	104.625000	418.500000
163991308	87873	3	2	80	90	100	104.625000	418.500000
163991308	175747	10	9	16	36	100	104.625000	418.500000
163991308	175747	13	12	29	51	120	104.625000	418.500000
163991308	175747	14	13	30	51	120	104.625000	418.500000
163991308	175747	15	14	33	39	120	104.625000	418.500000
164167055	175746	10	9	16	38	100	104.750000	419.000000
164167055	175746	10	9	16	46	80	104.750000	419.000000
164167055	175746	13	12	29	39	120	104.750000	419.000000
164167055	175746	14	13	30	39	120	104.750000	419.000000
164167055	175746	15	14	33	27	120	104.750000	419.000000
164342801	351493	2	1	48	66	100	104.875000	419.500000
164342801	351493	2	1	48	70	100	104.875000	419.500000
164342801	351493	2	1	48	75	100	104.875000	419.500000
164342801	351493	2	1	48	78	100	104.875000	419.500000
164342801	351493	3	2	80	66	120	104.875000	419.500000
164342801	351493	3	2	80	78	120	104.875000	419.500000
164342801	351493	3	2	80	90	100	104.875000	419.500000
164342801	175747	10	9	16	36	100	104.875000	419.500000
164342801	175747	13	12	29	39	120	104.875000	419.500000
164342801	175747	14	13	30	39	120	104.875000	419.500000
164342801	175747	15	14	33	27	120	104.875000	419.500000
164518548	175746	10	9	16	36	100	105.000000	420.000000
164518548	175746	10	9	16	46	80	105.000000	420.000000
164518548	175746	13	12	29	39	120	105.000000	420.000000
164518548	175746	14	13	30	39	120	105.000000	420.000000
164518548	175746	15	14	33	27	120	105.000000	420.000000
164694294	175747	2	1	48	66	100	105.125000	420.500000
164694294	175747	2	1	48	70	100	105.125000	420.500000
164694294	175747	2	1	48	75	100	105.125000	420.500000
164694294	175747	2	1	48	78	100	105.125000	420.500000
164694294	175747	3	2	80	66	120	105.125000	420.500000
164694294	175747	3	2	80	78	120	105.125000	420.500000
164694294	175747	3	2	80	90	100	105.125000	420.500000
164694294	175747	10	9	16	36	100	105.125000	420.500000
164694294	175747	13	12	29	39	120	105.125000	420.500000
164694294	175747	14	13	30	39	120	105.125000	420.500000
164694294	175747	15	14	33	27	120	105.125000	420.500000
164870041	351493	2	1	48	64	100	105.250000	421.000000
164870041	351493	2	1	48	68	100	105.250000	421.000000
164870041	351493	2	1	48	73	100	105.250000	421.000000
164870041	351493	2	1	48	76	100	105.250000	421.000000
164870041	351493	3	2	80	64	120	105.250000	421.000000
164870041	351493	3	2	80	76	120	105.250000	421.000000
164870041	351493	3	2	80	88	100	105.250000	421.000000
164870041	175746	10	9	16	38	100	105.250000	421.000000
164870041	175746	10	9	16	46	80	105.250000	421.000000
164870041	175746	13	12	29	51	120	105.250000	421.000000
164870041	175746	14	13	30	51	120	105.250000	421.000000
164870041	175746	15	14	33	39	120	105.250000	421.000000
165045787	175747	10	9	16	36	100	105.375000	421.500000
165045787	175747	13	12	29	39	120	105.375000	421.500000
165045787	175747	14	13	30	39	120	105.375000	421.500000
165045787	175747	15	14	33	27	120	105.375000	421.500000
165221534	351493	2	1	48	63	100	105.500000	422.000000
165221534	351493	2	1	48	66	100	105.500000	422.000000
165221534	351493	2	1	48	71	100	105.500000	422.000000
165221534	351493	2	1	48	75	100	105.500000	422.000000
165221534	351493	3	2	80	63	120	105.500000	422.000000
165221534	351493	3	2	80	75	120	105.500000	422.000000
165221534	351493	3	2	80	87	100	105.500000	422.000000
165221534	175746	10	9	16	36	100	105.500000	422.000000
165221534	175746	10	9	16	46	80	105.500000	422.000000
165221534	175746	13	12	29	39	120	105.500000	422.000000
165221534	175746	14	13	30	39	120	105.500000	422.000000
165221534	175746	15	14	33	27	120	105.500000	422.000000
165397280	175747	10	9	16	36	100	105.625000	422.500000
165397280	175747	13	12	29	51	120	105.625000	422.500000
165397280	175747	14	13	30	51	120	105.625000	422.500000
165397280	175747	15	14	33	39	120	105.625000	422.500000
165573027	351493	2	1	48	64	100	105.750000	423.000000
165573027	351493	2	1	48	68	100	105.750000	423.000000
165573027	351493	2	1	48	73	100	105.750000	423.000000
165573027	351493	2	1	48	76	100	105.750000	423.000000
165573027	351493	3	2	80	64	120	105.750000	423.000000
165573027	351493	3	2	80	76	120	105.750000	423.000000
165573027	351493	3	2	80	88	100	105.750000	423.000000
165573027	175746	10	9	16	38	100	105.750000	423.000000
165573027	175746	10	9	16	46	80	105.750000	423.000000
165573027	175746	13	12	29	39	120	105.750000	423.000000
165573027	175746	14	13	30	39	120	105.750000	423.000000
165573027	175746	15	14	33	27	120	105.750000	423.000000
165748773	175747	10	9	16	36	100	105.875000	423.500000
165748773	175747	13	12	29	39	120	105.875000	423.500000
165748773	175747	14	13	30	39	120	105.875000	423.500000
165748773	175747	15	14	33	27	120	105.875000	423.500000
165924520	1054479	2	1	48	42	100	106.000000	424.000000
165924520	1054479	2	1	48	49	100	106.000000	424.000000
165924520	351493	2	1	48	66	100	106.000000	424.000000
165924520	351493	2	1	48	71	100	106.000000	424.000000
165924520	351493	2	1	48	75	100	106.000000	424.000000
165924520	351493	2	1	48	78	100	106.000000	424.000000
165924520	351493	3	2	80	66	120	106.000000	424.000000
165924520	351493	3	2	80	78	120	106.000000	424.000000
165924520	351493	3	2	80	90	100	106.000000	424.000000
165924520	175746	10	9	16	36	100	106.000000	424.000000
165924520	175746	10	9	16	46	80	106.000000	424.000000
165924520	351493	12	11	30	61	120	106.000000	424.000000
165924520	175746	13	12	29	42	120	106.000000	424.000000
165924520	175746	14	13	30	42	120	106.000000	424.000000
165924520	175746	15	14	33	30	120	106.000000	424.000000
166100266	175747	10	9	16	36	100	106.125000	424.500000
166100266	175747	13	12	29	42	120	106.125000	424.500000
166100266	175747	14	13	30	42	120	106.125000	424.500000
166100266	175747	15	14	33	30	120	106.125000	424.500000
166276013	351493	2	1	48	71	100	106.250000	425.000000
166276013	351493	2	1	48	75	100	106.250000	425.000000
166276013	351493	2	1	48	80	100	106.250000	425.000000
166276013	351493	2	1	48	83	100	106.250000	425.000000
166276013	351493	3	2	80	71	120	106.250000	425.000000
166276013	351493	3	2	80	83	120	106.250000	425.000000
166276013	351493	3	2	80	95	100	106.250000	425.000000
166276013	175746	10	9	16	38	100	106.250000	425.000000
166276013	175746	10	9	16	46	80	106.250000	425.000000
166276013	351493	12	11	30	63	120	106.250000	425.000000
166276013	175746	13	12	29	54	120	106.250000	425.000000
166276013	175746	14	13	30	54	120	106.250000	425.000000
166276013	175746	15	14	33	42	120	106.250000	425.000000
166451759	175747	10	9	16	36	100	106.375000	425.500000
166451759	175747	13	12	29	42	120	106.375000	425.500000
166451759	175747	14	13	30	42	120	106.375000	425.500000
166451759	175747	15	14	33	30	120	106.375000	425.500000
166627506	351493	2	1	48	70	100	106.500000	426.000000
166627506	351493	2	1	48	73	100	106.500000	426.000000
166627506	351493	2	1	48	78	100	106.500000	426.000000
166627506	351493	2	1	48	82	100	106.500000	426.000000
166627506	351493	3	2	80	70	120	106.500000	426.000000
166627506	351493	3	2	80	82	120	106.500000	426.000000
166627506	351493	3	2	80	94	100	106.500000	426.000000
166627506	175746	10	9	16	36	100	106.500000	426.000000
166627506	175746	10	9	16	46	80	106.500000	426.000000
166627506	351493	12	11	30	61	120	106.500000	426.000000
166627506	175746	13	12	29	42	120	106.500000	426.000000
166627506	175746	14	13	30	42	120	106.500000	426.000000
166627506	175746	15	14	33	30	120	106.500000	426.000000
166803252	175747	10	9	16	36	100	106.625000	426.500000
166803252	175747	13	12	29	54	120	106.625000	426.500000
166803252	175747	14	13	30	54	120	106.625000	426.500000
166803252	175747	15	14	33	42	120	106.625000	426.500000
166978999	1757465	2	1	48	44	100	106.750000	427.000000
166978999	1757465	2	1	48	51	100	106.750000	427.000000
166978999	1405972	2	1	48	71	100	106.750000	427.000000
166978999	1405972	2	1	48	75	100	106.750000	427.000000
166978999	1405972	2	1	48	80	100	106.750000	427.000000
166978999	1405972	2	1	48	83	100	106.750000	427.000000
166978999	1405972	3	2	80	71	120	106.750000	427.000000
166978999	1405972	3	2	80	83	120	106.750000	427.000000
166978999	1405972	3	2	80	95	100	106.750000	427.000000
166978999	175746	10	9	16	38	100	106.750000	427.000000
166978999	175746	10	9	16	46	80	106.750000	427.000000
166978999	702986	12	11	30	59	120	106.750000	427.000000
166978999	175746	13	12	29	56	120	106.750000	427.000000
166978999	175746	14	13	30	56	120	106.750000	427.000000
166978999	175746	15	14	33	44	120	106.750000	427.000000
167154745	175747	10	9	16	36	100	106.875000	427.500000
167154745	175747	13	12	29	44	120	106.875000	427.500000
167154745	175747	14	13	30	44	120	106.875000	427.500000
167154745	175747	15	14	33	32	120	106.875000	427.500000
167330492	175746	10	9	16	36	100	107.000000	428.000000
167330492	175746	10	9	16	46	80	107.000000	428.000000
167330492	175746	13	12	29	44	120	107.000000	428.000000
167330492	175746	14	13	30	44	120	107.000000	428.000000
167330492	175746	15	14	33	32	120	107.000000	428.000000
167506238	175747	10	9	16	36	100	107.125000	428.500000
167506238	175747	13	12	29	56	120	107.125000	428.500000
167506238	175747	14	13	30	56	120	107.125000	428.500000
167506238	175747	15	14	33	44	120	107.125000	428.500000
167681985	175746	10	9	16	38	100	107.250000	429.000000
167681985	175746	10	9	16	46	80	107.250000	429.000000
167681985	351493	12	11	30	51	120	107.250000	429.000000
167681985	175746	13	12	29	44	120	107.250000	429.000000
167681985	175746	14	13	30	44	120	107.250000	429.000000
167681985	175746	15	14	33	32	120	107.250000	429.000000
167857731	175747	10	9	16	36	100	107.375000	429.500000
167857731	175747	13	12	29	56	120	107.375000	429.500000
167857731	175747	14	13	30	56	120	107.375000	429.500000
167857731	175747	15	14	33	44	120	107.375000	429.500000
168033478	175746	10	9	16	36	100	107.500000	430.000000
168033478	175746	10	9	16	46	80	107.500000	430.000000
168033478	351493	12	11	30	49	120	107.500000	430.000000
168033478	175746	13	12	29	44	120	107.500000	430.000000
168033478	175746	14	13	30	44	120	107.500000	430.000000
168033478	175746	15	14	33	32	120	107.500000	430.000000
168209224	175747	10	9	16	36	100	107.625000	430.500000
168209224	175747	13	12	29	44	120	107.625000	430.500000
168209224	175747	14	13	30	44	120	107.625000	430.500000
168209224	175747	15	14	33	32	120	107.625000	430.500000
168384971	175746	3	2	80	63	120	107.750000	431.000000
168384971	175746	3	2	80	68	120	107.750000	431.000000
168384971	175746	10	9	16	38	100	107.750000	431.000000
168384971	175746	10	9	16	46	80	107.750000	431.000000
168384971	351493	12	11	30	47	120	107.750000	431.000000
168384971	175746	13	12	29	56	120	107.750000	431.000000
168384971	175746	14	13	30	56	120	107.750000	431.000000
168384971	175746	15	14	33	44	120	107.750000	431.000000
168560717	175747	3	2	80	66	120	107.875000	431.500000
168560717	175747	3	2	80	71	120	107.875000	431.500000
168560717	175747	10	9	16	36	100	107.875000	431.500000
168560717	175747	13	12	29	44	120	107.875000	431.500000
168560717	175747	14	13	30	44	120	107.875000	431.500000
168560717	175747	15	14	33	32	120	107.875000	431.500000
168736464	175849	3	2	80	66	120	108.000000	432.000000
168736464	175849	3	2	80	71	120	108.000000	432.000000
168736464	175849	3	2	80	75	120	108.000000	432.000000
168736464	175849	3	2	80	87	80	108.000000	432.000000
168736464	351699	10	9	16	36	100	108.000000	432.000000
168736464	351699	10	9	16	46	80	108.000000	432.000000
168736464	2813596	13	12	29	37	120	108.000000	432.000000
168736464	2813596	14	13	30	37	120	108.000000	432.000000
168736464	2813596	15	14	33	25	120	108.000000	432.000000
168912313	175850	3	2	80	92	80	108.062500	432.250000
169088163	175850	3	2	80	66	120	108.125000	432.500000
169088163	175850	3	2	80	71	120	108.125000	432.500000
169088163	175850	3	2	80	75	120	108.125000	432.500000
169088163	175850	3	2	80	83	80	108.125000	432.500000
169264013	175850	3	2	80	92	80	108.187500	432.750000
169439863	175849	3	2	80	66	120	108.250000	433.000000
169439863	175849	3	2	80	71	120	108.250000	433.000000
169439863	175849	3	2	80	75	120	108.250000	433.000000
169439863	175849	3	2	80	85	80	108.250000	433.000000
169615712	175850	3	2	80	66	120	108.312500	433.250000
169615712	175850	3	2	80	71	120	108.312500	433.250000
169615712	175850	3	2	80	75	120	108.312500	433.250000
169615712	175850	3	2	80	92	80	108.312500	433.250000
169791562	175850	3	2	80	83	80	108.375000	433.500000
169967412	351699	3	2	80	66	120	108.437500	433.750000
169967412	351699	3	2	80	71	120	108.437500	433.750000
169967412	351699	3	2	80	75	120	108.437500	433.750000
169967412	175850	3	2	80	92	80	108.437500	433.750000
170143262	175849	3	2	80	87	80	108.500000	434.000000
170319111	175850	3	2	80	66	120	108.562500	434.250000
170319111	175850	3	2	80	71	120	108.562500	434.250000
170319111	175850	3	2	80	75	120	108.562500	434.250000
170319111	175850	3	2	80	92	80	108.562500	434.250000
170494961	175850	3	2	80	64	120	108.625000	434.500000
170494961	351700	3	2	80	70	120	108.625000	434.500000
170494961	351700	3	2	80	73	120	108.625000	434.500000
170494961	175850	3	2	80	83	80	108.625000	434.500000
170670811	175850	3	2	80	61	120	108.687500	434.750000
170670811	175850	3	2	80	92	80	108.687500	434.750000
170846661	175849	3	2	80	63	120	108.750000	435.000000
170846661	351699	3	2	80	68	120	108.750000	435.000000
170846661	351699	3	2	80	71	120	108.750000	435.000000
170846661	175849	3	2	80	87	80	108.750000	435.000000
171022510	175850	3	2	80	56	120	108.812500	435.250000
171022510	175850	3	2	80	92	80	108.812500	435.250000
171198360	175850	3	2	80	59	120	108.875000	435.500000
171198360	351700	3	2	80	64	120	108.875000	435.500000
171198360	351700	3	2	80	68	120	108.875000	435.500000
171198360	175850	3	2	80	90	80	108.875000	435.500000
171374210	175850	3	2	80	54	120	108.937500	435.750000
171374210	175850	3	2	80	92	80	108.937500	435.750000
171550060	351699	3	2	80	58	120	109.000000	436.000000
171550060	351699	3	2	80	63	120	109.000000	436.000000
171550060	175849	3	2	80	92	80	109.000000	436.000000
171550060	351699	10	9	16	46	80	109.000000	436.000000
171550060	2813596	13	12	29	39	120	109.000000	436.000000
171550060	2813596	14	13	30	39	120	109.000000	436.000000
171550060	1406798	15	14	33	27	120	109.000000	436.000000
171725909	175850	3	2	80	94	80	109.062500	436.250000
171901759	175850	3	2	80	70	120	109.125000	436.500000
171901759	175850	3	2	80	75	120	109.125000	436.500000
171901759	175850	3	2	80	87	80	109.125000	436.500000
172077609	175850	3	2	80	61	120	109.187500	436.750000
172077609	175850	3	2	80	94	80	109.187500	436.750000
172253459	175849	3	2	80	63	120	109.250000	437.000000
172253459	175849	3	2	80	70	120	109.250000	437.000000
172253459	175849	3	2	80	75	120	109.250000	437.000000
172253459	175849	3	2	80	90	80	109.250000	437.000000
172429308	175850	3	2	80	66	120	109.312500	437.250000
172429308	175850	3	2	80	70	120	109.312500	437.250000
172429308	175850	3	2	80	75	120	109.312500	437.250000
172429308	175850	3	2	80	94	80	109.312500	437.250000
172605158	175850	3	2	80	61	120	109.375000	437.500000
172605158	175850	3	2	80	85	80	109.375000	437.500000
172781008	175850	3	2	80	63	120	109.437500	437.750000
172781008	351699	3	2	80	70	120	109.437500	437.750000
172781008	351699	3	2	80	75	120	109.437500	437.750000
172781008	175850	3	2	80	94	80	109.437500	437.750000
172956858	175849	3	2	80	66	120	109.500000	438.000000
172956858	175849	3	2	80	87	80	109.500000	438.000000
172956858	175849	15	14	33	27	120	109.500000	438.000000
173132707	175850	3	2	80	61	120	109.562500	438.250000
173132707	175850	3	2	80	70	120	109.562500	438.250000
173132707	175850	3	2	80	75	120	109.562500	438.250000
173132707	175850	3	2	80	94	80	109.562500	438.250000
173132707	175850	15	14	33	27	120	109.562500	438.250000
173308557	175850	3	2	80	63	120	109.625000	438.500000
173308557	351700	3	2	80	68	120	109.625000	438.500000
173308557	351700	3	2	80	73	120	109.625000	438.500000
173308557	175850	3	2	80	85	80	109.625000	438.500000
173308557	351700	12	11	30	61	120	109.625000	438.500000
173308557	175850	15	14	33	39	120	109.625000	438.500000
173484407	175850	3	2	80	66	120	109.687500	438.750000
173484407	175850	3	2	80	94	80	109.687500	438.750000
173484407	175850	15	14	33	27	120	109.687500	438.750000
173660257	175849	3	2	80	68	120	109.750000	439.000000
173660257	175849	3	2	80	70	120	109.750000	439.000000
173660257	351699	3	2	80	75	120	109.750000	439.000000
173660257	175849	3	2	80	90	80	109.750000	439.000000
173660257	351699	12	11	30	63	120	109.750000	439.000000
173660257	175849	15	14	33	27	120	109.750000	439.000000
173836106	175850	3	2	80	70	120	109.812500	439.250000
173836106	175850	3	2	80	73	120	109.812500	439.250000
173836106	175850	3	2	80	94	80	109.812500	439.250000
173836106	175850	15	14	33	39	120	109.812500	439.250000
174011956	175850	3	2	80	73	120	109.875000	439.500000
174011956	351700	3	2	80	78	120	109.875000	439.500000
174011956	175850	3	2	80	92	80	109.875000	439.500000
174011956	351700	12	11	30	66	120	109.875000	439.500000
174011956	175850	15	14	33	27	120	109.875000	439.500000
174187806	175850	3	2	80	68	120	109.937500	439.750000
174187806	175850	3	2	80	94	80	109.937500	439.750000
174187806	175850	15	14	33	27	120	109.937500	439.750000
174363656	2811944	2	1	48	40	100	110.000000	440.000000
174363656	2811944	2	1	48	47	100	110.000000	440.000000
174363656	2811944	2	1	48	64	100	110.000000	440.000000
174363656	2811944	2	1	48	68	100	110.000000	440.000000
174363656	2811944	2	1	48	71	100	110.000000	440.000000
174363656	2811944	2	1	48	75	100	110.000000	440.000000
174363656	2108958	3	2	80	71	120	110.000000	440.000000
174363656	2108958	3	2	80	75	120	110.000000	440.000000
174363656	1933211	3	2	80	80	120	110.000000	440.000000
174363656	87873	3	2	80	90	80	110.000000	440.000000
174363656	2108958	3	2	80	95	80	110.000000	440.000000
174363656	175746	10	9	16	36	100	110.000000	440.000000
174363656	175746	10	9	16	46	80	110.000000	440.000000
174363656	175746	10	9	16	49	80	110.000000	440.000000
174363656	2108958	12	11	30	68	120	110.000000	440.000000
174363656	175746	13	12	29	40	120	110.000000	440.000000
174363656	175746	14	13	30	40	120	110.000000	440.000000
174363656	175746	15	14	33	28	120	110.000000	440.000000
174539402	87873	3	2	80	92	80	110.125000	440.500000
174539402	175747	10	9	16	36	100	110.125000	440.500000
174539402	175747	13	12	29	40	120	110.125000	440.500000
174539402	175747	14	13	30	40	120	110.125000	440.500000
174539402	175747	15	14	33	28	120	110.125000	440.500000
174715149	87873	3	2	80	87	80	110.250000	441.000000
174715149	175746	10	9	16	38	100	110.250000	441.000000
174715149	175746	10	9	16	46	80	110.250000	441.000000
174715149	175746	13	12	29	52	120	110.250000	441.000000
174715149	175746	14	13	30	52	120	110.250000	441.000000
174715149	175746	15	14	33	40	120	110.250000	441.000000
174890895	87873	3	2	80	90	80	110.375000	441.500000
174890895	175747	10	9	16	36	100	110.375000	441.500000
174890895	175747	13	12	29	40	120	110.375000	441.500000
174890895	175747	14	13	30	40	120	110.375000	441.500000
174890895	175747	15	14	33	28	120	110.375000	441.500000
175066642	87873	3	2	80	92	80	110.500000	442.000000
175066642	175746	10	9	16	36	100	110.500000	442.000000
175066642	175746	10	9	16	46	80	110.500000	442.000000
175066642	175746	13	12	29	40	120	110.500000	442.000000
175066642	175746	14	13	30	40	120	110.500000	442.000000
175066642	175746	15	14	33	28	120	110.500000	442.000000
175242388	87873	3	2	80	87	80	110.625000	442.500000
175242388	175747	10	9	16	36	100	110.625000	442.500000
175242388	175747	13	12	29	52	120	110.625000	442.500000
175242388	175747	14	13	30	52	120	110.625000	442.500000
175242388	175747	15	14	33	40	120	110.625000	442.500000
175418135	87873	3	2	80	90	80	110.750000	443.000000
175418135	175746	10	9	16	38	100	110.750000	443.000000
175418135	175746	10	9	16	46	80	110.750000	443.000000
175418135	175746	13	12	29	40	120	110.750000	443.000000
175418135	175746	14	13	30	40	120	110.750000	443.000000
175418135	175746	15	14	33	28	120	110.750000	443.000000
175593881	87873	3	2	80	85	80	110.875000	443.500000
175593881	175747	10	9	16	36	100	110.875000	443.500000
175593881	175747	13	12	29	40	120	110.875000	443.500000
175593881	175747	14	13	30	40	120	110.875000	443.500000
175593881	175747	15	14	33	28	120	110.875000	443.500000
175769628	87873	3	2	80	87	80	111.000000	444.000000
175769628	175746	10	9	16	36	100	111.000000	444.000000
175769628	175746	10	9	16	46	80	111.000000	444.000000
175769628	175746	13	12	29	40	120	111.000000	444.000000
175769628	175746	14	13	30	40	120	111.000000	444.000000
175769628	175746	15	14	33	28	120	111.000000	444.000000
175945374	87873	3	2	80	83	80	111.125000	444.500000
175945374	175747	10	9	16	36	100	111.125000	444.500000
175945374	175747	13	12	29	40	120	111.125000	444.500000
175945374	175747	14	13	30	40	120	111.125000	444.500000
175945374	175747	15	14	33	28	120	111.125000	444.500000
176121121	87873	3	2	80	85	80	111.250000	445.000000
176121121	175746	10	9	16	38	100	111.250000	445.000000
176121121	175746	10	9	16	46	80	111.250000	445.000000
176121121	175746	13	12	29	52	120	111.250000	445.000000
176121121	175746	14	13	30	52	120	111.250000	445.000000
176121121	175746	15	14	33	40	120	111.250000	445.000000
176296867	87873	3	2	80	80	80	111.375000	445.500000
176296867	175747	10	9	16	36	100	111.375000	445.500000
176296867	175747	13	12	29	40	120	111.375000	445.500000
176296867	175747	14	13	30	40	120	111.375000	445.500000
176296867	175747	15	14	33	28	120	111.375000	445.500000
176472614	87873	3	2	80	83	80	111.500000	446.000000
176472614	351493	3	2	80	87	80	111.500000	446.000000
176472614	175746	10	9	16	36	100	111.500000	446.000000
176472614	175746	10	9	16	46	80	111.500000	446.000000
176472614	351493	12	11	30	63	120	111.500000	446.000000
176472614	175746	13	12	29	40	120	111.500000	446.000000
176472614	175746	14	13	30	40	120	111.500000	446.000000
176472614	175746	15	14	33	28	120	111.500000	446.000000
176648360	175747	10	9	16	36	100	111.625000	446.500000
176648360	175747	13	12	29	52	120	111.625000	446.500000
176648360	175747	14	13	30	52	120	111.625000	446.500000
176648360	175747	15	14	33	40	120	111.625000	446.500000
176824107	351493	3	2	80	83	80	111.750000	447.000000
176824107	175746	10	9	16	38	100	111.750000	447.000000
176824107	175746	10	9	16	46	80	111.750000	447.000000
176824107	351493	12	11	30	59	120	111.750000	447.000000
176824107	175746	13	12	29	40	120	111.750000	447.000000
176824107	175746	14	13	30	40	120	111.750000	447.000000
176824107	175746	15	14	33	28	120	111.750000	447.000000
176999853	175747	10	9	16	36	100	111.875000	447.500000
176999853	175747	13	12	29	40	120	111.875000	447.500000
176999853	175747	14	13	30	40	120	111.875000	447.500000
176999853	175747	15	14	33	28	120	111.875000	447.500000
177175600	2811944	2	1	48	42	100	112.000000	448.000000
177175600	2811944	3	2	80	85	120	112.000000	448.000000
177175600	175746	10	9	16	49	80	112.000000	448.000000
177175600	2811944	12	11	30	61	120	112.000000	448.000000
177175600	2811944	15	14	33	30	120	112.000000	448.000000
