time	duration	track	channel	instrument	pitch	velocity	bar	beat
0	250	1	0	48	65	120	0.000000	0.000000
0	250	1	0	48	70	120	0.000000	0.000000
0	250	1	0	48	77	120	0.000000	0.000000
0	250	2	1	48	63	120	0.000000	0.000000
0	250	2	1	48	70	120	0.000000	0.000000
500	250	2	1	48	63	120	0.125000	0.500000
500	250	2	1	48	70	120	0.125000	0.500000
1500	250	2	1	48	63	120	0.375000	1.500000
1500	250	2	1	48	70	120	0.375000	1.500000
2000	250	1	0	48	77	120	0.500000	2.000000
2000	250	1	0	48	82	120	0.500000	2.000000
2000	250	1	0	48	89	120	0.500000	2.000000
2000	250	2	1	48	63	120	0.500000	2.000000
2000	250	2	1	48	70	120	0.500000	2.000000
2500	250	2	1	48	63	120	0.625000	2.500000
2500	250	2	1	48	70	120	0.625000	2.500000
3500	250	2	1	48	63	120	0.875000	3.500000
3500	250	2	1	48	70	120	0.875000	3.500000
4000	250	1	0	48	72	120	1.000000	4.000000
4000	250	1	0	48	77	120	1.000000	4.000000
4000	250	1	0	48	84	120	1.000000	4.000000
4000	250	2	1	48	63	120	1.000000	4.000000
4000	250	2	1	48	70	120	1.000000	4.000000
4500	250	2	1	48	63	120	1.125000	4.500000
4500	250	2	1	48	70	120	1.125000	4.500000
5500	250	2	1	48	63	120	1.375000	5.500000
5500	250	2	1	48	70	120	1.375000	5.500000
6000	250	2	1	48	63	120	1.500000	6.000000
6000	250	2	1	48	70	120	1.500000	6.000000
6500	250	2	1	48	63	120	1.625000	6.500000
6500	250	2	1	48	70	120	1.625000	6.500000
7000	250	2	1	48	63	120	1.750000	7.000000
7000	250	2	1	48	70	120	1.750000	7.000000
7500	250	2	1	48	65	120	1.875000	7.500000
7500	250	2	1	48	72	120	1.875000	7.500000
8000	250	1	0	48	70	120	2.000000	8.000000
8000	250	1	0	48	77	120	2.000000	8.000000
8000	250	1	0	48	82	120	2.000000	8.000000
8000	250	2	1	48	63	120	2.000000	8.000000
8000	250	2	1	48	70	120	2.000000	8.000000
8500	250	2	1	48	63	120	2.125000	8.500000
8500	250	2	1	48	70	120	2.125000	8.500000
9500	250	2	1	48	63	120	2.375000	9.500000
9500	250	2	1	48	70	120	2.375000	9.500000
10000	250	1	0	48	77	120	2.500000	10.000000
10000	250	1	0	48	82	120	2.500000	10.000000
10000	250	1	0	48	89	120	2.500000	10.000000
10000	250	2	1	48	63	120	2.500000	10.000000
10000	250	2	1	48	70	120	2.500000	10.000000
10500	250	2	1	48	63	120	2.625000	10.500000
10500	250	2	1	48	70	120	2.625000	10.500000
11500	250	2	1	48	63	120	2.875000	11.500000
11500	250	2	1	48	70	120	2.875000	11.500000
12000	250	1	0	48	65	120	3.000000	12.000000
12000	250	1	0	48	70	120	3.000000	12.000000
12000	250	1	0	48	77	120	3.000000	12.000000
12000	250	2	1	48	63	120	3.000000	12.000000
12000	250	2	1	48	70	120	3.000000	12.000000
12500	250	2	1	48	63	120	3.125000	12.500000
12500	250	2	1	48	70	120	3.125000	12.500000
13500	250	2	1	48	63	120	3.375000	13.500000
13500	250	2	1	48	70	120	3.375000	13.500000
14000	250	2	1	48	63	120	3.500000	14.000000
14000	250	2	1	48	70	120	3.500000	14.000000
14500	250	2	1	48	63	120	3.625000	14.500000
14500	250	2	1	48	70	120	3.625000	14.500000
15000	250	2	1	48	63	120	3.750000	15.000000
15000	250	2	1	48	70	120	3.750000	15.000000
15500	250	2	1	48	65	120	3.875000	15.500000
15500	250	2	1	48	72	120	3.875000	15.500000
16000	250	1	0	48	65	120	4.000000	16.000000
16000	250	1	0	48	69	120	4.000000	16.000000
16000	250	1	0	48	77	120	4.000000	16.000000
16000	250	2	1	48	62	120	4.000000	16.000000
16000	250	2	1	48	69	120	4.000000	16.000000
16500	250	2	1	48	62	120	4.125000	16.500000
16500	250	2	1	48	69	120	4.125000	16.500000
17500	250	2	1	48	62	120	4.375000	17.500000
17500	250	2	1	48	69	120	4.375000	17.500000
18000	250	1	0	48	69	120	4.500000	18.000000
18000	250	1	0	48	77	120	4.500000	18.000000
18000	250	1	0	48	81	120	4.500000	18.000000
18000	250	2	1	48	62	120	4.500000	18.000000
18000	250	2	1	48	69	120	4.500000	18.000000
18500	250	2	1	48	62	120	4.625000	18.500000
18500	250	2	1	48	69	120	4.625000	18.500000
19500	250	2	1	48	62	120	4.875000	19.500000
19500	250	2	1	48	69	120	4.875000	19.500000
20000	250	1	0	48	81	120	5.000000	20.000000
20000	250	1	0	48	84	120	5.000000	20.000000
20000	250	1	0	48	93	120	5.000000	20.000000
20000	250	2	1	48	62	120	5.000000	20.000000
20000	250	2	1	48	69	120	5.000000	20.000000
20500	250	2	1	48	62	120	5.125000	20.500000
20500	250	2	1	48	69	120	5.125000	20.500000
21500	250	2	1	48	62	120	5.375000	21.500000
21500	250	2	1	48	69	120	5.375000	21.500000
22000	250	2	1	48	62	120	5.500000	22.000000
22000	250	2	1	48	69	120	5.500000	22.000000
22500	250	2	1	48	62	120	5.625000	22.500000
22500	250	2	1	48	69	120	5.625000	22.500000
23000	250	1	0	48	82	120	5.750000	23.000000
23000	250	1	0	48	86	120	5.750000	23.000000
23000	250	1	0	48	94	120	5.750000	23.000000
23000	250	2	1	48	62	120	5.750000	23.000000
23000	250	2	1	48	69	120	5.750000	23.000000
24000	250	1	0	48	81	120	6.000000	24.000000
24000	250	1	0	48	84	120	6.000000	24.000000
24000	250	1	0	48	93	120	6.000000	24.000000
24000	250	2	1	48	67	120	6.000000	24.000000
24000	250	2	1	48	79	120	6.000000	24.000000
24500	250	2	1	48	67	120	6.125000	24.500000
24500	250	2	1	48	79	120	6.125000	24.500000
25500	250	2	1	48	67	120	6.375000	25.500000
25500	250	2	1	48	79	120	6.375000	25.500000
26000	250	1	0	48	77	120	6.500000	26.000000
26000	250	1	0	48	81	120	6.500000	26.000000
26000	250	1	0	48	89	120	6.500000	26.000000
26000	250	2	1	48	69	120	6.500000	26.000000
26000	250	2	1	48	81	120	6.500000	26.000000
26500	250	2	1	48	69	120	6.625000	26.500000
26500	250	2	1	48	81	120	6.625000	26.500000
27500	250	2	1	48	69	120	6.875000	27.500000
27500	250	2	1	48	81	120	6.875000	27.500000
28000	250	1	0	48	74	120	7.000000	28.000000
28000	250	1	0	48	77	120	7.000000	28.000000
28000	250	1	0	48	86	120	7.000000	28.000000
28000	250	2	1	48	69	120	7.000000	28.000000
28000	250	2	1	48	81	120	7.000000	28.000000
28500	250	2	1	48	70	120	7.125000	28.500000
28500	250	2	1	48	82	120	7.125000	28.500000
29000	250	2	1	48	69	120	7.250000	29.000000
29000	250	2	1	48	81	120	7.250000	29.000000
29500	250	2	1	48	65	120	7.375000	29.500000
29500	250	2	1	48	70	120	7.375000	29.500000
29500	250	2	1	48	82	120	7.375000	29.500000
30000	250	2	1	48	62	120	7.500000	30.000000
30000	250	2	1	48	69	120	7.500000	30.000000
30000	250	2	1	48	81	120	7.500000	30.000000
30500	250	2	1	48	60	120	7.625000	30.500000
30500	250	2	1	48	65	120	7.625000	30.500000
30500	250	2	1	48	77	120	7.625000	30.500000
31000	250	2	1	48	58	120	7.750000	31.000000
31000	250	2	1	48	74	120	7.750000	31.000000
31500	250	2	1	48	57	120	7.875000	31.500000
31500	250	2	1	48	65	120	7.875000	31.500000
31500	250	2	1	48	72	120	7.875000	31.500000
32000	250	1	0	48	65	120	8.000000	32.000000
32000	250	1	0	48	70	120	8.000000	32.000000
32000	250	1	0	48	77	120	8.000000	32.000000
32000	250	2	1	48	58	120	8.000000	32.000000
32000	250	2	1	48	63	120	8.000000	32.000000
32000	250	2	1	48	70	120	8.000000	32.000000
32500	250	2	1	48	63	120	8.125000	32.500000
32500	250	2	1	48	70	120	8.125000	32.500000
33500	250	2	1	48	63	120	8.375000	33.500000
33500	250	2	1	48	70	120	8.375000	33.500000
34000	250	1	0	48	77	120	8.500000	34.000000
34000	250	1	0	48	82	120	8.500000	34.000000
34000	250	1	0	48	89	120	8.500000	34.000000
34000	250	2	1	48	63	120	8.500000	34.000000
34000	250	2	1	48	70	120	8.500000	34.000000
34500	250	2	1	48	63	120	8.625000	34.500000
34500	250	2	1	48	70	120	8.625000	34.500000
35500	250	2	1	48	63	120	8.875000	35.500000
35500	250	2	1	48	70	120	8.875000	35.500000
36000	250	1	0	48	72	120	9.000000	36.000000
36000	250	1	0	48	77	120	9.000000	36.000000
36000	250	1	0	48	84	120	9.000000	36.000000
36000	250	2	1	48	63	120	9.000000	36.000000
36000	250	2	1	48	70	120	9.000000	36.000000
36500	250	2	1	48	63	120	9.125000	36.500000
36500	250	2	1	48	70	120	9.125000	36.500000
37500	250	2	1	48	63	120	9.375000	37.500000
37500	250	2	1	48	70	120	9.375000	37.500000
38000	250	2	1	48	63	120	9.500000	38.000000
38000	250	2	1	48	70	120	9.500000	38.000000
38500	250	2	1	48	63	120	9.625000	38.500000
38500	250	2	1	48	70	120	9.625000	38.500000
39000	250	2	1	48	63	120	9.750000	39.000000
39000	250	2	1	48	70	120	9.750000	39.000000
39500	250	2	1	48	65	120	9.875000	39.500000
39500	250	2	1	48	72	120	9.875000	39.500000
40000	250	1	0	48	70	120	10.000000	40.000000
40000	250	1	0	48	77	120	10.000000	40.000000
40000	250	1	0	48	82	120	10.000000	40.000000
40000	250	2	1	48	63	120	10.000000	40.000000
40000	250	2	1	48	70	120	10.000000	40.000000
40500	250	2	1	48	63	120	10.125000	40.500000
40500	250	2	1	48	70	120	10.125000	40.500000
41500	250	2	1	48	63	120	10.375000	41.500000
41500	250	2	1	48	70	120	10.375000	41.500000
42000	250	1	0	48	77	120	10.500000	42.000000
42000	250	1	0	48	82	120	10.500000	42.000000
42000	250	1	0	48	89	120	10.500000	42.000000
42000	250	2	1	48	63	120	10.500000	42.000000
42000	250	2	1	48	70	120	10.500000	42.000000
42500	250	2	1	48	63	120	10.625000	42.500000
42500	250	2	1	48	70	120	10.625000	42.500000
43500	250	2	1	48	63	120	10.875000	43.500000
43500	250	2	1	48	70	120	10.875000	43.500000
44000	250	1	0	48	65	120	11.000000	44.000000
44000	250	1	0	48	70	120	11.000000	44.000000
44000	250	1	0	48	77	120	11.000000	44.000000
44000	250	2	1	48	63	120	11.000000	44.000000
44000	250	2	1	48	65	120	11.000000	44.000000
44000	250	2	1	48	70	120	11.000000	44.000000
44500	250	2	1	48	63	120	11.125000	44.500000
44500	250	2	1	48	70	120	11.125000	44.500000
45500	250	2	1	48	63	120	11.375000	45.500000
45500	250	2	1	48	70	120	11.375000	45.500000
46000	250	2	1	48	63	120	11.500000	46.000000
46000	250	2	1	48	70	120	11.500000	46.000000
46500	250	2	1	48	63	120	11.625000	46.500000
46500	250	2	1	48	70	120	11.625000	46.500000
47000	250	2	1	48	63	120	11.750000	47.000000
47000	250	2	1	48	70	120	11.750000	47.000000
47500	250	2	1	48	65	120	11.875000	47.500000
47500	250	2	1	48	72	120	11.875000	47.500000
48000	250	1	0	48	65	120	12.000000	48.000000
48000	250	1	0	48	69	120	12.000000	48.000000
48000	250	1	0	48	77	120	12.000000	48.000000
48000	250	2	1	48	62	120	12.000000	48.000000
48000	250	2	1	48	69	120	12.000000	48.000000
48500	250	2	1	48	62	120	12.125000	48.500000
48500	250	2	1	48	69	120	12.125000	48.500000
49500	250	2	1	48	62	120	12.375000	49.500000
49500	250	2	1	48	69	120	12.375000	49.500000
50000	250	1	0	48	69	120	12.500000	50.000000
50000	250	1	0	48	77	120	12.500000	50.000000
50000	250	1	0	48	81	120	12.500000	50.000000
50000	250	2	1	48	62	120	12.500000	50.000000
50000	250	2	1	48	69	120	12.500000	50.000000
50500	250	2	1	48	62	120	12.625000	50.500000
50500	250	2	1	48	69	120	12.625000	50.500000
51500	250	2	1	48	62	120	12.875000	51.500000
51500	250	2	1	48	69	120	12.875000	51.500000
52000	250	1	0	48	81	120	13.000000	52.000000
52000	250	1	0	48	84	120	13.000000	52.000000
52000	250	1	0	48	93	120	13.000000	52.000000
52000	250	2	1	48	62	120	13.000000	52.000000
52000	250	2	1	48	69	120	13.000000	52.000000
52500	250	2	1	48	62	120	13.125000	52.500000
52500	250	2	1	48	69	120	13.125000	52.500000
53500	250	2	1	48	62	120	13.375000	53.500000
53500	250	2	1	48	69	120	13.375000	53.500000
54000	250	2	1	48	62	120	13.500000	54.000000
54000	250	2	1	48	69	120	13.500000	54.000000
54500	250	2	1	48	62	120	13.625000	54.500000
54500	250	2	1	48	69	120	13.625000	54.500000
55000	250	1	0	48	82	120	13.750000	55.000000
55000	250	1	0	48	86	120	13.750000	55.000000
55000	250	1	0	48	94	120	13.750000	55.000000
55000	250	2	1	48	62	120	13.750000	55.000000
55000	250	2	1	48	69	120	13.750000	55.000000
56000	250	1	0	48	81	120	14.000000	56.000000
56000	250	1	0	48	84	120	14.000000	56.000000
56000	250	1	0	48	93	120	14.000000	56.000000
56000	250	2	1	48	67	120	14.000000	56.000000
56000	4000	16	15	119	57	100	14.000000	56.000000
58000	250	1	0	48	77	120	14.500000	58.000000
58000	250	1	0	48	81	120	14.500000	58.000000
58000	250	1	0	48	89	120	14.500000	58.000000
58000	250	2	1	48	69	120	14.500000	58.000000
60000	250	1	0	48	74	120	15.000000	60.000000
60000	250	1	0	48	77	120	15.000000	60.000000
60000	250	1	0	48	86	120	15.000000	60.000000
60000	250	2	1	48	70	120	15.000000	60.000000
60500	500	3	2	80	82	120	15.125000	60.500000
60500	500	12	11	30	70	120	15.125000	60.500000
60750	124	10	9	16	47	100	15.187500	60.750000
60874	126	10	9	16	47	100	15.218500	60.874000
61000	500	3	2	80	81	120	15.250000	61.000000
61000	500	10	9	16	47	100	15.250000	61.000000
61000	500	12	11	30	69	120	15.250000	61.000000
61500	500	3	2	80	77	120	15.375000	61.500000
61500	500	10	9	16	47	100	15.375000	61.500000
61500	500	12	11	30	65	120	15.375000	61.500000
62000	500	3	2	80	74	120	15.500000	62.000000
62000	500	10	9	16	45	100	15.500000	62.000000
62000	500	12	11	30	62	120	15.500000	62.000000
62500	500	3	2	80	72	120	15.625000	62.500000
62500	248	10	9	16	45	100	15.625000	62.500000
62500	500	12	11	30	60	120	15.625000	62.500000
62750	124	10	9	16	43	100	15.687500	62.750000
62874	126	10	9	16	43	100	15.718500	62.874000
63000	500	3	2	80	70	120	15.750000	63.000000
63000	500	10	9	16	43	100	15.750000	63.000000
63000	500	12	11	30	58	120	15.750000	63.000000
63500	500	3	2	80	65	120	15.875000	63.500000
63500	500	10	9	16	41	100	15.875000	63.500000
63500	500	12	11	30	53	120	15.875000	63.500000
64000	250	1	0	48	82	120	16.000000	64.000000
64000	250	1	0	48	86	120	16.000000	64.000000
64000	8000	2	1	48	39	100	16.000000	64.000000
64000	8000	2	1	48	46	100	16.000000	64.000000
64000	8000	2	1	48	51	100	16.000000	64.000000
64000	2000	2	1	48	53	120	16.000000	64.000000
64000	2000	2	1	48	65	120	16.000000	64.000000
64000	2000	3	2	80	65	120	16.000000	64.000000
64000	2000	4	3	57	53	120	16.000000	64.000000
64000	500	10	9	16	36	100	16.000000	64.000000
64000	500	10	9	16	46	80	16.000000	64.000000
64000	500	10	9	16	49	100	16.000000	64.000000
64000	500	13	12	29	51	120	16.000000	64.000000
64000	500	14	13	30	51	120	16.000000	64.000000
64000	500	15	14	33	39	120	16.000000	64.000000
64500	500	10	9	16	36	100	16.125000	64.500000
64500	500	13	12	29	39	120	16.125000	64.500000
64500	500	14	13	30	39	120	16.125000	64.500000
64500	500	15	14	33	27	120	16.125000	64.500000
65000	500	10	9	16	38	100	16.250000	65.000000
65000	500	10	9	16	46	80	16.250000	65.000000
65000	500	13	12	29	39	120	16.250000	65.000000
65000	500	14	13	30	39	120	16.250000	65.000000
65000	500	15	14	33	27	120	16.250000	65.000000
65500	250	1	0	48	82	120	16.375000	65.500000
65500	250	1	0	48	86	120	16.375000	65.500000
65500	500	10	9	16	36	100	16.375000	65.500000
65500	500	13	12	29	51	120	16.375000	65.500000
65500	500	14	13	30	51	120	16.375000	65.500000
65500	500	15	14	33	39	120	16.375000	65.500000
66000	2000	2	1	48	65	120	16.500000	66.000000
66000	2000	2	1	48	77	120	16.500000	66.000000
66000	2000	3	2	80	77	120	16.500000	66.000000
66000	2000	4	3	57	65	120	16.500000	66.000000
66000	500	10	9	16	36	100	16.500000	66.000000
66000	500	10	9	16	46	80	16.500000	66.000000
66000	500	13	12	29	39	120	16.500000	66.000000
66000	500	14	13	30	39	120	16.500000	66.000000
66000	500	15	14	33	27	120	16.500000	66.000000
66500	500	10	9	16	36	100	16.625000	66.500000
66500	500	13	12	29	39	120	16.625000	66.500000
66500	500	14	13	30	39	120	16.625000	66.500000
66500	500	15	14	33	27	120	16.625000	66.500000
67000	250	1	0	48	82	120	16.750000	67.000000
67000	250	1	0	48	86	120	16.750000	67.000000
67000	500	10	9	16	38	100	16.750000	67.000000
67000	500	10	9	16	46	80	16.750000	67.000000
67000	500	13	12	29	51	120	16.750000	67.000000
67000	500	14	13	30	51	120	16.750000	67.000000
67000	500	15	14	33	39	120	16.750000	67.000000
67500	500	10	9	16	36	100	16.875000	67.500000
67500	500	13	12	29	39	120	16.875000	67.500000
67500	500	14	13	30	39	120	16.875000	67.500000
67500	500	15	14	33	27	120	16.875000	67.500000
68000	3000	2	1	48	60	120	17.000000	68.000000
68000	3000	2	1	48	72	120	17.000000	68.000000
68000	3000	3	2	80	72	120	17.000000	68.000000
68000	3000	4	3	57	60	120	17.000000	68.000000
68000	500	10	9	16	36	100	17.000000	68.000000
68000	500	10	9	16	46	80	17.000000	68.000000
68000	500	13	12	29	39	120	17.000000	68.000000
68000	500	14	13	30	39	120	17.000000	68.000000
68000	500	15	14	33	27	120	17.000000	68.000000
68500	250	1	0	48	82	120	17.125000	68.500000
68500	250	1	0	48	86	120	17.125000	68.500000
68500	500	10	9	16	36	100	17.125000	68.500000
68500	500	13	12	29	51	120	17.125000	68.500000
68500	500	14	13	30	51	120	17.125000	68.500000
68500	500	15	14	33	39	120	17.125000	68.500000
69000	500	10	9	16	38	100	17.250000	69.000000
69000	500	10	9	16	46	80	17.250000	69.000000
69000	500	13	12	29	39	120	17.250000	69.000000
69000	500	14	13	30	39	120	17.250000	69.000000
69000	500	15	14	33	27	120	17.250000	69.000000
69500	500	10	9	16	36	100	17.375000	69.500000
69500	500	13	12	29	39	120	17.375000	69.500000
69500	500	14	13	30	39	120	17.375000	69.500000
69500	500	15	14	33	27	120	17.375000	69.500000
70000	250	1	0	48	82	120	17.500000	70.000000
70000	250	1	0	48	86	120	17.500000	70.000000
70000	500	10	9	16	36	100	17.500000	70.000000
70000	500	10	9	16	46	80	17.500000	70.000000
70000	500	13	12	29	51	120	17.500000	70.000000
70000	500	14	13	30	51	120	17.500000	70.000000
70000	500	15	14	33	39	120	17.500000	70.000000
70500	500	10	9	16	36	100	17.625000	70.500000
70500	500	13	12	29	39	120	17.625000	70.500000
70500	500	14	13	30	39	120	17.625000	70.500000
70500	500	15	14	33	27	120	17.625000	70.500000
71000	250	1	0	48	82	120	17.750000	71.000000
71000	250	1	0	48	86	120	17.750000	71.000000
71000	500	10	9	16	38	100	17.750000	71.000000
71000	500	10	9	16	46	80	17.750000	71.000000
71000	500	13	12	29	51	120	17.750000	71.000000
71000	500	14	13	30	51	120	17.750000	71.000000
71000	500	15	14	33	39	120	17.750000	71.000000
71500	250	1	0	48	86	120	17.875000	71.500000
71500	250	1	0	48	89	120	17.875000	71.500000
71500	500	10	9	16	36	100	17.875000	71.500000
71500	500	13	12	29	53	120	17.875000	71.500000
71500	500	14	13	30	53	120	17.875000	71.500000
71500	500	15	14	33	41	120	17.875000	71.500000
72000	250	1	0	48	82	120	18.000000	72.000000
72000	250	1	0	48	86	120	18.000000	72.000000
72000	8000	2	1	48	39	100	18.000000	72.000000
72000	8000	2	1	48	46	100	18.000000	72.000000
72000	8000	2	1	48	51	100	18.000000	72.000000
72000	2000	2	1	48	58	120	18.000000	72.000000
72000	2000	2	1	48	70	120	18.000000	72.000000
72000	2000	3	2	80	70	120	18.000000	72.000000
72000	2000	4	3	57	58	120	18.000000	72.000000
72000	500	10	9	16	36	100	18.000000	72.000000
72000	500	10	9	16	46	80	18.000000	72.000000
72000	500	13	12	29	51	120	18.000000	72.000000
72000	500	14	13	30	51	120	18.000000	72.000000
72000	500	15	14	33	39	120	18.000000	72.000000
72500	500	10	9	16	36	100	18.125000	72.500000
72500	500	13	12	29	39	120	18.125000	72.500000
72500	500	14	13	30	39	120	18.125000	72.500000
72500	500	15	14	33	27	120	18.125000	72.500000
73000	500	10	9	16	38	100	18.250000	73.000000
73000	500	10	9	16	46	80	18.250000	73.000000
73000	500	13	12	29	39	120	18.250000	73.000000
73000	500	14	13	30	39	120	18.250000	73.000000
73000	500	15	14	33	27	120	18.250000	73.000000
73500	250	1	0	48	82	120	18.375000	73.500000
73500	250	1	0	48	86	120	18.375000	73.500000
73500	500	10	9	16	36	100	18.375000	73.500000
73500	500	13	12	29	51	120	18.375000	73.500000
73500	500	14	13	30	51	120	18.375000	73.500000
73500	500	15	14	33	39	120	18.375000	73.500000
74000	2000	2	1	48	65	120	18.500000	74.000000
74000	2000	2	1	48	77	120	18.500000	74.000000
74000	2000	3	2	80	77	120	18.500000	74.000000
74000	2000	4	3	57	65	120	18.500000	74.000000
74000	500	10	9	16	36	100	18.500000	74.000000
74000	500	10	9	16	46	80	18.500000	74.000000
74000	500	13	12	29	39	120	18.500000	74.000000
74000	500	14	13	30	39	120	18.500000	74.000000
74000	500	15	14	33	27	120	18.500000	74.000000
74500	500	10	9	16	36	100	18.625000	74.500000
74500	500	13	12	29	39	120	18.625000	74.500000
74500	500	14	13	30	39	120	18.625000	74.500000
74500	500	15	14	33	27	120	18.625000	74.500000
75000	250	1	0	48	82	120	18.750000	75.000000
75000	250	1	0	48	86	120	18.750000	75.000000
75000	500	10	9	16	38	100	18.750000	75.000000
75000	500	10	9	16	46	80	18.750000	75.000000
75000	500	13	12	29	51	120	18.750000	75.000000
75000	500	14	13	30	51	120	18.750000	75.000000
75000	500	15	14	33	39	120	18.750000	75.000000
75500	500	10	9	16	36	100	18.875000	75.500000
75500	500	13	12	29	39	120	18.875000	75.500000
75500	500	14	13	30	39	120	18.875000	75.500000
75500	500	15	14	33	27	120	18.875000	75.500000
76000	3000	2	1	48	53	120	19.000000	76.000000
76000	3000	2	1	48	65	120	19.000000	76.000000
76000	3000	3	2	80	65	120	19.000000	76.000000
76000	3000	4	3	57	53	120	19.000000	76.000000
76000	500	10	9	16	36	100	19.000000	76.000000
76000	500	10	9	16	46	80	19.000000	76.000000
76000	500	13	12	29	39	120	19.000000	76.000000
76000	500	14	13	30	39	120	19.000000	76.000000
76000	500	15	14	33	27	120	19.000000	76.000000
76500	250	1	0	48	82	120	19.125000	76.500000
76500	250	1	0	48	86	120	19.125000	76.500000
76500	500	10	9	16	36	100	19.125000	76.500000
76500	500	13	12	29	51	120	19.125000	76.500000
76500	500	14	13	30	51	120	19.125000	76.500000
76500	500	15	14	33	39	120	19.125000	76.500000
77000	500	10	9	16	38	100	19.250000	77.000000
77000	500	10	9	16	46	80	19.250000	77.000000
77000	500	13	12	29	39	120	19.250000	77.000000
77000	500	14	13	30	39	120	19.250000	77.000000
77000	500	15	14	33	27	120	19.250000	77.000000
77500	500	10	9	16	36	100	19.375000	77.500000
77500	500	13	12	29	39	120	19.375000	77.500000
77500	500	14	13	30	39	120	19.375000	77.500000
77500	500	15	14	33	27	120	19.375000	77.500000
78000	250	1	0	48	82	120	19.500000	78.000000
78000	250	1	0	48	86	120	19.500000	78.000000
78000	500	10	9	16	36	100	19.500000	78.000000
78000	500	10	9	16	46	80	19.500000	78.000000
78000	500	13	12	29	51	120	19.500000	78.000000
78000	500	14	13	30	51	120	19.500000	78.000000
78000	500	15	14	33	39	120	19.500000	78.000000
78500	500	10	9	16	36	100	19.625000	78.500000
78500	500	13	12	29	39	120	19.625000	78.500000
78500	500	14	13	30	39	120	19.625000	78.500000
78500	500	15	14	33	27	120	19.625000	78.500000
79000	250	1	0	48	82	120	19.750000	79.000000
79000	250	1	0	48	86	120	19.750000	79.000000
79000	500	10	9	16	38	100	19.750000	79.000000
79000	500	10	9	16	46	80	19.750000	79.000000
79000	500	13	12	29	51	120	19.750000	79.000000
79000	500	14	13	30	51	120	19.750000	79.000000
79000	500	15	14	33	39	120	19.750000	79.000000
79500	250	1	0	48	86	120	19.875000	79.500000
79500	250	1	0	48	89	120	19.875000	79.500000
79500	500	10	9	16	36	100	19.875000	79.500000
79500	500	13	12	29	53	120	19.875000	79.500000
79500	500	14	13	30	53	120	19.875000	79.500000
79500	500	15	14	33	41	120	19.875000	79.500000
80000	250	1	0	48	81	120	20.000000	80.000000
80000	250	1	0	48	86	120	20.000000	80.000000
80000	8000	2	1	48	38	100	20.000000	80.000000
80000	8000	2	1	48	45	100	20.000000	80.000000
80000	8000	2	1	48	50	100	20.000000	80.000000
80000	2000	2	1	48	57	120	20.000000	80.000000
80000	2000	2	1	48	62	120	20.000000	80.000000
80000	2000	2	1	48	69	120	20.000000	80.000000
80000	2000	3	2	80	62	120	20.000000	80.000000
80000	2000	3	2	80	69	120	20.000000	80.000000
80000	2000	4	3	57	50	120	20.000000	80.000000
80000	500	10	9	16	36	100	20.000000	80.000000
80000	500	10	9	16	46	80	20.000000	80.000000
80000	500	13	12	29	50	120	20.000000	80.000000
80000	500	14	13	30	50	120	20.000000	80.000000
80000	500	15	14	33	38	120	20.000000	80.000000
80500	500	10	9	16	36	100	20.125000	80.500000
80500	500	13	12	29	38	120	20.125000	80.500000
80500	500	14	13	30	38	120	20.125000	80.500000
80500	500	15	14	33	26	120	20.125000	80.500000
81000	500	10	9	16	38	100	20.250000	81.000000
81000	500	10	9	16	46	80	20.250000	81.000000
81000	500	13	12	29	38	120	20.250000	81.000000
81000	500	14	13	30	38	120	20.250000	81.000000
81000	500	15	14	33	26	120	20.250000	81.000000
81500	500	10	9	16	36	100	20.375000	81.500000
81500	500	13	12	29	38	120	20.375000	81.500000
81500	500	14	13	30	38	120	20.375000	81.500000
81500	500	15	14	33	26	120	20.375000	81.500000
82000	250	1	0	48	81	120	20.500000	82.000000
82000	250	1	0	48	86	120	20.500000	82.000000
82000	2000	2	1	48	62	120	20.500000	82.000000
82000	2000	2	1	48	69	120	20.500000	82.000000
82000	2000	2	1	48	74	120	20.500000	82.000000
82000	2000	3	2	80	69	120	20.500000	82.000000
82000	2000	3	2	80	74	120	20.500000	82.000000
82000	2000	4	3	57	57	120	20.500000	82.000000
82000	500	10	9	16	36	100	20.500000	82.000000
82000	500	10	9	16	46	80	20.500000	82.000000
82000	500	13	12	29	50	120	20.500000	82.000000
82000	500	14	13	30	50	120	20.500000	82.000000
82000	500	15	14	33	38	120	20.500000	82.000000
82500	500	10	9	16	36	100	20.625000	82.500000
82500	500	13	12	29	38	120	20.625000	82.500000
82500	500	14	13	30	38	120	20.625000	82.500000
82500	500	15	14	33	26	120	20.625000	82.500000
83000	500	10	9	16	38	100	20.750000	83.000000
83000	500	10	9	16	46	80	20.750000	83.000000
83000	500	13	12	29	38	120	20.750000	83.000000
83000	500	14	13	30	38	120	20.750000	83.000000
83000	500	15	14	33	26	120	20.750000	83.000000
83500	250	1	0	48	81	120	20.875000	83.500000
83500	250	1	0	48	86	120	20.875000	83.500000
83500	500	10	9	16	36	100	20.875000	83.500000
83500	500	13	12	29	50	120	20.875000	83.500000
83500	500	14	13	30	50	120	20.875000	83.500000
83500	500	15	14	33	38	120	20.875000	83.500000
84000	2000	2	1	48	69	120	21.000000	84.000000
84000	2000	2	1	48	77	120	21.000000	84.000000
84000	2000	2	1	48	81	120	21.000000	84.000000
84000	2000	3	2	80	69	120	21.000000	84.000000
84000	2000	3	2	80	77	120	21.000000	84.000000
84000	2000	4	3	57	65	120	21.000000	84.000000
84000	500	10	9	16	36	100	21.000000	84.000000
84000	500	10	9	16	46	80	21.000000	84.000000
84000	500	13	12	29	38	120	21.000000	84.000000
84000	500	14	13	30	38	120	21.000000	84.000000
84000	500	15	14	33	26	120	21.000000	84.000000
84500	250	1	0	48	81	120	21.125000	84.500000
84500	250	1	0	48	84	120	21.125000	84.500000
84500	500	10	9	16	36	100	21.125000	84.500000
84500	500	13	12	29	50	120	21.125000	84.500000
84500	500	14	13	30	50	120	21.125000	84.500000
84500	500	15	14	33	38	120	21.125000	84.500000
85000	500	10	9	16	38	100	21.250000	85.000000
85000	500	10	9	16	46	80	21.250000	85.000000
85000	500	13	12	29	38	120	21.250000	85.000000
85000	500	14	13	30	38	120	21.250000	85.000000
85000	500	15	14	33	26	120	21.250000	85.000000
85500	500	10	9	16	36	100	21.375000	85.500000
85500	500	13	12	29	38	120	21.375000	85.500000
85500	500	14	13	30	38	120	21.375000	85.500000
85500	500	15	14	33	26	120	21.375000	85.500000
86000	250	1	0	48	81	120	21.500000	86.000000
86000	250	1	0	48	84	120	21.500000	86.000000
86000	500	10	9	16	36	100	21.500000	86.000000
86000	500	10	9	16	46	80	21.500000	86.000000
86000	500	13	12	29	50	120	21.500000	86.000000
86000	500	14	13	30	50	120	21.500000	86.000000
86000	500	15	14	33	38	120	21.500000	86.000000
86500	500	10	9	16	36	100	21.625000	86.500000
86500	500	13	12	29	38	120	21.625000	86.500000
86500	500	14	13	30	38	120	21.625000	86.500000
86500	500	15	14	33	26	120	21.625000	86.500000
87000	250	1	0	48	91	120	21.750000	87.000000
87000	1000	2	1	48	70	120	21.750000	87.000000
87000	1000	2	1	48	79	120	21.750000	87.000000
87000	1000	2	1	48	82	120	21.750000	87.000000
87000	1000	3	2	80	70	120	21.750000	87.000000
87000	1000	3	2	80	79	120	21.750000	87.000000
87000	250	3	2	80	91	80	21.750000	87.000000
87000	1000	4	3	57	67	120	21.750000	87.000000
87000	500	10	9	16	38	100	21.750000	87.000000
87000	500	10	9	16	46	80	21.750000	87.000000
87000	500	13	12	29	26	120	21.750000	87.000000
87000	500	13	12	29	38	120	21.750000	87.000000
87000	500	14	13	30	26	120	21.750000	87.000000
87000	500	14	13	30	38	120	21.750000	87.000000
87000	500	15	14	33	14	120	21.750000	87.000000
87000	500	15	14	33	26	120	21.750000	87.000000
87500	250	1	0	48	94	120	21.875000	87.500000
87500	250	3	2	80	94	80	21.875000	87.500000
87500	500	10	9	16	36	100	21.875000	87.500000
87500	500	13	12	29	29	120	21.875000	87.500000
87500	500	13	12	29	41	120	21.875000	87.500000
87500	500	14	13	30	29	120	21.875000	87.500000
87500	500	14	13	30	41	120	21.875000	87.500000
87500	500	15	14	33	17	120	21.875000	87.500000
87500	500	15	14	33	29	120	21.875000	87.500000
88000	2000	2	1	48	38	100	22.000000	88.000000
88000	2000	2	1	48	45	100	22.000000	88.000000
88000	2000	2	1	48	50	100	22.000000	88.000000
88000	2000	2	1	48	69	120	22.000000	88.000000
88000	2000	2	1	48	77	120	22.000000	88.000000
88000	2000	2	1	48	81	120	22.000000	88.000000
88000	2000	3	2	80	69	120	22.000000	88.000000
88000	2000	3	2	80	77	120	22.000000	88.000000
88000	2000	4	3	57	65	120	22.000000	88.000000
88000	500	10	9	16	36	100	22.000000	88.000000
88000	500	10	9	16	46	80	22.000000	88.000000
88000	1000	13	12	29	31	120	22.000000	88.000000
88000	1000	13	12	29	43	120	22.000000	88.000000
88000	1000	14	13	30	31	120	22.000000	88.000000
88000	1000	14	13	30	43	120	22.000000	88.000000
88000	500	15	14	33	19	120	22.000000	88.000000
88000	500	15	14	33	31	120	22.000000	88.000000
88500	250	3	2	80	89	80	22.125000	88.500000
88500	500	10	9	16	36	100	22.125000	88.500000
89000	250	3	2	80	96	80	22.250000	89.000000
89000	500	10	9	16	38	100	22.250000	89.000000
89000	500	10	9	16	46	80	22.250000	89.000000
89000	1000	13	12	29	31	120	22.250000	89.000000
89000	1000	13	12	29	43	120	22.250000	89.000000
89000	1000	14	13	30	31	120	22.250000	89.000000
89000	1000	14	13	30	43	120	22.250000	89.000000
89000	500	15	14	33	19	120	22.250000	89.000000
89000	500	15	14	33	31	120	22.250000	89.000000
89500	250	3	2	80	98	80	22.375000	89.500000
89500	500	10	9	16	36	100	22.375000	89.500000
90000	2000	2	1	48	41	100	22.500000	90.000000
90000	2000	2	1	48	48	100	22.500000	90.000000
90000	2000	2	1	48	53	100	22.500000	90.000000
90000	2000	2	1	48	60	120	22.500000	90.000000
90000	2000	2	1	48	65	120	22.500000	90.000000
90000	2000	2	1	48	72	120	22.500000	90.000000
90000	2000	2	1	48	77	120	22.500000	90.000000
90000	2000	3	2	80	65	120	22.500000	90.000000
90000	2000	3	2	80	72	120	22.500000	90.000000
90000	2000	4	3	57	60	120	22.500000	90.000000
90000	500	10	9	16	36	100	22.500000	90.000000
90000	500	10	9	16	46	80	22.500000	90.000000
90000	1000	13	12	29	33	120	22.500000	90.000000
90000	1000	13	12	29	45	120	22.500000	90.000000
90000	1000	14	13	30	33	120	22.500000	90.000000
90000	1000	14	13	30	45	120	22.500000	90.000000
90000	500	15	14	33	21	120	22.500000	90.000000
90000	500	15	14	33	33	120	22.500000	90.000000
90500	250	3	2	80	94	80	22.625000	90.500000
90500	500	10	9	16	36	100	22.625000	90.500000
91000	250	3	2	80	96	80	22.750000	91.000000
91000	500	10	9	16	38	100	22.750000	91.000000
91000	500	10	9	16	46	80	22.750000	91.000000
91000	1000	13	12	29	33	120	22.750000	91.000000
91000	1000	13	12	29	45	120	22.750000	91.000000
91000	1000	14	13	30	33	120	22.750000	91.000000
91000	1000	14	13	30	45	120	22.750000	91.000000
91000	500	15	14	33	21	120	22.750000	91.000000
91000	500	15	14	33	33	120	22.750000	91.000000
91500	250	3	2	80	98	80	22.875000	91.500000
91500	500	10	9	16	36	100	22.875000	91.500000
92000	4000	2	1	48	43	100	23.000000	92.000000
92000	4000	2	1	48	50	100	23.000000	92.000000
92000	4000	2	1	48	55	100	23.000000	92.000000
92000	2000	2	1	48	58	120	23.000000	92.000000
92000	2000	2	1	48	67	120	23.000000	92.000000
92000	2000	2	1	48	70	120	23.000000	92.000000
92000	2000	2	1	48	79	120	23.000000	92.000000
92000	2000	3	2	80	67	120	23.000000	92.000000
92000	2000	3	2	80	70	120	23.000000	92.000000
92000	250	3	2	80	106	80	23.000000	92.000000
92000	2000	4	3	57	58	120	23.000000	92.000000
92000	500	10	9	16	36	100	23.000000	92.000000
92000	500	10	9	16	46	80	23.000000	92.000000
92000	1000	13	12	29	34	120	23.000000	92.000000
92000	1000	13	12	29	46	120	23.000000	92.000000
92000	1000	14	13	30	34	120	23.000000	92.000000
92000	1000	14	13	30	46	120	23.000000	92.000000
92000	500	15	14	33	22	120	23.000000	92.000000
92000	500	15	14	33	34	120	23.000000	92.000000
92500	250	3	2	80	98	80	23.125000	92.500000
92500	250	5	4	0	82	120	23.125000	92.500000
92500	500	10	9	16	36	100	23.125000	92.500000
93000	250	3	2	80	96	80	23.250000	93.000000
93000	250	5	4	0	81	120	23.250000	93.000000
93000	500	10	9	16	38	100	23.250000	93.000000
93000	500	10	9	16	46	80	23.250000	93.000000
93000	1000	13	12	29	34	120	23.250000	93.000000
93000	1000	13	12	29	46	120	23.250000	93.000000
93000	1000	14	13	30	34	120	23.250000	93.000000
93000	1000	14	13	30	46	120	23.250000	93.000000
93000	500	15	14	33	22	120	23.250000	93.000000
93000	500	15	14	33	34	120	23.250000	93.000000
93500	250	3	2	80	98	80	23.375000	93.500000
93500	250	5	4	0	77	120	23.375000	93.500000
93500	500	10	9	16	36	100	23.375000	93.500000
94000	250	3	2	80	96	80	23.500000	94.000000
94000	250	5	4	0	74	120	23.500000	94.000000
94000	500	10	9	16	36	100	23.500000	94.000000
94000	500	10	9	16	46	80	23.500000	94.000000
94000	500	13	12	29	36	120	23.500000	94.000000
94000	500	13	12	29	48	120	23.500000	94.000000
94000	500	14	13	30	36	120	23.500000	94.000000
94000	500	14	13	30	48	120	23.500000	94.000000
94000	500	15	14	33	24	120	23.500000	94.000000
94000	500	15	14	33	36	120	23.500000	94.000000
94500	250	3	2	80	94	80	23.625000	94.500000
94500	250	5	4	0	72	120	23.625000	94.500000
94500	500	10	9	16	36	100	23.625000	94.500000
94500	500	13	12	29	34	120	23.625000	94.500000
94500	500	13	12	29	46	120	23.625000	94.500000
94500	500	14	13	30	34	120	23.625000	94.500000
94500	500	14	13	30	46	120	23.625000	94.500000
94500	500	15	14	33	22	120	23.625000	94.500000
94500	500	15	14	33	34	120	23.625000	94.500000
95000	250	3	2	80	96	80	23.750000	95.000000
95000	250	5	4	0	70	120	23.750000	95.000000
95000	500	10	9	16	38	100	23.750000	95.000000
95000	500	10	9	16	46	80	23.750000	95.000000
95000	500	13	12	29	36	120	23.750000	95.000000
95000	500	13	12	29	48	120	23.750000	95.000000
95000	500	14	13	30	36	120	23.750000	95.000000
95000	500	14	13	30	48	120	23.750000	95.000000
95000	500	15	14	33	24	120	23.750000	95.000000
95000	500	15	14	33	36	120	23.750000	95.000000
95500	250	3	2	80	98	80	23.875000	95.500000
95500	250	5	4	0	65	120	23.875000	95.500000
95500	500	10	9	16	36	100	23.875000	95.500000
95500	500	13	12	29	38	120	23.875000	95.500000
95500	500	13	12	29	50	120	23.875000	95.500000
95500	500	14	13	30	38	120	23.875000	95.500000
95500	500	14	13	30	50	120	23.875000	95.500000
95500	500	15	14	33	26	120	23.875000	95.500000
95500	500	15	14	33	38	120	23.875000	95.500000
96000	250	1	0	48	82	120	24.000000	96.000000
96000	250	1	0	48	86	120	24.000000	96.000000
96000	8000	2	1	48	39	100	24.000000	96.000000
96000	8000	2	1	48	46	100	24.000000	96.000000
96000	8000	2	1	48	51	100	24.000000	96.000000
96000	2000	2	1	48	53	120	24.000000	96.000000
96000	2000	2	1	48	65	120	24.000000	96.000000
96000	2000	3	2	80	65	120	24.000000	96.000000
96000	2000	4	3	57	53	120	24.000000	96.000000
96000	500	10	9	16	36	100	24.000000	96.000000
96000	500	10	9	16	46	80	24.000000	96.000000
96000	500	10	9	16	49	100	24.000000	96.000000
96000	500	13	12	29	51	120	24.000000	96.000000
96000	500	14	13	30	51	120	24.000000	96.000000
96000	500	15	14	33	39	120	24.000000	96.000000
96500	500	10	9	16	36	100	24.125000	96.500000
96500	500	13	12	29	39	120	24.125000	96.500000
96500	500	14	13	30	39	120	24.125000	96.500000
96500	500	15	14	33	27	120	24.125000	96.500000
97000	500	10	9	16	38	100	24.250000	97.000000
97000	500	10	9	16	46	80	24.250000	97.000000
97000	500	13	12	29	39	120	24.250000	97.000000
97000	500	14	13	30	39	120	24.250000	97.000000
97000	500	15	14	33	27	120	24.250000	97.000000
97500	250	1	0	48	82	120	24.375000	97.500000
97500	250	1	0	48	86	120	24.375000	97.500000
97500	500	10	9	16	36	100	24.375000	97.500000
97500	500	13	12	29	51	120	24.375000	97.500000
97500	500	14	13	30	51	120	24.375000	97.500000
97500	500	15	14	33	39	120	24.375000	97.500000
98000	2000	2	1	48	65	120	24.500000	98.000000
98000	2000	2	1	48	77	120	24.500000	98.000000
98000	2000	3	2	80	77	120	24.500000	98.000000
98000	2000	4	3	57	65	120	24.500000	98.000000
98000	500	10	9	16	36	100	24.500000	98.000000
98000	500	10	9	16	46	80	24.500000	98.000000
98000	500	13	12	29	39	120	24.500000	98.000000
98000	500	14	13	30	39	120	24.500000	98.000000
98000	500	15	14	33	27	120	24.500000	98.000000
98500	500	10	9	16	36	100	24.625000	98.500000
98500	500	13	12	29	39	120	24.625000	98.500000
98500	500	14	13	30	39	120	24.625000	98.500000
98500	500	15	14	33	27	120	24.625000	98.500000
99000	250	1	0	48	82	120	24.750000	99.000000
99000	250	1	0	48	86	120	24.750000	99.000000
99000	500	10	9	16	38	100	24.750000	99.000000
99000	500	10	9	16	46	80	24.750000	99.000000
99000	500	13	12	29	51	120	24.750000	99.000000
99000	500	14	13	30	51	120	24.750000	99.000000
99000	500	15	14	33	39	120	24.750000	99.000000
99500	500	10	9	16	36	100	24.875000	99.500000
99500	500	13	12	29	39	120	24.875000	99.500000
99500	500	14	13	30	39	120	24.875000	99.500000
99500	500	15	14	33	27	120	24.875000	99.500000
100000	3000	2	1	48	60	120	25.000000	100.000000
100000	3000	2	1	48	72	120	25.000000	100.000000
100000	3000	3	2	80	72	120	25.000000	100.000000
100000	3000	4	3	57	60	120	25.000000	100.000000
100000	500	10	9	16	36	100	25.000000	100.000000
100000	500	10	9	16	46	80	25.000000	100.000000
100000	500	13	12	29	39	120	25.000000	100.000000
100000	500	14	13	30	39	120	25.000000	100.000000
100000	500	15	14	33	27	120	25.000000	100.000000
100500	250	1	0	48	82	120	25.125000	100.500000
100500	250	1	0	48	86	120	25.125000	100.500000
100500	500	10	9	16	36	100	25.125000	100.500000
100500	500	13	12	29	51	120	25.125000	100.500000
100500	500	14	13	30	51	120	25.125000	100.500000
100500	500	15	14	33	39	120	25.125000	100.500000
101000	500	10	9	16	38	100	25.250000	101.000000
101000	500	10	9	16	46	80	25.250000	101.000000
101000	500	13	12	29	39	120	25.250000	101.000000
101000	500	14	13	30	39	120	25.250000	101.000000
101000	500	15	14	33	27	120	25.250000	101.000000
101500	500	10	9	16	36	100	25.375000	101.500000
101500	500	13	12	29	39	120	25.375000	101.500000
101500	500	14	13	30	39	120	25.375000	101.500000
101500	500	15	14	33	27	120	25.375000	101.500000
102000	250	1	0	48	82	120	25.500000	102.000000
102000	250	1	0	48	86	120	25.500000	102.000000
102000	500	10	9	16	36	100	25.500000	102.000000
102000	500	10	9	16	46	80	25.500000	102.000000
102000	500	13	12	29	51	120	25.500000	102.000000
102000	500	14	13	30	51	120	25.500000	102.000000
102000	500	15	14	33	39	120	25.500000	102.000000
102500	500	10	9	16	36	100	25.625000	102.500000
102500	500	13	12	29	39	120	25.625000	102.500000
102500	500	14	13	30	39	120	25.625000	102.500000
102500	500	15	14	33	27	120	25.625000	102.500000
103000	250	1	0	48	82	120	25.750000	103.000000
103000	250	1	0	48	86	120	25.750000	103.000000
103000	500	10	9	16	38	100	25.750000	103.000000
103000	500	10	9	16	46	80	25.750000	103.000000
103000	500	13	12	29	51	120	25.750000	103.000000
103000	500	14	13	30	51	120	25.750000	103.000000
103000	500	15	14	33	39	120	25.750000	103.000000
103500	250	1	0	48	86	120	25.875000	103.500000
103500	250	1	0	48	89	120	25.875000	103.500000
103500	500	10	9	16	36	100	25.875000	103.500000
103500	500	13	12	29	53	120	25.875000	103.500000
103500	500	14	13	30	53	120	25.875000	103.500000
103500	500	15	14	33	41	120	25.875000	103.500000
104000	250	1	0	48	82	120	26.000000	104.000000
104000	250	1	0	48	86	120	26.000000	104.000000
104000	8000	2	1	48	39	100	26.000000	104.000000
104000	8000	2	1	48	46	100	26.000000	104.000000
104000	8000	2	1	48	51	100	26.000000	104.000000
104000	2000	2	1	48	58	120	26.000000	104.000000
104000	2000	2	1	48	70	120	26.000000	104.000000
104000	2000	3	2	80	70	120	26.000000	104.000000
104000	2000	4	3	57	58	120	26.000000	104.000000
104000	500	10	9	16	36	100	26.000000	104.000000
104000	500	10	9	16	46	80	26.000000	104.000000
104000	500	13	12	29	51	120	26.000000	104.000000
104000	500	14	13	30	51	120	26.000000	104.000000
104000	500	15	14	33	39	120	26.000000	104.000000
104500	500	10	9	16	36	100	26.125000	104.500000
104500	500	13	12	29	39	120	26.125000	104.500000
104500	500	14	13	30	39	120	26.125000	104.500000
104500	500	15	14	33	27	120	26.125000	104.500000
105000	500	10	9	16	38	100	26.250000	105.000000
105000	500	10	9	16	46	80	26.250000	105.000000
105000	500	13	12	29	39	120	26.250000	105.000000
105000	500	14	13	30	39	120	26.250000	105.000000
105000	500	15	14	33	27	120	26.250000	105.000000
105500	250	1	0	48	82	120	26.375000	105.500000
105500	250	1	0	48	86	120	26.375000	105.500000
105500	500	10	9	16	36	100	26.375000	105.500000
105500	500	13	12	29	51	120	26.375000	105.500000
105500	500	14	13	30	51	120	26.375000	105.500000
105500	500	15	14	33	39	120	26.375000	105.500000
106000	2000	2	1	48	65	120	26.500000	106.000000
106000	2000	2	1	48	77	120	26.500000	106.000000
106000	2000	3	2	80	77	120	26.500000	106.000000
106000	2000	4	3	57	65	120	26.500000	106.000000
106000	500	10	9	16	36	100	26.500000	106.000000
106000	500	10	9	16	46	80	26.500000	106.000000
106000	500	13	12	29	39	120	26.500000	106.000000
106000	500	14	13	30	39	120	26.500000	106.000000
106000	500	15	14	33	27	120	26.500000	106.000000
106500	500	10	9	16	36	100	26.625000	106.500000
106500	500	13	12	29	39	120	26.625000	106.500000
106500	500	14	13	30	39	120	26.625000	106.500000
106500	500	15	14	33	27	120	26.625000	106.500000
107000	250	1	0	48	82	120	26.750000	107.000000
107000	250	1	0	48	86	120	26.750000	107.000000
107000	500	10	9	16	38	100	26.750000	107.000000
107000	500	10	9	16	46	80	26.750000	107.000000
107000	500	13	12	29	51	120	26.750000	107.000000
107000	500	14	13	30	51	120	26.750000	107.000000
107000	500	15	14	33	39	120	26.750000	107.000000
107500	500	10	9	16	36	100	26.875000	107.500000
107500	500	13	12	29	39	120	26.875000	107.500000
107500	500	14	13	30	39	120	26.875000	107.500000
107500	500	15	14	33	27	120	26.875000	107.500000
108000	3000	2	1	48	53	120	27.000000	108.000000
108000	3000	2	1	48	65	120	27.000000	108.000000
108000	3000	3	2	80	65	120	27.000000	108.000000
108000	3000	4	3	57	53	120	27.000000	108.000000
108000	500	10	9	16	36	100	27.000000	108.000000
108000	500	10	9	16	46	80	27.000000	108.000000
108000	500	13	12	29	39	120	27.000000	108.000000
108000	500	14	13	30	39	120	27.000000	108.000000
108000	500	15	14	33	27	120	27.000000	108.000000
108500	250	1	0	48	82	120	27.125000	108.500000
108500	250	1	0	48	86	120	27.125000	108.500000
108500	500	10	9	16	36	100	27.125000	108.500000
108500	500	13	12	29	51	120	27.125000	108.500000
108500	500	14	13	30	51	120	27.125000	108.500000
108500	500	15	14	33	39	120	27.125000	108.500000
109000	500	10	9	16	38	100	27.250000	109.000000
109000	500	10	9	16	46	80	27.250000	109.000000
109000	500	13	12	29	39	120	27.250000	109.000000
109000	500	14	13	30	39	120	27.250000	109.000000
109000	500	15	14	33	27	120	27.250000	109.000000
109500	500	10	9	16	36	100	27.375000	109.500000
109500	500	13	12	29	39	120	27.375000	109.500000
109500	500	14	13	30	39	120	27.375000	109.500000
109500	500	15	14	33	27	120	27.375000	109.500000
110000	250	1	0	48	82	120	27.500000	110.000000
110000	250	1	0	48	86	120	27.500000	110.000000
110000	500	10	9	16	36	100	27.500000	110.000000
110000	500	10	9	16	46	80	27.500000	110.000000
110000	500	13	12	29	51	120	27.500000	110.000000
110000	500	14	13	30	51	120	27.500000	110.000000
110000	500	15	14	33	39	120	27.500000	110.000000
110500	500	10	9	16	36	100	27.625000	110.500000
110500	500	13	12	29	39	120	27.625000	110.500000
110500	500	14	13	30	39	120	27.625000	110.500000
110500	500	15	14	33	27	120	27.625000	110.500000
111000	250	1	0	48	82	120	27.750000	111.000000
111000	250	1	0	48	86	120	27.750000	111.000000
111000	500	10	9	16	38	100	27.750000	111.000000
111000	500	10	9	16	46	80	27.750000	111.000000
111000	500	13	12	29	51	120	27.750000	111.000000
111000	500	14	13	30	51	120	27.750000	111.000000
111000	500	15	14	33	39	120	27.750000	111.000000
111500	250	1	0	48	86	120	27.875000	111.500000
111500	250	1	0	48	89	120	27.875000	111.500000
111500	500	10	9	16	36	100	27.875000	111.500000
111500	500	13	12	29	53	120	27.875000	111.500000
111500	500	14	13	30	53	120	27.875000	111.500000
111500	500	15	14	33	41	120	27.875000	111.500000
112000	250	1	0	48	81	120	28.000000	112.000000
112000	250	1	0	48	86	120	28.000000	112.000000
112000	8000	2	1	48	38	100	28.000000	112.000000
112000	8000	2	1	48	45	100	28.000000	112.000000
112000	8000	2	1	48	50	100	28.000000	112.000000
112000	2000	2	1	48	57	120	28.000000	112.000000
112000	2000	2	1	48	62	120	28.000000	112.000000
112000	2000	2	1	48	69	120	28.000000	112.000000
112000	2000	3	2	80	62	120	28.000000	112.000000
112000	2000	3	2	80	69	120	28.000000	112.000000
112000	2000	4	3	57	50	120	28.000000	112.000000
112000	500	10	9	16	36	100	28.000000	112.000000
112000	500	10	9	16	46	80	28.000000	112.000000
112000	500	13	12	29	50	120	28.000000	112.000000
112000	500	14	13	30	50	120	28.000000	112.000000
112000	500	15	14	33	38	120	28.000000	112.000000
112500	500	10	9	16	36	100	28.125000	112.500000
112500	500	13	12	29	38	120	28.125000	112.500000
112500	500	14	13	30	38	120	28.125000	112.500000
112500	500	15	14	33	26	120	28.125000	112.500000
113000	500	10	9	16	38	100	28.250000	113.000000
113000	500	10	9	16	46	80	28.250000	113.000000
113000	500	13	12	29	38	120	28.250000	113.000000
113000	500	14	13	30	38	120	28.250000	113.000000
113000	500	15	14	33	26	120	28.250000	113.000000
113500	500	10	9	16	36	100	28.375000	113.500000
113500	500	13	12	29	38	120	28.375000	113.500000
113500	500	14	13	30	38	120	28.375000	113.500000
113500	500	15	14	33	26	120	28.375000	113.500000
114000	250	1	0	48	81	120	28.500000	114.000000
114000	250	1	0	48	86	120	28.500000	114.000000
114000	2000	2	1	48	62	120	28.500000	114.000000
114000	2000	2	1	48	69	120	28.500000	114.000000
114000	2000	2	1	48	74	120	28.500000	114.000000
114000	2000	3	2	80	69	120	28.500000	114.000000
114000	2000	3	2	80	74	120	28.500000	114.000000
114000	2000	4	3	57	57	120	28.500000	114.000000
114000	500	10	9	16	36	100	28.500000	114.000000
114000	500	10	9	16	46	80	28.500000	114.000000
114000	500	13	12	29	50	120	28.500000	114.000000
114000	500	14	13	30	50	120	28.500000	114.000000
114000	500	15	14	33	38	120	28.500000	114.000000
114500	500	10	9	16	36	100	28.625000	114.500000
114500	500	13	12	29	38	120	28.625000	114.500000
114500	500	14	13	30	38	120	28.625000	114.500000
114500	500	15	14	33	26	120	28.625000	114.500000
115000	500	10	9	16	38	100	28.750000	115.000000
115000	500	10	9	16	46	80	28.750000	115.000000
115000	500	13	12	29	38	120	28.750000	115.000000
115000	500	14	13	30	38	120	28.750000	115.000000
115000	500	15	14	33	26	120	28.750000	115.000000
115500	250	1	0	48	81	120	28.875000	115.500000
115500	250	1	0	48	86	120	28.875000	115.500000
115500	500	10	9	16	36	100	28.875000	115.500000
115500	500	13	12	29	50	120	28.875000	115.500000
115500	500	14	13	30	50	120	28.875000	115.500000
115500	500	15	14	33	38	120	28.875000	115.500000
116000	2000	2	1	48	69	120	29.000000	116.000000
116000	2000	2	1	48	77	120	29.000000	116.000000
116000	2000	2	1	48	81	120	29.000000	116.000000
116000	2000	3	2	80	69	120	29.000000	116.000000
116000	2000	3	2	80	77	120	29.000000	116.000000
116000	2000	4	3	57	65	120	29.000000	116.000000
116000	500	10	9	16	36	100	29.000000	116.000000
116000	500	10	9	16	46	80	29.000000	116.000000
116000	500	13	12	29	38	120	29.000000	116.000000
116000	500	14	13	30	38	120	29.000000	116.000000
116000	500	15	14	33	26	120	29.000000	116.000000
116500	250	1	0	48	81	120	29.125000	116.500000
116500	250	1	0	48	84	120	29.125000	116.500000
116500	500	10	9	16	36	100	29.125000	116.500000
116500	500	13	12	29	50	120	29.125000	116.500000
116500	500	14	13	30	50	120	29.125000	116.500000
116500	500	15	14	33	38	120	29.125000	116.500000
117000	500	10	9	16	38	100	29.250000	117.000000
117000	500	10	9	16	46	80	29.250000	117.000000
117000	500	13	12	29	38	120	29.250000	117.000000
117000	500	14	13	30	38	120	29.250000	117.000000
117000	500	15	14	33	26	120	29.250000	117.000000
117500	500	10	9	16	36	100	29.375000	117.500000
117500	500	13	12	29	38	120	29.375000	117.500000
117500	500	14	13	30	38	120	29.375000	117.500000
117500	500	15	14	33	26	120	29.375000	117.500000
118000	250	1	0	48	81	120	29.500000	118.000000
118000	250	1	0	48	84	120	29.500000	118.000000
118000	500	10	9	16	36	100	29.500000	118.000000
118000	500	10	9	16	46	80	29.500000	118.000000
118000	500	13	12	29	50	120	29.500000	118.000000
118000	500	14	13	30	50	120	29.500000	118.000000
118000	500	15	14	33	38	120	29.500000	118.000000
118500	500	10	9	16	36	100	29.625000	118.500000
118500	500	13	12	29	38	120	29.625000	118.500000
118500	500	14	13	30	38	120	29.625000	118.500000
118500	500	15	14	33	26	120	29.625000	118.500000
119000	250	1	0	48	91	120	29.750000	119.000000
119000	1000	2	1	48	70	120	29.750000	119.000000
119000	1000	2	1	48	79	120	29.750000	119.000000
119000	1000	2	1	48	82	120	29.750000	119.000000
119000	1000	3	2	80	70	120	29.750000	119.000000
119000	1000	3	2	80	79	120	29.750000	119.000000
119000	250	3	2	80	91	80	29.750000	119.000000
119000	1000	4	3	57	67	120	29.750000	119.000000
119000	500	10	9	16	38	100	29.750000	119.000000
119000	500	10	9	16	46	80	29.750000	119.000000
119000	500	13	12	29	26	120	29.750000	119.000000
119000	500	13	12	29	38	120	29.750000	119.000000
119000	500	14	13	30	26	120	29.750000	119.000000
119000	500	14	13	30	38	120	29.750000	119.000000
119000	500	15	14	33	14	120	29.750000	119.000000
119000	500	15	14	33	26	120	29.750000	119.000000
119500	250	1	0	48	94	120	29.875000	119.500000
119500	250	3	2	80	94	80	29.875000	119.500000
119500	500	10	9	16	36	100	29.875000	119.500000
119500	500	13	12	29	29	120	29.875000	119.500000
119500	500	13	12	29	41	120	29.875000	119.500000
119500	500	14	13	30	29	120	29.875000	119.500000
119500	500	14	13	30	41	120	29.875000	119.500000
119500	500	15	14	33	17	120	29.875000	119.500000
119500	500	15	14	33	29	120	29.875000	119.500000
120000	2000	2	1	48	38	100	30.000000	120.000000
120000	2000	2	1	48	45	100	30.000000	120.000000
120000	2000	2	1	48	50	100	30.000000	120.000000
120000	2000	2	1	48	69	120	30.000000	120.000000
120000	2000	2	1	48	77	120	30.000000	120.000000
120000	2000	2	1	48	81	120	30.000000	120.000000
120000	2000	3	2	80	69	120	30.000000	120.000000
120000	2000	3	2	80	77	120	30.000000	120.000000
120000	2000	4	3	57	65	120	30.000000	120.000000
120000	500	10	9	16	36	100	30.000000	120.000000
120000	500	10	9	16	46	80	30.000000	120.000000
120000	1000	13	12	29	31	120	30.000000	120.000000
120000	1000	13	12	29	43	120	30.000000	120.000000
120000	1000	14	13	30	31	120	30.000000	120.000000
120000	1000	14	13	30	43	120	30.000000	120.000000
120000	500	15	14	33	19	120	30.000000	120.000000
120000	500	15	14	33	31	120	30.000000	120.000000
120500	250	3	2	80	89	80	30.125000	120.500000
120500	500	10	9	16	36	100	30.125000	120.500000
121000	250	3	2	80	96	80	30.250000	121.000000
121000	500	10	9	16	38	100	30.250000	121.000000
121000	500	10	9	16	46	80	30.250000	121.000000
121000	1000	13	12	29	31	120	30.250000	121.000000
121000	1000	13	12	29	43	120	30.250000	121.000000
121000	1000	14	13	30	31	120	30.250000	121.000000
121000	1000	14	13	30	43	120	30.250000	121.000000
121000	500	15	14	33	19	120	30.250000	121.000000
121000	500	15	14	33	31	120	30.250000	121.000000
121500	250	3	2	80	98	80	30.375000	121.500000
121500	500	10	9	16	36	100	30.375000	121.500000
122000	2000	2	1	48	41	100	30.500000	122.000000
122000	2000	2	1	48	48	100	30.500000	122.000000
122000	2000	2	1	48	53	100	30.500000	122.000000
122000	2000	2	1	48	60	120	30.500000	122.000000
122000	2000	2	1	48	65	120	30.500000	122.000000
122000	2000	2	1	48	72	120	30.500000	122.000000
122000	2000	2	1	48	77	120	30.500000	122.000000
122000	2000	3	2	80	65	120	30.500000	122.000000
122000	2000	3	2	80	72	120	30.500000	122.000000
122000	2000	4	3	57	60	120	30.500000	122.000000
122000	500	10	9	16	36	100	30.500000	122.000000
122000	500	10	9	16	46	80	30.500000	122.000000
122000	1000	13	12	29	33	120	30.500000	122.000000
122000	1000	13	12	29	45	120	30.500000	122.000000
122000	1000	14	13	30	33	120	30.500000	122.000000
122000	1000	14	13	30	45	120	30.500000	122.000000
122000	500	15	14	33	21	120	30.500000	122.000000
122000	500	15	14	33	33	120	30.500000	122.000000
122500	250	3	2	80	94	80	30.625000	122.500000
122500	500	10	9	16	36	100	30.625000	122.500000
123000	250	3	2	80	96	80	30.750000	123.000000
123000	500	10	9	16	38	100	30.750000	123.000000
123000	500	10	9	16	46	80	30.750000	123.000000
123000	1000	13	12	29	33	120	30.750000	123.000000
123000	1000	13	12	29	45	120	30.750000	123.000000
123000	1000	14	13	30	33	120	30.750000	123.000000
123000	1000	14	13	30	45	120	30.750000	123.000000
123000	500	15	14	33	21	120	30.750000	123.000000
123000	500	15	14	33	33	120	30.750000	123.000000
123500	250	3	2	80	98	80	30.875000	123.500000
123500	500	10	9	16	36	100	30.875000	123.500000
124000	4000	2	1	48	43	100	31.000000	124.000000
124000	4000	2	1	48	50	100	31.000000	124.000000
124000	4000	2	1	48	55	100	31.000000	124.000000
124000	2000	2	1	48	58	120	31.000000	124.000000
124000	2000	2	1	48	67	120	31.000000	124.000000
124000	2000	2	1	48	70	120	31.000000	124.000000
124000	2000	2	1	48	79	120	31.000000	124.000000
124000	2000	3	2	80	67	120	31.000000	124.000000
124000	2000	3	2	80	70	120	31.000000	124.000000
124000	250	3	2	80	106	80	31.000000	124.000000
124000	2000	4	3	57	58	120	31.000000	124.000000
124000	500	10	9	16	36	100	31.000000	124.000000
124000	500	10	9	16	46	80	31.000000	124.000000
124000	1000	13	12	29	34	120	31.000000	124.000000
124000	1000	13	12	29	46	120	31.000000	124.000000
124000	1000	14	13	30	34	120	31.000000	124.000000
124000	1000	14	13	30	46	120	31.000000	124.000000
124000	500	15	14	33	22	120	31.000000	124.000000
124000	500	15	14	33	34	120	31.000000	124.000000
124500	250	3	2	80	98	80	31.125000	124.500000
124500	250	5	4	0	82	120	31.125000	124.500000
124500	500	10	9	16	36	100	31.125000	124.500000
125000	250	3	2	80	96	80	31.250000	125.000000
125000	250	5	4	0	81	120	31.250000	125.000000
125000	500	10	9	16	38	100	31.250000	125.000000
125000	500	10	9	16	46	80	31.250000	125.000000
125000	1000	13	12	29	34	120	31.250000	125.000000
125000	1000	13	12	29	46	120	31.250000	125.000000
125000	1000	14	13	30	34	120	31.250000	125.000000
125000	1000	14	13	30	46	120	31.250000	125.000000
125000	500	15	14	33	22	120	31.250000	125.000000
125000	500	15	14	33	34	120	31.250000	125.000000
125500	250	3	2	80	98	80	31.375000	125.500000
125500	250	5	4	0	77	120	31.375000	125.500000
125500	500	10	9	16	36	100	31.375000	125.500000
126000	250	3	2	80	96	80	31.500000	126.000000
126000	250	5	4	0	74	120	31.500000	126.000000
126000	500	10	9	16	36	100	31.500000	126.000000
126000	500	10	9	16	46	80	31.500000	126.000000
126000	500	13	12	29	36	120	31.500000	126.000000
126000	500	13	12	29	48	120	31.500000	126.000000
126000	500	14	13	30	36	120	31.500000	126.000000
126000	500	14	13	30	48	120	31.500000	126.000000
126000	500	15	14	33	24	120	31.500000	126.000000
126000	500	15	14	33	36	120	31.500000	126.000000
126500	250	3	2	80	94	80	31.625000	126.500000
126500	250	5	4	0	72	120	31.625000	126.500000
126500	500	10	9	16	36	100	31.625000	126.500000
126500	500	13	12	29	34	120	31.625000	126.500000
126500	500	13	12	29	46	120	31.625000	126.500000
126500	500	14	13	30	34	120	31.625000	126.500000
126500	500	14	13	30	46	120	31.625000	126.500000
126500	500	15	14	33	22	120	31.625000	126.500000
126500	500	15	14	33	34	120	31.625000	126.500000
127000	250	3	2	80	96	80	31.750000	127.000000
127000	250	5	4	0	70	120	31.750000	127.000000
127000	500	10	9	16	38	100	31.750000	127.000000
127000	500	10	9	16	46	80	31.750000	127.000000
127000	500	13	12	29	36	120	31.750000	127.000000
127000	500	13	12	29	48	120	31.750000	127.000000
127000	500	14	13	30	36	120	31.750000	127.000000
127000	500	14	13	30	48	120	31.750000	127.000000
127000	500	15	14	33	24	120	31.750000	127.000000
127000	500	15	14	33	36	120	31.750000	127.000000
127500	250	3	2	80	98	80	31.875000	127.500000
127500	250	5	4	0	65	120	31.875000	127.500000
127500	500	10	9	16	36	100	31.875000	127.500000
127500	500	13	12	29	38	120	31.875000	127.500000
127500	500	13	12	29	50	120	31.875000	127.500000
127500	500	14	13	30	38	120	31.875000	127.500000
127500	500	14	13	30	50	120	31.875000	127.500000
127500	500	15	14	33	26	120	31.875000	127.500000
127500	500	15	14	33	38	120	31.875000	127.500000
128000	250	6	5	110	65	120	32.000000	128.000000
128000	500	10	9	16	36	100	32.000000	128.000000
128000	500	10	9	16	49	100	32.000000	128.000000
128000	250	13	12	29	36	100	32.000000	128.000000
128000	250	13	12	29	48	100	32.000000	128.000000
128000	250	14	13	30	36	100	32.000000	128.000000
128000	250	14	13	30	48	100	32.000000	128.000000
128000	250	15	14	33	24	120	32.000000	128.000000
128000	250	15	14	33	36	120	32.000000	128.000000
128500	250	6	5	110	58	120	32.125000	128.500000
128500	250	8	7	110	65	90	32.125000	128.500000
128500	500	10	9	16	46	80	32.125000	128.500000
128500	250	13	12	29	36	100	32.125000	128.500000
128500	250	13	12	29	48	100	32.125000	128.500000
128500	250	14	13	30	36	100	32.125000	128.500000
128500	250	14	13	30	48	100	32.125000	128.500000
128500	250	15	14	33	24	120	32.125000	128.500000
128500	250	15	14	33	36	120	32.125000	128.500000
129000	250	6	5	110	60	120	32.250000	129.000000
129000	250	8	7	110	58	90	32.250000	129.000000
129000	500	10	9	16	38	100	32.250000	129.000000
129250	250	13	12	29	36	100	32.312500	129.250000
129250	250	13	12	29	48	100	32.312500	129.250000
129250	250	14	13	30	36	100	32.312500	129.250000
129250	250	14	13	30	48	100	32.312500	129.250000
129250	250	15	14	33	24	120	32.312500	129.250000
129250	250	15	14	33	36	120	32.312500	129.250000
129500	250	6	5	110	58	120	32.375000	129.500000
129500	250	8	7	110	60	90	32.375000	129.500000
129500	500	10	9	16	47	100	32.375000	129.500000
129500	500	13	12	29	36	100	32.375000	129.500000
129500	500	13	12	29	48	100	32.375000	129.500000
129500	500	14	13	30	36	100	32.375000	129.500000
129500	500	14	13	30	48	100	32.375000	129.500000
129500	500	15	14	33	24	120	32.375000	129.500000
129500	500	15	14	33	36	120	32.375000	129.500000
130000	250	6	5	110	53	120	32.500000	130.000000
130000	250	8	7	110	58	90	32.500000	130.000000
130000	500	10	9	16	36	100	32.500000	130.000000
130000	500	10	9	16	43	100	32.500000	130.000000
130000	250	13	12	29	36	100	32.500000	130.000000
130000	250	13	12	29	48	100	32.500000	130.000000
130000	250	14	13	30	36	100	32.500000	130.000000
130000	250	14	13	30	48	100	32.500000	130.000000
130000	250	15	14	33	24	120	32.500000	130.000000
130000	250	15	14	33	36	120	32.500000	130.000000
130500	250	6	5	110	58	120	32.625000	130.500000
130500	250	8	7	110	53	90	32.625000	130.500000
130500	1000	10	9	16	46	80	32.625000	130.500000
130500	250	13	12	29	36	100	32.625000	130.500000
130500	250	13	12	29	48	100	32.625000	130.500000
130500	250	14	13	30	36	100	32.625000	130.500000
130500	250	14	13	30	48	100	32.625000	130.500000
130500	250	15	14	33	24	120	32.625000	130.500000
130500	250	15	14	33	36	120	32.625000	130.500000
131000	250	6	5	110	60	120	32.750000	131.000000
131000	250	8	7	110	58	90	32.750000	131.000000
131000	500	10	9	16	38	100	32.750000	131.000000
131250	250	13	12	29	36	100	32.812500	131.250000
131250	250	13	12	29	48	100	32.812500	131.250000
131250	250	14	13	30	36	100	32.812500	131.250000
131250	250	14	13	30	48	100	32.812500	131.250000
131250	250	15	14	33	24	120	32.812500	131.250000
131250	250	15	14	33	36	120	32.812500	131.250000
131500	250	6	5	110	58	120	32.875000	131.500000
131500	250	8	7	110	60	90	32.875000	131.500000
131500	500	10	9	16	47	100	32.875000	131.500000
131500	500	13	12	29	36	100	32.875000	131.500000
131500	500	13	12	29	48	100	32.875000	131.500000
131500	500	14	13	30	36	100	32.875000	131.500000
131500	500	14	13	30	48	100	32.875000	131.500000
131500	500	15	14	33	24	120	32.875000	131.500000
131500	500	15	14	33	36	120	32.875000	131.500000
132000	250	6	5	110	53	120	33.000000	132.000000
132000	250	8	7	110	58	90	33.000000	132.000000
132000	500	10	9	16	36	100	33.000000	132.000000
132000	500	10	9	16	43	100	33.000000	132.000000
132000	250	13	12	29	38	100	33.000000	132.000000
132000	250	13	12	29	50	100	33.000000	132.000000
132000	250	14	13	30	38	100	33.000000	132.000000
132000	250	14	13	30	50	100	33.000000	132.000000
132000	250	15	14	33	26	120	33.000000	132.000000
132000	250	15	14	33	38	120	33.000000	132.000000
132500	250	6	5	110	53	120	33.125000	132.500000
132500	250	8	7	110	53	90	33.125000	132.500000
132500	500	10	9	16	46	80	33.125000	132.500000
132500	250	13	12	29	38	100	33.125000	132.500000
132500	250	13	12	29	50	100	33.125000	132.500000
132500	250	14	13	30	38	100	33.125000	132.500000
132500	250	14	13	30	50	100	33.125000	132.500000
132500	250	15	14	33	26	120	33.125000	132.500000
132500	250	15	14	33	38	120	33.125000	132.500000
132750	250	6	5	110	58	120	33.187500	132.750000
133000	250	6	5	110	60	120	33.250000	133.000000
133000	250	8	7	110	53	90	33.250000	133.000000
133000	500	10	9	16	38	100	33.250000	133.000000
133250	250	8	7	110	58	90	33.312500	133.250000
133250	250	13	12	29	38	100	33.312500	133.250000
133250	250	13	12	29	50	100	33.312500	133.250000
133250	250	14	13	30	38	100	33.312500	133.250000
133250	250	14	13	30	50	100	33.312500	133.250000
133250	250	15	14	33	26	120	33.312500	133.250000
133250	250	15	14	33	38	120	33.312500	133.250000
133500	250	6	5	110	63	120	33.375000	133.500000
133500	250	8	7	110	60	90	33.375000	133.500000
133500	500	10	9	16	47	100	33.375000	133.500000
133500	500	13	12	29	38	100	33.375000	133.500000
133500	500	13	12	29	50	100	33.375000	133.500000
133500	500	14	13	30	38	100	33.375000	133.500000
133500	500	14	13	30	50	100	33.375000	133.500000
133500	500	15	14	33	26	120	33.375000	133.500000
133500	500	15	14	33	38	120	33.375000	133.500000
134000	250	6	5	110	62	120	33.500000	134.000000
134000	250	8	7	110	63	90	33.500000	134.000000
134000	500	10	9	16	36	100	33.500000	134.000000
134000	500	10	9	16	43	100	33.500000	134.000000
134000	250	13	12	29	38	100	33.500000	134.000000
134000	250	13	12	29	50	100	33.500000	134.000000
134000	250	14	13	30	38	100	33.500000	134.000000
134000	250	14	13	30	50	100	33.500000	134.000000
134000	250	15	14	33	26	120	33.500000	134.000000
134000	250	15	14	33	38	120	33.500000	134.000000
134500	250	6	5	110	63	120	33.625000	134.500000
134500	250	8	7	110	62	90	33.625000	134.500000
134500	500	10	9	16	46	80	33.625000	134.500000
134500	250	13	12	29	38	100	33.625000	134.500000
134500	250	13	12	29	50	100	33.625000	134.500000
134500	250	14	13	30	38	100	33.625000	134.500000
134500	250	14	13	30	50	100	33.625000	134.500000
134500	250	15	14	33	26	120	33.625000	134.500000
134500	250	15	14	33	38	120	33.625000	134.500000
135000	250	6	5	110	62	120	33.750000	135.000000
135000	250	8	7	110	63	90	33.750000	135.000000
135000	500	10	9	16	38	100	33.750000	135.000000
135250	250	6	5	110	60	120	33.812500	135.250000
135250	250	13	12	29	38	100	33.812500	135.250000
135250	250	13	12	29	50	100	33.812500	135.250000
135250	250	14	13	30	38	100	33.812500	135.250000
135250	250	14	13	30	50	100	33.812500	135.250000
135250	250	15	14	33	26	120	33.812500	135.250000
135250	250	15	14	33	38	120	33.812500	135.250000
135500	250	6	5	110	58	120	33.875000	135.500000
135500	250	8	7	110	62	90	33.875000	135.500000
135500	500	10	9	16	47	100	33.875000	135.500000
135500	500	13	12	29	38	100	33.875000	135.500000
135500	500	13	12	29	50	100	33.875000	135.500000
135500	500	14	13	30	38	100	33.875000	135.500000
135500	500	14	13	30	50	100	33.875000	135.500000
135500	500	15	14	33	26	120	33.875000	135.500000
135500	500	15	14	33	38	120	33.875000	135.500000
135750	250	8	7	110	60	90	33.937500	135.750000
136000	250	6	5	110	65	120	34.000000	136.000000
136000	250	7	6	110	70	100	34.000000	136.000000
136000	250	8	7	110	58	90	34.000000	136.000000
136000	500	10	9	16	36	100	34.000000	136.000000
136000	500	10	9	16	43	100	34.000000	136.000000
136000	250	13	12	29	39	100	34.000000	136.000000
136000	250	13	12	29	51	100	34.000000	136.000000
136000	250	14	13	30	39	100	34.000000	136.000000
136000	250	14	13	30	51	100	34.000000	136.000000
136000	250	15	14	33	27	120	34.000000	136.000000
136000	250	15	14	33	39	120	34.000000	136.000000
136500	250	6	5	110	58	120	34.125000	136.500000
136500	250	8	7	110	65	90	34.125000	136.500000
136500	500	10	9	16	46	80	34.125000	136.500000
136500	250	13	12	29	39	100	34.125000	136.500000
136500	250	13	12	29	51	100	34.125000	136.500000
136500	250	14	13	30	39	100	34.125000	136.500000
136500	250	14	13	30	51	100	34.125000	136.500000
136500	250	15	14	33	27	120	34.125000	136.500000
136500	250	15	14	33	39	120	34.125000	136.500000
137000	250	6	5	110	60	120	34.250000	137.000000
137000	250	7	6	110	69	100	34.250000	137.000000
137000	250	8	7	110	58	90	34.250000	137.000000
137000	500	10	9	16	38	100	34.250000	137.000000
137250	250	13	12	29	39	100	34.312500	137.250000
137250	250	13	12	29	51	100	34.312500	137.250000
137250	250	14	13	30	39	100	34.312500	137.250000
137250	250	14	13	30	51	100	34.312500	137.250000
137250	250	15	14	33	27	120	34.312500	137.250000
137250	250	15	14	33	39	120	34.312500	137.250000
137500	250	6	5	110	58	120	34.375000	137.500000
137500	250	8	7	110	60	90	34.375000	137.500000
137500	500	10	9	16	47	100	34.375000	137.500000
137500	500	13	12	29	39	100	34.375000	137.500000
137500	500	13	12	29	51	100	34.375000	137.500000
137500	500	14	13	30	39	100	34.375000	137.500000
137500	500	14	13	30	51	100	34.375000	137.500000
137500	500	15	14	33	27	120	34.375000	137.500000
137500	500	15	14	33	39	120	34.375000	137.500000
138000	250	6	5	110	53	120	34.500000	138.000000
138000	250	7	6	110	70	100	34.500000	138.000000
138000	250	8	7	110	58	90	34.500000	138.000000
138000	500	10	9	16	36	100	34.500000	138.000000
138000	500	10	9	16	43	100	34.500000	138.000000
138000	250	13	12	29	39	100	34.500000	138.000000
138000	250	13	12	29	51	100	34.500000	138.000000
138000	250	14	13	30	39	100	34.500000	138.000000
138000	250	14	13	30	51	100	34.500000	138.000000
138000	250	15	14	33	27	120	34.500000	138.000000
138000	250	15	14	33	39	120	34.500000	138.000000
138500	250	6	5	110	58	120	34.625000	138.500000
138500	250	8	7	110	53	90	34.625000	138.500000
138500	500	10	9	16	46	80	34.625000	138.500000
138500	250	13	12	29	39	100	34.625000	138.500000
138500	250	13	12	29	51	100	34.625000	138.500000
138500	250	14	13	30	39	100	34.625000	138.500000
138500	250	14	13	30	51	100	34.625000	138.500000
138500	250	15	14	33	27	120	34.625000	138.500000
138500	250	15	14	33	39	120	34.625000	138.500000
139000	250	6	5	110	60	120	34.750000	139.000000
139000	250	7	6	110	69	100	34.750000	139.000000
139000	250	8	7	110	58	90	34.750000	139.000000
139000	500	10	9	16	38	100	34.750000	139.000000
139250	250	13	12	29	39	100	34.812500	139.250000
139250	250	13	12	29	51	100	34.812500	139.250000
139250	250	14	13	30	39	100	34.812500	139.250000
139250	250	14	13	30	51	100	34.812500	139.250000
139250	250	15	14	33	27	120	34.812500	139.250000
139250	250	15	14	33	39	120	34.812500	139.250000
139500	250	6	5	110	58	120	34.875000	139.500000
139500	250	7	6	110	70	100	34.875000	139.500000
139500	250	8	7	110	60	90	34.875000	139.500000
139500	500	10	9	16	47	100	34.875000	139.500000
139500	500	13	12	29	39	100	34.875000	139.500000
139500	500	13	12	29	51	100	34.875000	139.500000
139500	500	14	13	30	39	100	34.875000	139.500000
139500	500	14	13	30	51	100	34.875000	139.500000
139500	500	15	14	33	27	120	34.875000	139.500000
139500	500	15	14	33	39	120	34.875000	139.500000
140000	250	6	5	110	53	120	35.000000	140.000000
140000	250	7	6	110	72	100	35.000000	140.000000
140000	250	8	7	110	58	90	35.000000	140.000000
140000	500	10	9	16	36	100	35.000000	140.000000
140000	500	10	9	16	43	100	35.000000	140.000000
140000	250	13	12	29	41	100	35.000000	140.000000
140000	250	13	12	29	53	100	35.000000	140.000000
140000	250	14	13	30	41	100	35.000000	140.000000
140000	250	14	13	30	53	100	35.000000	140.000000
140000	250	15	14	33	29	120	35.000000	140.000000
140000	250	15	14	33	41	120	35.000000	140.000000
140500	250	6	5	110	53	120	35.125000	140.500000
140500	250	8	7	110	53	90	35.125000	140.500000
140500	500	10	9	16	46	80	35.125000	140.500000
140500	250	13	12	29	41	100	35.125000	140.500000
140500	250	13	12	29	53	100	35.125000	140.500000
140500	250	14	13	30	41	100	35.125000	140.500000
140500	250	14	13	30	53	100	35.125000	140.500000
140500	250	15	14	33	29	120	35.125000	140.500000
140500	250	15	14	33	41	120	35.125000	140.500000
140750	250	6	5	110	58	120	35.187500	140.750000
140750	250	7	6	110	65	100	35.187500	140.750000
141000	250	6	5	110	60	120	35.250000	141.000000
141000	250	7	6	110	72	100	35.250000	141.000000
141000	250	8	7	110	53	90	35.250000	141.000000
141000	500	10	9	16	38	100	35.250000	141.000000
141250	250	7	6	110	70	100	35.312500	141.250000
141250	250	8	7	110	58	90	35.312500	141.250000
141250	250	13	12	29	41	100	35.312500	141.250000
141250	250	13	12	29	53	100	35.312500	141.250000
141250	250	14	13	30	41	100	35.312500	141.250000
141250	250	14	13	30	53	100	35.312500	141.250000
141250	250	15	14	33	29	120	35.312500	141.250000
141250	250	15	14	33	41	120	35.312500	141.250000
141500	250	6	5	110	63	120	35.375000	141.500000
141500	250	7	6	110	69	100	35.375000	141.500000
141500	250	8	7	110	60	90	35.375000	141.500000
141500	500	10	9	16	47	100	35.375000	141.500000
141500	500	13	12	29	41	100	35.375000	141.500000
141500	500	13	12	29	53	100	35.375000	141.500000
141500	500	14	13	30	41	100	35.375000	141.500000
141500	500	14	13	30	53	100	35.375000	141.500000
141500	500	15	14	33	29	120	35.375000	141.500000
141500	500	15	14	33	41	120	35.375000	141.500000
142000	250	6	5	110	62	120	35.500000	142.000000
142000	250	7	6	110	70	100	35.500000	142.000000
142000	250	8	7	110	63	90	35.500000	142.000000
142000	500	10	9	16	36	100	35.500000	142.000000
142000	500	10	9	16	43	100	35.500000	142.000000
142000	250	13	12	29	41	100	35.500000	142.000000
142000	250	13	12	29	53	100	35.500000	142.000000
142000	250	14	13	30	41	100	35.500000	142.000000
142000	250	14	13	30	53	100	35.500000	142.000000
142000	250	15	14	33	29	120	35.500000	142.000000
142000	250	15	14	33	41	120	35.500000	142.000000
142500	250	6	5	110	63	120	35.625000	142.500000
142500	250	7	6	110	69	100	35.625000	142.500000
142500	250	8	7	110	62	90	35.625000	142.500000
142500	500	10	9	16	46	80	35.625000	142.500000
142500	250	13	12	29	41	100	35.625000	142.500000
142500	250	13	12	29	53	100	35.625000	142.500000
142500	250	14	13	30	41	100	35.625000	142.500000
142500	250	14	13	30	53	100	35.625000	142.500000
142500	250	15	14	33	29	120	35.625000	142.500000
142500	250	15	14	33	41	120	35.625000	142.500000
143000	250	6	5	110	62	120	35.750000	143.000000
143000	250	7	6	110	70	100	35.750000	143.000000
143000	250	8	7	110	63	90	35.750000	143.000000
143000	500	10	9	16	38	100	35.750000	143.000000
143250	250	6	5	110	60	120	35.812500	143.250000
143250	250	13	12	29	41	100	35.812500	143.250000
143250	250	13	12	29	53	100	35.812500	143.250000
143250	250	14	13	30	41	100	35.812500	143.250000
143250	250	14	13	30	53	100	35.812500	143.250000
143250	250	15	14	33	29	120	35.812500	143.250000
143250	250	15	14	33	41	120	35.812500	143.250000
143500	250	6	5	110	58	120	35.875000	143.500000
143500	250	7	6	110	72	100	35.875000	143.500000
143500	250	8	7	110	62	90	35.875000	143.500000
143500	500	10	9	16	47	100	35.875000	143.500000
143500	500	13	12	29	41	100	35.875000	143.500000
143500	500	13	12	29	53	100	35.875000	143.500000
143500	500	14	13	30	41	100	35.875000	143.500000
143500	500	14	13	30	53	100	35.875000	143.500000
143500	500	15	14	33	29	120	35.875000	143.500000
143500	500	15	14	33	41	120	35.875000	143.500000
143750	250	8	7	110	60	90	35.937500	143.750000
144000	4000	2	1	48	48	100	36.000000	144.000000
144000	4000	2	1	48	60	100	36.000000	144.000000
144000	4000	2	1	48	70	100	36.000000	144.000000
144000	250	5	4	0	74	100	36.000000	144.000000
144000	250	6	5	110	65	120	36.000000	144.000000
144000	250	7	6	110	70	100	36.000000	144.000000
144000	250	7	6	110	74	100	36.000000	144.000000
144000	250	8	7	110	58	90	36.000000	144.000000
144000	500	10	9	16	36	100	36.000000	144.000000
144000	500	10	9	16	43	100	36.000000	144.000000
144000	250	13	12	29	36	100	36.000000	144.000000
144000	250	13	12	29	48	100	36.000000	144.000000
144000	250	14	13	30	36	100	36.000000	144.000000
144000	250	14	13	30	48	100	36.000000	144.000000
144000	250	15	14	33	24	120	36.000000	144.000000
144000	250	15	14	33	36	120	36.000000	144.000000
144500	250	6	5	110	58	120	36.125000	144.500000
144500	250	8	7	110	65	90	36.125000	144.500000
144500	500	10	9	16	46	80	36.125000	144.500000
144500	250	13	12	29	36	100	36.125000	144.500000
144500	250	13	12	29	48	100	36.125000	144.500000
144500	250	14	13	30	36	100	36.125000	144.500000
144500	250	14	13	30	48	100	36.125000	144.500000
144500	250	15	14	33	24	120	36.125000	144.500000
144500	250	15	14	33	36	120	36.125000	144.500000
145000	250	5	4	0	77	100	36.250000	145.000000
145000	250	6	5	110	60	120	36.250000	145.000000
145000	250	7	6	110	69	100	36.250000	145.000000
145000	250	7	6	110	77	100	36.250000	145.000000
145000	250	8	7	110	58	90	36.250000	145.000000
145000	500	10	9	16	38	100	36.250000	145.000000
145250	250	13	12	29	36	100	36.312500	145.250000
145250	250	13	12	29	48	100	36.312500	145.250000
145250	250	14	13	30	36	100	36.312500	145.250000
145250	250	14	13	30	48	100	36.312500	145.250000
145250	250	15	14	33	24	120	36.312500	145.250000
145250	250	15	14	33	36	120	36.312500	145.250000
145500	250	6	5	110	58	120	36.375000	145.500000
145500	250	8	7	110	60	90	36.375000	145.500000
145500	500	10	9	16	47	100	36.375000	145.500000
145500	500	13	12	29	36	100	36.375000	145.500000
145500	500	13	12	29	48	100	36.375000	145.500000
145500	500	14	13	30	36	100	36.375000	145.500000
145500	500	14	13	30	48	100	36.375000	145.500000
145500	500	15	14	33	24	120	36.375000	145.500000
145500	500	15	14	33	36	120	36.375000	145.500000
146000	250	5	4	0	74	100	36.500000	146.000000
146000	250	6	5	110	53	120	36.500000	146.000000
146000	250	7	6	110	70	100	36.500000	146.000000
146000	250	7	6	110	74	100	36.500000	146.000000
146000	250	8	7	110	58	90	36.500000	146.000000
146000	500	10	9	16	36	100	36.500000	146.000000
146000	500	10	9	16	43	100	36.500000	146.000000
146000	250	13	12	29	36	100	36.500000	146.000000
146000	250	13	12	29	48	100	36.500000	146.000000
146000	250	14	13	30	36	100	36.500000	146.000000
146000	250	14	13	30	48	100	36.500000	146.000000
146000	250	15	14	33	24	120	36.500000	146.000000
146000	250	15	14	33	36	120	36.500000	146.000000
146500	250	6	5	110	58	120	36.625000	146.500000
146500	250	8	7	110	53	90	36.625000	146.500000
146500	500	10	9	16	46	80	36.625000	146.500000
146500	250	13	12	29	36	100	36.625000	146.500000
146500	250	13	12	29	48	100	36.625000	146.500000
146500	250	14	13	30	36	100	36.625000	146.500000
146500	250	14	13	30	48	100	36.625000	146.500000
146500	250	15	14	33	24	120	36.625000	146.500000
146500	250	15	14	33	36	120	36.625000	146.500000
147000	250	5	4	0	77	100	36.750000	147.000000
147000	250	6	5	110	60	120	36.750000	147.000000
147000	250	7	6	110	69	100	36.750000	147.000000
147000	250	7	6	110	77	100	36.750000	147.000000
147000	250	8	7	110	58	90	36.750000	147.000000
147000	500	10	9	16	38	100	36.750000	147.000000
147250	250	13	12	29	36	100	36.812500	147.250000
147250	250	13	12	29	48	100	36.812500	147.250000
147250	250	14	13	30	36	100	36.812500	147.250000
147250	250	14	13	30	48	100	36.812500	147.250000
147250	250	15	14	33	24	120	36.812500	147.250000
147250	250	15	14	33	36	120	36.812500	147.250000
147500	250	5	4	0	74	100	36.875000	147.500000
147500	250	6	5	110	58	120	36.875000	147.500000
147500	250	7	6	110	70	100	36.875000	147.500000
147500	250	7	6	110	74	100	36.875000	147.500000
147500	250	8	7	110	60	90	36.875000	147.500000
147500	500	10	9	16	47	100	36.875000	147.500000
147500	500	13	12	29	36	100	36.875000	147.500000
147500	500	13	12	29	48	100	36.875000	147.500000
147500	500	14	13	30	36	100	36.875000	147.500000
147500	500	14	13	30	48	100	36.875000	147.500000
147500	500	15	14	33	24	120	36.875000	147.500000
147500	500	15	14	33	36	120	36.875000	147.500000
148000	4000	2	1	48	50	100	37.000000	148.000000
148000	4000	2	1	48	62	100	37.000000	148.000000
148000	4000	2	1	48	72	100	37.000000	148.000000
148000	250	5	4	0	77	100	37.000000	148.000000
148000	250	6	5	110	53	120	37.000000	148.000000
148000	250	7	6	110	72	100	37.000000	148.000000
148000	250	7	6	110	77	100	37.000000	148.000000
148000	250	8	7	110	58	90	37.000000	148.000000
148000	500	10	9	16	36	100	37.000000	148.000000
148000	500	10	9	16	43	100	37.000000	148.000000
148000	250	13	12	29	38	100	37.000000	148.000000
148000	250	13	12	29	50	100	37.000000	148.000000
148000	250	14	13	30	38	100	37.000000	148.000000
148000	250	14	13	30	50	100	37.000000	148.000000
148000	250	15	14	33	26	120	37.000000	148.000000
148000	250	15	14	33	38	120	37.000000	148.000000
148500	250	6	5	110	53	120	37.125000	148.500000
148500	250	8	7	110	53	90	37.125000	148.500000
148500	500	10	9	16	46	80	37.125000	148.500000
148500	250	13	12	29	38	100	37.125000	148.500000
148500	250	13	12	29	50	100	37.125000	148.500000
148500	250	14	13	30	38	100	37.125000	148.500000
148500	250	14	13	30	50	100	37.125000	148.500000
148500	250	15	14	33	26	120	37.125000	148.500000
148500	250	15	14	33	38	120	37.125000	148.500000
148750	250	5	4	0	72	100	37.187500	148.750000
148750	250	6	5	110	58	120	37.187500	148.750000
148750	250	7	6	110	65	100	37.187500	148.750000
148750	250	7	6	110	72	100	37.187500	148.750000
149000	250	5	4	0	77	100	37.250000	149.000000
149000	250	6	5	110	60	120	37.250000	149.000000
149000	250	7	6	110	72	100	37.250000	149.000000
149000	250	7	6	110	77	100	37.250000	149.000000
149000	250	8	7	110	53	90	37.250000	149.000000
149000	500	10	9	16	38	100	37.250000	149.000000
149250	250	5	4	0	75	100	37.312500	149.250000
149250	250	7	6	110	70	100	37.312500	149.250000
149250	250	7	6	110	75	100	37.312500	149.250000
149250	250	8	7	110	58	90	37.312500	149.250000
149250	250	13	12	29	38	100	37.312500	149.250000
149250	250	13	12	29	50	100	37.312500	149.250000
149250	250	14	13	30	38	100	37.312500	149.250000
149250	250	14	13	30	50	100	37.312500	149.250000
149250	250	15	14	33	26	120	37.312500	149.250000
149250	250	15	14	33	38	120	37.312500	149.250000
149500	250	5	4	0	74	100	37.375000	149.500000
149500	250	6	5	110	63	120	37.375000	149.500000
149500	250	7	6	110	69	100	37.375000	149.500000
149500	250	7	6	110	74	100	37.375000	149.500000
149500	250	8	7	110	60	90	37.375000	149.500000
149500	500	10	9	16	47	100	37.375000	149.500000
149500	500	13	12	29	38	100	37.375000	149.500000
149500	500	13	12	29	50	100	37.375000	149.500000
149500	500	14	13	30	38	100	37.375000	149.500000
149500	500	14	13	30	50	100	37.375000	149.500000
149500	500	15	14	33	26	120	37.375000	149.500000
149500	500	15	14	33	38	120	37.375000	149.500000
149750	250	7	6	110	77	100	37.437500	149.750000
150000	250	5	4	0	70	100	37.500000	150.000000
150000	250	6	5	110	62	120	37.500000	150.000000
150000	250	7	6	110	70	100	37.500000	150.000000
150000	250	7	6	110	78	100	37.500000	150.000000
150000	250	8	7	110	63	90	37.500000	150.000000
150000	500	10	9	16	36	100	37.500000	150.000000
150000	500	10	9	16	43	100	37.500000	150.000000
150000	250	13	12	29	38	100	37.500000	150.000000
150000	250	13	12	29	50	100	37.500000	150.000000
150000	250	14	13	30	38	100	37.500000	150.000000
150000	250	14	13	30	50	100	37.500000	150.000000
150000	250	15	14	33	26	120	37.500000	150.000000
150000	250	15	14	33	38	120	37.500000	150.000000
150250	250	7	6	110	79	100	37.562500	150.250000
150500	250	6	5	110	63	120	37.625000	150.500000
150500	250	7	6	110	69	100	37.625000	150.500000
150500	250	7	6	110	77	100	37.625000	150.500000
150500	250	8	7	110	62	90	37.625000	150.500000
150500	500	10	9	16	46	80	37.625000	150.500000
150500	250	13	12	29	38	100	37.625000	150.500000
150500	250	13	12	29	50	100	37.625000	150.500000
150500	250	14	13	30	38	100	37.625000	150.500000
150500	250	14	13	30	50	100	37.625000	150.500000
150500	250	15	14	33	26	120	37.625000	150.500000
150500	250	15	14	33	38	120	37.625000	150.500000
150750	250	5	4	0	72	100	37.687500	150.750000
150750	250	7	6	110	72	100	37.687500	150.750000
151000	250	5	4	0	74	100	37.750000	151.000000
151000	250	6	5	110	62	120	37.750000	151.000000
151000	250	7	6	110	70	100	37.750000	151.000000
151000	250	7	6	110	74	100	37.750000	151.000000
151000	250	8	7	110	63	90	37.750000	151.000000
151000	500	10	9	16	38	100	37.750000	151.000000
151250	250	6	5	110	60	120	37.812500	151.250000
151250	250	13	12	29	38	100	37.812500	151.250000
151250	250	13	12	29	50	100	37.812500	151.250000
151250	250	14	13	30	38	100	37.812500	151.250000
151250	250	14	13	30	50	100	37.812500	151.250000
151250	250	15	14	33	26	120	37.812500	151.250000
151250	250	15	14	33	38	120	37.812500	151.250000
151500	250	5	4	0	77	100	37.875000	151.500000
151500	250	6	5	110	58	120	37.875000	151.500000
151500	250	7	6	110	72	100	37.875000	151.500000
151500	250	7	6	110	77	100	37.875000	151.500000
151500	250	8	7	110	62	90	37.875000	151.500000
151500	500	10	9	16	47	100	37.875000	151.500000
151500	500	13	12	29	38	100	37.875000	151.500000
151500	500	13	12	29	50	100	37.875000	151.500000
151500	500	14	13	30	38	100	37.875000	151.500000
151500	500	14	13	30	50	100	37.875000	151.500000
151500	500	15	14	33	26	120	37.875000	151.500000
151500	500	15	14	33	38	120	37.875000	151.500000
151750	250	8	7	110	60	90	37.937500	151.750000
152000	4000	2	1	48	51	100	38.000000	152.000000
152000	4000	2	1	48	63	100	38.000000	152.000000
152000	4000	2	1	48	70	100	38.000000	152.000000
152000	4000	2	1	48	74	100	38.000000	152.000000
152000	250	5	4	0	74	100	38.000000	152.000000
152000	250	6	5	110	65	120	38.000000	152.000000
152000	250	7	6	110	70	100	38.000000	152.000000
152000	250	7	6	110	74	100	38.000000	152.000000
152000	250	8	7	110	58	90	38.000000	152.000000
152000	500	10	9	16	36	100	38.000000	152.000000
152000	500	10	9	16	43	100	38.000000	152.000000
152000	250	13	12	29	39	100	38.000000	152.000000
152000	250	13	12	29	51	100	38.000000	152.000000
152000	250	14	13	30	39	100	38.000000	152.000000
152000	250	14	13	30	51	100	38.000000	152.000000
152000	250	15	14	33	27	120	38.000000	152.000000
152000	250	15	14	33	39	120	38.000000	152.000000
152500	250	6	5	110	58	120	38.125000	152.500000
152500	250	8	7	110	65	90	38.125000	152.500000
152500	500	10	9	16	46	80	38.125000	152.500000
152500	250	13	12	29	39	100	38.125000	152.500000
152500	250	13	12	29	51	100	38.125000	152.500000
152500	250	14	13	30	39	100	38.125000	152.500000
152500	250	14	13	30	51	100	38.125000	152.500000
152500	250	15	14	33	27	120	38.125000	152.500000
152500	250	15	14	33	39	120	38.125000	152.500000
153000	250	5	4	0	70	100	38.250000	153.000000
153000	250	6	5	110	60	120	38.250000	153.000000
153000	250	7	6	110	69	100	38.250000	153.000000
153000	250	7	6	110	77	100	38.250000	153.000000
153000	250	8	7	110	58	90	38.250000	153.000000
153000	500	10	9	16	38	100	38.250000	153.000000
153250	250	13	12	29	39	100	38.312500	153.250000
153250	250	13	12	29	51	100	38.312500	153.250000
153250	250	14	13	30	39	100	38.312500	153.250000
153250	250	14	13	30	51	100	38.312500	153.250000
153250	250	15	14	33	27	120	38.312500	153.250000
153250	250	15	14	33	39	120	38.312500	153.250000
153500	250	6	5	110	58	120	38.375000	153.500000
153500	250	8	7	110	60	90	38.375000	153.500000
153500	500	10	9	16	47	100	38.375000	153.500000
153500	500	13	12	29	39	100	38.375000	153.500000
153500	500	13	12	29	51	100	38.375000	153.500000
153500	500	14	13	30	39	100	38.375000	153.500000
153500	500	14	13	30	51	100	38.375000	153.500000
153500	500	15	14	33	27	120	38.375000	153.500000
153500	500	15	14	33	39	120	38.375000	153.500000
154000	250	5	4	0	74	100	38.500000	154.000000
154000	250	6	5	110	53	120	38.500000	154.000000
154000	250	7	6	110	70	100	38.500000	154.000000
154000	250	7	6	110	74	100	38.500000	154.000000
154000	250	8	7	110	58	90	38.500000	154.000000
154000	500	10	9	16	36	100	38.500000	154.000000
154000	500	10	9	16	43	100	38.500000	154.000000
154000	250	13	12	29	39	100	38.500000	154.000000
154000	250	13	12	29	51	100	38.500000	154.000000
154000	250	14	13	30	39	100	38.500000	154.000000
154000	250	14	13	30	51	100	38.500000	154.000000
154000	250	15	14	33	27	120	38.500000	154.000000
154000	250	15	14	33	39	120	38.500000	154.000000
154500	250	6	5	110	58	120	38.625000	154.500000
154500	250	8	7	110	53	90	38.625000	154.500000
154500	500	10	9	16	46	80	38.625000	154.500000
154500	250	13	12	29	39	100	38.625000	154.500000
154500	250	13	12	29	51	100	38.625000	154.500000
154500	250	14	13	30	39	100	38.625000	154.500000
154500	250	14	13	30	51	100	38.625000	154.500000
154500	250	15	14	33	27	120	38.625000	154.500000
154500	250	15	14	33	39	120	38.625000	154.500000
155000	250	5	4	0	70	100	38.750000	155.000000
155000	250	6	5	110	60	120	38.750000	155.000000
155000	250	7	6	110	69	100	38.750000	155.000000
155000	250	7	6	110	77	100	38.750000	155.000000
155000	250	8	7	110	58	90	38.750000	155.000000
155000	500	10	9	16	38	100	38.750000	155.000000
155250	250	13	12	29	39	100	38.812500	155.250000
155250	250	13	12	29	51	100	38.812500	155.250000
155250	250	14	13	30	39	100	38.812500	155.250000
155250	250	14	13	30	51	100	38.812500	155.250000
155250	250	15	14	33	27	120	38.812500	155.250000
155250	250	15	14	33	39	120	38.812500	155.250000
155500	250	5	4	0	74	100	38.875000	155.500000
155500	250	6	5	110	58	120	38.875000	155.500000
155500	250	7	6	110	70	100	38.875000	155.500000
155500	250	7	6	110	74	100	38.875000	155.500000
155500	250	8	7	110	60	90	38.875000	155.500000
155500	500	10	9	16	47	100	38.875000	155.500000
155500	500	13	12	29	39	100	38.875000	155.500000
155500	500	13	12	29	51	100	38.875000	155.500000
155500	500	14	13	30	39	100	38.875000	155.500000
155500	500	14	13	30	51	100	38.875000	155.500000
155500	500	15	14	33	27	120	38.875000	155.500000
155500	500	15	14	33	39	120	38.875000	155.500000
156000	2000	2	1	48	53	100	39.000000	156.000000
156000	2000	2	1	48	65	100	39.000000	156.000000
156000	2000	2	1	48	72	100	39.000000	156.000000
156000	2000	2	1	48	75	100	39.000000	156.000000
156000	250	5	4	0	75	100	39.000000	156.000000
156000	250	6	5	110	53	120	39.000000	156.000000
156000	250	7	6	110	72	100	39.000000	156.000000
156000	250	7	6	110	77	100	39.000000	156.000000
156000	250	8	7	110	58	90	39.000000	156.000000
156000	500	10	9	16	36	100	39.000000	156.000000
156000	500	10	9	16	43	100	39.000000	156.000000
156000	250	13	12	29	41	100	39.000000	156.000000
156000	250	13	12	29	53	100	39.000000	156.000000
156000	250	14	13	30	41	100	39.000000	156.000000
156000	250	14	13	30	53	100	39.000000	156.000000
156000	250	15	14	33	29	120	39.000000	156.000000
156000	250	15	14	33	41	120	39.000000	156.000000
156500	250	6	5	110	53	120	39.125000	156.500000
156500	250	8	7	110	53	90	39.125000	156.500000
156500	500	10	9	16	46	80	39.125000	156.500000
156500	250	13	12	29	41	100	39.125000	156.500000
156500	250	13	12	29	53	100	39.125000	156.500000
156500	250	14	13	30	41	100	39.125000	156.500000
156500	250	14	13	30	53	100	39.125000	156.500000
156500	250	15	14	33	29	120	39.125000	156.500000
156500	250	15	14	33	41	120	39.125000	156.500000
156750	250	5	4	0	74	100	39.187500	156.750000
156750	250	6	5	110	58	120	39.187500	156.750000
156750	250	7	6	110	65	100	39.187500	156.750000
156750	250	7	6	110	72	100	39.187500	156.750000
157000	250	5	4	0	75	100	39.250000	157.000000
157000	250	6	5	110	60	120	39.250000	157.000000
157000	250	7	6	110	72	100	39.250000	157.000000
157000	250	7	6	110	77	100	39.250000	157.000000
157000	250	8	7	110	53	90	39.250000	157.000000
157000	500	10	9	16	38	100	39.250000	157.000000
157250	250	7	6	110	70	100	39.312500	157.250000
157250	250	7	6	110	75	100	39.312500	157.250000
157250	250	8	7	110	58	90	39.312500	157.250000
157250	250	13	12	29	41	100	39.312500	157.250000
157250	250	13	12	29	53	100	39.312500	157.250000
157250	250	14	13	30	41	100	39.312500	157.250000
157250	250	14	13	30	53	100	39.312500	157.250000
157250	250	15	14	33	29	120	39.312500	157.250000
157250	250	15	14	33	41	120	39.312500	157.250000
157500	250	6	5	110	63	120	39.375000	157.500000
157500	250	7	6	110	69	100	39.375000	157.500000
157500	250	7	6	110	74	100	39.375000	157.500000
157500	250	8	7	110	60	90	39.375000	157.500000
157500	500	10	9	16	47	100	39.375000	157.500000
157500	500	13	12	29	41	100	39.375000	157.500000
157500	500	13	12	29	53	100	39.375000	157.500000
157500	500	14	13	30	41	100	39.375000	157.500000
157500	500	14	13	30	53	100	39.375000	157.500000
157500	500	15	14	33	29	120	39.375000	157.500000
157500	500	15	14	33	41	120	39.375000	157.500000
158000	250	5	4	0	74	100	39.500000	158.000000
158000	250	6	5	110	62	120	39.500000	158.000000
158000	250	7	6	110	70	100	39.500000	158.000000
158000	250	7	6	110	74	100	39.500000	158.000000
158000	250	8	7	110	63	90	39.500000	158.000000
158500	250	5	4	0	72	100	39.625000	158.500000
158500	250	6	5	110	63	120	39.625000	158.500000
158500	250	7	6	110	69	100	39.625000	158.500000
158500	250	7	6	110	72	100	39.625000	158.500000
158500	250	8	7	110	62	90	39.625000	158.500000
159000	250	5	4	0	74	100	39.750000	159.000000
159000	250	6	5	110	62	120	39.750000	159.000000
159000	250	7	6	110	70	100	39.750000	159.000000
159000	250	7	6	110	74	100	39.750000	159.000000
159000	250	8	7	110	63	90	39.750000	159.000000
159250	250	6	5	110	60	120	39.812500	159.250000
159500	250	5	4	0	77	100	39.875000	159.500000
159500	250	6	5	110	58	120	39.875000	159.500000
159500	250	7	6	110	72	100	39.875000	159.500000
159500	250	7	6	110	77	100	39.875000	159.500000
159500	250	8	7	110	62	90	39.875000	159.500000
159750	250	8	7	110	60	90	39.937500	159.750000
160000	8000	2	1	48	36	100	40.000000	160.000000
160000	8000	2	1	48	48	100	40.000000	160.000000
160000	8000	2	1	48	70	100	40.000000	160.000000
160000	8000	2	1	48	77	100	40.000000	160.000000
160000	1000	3	2	80	77	120	40.000000	160.000000
160000	500	8	7	110	58	90	40.000000	160.000000
160000	500	10	9	16	36	100	40.000000	160.000000
160000	500	10	9	16	46	80	40.000000	160.000000
160000	500	10	9	16	49	100	40.000000	160.000000
160000	1000	12	11	30	65	120	40.000000	160.000000
160000	1000	12	11	30	77	80	40.000000	160.000000
160000	500	13	12	29	36	120	40.000000	160.000000
160000	500	14	13	30	36	120	40.000000	160.000000
160000	500	15	14	33	24	120	40.000000	160.000000
160500	500	10	9	16	36	100	40.125000	160.500000
160500	500	13	12	29	36	120	40.125000	160.500000
160500	500	14	13	30	36	120	40.125000	160.500000
160500	500	15	14	33	24	120	40.125000	160.500000
161000	1000	3	2	80	70	120	40.250000	161.000000
161000	500	10	9	16	38	100	40.250000	161.000000
161000	500	10	9	16	46	80	40.250000	161.000000
161000	1000	12	11	30	58	120	40.250000	161.000000
161000	1000	12	11	30	70	80	40.250000	161.000000
161000	500	13	12	29	48	120	40.250000	161.000000
161000	500	14	13	30	48	120	40.250000	161.000000
161000	500	15	14	33	36	120	40.250000	161.000000
161500	500	10	9	16	36	100	40.375000	161.500000
161500	500	13	12	29	36	120	40.375000	161.500000
161500	500	14	13	30	36	120	40.375000	161.500000
161500	500	15	14	33	24	120	40.375000	161.500000
162000	1000	3	2	80	72	120	40.500000	162.000000
162000	500	10	9	16	36	100	40.500000	162.000000
162000	500	10	9	16	46	80	40.500000	162.000000
162000	1000	12	11	30	60	120	40.500000	162.000000
162000	1000	12	11	30	72	80	40.500000	162.000000
162000	500	13	12	29	36	120	40.500000	162.000000
162000	500	14	13	30	36	120	40.500000	162.000000
162000	500	15	14	33	24	120	40.500000	162.000000
162500	500	10	9	16	36	100	40.625000	162.500000
162500	500	13	12	29	48	120	40.625000	162.500000
162500	500	14	13	30	48	120	40.625000	162.500000
162500	500	15	14	33	36	120	40.625000	162.500000
163000	1000	3	2	80	70	120	40.750000	163.000000
163000	500	10	9	16	38	100	40.750000	163.000000
163000	500	10	9	16	46	80	40.750000	163.000000
163000	1000	12	11	30	58	120	40.750000	163.000000
163000	1000	12	11	30	70	80	40.750000	163.000000
163000	500	13	12	29	36	120	40.750000	163.000000
163000	500	14	13	30	36	120	40.750000	163.000000
163000	500	15	14	33	24	120	40.750000	163.000000
163500	500	10	9	16	36	100	40.875000	163.500000
163500	500	13	12	29	36	120	40.875000	163.500000
163500	500	14	13	30	36	120	40.875000	163.500000
163500	500	15	14	33	24	120	40.875000	163.500000
164000	500	3	2	80	65	120	41.000000	164.000000
164000	500	10	9	16	36	100	41.000000	164.000000
164000	500	10	9	16	46	80	41.000000	164.000000
164000	500	12	11	30	53	120	41.000000	164.000000
164000	500	12	11	30	65	80	41.000000	164.000000
164000	500	13	12	29	36	120	41.000000	164.000000
164000	500	14	13	30	36	120	41.000000	164.000000
164000	500	15	14	33	24	120	41.000000	164.000000
164500	500	3	2	80	70	120	41.125000	164.500000
164500	500	10	9	16	36	100	41.125000	164.500000
164500	500	12	11	30	58	120	41.125000	164.500000
164500	500	12	11	30	70	80	41.125000	164.500000
164500	500	13	12	29	48	120	41.125000	164.500000
164500	500	14	13	30	48	120	41.125000	164.500000
164500	500	15	14	33	36	120	41.125000	164.500000
165000	500	10	9	16	38	100	41.250000	165.000000
165000	500	10	9	16	46	80	41.250000	165.000000
165000	500	13	12	29	36	120	41.250000	165.000000
165000	500	14	13	30	36	120	41.250000	165.000000
165000	500	15	14	33	24	120	41.250000	165.000000
165500	1000	3	2	80	72	120	41.375000	165.500000
165500	500	10	9	16	36	100	41.375000	165.500000
165500	1000	12	11	30	60	120	41.375000	165.500000
165500	1000	12	11	30	72	80	41.375000	165.500000
165500	500	13	12	29	48	120	41.375000	165.500000
165500	500	14	13	30	48	120	41.375000	165.500000
165500	500	15	14	33	36	120	41.375000	165.500000
166000	500	10	9	16	36	100	41.500000	166.000000
166000	500	10	9	16	46	80	41.500000	166.000000
166000	500	13	12	29	36	120	41.500000	166.000000
166000	500	14	13	30	36	120	41.500000	166.000000
166000	500	15	14	33	24	120	41.500000	166.000000
166500	250	3	2	80	74	120	41.625000	166.500000
166500	500	10	9	16	36	100	41.625000	166.500000
166500	250	12	11	30	62	120	41.625000	166.500000
166500	250	12	11	30	74	80	41.625000	166.500000
166500	500	13	12	29	48	120	41.625000	166.500000
166500	500	14	13	30	48	120	41.625000	166.500000
166500	500	15	14	33	36	120	41.625000	166.500000
166750	250	3	2	80	72	120	41.687500	166.750000
166750	250	12	11	30	60	120	41.687500	166.750000
166750	250	12	11	30	72	80	41.687500	166.750000
167000	1000	3	2	80	70	120	41.750000	167.000000
167000	500	10	9	16	38	100	41.750000	167.000000
167000	500	10	9	16	46	80	41.750000	167.000000
167000	1000	12	11	30	58	120	41.750000	167.000000
167000	1000	12	11	30	70	80	41.750000	167.000000
167000	500	13	12	29	36	120	41.750000	167.000000
167000	500	14	13	30	36	120	41.750000	167.000000
167000	500	15	14	33	24	120	41.750000	167.000000
167500	500	10	9	16	36	100	41.875000	167.500000
167500	500	13	12	29	36	120	41.875000	167.500000
167500	500	14	13	30	36	120	41.875000	167.500000
167500	500	15	14	33	24	120	41.875000	167.500000
168000	8000	2	1	48	38	100	42.000000	168.000000
168000	8000	2	1	48	50	100	42.000000	168.000000
168000	8000	2	1	48	72	100	42.000000	168.000000
168000	8000	2	1	48	79	100	42.000000	168.000000
168000	1000	3	2	80	65	120	42.000000	168.000000
168000	500	10	9	16	36	100	42.000000	168.000000
168000	500	10	9	16	46	80	42.000000	168.000000
168000	1000	12	11	30	53	120	42.000000	168.000000
168000	1000	12	11	30	65	100	42.000000	168.000000
168000	500	13	12	29	38	120	42.000000	168.000000
168000	500	14	13	30	38	120	42.000000	168.000000
168000	500	15	14	33	26	120	42.000000	168.000000
168500	500	10	9	16	36	100	42.125000	168.500000
168500	500	13	12	29	38	120	42.125000	168.500000
168500	500	14	13	30	38	120	42.125000	168.500000
168500	500	15	14	33	26	120	42.125000	168.500000
169000	1000	3	2	80	70	120	42.250000	169.000000
169000	500	10	9	16	38	100	42.250000	169.000000
169000	500	10	9	16	46	80	42.250000	169.000000
169000	1000	12	11	30	58	120	42.250000	169.000000
169000	1000	12	11	30	70	80	42.250000	169.000000
169000	500	13	12	29	50	120	42.250000	169.000000
169000	500	14	13	30	50	120	42.250000	169.000000
169000	500	15	14	33	38	120	42.250000	169.000000
169500	500	10	9	16	36	100	42.375000	169.500000
169500	500	13	12	29	38	120	42.375000	169.500000
169500	500	14	13	30	38	120	42.375000	169.500000
169500	500	15	14	33	26	120	42.375000	169.500000
170000	500	3	2	80	72	120	42.500000	170.000000
170000	500	10	9	16	36	100	42.500000	170.000000
170000	500	10	9	16	46	80	42.500000	170.000000
170000	500	12	11	30	60	120	42.500000	170.000000
170000	500	12	11	30	72	80	42.500000	170.000000
170000	500	13	12	29	38	120	42.500000	170.000000
170000	500	14	13	30	38	120	42.500000	170.000000
170000	500	15	14	33	26	120	42.500000	170.000000
170500	500	3	2	80	75	120	42.625000	170.500000
170500	500	10	9	16	36	100	42.625000	170.500000
170500	500	12	11	30	63	120	42.625000	170.500000
170500	500	12	11	30	75	80	42.625000	170.500000
170500	500	13	12	29	50	120	42.625000	170.500000
170500	500	14	13	30	50	120	42.625000	170.500000
170500	500	15	14	33	38	120	42.625000	170.500000
171000	500	10	9	16	38	100	42.750000	171.000000
171000	500	10	9	16	46	80	42.750000	171.000000
171000	500	13	12	29	38	120	42.750000	171.000000
171000	500	14	13	30	38	120	42.750000	171.000000
171000	500	15	14	33	26	120	42.750000	171.000000
171500	1000	3	2	80	74	120	42.875000	171.500000
171500	500	10	9	16	36	100	42.875000	171.500000
171500	1000	12	11	30	62	120	42.875000	171.500000
171500	1000	12	11	30	74	80	42.875000	171.500000
171500	500	13	12	29	38	120	42.875000	171.500000
171500	500	14	13	30	38	120	42.875000	171.500000
171500	500	15	14	33	26	120	42.875000	171.500000
172000	500	10	9	16	36	100	43.000000	172.000000
172000	500	10	9	16	46	80	43.000000	172.000000
172000	500	13	12	29	38	120	43.000000	172.000000
172000	500	14	13	30	38	120	43.000000	172.000000
172000	500	15	14	33	26	120	43.000000	172.000000
172500	250	3	2	80	75	120	43.125000	172.500000
172500	500	10	9	16	36	100	43.125000	172.500000
172500	250	12	11	30	63	120	43.125000	172.500000
172500	250	12	11	30	75	80	43.125000	172.500000
172500	500	13	12	29	38	120	43.125000	172.500000
172500	500	14	13	30	38	120	43.125000	172.500000
172500	500	15	14	33	26	120	43.125000	172.500000
172750	250	3	2	80	74	120	43.187500	172.750000
172750	250	12	11	30	62	120	43.187500	172.750000
172750	250	12	11	30	74	80	43.187500	172.750000
173000	1000	3	2	80	72	120	43.250000	173.000000
173000	500	10	9	16	38	100	43.250000	173.000000
173000	500	10	9	16	46	80	43.250000	173.000000
173000	1000	12	11	30	60	120	43.250000	173.000000
173000	1000	12	11	30	72	80	43.250000	173.000000
173000	500	13	12	29	50	120	43.250000	173.000000
173000	500	14	13	30	50	120	43.250000	173.000000
173000	500	15	14	33	38	120	43.250000	173.000000
173500	500	10	9	16	36	100	43.375000	173.500000
173500	500	13	12	29	38	120	43.375000	173.500000
173500	500	14	13	30	38	120	43.375000	173.500000
173500	500	15	14	33	26	120	43.375000	173.500000
174000	1000	3	2	80	70	120	43.500000	174.000000
174000	500	10	9	16	36	100	43.500000	174.000000
174000	500	10	9	16	46	80	43.500000	174.000000
174000	1000	12	11	30	58	120	43.500000	174.000000
174000	1000	12	11	30	70	80	43.500000	174.000000
174000	500	13	12	29	38	120	43.500000	174.000000
174000	500	14	13	30	38	120	43.500000	174.000000
174000	500	15	14	33	26	120	43.500000	174.000000
174500	500	10	9	16	36	100	43.625000	174.500000
174500	500	13	12	29	50	120	43.625000	174.500000
174500	500	14	13	30	50	120	43.625000	174.500000
174500	500	15	14	33	38	120	43.625000	174.500000
175000	1000	3	2	80	65	120	43.750000	175.000000
175000	500	10	9	16	38	100	43.750000	175.000000
175000	500	10	9	16	46	80	43.750000	175.000000
175000	1000	12	11	30	53	120	43.750000	175.000000
175000	1000	12	11	30	65	80	43.750000	175.000000
175000	500	13	12	29	38	120	43.750000	175.000000
175000	500	14	13	30	38	120	43.750000	175.000000
175000	500	15	14	33	26	120	43.750000	175.000000
175500	500	10	9	16	36	100	43.875000	175.500000
175500	500	13	12	29	50	120	43.875000	175.500000
175500	500	14	13	30	50	120	43.875000	175.500000
175500	500	15	14	33	38	120	43.875000	175.500000
176000	8000	2	1	48	39	100	44.000000	176.000000
176000	8000	2	1	48	51	100	44.000000	176.000000
176000	8000	2	1	48	70	100	44.000000	176.000000
176000	8000	2	1	48	74	100	44.000000	176.000000
176000	8000	2	1	48	77	100	44.000000	176.000000
176000	8000	2	1	48	82	100	44.000000	176.000000
176000	1000	3	2	80	77	120	44.000000	176.000000
176000	500	10	9	16	36	100	44.000000	176.000000
176000	500	10	9	16	46	80	44.000000	176.000000
176000	1000	12	11	30	65	120	44.000000	176.000000
176000	1000	12	11	30	77	80	44.000000	176.000000
176000	500	13	12	29	39	120	44.000000	176.000000
176000	500	14	13	30	39	120	44.000000	176.000000
176000	500	15	14	33	27	120	44.000000	176.000000
176500	500	10	9	16	36	100	44.125000	176.500000
176500	500	13	12	29	39	120	44.125000	176.500000
176500	500	14	13	30	39	120	44.125000	176.500000
176500	500	15	14	33	27	120	44.125000	176.500000
177000	1000	3	2	80	70	120	44.250000	177.000000
177000	500	10	9	16	38	100	44.250000	177.000000
177000	500	10	9	16	46	80	44.250000	177.000000
177000	1000	12	11	30	58	120	44.250000	177.000000
177000	1000	12	11	30	70	80	44.250000	177.000000
177000	500	13	12	29	51	120	44.250000	177.000000
177000	500	14	13	30	51	120	44.250000	177.000000
177000	500	15	14	33	39	120	44.250000	177.000000
177500	500	10	9	16	36	100	44.375000	177.500000
177500	500	13	12	29	39	120	44.375000	177.500000
177500	500	14	13	30	39	120	44.375000	177.500000
177500	500	15	14	33	27	120	44.375000	177.500000
178000	1000	3	2	80	72	120	44.500000	178.000000
178000	500	10	9	16	36	100	44.500000	178.000000
178000	500	10	9	16	46	80	44.500000	178.000000
178000	1000	12	11	30	60	120	44.500000	178.000000
178000	1000	12	11	30	72	80	44.500000	178.000000
178000	500	13	12	29	39	120	44.500000	178.000000
178000	500	14	13	30	39	120	44.500000	178.000000
178000	500	15	14	33	27	120	44.500000	178.000000
178500	500	10	9	16	36	100	44.625000	178.500000
178500	500	13	12	29	51	120	44.625000	178.500000
178500	500	14	13	30	51	120	44.625000	178.500000
178500	500	15	14	33	39	120	44.625000	178.500000
179000	1000	3	2	80	70	120	44.750000	179.000000
179000	500	10	9	16	38	100	44.750000	179.000000
179000	500	10	9	16	46	80	44.750000	179.000000
179000	1000	12	11	30	58	120	44.750000	179.000000
179000	1000	12	11	30	70	80	44.750000	179.000000
179000	500	13	12	29	39	120	44.750000	179.000000
179000	500	14	13	30	39	120	44.750000	179.000000
179000	500	15	14	33	27	120	44.750000	179.000000
179500	500	10	9	16	36	100	44.875000	179.500000
179500	500	13	12	29	39	120	44.875000	179.500000
179500	500	14	13	30	39	120	44.875000	179.500000
179500	500	15	14	33	27	120	44.875000	179.500000
180000	500	3	2	80	65	120	45.000000	180.000000
180000	500	10	9	16	36	100	45.000000	180.000000
180000	500	10	9	16	46	80	45.000000	180.000000
180000	500	12	11	30	53	120	45.000000	180.000000
180000	500	12	11	30	65	80	45.000000	180.000000
180000	500	13	12	29	39	120	45.000000	180.000000
180000	500	14	13	30	39	120	45.000000	180.000000
180000	500	15	14	33	27	120	45.000000	180.000000
180500	500	3	2	80	70	120	45.125000	180.500000
180500	500	10	9	16	36	100	45.125000	180.500000
180500	500	12	11	30	58	120	45.125000	180.500000
180500	500	12	11	30	70	80	45.125000	180.500000
180500	500	13	12	29	51	120	45.125000	180.500000
180500	500	14	13	30	51	120	45.125000	180.500000
180500	500	15	14	33	39	120	45.125000	180.500000
181000	500	10	9	16	38	100	45.250000	181.000000
181000	500	10	9	16	46	80	45.250000	181.000000
181000	500	13	12	29	39	120	45.250000	181.000000
181000	500	14	13	30	39	120	45.250000	181.000000
181000	500	15	14	33	27	120	45.250000	181.000000
181500	1000	3	2	80	72	120	45.375000	181.500000
181500	500	10	9	16	36	100	45.375000	181.500000
181500	1000	12	11	30	60	120	45.375000	181.500000
181500	1000	12	11	30	72	80	45.375000	181.500000
181500	500	13	12	29	51	120	45.375000	181.500000
181500	500	14	13	30	51	120	45.375000	181.500000
181500	500	15	14	33	39	120	45.375000	181.500000
182000	500	10	9	16	36	100	45.500000	182.000000
182000	500	10	9	16	46	80	45.500000	182.000000
182000	500	13	12	29	39	120	45.500000	182.000000
182000	500	14	13	30	39	120	45.500000	182.000000
182000	500	15	14	33	27	120	45.500000	182.000000
182500	250	3	2	80	74	120	45.625000	182.500000
182500	500	10	9	16	36	100	45.625000	182.500000
182500	250	12	11	30	62	120	45.625000	182.500000
182500	250	12	11	30	74	80	45.625000	182.500000
182500	500	13	12	29	51	120	45.625000	182.500000
182500	500	14	13	30	51	120	45.625000	182.500000
182500	500	15	14	33	39	120	45.625000	182.500000
182750	250	3	2	80	72	120	45.687500	182.750000
182750	250	12	11	30	60	120	45.687500	182.750000
182750	250	12	11	30	72	80	45.687500	182.750000
183000	1000	3	2	80	70	120	45.750000	183.000000
183000	500	10	9	16	38	100	45.750000	183.000000
183000	500	10	9	16	46	80	45.750000	183.000000
183000	1000	12	11	30	58	120	45.750000	183.000000
183000	1000	12	11	30	70	80	45.750000	183.000000
183000	500	13	12	29	39	120	45.750000	183.000000
183000	500	14	13	30	39	120	45.750000	183.000000
183000	500	15	14	33	27	120	45.750000	183.000000
183500	500	10	9	16	36	100	45.875000	183.500000
183500	500	13	12	29	39	120	45.875000	183.500000
183500	500	14	13	30	39	120	45.875000	183.500000
183500	500	15	14	33	27	120	45.875000	183.500000
184000	4000	2	1	48	41	100	46.000000	184.000000
184000	4000	2	1	48	53	100	46.000000	184.000000
184000	4000	2	1	48	72	100	46.000000	184.000000
184000	4000	2	1	48	75	100	46.000000	184.000000
184000	4000	2	1	48	79	100	46.000000	184.000000
184000	4000	2	1	48	84	100	46.000000	184.000000
184000	1000	3	2	80	65	120	46.000000	184.000000
184000	500	10	9	16	36	100	46.000000	184.000000
184000	500	10	9	16	46	80	46.000000	184.000000
184000	1000	12	11	30	53	120	46.000000	184.000000
184000	1000	12	11	30	65	100	46.000000	184.000000
184000	500	13	12	29	41	120	46.000000	184.000000
184000	500	14	13	30	41	120	46.000000	184.000000
184000	500	15	14	33	29	120	46.000000	184.000000
184500	500	10	9	16	36	100	46.125000	184.500000
184500	500	13	12	29	41	120	46.125000	184.500000
184500	500	14	13	30	41	120	46.125000	184.500000
184500	500	15	14	33	29	120	46.125000	184.500000
185000	1000	3	2	80	70	120	46.250000	185.000000
185000	500	10	9	16	38	100	46.250000	185.000000
185000	500	10	9	16	46	80	46.250000	185.000000
185000	1000	12	11	30	58	120	46.250000	185.000000
185000	1000	12	11	30	70	80	46.250000	185.000000
185000	500	13	12	29	53	120	46.250000	185.000000
185000	500	14	13	30	53	120	46.250000	185.000000
185000	500	15	14	33	41	120	46.250000	185.000000
185500	500	10	9	16	36	100	46.375000	185.500000
185500	500	13	12	29	41	120	46.375000	185.500000
185500	500	14	13	30	41	120	46.375000	185.500000
185500	500	15	14	33	29	120	46.375000	185.500000
186000	500	3	2	80	72	120	46.500000	186.000000
186000	500	10	9	16	36	100	46.500000	186.000000
186000	500	10	9	16	46	80	46.500000	186.000000
186000	500	12	11	30	60	120	46.500000	186.000000
186000	500	12	11	30	72	80	46.500000	186.000000
186000	500	13	12	29	41	120	46.500000	186.000000
186000	500	14	13	30	41	120	46.500000	186.000000
186000	500	15	14	33	29	120	46.500000	186.000000
186500	500	3	2	80	75	120	46.625000	186.500000
186500	500	10	9	16	36	100	46.625000	186.500000
186500	500	12	11	30	63	120	46.625000	186.500000
186500	500	12	11	30	75	80	46.625000	186.500000
186500	500	13	12	29	53	120	46.625000	186.500000
186500	500	14	13	30	53	120	46.625000	186.500000
186500	500	15	14	33	41	120	46.625000	186.500000
187000	500	10	9	16	38	100	46.750000	187.000000
187000	500	10	9	16	46	80	46.750000	187.000000
187000	500	13	12	29	41	120	46.750000	187.000000
187000	500	14	13	30	41	120	46.750000	187.000000
187000	500	15	14	33	29	120	46.750000	187.000000
187500	1000	3	2	80	74	120	46.875000	187.500000
187500	500	10	9	16	36	100	46.875000	187.500000
187500	1000	12	11	30	62	120	46.875000	187.500000
187500	1000	12	11	30	74	80	46.875000	187.500000
187500	500	13	12	29	41	120	46.875000	187.500000
187500	500	14	13	30	41	120	46.875000	187.500000
187500	500	15	14	33	29	120	46.875000	187.500000
188000	4000	2	1	48	43	100	47.000000	188.000000
188000	4000	2	1	48	55	100	47.000000	188.000000
188000	4000	2	1	48	70	100	47.000000	188.000000
188000	4000	2	1	48	74	100	47.000000	188.000000
188000	4000	2	1	48	77	100	47.000000	188.000000
188000	4000	2	1	48	82	100	47.000000	188.000000
188000	500	10	9	16	36	100	47.000000	188.000000
188000	500	10	9	16	46	80	47.000000	188.000000
188000	500	13	12	29	43	120	47.000000	188.000000
188000	500	14	13	30	43	120	47.000000	188.000000
188000	500	15	14	33	31	120	47.000000	188.000000
188500	250	3	2	80	75	120	47.125000	188.500000
188500	500	10	9	16	36	100	47.125000	188.500000
188500	250	12	11	30	63	120	47.125000	188.500000
188500	250	12	11	30	75	80	47.125000	188.500000
188500	500	13	12	29	55	120	47.125000	188.500000
188500	500	14	13	30	55	120	47.125000	188.500000
188500	500	15	14	33	43	120	47.125000	188.500000
188750	250	3	2	80	74	120	47.187500	188.750000
188750	250	12	11	30	62	120	47.187500	188.750000
188750	250	12	11	30	74	80	47.187500	188.750000
189000	1000	3	2	80	72	120	47.250000	189.000000
189000	500	10	9	16	38	100	47.250000	189.000000
189000	500	10	9	16	46	80	47.250000	189.000000
189000	1000	12	11	30	60	120	47.250000	189.000000
189000	1000	12	11	30	72	80	47.250000	189.000000
189000	500	13	12	29	43	120	47.250000	189.000000
189000	500	14	13	30	43	120	47.250000	189.000000
189000	500	15	14	33	31	120	47.250000	189.000000
189500	500	10	9	16	36	100	47.375000	189.500000
189500	500	13	12	29	55	120	47.375000	189.500000
189500	500	14	13	30	55	120	47.375000	189.500000
189500	500	15	14	33	43	120	47.375000	189.500000
190000	1000	3	2	80	70	120	47.500000	190.000000
190000	500	10	9	16	36	100	47.500000	190.000000
190000	500	10	9	16	46	80	47.500000	190.000000
190000	1000	12	11	30	58	120	47.500000	190.000000
190000	1000	12	11	30	70	80	47.500000	190.000000
190000	500	13	12	29	43	120	47.500000	190.000000
190000	500	14	13	30	43	120	47.500000	190.000000
190000	500	15	14	33	31	120	47.500000	190.000000
190500	500	10	9	16	36	100	47.625000	190.500000
190500	500	13	12	29	55	120	47.625000	190.500000
190500	500	14	13	30	55	120	47.625000	190.500000
190500	500	15	14	33	43	120	47.625000	190.500000
191000	1000	3	2	80	65	120	47.750000	191.000000
191000	500	10	9	16	38	100	47.750000	191.000000
191000	500	10	9	16	46	80	47.750000	191.000000
191000	1000	12	11	30	53	120	47.750000	191.000000
191000	1000	12	11	30	65	80	47.750000	191.000000
191000	500	13	12	29	43	120	47.750000	191.000000
191000	500	14	13	30	43	120	47.750000	191.000000
191000	500	15	14	33	31	120	47.750000	191.000000
191500	500	10	9	16	36	100	47.875000	191.500000
191500	500	13	12	29	55	120	47.875000	191.500000
191500	500	14	13	30	55	120	47.875000	191.500000
191500	500	15	14	33	43	120	47.875000	191.500000
192000	8000	2	1	48	36	100	48.000000	192.000000
192000	8000	2	1	48	48	100	48.000000	192.000000
192000	8000	2	1	48	58	100	48.000000	192.000000
192000	8000	2	1	48	70	100	48.000000	192.000000
192000	8000	2	1	48	77	100	48.000000	192.000000
192000	1000	3	2	80	77	120	48.000000	192.000000
192000	250	3	2	80	82	120	48.000000	192.000000
192000	500	5	4	0	82	120	48.000000	192.000000
192000	500	5	4	0	86	120	48.000000	192.000000
192000	500	9	8	9	89	90	48.000000	192.000000
192000	500	9	8	9	101	90	48.000000	192.000000
192000	500	10	9	16	36	100	48.000000	192.000000
192000	500	10	9	16	46	80	48.000000	192.000000
192000	500	10	9	16	49	100	48.000000	192.000000
192000	1000	12	11	30	65	120	48.000000	192.000000
192000	1000	12	11	30	77	80	48.000000	192.000000
192000	500	13	12	29	36	120	48.000000	192.000000
192000	500	14	13	30	36	120	48.000000	192.000000
192000	500	15	14	33	24	120	48.000000	192.000000
192500	500	10	9	16	36	100	48.125000	192.500000
192500	500	13	12	29	36	120	48.125000	192.500000
192500	500	14	13	30	36	120	48.125000	192.500000
192500	500	15	14	33	24	120	48.125000	192.500000
193000	1000	3	2	80	70	120	48.250000	193.000000
193000	250	3	2	80	82	120	48.250000	193.000000
193000	500	5	4	0	82	120	48.250000	193.000000
193000	500	9	8	9	82	90	48.250000	193.000000
193000	500	9	8	9	94	90	48.250000	193.000000
193000	500	10	9	16	38	100	48.250000	193.000000
193000	500	10	9	16	46	80	48.250000	193.000000
193000	1000	12	11	30	58	120	48.250000	193.000000
193000	1000	12	11	30	70	80	48.250000	193.000000
193000	500	13	12	29	48	120	48.250000	193.000000
193000	500	14	13	30	48	120	48.250000	193.000000
193000	500	15	14	33	36	120	48.250000	193.000000
193500	250	3	2	80	84	120	48.375000	193.500000
193500	500	5	4	0	81	120	48.375000	193.500000
193500	500	5	4	0	84	120	48.375000	193.500000
193500	500	10	9	16	36	100	48.375000	193.500000
193500	500	13	12	29	36	120	48.375000	193.500000
193500	500	14	13	30	36	120	48.375000	193.500000
193500	500	15	14	33	24	120	48.375000	193.500000
194000	1000	3	2	80	72	120	48.500000	194.000000
194000	500	3	2	80	86	120	48.500000	194.000000
194000	500	5	4	0	86	120	48.500000	194.000000
194000	500	9	8	9	84	90	48.500000	194.000000
194000	500	9	8	9	96	90	48.500000	194.000000
194000	500	10	9	16	36	100	48.500000	194.000000
194000	500	10	9	16	46	80	48.500000	194.000000
194000	1000	12	11	30	60	120	48.500000	194.000000
194000	1000	12	11	30	72	80	48.500000	194.000000
194000	500	13	12	29	36	120	48.500000	194.000000
194000	500	14	13	30	36	120	48.500000	194.000000
194000	500	15	14	33	24	120	48.500000	194.000000
194500	500	10	9	16	36	100	48.625000	194.500000
194500	500	13	12	29	48	120	48.625000	194.500000
194500	500	14	13	30	48	120	48.625000	194.500000
194500	500	15	14	33	36	120	48.625000	194.500000
195000	1000	3	2	80	70	120	48.750000	195.000000
195000	250	3	2	80	82	120	48.750000	195.000000
195000	500	5	4	0	77	120	48.750000	195.000000
195000	500	5	4	0	82	120	48.750000	195.000000
195000	500	9	8	9	82	90	48.750000	195.000000
195000	500	9	8	9	94	90	48.750000	195.000000
195000	500	10	9	16	38	100	48.750000	195.000000
195000	500	10	9	16	46	80	48.750000	195.000000
195000	1000	12	11	30	58	120	48.750000	195.000000
195000	1000	12	11	30	70	80	48.750000	195.000000
195000	500	13	12	29	36	120	48.750000	195.000000
195000	500	14	13	30	36	120	48.750000	195.000000
195000	500	15	14	33	24	120	48.750000	195.000000
195500	500	10	9	16	36	100	48.875000	195.500000
195500	500	13	12	29	36	120	48.875000	195.500000
195500	500	14	13	30	36	120	48.875000	195.500000
195500	500	15	14	33	24	120	48.875000	195.500000
196000	500	3	2	80	65	120	49.000000	196.000000
196000	500	3	2	80	84	120	49.000000	196.000000
196000	500	5	4	0	84	120	49.000000	196.000000
196000	500	9	8	9	77	90	49.000000	196.000000
196000	500	9	8	9	89	90	49.000000	196.000000
196000	500	10	9	16	36	100	49.000000	196.000000
196000	500	10	9	16	46	80	49.000000	196.000000
196000	500	12	11	30	53	120	49.000000	196.000000
196000	500	12	11	30	65	80	49.000000	196.000000
196000	500	13	12	29	36	120	49.000000	196.000000
196000	500	14	13	30	36	120	49.000000	196.000000
196000	500	15	14	33	24	120	49.000000	196.000000
196500	500	3	2	80	70	120	49.125000	196.500000
196500	250	3	2	80	82	120	49.125000	196.500000
196500	500	5	4	0	82	120	49.125000	196.500000
196500	500	5	4	0	86	120	49.125000	196.500000
196500	500	9	8	9	82	90	49.125000	196.500000
196500	500	9	8	9	94	90	49.125000	196.500000
196500	500	10	9	16	36	100	49.125000	196.500000
196500	500	12	11	30	58	120	49.125000	196.500000
196500	500	12	11	30	70	80	49.125000	196.500000
196500	500	13	12	29	48	120	49.125000	196.500000
196500	500	14	13	30	48	120	49.125000	196.500000
196500	500	15	14	33	36	120	49.125000	196.500000
197000	250	3	2	80	84	120	49.250000	197.000000
197000	500	5	4	0	84	120	49.250000	197.000000
197000	500	10	9	16	38	100	49.250000	197.000000
197000	500	10	9	16	46	80	49.250000	197.000000
197000	500	13	12	29	36	120	49.250000	197.000000
197000	500	14	13	30	36	120	49.250000	197.000000
197000	500	15	14	33	24	120	49.250000	197.000000
197500	1000	3	2	80	72	120	49.375000	197.500000
197500	250	3	2	80	86	120	49.375000	197.500000
197500	500	5	4	0	86	120	49.375000	197.500000
197500	500	9	8	9	84	90	49.375000	197.500000
197500	500	9	8	9	96	90	49.375000	197.500000
197500	500	10	9	16	36	100	49.375000	197.500000
197500	1000	12	11	30	60	120	49.375000	197.500000
197500	1000	12	11	30	72	80	49.375000	197.500000
197500	500	13	12	29	48	120	49.375000	197.500000
197500	500	14	13	30	48	120	49.375000	197.500000
197500	500	15	14	33	36	120	49.375000	197.500000
198000	250	3	2	80	84	120	49.500000	198.000000
198000	500	5	4	0	81	120	49.500000	198.000000
198000	500	5	4	0	84	120	49.500000	198.000000
198000	500	10	9	16	36	100	49.500000	198.000000
198000	500	10	9	16	46	80	49.500000	198.000000
198000	500	13	12	29	36	120	49.500000	198.000000
198000	500	14	13	30	36	120	49.500000	198.000000
198000	500	15	14	33	24	120	49.500000	198.000000
198500	250	3	2	80	74	120	49.625000	198.500000
198500	250	3	2	80	86	120	49.625000	198.500000
198500	250	5	4	0	86	120	49.625000	198.500000
198500	250	9	8	9	86	90	49.625000	198.500000
198500	250	9	8	9	98	90	49.625000	198.500000
198500	500	10	9	16	36	100	49.625000	198.500000
198500	250	12	11	30	62	120	49.625000	198.500000
198500	250	12	11	30	74	80	49.625000	198.500000
198500	500	13	12	29	48	120	49.625000	198.500000
198500	500	14	13	30	48	120	49.625000	198.500000
198500	500	15	14	33	36	120	49.625000	198.500000
198750	250	3	2	80	72	120	49.687500	198.750000
198750	250	3	2	80	84	120	49.687500	198.750000
198750	250	5	4	0	84	120	49.687500	198.750000
198750	250	9	8	9	84	90	49.687500	198.750000
198750	250	9	8	9	96	90	49.687500	198.750000
198750	250	12	11	30	60	120	49.687500	198.750000
198750	250	12	11	30	72	80	49.687500	198.750000
199000	1000	3	2	80	70	120	49.750000	199.000000
199000	500	3	2	80	82	120	49.750000	199.000000
199000	500	5	4	0	77	120	49.750000	199.000000
199000	500	5	4	0	82	120	49.750000	199.000000
199000	500	9	8	9	82	90	49.750000	199.000000
199000	500	9	8	9	94	90	49.750000	199.000000
199000	500	10	9	16	38	100	49.750000	199.000000
199000	500	10	9	16	46	80	49.750000	199.000000
199000	1000	12	11	30	58	120	49.750000	199.000000
199000	1000	12	11	30	70	80	49.750000	199.000000
199000	500	13	12	29	36	120	49.750000	199.000000
199000	500	14	13	30	36	120	49.750000	199.000000
199000	500	15	14	33	24	120	49.750000	199.000000
199500	500	10	9	16	36	100	49.875000	199.500000
199500	500	13	12	29	36	120	49.875000	199.500000
199500	500	14	13	30	36	120	49.875000	199.500000
199500	500	15	14	33	24	120	49.875000	199.500000
200000	8000	2	1	48	38	100	50.000000	200.000000
200000	8000	2	1	48	50	100	50.000000	200.000000
200000	8000	2	1	48	60	100	50.000000	200.000000
200000	8000	2	1	48	72	100	50.000000	200.000000
200000	8000	2	1	48	79	100	50.000000	200.000000
200000	1000	3	2	80	65	120	50.000000	200.000000
200000	250	3	2	80	86	120	50.000000	200.000000
200000	500	5	4	0	82	120	50.000000	200.000000
200000	500	5	4	0	86	120	50.000000	200.000000
200000	500	9	8	9	77	90	50.000000	200.000000
200000	500	9	8	9	89	90	50.000000	200.000000
200000	500	10	9	16	36	100	50.000000	200.000000
200000	500	10	9	16	46	80	50.000000	200.000000
200000	1000	12	11	30	53	120	50.000000	200.000000
200000	1000	12	11	30	65	100	50.000000	200.000000
200000	500	13	12	29	38	120	50.000000	200.000000
200000	500	14	13	30	38	120	50.000000	200.000000
200000	500	15	14	33	26	120	50.000000	200.000000
200500	500	10	9	16	36	100	50.125000	200.500000
200500	500	13	12	29	38	120	50.125000	200.500000
200500	500	14	13	30	38	120	50.125000	200.500000
200500	500	15	14	33	26	120	50.125000	200.500000
201000	1000	3	2	80	70	120	50.250000	201.000000
201000	250	3	2	80	86	120	50.250000	201.000000
201000	500	5	4	0	86	120	50.250000	201.000000
201000	500	9	8	9	82	90	50.250000	201.000000
201000	500	9	8	9	94	90	50.250000	201.000000
201000	500	10	9	16	38	100	50.250000	201.000000
201000	500	10	9	16	46	80	50.250000	201.000000
201000	1000	12	11	30	58	120	50.250000	201.000000
201000	1000	12	11	30	70	80	50.250000	201.000000
201000	500	13	12	29	50	120	50.250000	201.000000
201000	500	14	13	30	50	120	50.250000	201.000000
201000	500	15	14	33	38	120	50.250000	201.000000
201500	250	3	2	80	87	120	50.375000	201.500000
201500	500	5	4	0	81	120	50.375000	201.500000
201500	500	5	4	0	87	120	50.375000	201.500000
201500	500	10	9	16	36	100	50.375000	201.500000
201500	500	13	12	29	38	120	50.375000	201.500000
201500	500	14	13	30	38	120	50.375000	201.500000
201500	500	15	14	33	26	120	50.375000	201.500000
202000	500	3	2	80	72	120	50.500000	202.000000
202000	250	3	2	80	89	120	50.500000	202.000000
202000	500	5	4	0	89	120	50.500000	202.000000
202000	500	9	8	9	84	90	50.500000	202.000000
202000	500	9	8	9	96	90	50.500000	202.000000
202000	500	10	9	16	36	100	50.500000	202.000000
202000	500	10	9	16	46	80	50.500000	202.000000
202000	500	12	11	30	60	120	50.500000	202.000000
202000	500	12	11	30	72	80	50.500000	202.000000
202000	500	13	12	29	38	120	50.500000	202.000000
202000	500	14	13	30	38	120	50.500000	202.000000
202000	500	15	14	33	26	120	50.500000	202.000000
202500	500	3	2	80	75	120	50.625000	202.500000
202500	500	9	8	9	87	90	50.625000	202.500000
202500	500	9	8	9	99	90	50.625000	202.500000
202500	500	10	9	16	36	100	50.625000	202.500000
202500	500	12	11	30	63	120	50.625000	202.500000
202500	500	12	11	30	75	80	50.625000	202.500000
202500	500	13	12	29	50	120	50.625000	202.500000
202500	500	14	13	30	50	120	50.625000	202.500000
202500	500	15	14	33	38	120	50.625000	202.500000
203000	250	3	2	80	94	120	50.750000	203.000000
203000	500	5	4	0	77	120	50.750000	203.000000
203000	500	5	4	0	82	120	50.750000	203.000000
203000	500	5	4	0	84	120	50.750000	203.000000
203000	500	5	4	0	94	120	50.750000	203.000000
203000	500	10	9	16	38	100	50.750000	203.000000
203000	500	10	9	16	46	80	50.750000	203.000000
203000	500	13	12	29	38	120	50.750000	203.000000
203000	500	14	13	30	38	120	50.750000	203.000000
203000	500	15	14	33	26	120	50.750000	203.000000
203500	1000	3	2	80	74	120	50.875000	203.500000
203500	500	9	8	9	86	90	50.875000	203.500000
203500	500	9	8	9	98	90	50.875000	203.500000
203500	500	10	9	16	36	100	50.875000	203.500000
203500	1000	12	11	30	62	120	50.875000	203.500000
203500	1000	12	11	30	74	80	50.875000	203.500000
203500	500	13	12	29	38	120	50.875000	203.500000
203500	500	14	13	30	38	120	50.875000	203.500000
203500	500	15	14	33	26	120	50.875000	203.500000
204000	2000	3	2	80	91	120	51.000000	204.000000
204000	2000	5	4	0	91	120	51.000000	204.000000
204000	500	10	9	16	36	100	51.000000	204.000000
204000	500	10	9	16	46	80	51.000000	204.000000
204000	500	13	12	29	38	120	51.000000	204.000000
204000	500	14	13	30	38	120	51.000000	204.000000
204000	500	15	14	33	26	120	51.000000	204.000000
204500	250	3	2	80	75	120	51.125000	204.500000
204500	500	5	4	0	81	120	51.125000	204.500000
204500	500	5	4	0	84	120	51.125000	204.500000
204500	250	9	8	9	87	90	51.125000	204.500000
204500	250	9	8	9	99	90	51.125000	204.500000
204500	500	10	9	16	36	100	51.125000	204.500000
204500	250	12	11	30	63	120	51.125000	204.500000
204500	250	12	11	30	75	80	51.125000	204.500000
204500	500	13	12	29	38	120	51.125000	204.500000
204500	500	14	13	30	38	120	51.125000	204.500000
204500	500	15	14	33	26	120	51.125000	204.500000
204750	250	3	2	80	74	120	51.187500	204.750000
204750	250	9	8	9	86	90	51.187500	204.750000
204750	250	9	8	9	98	90	51.187500	204.750000
204750	250	12	11	30	62	120	51.187500	204.750000
204750	250	12	11	30	74	80	51.187500	204.750000
205000	1000	3	2	80	72	120	51.250000	205.000000
205000	500	9	8	9	84	90	51.250000	205.000000
205000	500	9	8	9	96	90	51.250000	205.000000
205000	500	10	9	16	38	100	51.250000	205.000000
205000	500	10	9	16	46	80	51.250000	205.000000
205000	1000	12	11	30	60	120	51.250000	205.000000
205000	1000	12	11	30	72	80	51.250000	205.000000
205000	500	13	12	29	50	120	51.250000	205.000000
205000	500	14	13	30	50	120	51.250000	205.000000
205000	500	15	14	33	38	120	51.250000	205.000000
205500	500	10	9	16	36	100	51.375000	205.500000
205500	500	13	12	29	38	120	51.375000	205.500000
205500	500	14	13	30	38	120	51.375000	205.500000
205500	500	15	14	33	26	120	51.375000	205.500000
206000	1000	3	2	80	70	120	51.500000	206.000000
206000	2000	3	2	80	89	120	51.500000	206.000000
206000	500	5	4	0	82	120	51.500000	206.000000
206000	500	5	4	0	86	120	51.500000	206.000000
206000	2000	5	4	0	89	120	51.500000	206.000000
206000	500	9	8	9	82	90	51.500000	206.000000
206000	500	9	8	9	94	90	51.500000	206.000000
206000	500	10	9	16	36	100	51.500000	206.000000
206000	500	10	9	16	46	80	51.500000	206.000000
206000	1000	12	11	30	58	120	51.500000	206.000000
206000	1000	12	11	30	70	80	51.500000	206.000000
206000	500	13	12	29	38	120	51.500000	206.000000
206000	500	14	13	30	38	120	51.500000	206.000000
206000	500	15	14	33	26	120	51.500000	206.000000
206500	500	10	9	16	36	100	51.625000	206.500000
206500	500	13	12	29	50	120	51.625000	206.500000
206500	500	14	13	30	50	120	51.625000	206.500000
206500	500	15	14	33	38	120	51.625000	206.500000
207000	1000	3	2	80	65	120	51.750000	207.000000
207000	500	5	4	0	77	120	51.750000	207.000000
207000	500	5	4	0	82	120	51.750000	207.000000
207000	500	9	8	9	77	90	51.750000	207.000000
207000	500	9	8	9	89	90	51.750000	207.000000
207000	500	10	9	16	38	100	51.750000	207.000000
207000	500	10	9	16	46	80	51.750000	207.000000
207000	1000	12	11	30	53	120	51.750000	207.000000
207000	1000	12	11	30	65	80	51.750000	207.000000
207000	500	13	12	29	38	120	51.750000	207.000000
207000	500	14	13	30	38	120	51.750000	207.000000
207000	500	15	14	33	26	120	51.750000	207.000000
207500	500	10	9	16	36	100	51.875000	207.500000
207500	500	13	12	29	50	120	51.875000	207.500000
207500	500	14	13	30	50	120	51.875000	207.500000
207500	500	15	14	33	38	120	51.875000	207.500000
208000	8000	2	1	48	39	100	52.000000	208.000000
208000	8000	2	1	48	51	100	52.000000	208.000000
208000	8000	2	1	48	63	100	52.000000	208.000000
208000	8000	2	1	48	70	100	52.000000	208.000000
208000	8000	2	1	48	74	100	52.000000	208.000000
208000	8000	2	1	48	77	100	52.000000	208.000000
208000	8000	2	1	48	82	100	52.000000	208.000000
208000	1000	3	2	80	77	120	52.000000	208.000000
208000	250	3	2	80	82	120	52.000000	208.000000
208000	500	5	4	0	82	120	52.000000	208.000000
208000	500	5	4	0	86	120	52.000000	208.000000
208000	500	9	8	9	89	90	52.000000	208.000000
208000	500	9	8	9	101	90	52.000000	208.000000
208000	500	10	9	16	36	100	52.000000	208.000000
208000	500	10	9	16	46	80	52.000000	208.000000
208000	1000	12	11	30	65	120	52.000000	208.000000
208000	1000	12	11	30	77	80	52.000000	208.000000
208000	500	13	12	29	39	120	52.000000	208.000000
208000	500	14	13	30	39	120	52.000000	208.000000
208000	500	15	14	33	27	120	52.000000	208.000000
208500	500	10	9	16	36	100	52.125000	208.500000
208500	500	13	12	29	39	120	52.125000	208.500000
208500	500	14	13	30	39	120	52.125000	208.500000
208500	500	15	14	33	27	120	52.125000	208.500000
209000	1000	3	2	80	70	120	52.250000	209.000000
209000	250	3	2	80	82	120	52.250000	209.000000
209000	500	5	4	0	82	120	52.250000	209.000000
209000	500	9	8	9	82	90	52.250000	209.000000
209000	500	9	8	9	94	90	52.250000	209.000000
209000	500	10	9	16	38	100	52.250000	209.000000
209000	500	10	9	16	46	80	52.250000	209.000000
209000	1000	12	11	30	58	120	52.250000	209.000000
209000	1000	12	11	30	70	80	52.250000	209.000000
209000	500	13	12	29	51	120	52.250000	209.000000
209000	500	14	13	30	51	120	52.250000	209.000000
209000	500	15	14	33	39	120	52.250000	209.000000
209500	250	3	2	80	84	120	52.375000	209.500000
209500	500	5	4	0	81	120	52.375000	209.500000
209500	500	5	4	0	84	120	52.375000	209.500000
209500	500	10	9	16	36	100	52.375000	209.500000
209500	500	13	12	29	39	120	52.375000	209.500000
209500	500	14	13	30	39	120	52.375000	209.500000
209500	500	15	14	33	27	120	52.375000	209.500000
210000	1000	3	2	80	72	120	52.500000	210.000000
210000	500	3	2	80	86	120	52.500000	210.000000
210000	500	5	4	0	86	120	52.500000	210.000000
210000	500	9	8	9	84	90	52.500000	210.000000
210000	500	9	8	9	96	90	52.500000	210.000000
210000	500	10	9	16	36	100	52.500000	210.000000
210000	500	10	9	16	46	80	52.500000	210.000000
210000	1000	12	11	30	60	120	52.500000	210.000000
210000	1000	12	11	30	72	80	52.500000	210.000000
210000	500	13	12	29	39	120	52.500000	210.000000
210000	500	14	13	30	39	120	52.500000	210.000000
210000	500	15	14	33	27	120	52.500000	210.000000
210500	500	10	9	16	36	100	52.625000	210.500000
210500	500	13	12	29	51	120	52.625000	210.500000
210500	500	14	13	30	51	120	52.625000	210.500000
210500	500	15	14	33	39	120	52.625000	210.500000
211000	1000	3	2	80	70	120	52.750000	211.000000
211000	250	3	2	80	82	120	52.750000	211.000000
211000	500	5	4	0	77	120	52.750000	211.000000
211000	500	5	4	0	82	120	52.750000	211.000000
211000	500	9	8	9	82	90	52.750000	211.000000
211000	500	9	8	9	94	90	52.750000	211.000000
211000	500	10	9	16	38	100	52.750000	211.000000
211000	500	10	9	16	46	80	52.750000	211.000000
211000	1000	12	11	30	58	120	52.750000	211.000000
211000	1000	12	11	30	70	80	52.750000	211.000000
211000	500	13	12	29	39	120	52.750000	211.000000
211000	500	14	13	30	39	120	52.750000	211.000000
211000	500	15	14	33	27	120	52.750000	211.000000
211500	500	10	9	16	36	100	52.875000	211.500000
211500	500	13	12	29	39	120	52.875000	211.500000
211500	500	14	13	30	39	120	52.875000	211.500000
211500	500	15	14	33	27	120	52.875000	211.500000
212000	500	3	2	80	65	120	53.000000	212.000000
212000	500	3	2	80	84	120	53.000000	212.000000
212000	500	5	4	0	84	120	53.000000	212.000000
212000	500	9	8	9	77	90	53.000000	212.000000
212000	500	9	8	9	89	90	53.000000	212.000000
212000	500	10	9	16	36	100	53.000000	212.000000
212000	500	10	9	16	46	80	53.000000	212.000000
212000	500	12	11	30	53	120	53.000000	212.000000
212000	500	12	11	30	65	80	53.000000	212.000000
212000	500	13	12	29	39	120	53.000000	212.000000
212000	500	14	13	30	39	120	53.000000	212.000000
212000	500	15	14	33	27	120	53.000000	212.000000
212500	500	3	2	80	70	120	53.125000	212.500000
212500	250	3	2	80	82	120	53.125000	212.500000
212500	500	5	4	0	82	120	53.125000	212.500000
212500	500	5	4	0	86	120	53.125000	212.500000
212500	500	9	8	9	82	90	53.125000	212.500000
212500	500	9	8	9	94	90	53.125000	212.500000
212500	500	10	9	16	36	100	53.125000	212.500000
212500	500	12	11	30	58	120	53.125000	212.500000
212500	500	12	11	30	70	80	53.125000	212.500000
212500	500	13	12	29	51	120	53.125000	212.500000
212500	500	14	13	30	51	120	53.125000	212.500000
212500	500	15	14	33	39	120	53.125000	212.500000
213000	250	3	2	80	84	120	53.250000	213.000000
213000	500	5	4	0	84	120	53.250000	213.000000
213000	500	10	9	16	38	100	53.250000	213.000000
213000	500	10	9	16	46	80	53.250000	213.000000
213000	500	13	12	29	39	120	53.250000	213.000000
213000	500	14	13	30	39	120	53.250000	213.000000
213000	500	15	14	33	27	120	53.250000	213.000000
213500	1000	3	2	80	72	120	53.375000	213.500000
213500	250	3	2	80	86	120	53.375000	213.500000
213500	500	5	4	0	86	120	53.375000	213.500000
213500	500	9	8	9	84	90	53.375000	213.500000
213500	500	9	8	9	96	90	53.375000	213.500000
213500	500	10	9	16	36	100	53.375000	213.500000
213500	1000	12	11	30	60	120	53.375000	213.500000
213500	1000	12	11	30	72	80	53.375000	213.500000
213500	500	13	12	29	51	120	53.375000	213.500000
213500	500	14	13	30	51	120	53.375000	213.500000
213500	500	15	14	33	39	120	53.375000	213.500000
214000	250	3	2	80	84	120	53.500000	214.000000
214000	500	5	4	0	81	120	53.500000	214.000000
214000	500	5	4	0	84	120	53.500000	214.000000
214000	500	10	9	16	36	100	53.500000	214.000000
214000	500	10	9	16	46	80	53.500000	214.000000
214000	500	13	12	29	39	120	53.500000	214.000000
214000	500	14	13	30	39	120	53.500000	214.000000
214000	500	15	14	33	27	120	53.500000	214.000000
214500	250	3	2	80	74	120	53.625000	214.500000
214500	250	3	2	80	86	120	53.625000	214.500000
214500	250	5	4	0	86	120	53.625000	214.500000
214500	250	9	8	9	86	90	53.625000	214.500000
214500	250	9	8	9	98	90	53.625000	214.500000
214500	500	10	9	16	36	100	53.625000	214.500000
214500	250	12	11	30	62	120	53.625000	214.500000
214500	250	12	11	30	74	80	53.625000	214.500000
214500	500	13	12	29	51	120	53.625000	214.500000
214500	500	14	13	30	51	120	53.625000	214.500000
214500	500	15	14	33	39	120	53.625000	214.500000
214750	250	3	2	80	72	120	53.687500	214.750000
214750	250	3	2	80	84	120	53.687500	214.750000
214750	250	5	4	0	84	120	53.687500	214.750000
214750	250	9	8	9	84	90	53.687500	214.750000
214750	250	9	8	9	96	90	53.687500	214.750000
214750	250	12	11	30	60	120	53.687500	214.750000
214750	250	12	11	30	72	80	53.687500	214.750000
215000	1000	3	2	80	70	120	53.750000	215.000000
215000	500	3	2	80	82	120	53.750000	215.000000
215000	500	5	4	0	77	120	53.750000	215.000000
215000	500	5	4	0	82	120	53.750000	215.000000
215000	500	9	8	9	82	90	53.750000	215.000000
215000	500	9	8	9	94	90	53.750000	215.000000
215000	500	10	9	16	38	100	53.750000	215.000000
215000	500	10	9	16	46	80	53.750000	215.000000
215000	1000	12	11	30	58	120	53.750000	215.000000
215000	1000	12	11	30	70	80	53.750000	215.000000
215000	500	13	12	29	39	120	53.750000	215.000000
215000	500	14	13	30	39	120	53.750000	215.000000
215000	500	15	14	33	27	120	53.750000	215.000000
215500	500	10	9	16	36	100	53.875000	215.500000
215500	500	13	12	29	39	120	53.875000	215.500000
215500	500	14	13	30	39	120	53.875000	215.500000
215500	500	15	14	33	27	120	53.875000	215.500000
216000	4000	2	1	48	41	100	54.000000	216.000000
216000	4000	2	1	48	53	100	54.000000	216.000000
216000	4000	2	1	48	65	100	54.000000	216.000000
216000	4000	2	1	48	72	100	54.000000	216.000000
216000	4000	2	1	48	75	100	54.000000	216.000000
216000	4000	2	1	48	79	100	54.000000	216.000000
216000	4000	2	1	48	84	100	54.000000	216.000000
216000	1000	3	2	80	65	120	54.000000	216.000000
216000	250	3	2	80	86	120	54.000000	216.000000
216000	500	5	4	0	82	120	54.000000	216.000000
216000	500	5	4	0	86	120	54.000000	216.000000
216000	500	9	8	9	77	90	54.000000	216.000000
216000	500	9	8	9	89	90	54.000000	216.000000
216000	500	10	9	16	36	100	54.000000	216.000000
216000	500	10	9	16	46	80	54.000000	216.000000
216000	1000	12	11	30	53	120	54.000000	216.000000
216000	1000	12	11	30	65	100	54.000000	216.000000
216000	500	13	12	29	41	120	54.000000	216.000000
216000	500	14	13	30	41	120	54.000000	216.000000
216000	500	15	14	33	29	120	54.000000	216.000000
216500	500	10	9	16	36	100	54.125000	216.500000
216500	500	13	12	29	41	120	54.125000	216.500000
216500	500	14	13	30	41	120	54.125000	216.500000
216500	500	15	14	33	29	120	54.125000	216.500000
217000	1000	3	2	80	70	120	54.250000	217.000000
217000	250	3	2	80	86	120	54.250000	217.000000
217000	500	5	4	0	86	120	54.250000	217.000000
217000	500	9	8	9	82	90	54.250000	217.000000
217000	500	9	8	9	94	90	54.250000	217.000000
217000	500	10	9	16	38	100	54.250000	217.000000
217000	500	10	9	16	46	80	54.250000	217.000000
217000	1000	12	11	30	58	120	54.250000	217.000000
217000	1000	12	11	30	70	80	54.250000	217.000000
217000	500	13	12	29	53	120	54.250000	217.000000
217000	500	14	13	30	53	120	54.250000	217.000000
217000	500	15	14	33	41	120	54.250000	217.000000
217500	250	3	2	80	87	120	54.375000	217.500000
217500	500	5	4	0	81	120	54.375000	217.500000
217500	500	5	4	0	87	120	54.375000	217.500000
217500	500	10	9	16	36	100	54.375000	217.500000
217500	500	13	12	29	41	120	54.375000	217.500000
217500	500	14	13	30	41	120	54.375000	217.500000
217500	500	15	14	33	29	120	54.375000	217.500000
218000	500	3	2	80	72	120	54.500000	218.000000
218000	250	3	2	80	89	120	54.500000	218.000000
218000	500	5	4	0	89	120	54.500000	218.000000
218000	500	9	8	9	84	90	54.500000	218.000000
218000	500	9	8	9	96	90	54.500000	218.000000
218000	500	10	9	16	36	100	54.500000	218.000000
218000	500	10	9	16	46	80	54.500000	218.000000
218000	500	12	11	30	60	120	54.500000	218.000000
218000	500	12	11	30	72	80	54.500000	218.000000
218000	500	13	12	29	41	120	54.500000	218.000000
218000	500	14	13	30	41	120	54.500000	218.000000
218000	500	15	14	33	29	120	54.500000	218.000000
218500	500	3	2	80	75	120	54.625000	218.500000
218500	500	9	8	9	87	90	54.625000	218.500000
218500	500	9	8	9	99	90	54.625000	218.500000
218500	500	10	9	16	36	100	54.625000	218.500000
218500	500	12	11	30	63	120	54.625000	218.500000
218500	500	12	11	30	75	80	54.625000	218.500000
218500	500	13	12	29	53	120	54.625000	218.500000
218500	500	14	13	30	53	120	54.625000	218.500000
218500	500	15	14	33	41	120	54.625000	218.500000
219000	250	3	2	80	94	120	54.750000	219.000000
219000	500	5	4	0	77	120	54.750000	219.000000
219000	500	5	4	0	82	120	54.750000	219.000000
219000	500	5	4	0	84	120	54.750000	219.000000
219000	500	5	4	0	94	120	54.750000	219.000000
219000	500	10	9	16	38	100	54.750000	219.000000
219000	500	10	9	16	46	80	54.750000	219.000000
219000	500	13	12	29	41	120	54.750000	219.000000
219000	500	14	13	30	41	120	54.750000	219.000000
219000	500	15	14	33	29	120	54.750000	219.000000
219500	1000	3	2	80	74	120	54.875000	219.500000
219500	500	9	8	9	86	90	54.875000	219.500000
219500	500	9	8	9	98	90	54.875000	219.500000
219500	500	10	9	16	36	100	54.875000	219.500000
219500	1000	12	11	30	62	120	54.875000	219.500000
219500	1000	12	11	30	74	80	54.875000	219.500000
219500	500	13	12	29	41	120	54.875000	219.500000
219500	500	14	13	30	41	120	54.875000	219.500000
219500	500	15	14	33	29	120	54.875000	219.500000
220000	4000	2	1	48	43	100	55.000000	220.000000
220000	4000	2	1	48	55	100	55.000000	220.000000
220000	4000	2	1	48	67	100	55.000000	220.000000
220000	4000	2	1	48	70	100	55.000000	220.000000
220000	4000	2	1	48	74	100	55.000000	220.000000
220000	4000	2	1	48	77	100	55.000000	220.000000
220000	4000	2	1	48	82	100	55.000000	220.000000
220000	2000	3	2	80	91	120	55.000000	220.000000
220000	2000	5	4	0	91	120	55.000000	220.000000
220000	500	10	9	16	36	100	55.000000	220.000000
220000	500	10	9	16	46	80	55.000000	220.000000
220000	500	13	12	29	43	120	55.000000	220.000000
220000	500	14	13	30	43	120	55.000000	220.000000
220000	500	15	14	33	31	120	55.000000	220.000000
220500	250	3	2	80	75	120	55.125000	220.500000
220500	500	5	4	0	81	120	55.125000	220.500000
220500	500	5	4	0	84	120	55.125000	220.500000
220500	250	9	8	9	87	90	55.125000	220.500000
220500	250	9	8	9	99	90	55.125000	220.500000
220500	500	10	9	16	36	100	55.125000	220.500000
220500	250	12	11	30	63	120	55.125000	220.500000
220500	250	12	11	30	75	80	55.125000	220.500000
220500	500	13	12	29	55	120	55.125000	220.500000
220500	500	14	13	30	55	120	55.125000	220.500000
220500	500	15	14	33	43	120	55.125000	220.500000
220750	250	3	2	80	74	120	55.187500	220.750000
220750	250	9	8	9	86	90	55.187500	220.750000
220750	250	9	8	9	98	90	55.187500	220.750000
220750	250	12	11	30	62	120	55.187500	220.750000
220750	250	12	11	30	74	80	55.187500	220.750000
221000	1000	3	2	80	72	120	55.250000	221.000000
221000	500	9	8	9	84	90	55.250000	221.000000
221000	500	9	8	9	96	90	55.250000	221.000000
221000	500	10	9	16	38	100	55.250000	221.000000
221000	500	10	9	16	46	80	55.250000	221.000000
221000	1000	12	11	30	60	120	55.250000	221.000000
221000	1000	12	11	30	72	80	55.250000	221.000000
221000	500	13	12	29	43	120	55.250000	221.000000
221000	500	14	13	30	43	120	55.250000	221.000000
221000	500	15	14	33	31	120	55.250000	221.000000
221500	500	10	9	16	36	100	55.375000	221.500000
221500	500	13	12	29	55	120	55.375000	221.500000
221500	500	14	13	30	55	120	55.375000	221.500000
221500	500	15	14	33	43	120	55.375000	221.500000
222000	1000	3	2	80	70	120	55.500000	222.000000
222000	2000	3	2	80	82	120	55.500000	222.000000
222000	2000	5	4	0	82	120	55.500000	222.000000
222000	500	5	4	0	86	120	55.500000	222.000000
222000	500	9	8	9	82	90	55.500000	222.000000
222000	500	9	8	9	94	90	55.500000	222.000000
222000	500	10	9	16	36	100	55.500000	222.000000
222000	500	10	9	16	46	80	55.500000	222.000000
222000	1000	12	11	30	58	120	55.500000	222.000000
222000	1000	12	11	30	70	80	55.500000	222.000000
222000	500	13	12	29	43	120	55.500000	222.000000
222000	500	14	13	30	43	120	55.500000	222.000000
222000	500	15	14	33	31	120	55.500000	222.000000
222500	500	10	9	16	36	100	55.625000	222.500000
222500	500	13	12	29	55	120	55.625000	222.500000
222500	500	14	13	30	55	120	55.625000	222.500000
222500	500	15	14	33	43	120	55.625000	222.500000
223000	1000	3	2	80	65	120	55.750000	223.000000
223000	500	9	8	9	77	90	55.750000	223.000000
223000	500	9	8	9	89	90	55.750000	223.000000
223000	500	10	9	16	38	100	55.750000	223.000000
223000	500	10	9	16	46	80	55.750000	223.000000
223000	1000	12	11	30	53	120	55.750000	223.000000
223000	1000	12	11	30	65	80	55.750000	223.000000
223000	500	13	12	29	43	120	55.750000	223.000000
223000	500	14	13	30	43	120	55.750000	223.000000
223000	500	15	14	33	31	120	55.750000	223.000000
223500	500	10	9	16	36	100	55.875000	223.500000
223500	500	13	12	29	55	120	55.875000	223.500000
223500	500	14	13	30	55	120	55.875000	223.500000
223500	500	15	14	33	43	120	55.875000	223.500000
224000	8000	2	1	48	36	100	56.000000	224.000000
224000	500	3	2	80	70	120	56.000000	224.000000
224000	500	3	2	80	74	120	56.000000	224.000000
224000	500	5	4	0	46	120	56.000000	224.000000
224000	500	5	4	0	70	120	56.000000	224.000000
224000	500	5	4	0	82	120	56.000000	224.000000
224000	500	10	9	16	36	100	56.000000	224.000000
224000	500	10	9	16	46	80	56.000000	224.000000
224000	500	13	12	29	36	120	56.000000	224.000000
224000	500	14	13	30	36	120	56.000000	224.000000
224000	500	15	14	33	24	120	56.000000	224.000000
224500	500	10	9	16	36	100	56.125000	224.500000
224500	500	13	12	29	36	120	56.125000	224.500000
224500	500	14	13	30	36	120	56.125000	224.500000
224500	500	15	14	33	24	120	56.125000	224.500000
225000	500	3	2	80	70	120	56.250000	225.000000
225000	500	3	2	80	74	120	56.250000	225.000000
225000	500	5	4	0	50	120	56.250000	225.000000
225000	500	5	4	0	70	120	56.250000	225.000000
225000	500	5	4	0	82	120	56.250000	225.000000
225000	500	10	9	16	38	100	56.250000	225.000000
225000	500	10	9	16	46	80	56.250000	225.000000
225000	500	13	12	29	48	120	56.250000	225.000000
225000	500	14	13	30	48	120	56.250000	225.000000
225000	500	15	14	33	36	120	56.250000	225.000000
225500	500	3	2	80	72	120	56.375000	225.500000
225500	500	3	2	80	75	120	56.375000	225.500000
225500	500	5	4	0	72	120	56.375000	225.500000
225500	500	5	4	0	84	120	56.375000	225.500000
225500	500	10	9	16	36	100	56.375000	225.500000
225500	500	13	12	29	36	120	56.375000	225.500000
225500	500	14	13	30	36	120	56.375000	225.500000
225500	500	15	14	33	24	120	56.375000	225.500000
226000	500	3	2	80	74	120	56.500000	226.000000
226000	500	3	2	80	77	120	56.500000	226.000000
226000	500	5	4	0	43	120	56.500000	226.000000
226000	500	5	4	0	74	120	56.500000	226.000000
226000	500	5	4	0	86	120	56.500000	226.000000
226000	500	10	9	16	36	100	56.500000	226.000000
226000	500	10	9	16	46	80	56.500000	226.000000
226000	500	13	12	29	36	120	56.500000	226.000000
226000	500	14	13	30	36	120	56.500000	226.000000
226000	500	15	14	33	24	120	56.500000	226.000000
226500	500	10	9	16	36	100	56.625000	226.500000
226500	500	13	12	29	48	120	56.625000	226.500000
226500	500	14	13	30	48	120	56.625000	226.500000
226500	500	15	14	33	36	120	56.625000	226.500000
227000	500	3	2	80	70	120	56.750000	227.000000
227000	500	3	2	80	74	120	56.750000	227.000000
227000	500	5	4	0	50	120	56.750000	227.000000
227000	500	5	4	0	70	120	56.750000	227.000000
227000	500	5	4	0	82	120	56.750000	227.000000
227000	500	10	9	16	38	100	56.750000	227.000000
227000	500	10	9	16	46	80	56.750000	227.000000
227000	500	13	12	29	36	120	56.750000	227.000000
227000	500	14	13	30	36	120	56.750000	227.000000
227000	500	15	14	33	24	120	56.750000	227.000000
227500	500	10	9	16	36	100	56.875000	227.500000
227500	500	13	12	29	48	120	56.875000	227.500000
227500	500	14	13	30	48	120	56.875000	227.500000
227500	500	15	14	33	36	120	56.875000	227.500000
228000	500	3	2	80	72	120	57.000000	228.000000
228000	500	3	2	80	75	120	57.000000	228.000000
228000	500	5	4	0	48	120	57.000000	228.000000
228000	500	5	4	0	72	120	57.000000	228.000000
228000	500	5	4	0	84	120	57.000000	228.000000
228000	500	10	9	16	36	100	57.000000	228.000000
228000	500	10	9	16	46	80	57.000000	228.000000
228000	500	13	12	29	36	120	57.000000	228.000000
228000	500	14	13	30	36	120	57.000000	228.000000
228000	500	15	14	33	24	120	57.000000	228.000000
228500	500	10	9	16	36	100	57.125000	228.500000
228500	500	13	12	29	48	120	57.125000	228.500000
228500	500	14	13	30	48	120	57.125000	228.500000
228500	500	15	14	33	36	120	57.125000	228.500000
229000	500	3	2	80	72	120	57.250000	229.000000
229000	500	3	2	80	75	120	57.250000	229.000000
229000	500	5	4	0	50	120	57.250000	229.000000
229000	500	5	4	0	72	120	57.250000	229.000000
229000	500	5	4	0	84	120	57.250000	229.000000
229000	500	10	9	16	38	100	57.250000	229.000000
229000	500	10	9	16	46	80	57.250000	229.000000
229000	500	13	12	29	36	120	57.250000	229.000000
229000	500	14	13	30	36	120	57.250000	229.000000
229000	500	15	14	33	24	120	57.250000	229.000000
229500	500	3	2	80	74	120	57.375000	229.500000
229500	500	3	2	80	77	120	57.375000	229.500000
229500	500	5	4	0	74	120	57.375000	229.500000
229500	500	5	4	0	86	120	57.375000	229.500000
229500	500	10	9	16	36	100	57.375000	229.500000
229500	500	13	12	29	48	120	57.375000	229.500000
229500	500	14	13	30	48	120	57.375000	229.500000
229500	500	15	14	33	36	120	57.375000	229.500000
230000	500	3	2	80	72	120	57.500000	230.000000
230000	500	3	2	80	75	120	57.500000	230.000000
230000	500	5	4	0	43	120	57.500000	230.000000
230000	500	5	4	0	72	120	57.500000	230.000000
230000	500	5	4	0	84	120	57.500000	230.000000
230000	500	10	9	16	36	100	57.500000	230.000000
230000	500	10	9	16	46	80	57.500000	230.000000
230000	500	13	12	29	36	120	57.500000	230.000000
230000	500	14	13	30	36	120	57.500000	230.000000
230000	500	15	14	33	24	120	57.500000	230.000000
230500	500	10	9	16	36	100	57.625000	230.500000
230500	500	13	12	29	48	120	57.625000	230.500000
230500	500	14	13	30	48	120	57.625000	230.500000
230500	500	15	14	33	36	120	57.625000	230.500000
231000	500	3	2	80	70	120	57.750000	231.000000
231000	500	3	2	80	74	120	57.750000	231.000000
231000	500	5	4	0	50	120	57.750000	231.000000
231000	500	5	4	0	70	120	57.750000	231.000000
231000	500	5	4	0	82	120	57.750000	231.000000
231000	500	10	9	16	38	100	57.750000	231.000000
231000	500	10	9	16	46	80	57.750000	231.000000
231000	500	13	12	29	36	120	57.750000	231.000000
231000	500	14	13	30	36	120	57.750000	231.000000
231000	500	15	14	33	24	120	57.750000	231.000000
231500	500	10	9	16	36	100	57.875000	231.500000
231500	500	13	12	29	48	120	57.875000	231.500000
231500	500	14	13	30	48	120	57.875000	231.500000
231500	500	15	14	33	36	120	57.875000	231.500000
232000	8000	2	1	48	38	100	58.000000	232.000000
232000	500	3	2	80	74	120	58.000000	232.000000
232000	500	3	2	80	77	120	58.000000	232.000000
232000	500	5	4	0	50	120	58.000000	232.000000
232000	500	5	4	0	74	120	58.000000	232.000000
232000	500	5	4	0	86	120	58.000000	232.000000
232000	500	10	9	16	36	100	58.000000	232.000000
232000	500	10	9	16	46	80	58.000000	232.000000
232000	500	13	12	29	38	120	58.000000	232.000000
232000	500	14	13	30	38	120	58.000000	232.000000
232000	500	15	14	33	26	120	58.000000	232.000000
232500	500	10	9	16	36	100	58.125000	232.500000
232500	500	13	12	29	38	120	58.125000	232.500000
232500	500	14	13	30	38	120	58.125000	232.500000
232500	500	15	14	33	26	120	58.125000	232.500000
233000	500	3	2	80	74	120	58.250000	233.000000
233000	500	3	2	80	77	120	58.250000	233.000000
233000	500	5	4	0	53	120	58.250000	233.000000
233000	500	5	4	0	74	120	58.250000	233.000000
233000	500	5	4	0	86	120	58.250000	233.000000
233000	500	10	9	16	38	100	58.250000	233.000000
233000	500	10	9	16	46	80	58.250000	233.000000
233000	500	13	12	29	50	120	58.250000	233.000000
233000	500	14	13	30	50	120	58.250000	233.000000
233000	500	15	14	33	38	120	58.250000	233.000000
233500	500	3	2	80	75	120	58.375000	233.500000
233500	500	3	2	80	79	120	58.375000	233.500000
233500	500	5	4	0	75	120	58.375000	233.500000
233500	500	5	4	0	87	120	58.375000	233.500000
233500	500	10	9	16	36	100	58.375000	233.500000
233500	500	13	12	29	38	120	58.375000	233.500000
233500	500	14	13	30	38	120	58.375000	233.500000
233500	500	15	14	33	26	120	58.375000	233.500000
234000	500	3	2	80	77	120	58.500000	234.000000
234000	500	3	2	80	82	120	58.500000	234.000000
234000	500	5	4	0	45	120	58.500000	234.000000
234000	500	5	4	0	77	120	58.500000	234.000000
234000	500	5	4	0	89	120	58.500000	234.000000
234000	500	10	9	16	36	100	58.500000	234.000000
234000	500	10	9	16	46	80	58.500000	234.000000
234000	500	13	12	29	38	120	58.500000	234.000000
234000	500	14	13	30	38	120	58.500000	234.000000
234000	500	15	14	33	26	120	58.500000	234.000000
234500	500	10	9	16	36	100	58.625000	234.500000
234500	500	13	12	29	50	120	58.625000	234.500000
234500	500	14	13	30	50	120	58.625000	234.500000
234500	500	15	14	33	38	120	58.625000	234.500000
235000	500	3	2	80	82	120	58.750000	235.000000
235000	500	5	4	0	53	120	58.750000	235.000000
235000	500	5	4	0	82	120	58.750000	235.000000
235000	500	5	4	0	94	120	58.750000	235.000000
235000	500	10	9	16	38	100	58.750000	235.000000
235000	500	10	9	16	46	80	58.750000	235.000000
235000	500	13	12	29	38	120	58.750000	235.000000
235000	500	14	13	30	38	120	58.750000	235.000000
235000	500	15	14	33	26	120	58.750000	235.000000
235500	500	10	9	16	36	100	58.875000	235.500000
235500	500	13	12	29	50	120	58.875000	235.500000
235500	500	14	13	30	50	120	58.875000	235.500000
235500	500	15	14	33	38	120	58.875000	235.500000
236000	2000	3	2	80	79	120	59.000000	236.000000
236000	2000	3	2	80	82	120	59.000000	236.000000
236000	500	5	4	0	50	120	59.000000	236.000000
236000	2000	5	4	0	79	120	59.000000	236.000000
236000	2000	5	4	0	91	120	59.000000	236.000000
236000	500	10	9	16	36	100	59.000000	236.000000
236000	500	10	9	16	46	80	59.000000	236.000000
236000	500	13	12	29	38	120	59.000000	236.000000
236000	500	14	13	30	38	120	59.000000	236.000000
236000	500	15	14	33	26	120	59.000000	236.000000
236500	500	10	9	16	36	100	59.125000	236.500000
236500	500	13	12	29	38	120	59.125000	236.500000
236500	500	14	13	30	38	120	59.125000	236.500000
236500	500	15	14	33	26	120	59.125000	236.500000
237000	500	5	4	0	53	120	59.250000	237.000000
237000	500	10	9	16	38	100	59.250000	237.000000
237000	500	10	9	16	46	80	59.250000	237.000000
237000	500	13	12	29	50	120	59.250000	237.000000
237000	500	14	13	30	50	120	59.250000	237.000000
237000	500	15	14	33	38	120	59.250000	237.000000
237500	500	10	9	16	36	100	59.375000	237.500000
237500	500	13	12	29	38	120	59.375000	237.500000
237500	500	14	13	30	38	120	59.375000	237.500000
237500	500	15	14	33	26	120	59.375000	237.500000
238000	2000	3	2	80	77	120	59.500000	238.000000
238000	2000	3	2	80	84	120	59.500000	238.000000
238000	500	5	4	0	48	120	59.500000	238.000000
238000	2000	5	4	0	77	120	59.500000	238.000000
238000	2000	5	4	0	89	120	59.500000	238.000000
238000	500	10	9	16	36	100	59.500000	238.000000
238000	500	10	9	16	46	80	59.500000	238.000000
238000	500	13	12	29	38	120	59.500000	238.000000
238000	500	14	13	30	38	120	59.500000	238.000000
238000	500	15	14	33	26	120	59.500000	238.000000
238500	500	10	9	16	36	100	59.625000	238.500000
238500	500	13	12	29	50	120	59.625000	238.500000
238500	500	14	13	30	50	120	59.625000	238.500000
238500	500	15	14	33	38	120	59.625000	238.500000
239000	500	5	4	0	53	120	59.750000	239.000000
239000	500	10	9	16	38	100	59.750000	239.000000
239000	500	10	9	16	46	80	59.750000	239.000000
239000	500	13	12	29	38	120	59.750000	239.000000
239000	500	14	13	30	38	120	59.750000	239.000000
239000	500	15	14	33	26	120	59.750000	239.000000
239500	500	10	9	16	36	100	59.875000	239.500000
239500	500	13	12	29	50	120	59.875000	239.500000
239500	500	14	13	30	50	120	59.875000	239.500000
239500	500	15	14	33	38	120	59.875000	239.500000
240000	8000	2	1	48	39	100	60.000000	240.000000
240000	500	3	2	80	82	120	60.000000	240.000000
240000	500	3	2	80	86	120	60.000000	240.000000
240000	500	5	4	0	46	120	60.000000	240.000000
240000	500	5	4	0	70	120	60.000000	240.000000
240000	500	5	4	0	82	120	60.000000	240.000000
240000	500	10	9	16	36	100	60.000000	240.000000
240000	500	10	9	16	46	80	60.000000	240.000000
240000	500	13	12	29	39	120	60.000000	240.000000
240000	500	14	13	30	39	120	60.000000	240.000000
240000	500	15	14	33	27	120	60.000000	240.000000
240500	500	5	4	0	70	120	60.125000	240.500000
240500	500	5	4	0	82	120	60.125000	240.500000
240500	500	10	9	16	36	100	60.125000	240.500000
240500	500	13	12	29	39	120	60.125000	240.500000
240500	500	14	13	30	39	120	60.125000	240.500000
240500	500	15	14	33	27	120	60.125000	240.500000
241000	500	3	2	80	82	120	60.250000	241.000000
241000	500	3	2	80	86	120	60.250000	241.000000
241000	500	5	4	0	50	120	60.250000	241.000000
241000	500	5	4	0	70	120	60.250000	241.000000
241000	500	5	4	0	82	120	60.250000	241.000000
241000	500	10	9	16	38	100	60.250000	241.000000
241000	500	10	9	16	46	80	60.250000	241.000000
241000	500	13	12	29	51	120	60.250000	241.000000
241000	500	14	13	30	51	120	60.250000	241.000000
241000	500	15	14	33	39	120	60.250000	241.000000
241500	500	3	2	80	84	120	60.375000	241.500000
241500	500	3	2	80	87	120	60.375000	241.500000
241500	500	5	4	0	72	120	60.375000	241.500000
241500	500	5	4	0	84	120	60.375000	241.500000
241500	500	10	9	16	36	100	60.375000	241.500000
241500	500	13	12	29	39	120	60.375000	241.500000
241500	500	14	13	30	39	120	60.375000	241.500000
241500	500	15	14	33	27	120	60.375000	241.500000
242000	500	3	2	80	86	120	60.500000	242.000000
242000	500	3	2	80	89	120	60.500000	242.000000
242000	500	5	4	0	43	120	60.500000	242.000000
242000	500	5	4	0	74	120	60.500000	242.000000
242000	500	5	4	0	86	120	60.500000	242.000000
242000	500	10	9	16	36	100	60.500000	242.000000
242000	500	10	9	16	46	80	60.500000	242.000000
242000	500	13	12	29	39	120	60.500000	242.000000
242000	500	14	13	30	39	120	60.500000	242.000000
242000	500	15	14	33	27	120	60.500000	242.000000
242500	500	10	9	16	36	100	60.625000	242.500000
242500	500	13	12	29	51	120	60.625000	242.500000
242500	500	14	13	30	51	120	60.625000	242.500000
242500	500	15	14	33	39	120	60.625000	242.500000
243000	500	3	2	80	82	120	60.750000	243.000000
243000	500	3	2	80	86	120	60.750000	243.000000
243000	500	5	4	0	50	120	60.750000	243.000000
243000	500	5	4	0	70	120	60.750000	243.000000
243000	500	5	4	0	82	120	60.750000	243.000000
243000	500	10	9	16	38	100	60.750000	243.000000
243000	500	10	9	16	46	80	60.750000	243.000000
243000	500	13	12	29	39	120	60.750000	243.000000
243000	500	14	13	30	39	120	60.750000	243.000000
243000	500	15	14	33	27	120	60.750000	243.000000
243500	500	10	9	16	36	100	60.875000	243.500000
243500	500	13	12	29	51	120	60.875000	243.500000
243500	500	14	13	30	51	120	60.875000	243.500000
243500	500	15	14	33	39	120	60.875000	243.500000
244000	500	3	2	80	84	120	61.000000	244.000000
244000	500	3	2	80	87	120	61.000000	244.000000
244000	500	5	4	0	48	120	61.000000	244.000000
244000	500	5	4	0	72	120	61.000000	244.000000
244000	500	5	4	0	84	120	61.000000	244.000000
244000	500	10	9	16	36	100	61.000000	244.000000
244000	500	10	9	16	46	80	61.000000	244.000000
244000	500	13	12	29	39	120	61.000000	244.000000
244000	500	14	13	30	39	120	61.000000	244.000000
244000	500	15	14	33	27	120	61.000000	244.000000
244500	500	5	4	0	72	120	61.125000	244.500000
244500	500	5	4	0	84	120	61.125000	244.500000
244500	500	10	9	16	36	100	61.125000	244.500000
244500	500	13	12	29	51	120	61.125000	244.500000
244500	500	14	13	30	51	120	61.125000	244.500000
244500	500	15	14	33	39	120	61.125000	244.500000
245000	500	3	2	80	84	120	61.250000	245.000000
245000	500	3	2	80	87	120	61.250000	245.000000
245000	500	5	4	0	50	120	61.250000	245.000000
245000	500	5	4	0	72	120	61.250000	245.000000
245000	500	5	4	0	84	120	61.250000	245.000000
245000	500	10	9	16	38	100	61.250000	245.000000
245000	500	10	9	16	46	80	61.250000	245.000000
245000	500	13	12	29	39	120	61.250000	245.000000
245000	500	14	13	30	39	120	61.250000	245.000000
245000	500	15	14	33	27	120	61.250000	245.000000
245500	500	3	2	80	86	120	61.375000	245.500000
245500	500	3	2	80	89	120	61.375000	245.500000
245500	500	5	4	0	74	120	61.375000	245.500000
245500	500	5	4	0	86	120	61.375000	245.500000
245500	500	10	9	16	36	100	61.375000	245.500000
245500	500	13	12	29	51	120	61.375000	245.500000
245500	500	14	13	30	51	120	61.375000	245.500000
245500	500	15	14	33	39	120	61.375000	245.500000
246000	500	3	2	80	84	120	61.500000	246.000000
246000	500	3	2	80	87	120	61.500000	246.000000
246000	500	5	4	0	43	120	61.500000	246.000000
246000	500	5	4	0	72	120	61.500000	246.000000
246000	500	5	4	0	84	120	61.500000	246.000000
246000	500	10	9	16	36	100	61.500000	246.000000
246000	500	10	9	16	46	80	61.500000	246.000000
246000	500	13	12	29	39	120	61.500000	246.000000
246000	500	14	13	30	39	120	61.500000	246.000000
246000	500	15	14	33	27	120	61.500000	246.000000
246500	500	10	9	16	36	100	61.625000	246.500000
246500	500	13	12	29	51	120	61.625000	246.500000
246500	500	14	13	30	51	120	61.625000	246.500000
246500	500	15	14	33	39	120	61.625000	246.500000
247000	500	3	2	80	82	120	61.750000	247.000000
247000	500	3	2	80	86	120	61.750000	247.000000
247000	500	5	4	0	50	120	61.750000	247.000000
247000	500	5	4	0	70	120	61.750000	247.000000
247000	500	5	4	0	82	120	61.750000	247.000000
247000	500	10	9	16	38	100	61.750000	247.000000
247000	500	10	9	16	46	80	61.750000	247.000000
247000	500	13	12	29	39	120	61.750000	247.000000
247000	500	14	13	30	39	120	61.750000	247.000000
247000	500	15	14	33	27	120	61.750000	247.000000
247500	500	10	9	16	36	100	61.875000	247.500000
247500	500	13	12	29	51	120	61.875000	247.500000
247500	500	14	13	30	51	120	61.875000	247.500000
247500	500	15	14	33	39	120	61.875000	247.500000
248000	4000	2	1	48	41	100	62.000000	248.000000
248000	500	3	2	80	86	120	62.000000	248.000000
248000	500	3	2	80	89	120	62.000000	248.000000
248000	500	5	4	0	50	120	62.000000	248.000000
248000	500	5	4	0	74	120	62.000000	248.000000
248000	500	5	4	0	86	120	62.000000	248.000000
248000	500	10	9	16	36	100	62.000000	248.000000
248000	500	10	9	16	46	80	62.000000	248.000000
248000	500	13	12	29	41	120	62.000000	248.000000
248000	500	14	13	30	41	120	62.000000	248.000000
248000	500	15	14	33	29	120	62.000000	248.000000
248500	500	10	9	16	36	100	62.125000	248.500000
248500	500	13	12	29	41	120	62.125000	248.500000
248500	500	14	13	30	41	120	62.125000	248.500000
248500	500	15	14	33	29	120	62.125000	248.500000
249000	500	3	2	80	86	120	62.250000	249.000000
249000	500	3	2	80	89	120	62.250000	249.000000
249000	500	5	4	0	53	120	62.250000	249.000000
249000	500	5	4	0	74	120	62.250000	249.000000
249000	500	5	4	0	86	120	62.250000	249.000000
249000	500	10	9	16	38	100	62.250000	249.000000
249000	500	10	9	16	46	80	62.250000	249.000000
249000	500	13	12	29	53	120	62.250000	249.000000
249000	500	14	13	30	53	120	62.250000	249.000000
249000	500	15	14	33	41	120	62.250000	249.000000
249500	500	3	2	80	87	120	62.375000	249.500000
249500	500	3	2	80	91	120	62.375000	249.500000
249500	500	5	4	0	75	120	62.375000	249.500000
249500	500	5	4	0	87	120	62.375000	249.500000
249500	500	10	9	16	36	100	62.375000	249.500000
249500	500	13	12	29	41	120	62.375000	249.500000
249500	500	14	13	30	41	120	62.375000	249.500000
249500	500	15	14	33	29	120	62.375000	249.500000
250000	500	3	2	80	89	120	62.500000	250.000000
250000	500	3	2	80	94	120	62.500000	250.000000
250000	500	5	4	0	45	120	62.500000	250.000000
250000	500	5	4	0	77	120	62.500000	250.000000
250000	500	5	4	0	89	120	62.500000	250.000000
250000	500	10	9	16	36	100	62.500000	250.000000
250000	500	10	9	16	46	80	62.500000	250.000000
250000	500	13	12	29	41	120	62.500000	250.000000
250000	500	14	13	30	41	120	62.500000	250.000000
250000	500	15	14	33	29	120	62.500000	250.000000
250500	500	10	9	16	36	100	62.625000	250.500000
250500	500	13	12	29	53	120	62.625000	250.500000
250500	500	14	13	30	53	120	62.625000	250.500000
250500	500	15	14	33	41	120	62.625000	250.500000
251000	500	3	2	80	94	120	62.750000	251.000000
251000	500	5	4	0	53	120	62.750000	251.000000
251000	500	5	4	0	82	120	62.750000	251.000000
251000	500	5	4	0	94	120	62.750000	251.000000
251000	500	10	9	16	38	100	62.750000	251.000000
251000	500	10	9	16	46	80	62.750000	251.000000
251000	500	13	12	29	41	120	62.750000	251.000000
251000	500	14	13	30	41	120	62.750000	251.000000
251000	500	15	14	33	29	120	62.750000	251.000000
251500	500	10	9	16	36	100	62.875000	251.500000
251500	500	13	12	29	53	120	62.875000	251.500000
251500	500	14	13	30	53	120	62.875000	251.500000
251500	500	15	14	33	41	120	62.875000	251.500000
252000	4000	2	1	48	43	100	63.000000	252.000000
252000	2000	3	2	80	82	120	63.000000	252.000000
252000	2000	3	2	80	91	120	63.000000	252.000000
252000	500	5	4	0	50	120	63.000000	252.000000
252000	2000	5	4	0	79	120	63.000000	252.000000
252000	2000	5	4	0	91	120	63.000000	252.000000
252000	500	10	9	16	36	100	63.000000	252.000000
252000	500	10	9	16	46	80	63.000000	252.000000
252000	500	13	12	29	43	120	63.000000	252.000000
252000	500	14	13	30	43	120	63.000000	252.000000
252000	500	15	14	33	31	120	63.000000	252.000000
252500	500	10	9	16	36	100	63.125000	252.500000
252500	500	13	12	29	55	120	63.125000	252.500000
252500	500	14	13	30	55	120	63.125000	252.500000
252500	500	15	14	33	43	120	63.125000	252.500000
253000	500	5	4	0	53	120	63.250000	253.000000
253000	500	10	9	16	38	100	63.250000	253.000000
253000	500	10	9	16	46	80	63.250000	253.000000
253000	500	13	12	29	43	120	63.250000	253.000000
253000	500	14	13	30	43	120	63.250000	253.000000
253000	500	15	14	33	31	120	63.250000	253.000000
253500	500	10	9	16	36	100	63.375000	253.500000
253500	500	13	12	29	55	120	63.375000	253.500000
253500	500	14	13	30	55	120	63.375000	253.500000
253500	500	15	14	33	43	120	63.375000	253.500000
254000	2000	3	2	80	82	120	63.500000	254.000000
254000	2000	3	2	80	89	120	63.500000	254.000000
254000	500	5	4	0	50	120	63.500000	254.000000
254000	2000	5	4	0	77	120	63.500000	254.000000
254000	2000	5	4	0	89	120	63.500000	254.000000
254000	500	10	9	16	36	100	63.500000	254.000000
254000	500	10	9	16	46	80	63.500000	254.000000
254000	500	13	12	29	43	120	63.500000	254.000000
254000	500	14	13	30	43	120	63.500000	254.000000
254000	500	15	14	33	31	120	63.500000	254.000000
254500	500	10	9	16	36	100	63.625000	254.500000
254500	500	13	12	29	55	120	63.625000	254.500000
254500	500	14	13	30	55	120	63.625000	254.500000
254500	500	15	14	33	43	120	63.625000	254.500000
255000	500	5	4	0	53	120	63.750000	255.000000
255000	500	10	9	16	38	100	63.750000	255.000000
255000	500	10	9	16	46	80	63.750000	255.000000
255000	500	13	12	29	43	120	63.750000	255.000000
255000	500	14	13	30	43	120	63.750000	255.000000
255000	500	15	14	33	31	120	63.750000	255.000000
255500	500	10	9	16	36	100	63.875000	255.500000
255500	500	13	12	29	55	120	63.875000	255.500000
255500	500	14	13	30	55	120	63.875000	255.500000
255500	500	15	14	33	43	120	63.875000	255.500000
256000	8000	2	1	48	36	100	64.000000	256.000000
256000	8000	2	1	48	48	100	64.000000	256.000000
256000	8000	2	1	48	58	100	64.000000	256.000000
256000	8000	2	1	48	70	100	64.000000	256.000000
256000	8000	2	1	48	74	100	64.000000	256.000000
256000	8000	2	1	48	77	100	64.000000	256.000000
256000	8000	2	1	48	82	100	64.000000	256.000000
256000	500	3	2	80	70	120	64.000000	256.000000
256000	500	3	2	80	74	120	64.000000	256.000000
256000	500	5	4	0	46	120	64.000000	256.000000
256000	500	5	4	0	70	120	64.000000	256.000000
256000	500	5	4	0	82	120	64.000000	256.000000
256000	500	10	9	16	36	100	64.000000	256.000000
256000	500	10	9	16	46	80	64.000000	256.000000
256000	500	10	9	16	49	100	64.000000	256.000000
256000	500	13	12	29	36	120	64.000000	256.000000
256000	500	14	13	30	36	120	64.000000	256.000000
256000	500	15	14	33	24	120	64.000000	256.000000
256500	500	10	9	16	36	100	64.125000	256.500000
256500	500	13	12	29	36	120	64.125000	256.500000
256500	500	14	13	30	36	120	64.125000	256.500000
256500	500	15	14	33	24	120	64.125000	256.500000
257000	500	3	2	80	70	120	64.250000	257.000000
257000	500	3	2	80	74	120	64.250000	257.000000
257000	500	5	4	0	50	120	64.250000	257.000000
257000	500	5	4	0	70	120	64.250000	257.000000
257000	500	5	4	0	82	120	64.250000	257.000000
257000	500	10	9	16	38	100	64.250000	257.000000
257000	500	10	9	16	46	80	64.250000	257.000000
257000	500	13	12	29	48	120	64.250000	257.000000
257000	500	14	13	30	48	120	64.250000	257.000000
257000	500	15	14	33	36	120	64.250000	257.000000
257500	500	3	2	80	72	120	64.375000	257.500000
257500	500	3	2	80	75	120	64.375000	257.500000
257500	500	5	4	0	72	120	64.375000	257.500000
257500	500	5	4	0	84	120	64.375000	257.500000
257500	500	10	9	16	36	100	64.375000	257.500000
257500	500	13	12	29	36	120	64.375000	257.500000
257500	500	14	13	30	36	120	64.375000	257.500000
257500	500	15	14	33	24	120	64.375000	257.500000
258000	500	3	2	80	74	120	64.500000	258.000000
258000	500	3	2	80	77	120	64.500000	258.000000
258000	500	5	4	0	43	120	64.500000	258.000000
258000	500	5	4	0	74	120	64.500000	258.000000
258000	500	5	4	0	86	120	64.500000	258.000000
258000	500	10	9	16	36	100	64.500000	258.000000
258000	500	10	9	16	46	80	64.500000	258.000000
258000	500	13	12	29	36	120	64.500000	258.000000
258000	500	14	13	30	36	120	64.500000	258.000000
258000	500	15	14	33	24	120	64.500000	258.000000
258500	500	10	9	16	36	100	64.625000	258.500000
258500	500	13	12	29	48	120	64.625000	258.500000
258500	500	14	13	30	48	120	64.625000	258.500000
258500	500	15	14	33	36	120	64.625000	258.500000
259000	500	3	2	80	70	120	64.750000	259.000000
259000	500	3	2	80	74	120	64.750000	259.000000
259000	500	5	4	0	50	120	64.750000	259.000000
259000	500	5	4	0	70	120	64.750000	259.000000
259000	500	5	4	0	82	120	64.750000	259.000000
259000	500	10	9	16	38	100	64.750000	259.000000
259000	500	10	9	16	46	80	64.750000	259.000000
259000	500	13	12	29	36	120	64.750000	259.000000
259000	500	14	13	30	36	120	64.750000	259.000000
259000	500	15	14	33	24	120	64.750000	259.000000
259500	500	10	9	16	36	100	64.875000	259.500000
259500	500	13	12	29	48	120	64.875000	259.500000
259500	500	14	13	30	48	120	64.875000	259.500000
259500	500	15	14	33	36	120	64.875000	259.500000
260000	500	3	2	80	72	120	65.000000	260.000000
260000	500	3	2	80	75	120	65.000000	260.000000
260000	500	5	4	0	48	120	65.000000	260.000000
260000	500	5	4	0	72	120	65.000000	260.000000
260000	500	5	4	0	84	120	65.000000	260.000000
260000	500	10	9	16	36	100	65.000000	260.000000
260000	500	10	9	16	46	80	65.000000	260.000000
260000	500	13	12	29	36	120	65.000000	260.000000
260000	500	14	13	30	36	120	65.000000	260.000000
260000	500	15	14	33	24	120	65.000000	260.000000
260500	500	10	9	16	36	100	65.125000	260.500000
260500	500	13	12	29	48	120	65.125000	260.500000
260500	500	14	13	30	48	120	65.125000	260.500000
260500	500	15	14	33	36	120	65.125000	260.500000
261000	500	3	2	80	72	120	65.250000	261.000000
261000	500	3	2	80	75	120	65.250000	261.000000
261000	500	5	4	0	50	120	65.250000	261.000000
261000	500	5	4	0	72	120	65.250000	261.000000
261000	500	5	4	0	84	120	65.250000	261.000000
261000	500	10	9	16	38	100	65.250000	261.000000
261000	500	10	9	16	46	80	65.250000	261.000000
261000	500	13	12	29	36	120	65.250000	261.000000
261000	500	14	13	30	36	120	65.250000	261.000000
261000	500	15	14	33	24	120	65.250000	261.000000
261500	500	3	2	80	74	120	65.375000	261.500000
261500	500	3	2	80	77	120	65.375000	261.500000
261500	500	5	4	0	74	120	65.375000	261.500000
261500	500	5	4	0	86	120	65.375000	261.500000
261500	500	10	9	16	36	100	65.375000	261.500000
261500	500	13	12	29	48	120	65.375000	261.500000
261500	500	14	13	30	48	120	65.375000	261.500000
261500	500	15	14	33	36	120	65.375000	261.500000
262000	500	3	2	80	72	120	65.500000	262.000000
262000	500	3	2	80	75	120	65.500000	262.000000
262000	500	5	4	0	43	120	65.500000	262.000000
262000	500	5	4	0	72	120	65.500000	262.000000
262000	500	5	4	0	84	120	65.500000	262.000000
262000	500	10	9	16	36	100	65.500000	262.000000
262000	500	10	9	16	46	80	65.500000	262.000000
262000	500	13	12	29	36	120	65.500000	262.000000
262000	500	14	13	30	36	120	65.500000	262.000000
262000	500	15	14	33	24	120	65.500000	262.000000
262500	500	10	9	16	36	100	65.625000	262.500000
262500	500	13	12	29	48	120	65.625000	262.500000
262500	500	14	13	30	48	120	65.625000	262.500000
262500	500	15	14	33	36	120	65.625000	262.500000
263000	500	3	2	80	70	120	65.750000	263.000000
263000	500	3	2	80	74	120	65.750000	263.000000
263000	500	5	4	0	50	120	65.750000	263.000000
263000	500	5	4	0	70	120	65.750000	263.000000
263000	500	5	4	0	82	120	65.750000	263.000000
263000	500	10	9	16	38	100	65.750000	263.000000
263000	500	10	9	16	46	80	65.750000	263.000000
263000	500	13	12	29	36	120	65.750000	263.000000
263000	500	14	13	30	36	120	65.750000	263.000000
263000	500	15	14	33	24	120	65.750000	263.000000
263500	500	10	9	16	36	100	65.875000	263.500000
263500	500	13	12	29	48	120	65.875000	263.500000
263500	500	14	13	30	48	120	65.875000	263.500000
263500	500	15	14	33	36	120	65.875000	263.500000
264000	8000	2	1	48	38	100	66.000000	264.000000
264000	8000	2	1	48	50	100	66.000000	264.000000
264000	8000	2	1	48	60	100	66.000000	264.000000
264000	8000	2	1	48	72	100	66.000000	264.000000
264000	8000	2	1	48	75	100	66.000000	264.000000
264000	8000	2	1	48	79	100	66.000000	264.000000
264000	8000	2	1	48	84	100	66.000000	264.000000
264000	500	3	2	80	74	120	66.000000	264.000000
264000	500	3	2	80	77	120	66.000000	264.000000
264000	500	5	4	0	50	120	66.000000	264.000000
264000	500	5	4	0	74	120	66.000000	264.000000
264000	500	5	4	0	86	120	66.000000	264.000000
264000	500	10	9	16	36	100	66.000000	264.000000
264000	500	10	9	16	46	80	66.000000	264.000000
264000	500	13	12	29	38	120	66.000000	264.000000
264000	500	14	13	30	38	120	66.000000	264.000000
264000	500	15	14	33	26	120	66.000000	264.000000
264500	500	10	9	16	36	100	66.125000	264.500000
264500	500	13	12	29	38	120	66.125000	264.500000
264500	500	14	13	30	38	120	66.125000	264.500000
264500	500	15	14	33	26	120	66.125000	264.500000
265000	500	3	2	80	74	120	66.250000	265.000000
265000	500	3	2	80	77	120	66.250000	265.000000
265000	500	5	4	0	53	120	66.250000	265.000000
265000	500	5	4	0	74	120	66.250000	265.000000
265000	500	5	4	0	86	120	66.250000	265.000000
265000	500	10	9	16	38	100	66.250000	265.000000
265000	500	10	9	16	46	80	66.250000	265.000000
265000	500	13	12	29	50	120	66.250000	265.000000
265000	500	14	13	30	50	120	66.250000	265.000000
265000	500	15	14	33	38	120	66.250000	265.000000
265500	500	3	2	80	75	120	66.375000	265.500000
265500	500	3	2	80	79	120	66.375000	265.500000
265500	500	5	4	0	75	120	66.375000	265.500000
265500	500	5	4	0	87	120	66.375000	265.500000
265500	500	10	9	16	36	100	66.375000	265.500000
265500	500	13	12	29	38	120	66.375000	265.500000
265500	500	14	13	30	38	120	66.375000	265.500000
265500	500	15	14	33	26	120	66.375000	265.500000
266000	500	3	2	80	77	120	66.500000	266.000000
266000	500	3	2	80	82	120	66.500000	266.000000
266000	500	5	4	0	45	120	66.500000	266.000000
266000	500	5	4	0	77	120	66.500000	266.000000
266000	500	5	4	0	89	120	66.500000	266.000000
266000	500	10	9	16	36	100	66.500000	266.000000
266000	500	10	9	16	46	80	66.500000	266.000000
266000	500	13	12	29	38	120	66.500000	266.000000
266000	500	14	13	30	38	120	66.500000	266.000000
266000	500	15	14	33	26	120	66.500000	266.000000
266500	500	10	9	16	36	100	66.625000	266.500000
266500	500	13	12	29	50	120	66.625000	266.500000
266500	500	14	13	30	50	120	66.625000	266.500000
266500	500	15	14	33	38	120	66.625000	266.500000
267000	500	3	2	80	82	120	66.750000	267.000000
267000	500	5	4	0	53	120	66.750000	267.000000
267000	500	5	4	0	82	120	66.750000	267.000000
267000	500	5	4	0	94	120	66.750000	267.000000
267000	500	10	9	16	38	100	66.750000	267.000000
267000	500	10	9	16	46	80	66.750000	267.000000
267000	500	13	12	29	38	120	66.750000	267.000000
267000	500	14	13	30	38	120	66.750000	267.000000
267000	500	15	14	33	26	120	66.750000	267.000000
267500	500	10	9	16	36	100	66.875000	267.500000
267500	500	13	12	29	50	120	66.875000	267.500000
267500	500	14	13	30	50	120	66.875000	267.500000
267500	500	15	14	33	38	120	66.875000	267.500000
268000	2000	3	2	80	79	120	67.000000	268.000000
268000	2000	3	2	80	82	120	67.000000	268.000000
268000	500	5	4	0	50	120	67.000000	268.000000
268000	2000	5	4	0	79	120	67.000000	268.000000
268000	2000	5	4	0	91	120	67.000000	268.000000
268000	500	10	9	16	36	100	67.000000	268.000000
268000	500	10	9	16	46	80	67.000000	268.000000
268000	500	13	12	29	38	120	67.000000	268.000000
268000	500	14	13	30	38	120	67.000000	268.000000
268000	500	15	14	33	26	120	67.000000	268.000000
268500	500	10	9	16	36	100	67.125000	268.500000
268500	500	13	12	29	38	120	67.125000	268.500000
268500	500	14	13	30	38	120	67.125000	268.500000
268500	500	15	14	33	26	120	67.125000	268.500000
269000	500	5	4	0	53	120	67.250000	269.000000
269000	500	10	9	16	38	100	67.250000	269.000000
269000	500	10	9	16	46	80	67.250000	269.000000
269000	500	13	12	29	50	120	67.250000	269.000000
269000	500	14	13	30	50	120	67.250000	269.000000
269000	500	15	14	33	38	120	67.250000	269.000000
269500	500	10	9	16	36	100	67.375000	269.500000
269500	500	13	12	29	38	120	67.375000	269.500000
269500	500	14	13	30	38	120	67.375000	269.500000
269500	500	15	14	33	26	120	67.375000	269.500000
270000	2000	3	2	80	77	120	67.500000	270.000000
270000	2000	3	2	80	84	120	67.500000	270.000000
270000	500	5	4	0	48	120	67.500000	270.000000
270000	2000	5	4	0	77	120	67.500000	270.000000
270000	2000	5	4	0	89	120	67.500000	270.000000
270000	500	10	9	16	36	100	67.500000	270.000000
270000	500	10	9	16	46	80	67.500000	270.000000
270000	500	13	12	29	38	120	67.500000	270.000000
270000	500	14	13	30	38	120	67.500000	270.000000
270000	500	15	14	33	26	120	67.500000	270.000000
270500	500	10	9	16	36	100	67.625000	270.500000
270500	500	13	12	29	50	120	67.625000	270.500000
270500	500	14	13	30	50	120	67.625000	270.500000
270500	500	15	14	33	38	120	67.625000	270.500000
271000	500	5	4	0	53	120	67.750000	271.000000
271000	500	10	9	16	38	100	67.750000	271.000000
271000	500	10	9	16	46	80	67.750000	271.000000
271000	500	13	12	29	38	120	67.750000	271.000000
271000	500	14	13	30	38	120	67.750000	271.000000
271000	500	15	14	33	26	120	67.750000	271.000000
271500	500	10	9	16	36	100	67.875000	271.500000
271500	500	13	12	29	50	120	67.875000	271.500000
271500	500	14	13	30	50	120	67.875000	271.500000
271500	500	15	14	33	38	120	67.875000	271.500000
272000	8000	2	1	48	39	100	68.000000	272.000000
272000	8000	2	1	48	51	100	68.000000	272.000000
272000	8000	2	1	48	55	100	68.000000	272.000000
272000	8000	2	1	48	62	100	68.000000	272.000000
272000	8000	2	1	48	74	100	68.000000	272.000000
272000	8000	2	1	48	77	100	68.000000	272.000000
272000	8000	2	1	48	82	100	68.000000	272.000000
272000	8000	2	1	48	86	100	68.000000	272.000000
272000	500	3	2	80	82	120	68.000000	272.000000
272000	500	3	2	80	86	120	68.000000	272.000000
272000	500	5	4	0	46	120	68.000000	272.000000
272000	500	5	4	0	70	120	68.000000	272.000000
272000	500	5	4	0	82	120	68.000000	272.000000
272000	500	10	9	16	36	100	68.000000	272.000000
272000	500	10	9	16	46	80	68.000000	272.000000
272000	500	13	12	29	39	120	68.000000	272.000000
272000	500	14	13	30	39	120	68.000000	272.000000
272000	500	15	14	33	27	120	68.000000	272.000000
272500	500	5	4	0	70	120	68.125000	272.500000
272500	500	5	4	0	82	120	68.125000	272.500000
272500	500	10	9	16	36	100	68.125000	272.500000
272500	500	13	12	29	39	120	68.125000	272.500000
272500	500	14	13	30	39	120	68.125000	272.500000
272500	500	15	14	33	27	120	68.125000	272.500000
273000	500	3	2	80	82	120	68.250000	273.000000
273000	500	3	2	80	86	120	68.250000	273.000000
273000	500	5	4	0	50	120	68.250000	273.000000
273000	500	5	4	0	70	120	68.250000	273.000000
273000	500	5	4	0	82	120	68.250000	273.000000
273000	500	10	9	16	38	100	68.250000	273.000000
273000	500	10	9	16	46	80	68.250000	273.000000
273000	500	13	12	29	51	120	68.250000	273.000000
273000	500	14	13	30	51	120	68.250000	273.000000
273000	500	15	14	33	39	120	68.250000	273.000000
273500	500	3	2	80	84	120	68.375000	273.500000
273500	500	3	2	80	87	120	68.375000	273.500000
273500	500	5	4	0	72	120	68.375000	273.500000
273500	500	5	4	0	84	120	68.375000	273.500000
273500	500	10	9	16	36	100	68.375000	273.500000
273500	500	13	12	29	39	120	68.375000	273.500000
273500	500	14	13	30	39	120	68.375000	273.500000
273500	500	15	14	33	27	120	68.375000	273.500000
274000	500	3	2	80	86	120	68.500000	274.000000
274000	500	3	2	80	89	120	68.500000	274.000000
274000	500	5	4	0	43	120	68.500000	274.000000
274000	500	5	4	0	74	120	68.500000	274.000000
274000	500	5	4	0	86	120	68.500000	274.000000
274000	500	10	9	16	36	100	68.500000	274.000000
274000	500	10	9	16	46	80	68.500000	274.000000
274000	500	13	12	29	39	120	68.500000	274.000000
274000	500	14	13	30	39	120	68.500000	274.000000
274000	500	15	14	33	27	120	68.500000	274.000000
274500	500	10	9	16	36	100	68.625000	274.500000
274500	500	13	12	29	51	120	68.625000	274.500000
274500	500	14	13	30	51	120	68.625000	274.500000
274500	500	15	14	33	39	120	68.625000	274.500000
275000	500	3	2	80	82	120	68.750000	275.000000
275000	500	3	2	80	86	120	68.750000	275.000000
275000	500	5	4	0	50	120	68.750000	275.000000
275000	500	5	4	0	70	120	68.750000	275.000000
275000	500	5	4	0	82	120	68.750000	275.000000
275000	500	10	9	16	38	100	68.750000	275.000000
275000	500	10	9	16	46	80	68.750000	275.000000
275000	500	13	12	29	39	120	68.750000	275.000000
275000	500	14	13	30	39	120	68.750000	275.000000
275000	500	15	14	33	27	120	68.750000	275.000000
275500	500	10	9	16	36	100	68.875000	275.500000
275500	500	13	12	29	51	120	68.875000	275.500000
275500	500	14	13	30	51	120	68.875000	275.500000
275500	500	15	14	33	39	120	68.875000	275.500000
276000	500	3	2	80	84	120	69.000000	276.000000
276000	500	3	2	80	87	120	69.000000	276.000000
276000	500	5	4	0	48	120	69.000000	276.000000
276000	500	5	4	0	72	120	69.000000	276.000000
276000	500	5	4	0	84	120	69.000000	276.000000
276000	500	10	9	16	36	100	69.000000	276.000000
276000	500	10	9	16	46	80	69.000000	276.000000
276000	500	13	12	29	39	120	69.000000	276.000000
276000	500	14	13	30	39	120	69.000000	276.000000
276000	500	15	14	33	27	120	69.000000	276.000000
276500	500	5	4	0	72	120	69.125000	276.500000
276500	500	5	4	0	84	120	69.125000	276.500000
276500	500	10	9	16	36	100	69.125000	276.500000
276500	500	13	12	29	51	120	69.125000	276.500000
276500	500	14	13	30	51	120	69.125000	276.500000
276500	500	15	14	33	39	120	69.125000	276.500000
277000	500	3	2	80	84	120	69.250000	277.000000
277000	500	3	2	80	87	120	69.250000	277.000000
277000	500	5	4	0	50	120	69.250000	277.000000
277000	500	5	4	0	72	120	69.250000	277.000000
277000	500	5	4	0	84	120	69.250000	277.000000
277000	500	10	9	16	38	100	69.250000	277.000000
277000	500	10	9	16	46	80	69.250000	277.000000
277000	500	13	12	29	39	120	69.250000	277.000000
277000	500	14	13	30	39	120	69.250000	277.000000
277000	500	15	14	33	27	120	69.250000	277.000000
277500	500	3	2	80	86	120	69.375000	277.500000
277500	500	3	2	80	89	120	69.375000	277.500000
277500	500	5	4	0	74	120	69.375000	277.500000
277500	500	5	4	0	86	120	69.375000	277.500000
277500	500	10	9	16	36	100	69.375000	277.500000
277500	500	13	12	29	51	120	69.375000	277.500000
277500	500	14	13	30	51	120	69.375000	277.500000
277500	500	15	14	33	39	120	69.375000	277.500000
278000	500	3	2	80	84	120	69.500000	278.000000
278000	500	3	2	80	87	120	69.500000	278.000000
278000	500	5	4	0	43	120	69.500000	278.000000
278000	500	5	4	0	72	120	69.500000	278.000000
278000	500	5	4	0	84	120	69.500000	278.000000
278000	500	10	9	16	36	100	69.500000	278.000000
278000	500	10	9	16	46	80	69.500000	278.000000
278000	500	13	12	29	39	120	69.500000	278.000000
278000	500	14	13	30	39	120	69.500000	278.000000
278000	500	15	14	33	27	120	69.500000	278.000000
278500	500	10	9	16	36	100	69.625000	278.500000
278500	500	13	12	29	51	120	69.625000	278.500000
278500	500	14	13	30	51	120	69.625000	278.500000
278500	500	15	14	33	39	120	69.625000	278.500000
279000	500	3	2	80	82	120	69.750000	279.000000
279000	500	3	2	80	86	120	69.750000	279.000000
279000	500	5	4	0	50	120	69.750000	279.000000
279000	500	5	4	0	70	120	69.750000	279.000000
279000	500	5	4	0	82	120	69.750000	279.000000
279000	500	10	9	16	38	100	69.750000	279.000000
279000	500	10	9	16	46	80	69.750000	279.000000
279000	500	13	12	29	39	120	69.750000	279.000000
279000	500	14	13	30	39	120	69.750000	279.000000
279000	500	15	14	33	27	120	69.750000	279.000000
279500	500	10	9	16	36	100	69.875000	279.500000
279500	500	13	12	29	51	120	69.875000	279.500000
279500	500	14	13	30	51	120	69.875000	279.500000
279500	500	15	14	33	39	120	69.875000	279.500000
280000	4000	2	1	48	41	100	70.000000	280.000000
280000	4000	2	1	48	53	100	70.000000	280.000000
280000	4000	2	1	48	57	100	70.000000	280.000000
280000	4000	2	1	48	63	100	70.000000	280.000000
280000	4000	2	1	48	75	100	70.000000	280.000000
280000	4000	2	1	48	79	100	70.000000	280.000000
280000	4000	2	1	48	84	100	70.000000	280.000000
280000	4000	2	1	48	87	100	70.000000	280.000000
280000	500	3	2	80	86	120	70.000000	280.000000
280000	500	3	2	80	89	120	70.000000	280.000000
280000	500	5	4	0	50	120	70.000000	280.000000
280000	500	5	4	0	74	120	70.000000	280.000000
280000	500	5	4	0	86	120	70.000000	280.000000
280000	500	10	9	16	36	100	70.000000	280.000000
280000	500	10	9	16	46	80	70.000000	280.000000
280000	500	13	12	29	41	120	70.000000	280.000000
280000	500	14	13	30	41	120	70.000000	280.000000
280000	500	15	14	33	29	120	70.000000	280.000000
280500	500	10	9	16	36	100	70.125000	280.500000
280500	500	13	12	29	41	120	70.125000	280.500000
280500	500	14	13	30	41	120	70.125000	280.500000
280500	500	15	14	33	29	120	70.125000	280.500000
281000	500	3	2	80	86	120	70.250000	281.000000
281000	500	3	2	80	89	120	70.250000	281.000000
281000	500	5	4	0	53	120	70.250000	281.000000
281000	500	5	4	0	74	120	70.250000	281.000000
281000	500	5	4	0	86	120	70.250000	281.000000
281000	500	10	9	16	38	100	70.250000	281.000000
281000	500	10	9	16	46	80	70.250000	281.000000
281000	500	13	12	29	53	120	70.250000	281.000000
281000	500	14	13	30	53	120	70.250000	281.000000
281000	500	15	14	33	41	120	70.250000	281.000000
281500	500	3	2	80	87	120	70.375000	281.500000
281500	500	3	2	80	91	120	70.375000	281.500000
281500	500	5	4	0	75	120	70.375000	281.500000
281500	500	5	4	0	87	120	70.375000	281.500000
281500	500	10	9	16	36	100	70.375000	281.500000
281500	500	13	12	29	41	120	70.375000	281.500000
281500	500	14	13	30	41	120	70.375000	281.500000
281500	500	15	14	33	29	120	70.375000	281.500000
282000	500	3	2	80	89	120	70.500000	282.000000
282000	500	3	2	80	94	120	70.500000	282.000000
282000	500	5	4	0	45	120	70.500000	282.000000
282000	500	5	4	0	77	120	70.500000	282.000000
282000	500	5	4	0	89	120	70.500000	282.000000
282000	500	10	9	16	36	100	70.500000	282.000000
282000	500	10	9	16	46	80	70.500000	282.000000
282000	500	13	12	29	41	120	70.500000	282.000000
282000	500	14	13	30	41	120	70.500000	282.000000
282000	500	15	14	33	29	120	70.500000	282.000000
282500	500	10	9	16	36	100	70.625000	282.500000
282500	500	13	12	29	53	120	70.625000	282.500000
282500	500	14	13	30	53	120	70.625000	282.500000
282500	500	15	14	33	41	120	70.625000	282.500000
283000	500	3	2	80	94	120	70.750000	283.000000
283000	500	5	4	0	53	120	70.750000	283.000000
283000	500	5	4	0	82	120	70.750000	283.000000
283000	500	5	4	0	94	120	70.750000	283.000000
283000	500	10	9	16	38	100	70.750000	283.000000
283000	500	10	9	16	46	80	70.750000	283.000000
283000	500	13	12	29	41	120	70.750000	283.000000
283000	500	14	13	30	41	120	70.750000	283.000000
283000	500	15	14	33	29	120	70.750000	283.000000
283500	500	10	9	16	36	100	70.875000	283.500000
283500	500	13	12	29	53	120	70.875000	283.500000
283500	500	14	13	30	53	120	70.875000	283.500000
283500	500	15	14	33	41	120	70.875000	283.500000
284000	4000	2	1	48	43	100	71.000000	284.000000
284000	4000	2	1	48	55	100	71.000000	284.000000
284000	4000	2	1	48	58	100	71.000000	284.000000
284000	4000	2	1	48	67	100	71.000000	284.000000
284000	4000	2	1	48	74	100	71.000000	284.000000
284000	4000	2	1	48	77	100	71.000000	284.000000
284000	4000	2	1	48	82	100	71.000000	284.000000
284000	4000	2	1	48	86	100	71.000000	284.000000
284000	2000	3	2	80	82	120	71.000000	284.000000
284000	2000	3	2	80	91	120	71.000000	284.000000
284000	500	5	4	0	50	120	71.000000	284.000000
284000	2000	5	4	0	79	120	71.000000	284.000000
284000	2000	5	4	0	91	120	71.000000	284.000000
284000	500	10	9	16	36	100	71.000000	284.000000
284000	500	10	9	16	46	80	71.000000	284.000000
284000	500	13	12	29	43	120	71.000000	284.000000
284000	500	14	13	30	43	120	71.000000	284.000000
284000	500	15	14	33	31	120	71.000000	284.000000
284500	500	10	9	16	36	100	71.125000	284.500000
284500	500	13	12	29	55	120	71.125000	284.500000
284500	500	14	13	30	55	120	71.125000	284.500000
284500	500	15	14	33	43	120	71.125000	284.500000
285000	500	5	4	0	53	120	71.250000	285.000000
285000	500	10	9	16	38	100	71.250000	285.000000
285000	500	10	9	16	46	80	71.250000	285.000000
285000	500	13	12	29	43	120	71.250000	285.000000
285000	500	14	13	30	43	120	71.250000	285.000000
285000	500	15	14	33	31	120	71.250000	285.000000
285500	500	10	9	16	36	100	71.375000	285.500000
285500	500	13	12	29	55	120	71.375000	285.500000
285500	500	14	13	30	55	120	71.375000	285.500000
285500	500	15	14	33	43	120	71.375000	285.500000
286000	2000	3	2	80	82	120	71.500000	286.000000
286000	2000	3	2	80	89	120	71.500000	286.000000
286000	500	5	4	0	50	120	71.500000	286.000000
286000	2000	5	4	0	77	120	71.500000	286.000000
286000	2000	5	4	0	89	120	71.500000	286.000000
286000	500	10	9	16	36	100	71.500000	286.000000
286000	500	10	9	16	46	80	71.500000	286.000000
286000	500	13	12	29	43	120	71.500000	286.000000
286000	500	14	13	30	43	120	71.500000	286.000000
286000	500	15	14	33	31	120	71.500000	286.000000
286500	500	10	9	16	36	100	71.625000	286.500000
286500	500	13	12	29	55	120	71.625000	286.500000
286500	500	14	13	30	55	120	71.625000	286.500000
286500	500	15	14	33	43	120	71.625000	286.500000
287000	500	5	4	0	53	120	71.750000	287.000000
287000	500	10	9	16	38	100	71.750000	287.000000
287000	500	10	9	16	46	80	71.750000	287.000000
287000	500	13	12	29	43	120	71.750000	287.000000
287000	500	14	13	30	43	120	71.750000	287.000000
287000	500	15	14	33	31	120	71.750000	287.000000
287500	500	10	9	16	35	100	71.875000	287.500000
287500	500	13	12	29	55	120	71.875000	287.500000
287500	500	14	13	30	55	120	71.875000	287.500000
287500	500	15	14	33	43	120	71.875000	287.500000
288000	8000	2	1	48	37	100	72.000000	288.000000
288000	8000	2	1	48	44	100	72.000000	288.000000
288000	1000	3	2	80	78	120	72.000000	288.000000
288000	500	9	8	9	90	90	72.000000	288.000000
288000	500	9	8	9	102	90	72.000000	288.000000
288000	500	10	9	16	36	100	72.000000	288.000000
288000	500	10	9	16	46	80	72.000000	288.000000
288000	500	10	9	16	49	100	72.000000	288.000000
288000	1000	12	11	30	66	120	72.000000	288.000000
288000	1000	12	11	30	78	80	72.000000	288.000000
288000	500	13	12	29	37	120	72.000000	288.000000
288000	500	14	13	30	37	120	72.000000	288.000000
288000	500	15	14	33	25	120	72.000000	288.000000
288500	500	10	9	16	36	100	72.125000	288.500000
288500	500	13	12	29	37	120	72.125000	288.500000
288500	500	14	13	30	37	120	72.125000	288.500000
288500	500	15	14	33	25	120	72.125000	288.500000
289000	1000	3	2	80	71	120	72.250000	289.000000
289000	500	9	8	9	83	90	72.250000	289.000000
289000	500	9	8	9	95	90	72.250000	289.000000
289000	500	10	9	16	38	100	72.250000	289.000000
289000	500	10	9	16	46	80	72.250000	289.000000
289000	1000	12	11	30	59	120	72.250000	289.000000
289000	1000	12	11	30	71	80	72.250000	289.000000
289000	500	13	12	29	49	120	72.250000	289.000000
289000	500	14	13	30	49	120	72.250000	289.000000
289000	500	15	14	33	37	120	72.250000	289.000000
289500	500	10	9	16	36	100	72.375000	289.500000
289500	500	13	12	29	37	120	72.375000	289.500000
289500	500	14	13	30	37	120	72.375000	289.500000
289500	500	15	14	33	25	120	72.375000	289.500000
290000	1000	3	2	80	73	120	72.500000	290.000000
290000	500	9	8	9	85	90	72.500000	290.000000
290000	500	9	8	9	97	90	72.500000	290.000000
290000	500	10	9	16	36	100	72.500000	290.000000
290000	500	10	9	16	46	80	72.500000	290.000000
290000	1000	12	11	30	61	120	72.500000	290.000000
290000	1000	12	11	30	73	80	72.500000	290.000000
290000	500	13	12	29	37	120	72.500000	290.000000
290000	500	14	13	30	37	120	72.500000	290.000000
290000	500	15	14	33	25	120	72.500000	290.000000
290500	500	10	9	16	36	100	72.625000	290.500000
290500	500	13	12	29	49	120	72.625000	290.500000
290500	500	14	13	30	49	120	72.625000	290.500000
290500	500	15	14	33	37	120	72.625000	290.500000
291000	1000	3	2	80	71	120	72.750000	291.000000
291000	500	9	8	9	83	90	72.750000	291.000000
291000	500	9	8	9	95	90	72.750000	291.000000
291000	500	10	9	16	38	100	72.750000	291.000000
291000	500	10	9	16	46	80	72.750000	291.000000
291000	1000	12	11	30	59	120	72.750000	291.000000
291000	1000	12	11	30	71	80	72.750000	291.000000
291000	500	13	12	29	37	120	72.750000	291.000000
291000	500	14	13	30	37	120	72.750000	291.000000
291000	500	15	14	33	25	120	72.750000	291.000000
291500	500	10	9	16	36	100	72.875000	291.500000
291500	500	13	12	29	49	120	72.875000	291.500000
291500	500	14	13	30	49	120	72.875000	291.500000
291500	500	15	14	33	37	120	72.875000	291.500000
292000	500	3	2	80	66	120	73.000000	292.000000
292000	500	9	8	9	78	90	73.000000	292.000000
292000	500	9	8	9	90	90	73.000000	292.000000
292000	500	10	9	16	36	100	73.000000	292.000000
292000	500	10	9	16	46	80	73.000000	292.000000
292000	500	12	11	30	54	120	73.000000	292.000000
292000	500	12	11	30	66	80	73.000000	292.000000
292000	500	13	12	29	37	120	73.000000	292.000000
292000	500	14	13	30	37	120	73.000000	292.000000
292000	500	15	14	33	25	120	73.000000	292.000000
292500	500	3	2	80	71	120	73.125000	292.500000
292500	500	9	8	9	83	90	73.125000	292.500000
292500	500	9	8	9	95	90	73.125000	292.500000
292500	500	10	9	16	36	100	73.125000	292.500000
292500	500	12	11	30	59	120	73.125000	292.500000
292500	500	12	11	30	71	80	73.125000	292.500000
292500	500	13	12	29	49	120	73.125000	292.500000
292500	500	14	13	30	49	120	73.125000	292.500000
292500	500	15	14	33	37	120	73.125000	292.500000
293000	500	10	9	16	38	100	73.250000	293.000000
293000	500	10	9	16	46	80	73.250000	293.000000
293000	500	13	12	29	37	120	73.250000	293.000000
293000	500	14	13	30	37	120	73.250000	293.000000
293000	500	15	14	33	25	120	73.250000	293.000000
293500	1000	3	2	80	73	120	73.375000	293.500000
293500	500	9	8	9	85	90	73.375000	293.500000
293500	500	9	8	9	97	90	73.375000	293.500000
293500	500	10	9	16	36	100	73.375000	293.500000
293500	1000	12	11	30	61	120	73.375000	293.500000
293500	1000	12	11	30	73	80	73.375000	293.500000
293500	500	13	12	29	49	120	73.375000	293.500000
293500	500	14	13	30	49	120	73.375000	293.500000
293500	500	15	14	33	37	120	73.375000	293.500000
294000	1000	2	1	48	51	100	73.500000	294.000000
294000	500	10	9	16	36	100	73.500000	294.000000
294000	500	10	9	16	46	80	73.500000	294.000000
294000	500	13	12	29	37	120	73.500000	294.000000
294000	500	14	13	30	37	120	73.500000	294.000000
294000	500	15	14	33	25	120	73.500000	294.000000
294500	250	3	2	80	75	120	73.625000	294.500000
294500	250	9	8	9	87	90	73.625000	294.500000
294500	250	9	8	9	99	90	73.625000	294.500000
294500	500	10	9	16	36	100	73.625000	294.500000
294500	250	12	11	30	63	120	73.625000	294.500000
294500	250	12	11	30	75	80	73.625000	294.500000
294500	500	13	12	29	49	120	73.625000	294.500000
294500	500	14	13	30	49	120	73.625000	294.500000
294500	500	15	14	33	37	120	73.625000	294.500000
294750	250	3	2	80	73	120	73.687500	294.750000
294750	250	9	8	9	85	90	73.687500	294.750000
294750	250	9	8	9	97	90	73.687500	294.750000
294750	250	12	11	30	61	120	73.687500	294.750000
294750	250	12	11	30	73	80	73.687500	294.750000
295000	1000	2	1	48	52	100	73.750000	295.000000
295000	1000	3	2	80	71	120	73.750000	295.000000
295000	500	9	8	9	83	90	73.750000	295.000000
295000	500	9	8	9	95	90	73.750000	295.000000
295000	500	10	9	16	38	100	73.750000	295.000000
295000	500	10	9	16	46	80	73.750000	295.000000
295000	1000	12	11	30	59	120	73.750000	295.000000
295000	1000	12	11	30	71	80	73.750000	295.000000
295000	500	13	12	29	37	120	73.750000	295.000000
295000	500	14	13	30	37	120	73.750000	295.000000
295000	500	15	14	33	25	120	73.750000	295.000000
295500	500	10	9	16	36	100	73.875000	295.500000
295500	500	13	12	29	49	120	73.875000	295.500000
295500	500	14	13	30	49	120	73.875000	295.500000
295500	500	15	14	33	37	120	73.875000	295.500000
296000	8000	2	1	48	39	100	74.000000	296.000000
296000	8000	2	1	48	46	100	74.000000	296.000000
296000	2000	2	1	48	54	100	74.000000	296.000000
296000	1000	3	2	80	66	120	74.000000	296.000000
296000	500	9	8	9	78	90	74.000000	296.000000
296000	500	9	8	9	90	90	74.000000	296.000000
296000	500	10	9	16	36	100	74.000000	296.000000
296000	500	10	9	16	46	80	74.000000	296.000000
296000	1000	11	10	73	78	100	74.000000	296.000000
296000	1000	12	11	30	54	120	74.000000	296.000000
296000	1000	12	11	30	66	80	74.000000	296.000000
296000	500	13	12	29	39	120	74.000000	296.000000
296000	500	14	13	30	39	120	74.000000	296.000000
296000	500	15	14	33	27	120	74.000000	296.000000
296500	500	10	9	16	36	100	74.125000	296.500000
296500	500	13	12	29	39	120	74.125000	296.500000
296500	500	14	13	30	39	120	74.125000	296.500000
296500	500	15	14	33	27	120	74.125000	296.500000
297000	1000	3	2	80	71	120	74.250000	297.000000
297000	500	9	8	9	83	90	74.250000	297.000000
297000	500	9	8	9	95	90	74.250000	297.000000
297000	500	10	9	16	38	100	74.250000	297.000000
297000	500	10	9	16	46	80	74.250000	297.000000
297000	1000	12	11	30	59	120	74.250000	297.000000
297000	1000	12	11	30	71	80	74.250000	297.000000
297000	500	13	12	29	51	120	74.250000	297.000000
297000	500	14	13	30	51	120	74.250000	297.000000
297000	500	15	14	33	39	120	74.250000	297.000000
297500	500	10	9	16	36	100	74.375000	297.500000
297500	500	13	12	29	39	120	74.375000	297.500000
297500	500	14	13	30	39	120	74.375000	297.500000
297500	500	15	14	33	27	120	74.375000	297.500000
298000	2000	2	1	48	59	100	74.500000	298.000000
298000	500	3	2	80	73	120	74.500000	298.000000
298000	500	9	8	9	85	90	74.500000	298.000000
298000	500	9	8	9	97	90	74.500000	298.000000
298000	500	10	9	16	36	100	74.500000	298.000000
298000	500	10	9	16	46	80	74.500000	298.000000
298000	500	11	10	73	78	100	74.500000	298.000000
298000	500	12	11	30	61	120	74.500000	298.000000
298000	500	12	11	30	73	80	74.500000	298.000000
298000	500	13	12	29	39	120	74.500000	298.000000
298000	500	14	13	30	39	120	74.500000	298.000000
298000	500	15	14	33	27	120	74.500000	298.000000
298500	500	3	2	80	76	120	74.625000	298.500000
298500	500	9	8	9	88	90	74.625000	298.500000
298500	500	9	8	9	100	90	74.625000	298.500000
298500	500	10	9	16	36	100	74.625000	298.500000
298500	500	11	10	73	76	100	74.625000	298.500000
298500	500	12	11	30	64	120	74.625000	298.500000
298500	500	12	11	30	76	80	74.625000	298.500000
298500	500	13	12	29	51	120	74.625000	298.500000
298500	500	14	13	30	51	120	74.625000	298.500000
298500	500	15	14	33	39	120	74.625000	298.500000
299000	500	10	9	16	38	100	74.750000	299.000000
299000	500	10	9	16	46	80	74.750000	299.000000
299000	500	13	12	29	39	120	74.750000	299.000000
299000	500	14	13	30	39	120	74.750000	299.000000
299000	500	15	14	33	27	120	74.750000	299.000000
299500	1000	3	2	80	75	120	74.875000	299.500000
299500	500	9	8	9	87	90	74.875000	299.500000
299500	500	9	8	9	99	90	74.875000	299.500000
299500	500	10	9	16	36	100	74.875000	299.500000
299500	1000	11	10	73	78	100	74.875000	299.500000
299500	1000	12	11	30	63	120	74.875000	299.500000
299500	1000	12	11	30	75	80	74.875000	299.500000
299500	500	13	12	29	51	120	74.875000	299.500000
299500	500	14	13	30	51	120	74.875000	299.500000
299500	500	15	14	33	39	120	74.875000	299.500000
300000	2000	2	1	48	58	100	75.000000	300.000000
300000	500	10	9	16	36	100	75.000000	300.000000
300000	500	10	9	16	46	80	75.000000	300.000000
300000	500	13	12	29	39	120	75.000000	300.000000
300000	500	14	13	30	39	120	75.000000	300.000000
300000	500	15	14	33	27	120	75.000000	300.000000
300500	250	3	2	80	76	120	75.125000	300.500000
300500	250	9	8	9	88	90	75.125000	300.500000
300500	250	9	8	9	100	90	75.125000	300.500000
300500	500	10	9	16	36	100	75.125000	300.500000
300500	250	11	10	73	80	100	75.125000	300.500000
300500	250	12	11	30	64	120	75.125000	300.500000
300500	250	12	11	30	76	80	75.125000	300.500000
300500	500	13	12	29	39	120	75.125000	300.500000
300500	500	14	13	30	39	120	75.125000	300.500000
300500	500	15	14	33	27	120	75.125000	300.500000
300750	250	3	2	80	75	120	75.187500	300.750000
300750	250	9	8	9	87	90	75.187500	300.750000
300750	250	9	8	9	99	90	75.187500	300.750000
300750	250	11	10	73	78	100	75.187500	300.750000
300750	250	12	11	30	63	120	75.187500	300.750000
300750	250	12	11	30	75	80	75.187500	300.750000
301000	1000	3	2	80	73	120	75.250000	301.000000
301000	500	9	8	9	85	90	75.250000	301.000000
301000	500	9	8	9	97	90	75.250000	301.000000
301000	500	10	9	16	38	100	75.250000	301.000000
301000	500	10	9	16	46	80	75.250000	301.000000
301000	1000	11	10	73	76	100	75.250000	301.000000
301000	1000	12	11	30	61	120	75.250000	301.000000
301000	1000	12	11	30	73	80	75.250000	301.000000
301000	500	13	12	29	51	120	75.250000	301.000000
301000	500	14	13	30	51	120	75.250000	301.000000
301000	500	15	14	33	39	120	75.250000	301.000000
301500	500	10	9	16	36	100	75.375000	301.500000
301500	500	13	12	29	39	120	75.375000	301.500000
301500	500	14	13	30	39	120	75.375000	301.500000
301500	500	15	14	33	27	120	75.375000	301.500000
302000	2000	2	1	48	54	100	75.500000	302.000000
302000	1000	3	2	80	71	120	75.500000	302.000000
302000	500	9	8	9	83	90	75.500000	302.000000
302000	500	9	8	9	95	90	75.500000	302.000000
302000	500	10	9	16	36	100	75.500000	302.000000
302000	500	10	9	16	46	80	75.500000	302.000000
302000	1000	11	10	73	75	100	75.500000	302.000000
302000	1000	12	11	30	59	120	75.500000	302.000000
302000	1000	12	11	30	71	80	75.500000	302.000000
302000	500	13	12	29	39	120	75.500000	302.000000
302000	500	14	13	30	39	120	75.500000	302.000000
302000	500	15	14	33	27	120	75.500000	302.000000
302500	500	10	9	16	36	100	75.625000	302.500000
302500	500	13	12	29	51	120	75.625000	302.500000
302500	500	14	13	30	51	120	75.625000	302.500000
302500	500	15	14	33	39	120	75.625000	302.500000
303000	1000	3	2	80	66	120	75.750000	303.000000
303000	500	9	8	9	78	90	75.750000	303.000000
303000	500	9	8	9	90	90	75.750000	303.000000
303000	500	10	9	16	38	100	75.750000	303.000000
303000	500	10	9	16	46	80	75.750000	303.000000
303000	1000	11	10	73	76	100	75.750000	303.000000
303000	1000	12	11	30	54	120	75.750000	303.000000
303000	1000	12	11	30	66	80	75.750000	303.000000
303000	500	13	12	29	39	120	75.750000	303.000000
303000	500	14	13	30	39	120	75.750000	303.000000
303000	500	15	14	33	27	120	75.750000	303.000000
303500	500	10	9	16	36	100	75.875000	303.500000
303500	500	13	12	29	51	120	75.875000	303.500000
303500	500	14	13	30	51	120	75.875000	303.500000
303500	500	15	14	33	39	120	75.875000	303.500000
304000	8000	2	1	48	40	100	76.000000	304.000000
304000	8000	2	1	48	47	100	76.000000	304.000000
304000	4000	2	1	48	56	100	76.000000	304.000000
304000	1000	3	2	80	78	120	76.000000	304.000000
304000	500	9	8	9	90	90	76.000000	304.000000
304000	500	9	8	9	102	90	76.000000	304.000000
304000	500	10	9	16	36	100	76.000000	304.000000
304000	500	10	9	16	46	80	76.000000	304.000000
304000	2000	11	10	73	78	100	76.000000	304.000000
304000	1000	12	11	30	66	120	76.000000	304.000000
304000	1000	12	11	30	78	80	76.000000	304.000000
304000	500	13	12	29	40	120	76.000000	304.000000
304000	500	14	13	30	40	120	76.000000	304.000000
304000	500	15	14	33	28	120	76.000000	304.000000
304500	500	10	9	16	36	100	76.125000	304.500000
304500	500	13	12	29	40	120	76.125000	304.500000
304500	500	14	13	30	40	120	76.125000	304.500000
304500	500	15	14	33	28	120	76.125000	304.500000
305000	1000	3	2	80	71	120	76.250000	305.000000
305000	500	9	8	9	83	90	76.250000	305.000000
305000	500	9	8	9	95	90	76.250000	305.000000
305000	500	10	9	16	38	100	76.250000	305.000000
305000	500	10	9	16	46	80	76.250000	305.000000
305000	1000	12	11	30	59	120	76.250000	305.000000
305000	1000	12	11	30	71	80	76.250000	305.000000
305000	500	13	12	29	52	120	76.250000	305.000000
305000	500	14	13	30	52	120	76.250000	305.000000
305000	500	15	14	33	40	120	76.250000	305.000000
305500	500	10	9	16	36	100	76.375000	305.500000
305500	500	13	12	29	40	120	76.375000	305.500000
305500	500	14	13	30	40	120	76.375000	305.500000
305500	500	15	14	33	28	120	76.375000	305.500000
306000	1000	3	2	80	73	120	76.500000	306.000000
306000	500	9	8	9	85	90	76.500000	306.000000
306000	500	9	8	9	97	90	76.500000	306.000000
306000	500	10	9	16	36	100	76.500000	306.000000
306000	500	10	9	16	46	80	76.500000	306.000000
306000	1000	12	11	30	61	120	76.500000	306.000000
306000	1000	12	11	30	73	80	76.500000	306.000000
306000	500	13	12	29	40	120	76.500000	306.000000
306000	500	14	13	30	40	120	76.500000	306.000000
306000	500	15	14	33	28	120	76.500000	306.000000
306500	500	10	9	16	36	100	76.625000	306.500000
306500	500	13	12	29	52	120	76.625000	306.500000
306500	500	14	13	30	52	120	76.625000	306.500000
306500	500	15	14	33	40	120	76.625000	306.500000
307000	1000	3	2	80	71	120	76.750000	307.000000
307000	500	9	8	9	83	90	76.750000	307.000000
307000	500	9	8	9	95	90	76.750000	307.000000
307000	500	10	9	16	38	100	76.750000	307.000000
307000	500	10	9	16	46	80	76.750000	307.000000
307000	1000	12	11	30	59	120	76.750000	307.000000
307000	1000	12	11	30	71	80	76.750000	307.000000
307000	500	13	12	29	40	120	76.750000	307.000000
307000	500	14	13	30	40	120	76.750000	307.000000
307000	500	15	14	33	28	120	76.750000	307.000000
307500	500	10	9	16	36	100	76.875000	307.500000
307500	500	13	12	29	52	120	76.875000	307.500000
307500	500	14	13	30	52	120	76.875000	307.500000
307500	500	15	14	33	40	120	76.875000	307.500000
308000	4000	2	1	48	63	100	77.000000	308.000000
308000	500	3	2	80	66	120	77.000000	308.000000
308000	500	9	8	9	78	90	77.000000	308.000000
308000	500	9	8	9	90	90	77.000000	308.000000
308000	500	10	9	16	36	100	77.000000	308.000000
308000	500	10	9	16	46	80	77.000000	308.000000
308000	500	12	11	30	54	120	77.000000	308.000000
308000	500	12	11	30	66	80	77.000000	308.000000
308000	500	13	12	29	40	120	77.000000	308.000000
308000	500	14	13	30	40	120	77.000000	308.000000
308000	500	15	14	33	28	120	77.000000	308.000000
308500	500	3	2	80	71	120	77.125000	308.500000
308500	500	9	8	9	83	90	77.125000	308.500000
308500	500	9	8	9	95	90	77.125000	308.500000
308500	500	10	9	16	36	100	77.125000	308.500000
308500	500	12	11	30	59	120	77.125000	308.500000
308500	500	12	11	30	71	80	77.125000	308.500000
308500	500	13	12	29	52	120	77.125000	308.500000
308500	500	14	13	30	52	120	77.125000	308.500000
308500	500	15	14	33	40	120	77.125000	308.500000
309000	500	10	9	16	38	100	77.250000	309.000000
309000	500	10	9	16	46	80	77.250000	309.000000
309000	500	13	12	29	40	120	77.250000	309.000000
309000	500	14	13	30	40	120	77.250000	309.000000
309000	500	15	14	33	28	120	77.250000	309.000000
309500	1000	3	2	80	73	120	77.375000	309.500000
309500	500	9	8	9	85	90	77.375000	309.500000
309500	500	9	8	9	97	90	77.375000	309.500000
309500	500	10	9	16	36	100	77.375000	309.500000
309500	1000	12	11	30	61	120	77.375000	309.500000
309500	1000	12	11	30	73	80	77.375000	309.500000
309500	500	13	12	29	52	120	77.375000	309.500000
309500	500	14	13	30	52	120	77.375000	309.500000
309500	500	15	14	33	40	120	77.375000	309.500000
310000	500	10	9	16	36	100	77.500000	310.000000
310000	500	10	9	16	46	80	77.500000	310.000000
310000	500	13	12	29	40	120	77.500000	310.000000
310000	500	14	13	30	40	120	77.500000	310.000000
310000	500	15	14	33	28	120	77.500000	310.000000
310500	250	3	2	80	75	120	77.625000	310.500000
310500	250	9	8	9	87	90	77.625000	310.500000
310500	250	9	8	9	99	90	77.625000	310.500000
310500	500	10	9	16	36	100	77.625000	310.500000
310500	250	12	11	30	63	120	77.625000	310.500000
310500	250	12	11	30	75	80	77.625000	310.500000
310500	500	13	12	29	52	120	77.625000	310.500000
310500	500	14	13	30	52	120	77.625000	310.500000
310500	500	15	14	33	40	120	77.625000	310.500000
310750	250	3	2	80	73	120	77.687500	310.750000
310750	250	9	8	9	85	90	77.687500	310.750000
310750	250	9	8	9	97	90	77.687500	310.750000
310750	250	12	11	30	61	120	77.687500	310.750000
310750	250	12	11	30	73	80	77.687500	310.750000
311000	1000	3	2	80	71	120	77.750000	311.000000
311000	500	9	8	9	83	90	77.750000	311.000000
311000	500	9	8	9	95	90	77.750000	311.000000
311000	500	10	9	16	38	100	77.750000	311.000000
311000	500	10	9	16	46	80	77.750000	311.000000
311000	1000	12	11	30	59	120	77.750000	311.000000
311000	1000	12	11	30	71	80	77.750000	311.000000
311000	500	13	12	29	40	120	77.750000	311.000000
311000	500	14	13	30	40	120	77.750000	311.000000
311000	500	15	14	33	28	120	77.750000	311.000000
311500	500	10	9	16	36	100	77.875000	311.500000
311500	500	13	12	29	52	120	77.875000	311.500000
311500	500	14	13	30	52	120	77.875000	311.500000
311500	500	15	14	33	40	120	77.875000	311.500000
312000	4000	2	1	48	42	100	78.000000	312.000000
312000	4000	2	1	48	49	100	78.000000	312.000000
312000	2000	2	1	48	61	100	78.000000	312.000000
312000	1000	3	2	80	63	120	78.000000	312.000000
312000	1000	3	2	80	66	120	78.000000	312.000000
312000	500	9	8	9	78	90	78.000000	312.000000
312000	500	9	8	9	90	90	78.000000	312.000000
312000	500	10	9	16	36	100	78.000000	312.000000
312000	500	10	9	16	46	80	78.000000	312.000000
312000	1000	12	11	30	66	120	78.000000	312.000000
312000	1000	12	11	30	78	80	78.000000	312.000000
312000	500	13	12	29	42	120	78.000000	312.000000
312000	500	14	13	30	42	120	78.000000	312.000000
312000	500	15	14	33	30	120	78.000000	312.000000
312500	500	10	9	16	36	100	78.125000	312.500000
312500	500	13	12	29	42	120	78.125000	312.500000
312500	500	14	13	30	42	120	78.125000	312.500000
312500	500	15	14	33	30	120	78.125000	312.500000
313000	1000	3	2	80	68	120	78.250000	313.000000
313000	1000	3	2	80	71	120	78.250000	313.000000
313000	500	9	8	9	83	90	78.250000	313.000000
313000	500	9	8	9	95	90	78.250000	313.000000
313000	500	10	9	16	38	100	78.250000	313.000000
313000	500	10	9	16	46	80	78.250000	313.000000
313000	1000	12	11	30	59	120	78.250000	313.000000
313000	1000	12	11	30	71	80	78.250000	313.000000
313000	500	13	12	29	54	120	78.250000	313.000000
313000	500	14	13	30	54	120	78.250000	313.000000
313000	500	15	14	33	42	120	78.250000	313.000000
313500	500	10	9	16	36	100	78.375000	313.500000
313500	500	13	12	29	42	120	78.375000	313.500000
313500	500	14	13	30	42	120	78.375000	313.500000
313500	500	15	14	33	30	120	78.375000	313.500000
314000	2000	2	1	48	63	100	78.500000	314.000000
314000	500	3	2	80	73	120	78.500000	314.000000
314000	500	3	2	80	83	120	78.500000	314.000000
314000	500	9	8	9	85	90	78.500000	314.000000
314000	500	9	8	9	97	90	78.500000	314.000000
314000	500	10	9	16	36	100	78.500000	314.000000
314000	500	10	9	16	46	80	78.500000	314.000000
314000	500	12	11	30	61	120	78.500000	314.000000
314000	500	12	11	30	73	80	78.500000	314.000000
314000	500	13	12	29	42	120	78.500000	314.000000
314000	500	14	13	30	42	120	78.500000	314.000000
314000	500	15	14	33	30	120	78.500000	314.000000
314500	500	3	2	80	76	120	78.625000	314.500000
314500	500	3	2	80	82	120	78.625000	314.500000
314500	500	9	8	9	88	90	78.625000	314.500000
314500	500	9	8	9	100	90	78.625000	314.500000
314500	500	10	9	16	36	100	78.625000	314.500000
314500	500	12	11	30	64	120	78.625000	314.500000
314500	500	12	11	30	76	80	78.625000	314.500000
314500	500	13	12	29	54	120	78.625000	314.500000
314500	500	14	13	30	54	120	78.625000	314.500000
314500	500	15	14	33	42	120	78.625000	314.500000
315000	500	10	9	16	38	100	78.750000	315.000000
315000	500	10	9	16	46	80	78.750000	315.000000
315000	500	13	12	29	42	120	78.750000	315.000000
315000	500	14	13	30	42	120	78.750000	315.000000
315000	500	15	14	33	30	120	78.750000	315.000000
315500	500	3	2	80	75	120	78.875000	315.500000
315500	500	3	2	80	78	120	78.875000	315.500000
315500	500	9	8	9	87	90	78.875000	315.500000
315500	500	9	8	9	99	90	78.875000	315.500000
315500	500	10	9	16	36	100	78.875000	315.500000
315500	1000	12	11	30	66	120	78.875000	315.500000
315500	1000	12	11	30	78	80	78.875000	315.500000
315500	500	13	12	29	54	120	78.875000	315.500000
315500	500	14	13	30	54	120	78.875000	315.500000
315500	500	15	14	33	42	120	78.875000	315.500000
316000	4000	2	1	48	44	100	79.000000	316.000000
316000	4000	2	1	48	51	100	79.000000	316.000000
316000	4000	2	1	48	66	100	79.000000	316.000000
316000	500	10	9	16	36	100	79.000000	316.000000
316000	500	10	9	16	46	80	79.000000	316.000000
316000	500	13	12	29	44	120	79.000000	316.000000
316000	500	14	13	30	44	120	79.000000	316.000000
316000	500	15	14	33	32	120	79.000000	316.000000
316500	500	3	2	80	71	120	79.125000	316.500000
316500	500	3	2	80	75	120	79.125000	316.500000
316500	250	9	8	9	88	90	79.125000	316.500000
316500	250	9	8	9	100	90	79.125000	316.500000
316500	500	10	9	16	36	100	79.125000	316.500000
316500	500	12	11	30	63	120	79.125000	316.500000
316500	500	12	11	30	75	80	79.125000	316.500000
316500	500	13	12	29	56	120	79.125000	316.500000
316500	500	14	13	30	56	120	79.125000	316.500000
316500	500	15	14	33	44	120	79.125000	316.500000
316750	250	9	8	9	87	90	79.187500	316.750000
316750	250	9	8	9	99	90	79.187500	316.750000
317000	500	3	2	80	70	120	79.250000	317.000000
317000	500	3	2	80	73	120	79.250000	317.000000
317000	500	9	8	9	85	90	79.250000	317.000000
317000	500	9	8	9	97	90	79.250000	317.000000
317000	500	10	9	16	38	100	79.250000	317.000000
317000	500	10	9	16	46	80	79.250000	317.000000
317000	500	12	11	30	61	120	79.250000	317.000000
317000	500	12	11	30	73	80	79.250000	317.000000
317000	500	13	12	29	44	120	79.250000	317.000000
317000	500	14	13	30	44	120	79.250000	317.000000
317000	500	15	14	33	32	120	79.250000	317.000000
317500	1000	3	2	80	68	120	79.375000	317.500000
317500	1000	3	2	80	71	120	79.375000	317.500000
317500	500	10	9	16	36	100	79.375000	317.500000
317500	1000	12	11	30	59	120	79.375000	317.500000
317500	1000	12	11	30	71	80	79.375000	317.500000
317500	500	13	12	29	56	120	79.375000	317.500000
317500	500	14	13	30	56	120	79.375000	317.500000
317500	500	15	14	33	44	120	79.375000	317.500000
318000	500	9	8	9	83	90	79.500000	318.000000
318000	500	9	8	9	95	90	79.500000	318.000000
318000	500	10	9	16	36	100	79.500000	318.000000
318000	500	10	9	16	46	80	79.500000	318.000000
318000	500	13	12	29	44	120	79.500000	318.000000
318000	500	14	13	30	44	120	79.500000	318.000000
318000	500	15	14	33	32	120	79.500000	318.000000
318500	500	3	2	80	70	120	79.625000	318.500000
318500	500	3	2	80	73	120	79.625000	318.500000
318500	500	10	9	16	36	100	79.625000	318.500000
318500	500	12	11	30	61	120	79.625000	318.500000
318500	500	12	11	30	73	80	79.625000	318.500000
318500	500	13	12	29	56	120	79.625000	318.500000
318500	500	14	13	30	56	120	79.625000	318.500000
318500	500	15	14	33	44	120	79.625000	318.500000
319000	500	3	2	80	68	120	79.750000	319.000000
319000	500	3	2	80	71	120	79.750000	319.000000
319000	500	9	8	9	78	90	79.750000	319.000000
319000	500	9	8	9	90	90	79.750000	319.000000
319000	500	10	9	16	38	100	79.750000	319.000000
319000	500	10	9	16	46	80	79.750000	319.000000
319000	500	12	11	30	59	120	79.750000	319.000000
319000	500	12	11	30	71	80	79.750000	319.000000
319000	500	13	12	29	44	120	79.750000	319.000000
319000	500	14	13	30	44	120	79.750000	319.000000
319000	500	15	14	33	32	120	79.750000	319.000000
319500	500	3	2	80	63	120	79.875000	319.500000
319500	500	3	2	80	66	120	79.875000	319.500000
319500	500	10	9	16	36	100	79.875000	319.500000
319500	500	12	11	30	54	120	79.875000	319.500000
319500	500	12	11	30	66	80	79.875000	319.500000
319500	500	13	12	29	56	120	79.875000	319.500000
319500	500	14	13	30	56	120	79.875000	319.500000
319500	500	15	14	33	44	120	79.875000	319.500000
320000	8000	2	1	48	37	100	80.000000	320.000000
320000	8000	2	1	48	44	100	80.000000	320.000000
320000	6000	2	1	48	56	100	80.000000	320.000000
320000	1000	3	2	80	78	120	80.000000	320.000000
320000	500	9	8	9	90	90	80.000000	320.000000
320000	500	9	8	9	102	90	80.000000	320.000000
320000	500	10	9	16	36	100	80.000000	320.000000
320000	500	10	9	16	46	80	80.000000	320.000000
320000	500	10	9	16	49	100	80.000000	320.000000
320000	1000	12	11	30	66	120	80.000000	320.000000
320000	1000	12	11	30	78	80	80.000000	320.000000
320000	500	13	12	29	37	120	80.000000	320.000000
320000	500	14	13	30	37	120	80.000000	320.000000
320000	500	15	14	33	25	120	80.000000	320.000000
320500	500	10	9	16	36	100	80.125000	320.500000
320500	500	13	12	29	37	120	80.125000	320.500000
320500	500	14	13	30	37	120	80.125000	320.500000
320500	500	15	14	33	25	120	80.125000	320.500000
321000	1000	3	2	80	71	120	80.250000	321.000000
321000	500	9	8	9	83	90	80.250000	321.000000
321000	500	9	8	9	95	90	80.250000	321.000000
321000	500	10	9	16	38	100	80.250000	321.000000
321000	500	10	9	16	46	80	80.250000	321.000000
321000	1000	12	11	30	59	120	80.250000	321.000000
321000	1000	12	11	30	71	80	80.250000	321.000000
321000	500	13	12	29	49	120	80.250000	321.000000
321000	500	14	13	30	49	120	80.250000	321.000000
321000	500	15	14	33	37	120	80.250000	321.000000
321500	500	10	9	16	36	100	80.375000	321.500000
321500	500	13	12	29	37	120	80.375000	321.500000
321500	500	14	13	30	37	120	80.375000	321.500000
321500	500	15	14	33	25	120	80.375000	321.500000
322000	1000	3	2	80	73	120	80.500000	322.000000
322000	500	9	8	9	85	90	80.500000	322.000000
322000	500	9	8	9	97	90	80.500000	322.000000
322000	500	10	9	16	36	100	80.500000	322.000000
322000	500	10	9	16	46	80	80.500000	322.000000
322000	1000	12	11	30	61	120	80.500000	322.000000
322000	1000	12	11	30	73	80	80.500000	322.000000
322000	500	13	12	29	37	120	80.500000	322.000000
322000	500	14	13	30	37	120	80.500000	322.000000
322000	500	15	14	33	25	120	80.500000	322.000000
322500	500	10	9	16	36	100	80.625000	322.500000
322500	500	13	12	29	49	120	80.625000	322.500000
322500	500	14	13	30	49	120	80.625000	322.500000
322500	500	15	14	33	37	120	80.625000	322.500000
323000	1000	3	2	80	71	120	80.750000	323.000000
323000	500	9	8	9	83	90	80.750000	323.000000
323000	500	9	8	9	95	90	80.750000	323.000000
323000	500	10	9	16	38	100	80.750000	323.000000
323000	500	10	9	16	46	80	80.750000	323.000000
323000	1000	12	11	30	59	120	80.750000	323.000000
323000	1000	12	11	30	71	80	80.750000	323.000000
323000	500	13	12	29	37	120	80.750000	323.000000
323000	500	14	13	30	37	120	80.750000	323.000000
323000	500	15	14	33	25	120	80.750000	323.000000
323500	500	10	9	16	36	100	80.875000	323.500000
323500	500	13	12	29	49	120	80.875000	323.500000
323500	500	14	13	30	49	120	80.875000	323.500000
323500	500	15	14	33	37	120	80.875000	323.500000
324000	500	3	2	80	66	120	81.000000	324.000000
324000	500	9	8	9	78	90	81.000000	324.000000
324000	500	9	8	9	90	90	81.000000	324.000000
324000	500	10	9	16	36	100	81.000000	324.000000
324000	500	10	9	16	46	80	81.000000	324.000000
324000	500	12	11	30	54	120	81.000000	324.000000
324000	500	12	11	30	66	80	81.000000	324.000000
324000	500	13	12	29	37	120	81.000000	324.000000
324000	500	14	13	30	37	120	81.000000	324.000000
324000	500	15	14	33	25	120	81.000000	324.000000
324500	500	3	2	80	71	120	81.125000	324.500000
324500	500	9	8	9	83	90	81.125000	324.500000
324500	500	9	8	9	95	90	81.125000	324.500000
324500	500	10	9	16	36	100	81.125000	324.500000
324500	500	12	11	30	59	120	81.125000	324.500000
324500	500	12	11	30	71	80	81.125000	324.500000
324500	500	13	12	29	49	120	81.125000	324.500000
324500	500	14	13	30	49	120	81.125000	324.500000
324500	500	15	14	33	37	120	81.125000	324.500000
325000	500	10	9	16	38	100	81.250000	325.000000
325000	500	10	9	16	46	80	81.250000	325.000000
325000	500	13	12	29	37	120	81.250000	325.000000
325000	500	14	13	30	37	120	81.250000	325.000000
325000	500	15	14	33	25	120	81.250000	325.000000
325500	1000	3	2	80	73	120	81.375000	325.500000
325500	500	9	8	9	85	90	81.375000	325.500000
325500	500	9	8	9	97	90	81.375000	325.500000
325500	500	10	9	16	36	100	81.375000	325.500000
325500	1000	12	11	30	61	120	81.375000	325.500000
325500	1000	12	11	30	73	80	81.375000	325.500000
325500	500	13	12	29	49	120	81.375000	325.500000
325500	500	14	13	30	49	120	81.375000	325.500000
325500	500	15	14	33	37	120	81.375000	325.500000
326000	1000	2	1	48	51	100	81.500000	326.000000
326000	500	10	9	16	36	100	81.500000	326.000000
326000	500	10	9	16	46	80	81.500000	326.000000
326000	500	13	12	29	37	120	81.500000	326.000000
326000	500	14	13	30	37	120	81.500000	326.000000
326000	500	15	14	33	25	120	81.500000	326.000000
326500	250	3	2	80	75	120	81.625000	326.500000
326500	250	9	8	9	87	90	81.625000	326.500000
326500	250	9	8	9	99	90	81.625000	326.500000
326500	500	10	9	16	36	100	81.625000	326.500000
326500	250	12	11	30	63	120	81.625000	326.500000
326500	250	12	11	30	75	80	81.625000	326.500000
326500	500	13	12	29	49	120	81.625000	326.500000
326500	500	14	13	30	49	120	81.625000	326.500000
326500	500	15	14	33	37	120	81.625000	326.500000
326750	250	3	2	80	73	120	81.687500	326.750000
326750	250	9	8	9	85	90	81.687500	326.750000
326750	250	9	8	9	97	90	81.687500	326.750000
326750	250	12	11	30	61	120	81.687500	326.750000
326750	250	12	11	30	73	80	81.687500	326.750000
327000	1000	2	1	48	52	100	81.750000	327.000000
327000	1000	3	2	80	71	120	81.750000	327.000000
327000	500	9	8	9	83	90	81.750000	327.000000
327000	500	9	8	9	95	90	81.750000	327.000000
327000	500	10	9	16	38	100	81.750000	327.000000
327000	500	10	9	16	46	80	81.750000	327.000000
327000	1000	12	11	30	59	120	81.750000	327.000000
327000	1000	12	11	30	71	80	81.750000	327.000000
327000	500	13	12	29	37	120	81.750000	327.000000
327000	500	14	13	30	37	120	81.750000	327.000000
327000	500	15	14	33	25	120	81.750000	327.000000
327500	500	10	9	16	36	100	81.875000	327.500000
327500	500	13	12	29	49	120	81.875000	327.500000
327500	500	14	13	30	49	120	81.875000	327.500000
327500	500	15	14	33	37	120	81.875000	327.500000
328000	8000	2	1	48	39	100	82.000000	328.000000
328000	8000	2	1	48	46	100	82.000000	328.000000
328000	2000	2	1	48	54	100	82.000000	328.000000
328000	1000	3	2	80	66	120	82.000000	328.000000
328000	500	9	8	9	78	90	82.000000	328.000000
328000	500	9	8	9	90	90	82.000000	328.000000
328000	500	10	9	16	36	100	82.000000	328.000000
328000	500	10	9	16	46	80	82.000000	328.000000
328000	1000	11	10	73	78	100	82.000000	328.000000
328000	1000	12	11	30	54	120	82.000000	328.000000
328000	1000	12	11	30	66	80	82.000000	328.000000
328000	500	13	12	29	39	120	82.000000	328.000000
328000	500	14	13	30	39	120	82.000000	328.000000
328000	500	15	14	33	27	120	82.000000	328.000000
328500	500	10	9	16	36	100	82.125000	328.500000
328500	500	13	12	29	39	120	82.125000	328.500000
328500	500	14	13	30	39	120	82.125000	328.500000
328500	500	15	14	33	27	120	82.125000	328.500000
329000	1000	3	2	80	71	120	82.250000	329.000000
329000	500	9	8	9	83	90	82.250000	329.000000
329000	500	9	8	9	95	90	82.250000	329.000000
329000	500	10	9	16	38	100	82.250000	329.000000
329000	500	10	9	16	46	80	82.250000	329.000000
329000	1000	12	11	30	59	120	82.250000	329.000000
329000	1000	12	11	30	71	80	82.250000	329.000000
329000	500	13	12	29	51	120	82.250000	329.000000
329000	500	14	13	30	51	120	82.250000	329.000000
329000	500	15	14	33	39	120	82.250000	329.000000
329500	500	10	9	16	36	100	82.375000	329.500000
329500	500	13	12	29	39	120	82.375000	329.500000
329500	500	14	13	30	39	120	82.375000	329.500000
329500	500	15	14	33	27	120	82.375000	329.500000
330000	2000	2	1	48	59	100	82.500000	330.000000
330000	500	3	2	80	73	120	82.500000	330.000000
330000	500	9	8	9	85	90	82.500000	330.000000
330000	500	9	8	9	97	90	82.500000	330.000000
330000	500	10	9	16	36	100	82.500000	330.000000
330000	500	10	9	16	46	80	82.500000	330.000000
330000	500	11	10	73	78	100	82.500000	330.000000
330000	500	12	11	30	61	120	82.500000	330.000000
330000	500	12	11	30	73	80	82.500000	330.000000
330000	500	13	12	29	39	120	82.500000	330.000000
330000	500	14	13	30	39	120	82.500000	330.000000
330000	500	15	14	33	27	120	82.500000	330.000000
330500	500	3	2	80	76	120	82.625000	330.500000
330500	500	9	8	9	88	90	82.625000	330.500000
330500	500	9	8	9	100	90	82.625000	330.500000
330500	500	10	9	16	36	100	82.625000	330.500000
330500	500	11	10	73	76	100	82.625000	330.500000
330500	500	12	11	30	64	120	82.625000	330.500000
330500	500	12	11	30	76	80	82.625000	330.500000
330500	500	13	12	29	51	120	82.625000	330.500000
330500	500	14	13	30	51	120	82.625000	330.500000
330500	500	15	14	33	39	120	82.625000	330.500000
331000	500	10	9	16	38	100	82.750000	331.000000
331000	500	10	9	16	46	80	82.750000	331.000000
331000	500	13	12	29	39	120	82.750000	331.000000
331000	500	14	13	30	39	120	82.750000	331.000000
331000	500	15	14	33	27	120	82.750000	331.000000
331500	1000	3	2	80	75	120	82.875000	331.500000
331500	500	9	8	9	87	90	82.875000	331.500000
331500	500	9	8	9	99	90	82.875000	331.500000
331500	500	10	9	16	36	100	82.875000	331.500000
331500	1000	11	10	73	78	100	82.875000	331.500000
331500	1000	12	11	30	63	120	82.875000	331.500000
331500	1000	12	11	30	75	80	82.875000	331.500000
331500	500	13	12	29	51	120	82.875000	331.500000
331500	500	14	13	30	51	120	82.875000	331.500000
331500	500	15	14	33	39	120	82.875000	331.500000
332000	2000	2	1	48	58	100	83.000000	332.000000
332000	500	10	9	16	36	100	83.000000	332.000000
332000	500	10	9	16	46	80	83.000000	332.000000
332000	500	13	12	29	39	120	83.000000	332.000000
332000	500	14	13	30	39	120	83.000000	332.000000
332000	500	15	14	33	27	120	83.000000	332.000000
332500	250	3	2	80	76	120	83.125000	332.500000
332500	250	9	8	9	88	90	83.125000	332.500000
332500	250	9	8	9	100	90	83.125000	332.500000
332500	500	10	9	16	36	100	83.125000	332.500000
332500	250	11	10	73	80	100	83.125000	332.500000
332500	250	12	11	30	64	120	83.125000	332.500000
332500	250	12	11	30	76	80	83.125000	332.500000
332500	500	13	12	29	39	120	83.125000	332.500000
332500	500	14	13	30	39	120	83.125000	332.500000
332500	500	15	14	33	27	120	83.125000	332.500000
332750	250	3	2	80	75	120	83.187500	332.750000
332750	250	9	8	9	87	90	83.187500	332.750000
332750	250	9	8	9	99	90	83.187500	332.750000
332750	250	11	10	73	78	100	83.187500	332.750000
332750	250	12	11	30	63	120	83.187500	332.750000
332750	250	12	11	30	75	80	83.187500	332.750000
333000	1000	3	2	80	73	120	83.250000	333.000000
333000	500	9	8	9	85	90	83.250000	333.000000
333000	500	9	8	9	97	90	83.250000	333.000000
333000	500	10	9	16	38	100	83.250000	333.000000
333000	500	10	9	16	46	80	83.250000	333.000000
333000	1000	11	10	73	76	100	83.250000	333.000000
333000	1000	12	11	30	61	120	83.250000	333.000000
333000	1000	12	11	30	73	80	83.250000	333.000000
333000	500	13	12	29	51	120	83.250000	333.000000
333000	500	14	13	30	51	120	83.250000	333.000000
333000	500	15	14	33	39	120	83.250000	333.000000
333500	500	10	9	16	36	100	83.375000	333.500000
333500	500	13	12	29	39	120	83.375000	333.500000
333500	500	14	13	30	39	120	83.375000	333.500000
333500	500	15	14	33	27	120	83.375000	333.500000
334000	2000	2	1	48	54	100	83.500000	334.000000
334000	1000	3	2	80	71	120	83.500000	334.000000
334000	500	9	8	9	83	90	83.500000	334.000000
334000	500	9	8	9	95	90	83.500000	334.000000
334000	500	10	9	16	36	100	83.500000	334.000000
334000	500	10	9	16	46	80	83.500000	334.000000
334000	1000	11	10	73	75	100	83.500000	334.000000
334000	1000	12	11	30	59	120	83.500000	334.000000
334000	1000	12	11	30	71	80	83.500000	334.000000
334000	500	13	12	29	39	120	83.500000	334.000000
334000	500	14	13	30	39	120	83.500000	334.000000
334000	500	15	14	33	27	120	83.500000	334.000000
334500	500	10	9	16	36	100	83.625000	334.500000
334500	500	13	12	29	51	120	83.625000	334.500000
334500	500	14	13	30	51	120	83.625000	334.500000
334500	500	15	14	33	39	120	83.625000	334.500000
335000	1000	3	2	80	66	120	83.750000	335.000000
335000	500	9	8	9	78	90	83.750000	335.000000
335000	500	9	8	9	90	90	83.750000	335.000000
335000	500	10	9	16	38	100	83.750000	335.000000
335000	500	10	9	16	46	80	83.750000	335.000000
335000	1000	11	10	73	76	100	83.750000	335.000000
335000	1000	12	11	30	54	120	83.750000	335.000000
335000	1000	12	11	30	66	80	83.750000	335.000000
335000	500	13	12	29	39	120	83.750000	335.000000
335000	500	14	13	30	39	120	83.750000	335.000000
335000	500	15	14	33	27	120	83.750000	335.000000
335500	500	10	9	16	36	100	83.875000	335.500000
335500	500	13	12	29	51	120	83.875000	335.500000
335500	500	14	13	30	51	120	83.875000	335.500000
335500	500	15	14	33	39	120	83.875000	335.500000
336000	8000	2	1	48	40	100	84.000000	336.000000
336000	8000	2	1	48	47	100	84.000000	336.000000
336000	4000	2	1	48	56	100	84.000000	336.000000
336000	1000	3	2	80	78	120	84.000000	336.000000
336000	500	9	8	9	90	90	84.000000	336.000000
336000	500	9	8	9	102	90	84.000000	336.000000
336000	500	10	9	16	36	100	84.000000	336.000000
336000	500	10	9	16	46	80	84.000000	336.000000
336000	2000	11	10	73	78	100	84.000000	336.000000
336000	1000	12	11	30	66	120	84.000000	336.000000
336000	1000	12	11	30	78	80	84.000000	336.000000
336000	500	13	12	29	40	120	84.000000	336.000000
336000	500	14	13	30	40	120	84.000000	336.000000
336000	500	15	14	33	28	120	84.000000	336.000000
336500	500	10	9	16	36	100	84.125000	336.500000
336500	500	13	12	29	40	120	84.125000	336.500000
336500	500	14	13	30	40	120	84.125000	336.500000
336500	500	15	14	33	28	120	84.125000	336.500000
337000	1000	3	2	80	71	120	84.250000	337.000000
337000	500	9	8	9	83	90	84.250000	337.000000
337000	500	9	8	9	95	90	84.250000	337.000000
337000	500	10	9	16	38	100	84.250000	337.000000
337000	500	10	9	16	46	80	84.250000	337.000000
337000	1000	12	11	30	59	120	84.250000	337.000000
337000	1000	12	11	30	71	80	84.250000	337.000000
337000	500	13	12	29	52	120	84.250000	337.000000
337000	500	14	13	30	52	120	84.250000	337.000000
337000	500	15	14	33	40	120	84.250000	337.000000
337500	500	10	9	16	36	100	84.375000	337.500000
337500	500	13	12	29	40	120	84.375000	337.500000
337500	500	14	13	30	40	120	84.375000	337.500000
337500	500	15	14	33	28	120	84.375000	337.500000
338000	1000	3	2	80	73	120	84.500000	338.000000
338000	500	9	8	9	85	90	84.500000	338.000000
338000	500	9	8	9	97	90	84.500000	338.000000
338000	500	10	9	16	36	100	84.500000	338.000000
338000	500	10	9	16	46	80	84.500000	338.000000
338000	1000	12	11	30	61	120	84.500000	338.000000
338000	1000	12	11	30	73	80	84.500000	338.000000
338000	500	13	12	29	40	120	84.500000	338.000000
338000	500	14	13	30	40	120	84.500000	338.000000
338000	500	15	14	33	28	120	84.500000	338.000000
338500	500	10	9	16	36	100	84.625000	338.500000
338500	500	13	12	29	52	120	84.625000	338.500000
338500	500	14	13	30	52	120	84.625000	338.500000
338500	500	15	14	33	40	120	84.625000	338.500000
339000	1000	3	2	80	71	120	84.750000	339.000000
339000	500	9	8	9	83	90	84.750000	339.000000
339000	500	9	8	9	95	90	84.750000	339.000000
339000	500	10	9	16	38	100	84.750000	339.000000
339000	500	10	9	16	46	80	84.750000	339.000000
339000	1000	12	11	30	59	120	84.750000	339.000000
339000	1000	12	11	30	71	80	84.750000	339.000000
339000	500	13	12	29	40	120	84.750000	339.000000
339000	500	14	13	30	40	120	84.750000	339.000000
339000	500	15	14	33	28	120	84.750000	339.000000
339500	500	10	9	16	36	100	84.875000	339.500000
339500	500	13	12	29	52	120	84.875000	339.500000
339500	500	14	13	30	52	120	84.875000	339.500000
339500	500	15	14	33	40	120	84.875000	339.500000
340000	4000	2	1	48	63	100	85.000000	340.000000
340000	500	3	2	80	66	120	85.000000	340.000000
340000	500	9	8	9	78	90	85.000000	340.000000
340000	500	9	8	9	90	90	85.000000	340.000000
340000	500	10	9	16	36	100	85.000000	340.000000
340000	500	10	9	16	46	80	85.000000	340.000000
340000	500	12	11	30	54	120	85.000000	340.000000
340000	500	12	11	30	66	80	85.000000	340.000000
340000	500	13	12	29	40	120	85.000000	340.000000
340000	500	14	13	30	40	120	85.000000	340.000000
340000	500	15	14	33	28	120	85.000000	340.000000
340500	500	3	2	80	71	120	85.125000	340.500000
340500	500	9	8	9	83	90	85.125000	340.500000
340500	500	9	8	9	95	90	85.125000	340.500000
340500	500	10	9	16	36	100	85.125000	340.500000
340500	500	12	11	30	59	120	85.125000	340.500000
340500	500	12	11	30	71	80	85.125000	340.500000
340500	500	13	12	29	52	120	85.125000	340.500000
340500	500	14	13	30	52	120	85.125000	340.500000
340500	500	15	14	33	40	120	85.125000	340.500000
341000	500	10	9	16	38	100	85.250000	341.000000
341000	500	10	9	16	46	80	85.250000	341.000000
341000	500	13	12	29	40	120	85.250000	341.000000
341000	500	14	13	30	40	120	85.250000	341.000000
341000	500	15	14	33	28	120	85.250000	341.000000
341500	1000	3	2	80	73	120	85.375000	341.500000
341500	500	9	8	9	85	90	85.375000	341.500000
341500	500	9	8	9	97	90	85.375000	341.500000
341500	500	10	9	16	36	100	85.375000	341.500000
341500	1000	12	11	30	61	120	85.375000	341.500000
341500	1000	12	11	30	73	80	85.375000	341.500000
341500	500	13	12	29	52	120	85.375000	341.500000
341500	500	14	13	30	52	120	85.375000	341.500000
341500	500	15	14	33	40	120	85.375000	341.500000
342000	500	10	9	16	36	100	85.500000	342.000000
342000	500	10	9	16	46	80	85.500000	342.000000
342000	500	13	12	29	40	120	85.500000	342.000000
342000	500	14	13	30	40	120	85.500000	342.000000
342000	500	15	14	33	28	120	85.500000	342.000000
342500	250	3	2	80	75	120	85.625000	342.500000
342500	250	9	8	9	87	90	85.625000	342.500000
342500	250	9	8	9	99	90	85.625000	342.500000
342500	500	10	9	16	36	100	85.625000	342.500000
342500	250	12	11	30	63	120	85.625000	342.500000
342500	250	12	11	30	75	80	85.625000	342.500000
342500	500	13	12	29	52	120	85.625000	342.500000
342500	500	14	13	30	52	120	85.625000	342.500000
342500	500	15	14	33	40	120	85.625000	342.500000
342750	250	3	2	80	73	120	85.687500	342.750000
342750	250	9	8	9	85	90	85.687500	342.750000
342750	250	9	8	9	97	90	85.687500	342.750000
342750	250	12	11	30	61	120	85.687500	342.750000
342750	250	12	11	30	73	80	85.687500	342.750000
343000	1000	3	2	80	71	120	85.750000	343.000000
343000	500	9	8	9	83	90	85.750000	343.000000
343000	500	9	8	9	95	90	85.750000	343.000000
343000	500	10	9	16	38	100	85.750000	343.000000
343000	500	10	9	16	46	80	85.750000	343.000000
343000	1000	12	11	30	59	120	85.750000	343.000000
343000	1000	12	11	30	71	80	85.750000	343.000000
343000	500	13	12	29	40	120	85.750000	343.000000
343000	500	14	13	30	40	120	85.750000	343.000000
343000	500	15	14	33	28	120	85.750000	343.000000
343500	500	10	9	16	36	100	85.875000	343.500000
343500	500	13	12	29	52	120	85.875000	343.500000
343500	500	14	13	30	52	120	85.875000	343.500000
343500	500	15	14	33	40	120	85.875000	343.500000
344000	4000	2	1	48	42	100	86.000000	344.000000
344000	4000	2	1	48	49	100	86.000000	344.000000
344000	2000	2	1	48	61	100	86.000000	344.000000
344000	1000	3	2	80	63	120	86.000000	344.000000
344000	1000	3	2	80	66	120	86.000000	344.000000
344000	500	9	8	9	78	90	86.000000	344.000000
344000	500	9	8	9	90	90	86.000000	344.000000
344000	500	10	9	16	36	100	86.000000	344.000000
344000	500	10	9	16	46	80	86.000000	344.000000
344000	1000	12	11	30	66	120	86.000000	344.000000
344000	1000	12	11	30	78	80	86.000000	344.000000
344000	500	13	12	29	42	120	86.000000	344.000000
344000	500	14	13	30	42	120	86.000000	344.000000
344000	500	15	14	33	30	120	86.000000	344.000000
344500	500	10	9	16	36	100	86.125000	344.500000
344500	500	13	12	29	42	120	86.125000	344.500000
344500	500	14	13	30	42	120	86.125000	344.500000
344500	500	15	14	33	30	120	86.125000	344.500000
345000	1000	3	2	80	68	120	86.250000	345.000000
345000	1000	3	2	80	71	120	86.250000	345.000000
345000	500	9	8	9	83	90	86.250000	345.000000
345000	500	9	8	9	95	90	86.250000	345.000000
345000	500	10	9	16	38	100	86.250000	345.000000
345000	500	10	9	16	46	80	86.250000	345.000000
345000	1000	12	11	30	59	120	86.250000	345.000000
345000	1000	12	11	30	71	80	86.250000	345.000000
345000	500	13	12	29	54	120	86.250000	345.000000
345000	500	14	13	30	54	120	86.250000	345.000000
345000	500	15	14	33	42	120	86.250000	345.000000
345500	500	10	9	16	36	100	86.375000	345.500000
345500	500	13	12	29	42	120	86.375000	345.500000
345500	500	14	13	30	42	120	86.375000	345.500000
345500	500	15	14	33	30	120	86.375000	345.500000
346000	2000	2	1	48	63	100	86.500000	346.000000
346000	500	3	2	80	73	120	86.500000	346.000000
346000	500	3	2	80	83	120	86.500000	346.000000
346000	500	9	8	9	85	90	86.500000	346.000000
346000	500	9	8	9	97	90	86.500000	346.000000
346000	500	10	9	16	36	100	86.500000	346.000000
346000	500	10	9	16	46	80	86.500000	346.000000
346000	500	12	11	30	61	120	86.500000	346.000000
346000	500	12	11	30	73	80	86.500000	346.000000
346000	500	13	12	29	42	120	86.500000	346.000000
346000	500	14	13	30	42	120	86.500000	346.000000
346000	500	15	14	33	30	120	86.500000	346.000000
346500	500	3	2	80	76	120	86.625000	346.500000
346500	500	3	2	80	82	120	86.625000	346.500000
346500	500	9	8	9	88	90	86.625000	346.500000
346500	500	9	8	9	100	90	86.625000	346.500000
346500	500	10	9	16	36	100	86.625000	346.500000
346500	500	12	11	30	64	120	86.625000	346.500000
346500	500	12	11	30	76	80	86.625000	346.500000
346500	500	13	12	29	54	120	86.625000	346.500000
346500	500	14	13	30	54	120	86.625000	346.500000
346500	500	15	14	33	42	120	86.625000	346.500000
347000	500	10	9	16	38	100	86.750000	347.000000
347000	500	10	9	16	46	80	86.750000	347.000000
347000	500	13	12	29	42	120	86.750000	347.000000
347000	500	14	13	30	42	120	86.750000	347.000000
347000	500	15	14	33	30	120	86.750000	347.000000
347500	500	3	2	80	75	120	86.875000	347.500000
347500	500	3	2	80	78	120	86.875000	347.500000
347500	500	9	8	9	87	90	86.875000	347.500000
347500	500	9	8	9	99	90	86.875000	347.500000
347500	500	10	9	16	36	100	86.875000	347.500000
347500	1000	12	11	30	66	120	86.875000	347.500000
347500	1000	12	11	30	78	80	86.875000	347.500000
347500	500	13	12	29	54	120	86.875000	347.500000
347500	500	14	13	30	54	120	86.875000	347.500000
347500	500	15	14	33	42	120	86.875000	347.500000
348000	4000	2	1	48	44	100	87.000000	348.000000
348000	4000	2	1	48	51	100	87.000000	348.000000
348000	4000	2	1	48	66	100	87.000000	348.000000
348000	500	10	9	16	36	100	87.000000	348.000000
348000	500	10	9	16	46	80	87.000000	348.000000
348000	500	13	12	29	44	120	87.000000	348.000000
348000	500	14	13	30	44	120	87.000000	348.000000
348000	500	15	14	33	32	120	87.000000	348.000000
348500	500	3	2	80	71	120	87.125000	348.500000
348500	500	3	2	80	75	120	87.125000	348.500000
348500	250	9	8	9	88	90	87.125000	348.500000
348500	250	9	8	9	100	90	87.125000	348.500000
348500	500	10	9	16	36	100	87.125000	348.500000
348500	500	12	11	30	63	120	87.125000	348.500000
348500	500	12	11	30	75	80	87.125000	348.500000
348500	500	13	12	29	56	120	87.125000	348.500000
348500	500	14	13	30	56	120	87.125000	348.500000
348500	500	15	14	33	44	120	87.125000	348.500000
348750	250	9	8	9	87	90	87.187500	348.750000
348750	250	9	8	9	99	90	87.187500	348.750000
349000	500	3	2	80	70	120	87.250000	349.000000
349000	500	3	2	80	73	120	87.250000	349.000000
349000	500	9	8	9	85	90	87.250000	349.000000
349000	500	9	8	9	97	90	87.250000	349.000000
349000	500	10	9	16	38	100	87.250000	349.000000
349000	500	10	9	16	46	80	87.250000	349.000000
349000	500	12	11	30	61	120	87.250000	349.000000
349000	500	12	11	30	73	80	87.250000	349.000000
349000	500	13	12	29	44	120	87.250000	349.000000
349000	500	14	13	30	44	120	87.250000	349.000000
349000	500	15	14	33	32	120	87.250000	349.000000
349000	3000	16	15	119	69	100	87.250000	349.000000
349500	1000	3	2	80	68	120	87.375000	349.500000
349500	1000	3	2	80	71	120	87.375000	349.500000
349500	500	10	9	16	36	100	87.375000	349.500000
349500	1000	12	11	30	59	120	87.375000	349.500000
349500	1000	12	11	30	71	80	87.375000	349.500000
349500	500	13	12	29	56	120	87.375000	349.500000
349500	500	14	13	30	56	120	87.375000	349.500000
349500	500	15	14	33	44	120	87.375000	349.500000
350000	500	9	8	9	83	90	87.500000	350.000000
350000	500	9	8	9	95	90	87.500000	350.000000
350000	500	10	9	16	36	100	87.500000	350.000000
350000	500	10	9	16	46	80	87.500000	350.000000
350000	500	13	12	29	44	120	87.500000	350.000000
350000	500	14	13	30	44	120	87.500000	350.000000
350000	500	15	14	33	32	120	87.500000	350.000000
350500	500	3	2	80	70	120	87.625000	350.500000
350500	500	3	2	80	73	120	87.625000	350.500000
350500	500	10	9	16	36	100	87.625000	350.500000
350500	500	12	11	30	61	120	87.625000	350.500000
350500	500	12	11	30	73	80	87.625000	350.500000
350500	500	13	12	29	56	120	87.625000	350.500000
350500	500	14	13	30	56	120	87.625000	350.500000
350500	500	15	14	33	44	120	87.625000	350.500000
351000	500	3	2	80	68	120	87.750000	351.000000
351000	500	3	2	80	71	120	87.750000	351.000000
351000	500	9	8	9	78	90	87.750000	351.000000
351000	500	9	8	9	90	90	87.750000	351.000000
351000	500	10	9	16	38	100	87.750000	351.000000
351000	500	10	9	16	46	80	87.750000	351.000000
351000	500	12	11	30	59	120	87.750000	351.000000
351000	500	12	11	30	71	80	87.750000	351.000000
351000	500	13	12	29	44	120	87.750000	351.000000
351000	500	14	13	30	44	120	87.750000	351.000000
351000	500	15	14	33	32	120	87.750000	351.000000
351500	500	3	2	80	63	120	87.875000	351.500000
351500	500	3	2	80	66	120	87.875000	351.500000
351500	500	10	9	16	36	100	87.875000	351.500000
351500	500	12	11	30	54	120	87.875000	351.500000
351500	500	12	11	30	66	80	87.875000	351.500000
351500	500	13	12	29	56	120	87.875000	351.500000
351500	500	14	13	30	56	120	87.875000	351.500000
351500	500	15	14	33	44	120	87.875000	351.500000
352000	4000	5	4	0	51	100	88.000000	352.000000
352000	4000	5	4	0	54	100	88.000000	352.000000
352000	4000	5	4	0	58	100	88.000000	352.000000
352000	4000	5	4	0	63	100	88.000000	352.000000
352000	500	10	9	16	49	80	88.000000	352.000000
352500	250	2	1	48	70	100	88.125000	352.500000
352500	250	2	1	48	75	100	88.125000	352.500000
352500	250	2	1	48	78	100	88.125000	352.500000
352500	250	3	2	80	78	120	88.125000	352.500000
353000	124	2	1	48	70	100	88.250000	353.000000
353000	124	2	1	48	75	100	88.250000	353.000000
353000	124	2	1	48	78	100	88.250000	353.000000
353000	124	3	2	80	78	120	88.250000	353.000000
353250	124	2	1	48	70	100	88.312500	353.250000
353250	124	2	1	48	75	100	88.312500	353.250000
353250	124	2	1	48	78	100	88.312500	353.250000
353250	124	3	2	80	78	120	88.312500	353.250000
353750	500	2	1	48	70	100	88.437500	353.750000
353750	500	2	1	48	75	100	88.437500	353.750000
353750	500	2	1	48	78	100	88.437500	353.750000
353750	500	3	2	80	78	120	88.437500	353.750000
354250	250	2	1	48	70	100	88.562500	354.250000
354250	250	2	1	48	75	100	88.562500	354.250000
354250	250	2	1	48	78	100	88.562500	354.250000
354250	250	3	2	80	78	120	88.562500	354.250000
354500	374	2	1	48	68	100	88.625000	354.500000
354500	374	2	1	48	73	100	88.625000	354.500000
354500	374	2	1	48	76	100	88.625000	354.500000
354500	374	3	2	80	76	120	88.625000	354.500000
355000	374	2	1	48	66	100	88.750000	355.000000
355000	374	2	1	48	71	100	88.750000	355.000000
355000	374	2	1	48	75	100	88.750000	355.000000
355000	374	3	2	80	75	120	88.750000	355.000000
355500	374	2	1	48	68	100	88.875000	355.500000
355500	374	2	1	48	73	100	88.875000	355.500000
355500	374	2	1	48	76	100	88.875000	355.500000
355500	374	3	2	80	76	120	88.875000	355.500000
356000	1000	2	1	48	71	100	89.000000	356.000000
356000	1000	2	1	48	75	100	89.000000	356.000000
356000	1000	2	1	48	78	100	89.000000	356.000000
356000	1000	3	2	80	78	120	89.000000	356.000000
356000	4000	5	4	0	52	100	89.000000	356.000000
356000	4000	5	4	0	56	100	89.000000	356.000000
356000	4000	5	4	0	59	100	89.000000	356.000000
356000	4000	5	4	0	64	100	89.000000	356.000000
357000	500	2	1	48	75	100	89.250000	357.000000
357000	500	2	1	48	78	100	89.250000	357.000000
357000	500	2	1	48	83	100	89.250000	357.000000
357000	500	3	2	80	83	120	89.250000	357.000000
357750	1750	2	1	48	71	100	89.437500	357.750000
357750	1750	2	1	48	75	100	89.437500	357.750000
357750	1750	2	1	48	78	100	89.437500	357.750000
357750	1750	3	2	80	78	120	89.437500	357.750000
359000	500	12	11	30	61	120	89.750000	359.000000
359500	500	12	11	30	63	120	89.875000	359.500000
360000	4000	5	4	0	51	100	90.000000	360.000000
360000	4000	5	4	0	54	100	90.000000	360.000000
360000	4000	5	4	0	58	100	90.000000	360.000000
360000	4000	5	4	0	63	100	90.000000	360.000000
360000	1000	12	11	30	54	120	90.000000	360.000000
360500	250	2	1	48	70	100	90.125000	360.500000
360500	250	2	1	48	75	100	90.125000	360.500000
360500	250	2	1	48	78	100	90.125000	360.500000
360500	250	3	2	80	78	120	90.125000	360.500000
361000	124	2	1	48	70	100	90.250000	361.000000
361000	124	2	1	48	75	100	90.250000	361.000000
361000	124	2	1	48	78	100	90.250000	361.000000
361000	124	3	2	80	78	120	90.250000	361.000000
361250	124	2	1	48	70	100	90.312500	361.250000
361250	124	2	1	48	75	100	90.312500	361.250000
361250	124	2	1	48	78	100	90.312500	361.250000
361250	124	3	2	80	78	120	90.312500	361.250000
361750	500	2	1	48	70	100	90.437500	361.750000
361750	500	2	1	48	75	100	90.437500	361.750000
361750	500	2	1	48	78	100	90.437500	361.750000
361750	500	3	2	80	78	120	90.437500	361.750000
362250	250	2	1	48	70	100	90.562500	362.250000
362250	250	2	1	48	75	100	90.562500	362.250000
362250	250	2	1	48	78	100	90.562500	362.250000
362250	250	3	2	80	78	120	90.562500	362.250000
362500	500	2	1	48	68	100	90.625000	362.500000
362500	500	2	1	48	73	100	90.625000	362.500000
362500	500	2	1	48	76	100	90.625000	362.500000
362500	500	3	2	80	76	120	90.625000	362.500000
363000	500	2	1	48	66	100	90.750000	363.000000
363000	500	2	1	48	71	100	90.750000	363.000000
363000	500	2	1	48	75	100	90.750000	363.000000
363000	500	3	2	80	75	120	90.750000	363.000000
363500	500	2	1	48	68	100	90.875000	363.500000
363500	500	2	1	48	73	100	90.875000	363.500000
363500	500	2	1	48	76	100	90.875000	363.500000
363500	500	3	2	80	76	120	90.875000	363.500000
364000	500	2	1	48	70	100	91.000000	364.000000
364000	500	2	1	48	75	100	91.000000	364.000000
364000	500	2	1	48	78	100	91.000000	364.000000
364000	500	3	2	80	78	120	91.000000	364.000000
364000	1500	5	4	0	54	100	91.000000	364.000000
364000	1500	5	4	0	58	100	91.000000	364.000000
364000	1500	5	4	0	61	100	91.000000	364.000000
364000	1500	5	4	0	66	100	91.000000	364.000000
364500	500	2	1	48	66	100	91.125000	364.500000
364500	500	2	1	48	70	100	91.125000	364.500000
364500	500	2	1	48	73	100	91.125000	364.500000
364500	500	3	2	80	73	120	91.125000	364.500000
365000	500	2	1	48	63	100	91.250000	365.000000
365000	500	2	1	48	66	100	91.250000	365.000000
365000	500	2	1	48	70	100	91.250000	365.000000
365000	500	3	2	80	70	120	91.250000	365.000000
365500	2500	2	1	48	63	100	91.375000	365.500000
365500	2500	2	1	48	68	100	91.375000	365.500000
365500	2500	2	1	48	71	100	91.375000	365.500000
365500	2500	3	2	80	71	120	91.375000	365.500000
365500	2500	5	4	0	56	100	91.375000	365.500000
365500	2500	5	4	0	59	100	91.375000	365.500000
365500	2500	5	4	0	63	100	91.375000	365.500000
365500	2500	5	4	0	68	100	91.375000	365.500000
366000	2000	16	15	119	57	100	91.500000	366.000000
366500	500	12	11	30	51	120	91.625000	366.500000
367000	500	12	11	30	49	120	91.750000	367.000000
367500	500	12	11	30	47	120	91.875000	367.500000
368000	8000	2	1	48	39	100	92.000000	368.000000
368000	8000	2	1	48	46	100	92.000000	368.000000
368000	500	10	9	16	36	100	92.000000	368.000000
368000	500	10	9	16	46	80	92.000000	368.000000
368000	500	10	9	16	49	100	92.000000	368.000000
368000	500	13	12	29	39	120	92.000000	368.000000
368000	500	14	13	30	39	120	92.000000	368.000000
368000	500	15	14	33	27	120	92.000000	368.000000
368500	500	10	9	16	36	100	92.125000	368.500000
368500	500	13	12	29	39	120	92.125000	368.500000
368500	500	14	13	30	39	120	92.125000	368.500000
368500	500	15	14	33	27	120	92.125000	368.500000
369000	500	2	1	48	66	100	92.250000	369.000000
369000	500	2	1	48	70	100	92.250000	369.000000
369000	500	2	1	48	75	100	92.250000	369.000000
369000	500	2	1	48	78	100	92.250000	369.000000
369000	500	3	2	80	66	120	92.250000	369.000000
369000	500	3	2	80	78	120	92.250000	369.000000
369000	500	3	2	80	90	100	92.250000	369.000000
369000	500	10	9	16	38	100	92.250000	369.000000
369000	500	10	9	16	46	80	92.250000	369.000000
369000	500	13	12	29	51	120	92.250000	369.000000
369000	500	14	13	30	51	120	92.250000	369.000000
369000	500	15	14	33	39	120	92.250000	369.000000
369500	500	10	9	16	36	100	92.375000	369.500000
369500	500	13	12	29	39	120	92.375000	369.500000
369500	500	14	13	30	39	120	92.375000	369.500000
369500	500	15	14	33	27	120	92.375000	369.500000
370000	500	2	1	48	66	100	92.500000	370.000000
370000	500	2	1	48	70	100	92.500000	370.000000
370000	500	2	1	48	75	100	92.500000	370.000000
370000	500	2	1	48	78	100	92.500000	370.000000
370000	250	3	2	80	66	120	92.500000	370.000000
370000	250	3	2	80	78	120	92.500000	370.000000
370000	250	3	2	80	90	100	92.500000	370.000000
370000	500	10	9	16	36	100	92.500000	370.000000
370000	500	10	9	16	46	80	92.500000	370.000000
370000	500	13	12	29	39	120	92.500000	370.000000
370000	500	14	13	30	39	120	92.500000	370.000000
370000	500	15	14	33	27	120	92.500000	370.000000
370500	500	2	1	48	66	100	92.625000	370.500000
370500	500	2	1	48	70	100	92.625000	370.500000
370500	500	2	1	48	75	100	92.625000	370.500000
370500	500	2	1	48	78	100	92.625000	370.500000
370500	250	3	2	80	66	120	92.625000	370.500000
370500	250	3	2	80	78	120	92.625000	370.500000
370500	250	3	2	80	90	100	92.625000	370.500000
370500	500	10	9	16	36	100	92.625000	370.500000
370500	500	13	12	29	51	120	92.625000	370.500000
370500	500	14	13	30	51	120	92.625000	370.500000
370500	500	15	14	33	39	120	92.625000	370.500000
371000	500	10	9	16	38	100	92.750000	371.000000
371000	500	10	9	16	46	80	92.750000	371.000000
371000	500	13	12	29	39	120	92.750000	371.000000
371000	500	14	13	30	39	120	92.750000	371.000000
371000	500	15	14	33	27	120	92.750000	371.000000
371500	1000	2	1	48	66	100	92.875000	371.500000
371500	1000	2	1	48	70	100	92.875000	371.500000
371500	1000	2	1	48	75	100	92.875000	371.500000
371500	1000	2	1	48	78	100	92.875000	371.500000
371500	1000	3	2	80	66	120	92.875000	371.500000
371500	1000	3	2	80	78	120	92.875000	371.500000
371500	1000	3	2	80	90	100	92.875000	371.500000
371500	500	10	9	16	36	100	92.875000	371.500000
371500	500	13	12	29	39	120	92.875000	371.500000
371500	500	14	13	30	39	120	92.875000	371.500000
371500	500	15	14	33	27	120	92.875000	371.500000
372000	500	10	9	16	36	100	93.000000	372.000000
372000	500	10	9	16	46	80	93.000000	372.000000
372000	500	13	12	29	39	120	93.000000	372.000000
372000	500	14	13	30	39	120	93.000000	372.000000
372000	500	15	14	33	27	120	93.000000	372.000000
372500	500	2	1	48	66	100	93.125000	372.500000
372500	500	2	1	48	70	100	93.125000	372.500000
372500	500	2	1	48	75	100	93.125000	372.500000
372500	500	2	1	48	78	100	93.125000	372.500000
372500	500	3	2	80	66	120	93.125000	372.500000
372500	500	3	2	80	78	120	93.125000	372.500000
372500	500	3	2	80	90	100	93.125000	372.500000
372500	500	10	9	16	36	100	93.125000	372.500000
372500	500	13	12	29	39	120	93.125000	372.500000
372500	500	14	13	30	39	120	93.125000	372.500000
372500	500	15	14	33	27	120	93.125000	372.500000
373000	750	2	1	48	64	100	93.250000	373.000000
373000	750	2	1	48	68	100	93.250000	373.000000
373000	750	2	1	48	73	100	93.250000	373.000000
373000	750	2	1	48	76	100	93.250000	373.000000
373000	750	3	2	80	64	120	93.250000	373.000000
373000	750	3	2	80	76	120	93.250000	373.000000
373000	750	3	2	80	88	100	93.250000	373.000000
373000	500	10	9	16	38	100	93.250000	373.000000
373000	500	10	9	16	46	80	93.250000	373.000000
373000	500	13	12	29	51	120	93.250000	373.000000
373000	500	14	13	30	51	120	93.250000	373.000000
373000	500	15	14	33	39	120	93.250000	373.000000
373500	500	10	9	16	36	100	93.375000	373.500000
373500	500	13	12	29	39	120	93.375000	373.500000
373500	500	14	13	30	39	120	93.375000	373.500000
373500	500	15	14	33	27	120	93.375000	373.500000
374000	750	2	1	48	63	100	93.500000	374.000000
374000	750	2	1	48	66	100	93.500000	374.000000
374000	750	2	1	48	71	100	93.500000	374.000000
374000	750	2	1	48	75	100	93.500000	374.000000
374000	750	3	2	80	63	120	93.500000	374.000000
374000	750	3	2	80	75	120	93.500000	374.000000
374000	750	3	2	80	87	100	93.500000	374.000000
374000	500	10	9	16	36	100	93.500000	374.000000
374000	500	10	9	16	46	80	93.500000	374.000000
374000	500	13	12	29	39	120	93.500000	374.000000
374000	500	14	13	30	39	120	93.500000	374.000000
374000	500	15	14	33	27	120	93.500000	374.000000
374500	500	10	9	16	36	100	93.625000	374.500000
374500	500	13	12	29	51	120	93.625000	374.500000
374500	500	14	13	30	51	120	93.625000	374.500000
374500	500	15	14	33	39	120	93.625000	374.500000
375000	750	2	1	48	64	100	93.750000	375.000000
375000	750	2	1	48	68	100	93.750000	375.000000
375000	750	2	1	48	73	100	93.750000	375.000000
375000	750	2	1	48	76	100	93.750000	375.000000
375000	750	3	2	80	64	120	93.750000	375.000000
375000	750	3	2	80	76	120	93.750000	375.000000
375000	750	3	2	80	88	100	93.750000	375.000000
375000	500	10	9	16	38	100	93.750000	375.000000
375000	500	10	9	16	46	80	93.750000	375.000000
375000	500	13	12	29	39	120	93.750000	375.000000
375000	500	14	13	30	39	120	93.750000	375.000000
375000	500	15	14	33	27	120	93.750000	375.000000
375500	500	10	9	16	36	100	93.875000	375.500000
375500	500	13	12	29	39	120	93.875000	375.500000
375500	500	14	13	30	39	120	93.875000	375.500000
375500	500	15	14	33	27	120	93.875000	375.500000
376000	8000	2	1	48	40	100	94.000000	376.000000
376000	4000	2	1	48	47	100	94.000000	376.000000
376000	2000	2	1	48	66	100	94.000000	376.000000
376000	2000	2	1	48	71	100	94.000000	376.000000
376000	2000	2	1	48	75	100	94.000000	376.000000
376000	2000	2	1	48	78	100	94.000000	376.000000
376000	2000	3	2	80	66	120	94.000000	376.000000
376000	2000	3	2	80	78	120	94.000000	376.000000
376000	2000	3	2	80	90	100	94.000000	376.000000
376000	250	5	4	0	88	120	94.000000	376.000000
376000	500	10	9	16	36	100	94.000000	376.000000
376000	500	10	9	16	46	80	94.000000	376.000000
376000	500	13	12	29	40	120	94.000000	376.000000
376000	500	14	13	30	40	120	94.000000	376.000000
376000	500	15	14	33	28	120	94.000000	376.000000
376500	250	5	4	0	92	120	94.125000	376.500000
376500	500	10	9	16	36	100	94.125000	376.500000
376500	500	13	12	29	40	120	94.125000	376.500000
376500	500	14	13	30	40	120	94.125000	376.500000
376500	500	15	14	33	28	120	94.125000	376.500000
377000	250	5	4	0	95	120	94.250000	377.000000
377000	500	10	9	16	38	100	94.250000	377.000000
377000	500	10	9	16	46	80	94.250000	377.000000
377000	500	13	12	29	52	120	94.250000	377.000000
377000	500	14	13	30	52	120	94.250000	377.000000
377000	500	15	14	33	40	120	94.250000	377.000000
377500	250	5	4	0	100	120	94.375000	377.500000
377500	500	10	9	16	36	100	94.375000	377.500000
377500	500	13	12	29	40	120	94.375000	377.500000
377500	500	14	13	30	40	120	94.375000	377.500000
377500	500	15	14	33	28	120	94.375000	377.500000
378000	1000	2	1	48	71	100	94.500000	378.000000
378000	1000	2	1	48	75	100	94.500000	378.000000
378000	1000	2	1	48	78	100	94.500000	378.000000
378000	1000	2	1	48	83	100	94.500000	378.000000
378000	1000	3	2	80	71	120	94.500000	378.000000
378000	1000	3	2	80	83	120	94.500000	378.000000
378000	1000	3	2	80	95	100	94.500000	378.000000
378000	250	5	4	0	95	120	94.500000	378.000000
378000	500	10	9	16	36	100	94.500000	378.000000
378000	500	10	9	16	46	80	94.500000	378.000000
378000	500	13	12	29	40	120	94.500000	378.000000
378000	500	14	13	30	40	120	94.500000	378.000000
378000	500	15	14	33	28	120	94.500000	378.000000
378500	250	5	4	0	92	120	94.625000	378.500000
378500	500	10	9	16	36	100	94.625000	378.500000
378500	500	13	12	29	52	120	94.625000	378.500000
378500	500	14	13	30	52	120	94.625000	378.500000
378500	500	15	14	33	40	120	94.625000	378.500000
379000	500	10	9	16	38	100	94.750000	379.000000
379000	500	10	9	16	46	80	94.750000	379.000000
379000	500	13	12	29	40	120	94.750000	379.000000
379000	500	14	13	30	40	120	94.750000	379.000000
379000	500	15	14	33	28	120	94.750000	379.000000
379500	2500	2	1	48	66	100	94.875000	379.500000
379500	2500	2	1	48	71	100	94.875000	379.500000
379500	2500	2	1	48	75	100	94.875000	379.500000
379500	2500	2	1	48	78	100	94.875000	379.500000
379500	2500	3	2	80	66	120	94.875000	379.500000
379500	2500	3	2	80	78	120	94.875000	379.500000
379500	2500	3	2	80	90	100	94.875000	379.500000
379500	250	5	4	0	100	120	94.875000	379.500000
379500	500	10	9	16	36	100	94.875000	379.500000
379500	500	13	12	29	40	120	94.875000	379.500000
379500	500	14	13	30	40	120	94.875000	379.500000
379500	500	15	14	33	28	120	94.875000	379.500000
380000	4000	2	1	48	47	100	95.000000	380.000000
380000	250	5	4	0	88	120	95.000000	380.000000
380000	500	10	9	16	36	100	95.000000	380.000000
380000	500	10	9	16	46	80	95.000000	380.000000
380000	500	13	12	29	40	120	95.000000	380.000000
380000	500	14	13	30	40	120	95.000000	380.000000
380000	500	15	14	33	28	120	95.000000	380.000000
380500	250	5	4	0	92	120	95.125000	380.500000
380500	500	10	9	16	36	100	95.125000	380.500000
380500	500	13	12	29	40	120	95.125000	380.500000
380500	500	14	13	30	40	120	95.125000	380.500000
380500	500	15	14	33	28	120	95.125000	380.500000
381000	250	5	4	0	95	120	95.250000	381.000000
381000	500	10	9	16	38	100	95.250000	381.000000
381000	500	10	9	16	46	80	95.250000	381.000000
381000	500	13	12	29	52	120	95.250000	381.000000
381000	500	14	13	30	52	120	95.250000	381.000000
381000	500	15	14	33	40	120	95.250000	381.000000
381500	250	5	4	0	100	120	95.375000	381.500000
381500	500	10	9	16	36	100	95.375000	381.500000
381500	500	13	12	29	40	120	95.375000	381.500000
381500	500	14	13	30	40	120	95.375000	381.500000
381500	500	15	14	33	28	120	95.375000	381.500000
382000	250	5	4	0	88	120	95.500000	382.000000
382000	500	10	9	16	36	100	95.500000	382.000000
382000	500	10	9	16	46	80	95.500000	382.000000
382000	1000	12	11	30	61	120	95.500000	382.000000
382000	500	13	12	29	40	120	95.500000	382.000000
382000	500	14	13	30	40	120	95.500000	382.000000
382000	500	15	14	33	28	120	95.500000	382.000000
382500	250	5	4	0	92	120	95.625000	382.500000
382500	500	10	9	16	36	100	95.625000	382.500000
382500	500	13	12	29	52	120	95.625000	382.500000
382500	500	14	13	30	52	120	95.625000	382.500000
382500	500	15	14	33	40	120	95.625000	382.500000
383000	250	5	4	0	95	120	95.750000	383.000000
383000	500	10	9	16	38	100	95.750000	383.000000
383000	500	10	9	16	46	80	95.750000	383.000000
383000	1000	12	11	30	63	120	95.750000	383.000000
383000	500	13	12	29	40	120	95.750000	383.000000
383000	500	14	13	30	40	120	95.750000	383.000000
383000	500	15	14	33	28	120	95.750000	383.000000
383500	250	5	4	0	100	120	95.875000	383.500000
383500	500	10	9	16	36	100	95.875000	383.500000
383500	500	13	12	29	40	120	95.875000	383.500000
383500	500	14	13	30	40	120	95.875000	383.500000
383500	500	15	14	33	28	120	95.875000	383.500000
384000	8000	2	1	48	39	100	96.000000	384.000000
384000	8000	2	1	48	46	100	96.000000	384.000000
384000	500	10	9	16	36	100	96.000000	384.000000
384000	500	10	9	16	46	80	96.000000	384.000000
384000	2000	12	11	30	54	120	96.000000	384.000000
384000	500	13	12	29	39	120	96.000000	384.000000
384000	500	14	13	30	39	120	96.000000	384.000000
384000	500	15	14	33	27	120	96.000000	384.000000
384500	500	10	9	16	36	100	96.125000	384.500000
384500	500	13	12	29	39	120	96.125000	384.500000
384500	500	14	13	30	39	120	96.125000	384.500000
384500	500	15	14	33	27	120	96.125000	384.500000
385000	500	2	1	48	66	100	96.250000	385.000000
385000	500	2	1	48	70	100	96.250000	385.000000
385000	500	2	1	48	75	100	96.250000	385.000000
385000	500	2	1	48	78	100	96.250000	385.000000
385000	500	3	2	80	66	120	96.250000	385.000000
385000	500	3	2	80	78	120	96.250000	385.000000
385000	500	3	2	80	90	100	96.250000	385.000000
385000	500	10	9	16	38	100	96.250000	385.000000
385000	500	10	9	16	46	80	96.250000	385.000000
385000	500	13	12	29	51	120	96.250000	385.000000
385000	500	14	13	30	51	120	96.250000	385.000000
385000	500	15	14	33	39	120	96.250000	385.000000
385500	500	10	9	16	36	100	96.375000	385.500000
385500	500	13	12	29	39	120	96.375000	385.500000
385500	500	14	13	30	39	120	96.375000	385.500000
385500	500	15	14	33	27	120	96.375000	385.500000
386000	500	2	1	48	66	100	96.500000	386.000000
386000	500	2	1	48	70	100	96.500000	386.000000
386000	500	2	1	48	75	100	96.500000	386.000000
386000	500	2	1	48	78	100	96.500000	386.000000
386000	250	3	2	80	66	120	96.500000	386.000000
386000	250	3	2	80	78	120	96.500000	386.000000
386000	250	3	2	80	90	100	96.500000	386.000000
386000	500	10	9	16	36	100	96.500000	386.000000
386000	500	10	9	16	46	80	96.500000	386.000000
386000	500	13	12	29	39	120	96.500000	386.000000
386000	500	14	13	30	39	120	96.500000	386.000000
386000	500	15	14	33	27	120	96.500000	386.000000
386500	500	2	1	48	66	100	96.625000	386.500000
386500	500	2	1	48	70	100	96.625000	386.500000
386500	500	2	1	48	75	100	96.625000	386.500000
386500	500	2	1	48	78	100	96.625000	386.500000
386500	250	3	2	80	66	120	96.625000	386.500000
386500	250	3	2	80	78	120	96.625000	386.500000
386500	250	3	2	80	90	100	96.625000	386.500000
386500	500	10	9	16	36	100	96.625000	386.500000
386500	500	13	12	29	51	120	96.625000	386.500000
386500	500	14	13	30	51	120	96.625000	386.500000
386500	500	15	14	33	39	120	96.625000	386.500000
387000	500	10	9	16	38	100	96.750000	387.000000
387000	500	10	9	16	46	80	96.750000	387.000000
387000	500	13	12	29	39	120	96.750000	387.000000
387000	500	14	13	30	39	120	96.750000	387.000000
387000	500	15	14	33	27	120	96.750000	387.000000
387500	1000	2	1	48	66	100	96.875000	387.500000
387500	1000	2	1	48	70	100	96.875000	387.500000
387500	1000	2	1	48	75	100	96.875000	387.500000
387500	1000	2	1	48	78	100	96.875000	387.500000
387500	1000	3	2	80	66	120	96.875000	387.500000
387500	1000	3	2	80	78	120	96.875000	387.500000
387500	1000	3	2	80	90	100	96.875000	387.500000
387500	500	10	9	16	36	100	96.875000	387.500000
387500	500	13	12	29	39	120	96.875000	387.500000
387500	500	14	13	30	39	120	96.875000	387.500000
387500	500	15	14	33	27	120	96.875000	387.500000
388000	500	10	9	16	36	100	97.000000	388.000000
388000	500	10	9	16	46	80	97.000000	388.000000
388000	500	13	12	29	39	120	97.000000	388.000000
388000	500	14	13	30	39	120	97.000000	388.000000
388000	500	15	14	33	27	120	97.000000	388.000000
388500	500	2	1	48	66	100	97.125000	388.500000
388500	500	2	1	48	70	100	97.125000	388.500000
388500	500	2	1	48	75	100	97.125000	388.500000
388500	500	2	1	48	78	100	97.125000	388.500000
388500	500	3	2	80	66	120	97.125000	388.500000
388500	500	3	2	80	78	120	97.125000	388.500000
388500	500	3	2	80	90	100	97.125000	388.500000
388500	500	10	9	16	36	100	97.125000	388.500000
388500	500	13	12	29	39	120	97.125000	388.500000
388500	500	14	13	30	39	120	97.125000	388.500000
388500	500	15	14	33	27	120	97.125000	388.500000
389000	1000	2	1	48	64	100	97.250000	389.000000
389000	1000	2	1	48	68	100	97.250000	389.000000
389000	1000	2	1	48	73	100	97.250000	389.000000
389000	1000	2	1	48	76	100	97.250000	389.000000
389000	1000	3	2	80	64	120	97.250000	389.000000
389000	1000	3	2	80	76	120	97.250000	389.000000
389000	1000	3	2	80	88	100	97.250000	389.000000
389000	500	10	9	16	38	100	97.250000	389.000000
389000	500	10	9	16	46	80	97.250000	389.000000
389000	500	13	12	29	51	120	97.250000	389.000000
389000	500	14	13	30	51	120	97.250000	389.000000
389000	500	15	14	33	39	120	97.250000	389.000000
389500	500	10	9	16	36	100	97.375000	389.500000
389500	500	13	12	29	39	120	97.375000	389.500000
389500	500	14	13	30	39	120	97.375000	389.500000
389500	500	15	14	33	27	120	97.375000	389.500000
390000	1000	2	1	48	63	100	97.500000	390.000000
390000	1000	2	1	48	66	100	97.500000	390.000000
390000	1000	2	1	48	71	100	97.500000	390.000000
390000	1000	2	1	48	75	100	97.500000	390.000000
390000	1000	3	2	80	63	120	97.500000	390.000000
390000	1000	3	2	80	75	120	97.500000	390.000000
390000	1000	3	2	80	87	100	97.500000	390.000000
390000	500	10	9	16	36	100	97.500000	390.000000
390000	500	10	9	16	46	80	97.500000	390.000000
390000	500	13	12	29	39	120	97.500000	390.000000
390000	500	14	13	30	39	120	97.500000	390.000000
390000	500	15	14	33	27	120	97.500000	390.000000
390500	500	10	9	16	36	100	97.625000	390.500000
390500	500	13	12	29	51	120	97.625000	390.500000
390500	500	14	13	30	51	120	97.625000	390.500000
390500	500	15	14	33	39	120	97.625000	390.500000
391000	1000	2	1	48	64	100	97.750000	391.000000
391000	1000	2	1	48	68	100	97.750000	391.000000
391000	1000	2	1	48	73	100	97.750000	391.000000
391000	1000	2	1	48	76	100	97.750000	391.000000
391000	1000	3	2	80	64	120	97.750000	391.000000
391000	1000	3	2	80	76	120	97.750000	391.000000
391000	1000	3	2	80	88	100	97.750000	391.000000
391000	500	10	9	16	38	100	97.750000	391.000000
391000	500	10	9	16	46	80	97.750000	391.000000
391000	500	13	12	29	39	120	97.750000	391.000000
391000	500	14	13	30	39	120	97.750000	391.000000
391000	500	15	14	33	27	120	97.750000	391.000000
391500	500	10	9	16	36	100	97.875000	391.500000
391500	500	13	12	29	39	120	97.875000	391.500000
391500	500	14	13	30	39	120	97.875000	391.500000
391500	500	15	14	33	30	120	97.875000	391.500000
392000	3000	2	1	48	42	100	98.000000	392.000000
392000	3000	2	1	48	49	100	98.000000	392.000000
392000	1000	2	1	48	66	100	98.000000	392.000000
392000	1000	2	1	48	71	100	98.000000	392.000000
392000	1000	2	1	48	75	100	98.000000	392.000000
392000	1000	2	1	48	78	100	98.000000	392.000000
392000	1000	3	2	80	66	120	98.000000	392.000000
392000	1000	3	2	80	78	120	98.000000	392.000000
392000	1000	3	2	80	90	100	98.000000	392.000000
392000	500	10	9	16	36	100	98.000000	392.000000
392000	500	10	9	16	46	80	98.000000	392.000000
392000	1000	12	11	30	61	120	98.000000	392.000000
392000	500	13	12	29	42	120	98.000000	392.000000
392000	500	14	13	30	42	120	98.000000	392.000000
392000	500	15	14	33	30	120	98.000000	392.000000
392500	500	10	9	16	36	100	98.125000	392.500000
392500	500	13	12	29	42	120	98.125000	392.500000
392500	500	14	13	30	42	120	98.125000	392.500000
392500	500	15	14	33	30	120	98.125000	392.500000
393000	1000	2	1	48	71	100	98.250000	393.000000
393000	1000	2	1	48	75	100	98.250000	393.000000
393000	1000	2	1	48	80	100	98.250000	393.000000
393000	1000	2	1	48	83	100	98.250000	393.000000
393000	1000	3	2	80	71	120	98.250000	393.000000
393000	1000	3	2	80	83	120	98.250000	393.000000
393000	1000	3	2	80	95	100	98.250000	393.000000
393000	500	10	9	16	38	100	98.250000	393.000000
393000	500	10	9	16	46	80	98.250000	393.000000
393000	1000	12	11	30	63	120	98.250000	393.000000
393000	500	13	12	29	54	120	98.250000	393.000000
393000	500	14	13	30	54	120	98.250000	393.000000
393000	500	15	14	33	42	120	98.250000	393.000000
393500	500	10	9	16	36	100	98.375000	393.500000
393500	500	13	12	29	42	120	98.375000	393.500000
393500	500	14	13	30	42	120	98.375000	393.500000
393500	500	15	14	33	30	120	98.375000	393.500000
394000	1000	2	1	48	70	100	98.500000	394.000000
394000	1000	2	1	48	73	100	98.500000	394.000000
394000	1000	2	1	48	78	100	98.500000	394.000000
394000	1000	2	1	48	82	100	98.500000	394.000000
394000	1000	3	2	80	70	120	98.500000	394.000000
394000	1000	3	2	80	82	120	98.500000	394.000000
394000	1000	3	2	80	94	100	98.500000	394.000000
394000	500	10	9	16	36	100	98.500000	394.000000
394000	500	10	9	16	46	80	98.500000	394.000000
394000	1000	12	11	30	61	120	98.500000	394.000000
394000	500	13	12	29	42	120	98.500000	394.000000
394000	500	14	13	30	42	120	98.500000	394.000000
394000	500	15	14	33	30	120	98.500000	394.000000
394500	500	10	9	16	36	100	98.625000	394.500000
394500	500	13	12	29	54	120	98.625000	394.500000
394500	500	14	13	30	54	120	98.625000	394.500000
394500	500	15	14	33	42	120	98.625000	394.500000
395000	5000	2	1	48	44	100	98.750000	395.000000
395000	5000	2	1	48	51	100	98.750000	395.000000
395000	4000	2	1	48	71	100	98.750000	395.000000
395000	4000	2	1	48	75	100	98.750000	395.000000
395000	4000	2	1	48	80	100	98.750000	395.000000
395000	4000	2	1	48	83	100	98.750000	395.000000
395000	4000	3	2	80	71	120	98.750000	395.000000
395000	4000	3	2	80	83	120	98.750000	395.000000
395000	4000	3	2	80	95	100	98.750000	395.000000
395000	500	10	9	16	38	100	98.750000	395.000000
395000	500	10	9	16	46	80	98.750000	395.000000
395000	2000	12	11	30	59	120	98.750000	395.000000
395000	500	13	12	29	56	120	98.750000	395.000000
395000	500	14	13	30	56	120	98.750000	395.000000
395000	500	15	14	33	44	120	98.750000	395.000000
395500	500	10	9	16	36	100	98.875000	395.500000
395500	500	13	12	29	44	120	98.875000	395.500000
395500	500	14	13	30	44	120	98.875000	395.500000
395500	500	15	14	33	32	120	98.875000	395.500000
396000	500	10	9	16	36	100	99.000000	396.000000
396000	500	10	9	16	46	80	99.000000	396.000000
396000	500	13	12	29	44	120	99.000000	396.000000
396000	500	14	13	30	44	120	99.000000	396.000000
396000	500	15	14	33	32	120	99.000000	396.000000
396500	500	10	9	16	36	100	99.125000	396.500000
396500	500	13	12	29	56	120	99.125000	396.500000
396500	500	14	13	30	56	120	99.125000	396.500000
396500	500	15	14	33	44	120	99.125000	396.500000
397000	500	10	9	16	38	100	99.250000	397.000000
397000	500	10	9	16	46	80	99.250000	397.000000
397000	1000	12	11	30	51	120	99.250000	397.000000
397000	500	13	12	29	44	120	99.250000	397.000000
397000	500	14	13	30	44	120	99.250000	397.000000
397000	500	15	14	33	32	120	99.250000	397.000000
397500	500	10	9	16	36	100	99.375000	397.500000
397500	500	13	12	29	56	120	99.375000	397.500000
397500	500	14	13	30	56	120	99.375000	397.500000
397500	500	15	14	33	44	120	99.375000	397.500000
398000	500	10	9	16	36	100	99.500000	398.000000
398000	500	10	9	16	46	80	99.500000	398.000000
398000	1000	12	11	30	49	120	99.500000	398.000000
398000	500	13	12	29	44	120	99.500000	398.000000
398000	500	14	13	30	44	120	99.500000	398.000000
398000	500	15	14	33	32	120	99.500000	398.000000
398500	500	10	9	16	36	100	99.625000	398.500000
398500	500	13	12	29	44	120	99.625000	398.500000
398500	500	14	13	30	44	120	99.625000	398.500000
398500	500	15	14	33	32	120	99.625000	398.500000
399000	500	10	9	16	38	100	99.750000	399.000000
399000	500	10	9	16	46	80	99.750000	399.000000
399000	1000	12	11	30	47	120	99.750000	399.000000
399000	500	13	12	29	56	120	99.750000	399.000000
399000	500	14	13	30	56	120	99.750000	399.000000
399000	500	15	14	33	44	120	99.750000	399.000000
399500	500	10	9	16	36	100	99.875000	399.500000
399500	500	13	12	29	44	120	99.875000	399.500000
399500	500	14	13	30	44	120	99.875000	399.500000
399500	500	15	14	33	32	120	99.875000	399.500000
400000	8000	2	1	48	39	100	100.000000	400.000000
400000	8000	2	1	48	46	100	100.000000	400.000000
400000	500	10	9	16	36	100	100.000000	400.000000
400000	500	10	9	16	46	80	100.000000	400.000000
400000	500	10	9	16	49	100	100.000000	400.000000
400000	500	13	12	29	39	120	100.000000	400.000000
400000	500	14	13	30	39	120	100.000000	400.000000
400000	500	15	14	33	27	120	100.000000	400.000000
400500	500	10	9	16	36	100	100.125000	400.500000
400500	500	13	12	29	39	120	100.125000	400.500000
400500	500	14	13	30	39	120	100.125000	400.500000
400500	500	15	14	33	27	120	100.125000	400.500000
401000	500	2	1	48	66	100	100.250000	401.000000
401000	500	2	1	48	70	100	100.250000	401.000000
401000	500	2	1	48	75	100	100.250000	401.000000
401000	500	2	1	48	78	100	100.250000	401.000000
401000	500	3	2	80	66	120	100.250000	401.000000
401000	500	3	2	80	78	120	100.250000	401.000000
401000	500	3	2	80	90	100	100.250000	401.000000
401000	500	10	9	16	38	100	100.250000	401.000000
401000	500	10	9	16	46	80	100.250000	401.000000
401000	500	13	12	29	51	120	100.250000	401.000000
401000	500	14	13	30	51	120	100.250000	401.000000
401000	500	15	14	33	39	120	100.250000	401.000000
401500	500	10	9	16	36	100	100.375000	401.500000
401500	500	13	12	29	39	120	100.375000	401.500000
401500	500	14	13	30	39	120	100.375000	401.500000
401500	500	15	14	33	27	120	100.375000	401.500000
402000	500	2	1	48	66	100	100.500000	402.000000
402000	500	2	1	48	70	100	100.500000	402.000000
402000	500	2	1	48	75	100	100.500000	402.000000
402000	500	2	1	48	78	100	100.500000	402.000000
402000	250	3	2	80	66	120	100.500000	402.000000
402000	250	3	2	80	78	120	100.500000	402.000000
402000	250	3	2	80	90	100	100.500000	402.000000
402000	500	10	9	16	36	100	100.500000	402.000000
402000	500	10	9	16	46	80	100.500000	402.000000
402000	500	13	12	29	39	120	100.500000	402.000000
402000	500	14	13	30	39	120	100.500000	402.000000
402000	500	15	14	33	27	120	100.500000	402.000000
402500	500	2	1	48	66	100	100.625000	402.500000
402500	500	2	1	48	70	100	100.625000	402.500000
402500	500	2	1	48	75	100	100.625000	402.500000
402500	500	2	1	48	78	100	100.625000	402.500000
402500	250	3	2	80	66	120	100.625000	402.500000
402500	250	3	2	80	78	120	100.625000	402.500000
402500	250	3	2	80	90	100	100.625000	402.500000
402500	500	10	9	16	36	100	100.625000	402.500000
402500	500	13	12	29	51	120	100.625000	402.500000
402500	500	14	13	30	51	120	100.625000	402.500000
402500	500	15	14	33	39	120	100.625000	402.500000
403000	500	10	9	16	38	100	100.750000	403.000000
403000	500	10	9	16	46	80	100.750000	403.000000
403000	500	13	12	29	39	120	100.750000	403.000000
403000	500	14	13	30	39	120	100.750000	403.000000
403000	500	15	14	33	27	120	100.750000	403.000000
403500	1000	2	1	48	66	100	100.875000	403.500000
403500	1000	2	1	48	70	100	100.875000	403.500000
403500	1000	2	1	48	75	100	100.875000	403.500000
403500	1000	2	1	48	78	100	100.875000	403.500000
403500	1000	3	2	80	66	120	100.875000	403.500000
403500	1000	3	2	80	78	120	100.875000	403.500000
403500	1000	3	2	80	90	100	100.875000	403.500000
403500	500	10	9	16	36	100	100.875000	403.500000
403500	500	13	12	29	39	120	100.875000	403.500000
403500	500	14	13	30	39	120	100.875000	403.500000
403500	500	15	14	33	27	120	100.875000	403.500000
404000	500	10	9	16	36	100	101.000000	404.000000
404000	500	10	9	16	46	80	101.000000	404.000000
404000	500	13	12	29	39	120	101.000000	404.000000
404000	500	14	13	30	39	120	101.000000	404.000000
404000	500	15	14	33	27	120	101.000000	404.000000
404500	500	2	1	48	66	100	101.125000	404.500000
404500	500	2	1	48	70	100	101.125000	404.500000
404500	500	2	1	48	75	100	101.125000	404.500000
404500	500	2	1	48	78	100	101.125000	404.500000
404500	500	3	2	80	66	120	101.125000	404.500000
404500	500	3	2	80	78	120	101.125000	404.500000
404500	500	3	2	80	90	100	101.125000	404.500000
404500	500	10	9	16	36	100	101.125000	404.500000
404500	500	13	12	29	39	120	101.125000	404.500000
404500	500	14	13	30	39	120	101.125000	404.500000
404500	500	15	14	33	27	120	101.125000	404.500000
405000	750	2	1	48	64	100	101.250000	405.000000
405000	750	2	1	48	68	100	101.250000	405.000000
405000	750	2	1	48	73	100	101.250000	405.000000
405000	750	2	1	48	76	100	101.250000	405.000000
405000	750	3	2	80	64	120	101.250000	405.000000
405000	750	3	2	80	76	120	101.250000	405.000000
405000	750	3	2	80	88	100	101.250000	405.000000
405000	500	10	9	16	38	100	101.250000	405.000000
405000	500	10	9	16	46	80	101.250000	405.000000
405000	500	13	12	29	51	120	101.250000	405.000000
405000	500	14	13	30	51	120	101.250000	405.000000
405000	500	15	14	33	39	120	101.250000	405.000000
405500	500	10	9	16	36	100	101.375000	405.500000
405500	500	13	12	29	39	120	101.375000	405.500000
405500	500	14	13	30	39	120	101.375000	405.500000
405500	500	15	14	33	27	120	101.375000	405.500000
406000	750	2	1	48	63	100	101.500000	406.000000
406000	750	2	1	48	66	100	101.500000	406.000000
406000	750	2	1	48	71	100	101.500000	406.000000
406000	750	2	1	48	75	100	101.500000	406.000000
406000	750	3	2	80	63	120	101.500000	406.000000
406000	750	3	2	80	75	120	101.500000	406.000000
406000	750	3	2	80	87	100	101.500000	406.000000
406000	500	10	9	16	36	100	101.500000	406.000000
406000	500	10	9	16	46	80	101.500000	406.000000
406000	500	13	12	29	39	120	101.500000	406.000000
406000	500	14	13	30	39	120	101.500000	406.000000
406000	500	15	14	33	27	120	101.500000	406.000000
406500	500	10	9	16	36	100	101.625000	406.500000
406500	500	13	12	29	51	120	101.625000	406.500000
406500	500	14	13	30	51	120	101.625000	406.500000
406500	500	15	14	33	39	120	101.625000	406.500000
407000	750	2	1	48	64	100	101.750000	407.000000
407000	750	2	1	48	68	100	101.750000	407.000000
407000	750	2	1	48	73	100	101.750000	407.000000
407000	750	2	1	48	76	100	101.750000	407.000000
407000	750	3	2	80	64	120	101.750000	407.000000
407000	750	3	2	80	76	120	101.750000	407.000000
407000	750	3	2	80	88	100	101.750000	407.000000
407000	500	10	9	16	38	100	101.750000	407.000000
407000	500	10	9	16	46	80	101.750000	407.000000
407000	500	13	12	29	39	120	101.750000	407.000000
407000	500	14	13	30	39	120	101.750000	407.000000
407000	500	15	14	33	27	120	101.750000	407.000000
407500	500	10	9	16	36	100	101.875000	407.500000
407500	500	13	12	29	39	120	101.875000	407.500000
407500	500	14	13	30	39	120	101.875000	407.500000
407500	500	15	14	33	27	120	101.875000	407.500000
408000	8000	2	1	48	40	100	102.000000	408.000000
408000	4000	2	1	48	47	100	102.000000	408.000000
408000	2000	2	1	48	66	100	102.000000	408.000000
408000	2000	2	1	48	71	100	102.000000	408.000000
408000	2000	2	1	48	75	100	102.000000	408.000000
408000	2000	2	1	48	78	100	102.000000	408.000000
408000	2000	3	2	80	66	120	102.000000	408.000000
408000	2000	3	2	80	78	120	102.000000	408.000000
408000	2000	3	2	80	90	100	102.000000	408.000000
408000	250	5	4	0	88	120	102.000000	408.000000
408000	500	10	9	16	36	100	102.000000	408.000000
408000	500	10	9	16	46	80	102.000000	408.000000
408000	500	13	12	29	40	120	102.000000	408.000000
408000	500	14	13	30	40	120	102.000000	408.000000
408000	500	15	14	33	28	120	102.000000	408.000000
408500	250	5	4	0	92	120	102.125000	408.500000
408500	500	10	9	16	36	100	102.125000	408.500000
408500	500	13	12	29	40	120	102.125000	408.500000
408500	500	14	13	30	40	120	102.125000	408.500000
408500	500	15	14	33	28	120	102.125000	408.500000
409000	250	5	4	0	95	120	102.250000	409.000000
409000	500	10	9	16	38	100	102.250000	409.000000
409000	500	10	9	16	46	80	102.250000	409.000000
409000	500	13	12	29	52	120	102.250000	409.000000
409000	500	14	13	30	52	120	102.250000	409.000000
409000	500	15	14	33	40	120	102.250000	409.000000
409500	250	5	4	0	100	120	102.375000	409.500000
409500	500	10	9	16	36	100	102.375000	409.500000
409500	500	13	12	29	40	120	102.375000	409.500000
409500	500	14	13	30	40	120	102.375000	409.500000
409500	500	15	14	33	28	120	102.375000	409.500000
410000	1000	2	1	48	71	100	102.500000	410.000000
410000	1000	2	1	48	75	100	102.500000	410.000000
410000	1000	2	1	48	78	100	102.500000	410.000000
410000	1000	2	1	48	83	100	102.500000	410.000000
410000	1000	3	2	80	71	120	102.500000	410.000000
410000	1000	3	2	80	83	120	102.500000	410.000000
410000	1000	3	2	80	95	100	102.500000	410.000000
410000	250	5	4	0	95	120	102.500000	410.000000
410000	500	10	9	16	36	100	102.500000	410.000000
410000	500	10	9	16	46	80	102.500000	410.000000
410000	500	13	12	29	40	120	102.500000	410.000000
410000	500	14	13	30	40	120	102.500000	410.000000
410000	500	15	14	33	28	120	102.500000	410.000000
410500	250	5	4	0	92	120	102.625000	410.500000
410500	500	10	9	16	36	100	102.625000	410.500000
410500	500	13	12	29	52	120	102.625000	410.500000
410500	500	14	13	30	52	120	102.625000	410.500000
410500	500	15	14	33	40	120	102.625000	410.500000
411000	500	10	9	16	38	100	102.750000	411.000000
411000	500	10	9	16	46	80	102.750000	411.000000
411000	500	13	12	29	40	120	102.750000	411.000000
411000	500	14	13	30	40	120	102.750000	411.000000
411000	500	15	14	33	28	120	102.750000	411.000000
411500	2500	2	1	48	66	100	102.875000	411.500000
411500	2500	2	1	48	71	100	102.875000	411.500000
411500	2500	2	1	48	75	100	102.875000	411.500000
411500	2500	2	1	48	78	100	102.875000	411.500000
411500	2500	3	2	80	66	120	102.875000	411.500000
411500	2500	3	2	80	78	120	102.875000	411.500000
411500	2500	3	2	80	90	100	102.875000	411.500000
411500	250	5	4	0	100	120	102.875000	411.500000
411500	500	10	9	16	36	100	102.875000	411.500000
411500	500	13	12	29	40	120	102.875000	411.500000
411500	500	14	13	30	40	120	102.875000	411.500000
411500	500	15	14	33	28	120	102.875000	411.500000
412000	4000	2	1	48	47	100	103.000000	412.000000
412000	250	5	4	0	88	120	103.000000	412.000000
412000	500	10	9	16	36	100	103.000000	412.000000
412000	500	10	9	16	46	80	103.000000	412.000000
412000	500	13	12	29	40	120	103.000000	412.000000
412000	500	14	13	30	40	120	103.000000	412.000000
412000	500	15	14	33	28	120	103.000000	412.000000
412500	250	5	4	0	92	120	103.125000	412.500000
412500	500	10	9	16	36	100	103.125000	412.500000
412500	500	13	12	29	40	120	103.125000	412.500000
412500	500	14	13	30	40	120	103.125000	412.500000
412500	500	15	14	33	28	120	103.125000	412.500000
413000	250	5	4	0	95	120	103.250000	413.000000
413000	500	10	9	16	38	100	103.250000	413.000000
413000	500	10	9	16	46	80	103.250000	413.000000
413000	500	13	12	29	52	120	103.250000	413.000000
413000	500	14	13	30	52	120	103.250000	413.000000
413000	500	15	14	33	40	120	103.250000	413.000000
413500	250	5	4	0	100	120	103.375000	413.500000
413500	500	10	9	16	36	100	103.375000	413.500000
413500	500	13	12	29	40	120	103.375000	413.500000
413500	500	14	13	30	40	120	103.375000	413.500000
413500	500	15	14	33	28	120	103.375000	413.500000
414000	250	5	4	0	88	120	103.500000	414.000000
414000	500	10	9	16	36	100	103.500000	414.000000
414000	500	10	9	16	46	80	103.500000	414.000000
414000	1000	12	11	30	61	120	103.500000	414.000000
414000	500	13	12	29	40	120	103.500000	414.000000
414000	500	14	13	30	40	120	103.500000	414.000000
414000	500	15	14	33	28	120	103.500000	414.000000
414500	250	5	4	0	92	120	103.625000	414.500000
414500	500	10	9	16	36	100	103.625000	414.500000
414500	500	13	12	29	52	120	103.625000	414.500000
414500	500	14	13	30	52	120	103.625000	414.500000
414500	500	15	14	33	40	120	103.625000	414.500000
415000	250	5	4	0	95	120	103.750000	415.000000
415000	500	10	9	16	38	100	103.750000	415.000000
415000	500	10	9	16	46	80	103.750000	415.000000
415000	1000	12	11	30	63	120	103.750000	415.000000
415000	500	13	12	29	40	120	103.750000	415.000000
415000	500	14	13	30	40	120	103.750000	415.000000
415000	500	15	14	33	28	120	103.750000	415.000000
415500	250	5	4	0	100	120	103.875000	415.500000
415500	500	10	9	16	36	100	103.875000	415.500000
415500	500	13	12	29	40	120	103.875000	415.500000
415500	500	14	13	30	40	120	103.875000	415.500000
415500	500	15	14	33	28	120	103.875000	415.500000
416000	8000	2	1	48	39	100	104.000000	416.000000
416000	8000	2	1	48	46	100	104.000000	416.000000
416000	500	10	9	16	36	100	104.000000	416.000000
416000	500	10	9	16	46	80	104.000000	416.000000
416000	2000	12	11	30	54	120	104.000000	416.000000
416000	500	13	12	29	39	120	104.000000	416.000000
416000	500	14	13	30	39	120	104.000000	416.000000
416000	500	15	14	33	27	120	104.000000	416.000000
416500	500	10	9	16	36	100	104.125000	416.500000
416500	500	13	12	29	39	120	104.125000	416.500000
416500	500	14	13	30	39	120	104.125000	416.500000
416500	500	15	14	33	27	120	104.125000	416.500000
417000	500	2	1	48	66	100	104.250000	417.000000
417000	500	2	1	48	70	100	104.250000	417.000000
417000	500	2	1	48	75	100	104.250000	417.000000
417000	500	2	1	48	78	100	104.250000	417.000000
417000	500	3	2	80	66	120	104.250000	417.000000
417000	500	3	2	80	78	120	104.250000	417.000000
417000	500	3	2	80	90	100	104.250000	417.000000
417000	500	10	9	16	38	100	104.250000	417.000000
417000	500	10	9	16	46	80	104.250000	417.000000
417000	500	13	12	29	51	120	104.250000	417.000000
417000	500	14	13	30	51	120	104.250000	417.000000
417000	500	15	14	33	39	120	104.250000	417.000000
417500	500	10	9	16	36	100	104.375000	417.500000
417500	500	13	12	29	39	120	104.375000	417.500000
417500	500	14	13	30	39	120	104.375000	417.500000
417500	500	15	14	33	27	120	104.375000	417.500000
418000	500	2	1	48	66	100	104.500000	418.000000
418000	500	2	1	48	70	100	104.500000	418.000000
418000	500	2	1	48	75	100	104.500000	418.000000
418000	500	2	1	48	78	100	104.500000	418.000000
418000	250	3	2	80	66	120	104.500000	418.000000
418000	250	3	2	80	78	120	104.500000	418.000000
418000	250	3	2	80	90	100	104.500000	418.000000
418000	500	10	9	16	36	100	104.500000	418.000000
418000	500	10	9	16	46	80	104.500000	418.000000
418000	500	13	12	29	39	120	104.500000	418.000000
418000	500	14	13	30	39	120	104.500000	418.000000
418000	500	15	14	33	27	120	104.500000	418.000000
418500	500	2	1	48	66	100	104.625000	418.500000
418500	500	2	1	48	70	100	104.625000	418.500000
418500	500	2	1	48	75	100	104.625000	418.500000
418500	500	2	1	48	78	100	104.625000	418.500000
418500	250	3	2	80	66	120	104.625000	418.500000
418500	250	3	2	80	78	120	104.625000	418.500000
418500	250	3	2	80	90	100	104.625000	418.500000
418500	500	10	9	16	36	100	104.625000	418.500000
418500	500	13	12	29	51	120	104.625000	418.500000
418500	500	14	13	30	51	120	104.625000	418.500000
418500	500	15	14	33	39	120	104.625000	418.500000
419000	500	10	9	16	38	100	104.750000	419.000000
419000	500	10	9	16	46	80	104.750000	419.000000
419000	500	13	12	29	39	120	104.750000	419.000000
419000	500	14	13	30	39	120	104.750000	419.000000
419000	500	15	14	33	27	120	104.750000	419.000000
419500	1000	2	1	48	66	100	104.875000	419.500000
419500	1000	2	1	48	70	100	104.875000	419.500000
419500	1000	2	1	48	75	100	104.875000	419.500000
419500	1000	2	1	48	78	100	104.875000	419.500000
419500	1000	3	2	80	66	120	104.875000	419.500000
419500	1000	3	2	80	78	120	104.875000	419.500000
419500	1000	3	2	80	90	100	104.875000	419.500000
419500	500	10	9	16	36	100	104.875000	419.500000
419500	500	13	12	29	39	120	104.875000	419.500000
419500	500	14	13	30	39	120	104.875000	419.500000
419500	500	15	14	33	27	120	104.875000	419.500000
420000	500	10	9	16	36	100	105.000000	420.000000
420000	500	10	9	16	46	80	105.000000	420.000000
420000	500	13	12	29	39	120	105.000000	420.000000
420000	500	14	13	30	39	120	105.000000	420.000000
420000	500	15	14	33	27	120	105.000000	420.000000
420500	500	2	1	48	66	100	105.125000	420.500000
420500	500	2	1	48	70	100	105.125000	420.500000
420500	500	2	1	48	75	100	105.125000	420.500000
420500	500	2	1	48	78	100	105.125000	420.500000
420500	500	3	2	80	66	120	105.125000	420.500000
420500	500	3	2	80	78	120	105.125000	420.500000
420500	500	3	2	80	90	100	105.125000	420.500000
420500	500	10	9	16	36	100	105.125000	420.500000
420500	500	13	12	29	39	120	105.125000	420.500000
420500	500	14	13	30	39	120	105.125000	420.500000
420500	500	15	14	33	27	120	105.125000	420.500000
421000	1000	2	1	48	64	100	105.250000	421.000000
421000	1000	2	1	48	68	100	105.250000	421.000000
421000	1000	2	1	48	73	100	105.250000	421.000000
421000	1000	2	1	48	76	100	105.250000	421.000000
421000	1000	3	2	80	64	120	105.250000	421.000000
421000	1000	3	2	80	76	120	105.250000	421.000000
421000	1000	3	2	80	88	100	105.250000	421.000000
421000	500	10	9	16	38	100	105.250000	421.000000
421000	500	10	9	16	46	80	105.250000	421.000000
421000	500	13	12	29	51	120	105.250000	421.000000
421000	500	14	13	30	51	120	105.250000	421.000000
421000	500	15	14	33	39	120	105.250000	421.000000
421500	500	10	9	16	36	100	105.375000	421.500000
421500	500	13	12	29	39	120	105.375000	421.500000
421500	500	14	13	30	39	120	105.375000	421.500000
421500	500	15	14	33	27	120	105.375000	421.500000
422000	1000	2	1	48	63	100	105.500000	422.000000
422000	1000	2	1	48	66	100	105.500000	422.000000
422000	1000	2	1	48	71	100	105.500000	422.000000
422000	1000	2	1	48	75	100	105.500000	422.000000
422000	1000	3	2	80	63	120	105.500000	422.000000
422000	1000	3	2	80	75	120	105.500000	422.000000
422000	1000	3	2	80	87	100	105.500000	422.000000
422000	500	10	9	16	36	100	105.500000	422.000000
422000	500	10	9	16	46	80	105.500000	422.000000
422000	500	13	12	29	39	120	105.500000	422.000000
422000	500	14	13	30	39	120	105.500000	422.000000
422000	500	15	14	33	27	120	105.500000	422.000000
422500	500	10	9	16	36	100	105.625000	422.500000
422500	500	13	12	29	51	120	105.625000	422.500000
422500	500	14	13	30	51	120	105.625000	422.500000
422500	500	15	14	33	39	120	105.625000	422.500000
423000	1000	2	1	48	64	100	105.750000	423.000000
423000	1000	2	1	48	68	100	105.750000	423.000000
423000	1000	2	1	48	73	100	105.750000	423.000000
423000	1000	2	1	48	76	100	105.750000	423.000000
423000	1000	3	2	80	64	120	105.750000	423.000000
423000	1000	3	2	80	76	120	105.750000	423.000000
423000	1000	3	2	80	88	100	105.750000	423.000000
423000	500	10	9	16	38	100	105.750000	423.000000
423000	500	10	9	16	46	80	105.750000	423.000000
423000	500	13	12	29	39	120	105.750000	423.000000
423000	500	14	13	30	39	120	105.750000	423.000000
423000	500	15	14	33	27	120	105.750000	423.000000
423500	500	10	9	16	36	100	105.875000	423.500000
423500	500	13	12	29	39	120	105.875000	423.500000
423500	500	14	13	30	39	120	105.875000	423.500000
423500	500	15	14	33	27	120	105.875000	423.500000
424000	3000	2	1	48	42	100	106.000000	424.000000
424000	3000	2	1	48	49	100	106.000000	424.000000
424000	1000	2	1	48	66	100	106.000000	424.000000
424000	1000	2	1	48	71	100	106.000000	424.000000
424000	1000	2	1	48	75	100	106.000000	424.000000
424000	1000	2	1	48	78	100	106.000000	424.000000
424000	1000	3	2	80	66	120	106.000000	424.000000
424000	1000	3	2	80	78	120	106.000000	424.000000
424000	1000	3	2	80	90	100	106.000000	424.000000
424000	500	10	9	16	36	100	106.000000	424.000000
424000	500	10	9	16	46	80	106.000000	424.000000
424000	1000	12	11	30	61	120	106.000000	424.000000
424000	500	13	12	29	42	120	106.000000	424.000000
424000	500	14	13	30	42	120	106.000000	424.000000
424000	500	15	14	33	30	120	106.000000	424.000000
424500	500	10	9	16	36	100	106.125000	424.500000
424500	500	13	12	29	42	120	106.125000	424.500000
424500	500	14	13	30	42	120	106.125000	424.500000
424500	500	15	14	33	30	120	106.125000	424.500000
425000	1000	2	1	48	71	100	106.250000	425.000000
425000	1000	2	1	48	75	100	106.250000	425.000000
425000	1000	2	1	48	80	100	106.250000	425.000000
425000	1000	2	1	48	83	100	106.250000	425.000000
425000	1000	3	2	80	71	120	106.250000	425.000000
425000	1000	3	2	80	83	120	106.250000	425.000000
425000	1000	3	2	80	95	100	106.250000	425.000000
425000	500	10	9	16	38	100	106.250000	425.000000
425000	500	10	9	16	46	80	106.250000	425.000000
425000	1000	12	11	30	63	120	106.250000	425.000000
425000	500	13	12	29	54	120	106.250000	425.000000
425000	500	14	13	30	54	120	106.250000	425.000000
425000	500	15	14	33	42	120	106.250000	425.000000
425500	500	10	9	16	36	100	106.375000	425.500000
425500	500	13	12	29	42	120	106.375000	425.500000
425500	500	14	13	30	42	120	106.375000	425.500000
425500	500	15	14	33	30	120	106.375000	425.500000
426000	1000	2	1	48	70	100	106.500000	426.000000
426000	1000	2	1	48	73	100	106.500000	426.000000
426000	1000	2	1	48	78	100	106.500000	426.000000
426000	1000	2	1	48	82	100	106.500000	426.000000
426000	1000	3	2	80	70	120	106.500000	426.000000
426000	1000	3	2	80	82	120	106.500000	426.000000
426000	1000	3	2	80	94	100	106.500000	426.000000
426000	500	10	9	16	36	100	106.500000	426.000000
426000	500	10	9	16	46	80	106.500000	426.000000
426000	1000	12	11	30	61	120	106.500000	426.000000
426000	500	13	12	29	42	120	106.500000	426.000000
426000	500	14	13	30	42	120	106.500000	426.000000
426000	500	15	14	33	30	120	106.500000	426.000000
426500	500	10	9	16	36	100	106.625000	426.500000
426500	500	13	12	29	54	120	106.625000	426.500000
426500	500	14	13	30	54	120	106.625000	426.500000
426500	500	15	14	33	42	120	106.625000	426.500000
427000	5000	2	1	48	44	100	106.750000	427.000000
427000	5000	2	1	48	51	100	106.750000	427.000000
427000	4000	2	1	48	71	100	106.750000	427.000000
427000	4000	2	1	48	75	100	106.750000	427.000000
427000	4000	2	1	48	80	100	106.750000	427.000000
427000	4000	2	1	48	83	100	106.750000	427.000000
427000	4000	3	2	80	71	120	106.750000	427.000000
427000	4000	3	2	80	83	120	106.750000	427.000000
427000	4000	3	2	80	95	100	106.750000	427.000000
427000	500	10	9	16	38	100	106.750000	427.000000
427000	500	10	9	16	46	80	106.750000	427.000000
427000	2000	12	11	30	59	120	106.750000	427.000000
427000	500	13	12	29	56	120	106.750000	427.000000
427000	500	14	13	30	56	120	106.750000	427.000000
427000	500	15	14	33	44	120	106.750000	427.000000
427500	500	10	9	16	36	100	106.875000	427.500000
427500	500	13	12	29	44	120	106.875000	427.500000
427500	500	14	13	30	44	120	106.875000	427.500000
427500	500	15	14	33	32	120	106.875000	427.500000
428000	500	10	9	16	36	100	107.000000	428.000000
428000	500	10	9	16	46	80	107.000000	428.000000
428000	500	13	12	29	44	120	107.000000	428.000000
428000	500	14	13	30	44	120	107.000000	428.000000
428000	500	15	14	33	32	120	107.000000	428.000000
428500	500	10	9	16	36	100	107.125000	428.500000
428500	500	13	12	29	56	120	107.125000	428.500000
428500	500	14	13	30	56	120	107.125000	428.500000
428500	500	15	14	33	44	120	107.125000	428.500000
429000	500	10	9	16	38	100	107.250000	429.000000
429000	500	10	9	16	46	80	107.250000	429.000000
429000	1000	12	11	30	51	120	107.250000	429.000000
429000	500	13	12	29	44	120	107.250000	429.000000
429000	500	14	13	30	44	120	107.250000	429.000000
429000	500	15	14	33	32	120	107.250000	429.000000
429500	500	10	9	16	36	100	107.375000	429.500000
429500	500	13	12	29	56	120	107.375000	429.500000
429500	500	14	13	30	56	120	107.375000	429.500000
429500	500	15	14	33	44	120	107.375000	429.500000
430000	500	10	9	16	36	100	107.500000	430.000000
430000	500	10	9	16	46	80	107.500000	430.000000
430000	1000	12	11	30	49	120	107.500000	430.000000
430000	500	13	12	29	44	120	107.500000	430.000000
430000	500	14	13	30	44	120	107.500000	430.000000
430000	500	15	14	33	32	120	107.500000	430.000000
430500	500	10	9	16	36	100	107.625000	430.500000
430500	500	13	12	29	44	120	107.625000	430.500000
430500	500	14	13	30	44	120	107.625000	430.500000
430500	500	15	14	33	32	120	107.625000	430.500000
431000	500	3	2	80	63	120	107.750000	431.000000
431000	500	3	2	80	68	120	107.750000	431.000000
431000	500	10	9	16	38	100	107.750000	431.000000
431000	500	10	9	16	46	80	107.750000	431.000000
431000	1000	12	11	30	47	120	107.750000	431.000000
431000	500	13	12	29	56	120	107.750000	431.000000
431000	500	14	13	30	56	120	107.750000	431.000000
431000	500	15	14	33	44	120	107.750000	431.000000
431500	500	3	2	80	66	120	107.875000	431.500000
431500	500	3	2	80	71	120	107.875000	431.500000
431500	500	10	9	16	36	100	107.875000	431.500000
431500	500	13	12	29	44	120	107.875000	431.500000
431500	500	14	13	30	44	120	107.875000	431.500000
431500	500	15	14	33	32	120	107.875000	431.500000
432000	250	3	2	80	66	120	108.000000	432.000000
432000	250	3	2	80	71	120	108.000000	432.000000
432000	250	3	2	80	75	120	108.000000	432.000000
432000	250	3	2	80	87	80	108.000000	432.000000
432000	500	10	9	16	36	100	108.000000	432.000000
432000	500	10	9	16	46	80	108.000000	432.000000
432000	4000	13	12	29	37	120	108.000000	432.000000
432000	4000	14	13	30	37	120	108.000000	432.000000
432000	4000	15	14	33	25	120	108.000000	432.000000
432250	250	3	2	80	92	80	108.062500	432.250000
432500	250	3	2	80	66	120	108.125000	432.500000
432500	250	3	2	80	71	120	108.125000	432.500000
432500	250	3	2	80	75	120	108.125000	432.500000
432500	250	3	2	80	83	80	108.125000	432.500000
432750	250	3	2	80	92	80	108.187500	432.750000
433000	250	3	2	80	66	120	108.250000	433.000000
433000	250	3	2	80	71	120	108.250000	433.000000
433000	250	3	2	80	75	120	108.250000	433.000000
433000	250	3	2	80	85	80	108.250000	433.000000
433250	250	3	2	80	66	120	108.312500	433.250000
433250	250	3	2	80	71	120	108.312500	433.250000
433250	250	3	2	80	75	120	108.312500	433.250000
433250	250	3	2	80	92	80	108.312500	433.250000
433500	250	3	2	80	83	80	108.375000	433.500000
433750	500	3	2	80	66	120	108.437500	433.750000
433750	500	3	2	80	71	120	108.437500	433.750000
433750	500	3	2	80	75	120	108.437500	433.750000
433750	250	3	2	80	92	80	108.437500	433.750000
434000	250	3	2	80	87	80	108.500000	434.000000
434250	250	3	2	80	66	120	108.562500	434.250000
434250	250	3	2	80	71	120	108.562500	434.250000
434250	250	3	2	80	75	120	108.562500	434.250000
434250	250	3	2	80	92	80	108.562500	434.250000
434500	250	3	2	80	64	120	108.625000	434.500000
434500	500	3	2	80	70	120	108.625000	434.500000
434500	500	3	2	80	73	120	108.625000	434.500000
434500	250	3	2	80	83	80	108.625000	434.500000
434750	250	3	2	80	61	120	108.687500	434.750000
434750	250	3	2	80	92	80	108.687500	434.750000
435000	250	3	2	80	63	120	108.750000	435.000000
435000	500	3	2	80	68	120	108.750000	435.000000
435000	500	3	2	80	71	120	108.750000	435.000000
435000	250	3	2	80	87	80	108.750000	435.000000
435250	250	3	2	80	56	120	108.812500	435.250000
435250	250	3	2	80	92	80	108.812500	435.250000
435500	250	3	2	80	59	120	108.875000	435.500000
435500	500	3	2	80	64	120	108.875000	435.500000
435500	500	3	2	80	68	120	108.875000	435.500000
435500	250	3	2	80	90	80	108.875000	435.500000
435750	250	3	2	80	54	120	108.937500	435.750000
435750	250	3	2	80	92	80	108.937500	435.750000
436000	500	3	2	80	58	120	109.000000	436.000000
436000	500	3	2	80	63	120	109.000000	436.000000
436000	250	3	2	80	92	80	109.000000	436.000000
436000	500	10	9	16	46	80	109.000000	436.000000
436000	4000	13	12	29	39	120	109.000000	436.000000
436000	4000	14	13	30	39	120	109.000000	436.000000
436000	2000	15	14	33	27	120	109.000000	436.000000
436250	250	3	2	80	94	80	109.062500	436.250000
436500	250	3	2	80	70	120	109.125000	436.500000
436500	250	3	2	80	75	120	109.125000	436.500000
436500	250	3	2	80	87	80	109.125000	436.500000
436750	250	3	2	80	61	120	109.187500	436.750000
436750	250	3	2	80	94	80	109.187500	436.750000
437000	250	3	2	80	63	120	109.250000	437.000000
437000	250	3	2	80	70	120	109.250000	437.000000
437000	250	3	2	80	75	120	109.250000	437.000000
437000	250	3	2	80	90	80	109.250000	437.000000
437250	250	3	2	80	66	120	109.312500	437.250000
437250	250	3	2	80	70	120	109.312500	437.250000
437250	250	3	2	80	75	120	109.312500	437.250000
437250	250	3	2	80	94	80	109.312500	437.250000
437500	250	3	2	80	61	120	109.375000	437.500000
437500	250	3	2	80	85	80	109.375000	437.500000
437750	250	3	2	80	63	120	109.437500	437.750000
437750	500	3	2	80	70	120	109.437500	437.750000
437750	500	3	2	80	75	120	109.437500	437.750000
437750	250	3	2	80	94	80	109.437500	437.750000
438000	250	3	2	80	66	120	109.500000	438.000000
438000	250	3	2	80	87	80	109.500000	438.000000
438000	250	15	14	33	27	120	109.500000	438.000000
438250	250	3	2	80	61	120	109.562500	438.250000
438250	250	3	2	80	70	120	109.562500	438.250000
438250	250	3	2	80	75	120	109.562500	438.250000
438250	250	3	2	80	94	80	109.562500	438.250000
438250	250	15	14	33	27	120	109.562500	438.250000
438500	250	3	2	80	63	120	109.625000	438.500000
438500	500	3	2	80	68	120	109.625000	438.500000
438500	500	3	2	80	73	120	109.625000	438.500000
438500	250	3	2	80	85	80	109.625000	438.500000
438500	500	12	11	30	61	120	109.625000	438.500000
438500	250	15	14	33	39	120	109.625000	438.500000
438750	250	3	2	80	66	120	109.687500	438.750000
438750	250	3	2	80	94	80	109.687500	438.750000
438750	250	15	14	33	27	120	109.687500	438.750000
439000	250	3	2	80	68	120	109.750000	439.000000
439000	250	3	2	80	70	120	109.750000	439.000000
439000	500	3	2	80	75	120	109.750000	439.000000
439000	250	3	2	80	90	80	109.750000	439.000000
439000	500	12	11	30	63	120	109.750000	439.000000
439000	250	15	14	33	27	120	109.750000	439.000000
439250	250	3	2	80	70	120	109.812500	439.250000
439250	250	3	2	80	73	120	109.812500	439.250000
439250	250	3	2	80	94	80	109.812500	439.250000
439250	250	15	14	33	39	120	109.812500	439.250000
439500	250	3	2	80	73	120	109.875000	439.500000
439500	500	3	2	80	78	120	109.875000	439.500000
439500	250	3	2	80	92	80	109.875000	439.500000
439500	500	12	11	30	66	120	109.875000	439.500000
439500	250	15	14	33	27	120	109.875000	439.500000
439750	250	3	2	80	68	120	109.937500	439.750000
439750	250	3	2	80	94	80	109.937500	439.750000
439750	250	15	14	33	27	120	109.937500	439.750000
440000	8000	2	1	48	40	100	110.000000	440.000000
440000	8000	2	1	48	47	100	110.000000	440.000000
440000	8000	2	1	48	64	100	110.000000	440.000000
440000	8000	2	1	48	68	100	110.000000	440.000000
440000	8000	2	1	48	71	100	110.000000	440.000000
440000	8000	2	1	48	75	100	110.000000	440.000000
440000	6000	3	2	80	71	120	110.000000	440.000000
440000	6000	3	2	80	75	120	110.000000	440.000000
440000	5500	3	2	80	80	120	110.000000	440.000000
440000	250	3	2	80	90	80	110.000000	440.000000
440000	6000	3	2	80	95	80	110.000000	440.000000
440000	500	10	9	16	36	100	110.000000	440.000000
440000	500	10	9	16	46	80	110.000000	440.000000
440000	500	10	9	16	49	80	110.000000	440.000000
440000	6000	12	11	30	68	120	110.000000	440.000000
440000	500	13	12	29	40	120	110.000000	440.000000
440000	500	14	13	30	40	120	110.000000	440.000000
440000	500	15	14	33	28	120	110.000000	440.000000
440500	250	3	2	80	92	80	110.125000	440.500000
440500	500	10	9	16	36	100	110.125000	440.500000
440500	500	13	12	29	40	120	110.125000	440.500000
440500	500	14	13	30	40	120	110.125000	440.500000
440500	500	15	14	33	28	120	110.125000	440.500000
441000	250	3	2	80	87	80	110.250000	441.000000
441000	500	10	9	16	38	100	110.250000	441.000000
441000	500	10	9	16	46	80	110.250000	441.000000
441000	500	13	12	29	52	120	110.250000	441.000000
441000	500	14	13	30	52	120	110.250000	441.000000
441000	500	15	14	33	40	120	110.250000	441.000000
441500	250	3	2	80	90	80	110.375000	441.500000
441500	500	10	9	16	36	100	110.375000	441.500000
441500	500	13	12	29	40	120	110.375000	441.500000
441500	500	14	13	30	40	120	110.375000	441.500000
441500	500	15	14	33	28	120	110.375000	441.500000
442000	250	3	2	80	92	80	110.500000	442.000000
442000	500	10	9	16	36	100	110.500000	442.000000
442000	500	10	9	16	46	80	110.500000	442.000000
442000	500	13	12	29	40	120	110.500000	442.000000
442000	500	14	13	30	40	120	110.500000	442.000000
442000	500	15	14	33	28	120	110.500000	442.000000
442500	250	3	2	80	87	80	110.625000	442.500000
442500	500	10	9	16	36	100	110.625000	442.500000
442500	500	13	12	29	52	120	110.625000	442.500000
442500	500	14	13	30	52	120	110.625000	442.500000
442500	500	15	14	33	40	120	110.625000	442.500000
443000	250	3	2	80	90	80	110.750000	443.000000
443000	500	10	9	16	38	100	110.750000	443.000000
443000	500	10	9	16	46	80	110.750000	443.000000
443000	500	13	12	29	40	120	110.750000	443.000000
443000	500	14	13	30	40	120	110.750000	443.000000
443000	500	15	14	33	28	120	110.750000	443.000000
443500	250	3	2	80	85	80	110.875000	443.500000
443500	500	10	9	16	36	100	110.875000	443.500000
443500	500	13	12	29	40	120	110.875000	443.500000
443500	500	14	13	30	40	120	110.875000	443.500000
443500	500	15	14	33	28	120	110.875000	443.500000
444000	250	3	2	80	87	80	111.000000	444.000000
444000	500	10	9	16	36	100	111.000000	444.000000
444000	500	10	9	16	46	80	111.000000	444.000000
444000	500	13	12	29	40	120	111.000000	444.000000
444000	500	14	13	30	40	120	111.000000	444.000000
444000	500	15	14	33	28	120	111.000000	444.000000
444500	250	3	2	80	83	80	111.125000	444.500000
444500	500	10	9	16	36	100	111.125000	444.500000
444500	500	13	12	29	40	120	111.125000	444.500000
444500	500	14	13	30	40	120	111.125000	444.500000
444500	500	15	14	33	28	120	111.125000	444.500000
445000	250	3	2	80	85	80	111.250000	445.000000
445000	500	10	9	16	38	100	111.250000	445.000000
445000	500	10	9	16	46	80	111.250000	445.000000
445000	500	13	12	29	52	120	111.250000	445.000000
445000	500	14	13	30	52	120	111.250000	445.000000
445000	500	15	14	33	40	120	111.250000	445.000000
445500	250	3	2	80	80	80	111.375000	445.500000
445500	500	10	9	16	36	100	111.375000	445.500000
445500	500	13	12	29	40	120	111.375000	445.500000
445500	500	14	13	30	40	120	111.375000	445.500000
445500	500	15	14	33	28	120	111.375000	445.500000
446000	250	3	2	80	83	80	111.500000	446.000000
446000	1000	3	2	80	87	80	111.500000	446.000000
446000	500	10	9	16	36	100	111.500000	446.000000
446000	500	10	9	16	46	80	111.500000	446.000000
446000	1000	12	11	30	63	120	111.500000	446.000000
446000	500	13	12	29	40	120	111.500000	446.000000
446000	500	14	13	30	40	120	111.500000	446.000000
446000	500	15	14	33	28	120	111.500000	446.000000
446500	500	10	9	16	36	100	111.625000	446.500000
446500	500	13	12	29	52	120	111.625000	446.500000
446500	500	14	13	30	52	120	111.625000	446.500000
446500	500	15	14	33	40	120	111.625000	446.500000
447000	1000	3	2	80	83	80	111.750000	447.000000
447000	500	10	9	16	38	100	111.750000	447.000000
447000	500	10	9	16	46	80	111.750000	447.000000
447000	1000	12	11	30	59	120	111.750000	447.000000
447000	500	13	12	29	40	120	111.750000	447.000000
447000	500	14	13	30	40	120	111.750000	447.000000
447000	500	15	14	33	28	120	111.750000	447.000000
447500	500	10	9	16	36	100	111.875000	447.500000
447500	500	13	12	29	40	120	111.875000	447.500000
447500	500	14	13	30	40	120	111.875000	447.500000
447500	500	15	14	33	28	120	111.875000	447.500000
448000	8000	2	1	48	42	100	112.000000	448.000000
448000	8000	3	2	80	85	120	112.000000	448.000000
448000	500	10	9	16	49	80	112.000000	448.000000
448000	8000	12	11	30	61	120	112.000000	448.000000
448000	8000	15	14	33	30	120	112.000000	448.000000
