4D 54 68 64 
00 00 00 06 
00 01 00 05 01 E0 
4D 54 72 6B 
00 00 00 34 
00 FF 51 03 09 89 68 
00 FF 59 02 00 01 
00 FF 03 0F 41 20 4C 69 74 74 6C 65 20 53 74 6F 72 79 00 00 FF 58 04 04 02 18 08 83 60 FF 51 03 08 E0 BA 00 FF 2F 00 4D 54 72 6B 00 00 0F C4 00 B0 00 00 00 20 00 00 C0 00 00 FF 03 06 50 69 61 6E 6F 00 00 B0 07 7F 00 0A 40 83 60 90 4F 7F 81 58 80 4F 00 18 90 56 7F 85 08 80 56 00 48 90 4E 7F 81 58 80 4E 00 18 90 4F 7F 86 78 80 4F 00 48 90 4F 7F 81 58 80 4F 00 18 90 54 7F 81 58 80 54 00 18 90 53 7F 50 54 7F 1C 80 53 00 34 90 53 7F 1C 80 54 00 34 90 51 7F 1C 80 53 00 81 3C 51 00 18 90 4F 7F 85 20 80 4F 00 30 90 4F 7F 81 58 80 4F 00 18 90 56 7F 85 08 80 56 00 48 90 4E 7F 81 58 80 4E 00 18 90 4F 7F 86 78 80 4F 00 48 90 4F 7F 81 58 80 4F 00 18 90 5B 7F 82 44 80 5B 00 24 90 5A 7F 82 50 80 5A 00 18 90 56 7F 81 58 80 56 00 83 78 90 4F 7F 81 58 80 4F 00 18 90 56 7F 85 08 80 56 00 48 90 4E 7F 81 58 80 4E 00 18 90 4F 7F 86 78 80 4F 00 48 90 4F 7F 81 58 80 4F 00 18 90 54 7F 81 58 80 54 00 18 90 53 7F 50 54 7F 1C 80 53 00 34 90 53 7F 1C 80 54 00 34 90 51 7F 1C 80 53 00 81 3C 51 00 18 90 4F 7F 81 58 80 4F 00 18 90 53 7F 00 4F 7F 82 44 80 53 00 00 4F 00 24 90 4F 7F 82 50 80 4F 00 18 90 54 7F 00 4F 7F 82 5C 80 54 00 00 4F 00 0C 90 53 7F 82 44 80 53 00 24 90 51 7F 81 58 80 51 00 18 90 4F 7F 81 58 80 4F 00 18 90 51 7F 00 4F 7F 00 4A 7F 86 60 80 51 00 00 4F 00 00 4A 00 60 90 4E 7F 86 60 80 4E 00 56 B0 07 78 81 7A 90 4F 7F 81 58 80 4F 00 18 90 4E 7F 81 58 80 4E 00 18 90 4A 7F 81 58 80 4A 00 18 90 4F 7F 82 44 80 4F 00 24 90 4E 7F 82 50 80 4E 00 18 90 4A 7F 8F 30 80 4A 00 83 30 90 4F 7F 81 58 80 4F 00 18 90 4E 7F 81 58 80 4E 00 18 90 4A 7F 81 58 80 4A 00 18 90 4F 7F 82 44 80 4F 00 24 90 4E 7F 83 7E 4F 7F 2A 80 4E 00 03 90 56 7F 88 6B 80 4F 00 18 90 4F 7F 15 80 56 00 18 90 5B 7F 81 2B 80 4F 00 2D 5B 00 45 90 5A 7F 00 4E 7F 81 58 80 5A 00 00 4E 00 18 90 56 7F 00 4A 7F 81 58 80 4A 00 18 90 4A 7F 81 58 80 4A 00 00 56 00 18 90 53 7F 81 58 80 53 00 18 90 4F 7F 83 30 80 4F 00 30 90 4A 7F 82 44 80 4A 00 24 90 4F 7F 82 50 80 4F 00 18 90 4E 7F 81 58 80 4E 00 18 90 4F 7F 86 60 80 4F 00 60 90 54 7F 82 44 80 54 00 24 90 53 7F 82 50 80 53 00 18 90 4F 7F 83 48 80 4F 00 18 90 4F 7F 00 4A 7F 81 58 80 4F 00 00 4A 00 18 90 4E 7F 81 58 80 4E 00 18 90 4A 7F 81 58 80 4A 00 18 90 4F 7F 82 44 80 4F 00 24 90 4E 7F 82 50 80 4E 00 18 90 4A 7F 4D 4F 7F 81 0B 80 4A 00 17 4F 00 01 90 51 7F 8D 40 80 51 00 83 30 90 4F 7F 00 4A 7F 81 58 80 4F 00 00 4A 00 18 90 4E 7F 81 58 80 4E 00 18 90 4A 7F 81 58 80 4A 00 18 90 4F 7F 82 44 80 4F 00 24 90 4E 7F 82 50 80 4E 00 18 90 4A 7F 86 53 4F 7F 25 80 4A 00 47 4F 00 01 90 56 7F 83 48 80 56 00 18 90 54 7F 83 30 80 54 00 30 90 53 7F 00 4A 7F 83 48 80 53 00 00 4A 00 18 90 4F 7F 00 4A 7F 81 58 80 4F 00 00 4A 00 18 90 4E 7F 81 58 80 4E 00 18 90 4A 7F 81 58 80 4A 00 18 90 4F 7F 82 44 80 4F 00 24 90 4E 7F 82 50 80 4E 00 18 90 4A 7F 88 50 80 4A 00 60 90 56 7F 00 4F 7F 84 76 4F 7F 12 80 56 00 00 4F 00 1B 90 5B 7F 83 1B 80 4F 00 2D 5B 00 45 90 5A 7F 83 30 80 5A 00 30 90 56 7F 8E 38 80 56 00 48 90 5B 7F 00 4F 7F 83 48 80 5B 00 00 4F 00 18 90 5A 7F 83 30 80 5A 00 30 90 56 7F 88 50 80 56 00 60 90 54 7F 85 08 80 54 00 48 90 53 7F 00 4C 7F 8F 30 80 53 00 00 4C 00 81 36 B0 07 6E 83 44 40 43 26 90 4F 7F 81 58 80 4F 00 18 90 56 7F 85 08 80 56 00 48 90 4E 7F 81 58 80 4E 00 18 90 4F 7F 86 78 80 4F 00 48 90 4F 7F 81 58 80 4F 00 18 90 54 7F 81 58 80 54 00 18 90 53 7F 50 54 7F 1C 80 53 00 34 90 53 7F 1C 80 54 00 34 90 51 7F 1C 80 53 00 81 3C 51 00 18 90 4F 7F 85 20 80 4F 00 30 90 4F 7F 81 58 80 4F 00 18 90 56 7F 85 08 80 56 00 48 90 4E 7F 81 58 80 4E 00 18 90 4F 7F 86 78 80 4F 00 48 90 5B 7F 6C 80 5B 00 0C 90 4F 7F 6C 80 4F 00 0C 90 5B 7F 6C 80 5B 00 0C 90 4F 7F 6C 80 4F 00 0C 90 5B 7F 6C 80 5B 00 0C 90 4F 7F 6C 80 4F 00 0C 90 5B 7F 81 58 80 5B 00 18 90 5D 7F 81 58 80 5D 00 18 90 5B 7F 82 44 80 5B 00 24 90 4F 7F 82 50 80 4F 00 18 90 5B 7F 82 5C 80 5B 00 0C 90 4F 7F 6C 80 4F 00 0C 90 5B 7F 6C 80 5B 00 0C 90 4F 7F 6C 80 4F 00 0C 90 5B 7F 6C 80 5B 00 0C 90 4F 7F 6C 80 4F 00 0C 90 5D 7F 81 58 80 5D 00 18 90 5B 7F 82 44 80 5B 00 24 90 4F 7F 82 50 80 4F 00 18 90 5B 7F 82 5C 80 5B 00 0C 90 4F 7F 6C 80 4F 00 0C 90 5B 7F 6C 80 5B 00 0C 90 4F 7F 6C 80 4F 00 0C 90 5B 7F 6C 80 5B 00 0C 90 4F 7F 6C 80 4F 00 0C 90 5D 7F 81 58 80 5D 00 18 90 5B 7F 82 44 80 5B 00 24 90 4F 7F 82 50 80 4F 00 18 90 5B 7F 82 5C 80 5B 00 0C 90 4F 7F 6C 80 4F 00 0C 90 5B 7F 6C 80 5B 00 0C 90 4F 7F 6C 80 4F 00 0C 90 5B 7F 6C 80 5B 00 0C 90 4F 7F 6C 80 4F 00 0C 90 5D 7F 81 58 80 5D 00 18 90 4E 7F 83 30 80 4E 00 30 90 5A 7F 81 58 80 5A 00 18 90 4E 7F 81 58 80 4E 00 18 90 5A 7F 83 30 80 5A 00 30 90 5A 7F 81 58 80 5A 00 18 90 4E 7F 81 58 80 4E 00 83 78 90 4F 7F 81 58 80 4F 00 18 90 56 7F 85 08 80 56 00 48 90 4E 7F 81 58 80 4E 00 18 90 4F 7F 86 78 80 4F 00 48 90 4F 7F 81 58 80 4F 00 18 90 54 7F 81 58 80 54 00 18 90 53 7F 50 54 7F 1C 80 53 00 34 90 53 7F 1C 80 54 00 34 90 51 7F 1C 80 53 00 81 3C 51 00 18 90 4F 7F 85 20 80 4F 00 30 90 4F 7F 81 58 80 4F 00 18 90 56 7F 85 08 80 56 00 48 90 4E 7F 81 58 80 4E 00 18 90 4F 7F 86 78 80 4F 00 48 90 4F 7F 81 58 80 4F 00 18 90 5B 7F 82 44 80 5B 00 24 90 5A 7F 82 50 80 5A 00 18 90 56 7F 81 58 80 56 00 83 78 90 4F 7F 81 58 80 4F 00 18 90 56 7F 85 08 80 56 00 48 90 4E 7F 81 58 80 4E 00 18 90 4F 7F 86 78 80 4F 00 48 90 4F 7F 81 58 80 4F 00 18 90 54 7F 81 58 80 54 00 18 90 53 7F 50 54 7F 1C 80 53 00 34 90 53 7F 1C 80 54 00 34 90 51 7F 1C 80 53 00 81 3C 51 00 18 90 4F 7F 81 58 80 4F 00 18 90 53 7F 00 4F 7F 82 44 80 53 00 00 4F 00 24 90 4F 7F 82 50 80 4F 00 18 90 54 7F 00 4F 7F 82 5C 80 54 00 00 4F 00 0C 90 53 7F 82 44 80 53 00 24 90 51 7F 81 58 80 51 00 18 90 4F 7F 81 58 80 4F 00 18 90 51 7F 00 4F 7F 00 4A 7F 86 60 80 51 00 00 4F 00 00 4A 00 60 90 4E 7F 86 60 80 4E 00 82 50 90 4F 7F 81 58 80 4F 00 18 90 4E 7F 81 58 80 4E 00 18 90 4A 7F 81 58 80 4A 00 18 90 4F 7F 82 44 80 4F 00 24 90 4E 7F 82 50 80 4E 00 18 90 4A 7F 8F 30 80 4A 00 83 30 90 4F 7F 81 58 80 4F 00 18 90 4E 7F 81 58 80 4E 00 18 90 4A 7F 81 58 80 4A 00 18 90 4F 7F 82 44 80 4F 00 24 90 4E 7F 83 7E 4F 7F 2A 80 4E 00 03 90 56 7F 88 6B 80 4F 00 18 90 4F 7F 15 80 56 00 18 90 5B 7F 81 2B 80 4F 00 2D 5B 00 45 90 5A 7F 00 4E 7F 81 58 80 5A 00 00 4E 00 18 90 56 7F 00 4A 7F 81 58 80 4A 00 18 90 4A 7F 81 58 80 4A 00 00 56 00 18 90 53 7F 81 58 80 53 00 18 90 4F 7F 83 30 80 4F 00 30 90 4A 7F 82 44 80 4A 00 24 90 4F 7F 82 50 80 4F 00 18 90 4E 7F 81 58 80 4E 00 18 90 4F 7F 86 60 80 4F 00 60 90 54 7F 82 44 80 54 00 24 90 53 7F 82 50 80 53 00 18 90 4F 7F 83 48 80 4F 00 18 90 4F 7F 00 4A 7F 81 58 80 4F 00 00 4A 00 18 90 4E 7F 81 58 80 4E 00 18 90 4A 7F 81 58 80 4A 00 18 90 4F 7F 82 44 80 4F 00 24 90 4E 7F 82 50 80 4E 00 18 90 4A 7F 4D 4F 7F 81 0B 80 4A 00 17 4F 00 01 90 51 7F 8D 40 80 51 00 83 30 90 4F 7F 00 4A 7F 81 58 80 4F 00 00 4A 00 18 90 4E 7F 81 58 80 4E 00 18 90 4A 7F 81 58 80 4A 00 18 90 4F 7F 82 44 80 4F 00 24 90 4E 7F 82 50 80 4E 00 18 90 4A 7F 86 53 4F 7F 25 80 4A 00 47 4F 00 81 71 90 56 7F 81 58 80 56 00 18 90 54 7F 83 30 80 54 00 30 90 53 7F 00 4A 7F 83 48 80 53 00 00 4A 00 18 90 4F 7F 00 4A 7F 81 58 80 4F 00 00 4A 00 18 90 4E 7F 81 58 80 4E 00 18 90 4A 7F 81 58 80 4A 00 18 90 4F 7F 82 44 80 4F 00 24 90 4E 7F 82 50 80 4E 00 18 90 4A 7F 88 50 80 4A 00 60 90 56 7F 00 4F 7F 84 76 4F 7F 12 80 56 00 00 4F 00 1B 90 5B 7F 83 1B 80 4F 00 2D 5B 00 45 90 5A 7F 83 30 80 5A 00 30 90 56 7F 8E 38 80 56 00 48 90 5B 7F 00 4F 7F 83 48 80 5B 00 00 4F 00 18 90 5A 7F 83 30 80 5A 00 30 90 56 7F 88 50 80 56 00 60 90 54 7F 85 08 80 54 00 48 90 53 7F 00 4C 7F 8F 30 80 53 00 00 4C 00 85 20 90 4F 7F 81 58 80 4F 00 18 90 56 7F 85 08 80 56 00 48 90 4E 7F 81 58 80 4E 00 18 90 4F 7F 86 78 80 4F 00 48 90 4F 7F 81 58 80 4F 00 18 90 54 7F 81 58 80 54 00 18 90 53 7F 50 54 7F 1C 80 53 00 34 90 53 7F 1C 80 54 00 34 90 51 7F 1C 80 53 00 81 3C 51 00 18 90 4F 7F 85 20 80 4F 00 30 90 4F 7F 81 58 80 4F 00 18 90 56 7F 85 08 80 56 00 48 90 4E 7F 81 58 80 4E 00 18 90 4F 7F 86 78 80 4F 00 48 90 5B 7F 6C 80 5B 00 0C 90 4F 7F 6C 80 4F 00 0C 90 5B 7F 6C 80 5B 00 0C 90 4F 7F 6C 80 4F 00 0C 90 5B 7F 6C 80 5B 00 0C 90 4F 7F 6C 80 4F 00 0C 90 5B 7F 81 58 80 5B 00 18 90 5D 7F 81 58 80 5D 00 18 90 5B 7F 82 44 80 5B 00 24 90 4F 7F 82 50 80 4F 00 18 90 5B 7F 82 5C 80 5B 00 0C 90 4F 7F 6C 80 4F 00 0C 90 5B 7F 6C 80 5B 00 0C 90 4F 7F 6C 80 4F 00 0C 90 5B 7F 6C 80 5B 00 0C 90 4F 7F 6C 80 4F 00 0C 90 5D 7F 81 58 80 5D 00 18 90 5B 7F 82 44 80 5B 00 24 90 4F 7F 82 50 80 4F 00 18 90 5B 7F 82 5C 80 5B 00 0C 90 4F 7F 6C 80 4F 00 0C 90 5B 7F 6C 80 5B 00 0C 90 4F 7F 6C 80 4F 00 0C 90 5B 7F 6C 80 5B 00 0C 90 4F 7F 6C 80 4F 00 0C 90 5D 7F 81 58 80 5D 00 18 90 5B 7F 82 44 80 5B 00 24 90 4F 7F 82 50 80 4F 00 18 90 5B 7F 82 5C 80 5B 00 0C 90 4F 7F 6C 80 4F 00 0C 90 5B 7F 6C 80 5B 00 0C 90 4F 7F 6C 80 4F 00 0C 90 5B 7F 6C 80 5B 00 0C 90 4F 7F 6C 80 4F 00 0C 90 5D 7F 81 58 80 5D 00 18 90 4E 7F 83 30 80 4E 00 30 90 5A 7F 81 58 80 5A 00 18 90 4E 7F 81 58 80 4E 00 18 90 5A 7F 83 30 80 5A 00 30 90 5A 7F 81 58 80 5A 00 18 90 4E 7F 81 58 80 4E 00 18 90 40 7F 00 43 7F 00 47 7F 8D 40 80 40 00 00 43 00 00 47 00 81 40 90 42 7F 00 45 7F 00 4A 7F 86 60 80 42 00 00 45 00 00 4A 00 60 90 4A 7F 00 47 7F 00 43 7F 82 44 80 4A 00 00 47 00 00 43 00 24 90 4F 7F 82 50 80 4F 00 18 90 4E 7F 85 20 80 4E 00 30 90 43 7F 00 45 7F 00 4A 7F 8A 10 80 43 00 00 45 00 00 4A 00 81 10 90 40 7F 00 43 7F 00 47 7F 85 08 80 40 00 00 43 00 00 47 00 48 90 3C 7F 00 40 7F 00 43 7F 88 50 80 3C 00 00 40 00 00 43 00 60 90 40 7F 00 43 7F 00 47 7F 8D 40 80 40 00 00 43 00 00 47 00 81 40 90 42 7F 00 45 7F 00 4A 7F 86 60 80 42 00 00 45 00 00 4A 00 60 90 4A 7F 00 47 7F 00 43 7F 82 44 80 4A 00 00 47 00 00 43 00 24 90 4F 7F 00 47 7F 82 50 80 4F 00 00 47 00 18 90 4E 7F 00 4A 7F 81 58 80 4E 00 00 4A 00 18 90 37 7F 00 3C 7F 00 3E 7F 83 30 80 37 00 00 3C 00 00 3E 00 30 90 56 7F 00 51 7F 00 4F 7F 8A 10 80 56 00 00 51 00 00 4F 00 81 10 90 37 7F 00 3C 7F 00 40 7F 85 08 80 37 00 00 3C 00 00 40 00 48 90 37 7F 00 3C 7F 00 40 7F 83 48 80 37 00 00 3C 00 00 40 00 18 90 3E 7F 81 58 80 3E 00 18 90 37 7F 81 58 80 37 00 18 90 3E 7F 81 58 80 3E 00 18 90 40 7F 00 43 7F 00 47 7F 85 08 80 40 00 00 43 00 00 47 00 48 90 40 7F 00 43 7F 00 47 7F 83 48 80 40 00 00 43 00 00 47 00 18 90 40 7F 00 43 7F 00 47 7F 85 08 80 40 00 00 43 00 00 47 00 48 90 3E 7F 00 42 7F 00 45 7F 85 08 80 3E 00 00 42 00 00 45 00 48 90 3E 7F 00 43 7F 00 47 7F 85 20 80 3E 00 00 43 00 00 47 00 30 90 4F 7F 81 58 80 4F 00 18 90 4E 7F 81 58 80 4E 00 18 90 4C 7F 81 58 80 4C 00 18 90 3E 7F 00 43 7F 6C 80 3E 00 00 43 00 0C 90 3E 7F 00 43 7F 82 50 80 3E 00 00 43 00 18 90 3E 7F 83 48 80 3E 00 18 90 43 7F 17 43 7F 81 41 80 43 00 17 43 00 01 90 4A 7F 00 45 7F 83 30 80 4A 00 00 45 00 30 90 43 7F 82 44 80 43 00 24 90 3E 7F 82 50 80 3E 00 18 90 43 7F 83 48 80 43 00 18 90 43 7F 00 45 7F 00 4A 7F 85 08 80 43 00 00 45 00 00 4A 00 48 90 40 7F 00 43 7F 00 47 7F 8D 40 80 40 00 00 43 00 00 47 00 81 40 90 42 7F 00 45 7F 00 4A 7F 86 60 80 42 00 00 45 00 00 4A 00 60 90 4A 7F 00 47 7F 00 43 7F 82 44 80 4A 00 00 47 00 00 43 00 24 90 4F 7F 00 4A 7F 00 47 7F 82 50 80 4F 00 00 4A 00 00 47 00 18 90 4E 7F 83 48 80 4E 00 18 90 4F 7F 00 47 7F 81 58 80 4F 00 00 47 00 18 90 4F 7F 00 47 7F 89 18 80 4F 00 00 47 00 18 90 4A 7F 00 47 7F 83 48 80 4A 00 00 47 00 18 90 4F 7F 00 4A 7F 00 47 7F 8C 30 80 4F 00 00 4A 00 00 47 00 84 40 90 4F 7F 81 58 80 4F 00 18 90 56 7F 85 08 80 56 00 48 90 4E 7F 81 58 80 4E 00 18 90 4F 7F 86 78 80 4F 00 48 90 4F 7F 81 58 80 4F 00 18 90 54 7F 81 58 80 54 00 18 90 53 7F 50 54 7F 1C 80 53 00 34 90 53 7F 1C 80 54 00 34 90 51 7F 1C 80 53 00 81 3C 51 00 18 90 4F 7F 85 20 80 4F 00 30 90 4F 7F 81 58 80 4F 00 18 90 56 7F 85 08 80 56 00 48 90 4E 7F 81 58 80 4E 00 18 90 4F 7F 86 78 80 4F 00 48 90 4F 7F 81 58 80 4F 00 18 90 5B 7F 82 44 80 5B 00 24 90 5A 7F 82 50 80 5A 00 18 90 56 7F 81 58 80 56 00 83 78 90 4F 7F 81 58 80 4F 00 18 90 56 7F 85 08 80 56 00 48 90 4E 7F 81 58 80 4E 00 18 90 4F 7F 86 78 80 4F 00 48 90 4F 7F 81 58 80 4F 00 18 90 54 7F 81 58 80 54 00 18 90 53 7F 50 54 7F 1C 80 53 00 34 90 53 7F 1C 80 54 00 34 90 51 7F 1C 80 53 00 81 3C 51 00 18 90 4F 7F 81 58 80 4F 00 18 90 53 7F 00 4F 7F 82 44 80 53 00 00 4F 00 24 90 4F 7F 82 50 80 4F 00 18 90 54 7F 00 4F 7F 82 5C 80 54 00 00 4F 00 0C 90 53 7F 82 44 80 53 00 24 90 51 7F 81 58 80 51 00 18 90 4F 7F 81 58 80 4F 00 18 90 51 7F 00 4F 7F 00 4A 7F 86 60 80 51 00 00 4F 00 00 4A 00 60 90 4E 7F 86 60 80 4E 00 60 90 4F 7F 8D 10 80 4F 00 81 6F B0 7F 00 00 FF 2F 00 4D 54 72 6B 00 00 1B E7 00 B1 00 00 00 20 00 00 C1 00 00 FF 03 08 53 6F 75 6E 64 20 32 00 00 B1 07 7F 00 0A 40 00 91 40 7F 81 58 81 40 00 18 91 47 7F 81 58 81 47 00 18 91 4C 7F 81 58 81 4C 00 18 91 47 7F 81 58 81 47 00 18 91 3C 7F 81 58 81 3C 00 18 91 43 7F 81 58 81 43 00 18 91 48 7F 81 58 81 48 00 18 91 43 7F 81 58 81 43 00 18 91 37 7F 81 58 81 37 00 18 91 3E 7F 81 58 81 3E 00 18 91 43 7F 81 58 81 43 00 18 91 3E 7F 81 58 81 3E 00 18 91 36 7F 81 58 81 36 00 18 91 3E 7F 81 58 81 3E 00 18 91 43 7F 81 58 81 43 00 18 91 3E 7F 81 58 81 3E 00 18 91 40 7F 81 58 81 40 00 18 91 47 7F 81 58 81 47 00 18 91 4C 7F 81 58 81 4C 00 18 91 47 7F 81 58 81 47 00 18 91 3C 7F 81 58 81 3C 00 18 91 43 7F 81 58 81 43 00 18 91 4A 7F 81 58 81 4A 00 18 91 43 7F 81 58 81 43 00 18 91 37 7F 81 58 81 37 00 18 91 3E 7F 81 58 81 3E 00 18 91 43 7F 81 58 81 43 00 18 91 3E 7F 81 58 81 3E 00 18 91 36 7F 81 58 81 36 00 18 91 3E 7F 81 58 81 3E 00 18 91 43 7F 81 58 81 43 00 18 91 3E 7F 81 58 81 3E 00 18 91 40 7F 81 58 81 40 00 18 91 47 7F 81 58 81 47 00 18 91 4C 7F 81 58 81 4C 00 18 91 47 7F 81 58 81 47 00 18 91 3C 7F 81 58 81 3C 00 18 91 43 7F 81 58 81 43 00 18 91 48 7F 81 58 81 48 00 18 91 43 7F 81 58 81 43 00 18 91 37 7F 81 58 81 37 00 18 91 3E 7F 81 58 81 3E 00 18 91 43 7F 81 58 81 43 00 18 91 3E 7F 81 58 81 3E 00 18 91 36 7F 81 58 81 36 00 18 91 3E 7F 81 58 81 3E 00 18 91 43 7F 81 58 81 43 00 18 91 3E 7F 81 58 81 3E 00 18 91 34 7F 81 58 81 34 00 18 91 3B 7F 81 58 81 3B 00 18 91 40 7F 81 58 81 40 00 18 91 3B 7F 81 58 81 3B 00 18 91 30 7F 81 58 81 30 00 18 91 37 7F 81 58 81 37 00 18 91 3B 7F 81 58 81 3B 00 18 91 37 7F 81 58 81 37 00 18 91 3E 7F 00 39 7F 00 32 7F 8D 40 81 3E 00 00 39 00 00 32 00 81 40 91 34 7F 81 58 81 34 00 18 91 3B 7F 81 58 81 3B 00 18 91 40 7F 81 58 81 40 00 18 91 3B 7F 81 58 81 3B 00 18 91 30 7F 81 58 81 30 00 18 91 37 7F 81 58 81 37 00 18 91 3C 7F 81 58 81 3C 00 18 91 37 7F 81 58 81 37 00 18 91 37 7F 81 58 81 37 00 18 91 3E 7F 81 58 81 3E 00 18 91 37 7F 81 58 81 37 00 18 91 32 7F 81 58 81 32 00 18 91 36 7F 81 58 81 36 00 18 91 3E 7F 81 58 81 3E 00 18 91 37 7F 81 58 81 37 00 18 91 32 7F 81 58 81 32 00 18 91 34 7F 81 58 81 34 00 18 91 3B 7F 81 58 81 3B 00 18 91 40 7F 81 58 81 40 00 18 91 3B 7F 81 58 81 3B 00 18 91 30 7F 81 58 81 30 00 18 91 37 7F 81 58 81 37 00 18 91 3C 7F 81 58 81 3C 00 18 91 37 7F 81 58 81 37 00 18 91 37 7F 81 58 81 37 00 18 91 3E 7F 81 58 81 3E 00 18 91 37 7F 81 58 81 37 00 18 91 32 7F 81 58 81 32 00 18 91 36 7F 81 58 81 36 00 18 91 3E 7F 81 58 81 3E 00 18 91 37 7F 81 58 81 37 00 18 91 32 7F 81 58 81 32 00 18 91 34 7F 81 58 81 34 00 18 91 3B 7F 81 58 81 3B 00 18 91 40 7F 81 58 81 40 00 18 91 3B 7F 81 58 81 3B 00 18 91 30 7F 81 58 81 30 00 18 91 37 7F 81 58 81 37 00 18 91 3E 7F 81 58 81 3E 00 18 91 37 7F 81 58 81 37 00 18 91 37 7F 81 58 81 37 00 18 91 3E 7F 81 58 81 3E 00 18 91 37 7F 81 58 81 37 00 18 91 3E 7F 81 58 81 3E 00 18 91 36 7F 81 58 81 36 00 18 91 3E 7F 81 58 81 3E 00 18 91 37 7F 81 58 81 37 00 18 91 3E 7F 81 58 81 3E 00 18 91 34 7F 81 58 81 34 00 18 91 3B 7F 81 58 81 3B 00 18 91 40 7F 81 58 81 40 00 18 91 3B 7F 81 58 81 3B 00 18 91 30 7F 81 58 81 30 00 18 91 37 7F 81 58 81 37 00 18 91 40 7F 81 58 81 40 00 18 91 37 7F 81 58 81 37 00 18 91 32 7F 81 58 81 32 00 18 91 39 7F 81 58 81 39 00 18 91 3E 7F 81 58 81 3E 00 18 91 39 7F 81 58 81 39 00 18 91 3E 7F 81 58 81 3E 00 18 91 39 7F 81 58 81 39 00 18 91 3E 7F 81 58 81 3E 00 18 91 39 7F 81 58 81 39 00 18 91 34 7F 81 58 81 34 00 18 91 3B 7F 81 58 81 3B 00 18 91 40 7F 81 58 81 40 00 18 91 3B 7F 81 58 81 3B 00 18 91 30 7F 81 58 81 30 00 18 91 37 7F 81 58 81 37 00 18 91 3C 7F 81 58 81 3C 00 18 91 37 7F 81 58 81 37 00 18 91 37 7F 81 58 81 37 00 18 91 3E 7F 81 58 81 3E 00 18 91 43 7F 81 58 81 43 00 18 91 3E 7F 81 58 81 3E 00 18 91 36 7F 81 58 81 36 00 18 91 3E 7F 81 58 81 3E 00 18 91 37 7F 81 58 81 37 00 18 91 3E 7F 81 58 81 3E 00 18 91 34 7F 81 58 81 34 00 18 91 3B 7F 81 58 81 3B 00 18 91 40 7F 81 58 81 40 00 18 91 3B 7F 81 58 81 3B 00 18 91 30 7F 81 58 81 30 00 18 91 37 7F 81 58 81 37 00 18 91 3E 7F 81 58 81 3E 00 18 91 37 7F 81 58 81 37 00 18 91 37 7F 81 58 81 37 00 18 91 3E 7F 81 58 81 3E 00 18 91 43 7F 81 58 81 43 00 18 91 3E 7F 81 58 81 3E 00 18 91 36 7F 81 58 81 36 00 18 91 3E 7F 81 58 81 3E 00 18 91 37 7F 81 58 81 37 00 18 91 3E 7F 81 58 81 3E 00 18 91 34 7F 81 58 81 34 00 18 91 3B 7F 81 58 81 3B 00 18 91 40 7F 81 58 81 40 00 18 91 3B 7F 81 58 81 3B 00 18 91 30 7F 81 58 81 30 00 18 91 37 7F 81 58 81 37 00 18 91 3C 7F 81 58 81 3C 00 18 91 37 7F 81 58 81 37 00 18 91 37 7F 81 58 81 37 00 18 91 3E 7F 81 58 81 3E 00 18 91 43 7F 81 58 81 43 00 18 91 3E 7F 81 58 81 3E 00 18 91 36 7F 81 58 81 36 00 18 91 3E 7F 81 58 81 3E 00 18 91 37 7F 81 58 81 37 00 18 91 3E 7F 81 58 81 3E 00 18 91 3B 7F 00 37 7F 00 34 7F 86 60 81 3B 00 00 37 00 00 34 00 60 91 39 7F 00 36 7F 00 32 7F 85 08 81 39 00 00 36 00 00 32 00 48 91 37 7F 00 34 7F 00 30 7F 8F 30 81 37 00 00 34 00 00 30 00 81 10 B1 40 00 26 07 5A 0A 40 00 00 91 40 7F 00 43 7F 00 47 7F 78 81 40 00 00 43 00 00 47 00 78 91 40 7F 00 43 7F 00 47 7F 78 81 40 00 00 43 00 00 47 00 78 91 40 7F 00 43 7F 00 47 7F 78 81 40 00 00 43 00 00 47 00 78 91 40 7F 00 43 7F 00 47 7F 78 81 40 00 00 43 00 00 47 00 78 91 3C 7F 00 40 7F 00 43 7F 78 81 3C 00 00 40 00 00 43 00 78 91 3C 7F 00 40 7F 00 43 7F 78 81 3C 00 00 40 00 00 43 00 78 91 3C 7F 00 40 7F 00 43 7F 78 81 3C 00 00 40 00 00 43 00 78 91 3C 7F 00 40 7F 00 43 7F 78 81 3C 00 00 40 00 00 43 00 78 91 3B 7F 00 3E 7F 00 43 7F 78 81 3B 00 00 3E 00 00 43 00 78 91 3B 7F 00 3E 7F 00 43 7F 78 81 3B 00 00 3E 00 00 43 00 78 91 3B 7F 00 3E 7F 00 43 7F 78 81 3B 00 00 3E 00 00 43 00 78 91 3B 7F 00 3E 7F 00 43 7F 78 81 3B 00 00 3E 00 00 43 00 78 91 39 7F 00 3C 7F 00 3E 7F 78 81 39 00 00 3C 00 00 3E 00 78 91 39 7F 00 3C 7F 00 3E 7F 78 81 39 00 00 3C 00 00 3E 00 78 91 39 7F 00 3C 7F 00 3E 7F 78 81 39 00 00 3C 00 00 3E 00 78 91 39 7F 00 3C 7F 00 3E 7F 78 81 39 00 00 3C 00 00 3E 00 78 91 40 7F 00 43 7F 00 47 7F 78 81 40 00 00 43 00 00 47 00 78 91 40 7F 00 43 7F 00 47 7F 78 81 40 00 00 43 00 00 47 00 78 91 40 7F 00 43 7F 00 47 7F 78 81 40 00 00 43 00 00 47 00 78 91 40 7F 00 43 7F 00 47 7F 78 81 40 00 00 43 00 00 47 00 78 91 3C 7F 00 40 7F 00 43 7F 78 81 3C 00 00 40 00 00 43 00 78 91 3C 7F 00 40 7F 00 43 7F 78 81 3C 00 00 40 00 00 43 00 78 91 3C 7F 00 40 7F 00 43 7F 78 81 3C 00 00 40 00 00 43 00 78 91 3C 7F 00 40 7F 00 43 7F 78 81 3C 00 00 40 00 00 43 00 78 91 3B 7F 00 3E 7F 00 43 7F 78 81 3B 00 00 3E 00 00 43 00 78 91 3B 7F 00 3E 7F 00 43 7F 78 81 3B 00 00 3E 00 00 43 00 78 91 3B 7F 00 3E 7F 00 43 7F 78 81 3B 00 00 3E 00 00 43 00 78 91 3B 7F 00 3E 7F 00 43 7F 78 81 3B 00 00 3E 00 00 43 00 78 91 39 7F 00 3C 7F 00 3E 7F 78 81 39 00 00 3C 00 00 3E 00 78 91 39 7F 00 3C 7F 00 3E 7F 78 81 39 00 00 3C 00 00 3E 00 78 91 39 7F 00 3C 7F 00 3E 7F 78 81 39 00 00 3C 00 00 3E 00 78 91 39 7F 00 3C 7F 00 3E 7F 78 81 39 00 00 3C 00 00 3E 00 78 91 40 7F 00 43 7F 00 47 7F 78 81 40 00 00 43 00 00 47 00 78 91 40 7F 00 43 7F 00 47 7F 78 81 40 00 00 43 00 00 47 00 78 91 40 7F 00 43 7F 00 47 7F 78 81 40 00 00 43 00 00 47 00 78 91 40 7F 00 43 7F 00 47 7F 78 81 40 00 00 43 00 00 47 00 78 91 3C 7F 00 40 7F 00 43 7F 78 81 3C 00 00 40 00 00 43 00 78 91 3C 7F 00 40 7F 00 43 7F 78 81 3C 00 00 40 00 00 43 00 78 91 3C 7F 00 40 7F 00 43 7F 78 81 3C 00 00 40 00 00 43 00 78 91 3C 7F 00 40 7F 00 43 7F 78 81 3C 00 00 40 00 00 43 00 78 91 3B 7F 00 3E 7F 00 43 7F 78 81 3B 00 00 3E 00 00 43 00 78 91 3B 7F 00 3E 7F 00 43 7F 78 81 3B 00 00 3E 00 00 43 00 78 91 3B 7F 00 3E 7F 00 43 7F 78 81 3B 00 00 3E 00 00 43 00 78 91 3B 7F 00 3E 7F 00 43 7F 78 81 3B 00 00 3E 00 00 43 00 78 91 39 7F 00 3C 7F 00 3E 7F 78 81 39 00 00 3C 00 00 3E 00 78 91 39 7F 00 3C 7F 00 3E 7F 78 81 39 00 00 3C 00 00 3E 00 78 91 39 7F 00 3C 7F 00 3E 7F 78 81 39 00 00 3C 00 00 3E 00 78 91 39 7F 00 3C 7F 00 3E 7F 78 81 39 00 00 3C 00 00 3E 00 78 91 3B 7F 00 37 7F 00 34 7F 78 81 3B 00 00 37 00 00 34 00 78 91 3B 7F 00 37 7F 00 34 7F 78 81 3B 00 00 37 00 00 34 00 78 91 3B 7F 00 37 7F 00 34 7F 78 81 3B 00 00 37 00 00 34 00 78 91 3B 7F 00 37 7F 00 34 7F 78 81 3B 00 00 37 00 00 34 00 78 91 37 7F 00 34 7F 00 30 7F 78 81 37 00 00 34 00 00 30 00 78 91 37 7F 00 34 7F 00 30 7F 78 81 37 00 00 34 00 00 30 00 78 91 37 7F 00 34 7F 00 30 7F 78 81 37 00 00 34 00 00 30 00 78 91 37 7F 00 34 7F 00 30 7F 78 81 37 00 00 34 00 00 30 00 78 91 39 7F 00 36 7F 00 32 7F 8D 40 81 39 00 00 36 00 00 32 00 81 2D B1 40 5E 13 91 40 7F 81 58 81 40 00 18 91 47 7F 81 58 81 47 00 18 91 4C 7F 81 58 81 4C 00 18 91 47 7F 81 58 81 47 00 18 91 3C 7F 81 58 81 3C 00 18 91 43 7F 81 58 81 43 00 18 91 48 7F 81 58 81 48 00 18 91 43 7F 81 58 81 43 00 18 91 37 7F 81 58 81 37 00 18 91 3E 7F 81 58 81 3E 00 18 91 43 7F 81 58 81 43 00 18 91 3E 7F 81 58 81 3E 00 18 91 36 7F 81 58 81 36 00 18 91 3E 7F 81 58 81 3E 00 18 91 43 7F 81 58 81 43 00 18 91 3E 7F 81 58 81 3E 00 18 91 40 7F 81 58 81 40 00 18 91 47 7F 81 58 81 47 00 18 91 4C 7F 81 58 81 4C 00 18 91 47 7F 81 58 81 47 00 18 91 3C 7F 81 58 81 3C 00 18 91 43 7F 81 58 81 43 00 18 91 4A 7F 81 58 81 4A 00 18 91 43 7F 81 58 81 43 00 18 91 37 7F 81 58 81 37 00 18 91 3E 7F 81 58 81 3E 00 18 91 43 7F 81 58 81 43 00 18 91 3E 7F 81 58 81 3E 00 18 91 36 7F 81 58 81 36 00 18 91 3E 7F 81 58 81 3E 00 18 91 43 7F 81 58 81 43 00 18 91 3E 7F 81 58 81 3E 00 18 91 40 7F 81 58 81 40 00 18 91 47 7F 81 58 81 47 00 18 91 4C 7F 81 58 81 4C 00 18 91 47 7F 81 58 81 47 00 18 91 3C 7F 81 58 81 3C 00 18 91 43 7F 81 58 81 43 00 18 91 48 7F 81 58 81 48 00 18 91 43 7F 81 58 81 43 00 18 91 37 7F 81 58 81 37 00 18 91 3E 7F 81 58 81 3E 00 18 91 43 7F 81 58 81 43 00 18 91 3E 7F 81 58 81 3E 00 18 91 36 7F 81 58 81 36 00 18 91 3E 7F 81 58 81 3E 00 18 91 43 7F 81 58 81 43 00 18 91 3E 7F 81 58 81 3E 00 18 91 34 7F 81 58 81 34 00 18 91 3B 7F 81 58 81 3B 00 18 91 40 7F 81 58 81 40 00 18 91 3B 7F 81 58 81 3B 00 18 91 30 7F 81 58 81 30 00 18 91 37 7F 81 58 81 37 00 18 91 3B 7F 81 58 81 3B 00 18 91 37 7F 81 58 81 37 00 18 91 3E 7F 00 39 7F 00 32 7F 8D 40 81 3E 00 00 39 00 00 32 00 81 40 91 34 7F 81 58 81 34 00 18 91 3B 7F 81 58 81 3B 00 18 91 40 7F 81 58 81 40 00 18 91 3B 7F 81 58 81 3B 00 18 91 30 7F 81 58 81 30 00 18 91 37 7F 81 58 81 37 00 18 91 3C 7F 81 58 81 3C 00 18 91 37 7F 81 58 81 37 00 18 91 37 7F 81 58 81 37 00 18 91 3E 7F 81 58 81 3E 00 18 91 37 7F 81 58 81 37 00 18 91 32 7F 81 58 81 32 00 18 91 36 7F 81 58 81 36 00 18 91 3E 7F 81 58 81 3E 00 18 91 37 7F 81 58 81 37 00 18 91 32 7F 81 58 81 32 00 18 91 34 7F 81 58 81 34 00 18 91 3B 7F 81 58 81 3B 00 18 91 40 7F 81 58 81 40 00 18 91 3B 7F 81 58 81 3B 00 18 91 30 7F 81 58 81 30 00 18 91 37 7F 81 58 81 37 00 18 91 3C 7F 81 58 81 3C 00 18 91 37 7F 81 58 81 37 00 18 91 37 7F 81 58 81 37 00 18 91 3E 7F 81 58 81 3E 00 18 91 37 7F 81 58 81 37 00 18 91 32 7F 81 58 81 32 00 18 91 36 7F 81 58 81 36 00 18 91 3E 7F 81 58 81 3E 00 18 91 37 7F 81 58 81 37 00 18 91 32 7F 81 58 81 32 00 18 91 34 7F 81 58 81 34 00 18 91 3B 7F 81 58 81 3B 00 18 91 40 7F 81 58 81 40 00 18 91 3B 7F 81 58 81 3B 00 18 91 30 7F 81 58 81 30 00 18 91 37 7F 81 58 81 37 00 18 91 3E 7F 81 58 81 3E 00 18 91 37 7F 81 58 81 37 00 18 91 37 7F 81 58 81 37 00 18 91 3E 7F 81 58 81 3E 00 18 91 37 7F 81 58 81 37 00 18 91 3E 7F 81 58 81 3E 00 18 91 36 7F 81 58 81 36 00 18 91 3E 7F 81 58 81 3E 00 18 91 37 7F 81 58 81 37 00 18 91 3E 7F 81 58 81 3E 00 18 91 34 7F 81 58 81 34 00 18 91 3B 7F 81 58 81 3B 00 18 91 40 7F 81 58 81 40 00 18 91 3B 7F 81 58 81 3B 00 18 91 30 7F 81 58 81 30 00 18 91 37 7F 81 58 81 37 00 18 91 40 7F 81 58 81 40 00 18 91 37 7F 81 58 81 37 00 18 91 32 7F 81 58 81 32 00 18 91 39 7F 81 58 81 39 00 18 91 3E 7F 81 58 81 3E 00 18 91 39 7F 81 58 81 39 00 18 91 3E 7F 81 58 81 3E 00 18 91 39 7F 81 58 81 39 00 18 91 3E 7F 81 58 81 3E 00 18 91 39 7F 81 58 81 39 00 18 91 34 7F 81 58 81 34 00 18 91 3B 7F 81 58 81 3B 00 18 91 40 7F 81 58 81 40 00 18 91 3B 7F 81 58 81 3B 00 18 91 30 7F 81 58 81 30 00 18 91 37 7F 81 58 81 37 00 18 91 3C 7F 81 58 81 3C 00 18 91 37 7F 81 58 81 37 00 18 91 37 7F 81 58 81 37 00 18 91 3E 7F 81 58 81 3E 00 18 91 43 7F 81 58 81 43 00 18 91 3E 7F 81 58 81 3E 00 18 91 36 7F 81 58 81 36 00 18 91 3E 7F 81 58 81 3E 00 18 91 37 7F 81 58 81 37 00 18 91 3E 7F 81 58 81 3E 00 18 91 34 7F 81 58 81 34 00 18 91 3B 7F 81 58 81 3B 00 18 91 40 7F 81 58 81 40 00 18 91 3B 7F 81 58 81 3B 00 18 91 30 7F 81 58 81 30 00 18 91 37 7F 81 58 81 37 00 18 91 3E 7F 81 58 81 3E 00 18 91 37 7F 81 58 81 37 00 18 91 37 7F 81 58 81 37 00 18 91 3E 7F 81 58 81 3E 00 18 91 43 7F 81 58 81 43 00 18 91 3E 7F 81 58 81 3E 00 18 91 36 7F 81 58 81 36 00 18 91 3E 7F 81 58 81 3E 00 18 91 37 7F 81 58 81 37 00 18 91 3E 7F 81 58 81 3E 00 18 91 34 7F 81 58 81 34 00 18 91 3B 7F 81 58 81 3B 00 18 91 40 7F 81 58 81 40 00 18 91 3B 7F 81 58 81 3B 00 18 91 30 7F 81 58 81 30 00 18 91 37 7F 81 58 81 37 00 18 91 3C 7F 81 58 81 3C 00 18 91 37 7F 81 58 81 37 00 18 91 37 7F 81 58 81 37 00 18 91 3E 7F 81 58 81 3E 00 18 91 43 7F 81 58 81 43 00 18 91 3E 7F 81 58 81 3E 00 18 91 36 7F 81 58 81 36 00 18 91 3E 7F 81 58 81 3E 00 18 91 37 7F 81 58 81 37 00 18 91 3E 7F 81 58 81 3E 00 18 91 3B 7F 00 37 7F 00 34 7F 86 60 81 3B 00 00 37 00 00 34 00 60 91 39 7F 00 36 7F 00 32 7F 85 08 81 39 00 00 36 00 00 32 00 48 91 37 7F 00 34 7F 00 30 7F 8F 30 81 37 00 00 34 00 00 30 00 81 23 B1 40 00 1D 40 00 00 91 40 7F 00 43 7F 00 47 7F 78 81 40 00 00 43 00 00 47 00 78 91 40 7F 00 43 7F 00 47 7F 78 81 40 00 00 43 00 00 47 00 78 91 40 7F 00 43 7F 00 47 7F 78 81 40 00 00 43 00 00 47 00 78 91 40 7F 00 43 7F 00 47 7F 78 81 40 00 00 43 00 00 47 00 78 91 3C 7F 00 40 7F 00 43 7F 78 81 3C 00 00 40 00 00 43 00 78 91 3C 7F 00 40 7F 00 43 7F 78 81 3C 00 00 40 00 00 43 00 78 91 3C 7F 00 40 7F 00 43 7F 78 81 3C 00 00 40 00 00 43 00 78 91 3C 7F 00 40 7F 00 43 7F 78 81 3C 00 00 40 00 00 43 00 78 91 3B 7F 00 3E 7F 00 43 7F 78 81 3B 00 00 3E 00 00 43 00 78 91 3B 7F 00 3E 7F 00 43 7F 78 81 3B 00 00 3E 00 00 43 00 78 91 3B 7F 00 3E 7F 00 43 7F 78 81 3B 00 00 3E 00 00 43 00 78 91 3B 7F 00 3E 7F 00 43 7F 78 81 3B 00 00 3E 00 00 43 00 78 91 39 7F 00 3C 7F 00 3E 7F 78 81 39 00 00 3C 00 00 3E 00 78 91 39 7F 00 3C 7F 00 3E 7F 78 81 39 00 00 3C 00 00 3E 00 78 91 39 7F 00 3C 7F 00 3E 7F 78 81 39 00 00 3C 00 00 3E 00 78 91 39 7F 00 3C 7F 00 3E 7F 78 81 39 00 00 3C 00 00 3E 00 78 91 40 7F 00 43 7F 00 47 7F 78 81 40 00 00 43 00 00 47 00 78 91 40 7F 00 43 7F 00 47 7F 78 81 40 00 00 43 00 00 47 00 78 91 40 7F 00 43 7F 00 47 7F 78 81 40 00 00 43 00 00 47 00 78 91 40 7F 00 43 7F 00 47 7F 78 81 40 00 00 43 00 00 47 00 78 91 3C 7F 00 40 7F 00 43 7F 78 81 3C 00 00 40 00 00 43 00 78 91 3C 7F 00 40 7F 00 43 7F 78 81 3C 00 00 40 00 00 43 00 78 91 3C 7F 00 40 7F 00 43 7F 78 81 3C 00 00 40 00 00 43 00 78 91 3C 7F 00 40 7F 00 43 7F 78 81 3C 00 00 40 00 00 43 00 78 91 3B 7F 00 3E 7F 00 43 7F 78 81 3B 00 00 3E 00 00 43 00 78 91 3B 7F 00 3E 7F 00 43 7F 78 81 3B 00 00 3E 00 00 43 00 78 91 3B 7F 00 3E 7F 00 43 7F 78 81 3B 00 00 3E 00 00 43 00 78 91 3B 7F 00 3E 7F 00 43 7F 78 81 3B 00 00 3E 00 00 43 00 78 91 39 7F 00 3C 7F 00 3E 7F 78 81 39 00 00 3C 00 00 3E 00 78 91 39 7F 00 3C 7F 00 3E 7F 78 81 39 00 00 3C 00 00 3E 00 78 91 39 7F 00 3C 7F 00 3E 7F 78 81 39 00 00 3C 00 00 3E 00 78 91 39 7F 00 3C 7F 00 3E 7F 78 81 39 00 00 3C 00 00 3E 00 78 91 40 7F 00 43 7F 00 47 7F 78 81 40 00 00 43 00 00 47 00 78 91 40 7F 00 43 7F 00 47 7F 78 81 40 00 00 43 00 00 47 00 78 91 40 7F 00 43 7F 00 47 7F 78 81 40 00 00 43 00 00 47 00 78 91 40 7F 00 43 7F 00 47 7F 78 81 40 00 00 43 00 00 47 00 78 91 3C 7F 00 40 7F 00 43 7F 78 81 3C 00 00 40 00 00 43 00 78 91 3C 7F 00 40 7F 00 43 7F 78 81 3C 00 00 40 00 00 43 00 78 91 3C 7F 00 40 7F 00 43 7F 78 81 3C 00 00 40 00 00 43 00 78 91 3C 7F 00 40 7F 00 43 7F 78 81 3C 00 00 40 00 00 43 00 78 91 3B 7F 00 3E 7F 00 43 7F 78 81 3B 00 00 3E 00 00 43 00 78 91 3B 7F 00 3E 7F 00 43 7F 78 81 3B 00 00 3E 00 00 43 00 78 91 3B 7F 00 3E 7F 00 43 7F 78 81 3B 00 00 3E 00 00 43 00 78 91 3B 7F 00 3E 7F 00 43 7F 78 81 3B 00 00 3E 00 00 43 00 78 91 39 7F 00 3C 7F 00 3E 7F 78 81 39 00 00 3C 00 00 3E 00 78 91 39 7F 00 3C 7F 00 3E 7F 78 81 39 00 00 3C 00 00 3E 00 78 91 39 7F 00 3C 7F 00 3E 7F 78 81 39 00 00 3C 00 00 3E 00 78 91 39 7F 00 3C 7F 00 3E 7F 78 81 39 00 00 3C 00 00 3E 00 78 91 3B 7F 00 37 7F 00 34 7F 78 81 3B 00 00 37 00 00 34 00 78 91 3B 7F 00 37 7F 00 34 7F 78 81 3B 00 00 37 00 00 34 00 78 91 3B 7F 00 37 7F 00 34 7F 78 81 3B 00 00 37 00 00 34 00 78 91 3B 7F 00 37 7F 00 34 7F 78 81 3B 00 00 37 00 00 34 00 78 91 37 7F 00 34 7F 00 30 7F 78 81 37 00 00 34 00 00 30 00 78 91 37 7F 00 34 7F 00 30 7F 78 81 37 00 00 34 00 00 30 00 78 91 37 7F 00 34 7F 00 30 7F 78 81 37 00 00 34 00 00 30 00 78 91 37 7F 00 34 7F 00 30 7F 78 81 37 00 00 34 00 00 30 00 78 91 39 7F 00 36 7F 00 32 7F 8D 40 81 39 00 00 36 00 00 32 00 81 2D B1 40 30 09 07 50 0A 91 32 7F 81 58 81 32 00 18 91 37 7F 81 58 81 37 00 18 91 3E 7F 81 58 81 3E 00 18 91 37 7F 81 58 81 37 00 18 91 34 7F 81 58 81 34 00 18 91 37 7F 81 58 81 37 00 18 91 3E 7F 81 58 81 3E 00 18 91 37 7F 81 58 81 37 00 18 91 32 7F 81 58 81 32 00 18 91 39 7F 81 58 81 39 00 18 91 3E 7F 81 58 81 3E 00 18 91 39 7F 81 58 81 39 00 18 91 2B 7F 81 58 81 2B 00 18 91 32 7F 81 58 81 32 00 18 91 37 7F 81 58 81 37 00 18 91 32 7F 81 58 81 32 00 18 91 30 7F 81 58 81 30 00 18 91 37 7F 81 58 81 37 00 18 91 3E 7F 81 58 81 3E 00 18 91 37 7F 81 58 81 37 00 18 91 30 7F 81 58 81 30 00 18 91 37 7F 81 58 81 37 00 18 91 3E 7F 81 58 81 3E 00 18 91 37 7F 81 58 81 37 00 18 91 34 7F 00 28 7F 85 08 81 34 00 00 28 00 48 91 24 7F 00 30 7F 88 50 81 24 00 00 30 00 60 91 34 7F 81 58 81 34 00 18 91 37 7F 81 58 81 37 00 18 91 3E 7F 81 58 81 3E 00 18 91 37 7F 81 58 81 37 00 18 91 34 7F 81 58 81 34 00 18 91 37 7F 81 58 81 37 00 18 91 3E 7F 81 58 81 3E 00 18 91 37 7F 81 58 81 37 00 18 91 32 7F 81 58 81 32 00 18 91 39 7F 81 58 81 39 00 18 91 3E 7F 81 58 81 3E 00 18 91 39 7F 81 58 81 39 00 18 91 2B 7F 81 58 81 2B 00 18 91 32 7F 81 58 81 32 00 18 91 37 7F 81 58 81 37 00 18 91 32 7F 81 58 81 32 00 18 91 30 7F 81 58 81 30 00 18 91 37 7F 81 58 81 37 00 18 91 3E 7F 81 58 81 3E 00 18 91 37 7F 81 58 81 37 00 18 91 2B 7F 81 58 81 2B 00 18 91 37 7F 81 58 81 37 00 18 91 3E 7F 81 58 81 3E 00 18 91 37 7F 81 58 81 37 00 18 91 24 7F 00 30 7F 85 08 81 24 00 00 30 00 48 91 24 7F 00 30 7F 88 50 81 24 00 00 30 00 60 91 34 7F 81 58 81 34 00 18 91 37 7F 81 58 81 37 00 18 91 3E 7F 81 58 81 3E 00 18 91 37 7F 81 58 81 37 00 18 91 34 7F 81 58 81 34 00 18 91 37 7F 81 58 81 37 00 18 91 3E 7F 81 58 81 3E 00 18 91 37 7F 81 58 81 37 00 18 91 32 7F 81 58 81 32 00 18 91 39 7F 81 58 81 39 00 18 91 3E 7F 81 58 81 3E 00 18 91 39 7F 81 58 81 39 00 18 91 2B 7F 81 58 81 2B 00 18 91 32 7F 81 58 81 32 00 18 91 37 7F 81 58 81 37 00 18 91 32 7F 81 58 81 32 00 18 91 30 7F 81 58 81 30 00 18 91 37 7F 81 58 81 37 00 18 91 39 7F 81 58 81 39 00 18 91 37 7F 81 58 81 37 00 18 91 30 7F 81 58 81 30 00 18 91 37 7F 81 58 81 37 00 18 91 39 7F 81 58 81 39 00 18 91 37 7F 81 58 81 37 00 18 91 30 7F 81 58 81 30 00 18 91 37 7F 81 58 81 37 00 18 91 3C 7F 81 58 81 3C 00 18 91 37 7F 81 58 81 37 00 18 91 30 7F 81 58 81 30 00 18 91 37 7F 81 58 81 37 00 18 91 3C 7F 81 58 81 3C 00 18 91 37 7F 81 58 81 37 00 18 91 34 7F 81 58 81 34 00 18 91 37 7F 81 58 81 37 00 18 91 3E 7F 81 58 81 3E 00 18 91 37 7F 81 58 81 37 00 18 91 34 7F 81 58 81 34 00 18 91 37 7F 81 58 81 37 00 18 91 3E 7F 81 58 81 3E 00 18 91 37 7F 81 58 81 37 00 18 91 32 7F 81 58 81 32 00 18 91 39 7F 81 58 81 39 00 18 91 3E 7F 81 58 81 3E 00 18 91 39 7F 81 58 81 39 00 18 91 2B 7F 81 58 81 2B 00 18 91 32 7F 81 58 81 32 00 18 91 37 7F 81 58 81 37 00 18 91 32 7F 81 58 81 32 00 18 91 30 7F 81 58 81 30 00 18 91 37 7F 81 58 81 37 00 18 91 3E 7F 81 58 81 3E 00 18 91 37 7F 81 58 81 37 00 18 91 30 7F 81 58 81 30 00 18 91 37 7F 81 58 81 37 00 18 91 3E 7F 81 58 81 3E 00 18 91 37 7F 81 58 81 37 00 18 91 34 7F 81 58 81 34 00 18 91 37 7F 81 58 81 37 00 18 91 3E 7F 81 58 81 3E 00 18 91 37 7F 81 58 81 37 00 18 91 24 7F 81 58 81 24 00 18 91 2B 7F 81 58 81 2B 00 18 91 30 7F 81 58 81 30 00 18 91 34 7F 81 58 81 34 00 18 91 40 7F 81 58 81 40 00 18 91 47 7F 81 58 81 47 00 18 91 4C 7F 81 58 81 4C 00 18 91 47 7F 81 58 81 47 00 18 91 3C 7F 81 58 81 3C 00 18 91 43 7F 81 58 81 43 00 18 91 48 7F 81 58 81 48 00 18 91 43 7F 81 58 81 43 00 18 91 37 7F 81 58 81 37 00 18 91 3E 7F 81 58 81 3E 00 18 91 43 7F 81 58 81 43 00 18 91 3E 7F 81 58 81 3E 00 18 91 36 7F 81 58 81 36 00 18 91 3E 7F 81 58 81 3E 00 18 91 43 7F 81 58 81 43 00 18 91 3E 7F 81 58 81 3E 00 18 91 40 7F 81 58 81 40 00 18 91 47 7F 81 58 81 47 00 18 91 4C 7F 81 58 81 4C 00 18 91 47 7F 81 58 81 47 00 18 91 3C 7F 81 58 81 3C 00 18 91 43 7F 81 58 81 43 00 18 91 4A 7F 81 58 81 4A 00 18 91 43 7F 81 58 81 43 00 18 91 37 7F 81 58 81 37 00 18 91 3E 7F 81 58 81 3E 00 18 91 43 7F 81 58 81 43 00 18 91 3E 7F 81 58 81 3E 00 18 91 36 7F 81 58 81 36 00 18 91 3E 7F 81 58 81 3E 00 18 91 43 7F 81 58 81 43 00 18 91 3E 7F 81 58 81 3E 00 18 91 40 7F 81 58 81 40 00 18 91 47 7F 81 58 81 47 00 18 91 4C 7F 81 58 81 4C 00 18 91 47 7F 81 58 81 47 00 18 91 3C 7F 81 58 81 3C 00 18 91 43 7F 81 58 81 43 00 18 91 48 7F 81 58 81 48 00 18 91 43 7F 81 58 81 43 00 18 91 37 7F 81 58 81 37 00 18 91 3E 7F 81 58 81 3E 00 18 91 43 7F 81 58 81 43 00 18 91 3E 7F 81 58 81 3E 00 18 91 36 7F 81 58 81 36 00 18 91 3E 7F 81 58 81 3E 00 18 91 43 7F 81 58 81 43 00 18 91 3E 7F 81 58 81 3E 00 18 91 34 7F 81 58 81 34 00 18 91 3B 7F 81 58 81 3B 00 18 91 40 7F 81 58 81 40 00 18 91 3B 7F 81 58 81 3B 00 18 91 30 7F 81 58 81 30 00 18 91 37 7F 81 58 81 37 00 18 91 3B 7F 81 58 81 3B 00 18 91 37 7F 81 58 81 37 00 18 91 39 7F 00 32 7F 8D 40 81 39 00 00 32 00 81 40 91 4F 7F 8D 10 81 4F 00 81 6F B0 7F 00 00 FF 2F 00 4D 54 72 6B 00 00 18 5B 00 B9 00 00 00 20 00 00 C9 00 00 FF 03 0B 50 65 72 63 75 73 73 69 6F 6E 00 00 B9 07 7F 00 0A 40 F8 00 99 23 64 10 89 23 00 81 60 99 4C 64 10 89 4C 00 81 60 99 27 64 10 89 27 00 81 60 99 23 64 00 2C 64 10 89 23 00 00 2C 00 81 60 99 23 64 10 89 23 00 81 60 99 4C 64 10 89 4C 00 81 60 99 27 64 10 89 27 00 81 60 99 2C 64 10 89 2C 00 81 60 99 23 64 10 89 23 00 81 60 99 4C 64 10 89 4C 00 81 60 99 27 64 10 89 27 00 81 60 99 23 64 00 2C 64 10 89 23 00 00 2C 00 68 99 23 64 10 89 23 00 68 99 23 64 10 89 23 00 81 60 99 4C 64 10 89 4C 00 81 60 99 27 64 10 89 27 00 81 60 99 2C 64 10 89 2C 00 81 60 99 23 64 10 89 23 00 81 60 99 4C 64 10 89 4C 00 81 60 99 27 64 10 89 27 00 81 60 99 23 64 00 2C 64 10 89 23 00 00 2C 00 81 60 99 23 64 10 89 23 00 81 60 99 4C 64 10 89 4C 00 81 60 99 27 64 10 89 27 00 81 60 99 2C 64 10 89 2C 00 81 60 99 23 64 10 89 23 00 81 60 99 4C 64 10 89 4C 00 81 60 99 27 64 10 89 27 00 81 60 99 23 64 00 2C 64 10 89 23 00 00 2C 00 68 99 23 64 10 89 23 00 68 99 23 64 10 89 23 00 81 60 99 4C 64 10 89 4C 00 81 60 99 27 64 10 89 27 00 81 60 99 2C 64 10 89 2C 00 81 60 99 23 64 10 89 23 00 81 60 99 4C 64 10 89 4C 00 81 60 99 27 64 10 89 27 00 81 60 99 23 64 00 2C 64 10 89 23 00 00 2C 00 81 60 99 23 64 10 89 23 00 81 60 99 4C 64 10 89 4C 00 81 60 99 27 64 10 89 27 00 81 60 99 2C 64 10 89 2C 00 81 60 99 23 64 10 89 23 00 81 60 99 4C 64 10 89 4C 00 81 60 99 27 64 10 89 27 00 81 60 99 23 64 00 2C 64 10 89 23 00 00 2C 00 68 99 23 64 10 89 23 00 68 99 23 64 10 89 23 00 81 60 99 4C 64 10 89 4C 00 81 60 99 27 64 10 89 27 00 81 60 99 2C 64 10 89 2C 00 81 60 99 23 64 10 89 23 00 81 60 99 4C 64 10 89 4C 00 81 60 99 27 64 10 89 27 00 81 60 99 23 64 00 2C 64 10 89 23 00 00 2C 00 81 60 99 23 64 10 89 23 00 81 60 99 4C 64 10 89 4C 00 81 60 99 27 64 10 89 27 00 81 60 99 2C 64 10 89 2C 00 81 60 99 23 64 10 89 23 00 81 60 99 4C 64 10 89 4C 00 81 60 99 27 64 10 89 27 00 81 60 99 23 64 00 2C 64 10 89 23 00 00 2C 00 68 99 23 64 10 89 23 00 68 99 23 64 10 89 23 00 81 60 99 4C 64 10 89 4C 00 81 60 99 27 64 10 89 27 00 81 60 99 2C 64 10 89 2C 00 81 60 99 23 64 10 89 23 00 81 60 99 4C 64 10 89 4C 00 81 60 99 27 64 10 89 27 00 81 60 99 23 64 00 2C 64 10 89 23 00 00 2C 00 81 60 99 23 64 10 89 23 00 81 60 99 4C 64 10 89 4C 00 81 60 99 27 64 10 89 27 00 81 60 99 2C 64 10 89 2C 00 81 60 99 23 64 10 89 23 00 81 60 99 4C 64 10 89 4C 00 81 60 99 27 64 10 89 27 00 81 60 99 23 64 00 2C 64 10 89 23 00 00 2C 00 68 99 23 64 10 89 23 00 68 99 23 64 10 89 23 00 81 60 99 4C 64 10 89 4C 00 81 60 99 27 64 10 89 27 00 81 60 99 2C 64 10 89 2C 00 81 60 99 23 64 10 89 23 00 81 60 99 4C 64 10 89 4C 00 81 60 99 27 64 10 89 27 00 81 60 99 23 64 00 2C 64 10 89 23 00 00 2C 00 81 60 99 23 64 10 89 23 00 81 60 99 4C 64 10 89 4C 00 81 60 99 27 64 10 89 27 00 81 60 99 2C 64 10 89 2C 00 81 60 99 23 64 10 89 23 00 81 60 99 4C 64 10 89 4C 00 81 60 99 27 64 10 89 27 00 81 60 99 23 64 00 2C 64 10 89 23 00 00 2C 00 68 99 23 64 10 89 23 00 68 99 23 64 10 89 23 00 81 60 99 4C 64 10 89 4C 00 81 60 99 27 64 10 89 27 00 81 60 99 2C 64 10 89 2C 00 81 60 99 23 64 10 89 23 00 81 60 99 4C 64 10 89 4C 00 81 60 99 27 64 10 89 27 00 81 60 99 23 64 00 2C 64 10 89 23 00 00 2C 00 81 60 99 23 64 10 89 23 00 81 60 99 4C 64 10 89 4C 00 81 60 99 27 64 10 89 27 00 81 60 99 2C 64 10 89 2C 00 81 60 99 23 64 10 89 23 00 81 60 99 4C 64 10 89 4C 00 81 60 99 27 64 10 89 27 00 81 60 99 23 64 00 2C 64 10 89 23 00 00 2C 00 68 99 23 64 10 89 23 00 68 99 23 64 10 89 23 00 81 60 99 4C 64 10 89 4C 00 81 60 99 27 64 10 89 27 00 81 60 99 2C 64 10 89 2C 00 81 60 99 23 64 10 89 23 00 81 60 99 4C 64 10 89 4C 00 81 60 99 27 64 10 89 27 00 81 60 99 23 64 00 2C 64 10 89 23 00 00 2C 00 81 60 99 23 64 10 89 23 00 81 60 99 4C 64 10 89 4C 00 81 60 99 27 64 10 89 27 00 81 60 99 2C 64 10 89 2C 00 81 60 99 23 64 10 89 23 00 81 60 99 4C 64 10 89 4C 00 81 60 99 27 64 10 89 27 00 81 60 99 23 64 00 2C 64 10 89 23 00 00 2C 00 68 99 23 64 10 89 23 00 68 99 23 64 10 89 23 00 81 60 99 4C 64 10 89 4C 00 81 60 99 27 64 10 89 27 00 81 60 99 2C 64 10 89 2C 00 81 60 99 23 64 10 89 23 00 81 60 99 4C 64 10 89 4C 00 81 60 99 27 64 10 89 27 00 81 60 99 23 64 00 2C 64 10 89 23 00 00 2C 00 81 60 99 23 64 10 89 23 00 81 60 99 4C 64 10 89 4C 00 81 60 99 27 64 10 89 27 00 81 60 99 2C 64 10 89 2C 00 81 60 99 23 64 10 89 23 00 81 60 99 4C 64 10 89 4C 00 81 60 99 27 64 10 89 27 00 81 60 99 23 64 00 2C 64 10 89 23 00 00 2C 00 68 99 23 64 10 89 23 00 68 99 23 64 10 89 23 00 81 60 99 4C 64 10 89 4C 00 81 60 99 27 64 10 89 27 00 81 60 99 2C 64 10 89 2C 00 81 60 99 23 64 10 89 23 00 81 60 99 4C 64 10 89 4C 00 81 60 99 27 64 10 89 27 00 81 60 99 23 64 00 2C 64 10 89 23 00 00 2C 00 81 60 99 23 64 10 89 23 00 81 60 99 4C 64 10 89 4C 00 81 60 99 27 64 10 89 27 00 81 60 99 2C 64 10 89 2C 00 81 60 99 23 64 10 89 23 00 81 60 99 4C 64 10 89 4C 00 81 60 99 27 64 10 89 27 00 81 60 99 23 64 00 2C 64 10 89 23 00 00 2C 00 68 99 23 64 10 89 23 00 68 99 23 64 10 89 23 00 81 60 99 4C 64 10 89 4C 00 81 60 99 27 64 10 89 27 00 81 60 99 2C 64 10 89 2C 00 81 60 99 23 64 10 89 23 00 81 60 99 4C 64 10 89 4C 00 81 60 99 27 64 10 89 27 00 81 60 99 23 64 00 2C 64 10 89 23 00 00 2C 00 81 60 99 23 64 10 89 23 00 81 60 99 4C 64 10 89 4C 00 81 60 99 27 64 10 89 27 00 81 60 99 2C 64 10 89 2C 00 81 60 99 23 64 10 89 23 00 81 60 99 4C 64 10 89 4C 00 81 60 99 27 64 10 89 27 00 81 60 99 23 64 00 2C 64 10 89 23 00 00 2C 00 68 99 23 64 10 89 23 00 68 99 23 64 10 89 23 00 81 60 99 4C 64 10 89 4C 00 81 60 99 27 64 10 89 27 00 81 60 99 2C 64 10 89 2C 00 81 60 99 23 64 10 89 23 00 81 60 99 4C 64 10 89 4C 00 81 60 99 27 64 10 89 27 00 81 60 99 23 64 00 2C 64 10 89 23 00 00 2C 00 81 60 99 23 64 10 89 23 00 81 60 99 4C 64 10 89 4C 00 81 60 99 27 64 10 89 27 00 81 60 99 2C 64 10 89 2C 00 81 60 99 23 64 10 89 23 00 81 60 99 4C 64 10 89 4C 00 81 60 99 27 64 10 89 27 00 81 60 99 23 64 00 2C 64 10 89 23 00 00 2C 00 68 99 23 64 10 89 23 00 68 99 23 64 10 89 23 00 81 60 99 4C 64 10 89 4C 00 81 60 99 27 64 10 89 27 00 81 60 99 2C 64 10 89 2C 00 81 60 99 23 64 10 89 23 00 81 60 99 4C 64 10 89 4C 00 81 60 99 27 64 10 89 27 00 81 60 99 23 64 00 2C 64 10 89 23 00 00 2C 00 81 60 99 23 64 10 89 23 00 81 60 99 4C 64 10 89 4C 00 81 60 99 27 64 10 89 27 00 81 60 99 2C 64 10 89 2C 00 81 60 99 23 64 10 89 23 00 81 60 99 4C 64 10 89 4C 00 81 60 99 27 64 10 89 27 00 81 60 99 23 64 00 2C 64 10 89 23 00 00 2C 00 68 99 23 64 10 89 23 00 68 99 23 64 10 89 23 00 81 60 99 4C 64 10 89 4C 00 81 60 99 27 64 10 89 27 00 81 60 99 2C 64 10 89 2C 00 81 60 99 23 64 10 89 23 00 81 60 99 4C 64 10 89 4C 00 81 60 99 27 64 10 89 27 00 81 60 99 23 64 00 2C 64 10 89 23 00 00 2C 00 81 60 99 23 64 10 89 23 00 81 60 99 4C 64 10 89 4C 00 81 60 99 27 64 10 89 27 00 81 60 99 2C 64 10 89 2C 00 81 60 99 23 64 10 89 23 00 81 60 99 4C 64 10 89 4C 00 81 60 99 27 64 10 89 27 00 81 60 99 23 64 00 2C 64 10 89 23 00 00 2C 00 68 99 23 64 10 89 23 00 68 99 23 64 10 89 23 00 81 60 99 4C 64 10 89 4C 00 81 60 99 27 64 10 89 27 00 81 60 99 2C 64 10 89 2C 00 81 60 99 23 64 10 89 23 00 81 60 99 4C 64 10 89 4C 00 81 60 99 27 64 10 89 27 00 81 60 99 23 64 00 2C 64 10 89 23 00 00 2C 00 81 60 99 23 64 10 89 23 00 81 60 99 4C 64 10 89 4C 00 81 60 99 27 64 10 89 27 00 81 60 99 2C 64 10 89 2C 00 81 60 99 23 64 10 89 23 00 81 60 99 4C 64 10 89 4C 00 81 60 99 27 64 10 89 27 00 81 60 99 23 64 00 2C 64 10 89 23 00 00 2C 00 68 99 23 64 10 89 23 00 68 99 23 64 10 89 23 00 81 60 99 4C 64 10 89 4C 00 81 60 99 27 64 10 89 27 00 81 60 99 2C 64 10 89 2C 00 81 60 99 23 64 10 89 23 00 81 60 99 4C 64 10 89 4C 00 81 60 99 27 64 10 89 27 00 81 60 99 23 64 00 2C 64 10 89 23 00 00 2C 00 81 60 99 23 64 10 89 23 00 81 60 99 4C 64 10 89 4C 00 81 60 99 27 64 10 89 27 00 81 60 99 2C 64 10 89 2C 00 81 60 99 23 64 10 89 23 00 81 60 99 4C 64 10 89 4C 00 81 60 99 27 64 10 89 27 00 81 60 99 23 64 00 2C 64 10 89 23 00 00 2C 00 68 99 23 64 10 89 23 00 68 99 23 64 10 89 23 00 81 60 99 4C 64 10 89 4C 00 81 60 99 27 64 10 89 27 00 81 60 99 2C 64 10 89 2C 00 81 60 99 23 64 10 89 23 00 81 60 99 4C 64 10 89 4C 00 81 60 99 27 64 10 89 27 00 81 60 99 23 64 00 2C 64 10 89 23 00 00 2C 00 81 60 99 23 64 10 89 23 00 81 60 99 4C 64 10 89 4C 00 81 60 99 27 64 10 89 27 00 81 60 99 2C 64 10 89 2C 00 81 60 99 23 64 10 89 23 00 81 60 99 4C 64 10 89 4C 00 81 60 99 27 64 10 89 27 00 81 60 99 23 64 00 2C 64 10 89 23 00 00 2C 00 68 99 23 64 10 89 23 00 68 99 23 64 10 89 23 00 81 60 99 4C 64 10 89 4C 00 81 60 99 27 64 10 89 27 00 81 60 99 2C 64 10 89 2C 00 81 60 99 23 64 10 89 23 00 81 60 99 4C 64 10 89 4C 00 81 60 99 27 64 10 89 27 00 81 60 99 23 64 00 2C 64 10 89 23 00 00 2C 00 81 60 99 23 64 10 89 23 00 81 60 99 4C 64 10 89 4C 00 81 60 99 27 64 10 89 27 00 81 60 99 2C 64 10 89 2C 00 81 60 99 23 64 10 89 23 00 81 60 99 4C 64 10 89 4C 00 81 60 99 27 64 10 89 27 00 81 60 99 23 64 00 2C 64 10 89 23 00 00 2C 00 68 99 23 64 10 89 23 00 68 99 23 64 10 89 23 00 81 60 99 4C 64 10 89 4C 00 81 60 99 27 64 10 89 27 00 81 60 99 2C 64 10 89 2C 00 81 60 99 23 64 10 89 23 00 81 60 99 4C 64 10 89 4C 00 81 60 99 27 64 10 89 27 00 81 60 99 23 64 00 2C 64 10 89 23 00 00 2C 00 81 60 99 23 64 10 89 23 00 81 60 99 4C 64 10 89 4C 00 81 60 99 27 64 10 89 27 00 81 60 99 2C 64 10 89 2C 00 81 60 99 23 64 10 89 23 00 81 60 99 4C 64 10 89 4C 00 81 60 99 27 64 10 89 27 00 81 60 99 23 64 00 2C 64 10 89 23 00 00 2C 00 68 99 23 64 10 89 23 00 68 99 23 64 10 89 23 00 81 60 99 4C 64 10 89 4C 00 81 60 99 27 64 10 89 27 00 81 60 99 2C 64 10 89 2C 00 81 60 99 23 64 10 89 23 00 81 60 99 4C 64 10 89 4C 00 81 60 99 27 64 10 89 27 00 81 60 99 23 64 00 2C 64 10 89 23 00 00 2C 00 81 60 99 23 64 10 89 23 00 81 60 99 4C 64 10 89 4C 00 81 60 99 27 64 10 89 27 00 81 60 99 2C 64 10 89 2C 00 81 60 99 23 64 10 89 23 00 81 60 99 4C 64 10 89 4C 00 81 60 99 27 64 10 89 27 00 81 60 99 23 64 00 2C 64 10 89 23 00 00 2C 00 68 99 23 64 10 89 23 00 68 99 23 64 10 89 23 00 81 60 99 4C 64 10 89 4C 00 81 60 99 27 64 10 89 27 00 81 60 99 2C 64 10 89 2C 00 81 60 99 23 64 10 89 23 00 81 60 99 4C 64 10 89 4C 00 81 60 99 27 64 10 89 27 00 81 60 99 23 64 00 2C 64 10 89 23 00 00 2C 00 81 60 99 23 64 10 89 23 00 81 60 99 4C 64 10 89 4C 00 81 60 99 27 64 10 89 27 00 81 60 99 2C 64 10 89 2C 00 81 60 99 23 64 10 89 23 00 81 60 99 4C 64 10 89 4C 00 81 60 99 27 64 10 89 27 00 81 60 99 23 64 00 2C 64 10 89 23 00 00 2C 00 68 99 23 64 10 89 23 00 68 99 23 64 10 89 23 00 81 60 99 4C 64 10 89 4C 00 81 60 99 27 64 10 89 27 00 81 60 99 2C 64 10 89 2C 00 81 60 99 23 64 10 89 23 00 81 60 99 4C 64 10 89 4C 00 81 60 99 27 64 10 89 27 00 81 60 99 23 64 00 2C 64 10 89 23 00 00 2C 00 81 60 99 23 64 10 89 23 00 81 60 99 4C 64 10 89 4C 00 81 60 99 27 64 10 89 27 00 81 60 99 2C 64 10 89 2C 00 81 60 99 23 64 10 89 23 00 81 60 99 4C 64 10 89 4C 00 81 60 99 27 64 10 89 27 00 81 60 99 23 64 00 2C 64 10 89 23 00 00 2C 00 68 99 23 64 10 89 23 00 68 99 23 64 10 89 23 00 81 60 99 4C 64 10 89 4C 00 81 60 99 27 64 10 89 27 00 81 60 99 2C 64 10 89 2C 00 81 60 99 23 64 10 89 23 00 81 60 99 4C 64 10 89 4C 00 81 60 99 27 64 10 89 27 00 81 60 99 23 64 00 2C 64 10 89 23 00 00 2C 00 81 60 99 23 64 10 89 23 00 81 60 99 4C 64 10 89 4C 00 81 60 99 27 64 10 89 27 00 81 60 99 2C 64 10 89 2C 00 81 60 99 23 64 10 89 23 00 81 60 99 4C 64 10 89 4C 00 81 60 99 27 64 10 89 27 00 81 60 99 23 64 00 2C 64 10 89 23 00 00 2C 00 68 99 23 64 10 89 23 00 68 99 23 64 10 89 23 00 81 60 99 4C 64 10 89 4C 00 81 60 99 27 64 10 89 27 00 81 60 99 2C 64 10 89 2C 00 81 60 99 23 64 10 89 23 00 81 60 99 4C 64 10 89 4C 00 81 60 99 27 64 10 89 27 00 81 60 99 23 64 00 2C 64 10 89 23 00 00 2C 00 81 60 99 23 64 10 89 23 00 81 60 99 4C 64 10 89 4C 00 81 60 99 27 64 10 89 27 00 81 60 99 2C 64 10 89 2C 00 81 60 99 23 64 10 89 23 00 81 60 99 4C 64 10 89 4C 00 81 60 99 27 64 10 89 27 00 81 60 99 23 64 00 2C 64 10 89 23 00 00 2C 00 68 99 23 64 10 89 23 00 68 99 23 64 10 89 23 00 81 60 99 4C 64 10 89 4C 00 81 60 99 27 64 10 89 27 00 81 60 99 2C 64 10 89 2C 00 81 60 99 23 64 10 89 23 00 81 60 99 4C 64 10 89 4C 00 81 60 99 27 64 10 89 27 00 81 60 99 23 64 00 2C 64 10 89 23 00 00 2C 00 81 60 99 23 64 10 89 23 00 81 60 99 4C 64 10 89 4C 00 81 60 99 27 64 10 89 27 00 81 60 99 2C 64 10 89 2C 00 81 60 99 23 64 10 89 23 00 81 60 99 4C 64 10 89 4C 00 81 60 99 27 64 10 89 27 00 81 60 99 23 64 00 2C 64 10 89 23 00 00 2C 00 68 99 23 64 10 89 23 00 68 99 23 64 10 89 23 00 81 60 99 4C 64 10 89 4C 00 81 60 99 27 64 10 89 27 00 81 60 99 2C 64 10 89 2C 00 81 60 99 23 64 10 89 23 00 81 60 99 4C 64 10 89 4C 00 81 60 99 27 64 10 89 27 00 81 60 99 23 64 00 2C 64 10 89 23 00 00 2C 00 81 60 99 23 64 10 89 23 00 81 60 99 4C 64 10 89 4C 00 81 60 99 27 64 10 89 27 00 81 60 99 2C 64 10 89 2C 00 81 60 99 23 64 10 89 23 00 81 60 99 4C 64 10 89 4C 00 81 60 99 27 64 10 89 27 00 81 60 99 23 64 00 2C 64 10 89 23 00 00 2C 00 68 99 23 64 10 89 23 00 68 99 23 64 10 89 23 00 81 60 99 4C 64 10 89 4C 00 81 60 99 27 64 10 89 27 00 81 60 99 2C 64 10 89 2C 00 81 60 99 23 64 10 89 23 00 81 60 99 4C 64 10 89 4C 00 81 60 99 27 64 10 89 27 00 81 60 99 23 64 00 2C 64 10 89 23 00 00 2C 00 81 60 99 23 64 10 89 23 00 81 60 99 4C 64 10 89 4C 00 81 60 99 27 64 10 89 27 00 81 60 99 2C 64 10 89 2C 00 81 60 99 23 64 10 89 23 00 81 60 99 4C 64 10 89 4C 00 81 60 99 27 64 10 89 27 00 81 60 99 23 64 00 2C 64 10 89 23 00 00 2C 00 68 99 23 64 10 89 23 00 68 99 23 64 10 89 23 00 81 60 99 4C 64 10 89 4C 00 81 60 99 27 64 10 89 27 00 81 60 99 2C 64 10 89 2C 00 81 60 99 23 64 10 89 23 00 81 60 99 4C 64 10 89 4C 00 81 60 99 27 64 10 89 27 00 81 60 99 23 64 00 2C 64 10 89 23 00 00 2C 00 81 60 99 23 64 10 89 23 00 81 60 99 4C 64 10 89 4C 00 81 60 99 27 64 10 89 27 00 81 60 99 2C 64 10 89 2C 00 81 60 99 23 64 10 89 23 00 81 60 99 4C 64 10 89 4C 00 81 60 99 27 64 10 89 27 00 81 60 99 23 64 00 2C 64 10 89 23 00 00 2C 00 68 99 23 64 10 89 23 00 68 99 23 64 10 89 23 00 81 60 99 4C 64 10 89 4C 00 81 60 99 27 64 10 89 27 00 81 60 99 2C 64 10 89 2C 00 81 60 99 23 64 10 89 23 00 81 60 99 4C 64 10 89 4C 00 81 60 99 27 64 10 89 27 00 81 60 99 23 64 00 2C 64 10 89 23 00 00 2C 00 81 60 99 23 64 10 89 23 00 81 60 99 4C 64 10 89 4C 00 81 60 99 27 64 10 89 27 00 81 60 99 2C 64 10 89 2C 00 81 60 99 23 64 10 89 23 00 81 60 99 4C 64 10 89 4C 00 81 60 99 27 64 10 89 27 00 81 60 99 23 64 00 2C 64 10 89 23 00 00 2C 00 68 99 23 64 10 89 23 00 68 99 23 64 10 89 23 00 81 60 99 4C 64 10 89 4C 00 81 60 99 27 64 10 89 27 00 81 60 99 2C 64 10 89 2C 00 81 60 99 23 64 10 89 23 00 81 60 99 4C 64 10 89 4C 00 81 60 99 27 64 10 89 27 00 81 60 99 23 64 00 2C 64 10 89 23 00 00 2C 00 81 60 99 23 64 10 89 23 00 81 60 99 4C 64 10 89 4C 00 81 60 99 27 64 10 89 27 00 81 60 99 2C 64 10 89 2C 00 81 60 99 23 64 10 89 23 00 81 60 99 4C 64 10 89 4C 00 81 60 99 27 64 10 89 27 00 81 60 99 23 64 00 2C 64 10 89 23 00 00 2C 00 68 99 23 64 10 89 23 00 68 99 23 64 10 89 23 00 81 60 99 4C 64 10 89 4C 00 81 60 99 27 64 10 89 27 00 81 60 99 2C 64 10 89 2C 00 81 60 99 23 64 10 89 23 00 81 60 99 4C 64 10 89 4C 00 81 60 99 27 64 10 89 27 00 81 60 99 23 64 00 2C 64 10 89 23 00 00 2C 00 81 60 99 23 64 10 89 23 00 81 60 99 4C 64 10 89 4C 00 81 60 99 27 64 10 89 27 00 81 60 99 2C 64 10 89 2C 00 81 60 99 23 64 10 89 23 00 81 60 99 4C 64 10 89 4C 00 81 60 99 27 64 10 89 27 00 81 60 99 23 64 00 2C 64 10 89 23 00 00 2C 00 68 99 23 64 10 89 23 00 68 99 23 64 10 89 23 00 81 60 99 4C 64 10 89 4C 00 81 60 99 27 64 10 89 27 00 81 60 99 2C 64 10 89 2C 00 81 60 99 23 64 10 89 23 00 81 60 99 4C 64 10 89 4C 00 81 60 99 27 64 10 89 27 00 81 60 99 23 64 00 2C 64 10 89 23 00 00 2C 00 81 60 99 23 64 10 89 23 00 81 60 99 4C 64 10 89 4C 00 81 60 99 27 64 10 89 27 00 81 60 99 2C 64 10 89 2C 00 81 60 99 23 64 10 89 23 00 81 60 99 4C 64 10 89 4C 00 81 60 99 27 64 10 89 27 00 81 60 99 23 64 00 2C 64 10 89 23 00 00 2C 00 68 99 23 64 10 89 23 00 68 99 23 64 10 89 23 00 81 60 99 4C 64 10 89 4C 00 81 60 99 27 64 10 89 27 00 81 60 99 2C 64 10 89 2C 00 81 60 99 23 64 10 89 23 00 81 60 99 4C 64 10 89 4C 00 81 60 99 27 64 10 89 27 00 81 60 99 23 64 00 2C 64 10 89 23 00 00 2C 00 81 60 99 23 64 10 89 23 00 81 60 99 4C 64 10 89 4C 00 81 60 99 27 64 10 89 27 00 81 60 99 2C 64 10 89 2C 00 81 60 99 23 64 10 89 23 00 81 60 99 4C 64 10 89 4C 00 81 60 99 27 64 10 89 27 00 81 60 99 23 64 00 2C 64 10 89 23 00 00 2C 00 68 99 23 64 10 89 23 00 68 99 23 64 10 89 23 00 81 60 99 4C 64 10 89 4C 00 81 60 99 27 64 10 89 27 00 81 60 99 2C 64 10 89 2C 00 81 60 99 23 64 10 89 23 00 81 60 99 4C 64 10 89 4C 00 81 60 99 27 64 10 89 27 00 81 60 99 23 64 00 2C 64 10 89 23 00 00 2C 00 81 60 99 23 64 10 89 23 00 81 60 99 4C 64 10 89 4C 00 81 60 99 27 64 10 89 27 00 81 60 99 2C 64 10 89 2C 00 81 60 99 23 64 10 89 23 00 81 60 99 4C 64 10 89 4C 00 81 60 99 27 64 10 89 27 00 81 60 99 23 64 00 2C 64 10 89 23 00 00 2C 00 68 99 23 64 10 89 23 00 68 99 23 64 10 89 23 00 81 60 99 4C 64 10 89 4C 00 81 60 99 27 64 10 89 27 00 81 60 99 2C 64 10 89 2C 00 81 60 99 23 64 10 89 23 00 81 60 99 4C 64 10 89 4C 00 81 60 99 27 64 10 89 27 00 81 60 99 23 64 00 2C 64 10 89 23 00 00 2C 00 81 60 99 23 64 10 89 23 00 81 60 99 4C 64 10 89 4C 00 81 60 99 27 64 10 89 27 00 81 60 99 2C 64 10 89 2C 00 81 60 99 23 64 10 89 23 00 81 60 99 4C 64 10 89 4C 00 81 60 99 27 64 10 89 27 00 81 60 99 23 64 00 2C 64 10 89 23 00 00 2C 00 68 99 23 64 10 89 23 00 68 99 23 64 10 89 23 00 81 60 99 4C 64 10 89 4C 00 81 60 99 27 64 10 89 27 00 81 60 99 2C 64 10 89 2C 00 81 60 99 23 64 10 89 23 00 81 60 99 4C 64 10 89 4C 00 81 60 99 27 64 10 89 27 00 81 60 99 23 64 00 2C 64 10 89 23 00 00 2C 00 81 60 99 23 64 10 89 23 00 81 60 99 4C 64 10 89 4C 00 81 60 99 27 64 10 89 27 00 81 60 99 2C 64 10 89 2C 00 81 60 99 23 64 10 89 23 00 81 60 99 4C 64 10 89 4C 00 81 60 99 27 64 10 89 27 00 81 60 99 23 64 00 2C 64 10 89 23 00 00 2C 00 68 99 23 64 10 89 23 00 68 99 23 64 10 89 23 00 81 60 99 4C 64 10 89 4C 00 81 60 99 27 64 10 89 27 00 81 60 99 2C 64 10 89 2C 00 81 60 99 23 64 10 89 23 00 81 60 99 4C 64 10 89 4C 00 81 60 99 27 64 10 89 27 00 81 60 99 23 64 00 2C 64 10 89 23 00 00 2C 00 81 60 99 23 64 10 89 23 00 81 60 99 4C 64 10 89 4C 00 81 60 99 27 64 10 89 27 00 81 60 99 2C 64 10 89 2C 00 81 60 99 23 64 10 89 23 00 81 60 99 4C 64 10 89 4C 00 81 60 99 27 64 10 89 27 00 81 60 99 23 64 00 2C 64 10 89 23 00 00 2C 00 68 99 23 64 10 89 23 00 68 99 23 64 10 89 23 00 81 60 99 4C 64 10 89 4C 00 81 60 99 27 64 10 89 27 00 81 60 99 2C 64 10 89 2C 00 81 60 99 23 64 10 89 23 00 81 60 99 4C 64 10 89 4C 00 81 60 99 27 64 10 89 27 00 81 60 99 23 64 00 2C 64 10 89 23 00 00 2C 00 81 60 99 23 64 10 89 23 00 81 60 99 4C 64 10 89 4C 00 81 60 99 27 64 10 89 27 00 81 60 99 2C 64 10 89 2C 00 81 60 99 23 64 10 89 23 00 81 60 99 4C 64 10 89 4C 00 81 60 99 27 64 10 89 27 00 81 60 99 23 64 00 2C 64 10 89 23 00 00 2C 00 68 99 23 64 10 89 23 00 68 99 23 64 10 89 23 00 81 60 99 4C 64 10 89 4C 00 81 60 99 27 64 10 89 27 00 81 60 99 2C 64 10 89 2C 00 CC 5F B0 7F 00 00 FF 2F 00 4D 54 72 6B 00 00 0D 4B 00 B2 00 00 00 20 00 00 C2 30 00 FF 03 08 53 6F 75 6E 64 20 34 00 00 B2 07 7F 00 0A 40 BB 76 07 50 8B 2A 92 36 64 81 70 37 64 4D 82 36 00 88 63 92 36 64 60 82 37 00 87 1A 36 00 87 06 92 37 64 87 40 39 64 4D 82 37 00 86 73 92 36 64 60 82 39 00 87 70 36 00 8A 10 92 36 64 81 70 37 64 81 2D 82 36 00 88 03 92 36 64 81 2D 82 37 00 86 13 92 34 64 73 82 36 00 8A 2D 92 36 64 26 82 34 00 81 4A 92 37 64 7D 82 36 00 73 92 3E 64 4D 82 37 00 8A 53 92 3C 64 56 82 3E 00 83 0A 92 3B 64 60 82 3C 00 8A 40 92 37 64 60 82 3B 00 83 00 92 39 64 81 1A 82 37 00 86 26 92 36 64 30 82 39 00 83 30 92 37 64 30 82 36 00 92 30 92 39 64 3A 82 37 00 8F 1C 39 00 8A 4A 92 36 64 81 70 37 64 4D 82 36 00 81 23 92 3E 64 4D 82 37 00 8A 53 92 3C 64 56 82 3E 00 83 0A 92 3B 64 7D 82 3C 00 8A 23 92 37 64 4D 82 3B 00 83 13 92 39 64 4D 82 37 00 86 73 92 37 64 26 82 39 00 83 3A 92 36 64 6A 82 37 00 82 76 92 34 64 56 82 36 00 8A 4A 92 36 64 73 82 34 00 7D 92 37 64 56 82 36 00 81 1A 92 3E 64 56 82 37 00 86 6A 92 3C 64 6A 82 3E 00 86 56 92 3B 64 73 82 3C 00 86 4D 92 3C 64 3A 82 3B 00 85 16 92 3B 64 6A 82 3C 00 72 B2 07 50 6B 07 4E 6B 07 4B 81 56 07 48 6C 07 44 81 56 07 41 6B 07 3D 81 57 07 3A 6B 07 36 81 56 07 33 6C 07 2F 81 56 07 2C 6B 07 28 6C 07 1E 0A 92 3B 64 56 82 3B 00 8A 4A 92 39 64 0A 82 3B 00 62 39 00 81 04 92 39 64 6C 82 39 00 7A B2 07 48 0A 92 3B 64 60 B2 07 46 0C 82 3B 00 5F B2 07 43 25 92 3B 64 6C 82 3B 00 44 B2 07 40 40 92 3B 64 2B B2 07 3C 41 82 3B 00 81 04 92 3B 64 10 B2 07 38 5C 82 3B 00 0F B2 07 34 75 92 3B 64 60 B2 07 31 0C 82 3B 00 5F B2 07 2D 25 92 3B 64 6C 82 3B 00 44 B2 07 2A 40 92 3B 64 2B B2 07 26 41 82 3B 00 81 04 92 3B 64 10 B2 07 22 5C 82 3B 00 0F B2 07 1E 75 92 3B 64 8B 20 82 3B 00 00 92 39 64 6C 82 39 00 81 04 92 39 64 6C 82 39 00 7A B2 07 48 0A 92 3B 64 60 B2 07 46 0C 82 3B 00 5F B2 07 43 25 92 3B 64 6C 82 3B 00 44 B2 07 40 40 92 3B 64 2B B2 07 3C 41 82 3B 00 81 04 92 3B 64 10 B2 07 38 5C 82 3B 00 0F B2 07 34 75 92 3B 64 60 B2 07 31 0C 82 3B 00 5F B2 07 2D 25 92 3B 64 6C 82 3B 00 44 B2 07 2A 40 92 3B 64 2B B2 07 26 41 82 3B 00 81 04 92 3B 64 10 B2 07 22 5C 82 3B 00 0F B2 07 1E 75 92 3B 64 87 40 82 3B 00 00 92 39 64 6C 82 39 00 81 04 92 39 64 6C 82 39 00 81 04 92 3B 64 6C 82 3B 00 81 04 92 3B 64 6C 82 3B 00 71 B2 07 32 13 92 3B 64 6D B2 07 35 81 00 07 39 81 00 07 3C 81 01 07 40 82 00 07 41 81 01 07 43 51 92 39 64 2F B2 07 45 3D 82 39 00 43 B2 07 47 41 92 39 64 6C 82 39 00 54 B2 07 49 1D 82 3B 00 13 92 3B 64 50 B2 07 4B 1C 82 3B 00 64 B2 07 4D 20 92 3B 64 61 B2 07 50 0B 82 3B 00 81 04 92 3B 64 00 37 64 71 B2 07 52 81 01 07 55 81 00 07 58 81 00 07 5B 83 01 07 5C 30 82 37 00 1D 92 3C 64 00 37 64 30 82 3B 00 03 B2 07 5D 81 01 07 5E 82 2C 07 55 55 07 5F 82 00 07 60 81 0B 92 39 64 00 36 64 00 32 64 56 82 3C 00 30 37 00 8D 70 B2 07 50 1D 82 36 00 0A 32 00 09 39 00 8A 7A 92 36 64 81 70 37 64 7D 82 36 00 88 33 92 36 64 81 1A 82 37 00 86 60 36 00 87 06 92 37 64 87 40 39 64 81 10 82 37 00 86 30 92 36 64 60 82 39 00 87 70 36 00 8A 10 92 36 64 81 70 37 64 30 82 36 00 89 00 92 36 64 56 82 37 00 87 5D 36 00 86 4D 92 37 64 87 40 39 64 81 1A 82 37 00 86 26 92 36 64 81 1A 82 39 00 87 40 36 00 8A 06 92 36 64 81 70 37 64 56 82 36 00 88 5A 92 36 64 60 82 37 00 86 60 92 34 64 73 82 36 00 8A 2D 92 36 64 81 06 82 34 00 6A 92 37 64 6A 82 36 00 81 06 92 3E 64 81 1A 82 37 00 8A 06 92 3C 64 73 82 3E 00 82 6D 92 3B 64 81 06 82 3C 00 8A 1A 92 37 64 81 06 82 3B 00 82 5A 92 39 64 81 06 82 37 00 86 3A 92 36 64 43 82 39 00 83 1D 92 37 64 81 40 82 36 00 91 20 92 39 64 81 36 82 37 00 8F 27 39 00 89 43 92 36 64 81 70 37 64 81 1A 82 36 00 56 92 3E 64 81 23 82 37 00 89 7D 92 3C 64 81 36 82 3E 00 82 2A 92 3B 64 81 10 82 3C 00 8A 10 92 37 64 7D 82 3B 00 82 63 92 39 64 7D 82 37 00 86 43 92 37 64 60 82 39 00 83 00 92 36 64 60 82 37 00 83 00 92 34 64 81 2D 82 36 00 89 73 92 36 64 1D 82 34 00 81 53 92 37 64 56 82 36 00 81 1A 92 3E 64 56 82 37 00 86 6A 92 3C 64 7D 82 3E 00 86 43 92 3B 64 81 23 82 3C 00 86 1D 92 3C 64 7D 82 3B 00 84 53 92 3B 64 60 82 3C 00 90 06 B2 07 1E 0A 92 3B 64 3A 82 3B 00 8A 66 92 39 64 0A 82 3B 00 62 39 00 81 04 92 39 64 6C 82 39 00 7A B2 07 48 0A 92 3B 64 60 B2 07 46 0C 82 3B 00 5F B2 07 43 25 92 3B 64 6C 82 3B 00 44 B2 07 40 40 92 3B 64 2B B2 07 3C 41 82 3B 00 81 04 92 3B 64 10 B2 07 38 5C 82 3B 00 0F B2 07 34 75 92 3B 64 60 B2 07 31 0C 82 3B 00 5F B2 07 2D 25 92 3B 64 6C 82 3B 00 44 B2 07 2A 40 92 3B 64 2B B2 07 26 41 82 3B 00 81 04 92 3B 64 10 B2 07 22 5C 82 3B 00 0F B2 07 1E 75 92 3B 64 8B 20 39 64 0A 82 3B 00 62 39 00 81 04 92 39 64 6C 82 39 00 7A B2 07 48 0A 92 3B 64 60 B2 07 46 0C 82 3B 00 5F B2 07 43 25 92 3B 64 6C 82 3B 00 44 B2 07 40 40 92 3B 64 2B B2 07 3C 41 82 3B 00 81 04 92 3B 64 10 B2 07 38 5C 82 3B 00 0F B2 07 34 75 92 3B 64 60 B2 07 31 0C 82 3B 00 5F B2 07 2D 25 92 3B 64 6C 82 3B 00 44 B2 07 2A 40 92 3B 64 2B B2 07 26 41 82 3B 00 81 04 92 3B 64 10 B2 07 22 5C 82 3B 00 0F B2 07 1E 75 92 3B 64 87 40 82 3B 00 00 92 39 64 6C 82 39 00 81 04 92 39 64 6C 82 39 00 81 04 92 3B 64 6C 82 3B 00 81 04 92 3B 64 6C 82 3B 00 7A B2 07 28 0A 92 3B 64 87 2D B2 07 36 13 82 3B 00 00 92 39 64 4D B2 07 38 1F 82 39 00 41 B2 07 3B 43 92 39 64 1D B2 07 3E 4F 82 39 00 12 B2 07 41 72 92 3B 64 4E B2 07 44 1E 82 3B 00 43 B2 07 48 41 92 3B 64 1F B2 07 4C 4D 82 3B 00 13 B2 07 50 71 92 3B 64 00 37 64 50 B2 07 52 60 07 54 60 07 56 61 07 59 81 40 07 5A 61 07 5B 60 07 5C 34 82 37 00 2C B2 07 5D 0E 82 3B 00 60 92 3C 64 00 37 64 82 74 B2 07 5E 83 61 07 5F 28 82 3C 00 09 37 00 26 B2 07 57 14 07 57 00 92 39 64 00 36 64 00 32 64 57 B2 07 58 6B 07 5A 81 56 07 5B 6C 07 5D 81 56 07 5E 6B 07 60 81 57 07 61 6B 07 63 81 56 07 64 6C 07 66 81 56 07 67 6B 07 69 62 07 39 0A 07 41 0A 92 34 64 00 37 64 00 3B 64 00 1C 64 00 1F 64 00 23 64 00 28 64 00 2B 64 00 2F 64 26 82 39 00 31 B2 07 3A 09 82 36 00 30 32 00 32 B2 07 3C 81 56 07 3E 6C 07 40 81 56 07 42 6B 07 44 81 57 07 45 6B 07 47 81 56 07 49 6C 07 4B 81 56 07 4D 6B 07 50 76 92 36 64 00 39 64 00 3E 64 00 1E 64 00 21 64 00 26 64 00 2A 64 00 2D 64 00 32 64 43 82 37 00 0A 2F 00 09 3B 00 00 23 00 0A 34 00 0A 2B 00 09 1F 00 30 1C 00 0A 28 00 86 00 26 00 13 92 2B 64 00 26 64 00 23 64 00 43 64 00 3E 64 00 3B 64 00 37 64 00 32 64 00 2F 64 0A 82 3E 00 13 2D 00 09 39 00 1D 36 00 00 2A 00 00 32 00 43 21 00 27 1E 00 8D 49 B2 07 50 83 00 07 4F 81 40 07 4E 60 07 4D 60 07 4C 60 07 4B 82 20 07 4A 60 07 49 60 07 48 81 40 07 47 60 07 46 60 07 45 60 07 44 81 40 07 43 60 07 42 60 07 41 60 07 40 81 40 07 3F 60 07 3E 60 07 3D 60 07 3C 4D 82 23 00 0B B2 07 3B 00 07 3C 00 07 3D 01 07 3F 01 07 41 01 07 42 00 07 44 01 07 46 00 07 48 01 07 49 01 07 4B 01 07 4D 00 07 4F 01 82 32 00 00 2B 00 00 3B 00 00 37 00 00 B2 07 41 0A 82 3E 00 00 43 00 00 92 37 64 00 3B 64 00 1C 64 00 1F 64 00 23 64 00 28 64 00 2F 64 00 34 64 0A 2B 64 09 82 26 00 1D 2F 00 8E 50 92 36 64 00 39 64 00 3E 64 00 1E 64 00 21 64 00 26 64 00 2A 64 00 2D 64 00 32 64 3A 82 37 00 00 2B 00 09 34 00 00 3B 00 00 2F 00 0A 23 00 13 28 00 1D 1F 00 30 1C 00 86 00 B2 07 47 13 92 2B 64 00 26 64 00 23 64 00 43 64 00 3E 64 00 3B 64 00 37 64 00 32 64 00 2F 64 0A 82 32 00 1C 3E 00 14 26 00 26 36 00 0A 39 00 1C 2D 00 0A 2A 00 1D 21 00 39 1E 00 08 B2 07 46 82 02 07 45 82 58 07 44 65 82 3E 00 00 32 00 00 2B 00 00 3B 00 00 37 00 09 2F 00 00 23 00 00 26 00 0A 92 3B 64 00 3E 64 00 1F 64 00 23 64 00 2B 64 00 2F 64 00 32 64 00 37 64 0A 82 43 00 00 92 26 64 81 00 B2 07 43 82 57 07 42 82 02 07 41 82 02 07 40 81 2C 07 3F 81 2C 07 3E 82 57 07 3D 82 02 07 3C 82 58 07 3B 82 02 07 3A 4D 82 2B 00 09 37 00 00 B2 07 55 0A 82 3B 00 00 92 2B 64 00 28 64 00 24 64 00 43 64 00 40 64 00 3C 64 00 37 64 00 34 64 00 30 64 0A 82 3E 00 09 32 00 0A 23 00 00 2F 00 0A 26 00 2F 1F 00 88 46 B2 07 43 01 82 34 00 09 2B 00 00 28 00 00 37 00 00 B2 07 43 0A 92 37 64 00 3B 64 00 1C 64 00 1F 64 00 23 64 00 28 64 00 2F 64 00 34 64 26 2B 64 0A 82 30 00 0A 43 00 00 24 00 09 40 00 13 3C 00 82 42 B2 07 44 6C 07 46 81 56 07 48 6B 07 4A 81 57 07 4B 6B 07 4D 81 56 07 4F 6C 07 51 81 56 07 52 6B 07 54 76 92 21 64 00 26 64 00 2A 64 00 32 64 00 36 64 00 39 64 0A 1E 64 00 2D 64 1C 82 34 00 0A 37 00 00 2F 00 09 2B 00 01 3B 00 00 28 00 26 23 00 0A 1F 00 26 1C 00 81 5D 92 3E 64 84 40 82 26 00 01 B2 07 4E 12 92 2B 64 00 23 64 00 43 64 00 3E 64 00 3B 64 00 37 64 00 32 64 00 2F 64 0A 26 64 26 82 32 00 13 39 00 00 2A 00 13 36 00 0A 2D 00 0A 21 00 56 1E 00 12 B2 07 4D 3B 82 3E 00 38 B2 07 4C 81 65 07 4B 72 07 4A 82 58 07 49 81 65 07 48 81 65 07 47 82 57 07 46 73 07 45 81 65 07 44 72 07 43 82 57 07 42 73 07 41 81 65 07 40 72 07 3F 82 58 07 3E 81 65 07 3D 81 65 07 3C 82 57 07 3B 73 07 3A 81 65 07 39 72 07 38 69 07 38 01 82 2B 00 00 23 00 00 3B 00 00 37 00 09 2F 00 00 B2 07 41 0A 92 37 64 00 3B 64 00 1C 64 00 1F 64 00 23 64 00 28 64 00 2B 64 00 34 64 13 82 43 00 00 92 2F 64 0A 82 3E 00 09 32 00 14 26 00 1D B2 07 3A 6B 07 3D 81 56 07 40 6C 07 44 81 56 07 47 6B 07 4A 81 57 07 4D 6B 07 50 81 56 07 53 6C 07 57 81 56 07 5A 6B 07 5D 63 82 2B 00 13 92 36 64 00 39 64 00 3E 64 00 1E 64 00 21 64 00 26 64 00 2A 64 00 2D 64 00 32 64 56 82 37 00 00 28 00 1D 3B 00 00 1C 00 00 23 00 0A 1F 00 00 34 00 13 2F 00 86 1D 32 00 00 3E 00 00 26 00 13 92 2B 64 00 26 64 00 23 64 00 43 64 00 3E 64 00 3B 64 00 37 64 00 32 64 00 2F 64 56 82 2D 00 14 36 00 09 1E 00 00 21 00 00 39 00 13 2A 00 82 50 B2 07 64 50 07 63 50 07 62 50 07 61 50 07 60 50 07 5F 50 07 5E 0A 92 1F 64 56 82 43 00 40 B2 07 5D 50 07 5C 50 07 5B 50 07 5A 50 07 59 50 07 58 81 20 07 57 50 07 56 50 07 55 50 07 54 50 07 53 50 07 52 81 20 07 51 50 07 50 50 07 4F 50 07 4E 50 07 4D 50 07 4C 81 20 07 4B 50 07 4A 01 07 5C 3F 07 5A 10 07 49 30 07 58 20 07 48 20 07 56 30 07 47 10 07 54 40 07 46 40 07 53 40 07 51 20 07 44 20 07 4F 30 07 41 10 07 4D 40 07 3E 40 07 4B 10 07 3C 30 07 49 20 07 39 20 07 47 30 07 36 10 07 45 37 82 26 00 09 32 00 0A 92 36 64 00 39 64 00 1E 64 00 21 64 00 26 64 00 2A 64 00 2D 64 00 32 64 36 B2 07 43 17 82 2B 00 09 23 00 00 3E 00 00 2F 00 00 1F 00 0A 37 00 00 3B 00 16 B2 07 41 40 07 3F 40 07 3D 81 00 07 3B 40 07 39 2A 92 34 64 00 37 64 00 1C 64 00 1F 64 00 23 64 00 28 64 00 2B 64 00 2F 64 16 B2 07 37 40 82 26 00 00 B2 07 35 27 82 36 00 00 2A 00 00 2D 00 09 21 00 0A 39 00 00 1E 00 0A 32 00 3C B2 07 31 40 07 2C 40 07 27 40 07 22 81 0D 82 2F 00 00 2B 00 0A 37 00 00 34 00 13 28 00 3A 23 00 39 1F 00 43 1C 00 81 84 69 B0 7F 00 00 FF 2F 00 FFFFFFFF 