time	duration	track	channel	instrument	pitch	velocity	bar	beat
0	750000	12	9	0	42	89	0.000000	0.000000
750000	750000	12	9	0	42	89	0.250000	1.000000
1500000	750000	12	9	0	42	89	0.500000	2.000000
2250000	750000	12	9	0	42	89	0.750000	3.000000
3000000	375000	4	1	0	77	89	1.000000	4.000000
3000000	1125000	5	2	0	55	89	1.000000	4.000000
3000000	1125000	5	2	0	62	89	1.000000	4.000000
3375000	375000	4	1	0	84	89	1.125000	4.500000
3750000	375000	4	1	0	82	89	1.250000	5.000000
4125000	750000	4	1	0	74	89	1.375000	5.500000
4125000	1875000	5	2	0	58	89	1.375000	5.500000
4125000	1875000	5	2	0	62	89	1.375000	5.500000
4125000	1875000	5	2	0	65	89	1.375000	5.500000
4875000	187500	4	1	0	82	89	1.625000	6.500000
5062500	187500	4	1	0	84	89	1.687500	6.750000
5250000	187500	4	1	0	86	89	1.750000	7.000000
5437500	187500	4	1	0	84	89	1.812500	7.250000
5625000	187500	4	1	0	82	89	1.875000	7.500000
5812500	187500	4	1	0	84	89	1.937500	7.750000
6000000	375000	4	1	0	77	89	2.000000	8.000000
6000000	1125000	5	2	0	51	89	2.000000	8.000000
6000000	1125000	5	2	0	58	89	2.000000	8.000000
6000000	1125000	5	2	0	63	89	2.000000	8.000000
6375000	375000	4	1	0	84	89	2.125000	8.500000
6750000	375000	4	1	0	82	89	2.250000	9.000000
7125000	750000	4	1	0	77	89	2.375000	9.500000
7125000	1125000	5	2	0	58	89	2.375000	9.500000
7125000	1125000	5	2	0	62	89	2.375000	9.500000
7125000	1125000	5	2	0	65	89	2.375000	9.500000
7875000	187500	4	1	0	82	89	2.625000	10.500000
8062500	187500	4	1	0	84	89	2.687500	10.750000
8250000	187500	4	1	0	86	89	2.750000	11.000000
8250000	750000	5	2	0	53	89	2.750000	11.000000
8250000	750000	5	2	0	60	89	2.750000	11.000000
8250000	750000	5	2	0	65	89	2.750000	11.000000
8437500	187500	4	1	0	84	89	2.812500	11.250000
8625000	187500	4	1	0	82	89	2.875000	11.500000
8812500	187500	4	1	0	84	89	2.937500	11.750000
9000000	375000	4	1	0	77	89	3.000000	12.000000
9000000	1125000	5	2	0	55	89	3.000000	12.000000
9000000	1125000	5	2	0	62	89	3.000000	12.000000
9375000	375000	4	1	0	84	89	3.125000	12.500000
9750000	375000	4	1	0	82	89	3.250000	13.000000
10125000	750000	4	1	0	77	89	3.375000	13.500000
10125000	1875000	5	2	0	58	89	3.375000	13.500000
10125000	1875000	5	2	0	62	89	3.375000	13.500000
10125000	1875000	5	2	0	65	89	3.375000	13.500000
10875000	187500	4	1	0	82	89	3.625000	14.500000
11062500	187500	4	1	0	84	89	3.687500	14.750000
11250000	187500	4	1	0	86	89	3.750000	15.000000
11437500	187500	4	1	0	84	89	3.812500	15.250000
11625000	187500	4	1	0	82	89	3.875000	15.500000
11812500	187500	4	1	0	84	89	3.937500	15.750000
12000000	375000	4	1	0	77	89	4.000000	16.000000
12000000	1125000	5	2	0	51	89	4.000000	16.000000
12000000	1125000	5	2	0	58	89	4.000000	16.000000
12000000	1125000	5	2	0	63	89	4.000000	16.000000
12375000	375000	4	1	0	84	89	4.125000	16.500000
12750000	375000	4	1	0	82	89	4.250000	17.000000
13125000	1875000	4	1	0	77	89	4.375000	17.500000
13125000	1875000	5	2	0	58	89	4.375000	17.500000
13125000	1875000	5	2	0	62	89	4.375000	17.500000
13125000	1875000	5	2	0	65	89	4.375000	17.500000
13875000	375000	3	0	73	70	89	4.625000	18.500000
14250000	375000	3	0	73	74	89	4.750000	19.000000
14625000	375000	3	0	73	77	89	4.875000	19.500000
15000000	187500	3	0	73	79	89	5.000000	20.000000
15000000	1125000	4	1	0	53	89	5.000000	20.000000
15000000	1125000	4	1	0	58	89	5.000000	20.000000
15000000	1125000	4	1	0	62	89	5.000000	20.000000
15000000	1125000	5	2	0	39	89	5.000000	20.000000
15000000	1125000	11	8	32	39	89	5.000000	20.000000
15187500	187500	3	0	73	81	89	5.062500	20.250000
15375000	750000	3	0	73	79	89	5.125000	20.500000
16125000	562500	3	0	73	77	89	5.375000	21.500000
16125000	1875000	4	1	0	53	89	5.375000	21.500000
16125000	1875000	4	1	0	58	89	5.375000	21.500000
16125000	1875000	4	1	0	62	89	5.375000	21.500000
16125000	1875000	5	2	0	46	89	5.375000	21.500000
16125000	1875000	11	8	32	46	89	5.375000	21.500000
16687500	187500	3	0	73	79	89	5.562500	22.250000
17812500	187500	3	0	73	70	89	5.937500	23.750000
18000000	375000	3	0	73	72	89	6.000000	24.000000
18000000	1125000	4	1	0	55	89	6.000000	24.000000
18000000	1125000	4	1	0	58	89	6.000000	24.000000
18000000	1125000	4	1	0	63	89	6.000000	24.000000
18000000	1125000	5	2	0	39	89	6.000000	24.000000
18000000	1125000	11	8	32	39	89	6.000000	24.000000
18375000	375000	3	0	73	72	89	6.125000	24.500000
18750000	375000	3	0	73	70	89	6.250000	25.000000
19125000	750000	3	0	73	74	89	6.375000	25.500000
19125000	1875000	4	1	0	53	89	6.375000	25.500000
19125000	1875000	4	1	0	58	89	6.375000	25.500000
19125000	1875000	4	1	0	62	89	6.375000	25.500000
19125000	1875000	5	2	0	46	89	6.375000	25.500000
19125000	1875000	11	8	32	46	89	6.375000	25.500000
20625000	187500	3	0	73	74	89	6.875000	27.500000
20812500	187500	3	0	73	77	89	6.937500	27.750000
21000000	375000	3	0	73	79	89	7.000000	28.000000
21000000	1125000	4	1	0	55	89	7.000000	28.000000
21000000	1125000	4	1	0	58	89	7.000000	28.000000
21000000	1125000	4	1	0	62	89	7.000000	28.000000
21000000	1125000	5	2	0	39	89	7.000000	28.000000
21000000	1125000	11	8	32	39	89	7.000000	28.000000
21375000	375000	3	0	73	81	89	7.125000	28.500000
21750000	375000	3	0	73	79	89	7.250000	29.000000
22125000	375000	3	0	73	77	89	7.375000	29.500000
22125000	1875000	4	1	0	55	89	7.375000	29.500000
22125000	1875000	4	1	0	58	89	7.375000	29.500000
22125000	1875000	4	1	0	62	89	7.375000	29.500000
22125000	1875000	5	2	0	46	89	7.375000	29.500000
22125000	1875000	11	8	32	46	89	7.375000	29.500000
22500000	375000	3	0	73	74	89	7.500000	30.000000
22875000	375000	3	0	73	72	89	7.625000	30.500000
23250000	375000	3	0	73	72	89	7.750000	31.000000
23625000	375000	3	0	73	70	89	7.875000	31.500000
24000000	375000	3	0	73	72	89	8.000000	32.000000
24000000	1125000	4	1	0	55	89	8.000000	32.000000
24000000	1125000	4	1	0	58	89	8.000000	32.000000
24000000	1125000	4	1	0	63	89	8.000000	32.000000
24000000	1125000	5	2	0	39	89	8.000000	32.000000
24000000	1125000	11	8	32	39	89	8.000000	32.000000
24375000	375000	3	0	73	72	89	8.125000	32.500000
24750000	375000	3	0	73	74	89	8.250000	33.000000
25125000	375000	3	0	73	70	89	8.375000	33.500000
25125000	1500000	4	1	0	53	89	8.375000	33.500000
25125000	1500000	4	1	0	58	89	8.375000	33.500000
25125000	1500000	4	1	0	62	89	8.375000	33.500000
25125000	1500000	5	2	0	46	89	8.375000	33.500000
25125000	1500000	11	8	32	46	89	8.375000	33.500000
25500000	375000	3	0	73	67	89	8.500000	34.000000
26437500	187500	3	0	73	70	89	8.812500	35.250000
26625000	187500	3	0	73	74	89	8.875000	35.500000
26625000	375000	4	1	0	53	89	8.875000	35.500000
26625000	375000	4	1	0	57	89	8.875000	35.500000
26625000	375000	4	1	0	60	89	8.875000	35.500000
26625000	375000	5	2	0	41	89	8.875000	35.500000
26625000	375000	11	8	32	41	89	8.875000	35.500000
26812500	187500	3	0	73	77	89	8.937500	35.750000
27000000	187500	3	0	73	79	89	9.000000	36.000000
27000000	1125000	4	1	0	53	89	9.000000	36.000000
27000000	1125000	4	1	0	58	89	9.000000	36.000000
27000000	1125000	4	1	0	62	89	9.000000	36.000000
27000000	1125000	5	2	0	43	89	9.000000	36.000000
27000000	1125000	11	8	32	43	89	9.000000	36.000000
27187500	187500	3	0	73	81	89	9.062500	36.250000
27375000	375000	3	0	73	79	89	9.125000	36.500000
27750000	375000	3	0	73	77	89	9.250000	37.000000
28125000	750000	3	0	73	77	89	9.375000	37.500000
28125000	1875000	4	1	0	53	89	9.375000	37.500000
28125000	1875000	4	1	0	58	89	9.375000	37.500000
28125000	1875000	4	1	0	62	89	9.375000	37.500000
28125000	1875000	5	2	0	46	89	9.375000	37.500000
28125000	1875000	11	8	32	46	89	9.375000	37.500000
28875000	375000	3	0	73	79	89	9.625000	38.500000
29812500	187500	3	0	73	70	89	9.937500	39.750000
30000000	375000	3	0	73	72	89	10.000000	40.000000
30000000	1125000	4	1	0	55	89	10.000000	40.000000
30000000	1125000	4	1	0	58	89	10.000000	40.000000
30000000	1125000	4	1	0	63	89	10.000000	40.000000
30000000	1125000	5	2	0	39	89	10.000000	40.000000
30000000	1125000	11	8	32	39	89	10.000000	40.000000
30375000	375000	3	0	73	72	89	10.125000	40.500000
30750000	375000	3	0	73	70	89	10.250000	41.000000
31125000	375000	3	0	73	74	89	10.375000	41.500000
31125000	1125000	4	1	0	53	89	10.375000	41.500000
31125000	1125000	4	1	0	58	89	10.375000	41.500000
31125000	1125000	4	1	0	62	89	10.375000	41.500000
31125000	1125000	5	2	0	46	89	10.375000	41.500000
31125000	1125000	11	8	32	46	89	10.375000	41.500000
31500000	375000	3	0	73	72	89	10.500000	42.000000
32250000	375000	3	0	73	74	89	10.750000	43.000000
32250000	750000	4	1	0	53	89	10.750000	43.000000
32250000	750000	4	1	0	57	89	10.750000	43.000000
32250000	750000	4	1	0	60	89	10.750000	43.000000
32250000	750000	5	2	0	43	89	10.750000	43.000000
32250000	750000	11	8	32	43	89	10.750000	43.000000
32625000	375000	3	0	73	77	89	10.875000	43.500000
33000000	375000	3	0	73	79	89	11.000000	44.000000
33000000	1125000	4	1	0	53	89	11.000000	44.000000
33000000	1125000	4	1	0	58	89	11.000000	44.000000
33000000	1125000	4	1	0	62	89	11.000000	44.000000
33000000	1125000	5	2	0	43	89	11.000000	44.000000
33000000	1125000	11	8	32	43	89	11.000000	44.000000
33375000	375000	3	0	73	82	89	11.125000	44.500000
33750000	375000	3	0	73	84	89	11.250000	45.000000
34125000	375000	3	0	73	86	89	11.375000	45.500000
34125000	1875000	4	1	0	53	89	11.375000	45.500000
34125000	1875000	4	1	0	58	89	11.375000	45.500000
34125000	1875000	4	1	0	62	89	11.375000	45.500000
34125000	1875000	5	2	0	46	89	11.375000	45.500000
34125000	1875000	11	8	32	46	89	11.375000	45.500000
34500000	375000	3	0	73	84	89	11.500000	46.000000
34875000	375000	3	0	73	82	89	11.625000	46.500000
35250000	375000	3	0	73	79	89	11.750000	47.000000
35625000	375000	3	0	73	82	89	11.875000	47.500000
36000000	375000	3	0	73	84	89	12.000000	48.000000
36000000	1125000	4	1	0	55	89	12.000000	48.000000
36000000	1125000	4	1	0	58	89	12.000000	48.000000
36000000	1125000	4	1	0	63	89	12.000000	48.000000
36000000	1125000	5	2	0	39	89	12.000000	48.000000
36000000	1125000	11	8	32	39	89	12.000000	48.000000
36375000	375000	3	0	73	84	89	12.125000	48.500000
36750000	375000	3	0	73	82	89	12.250000	49.000000
37125000	375000	3	0	73	82	89	12.375000	49.500000
37125000	1875000	4	1	0	53	89	12.375000	49.500000
37125000	1875000	4	1	0	58	89	12.375000	49.500000
37125000	1875000	4	1	0	62	89	12.375000	49.500000
37125000	1875000	5	2	0	46	89	12.375000	49.500000
37125000	1875000	11	8	32	46	89	12.375000	49.500000
37500000	375000	3	0	73	79	89	12.500000	50.000000
38250000	375000	3	0	73	79	89	12.750000	51.000000
38625000	375000	3	0	73	82	89	12.875000	51.500000
39000000	375000	3	0	73	84	89	13.000000	52.000000
39000000	1125000	4	1	0	55	89	13.000000	52.000000
39000000	1125000	4	1	0	58	89	13.000000	52.000000
39000000	1125000	4	1	0	63	89	13.000000	52.000000
39000000	1125000	5	2	0	39	89	13.000000	52.000000
39000000	1125000	11	8	32	39	89	13.000000	52.000000
39375000	375000	3	0	73	84	89	13.125000	52.500000
39750000	375000	3	0	73	82	89	13.250000	53.000000
40125000	750000	3	0	73	82	89	13.375000	53.500000
40125000	1875000	4	1	0	53	89	13.375000	53.500000
40125000	1875000	4	1	0	58	89	13.375000	53.500000
40125000	1875000	4	1	0	62	89	13.375000	53.500000
40125000	1875000	5	2	0	46	89	13.375000	53.500000
40125000	1875000	11	8	32	46	89	13.375000	53.500000
41250000	46875	12	9	0	36	89	13.750000	55.000000
41250000	20312	12	9	0	69	52	13.750000	55.000000
41265625	20312	12	9	0	42	127	13.755208	55.020833
41265625	20312	12	9	0	49	85	13.755208	55.020833
41281250	20312	12	9	0	33	127	13.760417	55.041667
41625000	20312	12	9	0	69	29	13.875000	55.500000
41632812	20313	12	9	0	42	93	13.877604	55.510417
42000000	1125000	4	1	0	58	89	14.000000	56.000000
42000000	1125000	4	1	0	62	89	14.000000	56.000000
42000000	562500	6	3	53	74	89	14.000000	56.000000
42000000	1125000	7	4	35	31	127	14.000000	56.000000
42000000	1125000	8	5	18	31	127	14.000000	56.000000
42000000	1125000	9	6	32	31	127	14.000000	56.000000
42000000	20312	12	9	0	34	22	14.000000	56.000000
42000000	46875	12	9	0	36	89	14.000000	56.000000
42000000	20312	12	9	0	69	49	14.000000	56.000000
42000000	1125000	13	10	50	58	89	14.000000	56.000000
42000000	1125000	13	10	50	62	89	14.000000	56.000000
42000000	1125000	14	11	51	58	89	14.000000	56.000000
42000000	1125000	14	11	51	62	89	14.000000	56.000000
42007812	20313	12	9	0	42	127	14.002604	56.010417
42125000	20312	12	9	0	34	21	14.041667	56.166667
42250000	20312	12	9	0	34	29	14.083333	56.333333
42375000	20312	12	9	0	34	30	14.125000	56.500000
42375000	46875	12	9	0	36	89	14.125000	56.500000
42375000	20312	12	9	0	69	29	14.125000	56.500000
42382812	20313	12	9	0	42	93	14.127604	56.510417
42500000	20312	12	9	0	34	44	14.166667	56.666667
42562500	187500	6	3	53	72	89	14.187500	56.750000
42625000	20312	12	9	0	34	49	14.208333	56.833333
42750000	562500	6	3	53	74	89	14.250000	57.000000
42750000	20312	12	9	0	34	68	14.250000	57.000000
42750000	20312	12	9	0	39	62	14.250000	57.000000
42750000	20312	12	9	0	69	49	14.250000	57.000000
42757812	20313	12	9	0	42	127	14.252604	57.010417
43125000	375000	3	0	73	70	1	14.375000	57.500000
43125000	750000	4	1	0	58	89	14.375000	57.500000
43125000	750000	4	1	0	62	89	14.375000	57.500000
43125000	750000	7	4	35	34	127	14.375000	57.500000
43125000	750000	8	5	18	34	127	14.375000	57.500000
43125000	750000	9	6	32	34	127	14.375000	57.500000
43125000	20312	12	9	0	34	45	14.375000	57.500000
43125000	20312	12	9	0	69	29	14.375000	57.500000
43125000	750000	13	10	50	58	89	14.375000	57.500000
43125000	750000	13	10	50	62	89	14.375000	57.500000
43125000	750000	14	11	51	58	89	14.375000	57.500000
43125000	750000	14	11	51	62	89	14.375000	57.500000
43132812	20313	12	9	0	42	93	14.377604	57.510417
43312500	187500	6	3	53	72	89	14.437500	57.750000
43500000	562500	6	3	53	74	89	14.500000	58.000000
43500000	20312	12	9	0	34	57	14.500000	58.000000
43500000	20312	12	9	0	69	49	14.500000	58.000000
43507812	20313	12	9	0	42	127	14.502604	58.010417
43515625	20312	12	9	0	33	127	14.505208	58.020833
43875000	187500	3	0	73	70	1	14.625000	58.500000
43875000	562500	4	1	0	58	89	14.625000	58.500000
43875000	562500	4	1	0	62	89	14.625000	58.500000
43875000	562500	7	4	35	34	127	14.625000	58.500000
43875000	562500	8	5	18	34	127	14.625000	58.500000
43875000	562500	9	6	32	34	127	14.625000	58.500000
43875000	20312	12	9	0	42	127	14.625000	58.500000
43875000	20312	12	9	0	69	29	14.625000	58.500000
43875000	562500	13	10	50	58	89	14.625000	58.500000
43875000	562500	13	10	50	62	89	14.625000	58.500000
43875000	562500	14	11	51	58	89	14.625000	58.500000
43875000	562500	14	11	51	62	89	14.625000	58.500000
44000000	20312	12	9	0	42	127	14.666667	58.666667
44015625	46875	12	9	0	38	89	14.671875	58.687500
44062500	187500	3	0	73	70	1	14.687500	58.750000
44062500	187500	6	3	53	72	89	14.687500	58.750000
44109375	46875	12	9	0	38	89	14.703125	58.812500
44125000	20312	12	9	0	42	127	14.708333	58.833333
44250000	187500	6	3	53	74	89	14.750000	59.000000
44250000	20312	12	9	0	33	87	14.750000	59.000000
44250000	20312	12	9	0	34	36	14.750000	59.000000
44250000	46875	12	9	0	36	89	14.750000	59.000000
44250000	46875	12	9	0	38	89	14.750000	59.000000
44250000	20312	12	9	0	69	51	14.750000	59.000000
44265625	20312	12	9	0	42	127	14.755208	59.020833
44437500	562500	4	1	0	57	89	14.812500	59.250000
44437500	562500	4	1	0	60	89	14.812500	59.250000
44437500	187500	6	3	53	77	89	14.812500	59.250000
44437500	562500	7	4	35	29	127	14.812500	59.250000
44437500	562500	8	5	18	29	127	14.812500	59.250000
44437500	562500	9	6	32	29	127	14.812500	59.250000
44437500	562500	13	10	50	57	89	14.812500	59.250000
44437500	562500	13	10	50	60	89	14.812500	59.250000
44437500	562500	14	11	51	57	89	14.812500	59.250000
44437500	562500	14	11	51	60	89	14.812500	59.250000
44625000	187500	3	0	73	70	1	14.875000	59.500000
44625000	187500	6	3	53	74	89	14.875000	59.500000
44625000	20312	12	9	0	34	45	14.875000	59.500000
44625000	46875	12	9	0	36	89	14.875000	59.500000
44625000	46875	12	9	0	37	89	14.875000	59.500000
44625000	20312	12	9	0	69	29	14.875000	59.500000
44632812	20313	12	9	0	42	93	14.877604	59.510417
44812500	187500	3	0	73	70	1	14.937500	59.750000
44812500	187500	6	3	53	72	89	14.937500	59.750000
45000000	375000	3	0	73	70	1	15.000000	60.000000
45000000	1125000	4	1	0	58	89	15.000000	60.000000
45000000	1125000	4	1	0	62	89	15.000000	60.000000
45000000	562500	6	3	53	70	89	15.000000	60.000000
45000000	1125000	7	4	35	27	127	15.000000	60.000000
45000000	1125000	8	5	18	27	127	15.000000	60.000000
45000000	1125000	9	6	32	27	127	15.000000	60.000000
45000000	20312	12	9	0	34	22	15.000000	60.000000
45000000	46875	12	9	0	36	89	15.000000	60.000000
45000000	20312	12	9	0	69	49	15.000000	60.000000
45000000	1125000	13	10	50	58	89	15.000000	60.000000
45000000	1125000	13	10	50	62	89	15.000000	60.000000
45000000	1125000	14	11	51	58	89	15.000000	60.000000
45000000	1125000	14	11	51	62	89	15.000000	60.000000
45007812	20313	12	9	0	42	127	15.002604	60.010417
45125000	20312	12	9	0	34	21	15.041667	60.166667
45250000	20312	12	9	0	34	29	15.083333	60.333333
45375000	187500	3	0	73	70	1	15.125000	60.500000
45375000	20312	12	9	0	34	30	15.125000	60.500000
45375000	46875	12	9	0	36	89	15.125000	60.500000
45375000	20312	12	9	0	69	29	15.125000	60.500000
45382812	20313	12	9	0	42	93	15.127604	60.510417
45500000	20312	12	9	0	34	44	15.166667	60.666667
45562500	187500	3	0	73	70	1	15.187500	60.750000
45562500	187500	6	3	53	67	89	15.187500	60.750000
45625000	20312	12	9	0	34	49	15.208333	60.833333
45750000	375000	6	3	53	70	1	15.250000	61.000000
45750000	20312	12	9	0	34	68	15.250000	61.000000
45750000	20312	12	9	0	39	62	15.250000	61.000000
45750000	20312	12	9	0	69	49	15.250000	61.000000
45757812	20313	12	9	0	42	127	15.252604	61.010417
46125000	187500	3	0	73	70	1	15.375000	61.500000
46125000	750000	4	1	0	58	89	15.375000	61.500000
46125000	750000	4	1	0	62	89	15.375000	61.500000
46125000	187500	6	3	53	72	1	15.375000	61.500000
46125000	750000	7	4	35	34	127	15.375000	61.500000
46125000	750000	8	5	18	34	127	15.375000	61.500000
46125000	750000	9	6	32	34	127	15.375000	61.500000
46125000	20312	12	9	0	34	45	15.375000	61.500000
46125000	20312	12	9	0	69	29	15.375000	61.500000
46125000	750000	13	10	50	58	89	15.375000	61.500000
46125000	750000	13	10	50	62	89	15.375000	61.500000
46125000	750000	14	11	51	58	89	15.375000	61.500000
46125000	750000	14	11	51	62	89	15.375000	61.500000
46132812	20313	12	9	0	42	93	15.377604	61.510417
46312500	375000	3	0	73	70	1	15.437500	61.750000
46312500	375000	6	3	53	74	1	15.437500	61.750000
46500000	20312	12	9	0	34	57	15.500000	62.000000
46500000	20312	12	9	0	69	49	15.500000	62.000000
46507812	20313	12	9	0	42	127	15.502604	62.010417
46515625	20312	12	9	0	33	127	15.505208	62.020833
46687500	187500	3	0	73	70	1	15.562500	62.250000
46687500	187500	6	3	53	72	1	15.562500	62.250000
46875000	375000	3	0	73	70	1	15.625000	62.500000
46875000	562500	4	1	0	58	89	15.625000	62.500000
46875000	562500	4	1	0	62	89	15.625000	62.500000
46875000	562500	7	4	35	34	127	15.625000	62.500000
46875000	562500	8	5	18	34	127	15.625000	62.500000
46875000	562500	9	6	32	34	127	15.625000	62.500000
46875000	20312	12	9	0	42	127	15.625000	62.500000
46875000	20312	12	9	0	69	29	15.625000	62.500000
46875000	562500	13	10	50	58	89	15.625000	62.500000
46875000	562500	13	10	50	62	89	15.625000	62.500000
46875000	562500	14	11	51	58	89	15.625000	62.500000
46875000	562500	14	11	51	62	89	15.625000	62.500000
47000000	20312	12	9	0	42	127	15.666667	62.666667
47015625	46875	12	9	0	38	89	15.671875	62.687500
47109375	46875	12	9	0	38	89	15.703125	62.812500
47125000	20312	12	9	0	42	127	15.708333	62.833333
47250000	375000	3	0	73	70	1	15.750000	63.000000
47250000	20312	12	9	0	33	87	15.750000	63.000000
47250000	20312	12	9	0	34	36	15.750000	63.000000
47250000	46875	12	9	0	36	89	15.750000	63.000000
47250000	46875	12	9	0	38	89	15.750000	63.000000
47250000	20312	12	9	0	69	51	15.750000	63.000000
47265625	20312	12	9	0	42	127	15.755208	63.020833
47437500	562500	4	1	0	57	89	15.812500	63.250000
47437500	562500	4	1	0	60	89	15.812500	63.250000
47437500	562500	7	4	35	29	127	15.812500	63.250000
47437500	562500	8	5	18	29	127	15.812500	63.250000
47437500	562500	9	6	32	29	127	15.812500	63.250000
47437500	562500	13	10	50	57	89	15.812500	63.250000
47437500	562500	13	10	50	60	89	15.812500	63.250000
47437500	562500	14	11	51	57	89	15.812500	63.250000
47437500	562500	14	11	51	60	89	15.812500	63.250000
47625000	187500	6	3	53	70	1	15.875000	63.500000
47625000	20312	12	9	0	34	45	15.875000	63.500000
47625000	46875	12	9	0	36	89	15.875000	63.500000
47625000	46875	12	9	0	37	89	15.875000	63.500000
47625000	20312	12	9	0	69	29	15.875000	63.500000
47632812	20313	12	9	0	42	93	15.877604	63.510417
47812500	187500	3	0	73	70	1	15.937500	63.750000
47812500	187500	6	3	53	67	1	15.937500	63.750000
48000000	187500	3	0	73	70	1	16.000000	64.000000
48000000	1125000	4	1	0	58	89	16.000000	64.000000
48000000	1125000	4	1	0	62	89	16.000000	64.000000
48000000	562500	6	3	53	70	89	16.000000	64.000000
48000000	1125000	7	4	35	31	127	16.000000	64.000000
48000000	1125000	8	5	18	31	127	16.000000	64.000000
48000000	1125000	9	6	32	31	127	16.000000	64.000000
48000000	20312	12	9	0	34	22	16.000000	64.000000
48000000	46875	12	9	0	36	89	16.000000	64.000000
48000000	20312	12	9	0	69	49	16.000000	64.000000
48000000	1125000	13	10	50	58	89	16.000000	64.000000
48000000	1125000	13	10	50	62	89	16.000000	64.000000
48000000	1125000	14	11	51	58	89	16.000000	64.000000
48000000	1125000	14	11	51	62	89	16.000000	64.000000
48007812	20313	12	9	0	42	127	16.002604	64.010417
48125000	20312	12	9	0	34	21	16.041667	64.166667
48187500	187500	3	0	73	70	1	16.062500	64.250000
48250000	20312	12	9	0	34	29	16.083333	64.333333
48375000	187500	3	0	73	70	1	16.125000	64.500000
48375000	20312	12	9	0	34	30	16.125000	64.500000
48375000	46875	12	9	0	36	89	16.125000	64.500000
48375000	20312	12	9	0	69	29	16.125000	64.500000
48382812	20313	12	9	0	42	93	16.127604	64.510417
48500000	20312	12	9	0	34	44	16.166667	64.666667
48562500	187500	3	0	73	70	1	16.187500	64.750000
48562500	187500	6	3	53	67	89	16.187500	64.750000
48625000	20312	12	9	0	34	49	16.208333	64.833333
48750000	375000	3	0	73	70	1	16.250000	65.000000
48750000	375000	6	3	53	70	1	16.250000	65.000000
48750000	20312	12	9	0	34	68	16.250000	65.000000
48750000	20312	12	9	0	39	62	16.250000	65.000000
48750000	20312	12	9	0	69	49	16.250000	65.000000
48757812	20313	12	9	0	42	127	16.252604	65.010417
49125000	375000	3	0	73	70	1	16.375000	65.500000
49125000	750000	4	1	0	58	89	16.375000	65.500000
49125000	750000	4	1	0	62	89	16.375000	65.500000
49125000	187500	6	3	53	72	1	16.375000	65.500000
49125000	750000	7	4	35	34	127	16.375000	65.500000
49125000	750000	8	5	18	34	127	16.375000	65.500000
49125000	750000	9	6	32	34	127	16.375000	65.500000
49125000	20312	12	9	0	34	45	16.375000	65.500000
49125000	20312	12	9	0	69	29	16.375000	65.500000
49125000	750000	13	10	50	58	89	16.375000	65.500000
49125000	750000	13	10	50	62	89	16.375000	65.500000
49125000	750000	14	11	51	58	89	16.375000	65.500000
49125000	750000	14	11	51	62	89	16.375000	65.500000
49132812	20313	12	9	0	42	93	16.377604	65.510417
49312500	375000	6	3	53	74	1	16.437500	65.750000
49500000	187500	3	0	73	70	1	16.500000	66.000000
49500000	20312	12	9	0	34	57	16.500000	66.000000
49500000	20312	12	9	0	69	49	16.500000	66.000000
49507812	20313	12	9	0	42	127	16.502604	66.010417
49515625	20312	12	9	0	33	127	16.505208	66.020833
49687500	187500	3	0	73	70	1	16.562500	66.250000
49687500	187500	6	3	53	72	1	16.562500	66.250000
49875000	187500	3	0	73	70	1	16.625000	66.500000
49875000	562500	4	1	0	58	89	16.625000	66.500000
49875000	562500	4	1	0	62	89	16.625000	66.500000
49875000	562500	7	4	35	34	127	16.625000	66.500000
49875000	562500	8	5	18	34	127	16.625000	66.500000
49875000	562500	9	6	32	34	127	16.625000	66.500000
49875000	20312	12	9	0	42	127	16.625000	66.500000
49875000	20312	12	9	0	69	29	16.625000	66.500000
49875000	562500	13	10	50	58	89	16.625000	66.500000
49875000	562500	13	10	50	62	89	16.625000	66.500000
49875000	562500	14	11	51	58	89	16.625000	66.500000
49875000	562500	14	11	51	62	89	16.625000	66.500000
50000000	20312	12	9	0	42	127	16.666667	66.666667
50015625	46875	12	9	0	38	89	16.671875	66.687500
50062500	187500	3	0	73	70	1	16.687500	66.750000
50109375	46875	12	9	0	38	89	16.703125	66.812500
50125000	20312	12	9	0	42	127	16.708333	66.833333
50250000	20312	12	9	0	33	87	16.750000	67.000000
50250000	20312	12	9	0	34	36	16.750000	67.000000
50250000	46875	12	9	0	36	89	16.750000	67.000000
50250000	46875	12	9	0	38	89	16.750000	67.000000
50250000	20312	12	9	0	69	51	16.750000	67.000000
50265625	20312	12	9	0	42	127	16.755208	67.020833
50437500	562500	4	1	0	57	89	16.812500	67.250000
50437500	562500	4	1	0	60	89	16.812500	67.250000
50437500	562500	7	4	35	29	127	16.812500	67.250000
50437500	562500	8	5	18	29	127	16.812500	67.250000
50437500	562500	9	6	32	29	127	16.812500	67.250000
50437500	562500	13	10	50	57	89	16.812500	67.250000
50437500	562500	13	10	50	60	89	16.812500	67.250000
50437500	562500	14	11	51	57	89	16.812500	67.250000
50437500	562500	14	11	51	60	89	16.812500	67.250000
50625000	187500	3	0	73	70	1	16.875000	67.500000
50625000	187500	6	3	53	70	1	16.875000	67.500000
50625000	20312	12	9	0	34	45	16.875000	67.500000
50625000	46875	12	9	0	36	89	16.875000	67.500000
50625000	46875	12	9	0	37	89	16.875000	67.500000
50625000	20312	12	9	0	69	29	16.875000	67.500000
50632812	20313	12	9	0	42	93	16.877604	67.510417
50812500	187500	3	0	73	70	1	16.937500	67.750000
50812500	187500	6	3	53	67	1	16.937500	67.750000
51000000	187500	3	0	73	70	1	17.000000	68.000000
51000000	1125000	4	1	0	58	89	17.000000	68.000000
51000000	1125000	4	1	0	62	89	17.000000	68.000000
51000000	562500	6	3	53	70	89	17.000000	68.000000
51000000	1125000	7	4	35	27	127	17.000000	68.000000
51000000	1125000	8	5	18	27	127	17.000000	68.000000
51000000	1125000	9	6	32	27	127	17.000000	68.000000
51000000	20312	12	9	0	34	22	17.000000	68.000000
51000000	46875	12	9	0	36	89	17.000000	68.000000
51000000	20312	12	9	0	69	49	17.000000	68.000000
51000000	1125000	13	10	50	58	89	17.000000	68.000000
51000000	1125000	13	10	50	62	89	17.000000	68.000000
51000000	1125000	14	11	51	58	89	17.000000	68.000000
51000000	1125000	14	11	51	62	89	17.000000	68.000000
51007812	20313	12	9	0	42	127	17.002604	68.010417
51125000	20312	12	9	0	34	21	17.041667	68.166667
51187500	187500	3	0	73	70	1	17.062500	68.250000
51250000	20312	12	9	0	34	29	17.083333	68.333333
51375000	375000	3	0	73	70	1	17.125000	68.500000
51375000	20312	12	9	0	34	30	17.125000	68.500000
51375000	46875	12	9	0	36	89	17.125000	68.500000
51375000	20312	12	9	0	69	29	17.125000	68.500000
51382812	20313	12	9	0	42	93	17.127604	68.510417
51500000	20312	12	9	0	34	44	17.166667	68.666667
51562500	187500	6	3	53	67	89	17.187500	68.750000
51625000	20312	12	9	0	34	49	17.208333	68.833333
51750000	375000	6	3	53	70	1	17.250000	69.000000
51750000	20312	12	9	0	34	68	17.250000	69.000000
51750000	20312	12	9	0	39	62	17.250000	69.000000
51750000	20312	12	9	0	69	49	17.250000	69.000000
51757812	20313	12	9	0	42	127	17.252604	69.010417
51937500	187500	3	0	73	70	1	17.312500	69.250000
52125000	187500	3	0	73	70	1	17.375000	69.500000
52125000	750000	4	1	0	58	89	17.375000	69.500000
52125000	750000	4	1	0	62	89	17.375000	69.500000
52125000	187500	6	3	53	72	1	17.375000	69.500000
52125000	750000	7	4	35	34	127	17.375000	69.500000
52125000	750000	8	5	18	34	127	17.375000	69.500000
52125000	750000	9	6	32	34	127	17.375000	69.500000
52125000	20312	12	9	0	34	45	17.375000	69.500000
52125000	20312	12	9	0	69	29	17.375000	69.500000
52125000	750000	13	10	50	58	89	17.375000	69.500000
52125000	750000	13	10	50	62	89	17.375000	69.500000
52125000	750000	14	11	51	58	89	17.375000	69.500000
52125000	750000	14	11	51	62	89	17.375000	69.500000
52132812	20313	12	9	0	42	93	17.377604	69.510417
52312500	187500	3	0	73	70	1	17.437500	69.750000
52312500	562500	6	3	53	70	1	17.437500	69.750000
52500000	187500	3	0	73	70	1	17.500000	70.000000
52500000	20312	12	9	0	34	57	17.500000	70.000000
52500000	20312	12	9	0	69	49	17.500000	70.000000
52507812	20313	12	9	0	42	127	17.502604	70.010417
52515625	20312	12	9	0	33	127	17.505208	70.020833
52687500	187500	3	0	73	70	1	17.562500	70.250000
52875000	187500	3	0	73	70	1	17.625000	70.500000
52875000	562500	4	1	0	58	89	17.625000	70.500000
52875000	562500	4	1	0	62	89	17.625000	70.500000
52875000	562500	7	4	35	34	127	17.625000	70.500000
52875000	562500	8	5	18	34	127	17.625000	70.500000
52875000	562500	9	6	32	34	127	17.625000	70.500000
52875000	20312	12	9	0	42	127	17.625000	70.500000
52875000	20312	12	9	0	69	29	17.625000	70.500000
52875000	562500	13	10	50	58	89	17.625000	70.500000
52875000	562500	13	10	50	62	89	17.625000	70.500000
52875000	562500	14	11	51	58	89	17.625000	70.500000
52875000	562500	14	11	51	62	89	17.625000	70.500000
53000000	20312	12	9	0	42	127	17.666667	70.666667
53015625	46875	12	9	0	38	89	17.671875	70.687500
53062500	187500	3	0	73	70	1	17.687500	70.750000
53109375	46875	12	9	0	38	89	17.703125	70.812500
53125000	20312	12	9	0	42	127	17.708333	70.833333
53250000	187500	3	0	73	70	1	17.750000	71.000000
53250000	187500	6	3	53	65	89	17.750000	71.000000
53250000	20312	12	9	0	33	87	17.750000	71.000000
53250000	20312	12	9	0	34	36	17.750000	71.000000
53250000	46875	12	9	0	36	89	17.750000	71.000000
53250000	46875	12	9	0	38	89	17.750000	71.000000
53250000	20312	12	9	0	69	51	17.750000	71.000000
53265625	20312	12	9	0	42	127	17.755208	71.020833
53437500	187500	3	0	73	70	1	17.812500	71.250000
53437500	562500	4	1	0	57	89	17.812500	71.250000
53437500	562500	4	1	0	60	89	17.812500	71.250000
53437500	187500	6	3	53	67	89	17.812500	71.250000
53437500	562500	7	4	35	29	127	17.812500	71.250000
53437500	562500	8	5	18	29	127	17.812500	71.250000
53437500	562500	9	6	32	29	127	17.812500	71.250000
53437500	562500	13	10	50	57	89	17.812500	71.250000
53437500	562500	13	10	50	60	89	17.812500	71.250000
53437500	562500	14	11	51	57	89	17.812500	71.250000
53437500	562500	14	11	51	60	89	17.812500	71.250000
53625000	375000	3	0	73	70	1	17.875000	71.500000
53625000	187500	6	3	53	70	89	17.875000	71.500000
53625000	20312	12	9	0	34	45	17.875000	71.500000
53625000	46875	12	9	0	36	89	17.875000	71.500000
53625000	46875	12	9	0	37	89	17.875000	71.500000
53625000	20312	12	9	0	69	29	17.875000	71.500000
53632812	20313	12	9	0	42	93	17.877604	71.510417
53812500	187500	6	3	53	72	89	17.937500	71.750000
54000000	1125000	4	1	0	58	89	18.000000	72.000000
54000000	1125000	4	1	0	62	89	18.000000	72.000000
54000000	562500	6	3	53	74	89	18.000000	72.000000
54000000	1125000	7	4	35	31	127	18.000000	72.000000
54000000	1125000	8	5	18	31	127	18.000000	72.000000
54000000	1125000	9	6	32	31	127	18.000000	72.000000
54000000	20312	12	9	0	34	22	18.000000	72.000000
54000000	46875	12	9	0	36	89	18.000000	72.000000
54000000	20312	12	9	0	69	49	18.000000	72.000000
54000000	1125000	13	10	50	58	89	18.000000	72.000000
54000000	1125000	13	10	50	62	89	18.000000	72.000000
54000000	1125000	14	11	51	58	89	18.000000	72.000000
54000000	1125000	14	11	51	62	89	18.000000	72.000000
54007812	20313	12	9	0	42	127	18.002604	72.010417
54125000	20312	12	9	0	34	21	18.041667	72.166667
54187500	187500	3	0	73	70	1	18.062500	72.250000
54250000	20312	12	9	0	34	29	18.083333	72.333333
54375000	187500	3	0	73	70	1	18.125000	72.500000
54375000	20312	12	9	0	34	30	18.125000	72.500000
54375000	46875	12	9	0	36	89	18.125000	72.500000
54375000	20312	12	9	0	69	29	18.125000	72.500000
54382812	20313	12	9	0	42	93	18.127604	72.510417
54500000	20312	12	9	0	34	44	18.166667	72.666667
54562500	187500	3	0	73	70	1	18.187500	72.750000
54562500	187500	6	3	53	72	89	18.187500	72.750000
54625000	20312	12	9	0	34	49	18.208333	72.833333
54750000	187500	3	0	73	70	1	18.250000	73.000000
54750000	562500	6	3	53	74	89	18.250000	73.000000
54750000	20312	12	9	0	34	68	18.250000	73.000000
54750000	20312	12	9	0	39	62	18.250000	73.000000
54750000	20312	12	9	0	69	49	18.250000	73.000000
54757812	20313	12	9	0	42	127	18.252604	73.010417
54937500	187500	3	0	73	70	1	18.312500	73.250000
55125000	187500	3	0	73	70	1	18.375000	73.500000
55125000	750000	4	1	0	58	89	18.375000	73.500000
55125000	750000	4	1	0	62	89	18.375000	73.500000
55125000	750000	7	4	35	34	127	18.375000	73.500000
55125000	750000	8	5	18	34	127	18.375000	73.500000
55125000	750000	9	6	32	34	127	18.375000	73.500000
55125000	20312	12	9	0	34	45	18.375000	73.500000
55125000	20312	12	9	0	69	29	18.375000	73.500000
55125000	750000	13	10	50	58	89	18.375000	73.500000
55125000	750000	13	10	50	62	89	18.375000	73.500000
55125000	750000	14	11	51	58	89	18.375000	73.500000
55125000	750000	14	11	51	62	89	18.375000	73.500000
55132812	20313	12	9	0	42	93	18.377604	73.510417
55312500	187500	3	0	73	70	1	18.437500	73.750000
55312500	187500	6	3	53	72	89	18.437500	73.750000
55500000	187500	3	0	73	70	1	18.500000	74.000000
55500000	562500	6	3	53	74	89	18.500000	74.000000
55500000	20312	12	9	0	34	57	18.500000	74.000000
55500000	20312	12	9	0	69	49	18.500000	74.000000
55507812	20313	12	9	0	42	127	18.502604	74.010417
55515625	20312	12	9	0	33	127	18.505208	74.020833
55687500	187500	3	0	73	70	1	18.562500	74.250000
55875000	375000	3	0	73	70	1	18.625000	74.500000
55875000	562500	4	1	0	58	89	18.625000	74.500000
55875000	562500	4	1	0	62	89	18.625000	74.500000
55875000	562500	7	4	35	34	127	18.625000	74.500000
55875000	562500	8	5	18	34	127	18.625000	74.500000
55875000	562500	9	6	32	34	127	18.625000	74.500000
55875000	20312	12	9	0	42	127	18.625000	74.500000
55875000	20312	12	9	0	69	29	18.625000	74.500000
55875000	562500	13	10	50	58	89	18.625000	74.500000
55875000	562500	13	10	50	62	89	18.625000	74.500000
55875000	562500	14	11	51	58	89	18.625000	74.500000
55875000	562500	14	11	51	62	89	18.625000	74.500000
56000000	20312	12	9	0	42	127	18.666667	74.666667
56015625	46875	12	9	0	38	89	18.671875	74.687500
56062500	187500	6	3	53	72	89	18.687500	74.750000
56109375	46875	12	9	0	38	89	18.703125	74.812500
56125000	20312	12	9	0	42	127	18.708333	74.833333
56250000	187500	6	3	53	74	89	18.750000	75.000000
56250000	20312	12	9	0	33	87	18.750000	75.000000
56250000	20312	12	9	0	34	36	18.750000	75.000000
56250000	46875	12	9	0	36	89	18.750000	75.000000
56250000	46875	12	9	0	38	89	18.750000	75.000000
56250000	20312	12	9	0	69	51	18.750000	75.000000
56265625	20312	12	9	0	42	127	18.755208	75.020833
56437500	562500	4	1	0	57	89	18.812500	75.250000
56437500	562500	4	1	0	60	89	18.812500	75.250000
56437500	187500	6	3	53	77	89	18.812500	75.250000
56437500	562500	7	4	35	29	127	18.812500	75.250000
56437500	562500	8	5	18	29	127	18.812500	75.250000
56437500	562500	9	6	32	29	127	18.812500	75.250000
56437500	562500	13	10	50	57	89	18.812500	75.250000
56437500	562500	13	10	50	60	89	18.812500	75.250000
56437500	562500	14	11	51	57	89	18.812500	75.250000
56437500	562500	14	11	51	60	89	18.812500	75.250000
56625000	187500	3	0	73	70	1	18.875000	75.500000
56625000	187500	6	3	53	74	89	18.875000	75.500000
56625000	20312	12	9	0	34	45	18.875000	75.500000
56625000	46875	12	9	0	36	89	18.875000	75.500000
56625000	46875	12	9	0	37	89	18.875000	75.500000
56625000	20312	12	9	0	69	29	18.875000	75.500000
56632812	20313	12	9	0	42	93	18.877604	75.510417
56812500	187500	3	0	73	70	1	18.937500	75.750000
56812500	187500	6	3	53	72	89	18.937500	75.750000
57000000	375000	3	0	73	70	1	19.000000	76.000000
57000000	1125000	4	1	0	58	89	19.000000	76.000000
57000000	1125000	4	1	0	62	89	19.000000	76.000000
57000000	562500	6	3	53	70	89	19.000000	76.000000
57000000	1125000	7	4	35	27	127	19.000000	76.000000
57000000	1125000	8	5	18	27	127	19.000000	76.000000
57000000	1125000	9	6	32	27	127	19.000000	76.000000
57000000	20312	12	9	0	34	22	19.000000	76.000000
57000000	46875	12	9	0	36	89	19.000000	76.000000
57000000	20312	12	9	0	69	49	19.000000	76.000000
57000000	1125000	13	10	50	58	89	19.000000	76.000000
57000000	1125000	13	10	50	62	89	19.000000	76.000000
57000000	1125000	14	11	51	58	89	19.000000	76.000000
57000000	1125000	14	11	51	62	89	19.000000	76.000000
57007812	20313	12	9	0	42	127	19.002604	76.010417
57125000	20312	12	9	0	34	21	19.041667	76.166667
57250000	20312	12	9	0	34	29	19.083333	76.333333
57375000	375000	3	0	73	70	1	19.125000	76.500000
57375000	20312	12	9	0	34	30	19.125000	76.500000
57375000	46875	12	9	0	36	89	19.125000	76.500000
57375000	20312	12	9	0	69	29	19.125000	76.500000
57382812	20313	12	9	0	42	93	19.127604	76.510417
57500000	20312	12	9	0	34	44	19.166667	76.666667
57562500	187500	6	3	53	67	89	19.187500	76.750000
57625000	20312	12	9	0	34	49	19.208333	76.833333
57750000	187500	3	0	73	70	1	19.250000	77.000000
57750000	375000	6	3	53	70	1	19.250000	77.000000
57750000	20312	12	9	0	34	68	19.250000	77.000000
57750000	20312	12	9	0	39	62	19.250000	77.000000
57750000	20312	12	9	0	69	49	19.250000	77.000000
57757812	20313	12	9	0	42	127	19.252604	77.010417
57937500	187500	3	0	73	70	1	19.312500	77.250000
58125000	375000	3	0	73	70	1	19.375000	77.500000
58125000	750000	4	1	0	58	89	19.375000	77.500000
58125000	750000	4	1	0	62	89	19.375000	77.500000
58125000	187500	6	3	53	72	1	19.375000	77.500000
58125000	750000	7	4	35	34	127	19.375000	77.500000
58125000	750000	8	5	18	34	127	19.375000	77.500000
58125000	750000	9	6	32	34	127	19.375000	77.500000
58125000	20312	12	9	0	34	45	19.375000	77.500000
58125000	20312	12	9	0	69	29	19.375000	77.500000
58125000	750000	13	10	50	58	89	19.375000	77.500000
58125000	750000	13	10	50	62	89	19.375000	77.500000
58125000	750000	14	11	51	58	89	19.375000	77.500000
58125000	750000	14	11	51	62	89	19.375000	77.500000
58132812	20313	12	9	0	42	93	19.377604	77.510417
58312500	375000	6	3	53	74	1	19.437500	77.750000
58500000	187500	3	0	73	70	1	19.500000	78.000000
58500000	20312	12	9	0	34	57	19.500000	78.000000
58500000	20312	12	9	0	69	49	19.500000	78.000000
58507812	20313	12	9	0	42	127	19.502604	78.010417
58515625	20312	12	9	0	33	127	19.505208	78.020833
58687500	187500	3	0	73	70	1	19.562500	78.250000
58687500	187500	6	3	53	72	1	19.562500	78.250000
58875000	187500	3	0	73	70	1	19.625000	78.500000
58875000	562500	4	1	0	58	89	19.625000	78.500000
58875000	562500	4	1	0	62	89	19.625000	78.500000
58875000	562500	7	4	35	34	127	19.625000	78.500000
58875000	562500	8	5	18	34	127	19.625000	78.500000
58875000	562500	9	6	32	34	127	19.625000	78.500000
58875000	20312	12	9	0	42	127	19.625000	78.500000
58875000	20312	12	9	0	69	29	19.625000	78.500000
58875000	562500	13	10	50	58	89	19.625000	78.500000
58875000	562500	13	10	50	62	89	19.625000	78.500000
58875000	562500	14	11	51	58	89	19.625000	78.500000
58875000	562500	14	11	51	62	89	19.625000	78.500000
59000000	20312	12	9	0	42	127	19.666667	78.666667
59015625	46875	12	9	0	38	89	19.671875	78.687500
59062500	187500	3	0	73	70	1	19.687500	78.750000
59109375	46875	12	9	0	38	89	19.703125	78.812500
59125000	20312	12	9	0	42	127	19.708333	78.833333
59250000	187500	3	0	73	70	1	19.750000	79.000000
59250000	20312	12	9	0	33	87	19.750000	79.000000
59250000	20312	12	9	0	34	36	19.750000	79.000000
59250000	46875	12	9	0	36	89	19.750000	79.000000
59250000	46875	12	9	0	38	89	19.750000	79.000000
59250000	20312	12	9	0	69	51	19.750000	79.000000
59265625	20312	12	9	0	42	127	19.755208	79.020833
59437500	187500	3	0	73	70	1	19.812500	79.250000
59437500	562500	4	1	0	57	89	19.812500	79.250000
59437500	562500	4	1	0	60	89	19.812500	79.250000
59437500	562500	7	4	35	29	127	19.812500	79.250000
59437500	562500	8	5	18	29	127	19.812500	79.250000
59437500	562500	9	6	32	29	127	19.812500	79.250000
59437500	562500	13	10	50	57	89	19.812500	79.250000
59437500	562500	13	10	50	60	89	19.812500	79.250000
59437500	562500	14	11	51	57	89	19.812500	79.250000
59437500	562500	14	11	51	60	89	19.812500	79.250000
59625000	187500	3	0	73	70	1	19.875000	79.500000
59625000	187500	6	3	53	70	1	19.875000	79.500000
59625000	20312	12	9	0	34	45	19.875000	79.500000
59625000	46875	12	9	0	36	89	19.875000	79.500000
59625000	46875	12	9	0	37	89	19.875000	79.500000
59625000	20312	12	9	0	69	29	19.875000	79.500000
59632812	20313	12	9	0	42	93	19.877604	79.510417
59812500	187500	3	0	73	70	1	19.937500	79.750000
59812500	187500	6	3	53	67	1	19.937500	79.750000
60000000	1125000	4	1	0	58	89	20.000000	80.000000
60000000	1125000	4	1	0	62	89	20.000000	80.000000
60000000	562500	6	3	53	70	89	20.000000	80.000000
60000000	1125000	7	4	35	31	127	20.000000	80.000000
60000000	1125000	8	5	18	31	127	20.000000	80.000000
60000000	1125000	9	6	32	31	127	20.000000	80.000000
60000000	20312	12	9	0	34	22	20.000000	80.000000
60000000	46875	12	9	0	36	89	20.000000	80.000000
60000000	20312	12	9	0	69	49	20.000000	80.000000
60000000	1125000	13	10	50	58	89	20.000000	80.000000
60000000	1125000	13	10	50	62	89	20.000000	80.000000
60000000	1125000	14	11	51	58	89	20.000000	80.000000
60000000	1125000	14	11	51	62	89	20.000000	80.000000
60007812	20313	12	9	0	42	127	20.002604	80.010417
60125000	20312	12	9	0	34	21	20.041667	80.166667
60250000	20312	12	9	0	34	29	20.083333	80.333333
60375000	375000	3	0	73	70	1	20.125000	80.500000
60375000	20312	12	9	0	34	30	20.125000	80.500000
60375000	46875	12	9	0	36	89	20.125000	80.500000
60375000	20312	12	9	0	69	29	20.125000	80.500000
60382812	20313	12	9	0	42	93	20.127604	80.510417
60500000	20312	12	9	0	34	44	20.166667	80.666667
60562500	187500	6	3	53	67	89	20.187500	80.750000
60625000	20312	12	9	0	34	49	20.208333	80.833333
60750000	187500	3	0	73	70	1	20.250000	81.000000
60750000	375000	6	3	53	70	1	20.250000	81.000000
60750000	20312	12	9	0	34	68	20.250000	81.000000
60750000	20312	12	9	0	39	62	20.250000	81.000000
60750000	20312	12	9	0	69	49	20.250000	81.000000
60757812	20313	12	9	0	42	127	20.252604	81.010417
60937500	187500	3	0	73	70	1	20.312500	81.250000
61125000	375000	3	0	73	70	1	20.375000	81.500000
61125000	750000	4	1	0	58	89	20.375000	81.500000
61125000	750000	4	1	0	62	89	20.375000	81.500000
61125000	187500	6	3	53	72	1	20.375000	81.500000
61125000	750000	7	4	35	34	127	20.375000	81.500000
61125000	750000	8	5	18	34	127	20.375000	81.500000
61125000	750000	9	6	32	34	127	20.375000	81.500000
61125000	20312	12	9	0	34	45	20.375000	81.500000
61125000	20312	12	9	0	69	29	20.375000	81.500000
61125000	750000	13	10	50	58	89	20.375000	81.500000
61125000	750000	13	10	50	62	89	20.375000	81.500000
61125000	750000	14	11	51	58	89	20.375000	81.500000
61125000	750000	14	11	51	62	89	20.375000	81.500000
61132812	20313	12	9	0	42	93	20.377604	81.510417
61312500	375000	6	3	53	74	1	20.437500	81.750000
61500000	375000	3	0	73	70	1	20.500000	82.000000
61500000	20312	12	9	0	34	57	20.500000	82.000000
61500000	20312	12	9	0	69	49	20.500000	82.000000
61507812	20313	12	9	0	42	127	20.502604	82.010417
61515625	20312	12	9	0	33	127	20.505208	82.020833
61687500	187500	6	3	53	72	1	20.562500	82.250000
61875000	187500	3	0	73	70	1	20.625000	82.500000
61875000	562500	4	1	0	58	89	20.625000	82.500000
61875000	562500	4	1	0	62	89	20.625000	82.500000
61875000	562500	7	4	35	34	127	20.625000	82.500000
61875000	562500	8	5	18	34	127	20.625000	82.500000
61875000	562500	9	6	32	34	127	20.625000	82.500000
61875000	20312	12	9	0	42	127	20.625000	82.500000
61875000	20312	12	9	0	69	29	20.625000	82.500000
61875000	562500	13	10	50	58	89	20.625000	82.500000
61875000	562500	13	10	50	62	89	20.625000	82.500000
61875000	562500	14	11	51	58	89	20.625000	82.500000
61875000	562500	14	11	51	62	89	20.625000	82.500000
62000000	20312	12	9	0	42	127	20.666667	82.666667
62015625	46875	12	9	0	38	89	20.671875	82.687500
62062500	187500	3	0	73	70	1	20.687500	82.750000
62109375	46875	12	9	0	38	89	20.703125	82.812500
62125000	20312	12	9	0	42	127	20.708333	82.833333
62250000	187500	3	0	73	70	1	20.750000	83.000000
62250000	20312	12	9	0	33	87	20.750000	83.000000
62250000	20312	12	9	0	34	36	20.750000	83.000000
62250000	46875	12	9	0	36	89	20.750000	83.000000
62250000	46875	12	9	0	38	89	20.750000	83.000000
62250000	20312	12	9	0	69	51	20.750000	83.000000
62265625	20312	12	9	0	42	127	20.755208	83.020833
62437500	187500	3	0	73	70	1	20.812500	83.250000
62437500	562500	4	1	0	57	89	20.812500	83.250000
62437500	562500	4	1	0	60	89	20.812500	83.250000
62437500	562500	7	4	35	29	127	20.812500	83.250000
62437500	562500	8	5	18	29	127	20.812500	83.250000
62437500	562500	9	6	32	29	127	20.812500	83.250000
62437500	562500	13	10	50	57	89	20.812500	83.250000
62437500	562500	13	10	50	60	89	20.812500	83.250000
62437500	562500	14	11	51	57	89	20.812500	83.250000
62437500	562500	14	11	51	60	89	20.812500	83.250000
62625000	375000	3	0	73	70	1	20.875000	83.500000
62625000	187500	6	3	53	70	1	20.875000	83.500000
62625000	20312	12	9	0	34	45	20.875000	83.500000
62625000	46875	12	9	0	36	89	20.875000	83.500000
62625000	46875	12	9	0	37	89	20.875000	83.500000
62625000	20312	12	9	0	69	29	20.875000	83.500000
62632812	20313	12	9	0	42	93	20.877604	83.510417
62812500	187500	6	3	53	67	1	20.937500	83.750000
63000000	1125000	4	1	0	58	89	21.000000	84.000000
63000000	1125000	4	1	0	62	89	21.000000	84.000000
63000000	562500	6	3	53	70	89	21.000000	84.000000
63000000	1125000	7	4	35	27	127	21.000000	84.000000
63000000	1125000	8	5	18	27	127	21.000000	84.000000
63000000	1125000	9	6	32	27	127	21.000000	84.000000
63000000	20312	12	9	0	34	22	21.000000	84.000000
63000000	46875	12	9	0	36	89	21.000000	84.000000
63000000	20312	12	9	0	69	49	21.000000	84.000000
63000000	1125000	13	10	50	58	89	21.000000	84.000000
63000000	1125000	13	10	50	62	89	21.000000	84.000000
63000000	1125000	14	11	51	58	89	21.000000	84.000000
63000000	1125000	14	11	51	62	89	21.000000	84.000000
63007812	20313	12	9	0	42	127	21.002604	84.010417
63125000	20312	12	9	0	34	21	21.041667	84.166667
63250000	20312	12	9	0	34	29	21.083333	84.333333
63375000	187500	3	0	73	70	1	21.125000	84.500000
63375000	20312	12	9	0	34	30	21.125000	84.500000
63375000	46875	12	9	0	36	89	21.125000	84.500000
63375000	20312	12	9	0	69	29	21.125000	84.500000
63382812	20313	12	9	0	42	93	21.127604	84.510417
63500000	20312	12	9	0	34	44	21.166667	84.666667
63562500	187500	3	0	73	70	1	21.187500	84.750000
63562500	187500	6	3	53	67	89	21.187500	84.750000
63625000	20312	12	9	0	34	49	21.208333	84.833333
63750000	187500	3	0	73	70	1	21.250000	85.000000
63750000	375000	6	3	53	70	1	21.250000	85.000000
63750000	20312	12	9	0	34	68	21.250000	85.000000
63750000	20312	12	9	0	39	62	21.250000	85.000000
63750000	20312	12	9	0	69	49	21.250000	85.000000
63757812	20313	12	9	0	42	127	21.252604	85.010417
63937500	187500	3	0	73	70	1	21.312500	85.250000
64125000	187500	3	0	73	70	1	21.375000	85.500000
64125000	750000	4	1	0	58	89	21.375000	85.500000
64125000	750000	4	1	0	62	89	21.375000	85.500000
64125000	187500	6	3	53	72	1	21.375000	85.500000
64125000	750000	7	4	35	34	127	21.375000	85.500000
64125000	750000	8	5	18	34	127	21.375000	85.500000
64125000	750000	9	6	32	34	127	21.375000	85.500000
64125000	20312	12	9	0	34	45	21.375000	85.500000
64125000	20312	12	9	0	69	29	21.375000	85.500000
64125000	750000	13	10	50	58	89	21.375000	85.500000
64125000	750000	13	10	50	62	89	21.375000	85.500000
64125000	750000	14	11	51	58	89	21.375000	85.500000
64125000	750000	14	11	51	62	89	21.375000	85.500000
64132812	20313	12	9	0	42	93	21.377604	85.510417
64312500	187500	3	0	73	70	1	21.437500	85.750000
64312500	562500	6	3	53	70	1	21.437500	85.750000
64500000	187500	3	0	73	70	1	21.500000	86.000000
64500000	20312	12	9	0	34	57	21.500000	86.000000
64500000	20312	12	9	0	69	49	21.500000	86.000000
64507812	20313	12	9	0	42	127	21.502604	86.010417
64515625	20312	12	9	0	33	127	21.505208	86.020833
64687500	187500	3	0	73	70	1	21.562500	86.250000
64875000	375000	3	0	73	70	1	21.625000	86.500000
64875000	375000	4	1	0	58	89	21.625000	86.500000
64875000	375000	4	1	0	62	89	21.625000	86.500000
64875000	375000	7	4	35	34	127	21.625000	86.500000
64875000	375000	8	5	18	34	127	21.625000	86.500000
64875000	375000	9	6	32	34	127	21.625000	86.500000
64875000	20312	12	9	0	42	127	21.625000	86.500000
64875000	20312	12	9	0	69	29	21.625000	86.500000
64875000	375000	13	10	50	58	89	21.625000	86.500000
64875000	375000	13	10	50	62	89	21.625000	86.500000
64875000	375000	14	11	51	58	89	21.625000	86.500000
64875000	375000	14	11	51	62	89	21.625000	86.500000
65000000	20312	12	9	0	42	127	21.666667	86.666667
65015625	46875	12	9	0	38	89	21.671875	86.687500
65109375	46875	12	9	0	38	89	21.703125	86.812500
65125000	20312	12	9	0	42	127	21.708333	86.833333
65250000	20312	12	9	0	33	87	21.750000	87.000000
65250000	20312	12	9	0	34	36	21.750000	87.000000
65250000	46875	12	9	0	36	89	21.750000	87.000000
65250000	46875	12	9	0	38	89	21.750000	87.000000
65250000	20312	12	9	0	69	51	21.750000	87.000000
65265625	20312	12	9	0	42	127	21.755208	87.020833
65625000	20312	12	9	0	34	45	21.875000	87.500000
65625000	46875	12	9	0	36	89	21.875000	87.500000
65625000	46875	12	9	0	37	89	21.875000	87.500000
65625000	20312	12	9	0	69	29	21.875000	87.500000
65632812	20313	12	9	0	42	93	21.877604	87.510417
66000000	1125000	4	1	0	58	89	22.000000	88.000000
66000000	1125000	4	1	0	62	89	22.000000	88.000000
66000000	1125000	7	4	35	31	127	22.000000	88.000000
66000000	1125000	8	5	18	31	127	22.000000	88.000000
66000000	1125000	9	6	32	31	127	22.000000	88.000000
66000000	1125000	13	10	50	58	89	22.000000	88.000000
66000000	1125000	13	10	50	62	89	22.000000	88.000000
66000000	1125000	14	11	51	58	89	22.000000	88.000000
66000000	1125000	14	11	51	62	89	22.000000	88.000000
67125000	375000	3	0	73	70	1	22.375000	89.500000
67125000	750000	4	1	0	58	89	22.375000	89.500000
67125000	750000	4	1	0	62	89	22.375000	89.500000
67125000	750000	7	4	35	34	127	22.375000	89.500000
67125000	750000	8	5	18	34	127	22.375000	89.500000
67125000	750000	9	6	32	34	127	22.375000	89.500000
67125000	750000	13	10	50	58	89	22.375000	89.500000
67125000	750000	13	10	50	62	89	22.375000	89.500000
67125000	750000	14	11	51	58	89	22.375000	89.500000
67125000	750000	14	11	51	62	89	22.375000	89.500000
67875000	562500	4	1	0	58	89	22.625000	90.500000
67875000	562500	4	1	0	62	89	22.625000	90.500000
67875000	562500	7	4	35	34	127	22.625000	90.500000
67875000	562500	8	5	18	34	127	22.625000	90.500000
67875000	562500	9	6	32	34	127	22.625000	90.500000
67875000	562500	13	10	50	58	89	22.625000	90.500000
67875000	562500	13	10	50	62	89	22.625000	90.500000
67875000	562500	14	11	51	58	89	22.625000	90.500000
67875000	562500	14	11	51	62	89	22.625000	90.500000
68250000	187500	3	0	73	70	1	22.750000	91.000000
68437500	187500	3	0	73	70	1	22.812500	91.250000
68437500	562500	4	1	0	57	89	22.812500	91.250000
68437500	562500	4	1	0	60	89	22.812500	91.250000
68437500	562500	7	4	35	29	127	22.812500	91.250000
68437500	562500	8	5	18	29	127	22.812500	91.250000
68437500	562500	9	6	32	29	127	22.812500	91.250000
68437500	562500	13	10	50	57	89	22.812500	91.250000
68437500	562500	13	10	50	60	89	22.812500	91.250000
68437500	562500	14	11	51	57	89	22.812500	91.250000
68437500	562500	14	11	51	60	89	22.812500	91.250000
68625000	187500	3	0	73	70	1	22.875000	91.500000
68812500	375000	3	0	73	74	1	22.937500	91.750000
69000000	1125000	4	1	0	58	89	23.000000	92.000000
69000000	1125000	4	1	0	62	89	23.000000	92.000000
69000000	1125000	7	4	35	27	127	23.000000	92.000000
69000000	1125000	8	5	18	27	127	23.000000	92.000000
69000000	1125000	9	6	32	27	127	23.000000	92.000000
69000000	20312	12	9	0	34	22	23.000000	92.000000
69000000	46875	12	9	0	36	89	23.000000	92.000000
69000000	20312	12	9	0	69	49	23.000000	92.000000
69000000	1125000	13	10	50	58	89	23.000000	92.000000
69000000	1125000	13	10	50	62	89	23.000000	92.000000
69000000	1125000	14	11	51	58	89	23.000000	92.000000
69000000	1125000	14	11	51	62	89	23.000000	92.000000
69007812	20313	12	9	0	42	127	23.002604	92.010417
69125000	20312	12	9	0	34	21	23.041667	92.166667
69187500	187500	3	0	73	70	1	23.062500	92.250000
69250000	20312	12	9	0	34	29	23.083333	92.333333
69375000	187500	3	0	73	70	1	23.125000	92.500000
69375000	20312	12	9	0	34	30	23.125000	92.500000
69375000	46875	12	9	0	36	89	23.125000	92.500000
69375000	20312	12	9	0	69	29	23.125000	92.500000
69382812	20313	12	9	0	42	93	23.127604	92.510417
69500000	20312	12	9	0	34	44	23.166667	92.666667
69562500	187500	3	0	73	70	1	23.187500	92.750000
69625000	20312	12	9	0	34	49	23.208333	92.833333
69750000	187500	3	0	73	70	1	23.250000	93.000000
69750000	20312	12	9	0	34	68	23.250000	93.000000
69750000	20312	12	9	0	39	62	23.250000	93.000000
69750000	20312	12	9	0	69	49	23.250000	93.000000
69757812	20313	12	9	0	42	127	23.252604	93.010417
69937500	187500	3	0	73	70	1	23.312500	93.250000
70125000	187500	3	0	73	70	1	23.375000	93.500000
70125000	750000	4	1	0	58	89	23.375000	93.500000
70125000	750000	4	1	0	62	89	23.375000	93.500000
70125000	750000	7	4	35	34	127	23.375000	93.500000
70125000	750000	8	5	18	34	127	23.375000	93.500000
70125000	750000	9	6	32	34	127	23.375000	93.500000
70125000	20312	12	9	0	34	45	23.375000	93.500000
70125000	20312	12	9	0	69	29	23.375000	93.500000
70125000	750000	13	10	50	58	89	23.375000	93.500000
70125000	750000	13	10	50	62	89	23.375000	93.500000
70125000	750000	14	11	51	58	89	23.375000	93.500000
70125000	750000	14	11	51	62	89	23.375000	93.500000
70132812	20313	12	9	0	42	93	23.377604	93.510417
70312500	187500	3	0	73	70	1	23.437500	93.750000
70500000	187500	3	0	73	70	1	23.500000	94.000000
70500000	20312	12	9	0	34	57	23.500000	94.000000
70500000	20312	12	9	0	69	49	23.500000	94.000000
70507812	20313	12	9	0	42	127	23.502604	94.010417
70515625	20312	12	9	0	33	127	23.505208	94.020833
70687500	187500	3	0	73	70	1	23.562500	94.250000
70875000	187500	3	0	73	70	1	23.625000	94.500000
70875000	562500	4	1	0	58	89	23.625000	94.500000
70875000	562500	4	1	0	62	89	23.625000	94.500000
70875000	562500	7	4	35	34	127	23.625000	94.500000
70875000	562500	8	5	18	34	127	23.625000	94.500000
70875000	562500	9	6	32	34	127	23.625000	94.500000
70875000	20312	12	9	0	42	127	23.625000	94.500000
70875000	20312	12	9	0	69	29	23.625000	94.500000
70875000	562500	13	10	50	58	89	23.625000	94.500000
70875000	562500	13	10	50	62	89	23.625000	94.500000
70875000	562500	14	11	51	58	89	23.625000	94.500000
70875000	562500	14	11	51	62	89	23.625000	94.500000
71000000	20312	12	9	0	42	127	23.666667	94.666667
71015625	46875	12	9	0	38	89	23.671875	94.687500
71062500	187500	3	0	73	70	1	23.687500	94.750000
71109375	46875	12	9	0	38	89	23.703125	94.812500
71125000	20312	12	9	0	42	127	23.708333	94.833333
71250000	375000	3	0	73	67	1	23.750000	95.000000
71250000	20312	12	9	0	33	87	23.750000	95.000000
71250000	20312	12	9	0	34	36	23.750000	95.000000
71250000	46875	12	9	0	36	89	23.750000	95.000000
71250000	46875	12	9	0	38	89	23.750000	95.000000
71250000	20312	12	9	0	69	51	23.750000	95.000000
71265625	20312	12	9	0	42	127	23.755208	95.020833
71437500	562500	4	1	0	57	89	23.812500	95.250000
71437500	562500	4	1	0	60	89	23.812500	95.250000
71437500	562500	7	4	35	29	127	23.812500	95.250000
71437500	562500	8	5	18	29	127	23.812500	95.250000
71437500	562500	9	6	32	29	127	23.812500	95.250000
71437500	562500	13	10	50	57	89	23.812500	95.250000
71437500	562500	13	10	50	60	89	23.812500	95.250000
71437500	562500	14	11	51	57	89	23.812500	95.250000
71437500	562500	14	11	51	60	89	23.812500	95.250000
71625000	20312	12	9	0	34	45	23.875000	95.500000
71625000	46875	12	9	0	36	89	23.875000	95.500000
71625000	46875	12	9	0	37	89	23.875000	95.500000
71625000	20312	12	9	0	69	29	23.875000	95.500000
71632812	20313	12	9	0	42	93	23.877604	95.510417
71812500	187500	3	0	73	74	1	23.937500	95.750000
72000000	187500	3	0	73	70	1	24.000000	96.000000
72000000	1125000	4	1	0	58	89	24.000000	96.000000
72000000	1125000	4	1	0	62	89	24.000000	96.000000
72000000	1125000	7	4	35	31	127	24.000000	96.000000
72000000	1125000	8	5	18	31	127	24.000000	96.000000
72000000	1125000	9	6	32	31	127	24.000000	96.000000
72000000	20312	12	9	0	34	22	24.000000	96.000000
72000000	46875	12	9	0	36	89	24.000000	96.000000
72000000	20312	12	9	0	69	49	24.000000	96.000000
72000000	1125000	13	10	50	58	89	24.000000	96.000000
72000000	1125000	13	10	50	62	89	24.000000	96.000000
72000000	1125000	14	11	51	58	89	24.000000	96.000000
72000000	1125000	14	11	51	62	89	24.000000	96.000000
72007812	20313	12	9	0	42	127	24.002604	96.010417
72125000	20312	12	9	0	34	21	24.041667	96.166667
72187500	187500	3	0	73	70	1	24.062500	96.250000
72250000	20312	12	9	0	34	29	24.083333	96.333333
72375000	187500	3	0	73	70	1	24.125000	96.500000
72375000	20312	12	9	0	34	30	24.125000	96.500000
72375000	46875	12	9	0	36	89	24.125000	96.500000
72375000	20312	12	9	0	69	29	24.125000	96.500000
72382812	20313	12	9	0	42	93	24.127604	96.510417
72500000	20312	12	9	0	34	44	24.166667	96.666667
72562500	187500	3	0	73	70	1	24.187500	96.750000
72625000	20312	12	9	0	34	49	24.208333	96.833333
72750000	187500	3	0	73	70	1	24.250000	97.000000
72750000	20312	12	9	0	34	68	24.250000	97.000000
72750000	20312	12	9	0	39	62	24.250000	97.000000
72750000	20312	12	9	0	69	49	24.250000	97.000000
72757812	20313	12	9	0	42	127	24.252604	97.010417
72937500	187500	3	0	73	70	1	24.312500	97.250000
73125000	187500	3	0	73	70	1	24.375000	97.500000
73125000	750000	4	1	0	58	89	24.375000	97.500000
73125000	750000	4	1	0	62	89	24.375000	97.500000
73125000	750000	7	4	35	34	127	24.375000	97.500000
73125000	750000	8	5	18	34	127	24.375000	97.500000
73125000	750000	9	6	32	34	127	24.375000	97.500000
73125000	20312	12	9	0	34	45	24.375000	97.500000
73125000	20312	12	9	0	69	29	24.375000	97.500000
73125000	750000	13	10	50	58	89	24.375000	97.500000
73125000	750000	13	10	50	62	89	24.375000	97.500000
73125000	750000	14	11	51	58	89	24.375000	97.500000
73125000	750000	14	11	51	62	89	24.375000	97.500000
73132812	20313	12	9	0	42	93	24.377604	97.510417
73312500	187500	3	0	73	70	1	24.437500	97.750000
73500000	187500	3	0	73	70	1	24.500000	98.000000
73500000	20312	12	9	0	34	57	24.500000	98.000000
73500000	20312	12	9	0	69	49	24.500000	98.000000
73507812	20313	12	9	0	42	127	24.502604	98.010417
73515625	20312	12	9	0	33	127	24.505208	98.020833
73687500	187500	3	0	73	70	1	24.562500	98.250000
73875000	187500	3	0	73	70	1	24.625000	98.500000
73875000	562500	4	1	0	58	89	24.625000	98.500000
73875000	562500	4	1	0	62	89	24.625000	98.500000
73875000	562500	7	4	35	34	127	24.625000	98.500000
73875000	562500	8	5	18	34	127	24.625000	98.500000
73875000	562500	9	6	32	34	127	24.625000	98.500000
73875000	20312	12	9	0	42	127	24.625000	98.500000
73875000	20312	12	9	0	69	29	24.625000	98.500000
73875000	562500	13	10	50	58	89	24.625000	98.500000
73875000	562500	13	10	50	62	89	24.625000	98.500000
73875000	562500	14	11	51	58	89	24.625000	98.500000
73875000	562500	14	11	51	62	89	24.625000	98.500000
74000000	20312	12	9	0	42	127	24.666667	98.666667
74015625	46875	12	9	0	38	89	24.671875	98.687500
74062500	187500	3	0	73	70	1	24.687500	98.750000
74109375	46875	12	9	0	38	89	24.703125	98.812500
74125000	20312	12	9	0	42	127	24.708333	98.833333
74250000	375000	3	0	73	67	1	24.750000	99.000000
74250000	20312	12	9	0	33	87	24.750000	99.000000
74250000	20312	12	9	0	34	36	24.750000	99.000000
74250000	46875	12	9	0	36	89	24.750000	99.000000
74250000	46875	12	9	0	38	89	24.750000	99.000000
74250000	20312	12	9	0	69	51	24.750000	99.000000
74265625	20312	12	9	0	42	127	24.755208	99.020833
74437500	562500	4	1	0	57	89	24.812500	99.250000
74437500	562500	4	1	0	60	89	24.812500	99.250000
74437500	562500	7	4	35	29	127	24.812500	99.250000
74437500	562500	8	5	18	29	127	24.812500	99.250000
74437500	562500	9	6	32	29	127	24.812500	99.250000
74437500	562500	13	10	50	57	89	24.812500	99.250000
74437500	562500	13	10	50	60	89	24.812500	99.250000
74437500	562500	14	11	51	57	89	24.812500	99.250000
74437500	562500	14	11	51	60	89	24.812500	99.250000
74625000	20312	12	9	0	34	45	24.875000	99.500000
74625000	46875	12	9	0	36	89	24.875000	99.500000
74625000	46875	12	9	0	37	89	24.875000	99.500000
74625000	20312	12	9	0	69	29	24.875000	99.500000
74632812	20313	12	9	0	42	93	24.877604	99.510417
74812500	187500	3	0	73	74	1	24.937500	99.750000
75000000	187500	3	0	73	70	1	25.000000	100.000000
75000000	1125000	4	1	0	58	89	25.000000	100.000000
75000000	1125000	4	1	0	62	89	25.000000	100.000000
75000000	1125000	7	4	35	27	127	25.000000	100.000000
75000000	1125000	8	5	18	27	127	25.000000	100.000000
75000000	1125000	9	6	32	27	127	25.000000	100.000000
75000000	20312	12	9	0	34	22	25.000000	100.000000
75000000	46875	12	9	0	36	89	25.000000	100.000000
75000000	20312	12	9	0	69	49	25.000000	100.000000
75000000	1125000	13	10	50	58	89	25.000000	100.000000
75000000	1125000	13	10	50	62	89	25.000000	100.000000
75000000	1125000	14	11	51	58	89	25.000000	100.000000
75000000	1125000	14	11	51	62	89	25.000000	100.000000
75007812	20313	12	9	0	42	127	25.002604	100.010417
75125000	20312	12	9	0	34	21	25.041667	100.166667
75187500	187500	3	0	73	70	1	25.062500	100.250000
75250000	20312	12	9	0	34	29	25.083333	100.333333
75375000	93750	3	0	73	70	1	25.125000	100.500000
75375000	20312	12	9	0	34	30	25.125000	100.500000
75375000	46875	12	9	0	36	89	25.125000	100.500000
75375000	20312	12	9	0	69	29	25.125000	100.500000
75382812	20313	12	9	0	42	93	25.127604	100.510417
75468750	93750	3	0	73	70	1	25.156250	100.625000
75500000	20312	12	9	0	34	44	25.166667	100.666667
75562500	187500	3	0	73	70	1	25.187500	100.750000
75625000	20312	12	9	0	34	49	25.208333	100.833333
75750000	187500	3	0	73	70	1	25.250000	101.000000
75750000	20312	12	9	0	34	68	25.250000	101.000000
75750000	20312	12	9	0	39	62	25.250000	101.000000
75750000	20312	12	9	0	69	49	25.250000	101.000000
75757812	20313	12	9	0	42	127	25.252604	101.010417
75937500	187500	3	0	73	70	1	25.312500	101.250000
76125000	187500	3	0	73	70	1	25.375000	101.500000
76125000	750000	4	1	0	58	89	25.375000	101.500000
76125000	750000	4	1	0	62	89	25.375000	101.500000
76125000	750000	7	4	35	34	127	25.375000	101.500000
76125000	750000	8	5	18	34	127	25.375000	101.500000
76125000	750000	9	6	32	34	127	25.375000	101.500000
76125000	20312	12	9	0	34	45	25.375000	101.500000
76125000	20312	12	9	0	69	29	25.375000	101.500000
76125000	750000	13	10	50	58	89	25.375000	101.500000
76125000	750000	13	10	50	62	89	25.375000	101.500000
76125000	750000	14	11	51	58	89	25.375000	101.500000
76125000	750000	14	11	51	62	89	25.375000	101.500000
76132812	20313	12	9	0	42	93	25.377604	101.510417
76312500	187500	3	0	73	70	1	25.437500	101.750000
76500000	375000	3	0	73	70	1	25.500000	102.000000
76500000	20312	12	9	0	34	57	25.500000	102.000000
76500000	20312	12	9	0	69	49	25.500000	102.000000
76507812	20313	12	9	0	42	127	25.502604	102.010417
76515625	20312	12	9	0	33	127	25.505208	102.020833
76875000	375000	3	0	73	70	89	25.625000	102.500000
76875000	375000	4	1	0	58	89	25.625000	102.500000
76875000	375000	4	1	0	62	89	25.625000	102.500000
76875000	375000	7	4	35	34	127	25.625000	102.500000
76875000	375000	8	5	18	34	127	25.625000	102.500000
76875000	375000	9	6	32	34	127	25.625000	102.500000
76875000	20312	12	9	0	42	127	25.625000	102.500000
76875000	20312	12	9	0	69	29	25.625000	102.500000
76875000	375000	13	10	50	58	89	25.625000	102.500000
76875000	375000	13	10	50	62	89	25.625000	102.500000
76875000	375000	14	11	51	58	89	25.625000	102.500000
76875000	375000	14	11	51	62	89	25.625000	102.500000
77000000	20312	12	9	0	42	127	25.666667	102.666667
77015625	46875	12	9	0	38	89	25.671875	102.687500
77109375	46875	12	9	0	38	89	25.703125	102.812500
77125000	20312	12	9	0	42	127	25.708333	102.833333
77250000	375000	3	0	73	74	89	25.750000	103.000000
77250000	20312	12	9	0	33	87	25.750000	103.000000
77250000	20312	12	9	0	34	36	25.750000	103.000000
77250000	46875	12	9	0	36	89	25.750000	103.000000
77250000	46875	12	9	0	38	89	25.750000	103.000000
77250000	20312	12	9	0	69	51	25.750000	103.000000
77265625	20312	12	9	0	42	127	25.755208	103.020833
77625000	375000	3	0	73	77	89	25.875000	103.500000
77625000	20312	12	9	0	34	45	25.875000	103.500000
77625000	46875	12	9	0	36	89	25.875000	103.500000
77625000	46875	12	9	0	37	89	25.875000	103.500000
77625000	20312	12	9	0	69	29	25.875000	103.500000
77632812	20313	12	9	0	42	93	25.877604	103.510417
78000000	187500	3	0	73	79	89	26.000000	104.000000
78000000	1125000	4	1	0	53	89	26.000000	104.000000
78000000	1125000	4	1	0	58	89	26.000000	104.000000
78000000	1125000	4	1	0	62	89	26.000000	104.000000
78000000	1125000	5	2	0	39	89	26.000000	104.000000
78000000	1125000	11	8	32	39	89	26.000000	104.000000
78187500	187500	3	0	73	81	89	26.062500	104.250000
78375000	750000	3	0	73	79	89	26.125000	104.500000
79125000	562500	3	0	73	77	89	26.375000	105.500000
79125000	1875000	4	1	0	53	89	26.375000	105.500000
79125000	1875000	4	1	0	58	89	26.375000	105.500000
79125000	1875000	4	1	0	62	89	26.375000	105.500000
79125000	1875000	5	2	0	46	89	26.375000	105.500000
79125000	1875000	11	8	32	46	89	26.375000	105.500000
79687500	187500	3	0	73	79	89	26.562500	106.250000
80812500	187500	3	0	73	70	89	26.937500	107.750000
81000000	375000	3	0	73	72	89	27.000000	108.000000
81000000	1125000	4	1	0	55	89	27.000000	108.000000
81000000	1125000	4	1	0	58	89	27.000000	108.000000
81000000	1125000	4	1	0	63	89	27.000000	108.000000
81000000	1125000	5	2	0	39	89	27.000000	108.000000
81000000	1125000	11	8	32	39	89	27.000000	108.000000
81375000	375000	3	0	73	72	89	27.125000	108.500000
81750000	375000	3	0	73	70	89	27.250000	109.000000
82125000	750000	3	0	73	74	89	27.375000	109.500000
82125000	1875000	4	1	0	53	89	27.375000	109.500000
82125000	1875000	4	1	0	58	89	27.375000	109.500000
82125000	1875000	4	1	0	62	89	27.375000	109.500000
82125000	1875000	5	2	0	46	89	27.375000	109.500000
82125000	1875000	11	8	32	46	89	27.375000	109.500000
83625000	187500	3	0	73	74	89	27.875000	111.500000
83812500	187500	3	0	73	77	89	27.937500	111.750000
84000000	375000	3	0	73	79	89	28.000000	112.000000
84000000	1125000	4	1	0	55	89	28.000000	112.000000
84000000	1125000	4	1	0	58	89	28.000000	112.000000
84000000	1125000	4	1	0	62	89	28.000000	112.000000
84000000	1125000	5	2	0	39	89	28.000000	112.000000
84000000	1125000	11	8	32	39	89	28.000000	112.000000
84375000	375000	3	0	73	81	89	28.125000	112.500000
84750000	375000	3	0	73	79	89	28.250000	113.000000
85125000	375000	3	0	73	77	89	28.375000	113.500000
85125000	1875000	4	1	0	55	89	28.375000	113.500000
85125000	1875000	4	1	0	58	89	28.375000	113.500000
85125000	1875000	4	1	0	62	89	28.375000	113.500000
85125000	1875000	5	2	0	46	89	28.375000	113.500000
85125000	1875000	11	8	32	46	89	28.375000	113.500000
85500000	375000	3	0	73	74	89	28.500000	114.000000
85875000	375000	3	0	73	72	89	28.625000	114.500000
86250000	375000	3	0	73	72	89	28.750000	115.000000
86625000	375000	3	0	73	70	89	28.875000	115.500000
87000000	375000	3	0	73	72	89	29.000000	116.000000
87000000	1125000	4	1	0	55	89	29.000000	116.000000
87000000	1125000	4	1	0	58	89	29.000000	116.000000
87000000	1125000	4	1	0	63	89	29.000000	116.000000
87000000	1125000	5	2	0	39	89	29.000000	116.000000
87000000	1125000	11	8	32	39	89	29.000000	116.000000
87375000	375000	3	0	73	72	89	29.125000	116.500000
87750000	375000	3	0	73	74	89	29.250000	117.000000
88125000	375000	3	0	73	70	89	29.375000	117.500000
88125000	1500000	4	1	0	53	89	29.375000	117.500000
88125000	1500000	4	1	0	58	89	29.375000	117.500000
88125000	1500000	4	1	0	62	89	29.375000	117.500000
88125000	1500000	5	2	0	46	89	29.375000	117.500000
88125000	1500000	11	8	32	46	89	29.375000	117.500000
88500000	375000	3	0	73	67	89	29.500000	118.000000
88687500	187500	10	7	53	72	1	29.562500	118.250000
88875000	187500	10	7	53	72	1	29.625000	118.500000
89062500	187500	10	7	53	74	1	29.687500	118.750000
89250000	93750	10	7	53	74	1	29.750000	119.000000
89343750	375000	10	7	53	74	1	29.781250	119.125000
89437500	187500	3	0	73	70	89	29.812500	119.250000
89625000	187500	3	0	73	74	89	29.875000	119.500000
89625000	375000	4	1	0	53	89	29.875000	119.500000
89625000	375000	4	1	0	57	89	29.875000	119.500000
89625000	375000	4	1	0	60	89	29.875000	119.500000
89625000	375000	5	2	0	41	89	29.875000	119.500000
89625000	375000	11	8	32	41	89	29.875000	119.500000
89812500	187500	3	0	73	77	89	29.937500	119.750000
90000000	187500	3	0	73	79	89	30.000000	120.000000
90000000	1125000	4	1	0	53	89	30.000000	120.000000
90000000	1125000	4	1	0	58	89	30.000000	120.000000
90000000	1125000	4	1	0	62	89	30.000000	120.000000
90000000	1125000	5	2	0	43	89	30.000000	120.000000
90000000	1125000	11	8	32	43	89	30.000000	120.000000
90187500	187500	3	0	73	81	89	30.062500	120.250000
90375000	375000	3	0	73	79	89	30.125000	120.500000
90750000	375000	3	0	73	77	89	30.250000	121.000000
91125000	750000	3	0	73	77	89	30.375000	121.500000
91125000	1875000	4	1	0	53	89	30.375000	121.500000
91125000	1875000	4	1	0	58	89	30.375000	121.500000
91125000	1875000	4	1	0	62	89	30.375000	121.500000
91125000	1875000	5	2	0	46	89	30.375000	121.500000
91125000	1875000	11	8	32	46	89	30.375000	121.500000
91875000	375000	3	0	73	79	89	30.625000	122.500000
91875000	187500	10	7	53	79	1	30.625000	122.500000
92062500	93750	10	7	53	81	1	30.687500	122.750000
92156250	93750	10	7	53	81	1	30.718750	122.875000
92250000	187500	10	7	53	79	1	30.750000	123.000000
92437500	187500	10	7	53	79	1	30.812500	123.250000
92625000	93750	10	7	53	77	1	30.875000	123.500000
92718750	187500	10	7	53	77	1	30.906250	123.625000
92812500	187500	3	0	73	70	89	30.937500	123.750000
93000000	375000	3	0	73	72	89	31.000000	124.000000
93000000	1125000	4	1	0	55	89	31.000000	124.000000
93000000	1125000	4	1	0	58	89	31.000000	124.000000
93000000	1125000	4	1	0	63	89	31.000000	124.000000
93000000	1125000	5	2	0	39	89	31.000000	124.000000
93000000	1125000	11	8	32	39	89	31.000000	124.000000
93375000	375000	3	0	73	72	89	31.125000	124.500000
93750000	375000	3	0	73	70	89	31.250000	125.000000
94125000	375000	3	0	73	74	89	31.375000	125.500000
94125000	1125000	4	1	0	53	89	31.375000	125.500000
94125000	1125000	4	1	0	58	89	31.375000	125.500000
94125000	1125000	4	1	0	62	89	31.375000	125.500000
94125000	1125000	5	2	0	46	89	31.375000	125.500000
94125000	1125000	11	8	32	46	89	31.375000	125.500000
94500000	375000	3	0	73	72	89	31.500000	126.000000
94500000	187500	10	7	53	72	1	31.500000	126.000000
94687500	187500	10	7	53	72	1	31.562500	126.250000
94875000	187500	10	7	53	72	1	31.625000	126.500000
95062500	93750	10	7	53	72	1	31.687500	126.750000
95156250	93750	10	7	53	72	1	31.718750	126.875000
95250000	375000	3	0	73	74	89	31.750000	127.000000
95250000	750000	4	1	0	53	89	31.750000	127.000000
95250000	750000	4	1	0	57	89	31.750000	127.000000
95250000	750000	4	1	0	60	89	31.750000	127.000000
95250000	750000	5	2	0	43	89	31.750000	127.000000
95250000	750000	11	8	32	43	89	31.750000	127.000000
95625000	375000	3	0	73	77	89	31.875000	127.500000
96000000	375000	3	0	73	79	89	32.000000	128.000000
96000000	1125000	4	1	0	53	89	32.000000	128.000000
96000000	1125000	4	1	0	58	89	32.000000	128.000000
96000000	1125000	4	1	0	62	89	32.000000	128.000000
96000000	1125000	5	2	0	43	89	32.000000	128.000000
96000000	1125000	11	8	32	43	89	32.000000	128.000000
96375000	375000	3	0	73	82	89	32.125000	128.500000
96750000	375000	3	0	73	84	89	32.250000	129.000000
97125000	375000	3	0	73	86	89	32.375000	129.500000
97125000	1875000	4	1	0	53	89	32.375000	129.500000
97125000	1875000	4	1	0	58	89	32.375000	129.500000
97125000	1875000	4	1	0	62	89	32.375000	129.500000
97125000	1875000	5	2	0	46	89	32.375000	129.500000
97125000	1875000	11	8	32	46	89	32.375000	129.500000
97500000	375000	3	0	73	84	89	32.500000	130.000000
97875000	375000	3	0	73	82	89	32.625000	130.500000
98250000	375000	3	0	73	79	89	32.750000	131.000000
98625000	375000	3	0	73	82	89	32.875000	131.500000
99000000	375000	3	0	73	84	89	33.000000	132.000000
99000000	1125000	4	1	0	55	89	33.000000	132.000000
99000000	1125000	4	1	0	58	89	33.000000	132.000000
99000000	1125000	4	1	0	63	89	33.000000	132.000000
99000000	1125000	5	2	0	39	89	33.000000	132.000000
99000000	1125000	11	8	32	39	89	33.000000	132.000000
99375000	375000	3	0	73	84	89	33.125000	132.500000
99750000	375000	3	0	73	82	89	33.250000	133.000000
100125000	375000	3	0	73	82	89	33.375000	133.500000
100125000	1875000	4	1	0	53	89	33.375000	133.500000
100125000	1875000	4	1	0	58	89	33.375000	133.500000
100125000	1875000	4	1	0	62	89	33.375000	133.500000
100125000	1875000	5	2	0	46	89	33.375000	133.500000
100125000	1875000	11	8	32	46	89	33.375000	133.500000
100500000	375000	3	0	73	79	89	33.500000	134.000000
100500000	187500	10	7	53	72	1	33.500000	134.000000
100687500	187500	10	7	53	72	1	33.562500	134.250000
100875000	93750	10	7	53	72	1	33.625000	134.500000
100968750	93750	10	7	53	72	1	33.656250	134.625000
101062500	187500	10	7	53	72	1	33.687500	134.750000
101250000	375000	3	0	73	79	89	33.750000	135.000000
101625000	375000	3	0	73	82	89	33.875000	135.500000
102000000	375000	3	0	73	84	89	34.000000	136.000000
102000000	1125000	4	1	0	55	89	34.000000	136.000000
102000000	1125000	4	1	0	58	89	34.000000	136.000000
102000000	1125000	4	1	0	63	89	34.000000	136.000000
102000000	1125000	5	2	0	39	89	34.000000	136.000000
102000000	1125000	11	8	32	39	89	34.000000	136.000000
102375000	375000	3	0	73	84	89	34.125000	136.500000
102750000	375000	3	0	73	82	89	34.250000	137.000000
103125000	750000	3	0	73	82	89	34.375000	137.500000
103125000	1875000	4	1	0	53	89	34.375000	137.500000
103125000	1875000	4	1	0	58	89	34.375000	137.500000
103125000	1875000	4	1	0	62	89	34.375000	137.500000
103125000	1875000	5	2	0	46	89	34.375000	137.500000
103125000	1875000	11	8	32	46	89	34.375000	137.500000
104250000	375000	6	3	53	82	89	34.750000	139.000000
104250000	46875	12	9	0	36	89	34.750000	139.000000
104250000	20312	12	9	0	69	52	34.750000	139.000000
104265625	20312	12	9	0	42	127	34.755208	139.020833
104265625	20312	12	9	0	49	85	34.755208	139.020833
104281250	20312	12	9	0	33	127	34.760417	139.041667
104625000	375000	6	3	53	81	89	34.875000	139.500000
104625000	20312	12	9	0	69	29	34.875000	139.500000
104632812	20313	12	9	0	42	93	34.877604	139.510417
105000000	1125000	4	1	0	62	89	35.000000	140.000000
105000000	1125000	4	1	0	65	89	35.000000	140.000000
105000000	1125000	4	1	0	70	89	35.000000	140.000000
105000000	1125000	6	3	53	79	89	35.000000	140.000000
105000000	1125000	7	4	35	31	127	35.000000	140.000000
105000000	1125000	8	5	18	31	127	35.000000	140.000000
105000000	1125000	9	6	32	31	127	35.000000	140.000000
105000000	20312	12	9	0	34	22	35.000000	140.000000
105000000	46875	12	9	0	36	89	35.000000	140.000000
105000000	20312	12	9	0	69	49	35.000000	140.000000
105000000	1125000	13	10	50	62	89	35.000000	140.000000
105000000	1125000	13	10	50	65	89	35.000000	140.000000
105000000	1125000	13	10	50	70	89	35.000000	140.000000
105000000	1125000	14	11	51	62	89	35.000000	140.000000
105000000	1125000	14	11	51	65	89	35.000000	140.000000
105000000	1125000	14	11	51	70	89	35.000000	140.000000
105007812	20313	12	9	0	42	127	35.002604	140.010417
105125000	20312	12	9	0	34	21	35.041667	140.166667
105250000	20312	12	9	0	34	29	35.083333	140.333333
105375000	20312	12	9	0	34	30	35.125000	140.500000
105375000	46875	12	9	0	36	89	35.125000	140.500000
105375000	20312	12	9	0	69	29	35.125000	140.500000
105382812	20313	12	9	0	42	93	35.127604	140.510417
105500000	20312	12	9	0	34	44	35.166667	140.666667
105625000	20312	12	9	0	34	49	35.208333	140.833333
105750000	20312	12	9	0	34	68	35.250000	141.000000
105750000	20312	12	9	0	39	62	35.250000	141.000000
105750000	20312	12	9	0	69	49	35.250000	141.000000
105757812	20313	12	9	0	42	127	35.252604	141.010417
106125000	750000	4	1	0	62	89	35.375000	141.500000
106125000	750000	4	1	0	65	89	35.375000	141.500000
106125000	750000	4	1	0	70	89	35.375000	141.500000
106125000	750000	6	3	53	77	89	35.375000	141.500000
106125000	750000	7	4	35	34	127	35.375000	141.500000
106125000	750000	8	5	18	34	127	35.375000	141.500000
106125000	750000	9	6	32	34	127	35.375000	141.500000
106125000	20312	12	9	0	34	45	35.375000	141.500000
106125000	20312	12	9	0	69	29	35.375000	141.500000
106125000	750000	13	10	50	62	89	35.375000	141.500000
106125000	750000	13	10	50	65	89	35.375000	141.500000
106125000	750000	13	10	50	70	89	35.375000	141.500000
106125000	750000	14	11	51	62	89	35.375000	141.500000
106125000	750000	14	11	51	65	89	35.375000	141.500000
106125000	750000	14	11	51	70	89	35.375000	141.500000
106132812	20313	12	9	0	42	93	35.377604	141.510417
106500000	20312	12	9	0	34	57	35.500000	142.000000
106500000	20312	12	9	0	69	49	35.500000	142.000000
106507812	20313	12	9	0	42	127	35.502604	142.010417
106515625	20312	12	9	0	33	127	35.505208	142.020833
106875000	562500	4	1	0	62	89	35.625000	142.500000
106875000	562500	4	1	0	65	89	35.625000	142.500000
106875000	562500	4	1	0	70	89	35.625000	142.500000
106875000	562500	7	4	35	34	127	35.625000	142.500000
106875000	562500	8	5	18	34	127	35.625000	142.500000
106875000	562500	9	6	32	34	127	35.625000	142.500000
106875000	20312	12	9	0	42	127	35.625000	142.500000
106875000	20312	12	9	0	69	29	35.625000	142.500000
106875000	562500	13	10	50	62	89	35.625000	142.500000
106875000	562500	13	10	50	65	89	35.625000	142.500000
106875000	562500	13	10	50	70	89	35.625000	142.500000
106875000	562500	14	11	51	62	89	35.625000	142.500000
106875000	562500	14	11	51	65	89	35.625000	142.500000
106875000	562500	14	11	51	70	89	35.625000	142.500000
107000000	20312	12	9	0	42	127	35.666667	142.666667
107015625	46875	12	9	0	38	89	35.671875	142.687500
107109375	46875	12	9	0	38	89	35.703125	142.812500
107125000	20312	12	9	0	42	127	35.708333	142.833333
107250000	375000	6	3	53	82	89	35.750000	143.000000
107250000	20312	12	9	0	33	87	35.750000	143.000000
107250000	20312	12	9	0	34	36	35.750000	143.000000
107250000	46875	12	9	0	36	89	35.750000	143.000000
107250000	46875	12	9	0	38	89	35.750000	143.000000
107250000	20312	12	9	0	69	51	35.750000	143.000000
107265625	20312	12	9	0	42	127	35.755208	143.020833
107437500	562500	4	1	0	60	89	35.812500	143.250000
107437500	562500	4	1	0	65	89	35.812500	143.250000
107437500	562500	4	1	0	69	89	35.812500	143.250000
107437500	562500	7	4	35	29	127	35.812500	143.250000
107437500	562500	8	5	18	29	127	35.812500	143.250000
107437500	562500	9	6	32	29	127	35.812500	143.250000
107437500	562500	13	10	50	60	89	35.812500	143.250000
107437500	562500	13	10	50	65	89	35.812500	143.250000
107437500	562500	13	10	50	69	89	35.812500	143.250000
107437500	562500	14	11	51	60	89	35.812500	143.250000
107437500	562500	14	11	51	65	89	35.812500	143.250000
107437500	562500	14	11	51	69	89	35.812500	143.250000
107625000	375000	6	3	53	81	89	35.875000	143.500000
107625000	20312	12	9	0	34	45	35.875000	143.500000
107625000	46875	12	9	0	36	89	35.875000	143.500000
107625000	46875	12	9	0	37	89	35.875000	143.500000
107625000	20312	12	9	0	69	29	35.875000	143.500000
107632812	20313	12	9	0	42	93	35.877604	143.510417
108000000	1125000	4	1	0	63	89	36.000000	144.000000
108000000	1125000	4	1	0	67	89	36.000000	144.000000
108000000	1125000	4	1	0	70	89	36.000000	144.000000
108000000	562500	6	3	53	79	89	36.000000	144.000000
108000000	1125000	7	4	35	27	127	36.000000	144.000000
108000000	1125000	8	5	18	27	127	36.000000	144.000000
108000000	1125000	9	6	32	27	127	36.000000	144.000000
108000000	20312	12	9	0	34	22	36.000000	144.000000
108000000	46875	12	9	0	36	89	36.000000	144.000000
108000000	20312	12	9	0	69	49	36.000000	144.000000
108000000	1125000	13	10	50	63	89	36.000000	144.000000
108000000	1125000	13	10	50	67	89	36.000000	144.000000
108000000	1125000	13	10	50	70	89	36.000000	144.000000
108000000	1125000	14	11	51	63	89	36.000000	144.000000
108000000	1125000	14	11	51	67	89	36.000000	144.000000
108000000	1125000	14	11	51	70	89	36.000000	144.000000
108007812	20313	12	9	0	42	127	36.002604	144.010417
108125000	20312	12	9	0	34	21	36.041667	144.166667
108250000	20312	12	9	0	34	29	36.083333	144.333333
108375000	20312	12	9	0	34	30	36.125000	144.500000
108375000	46875	12	9	0	36	89	36.125000	144.500000
108375000	20312	12	9	0	69	29	36.125000	144.500000
108382812	20313	12	9	0	42	93	36.127604	144.510417
108500000	20312	12	9	0	34	44	36.166667	144.666667
108562500	187500	6	3	53	81	89	36.187500	144.750000
108625000	20312	12	9	0	34	49	36.208333	144.833333
108750000	375000	6	3	53	79	89	36.250000	145.000000
108750000	20312	12	9	0	34	68	36.250000	145.000000
108750000	20312	12	9	0	39	62	36.250000	145.000000
108750000	20312	12	9	0	69	49	36.250000	145.000000
108757812	20313	12	9	0	42	127	36.252604	145.010417
109125000	750000	4	1	0	62	89	36.375000	145.500000
109125000	750000	4	1	0	65	89	36.375000	145.500000
109125000	750000	4	1	0	70	89	36.375000	145.500000
109125000	375000	6	3	53	77	89	36.375000	145.500000
109125000	750000	7	4	35	34	127	36.375000	145.500000
109125000	750000	8	5	18	34	127	36.375000	145.500000
109125000	750000	9	6	32	34	127	36.375000	145.500000
109125000	20312	12	9	0	34	45	36.375000	145.500000
109125000	20312	12	9	0	69	29	36.375000	145.500000
109125000	750000	13	10	50	62	89	36.375000	145.500000
109125000	750000	13	10	50	65	89	36.375000	145.500000
109125000	750000	13	10	50	70	89	36.375000	145.500000
109125000	750000	14	11	51	62	89	36.375000	145.500000
109125000	750000	14	11	51	65	89	36.375000	145.500000
109125000	750000	14	11	51	70	89	36.375000	145.500000
109132812	20313	12	9	0	42	93	36.377604	145.510417
109500000	750000	6	3	53	74	89	36.500000	146.000000
109500000	20312	12	9	0	34	57	36.500000	146.000000
109500000	20312	12	9	0	69	49	36.500000	146.000000
109507812	20313	12	9	0	42	127	36.502604	146.010417
109515625	20312	12	9	0	33	127	36.505208	146.020833
109875000	562500	4	1	0	62	89	36.625000	146.500000
109875000	562500	4	1	0	65	89	36.625000	146.500000
109875000	562500	4	1	0	70	89	36.625000	146.500000
109875000	562500	7	4	35	34	127	36.625000	146.500000
109875000	562500	8	5	18	34	127	36.625000	146.500000
109875000	562500	9	6	32	34	127	36.625000	146.500000
109875000	20312	12	9	0	42	127	36.625000	146.500000
109875000	20312	12	9	0	69	29	36.625000	146.500000
109875000	562500	13	10	50	62	89	36.625000	146.500000
109875000	562500	13	10	50	65	89	36.625000	146.500000
109875000	562500	13	10	50	70	89	36.625000	146.500000
109875000	562500	14	11	51	62	89	36.625000	146.500000
109875000	562500	14	11	51	65	89	36.625000	146.500000
109875000	562500	14	11	51	70	89	36.625000	146.500000
110000000	20312	12	9	0	42	127	36.666667	146.666667
110015625	46875	12	9	0	38	89	36.671875	146.687500
110109375	46875	12	9	0	38	89	36.703125	146.812500
110125000	20312	12	9	0	42	127	36.708333	146.833333
110250000	187500	6	3	53	77	89	36.750000	147.000000
110250000	20312	12	9	0	33	87	36.750000	147.000000
110250000	20312	12	9	0	34	36	36.750000	147.000000
110250000	46875	12	9	0	36	89	36.750000	147.000000
110250000	46875	12	9	0	38	89	36.750000	147.000000
110250000	20312	12	9	0	69	51	36.750000	147.000000
110265625	20312	12	9	0	42	127	36.755208	147.020833
110437500	562500	4	1	0	60	89	36.812500	147.250000
110437500	562500	4	1	0	65	89	36.812500	147.250000
110437500	562500	4	1	0	69	89	36.812500	147.250000
110437500	187500	6	3	53	79	89	36.812500	147.250000
110437500	562500	7	4	35	29	127	36.812500	147.250000
110437500	562500	8	5	18	29	127	36.812500	147.250000
110437500	562500	9	6	32	29	127	36.812500	147.250000
110437500	562500	13	10	50	60	89	36.812500	147.250000
110437500	562500	13	10	50	65	89	36.812500	147.250000
110437500	562500	13	10	50	69	89	36.812500	147.250000
110437500	562500	14	11	51	60	89	36.812500	147.250000
110437500	562500	14	11	51	65	89	36.812500	147.250000
110437500	562500	14	11	51	69	89	36.812500	147.250000
110625000	187500	6	3	53	82	89	36.875000	147.500000
110625000	20312	12	9	0	34	45	36.875000	147.500000
110625000	46875	12	9	0	36	89	36.875000	147.500000
110625000	46875	12	9	0	37	89	36.875000	147.500000
110625000	20312	12	9	0	69	29	36.875000	147.500000
110632812	20313	12	9	0	42	93	36.877604	147.510417
110812500	187500	6	3	53	84	89	36.937500	147.750000
111000000	1125000	4	1	0	62	89	37.000000	148.000000
111000000	1125000	4	1	0	65	89	37.000000	148.000000
111000000	1125000	4	1	0	70	89	37.000000	148.000000
111000000	562500	6	3	53	86	89	37.000000	148.000000
111000000	1125000	7	4	35	31	127	37.000000	148.000000
111000000	1125000	8	5	18	31	127	37.000000	148.000000
111000000	1125000	9	6	32	31	127	37.000000	148.000000
111000000	20312	12	9	0	34	22	37.000000	148.000000
111000000	46875	12	9	0	36	89	37.000000	148.000000
111000000	20312	12	9	0	69	49	37.000000	148.000000
111000000	1125000	13	10	50	62	89	37.000000	148.000000
111000000	1125000	13	10	50	65	89	37.000000	148.000000
111000000	1125000	13	10	50	70	89	37.000000	148.000000
111000000	1125000	14	11	51	62	89	37.000000	148.000000
111000000	1125000	14	11	51	65	89	37.000000	148.000000
111000000	1125000	14	11	51	70	89	37.000000	148.000000
111007812	20313	12	9	0	42	127	37.002604	148.010417
111125000	20312	12	9	0	34	21	37.041667	148.166667
111250000	20312	12	9	0	34	29	37.083333	148.333333
111375000	20312	12	9	0	34	30	37.125000	148.500000
111375000	46875	12	9	0	36	89	37.125000	148.500000
111375000	20312	12	9	0	69	29	37.125000	148.500000
111382812	20313	12	9	0	42	93	37.127604	148.510417
111500000	20312	12	9	0	34	44	37.166667	148.666667
111562500	187500	6	3	53	84	89	37.187500	148.750000
111625000	20312	12	9	0	34	49	37.208333	148.833333
111750000	562500	6	3	53	86	89	37.250000	149.000000
111750000	20312	12	9	0	34	68	37.250000	149.000000
111750000	20312	12	9	0	39	62	37.250000	149.000000
111750000	20312	12	9	0	69	49	37.250000	149.000000
111757812	20313	12	9	0	42	127	37.252604	149.010417
112125000	750000	4	1	0	62	89	37.375000	149.500000
112125000	750000	4	1	0	65	89	37.375000	149.500000
112125000	750000	4	1	0	70	89	37.375000	149.500000
112125000	750000	7	4	35	34	127	37.375000	149.500000
112125000	750000	8	5	18	34	127	37.375000	149.500000
112125000	750000	9	6	32	34	127	37.375000	149.500000
112125000	20312	12	9	0	34	45	37.375000	149.500000
112125000	20312	12	9	0	69	29	37.375000	149.500000
112125000	750000	13	10	50	62	89	37.375000	149.500000
112125000	750000	13	10	50	65	89	37.375000	149.500000
112125000	750000	13	10	50	70	89	37.375000	149.500000
112125000	750000	14	11	51	62	89	37.375000	149.500000
112125000	750000	14	11	51	65	89	37.375000	149.500000
112125000	750000	14	11	51	70	89	37.375000	149.500000
112132812	20313	12	9	0	42	93	37.377604	149.510417
112312500	187500	6	3	53	84	89	37.437500	149.750000
112500000	562500	6	3	53	86	89	37.500000	150.000000
112500000	20312	12	9	0	34	57	37.500000	150.000000
112500000	20312	12	9	0	69	49	37.500000	150.000000
112507812	20313	12	9	0	42	127	37.502604	150.010417
112515625	20312	12	9	0	33	127	37.505208	150.020833
112875000	562500	4	1	0	62	89	37.625000	150.500000
112875000	562500	4	1	0	65	89	37.625000	150.500000
112875000	562500	4	1	0	70	89	37.625000	150.500000
112875000	562500	7	4	35	34	127	37.625000	150.500000
112875000	562500	8	5	18	34	127	37.625000	150.500000
112875000	562500	9	6	32	34	127	37.625000	150.500000
112875000	20312	12	9	0	42	127	37.625000	150.500000
112875000	20312	12	9	0	69	29	37.625000	150.500000
112875000	562500	13	10	50	62	89	37.625000	150.500000
112875000	562500	13	10	50	65	89	37.625000	150.500000
112875000	562500	13	10	50	70	89	37.625000	150.500000
112875000	562500	14	11	51	62	89	37.625000	150.500000
112875000	562500	14	11	51	65	89	37.625000	150.500000
112875000	562500	14	11	51	70	89	37.625000	150.500000
113000000	20312	12	9	0	42	127	37.666667	150.666667
113015625	46875	12	9	0	38	89	37.671875	150.687500
113062500	187500	6	3	53	84	89	37.687500	150.750000
113109375	46875	12	9	0	38	89	37.703125	150.812500
113125000	20312	12	9	0	42	127	37.708333	150.833333
113250000	187500	6	3	53	86	89	37.750000	151.000000
113250000	20312	12	9	0	33	87	37.750000	151.000000
113250000	20312	12	9	0	34	36	37.750000	151.000000
113250000	46875	12	9	0	36	89	37.750000	151.000000
113250000	46875	12	9	0	38	89	37.750000	151.000000
113250000	20312	12	9	0	69	51	37.750000	151.000000
113265625	20312	12	9	0	42	127	37.755208	151.020833
113437500	562500	4	1	0	60	89	37.812500	151.250000
113437500	562500	4	1	0	65	89	37.812500	151.250000
113437500	562500	4	1	0	69	89	37.812500	151.250000
113437500	187500	6	3	53	89	89	37.812500	151.250000
113437500	562500	7	4	35	29	127	37.812500	151.250000
113437500	562500	8	5	18	29	127	37.812500	151.250000
113437500	562500	9	6	32	29	127	37.812500	151.250000
113437500	562500	13	10	50	60	89	37.812500	151.250000
113437500	562500	13	10	50	65	89	37.812500	151.250000
113437500	562500	13	10	50	69	89	37.812500	151.250000
113437500	562500	14	11	51	60	89	37.812500	151.250000
113437500	562500	14	11	51	65	89	37.812500	151.250000
113437500	562500	14	11	51	69	89	37.812500	151.250000
113625000	187500	6	3	53	86	89	37.875000	151.500000
113625000	20312	12	9	0	34	45	37.875000	151.500000
113625000	46875	12	9	0	36	89	37.875000	151.500000
113625000	46875	12	9	0	37	89	37.875000	151.500000
113625000	20312	12	9	0	69	29	37.875000	151.500000
113632812	20313	12	9	0	42	93	37.877604	151.510417
113812500	187500	6	3	53	84	89	37.937500	151.750000
114000000	1125000	4	1	0	63	89	38.000000	152.000000
114000000	1125000	4	1	0	67	89	38.000000	152.000000
114000000	1125000	4	1	0	70	89	38.000000	152.000000
114000000	562500	6	3	53	82	89	38.000000	152.000000
114000000	1125000	7	4	35	27	127	38.000000	152.000000
114000000	1125000	8	5	18	27	127	38.000000	152.000000
114000000	1125000	9	6	32	27	127	38.000000	152.000000
114000000	20312	12	9	0	34	22	38.000000	152.000000
114000000	46875	12	9	0	36	89	38.000000	152.000000
114000000	20312	12	9	0	69	49	38.000000	152.000000
114000000	1125000	13	10	50	63	89	38.000000	152.000000
114000000	1125000	13	10	50	67	89	38.000000	152.000000
114000000	1125000	13	10	50	70	89	38.000000	152.000000
114000000	1125000	14	11	51	63	89	38.000000	152.000000
114000000	1125000	14	11	51	67	89	38.000000	152.000000
114000000	1125000	14	11	51	70	89	38.000000	152.000000
114007812	20313	12	9	0	42	127	38.002604	152.010417
114125000	20312	12	9	0	34	21	38.041667	152.166667
114250000	20312	12	9	0	34	29	38.083333	152.333333
114375000	20312	12	9	0	34	30	38.125000	152.500000
114375000	46875	12	9	0	36	89	38.125000	152.500000
114375000	20312	12	9	0	69	29	38.125000	152.500000
114382812	20313	12	9	0	42	93	38.127604	152.510417
114500000	20312	12	9	0	34	44	38.166667	152.666667
114562500	187500	6	3	53	79	89	38.187500	152.750000
114625000	20312	12	9	0	34	49	38.208333	152.833333
114750000	375000	6	3	53	82	89	38.250000	153.000000
114750000	20312	12	9	0	34	68	38.250000	153.000000
114750000	20312	12	9	0	39	62	38.250000	153.000000
114750000	20312	12	9	0	69	49	38.250000	153.000000
114757812	20313	12	9	0	42	127	38.252604	153.010417
115125000	750000	4	1	0	62	89	38.375000	153.500000
115125000	750000	4	1	0	65	89	38.375000	153.500000
115125000	750000	4	1	0	70	89	38.375000	153.500000
115125000	187500	6	3	53	84	89	38.375000	153.500000
115125000	750000	7	4	35	34	127	38.375000	153.500000
115125000	750000	8	5	18	34	127	38.375000	153.500000
115125000	750000	9	6	32	34	127	38.375000	153.500000
115125000	20312	12	9	0	34	45	38.375000	153.500000
115125000	20312	12	9	0	69	29	38.375000	153.500000
115125000	750000	13	10	50	62	89	38.375000	153.500000
115125000	750000	13	10	50	65	89	38.375000	153.500000
115125000	750000	13	10	50	70	89	38.375000	153.500000
115125000	750000	14	11	51	62	89	38.375000	153.500000
115125000	750000	14	11	51	65	89	38.375000	153.500000
115125000	750000	14	11	51	70	89	38.375000	153.500000
115132812	20313	12	9	0	42	93	38.377604	153.510417
115312500	1687500	6	3	53	82	89	38.437500	153.750000
115500000	20312	12	9	0	34	57	38.500000	154.000000
115500000	20312	12	9	0	69	49	38.500000	154.000000
115507812	20313	12	9	0	42	127	38.502604	154.010417
115515625	20312	12	9	0	33	127	38.505208	154.020833
115875000	375000	4	1	0	62	89	38.625000	154.500000
115875000	375000	4	1	0	65	89	38.625000	154.500000
115875000	375000	4	1	0	70	89	38.625000	154.500000
115875000	375000	7	4	35	34	127	38.625000	154.500000
115875000	375000	8	5	18	34	127	38.625000	154.500000
115875000	375000	9	6	32	34	127	38.625000	154.500000
115875000	20312	12	9	0	42	127	38.625000	154.500000
115875000	20312	12	9	0	69	29	38.625000	154.500000
115875000	375000	13	10	50	62	89	38.625000	154.500000
115875000	375000	13	10	50	65	89	38.625000	154.500000
115875000	375000	13	10	50	70	89	38.625000	154.500000
115875000	375000	14	11	51	62	89	38.625000	154.500000
115875000	375000	14	11	51	65	89	38.625000	154.500000
115875000	375000	14	11	51	70	89	38.625000	154.500000
116000000	20312	12	9	0	42	127	38.666667	154.666667
116015625	46875	12	9	0	38	89	38.671875	154.687500
116109375	46875	12	9	0	38	89	38.703125	154.812500
116125000	20312	12	9	0	42	127	38.708333	154.833333
116250000	20312	12	9	0	33	87	38.750000	155.000000
116250000	20312	12	9	0	34	36	38.750000	155.000000
116250000	46875	12	9	0	36	89	38.750000	155.000000
116250000	46875	12	9	0	38	89	38.750000	155.000000
116250000	20312	12	9	0	69	51	38.750000	155.000000
116265625	20312	12	9	0	42	127	38.755208	155.020833
116625000	20312	12	9	0	34	45	38.875000	155.500000
116625000	46875	12	9	0	36	89	38.875000	155.500000
116625000	46875	12	9	0	37	89	38.875000	155.500000
116625000	20312	12	9	0	69	29	38.875000	155.500000
116632812	20313	12	9	0	42	93	38.877604	155.510417
117000000	1125000	4	1	0	58	89	39.000000	156.000000
117000000	1125000	4	1	0	62	89	39.000000	156.000000
117000000	562500	6	3	53	74	89	39.000000	156.000000
117000000	1125000	7	4	35	31	127	39.000000	156.000000
117000000	1125000	8	5	18	31	127	39.000000	156.000000
117000000	1125000	9	6	32	31	127	39.000000	156.000000
117000000	20312	12	9	0	64	76	39.000000	156.000000
117562500	187500	6	3	53	72	89	39.187500	156.750000
117750000	562500	6	3	53	74	89	39.250000	157.000000
117750000	20312	12	9	0	63	109	39.250000	157.000000
118125000	750000	4	1	0	58	89	39.375000	157.500000
118125000	750000	4	1	0	62	89	39.375000	157.500000
118125000	750000	7	4	35	34	127	39.375000	157.500000
118125000	750000	8	5	18	34	127	39.375000	157.500000
118125000	750000	9	6	32	34	127	39.375000	157.500000
118312500	187500	6	3	53	72	89	39.437500	157.750000
118500000	562500	6	3	53	74	89	39.500000	158.000000
118500000	20312	12	9	0	64	70	39.500000	158.000000
118875000	562500	4	1	0	58	89	39.625000	158.500000
118875000	562500	4	1	0	62	89	39.625000	158.500000
118875000	562500	7	4	35	34	127	39.625000	158.500000
118875000	562500	8	5	18	34	127	39.625000	158.500000
118875000	562500	9	6	32	34	127	39.625000	158.500000
118875000	20312	12	9	0	64	83	39.625000	158.500000
119062500	187500	6	3	53	72	89	39.687500	158.750000
119250000	187500	6	3	53	74	89	39.750000	159.000000
119250000	20312	12	9	0	63	116	39.750000	159.000000
119437500	187500	3	0	73	65	1	39.812500	159.250000
119437500	562500	4	1	0	57	89	39.812500	159.250000
119437500	562500	4	1	0	60	89	39.812500	159.250000
119437500	187500	6	3	53	77	89	39.812500	159.250000
119437500	562500	7	4	35	29	127	39.812500	159.250000
119437500	562500	8	5	18	29	127	39.812500	159.250000
119437500	562500	9	6	32	29	127	39.812500	159.250000
119625000	187500	3	0	73	67	1	39.875000	159.500000
119625000	187500	6	3	53	74	89	39.875000	159.500000
119812500	375000	3	0	73	69	1	39.937500	159.750000
119812500	187500	6	3	53	72	89	39.937500	159.750000
120000000	1125000	4	1	0	58	89	40.000000	160.000000
120000000	1125000	4	1	0	62	89	40.000000	160.000000
120000000	562500	6	3	53	70	89	40.000000	160.000000
120000000	1125000	7	4	35	27	127	40.000000	160.000000
120000000	1125000	8	5	18	27	127	40.000000	160.000000
120000000	1125000	9	6	32	27	127	40.000000	160.000000
120000000	20312	12	9	0	64	76	40.000000	160.000000
120187500	187500	3	0	73	67	1	40.062500	160.250000
120375000	187500	3	0	73	67	1	40.125000	160.500000
120562500	187500	3	0	73	67	1	40.187500	160.750000
120562500	187500	6	3	53	67	89	40.187500	160.750000
120750000	187500	3	0	73	67	1	40.250000	161.000000
120750000	375000	6	3	53	70	1	40.250000	161.000000
120750000	20312	12	9	0	63	109	40.250000	161.000000
120937500	187500	3	0	73	67	1	40.312500	161.250000
121125000	187500	3	0	73	67	1	40.375000	161.500000
121125000	750000	4	1	0	58	89	40.375000	161.500000
121125000	750000	4	1	0	62	89	40.375000	161.500000
121125000	187500	6	3	53	72	1	40.375000	161.500000
121125000	750000	7	4	35	34	127	40.375000	161.500000
121125000	750000	8	5	18	34	127	40.375000	161.500000
121125000	750000	9	6	32	34	127	40.375000	161.500000
121312500	375000	3	0	73	69	1	40.437500	161.750000
121312500	375000	6	3	53	74	1	40.437500	161.750000
121500000	20312	12	9	0	64	70	40.500000	162.000000
121687500	187500	3	0	73	67	1	40.562500	162.250000
121687500	187500	6	3	53	72	1	40.562500	162.250000
121875000	187500	3	0	73	67	1	40.625000	162.500000
121875000	562500	4	1	0	58	89	40.625000	162.500000
121875000	562500	4	1	0	62	89	40.625000	162.500000
121875000	562500	7	4	35	34	127	40.625000	162.500000
121875000	562500	8	5	18	34	127	40.625000	162.500000
121875000	562500	9	6	32	34	127	40.625000	162.500000
121875000	20312	12	9	0	64	83	40.625000	162.500000
122062500	187500	3	0	73	67	1	40.687500	162.750000
122250000	187500	3	0	73	67	1	40.750000	163.000000
122250000	20312	12	9	0	63	116	40.750000	163.000000
122437500	187500	3	0	73	67	1	40.812500	163.250000
122437500	562500	4	1	0	57	89	40.812500	163.250000
122437500	562500	4	1	0	60	89	40.812500	163.250000
122437500	562500	7	4	35	29	127	40.812500	163.250000
122437500	562500	8	5	18	29	127	40.812500	163.250000
122437500	562500	9	6	32	29	127	40.812500	163.250000
122625000	187500	3	0	73	67	1	40.875000	163.500000
122625000	187500	6	3	53	70	1	40.875000	163.500000
122812500	187500	3	0	73	69	1	40.937500	163.750000
122812500	187500	6	3	53	67	1	40.937500	163.750000
123000000	187500	3	0	73	69	1	41.000000	164.000000
123000000	1125000	4	1	0	58	89	41.000000	164.000000
123000000	1125000	4	1	0	62	89	41.000000	164.000000
123000000	562500	6	3	53	70	89	41.000000	164.000000
123000000	1125000	7	4	35	31	127	41.000000	164.000000
123000000	1125000	8	5	18	31	127	41.000000	164.000000
123000000	1125000	9	6	32	31	127	41.000000	164.000000
123000000	20312	12	9	0	64	76	41.000000	164.000000
123187500	187500	3	0	73	67	1	41.062500	164.250000
123375000	187500	3	0	73	67	1	41.125000	164.500000
123562500	187500	3	0	73	67	1	41.187500	164.750000
123562500	187500	6	3	53	67	89	41.187500	164.750000
123750000	187500	3	0	73	67	1	41.250000	165.000000
123750000	375000	6	3	53	70	1	41.250000	165.000000
123750000	20312	12	9	0	63	109	41.250000	165.000000
123937500	187500	3	0	73	67	1	41.312500	165.250000
124125000	187500	3	0	73	67	1	41.375000	165.500000
124125000	750000	4	1	0	58	89	41.375000	165.500000
124125000	750000	4	1	0	62	89	41.375000	165.500000
124125000	187500	6	3	53	72	1	41.375000	165.500000
124125000	750000	7	4	35	34	127	41.375000	165.500000
124125000	750000	8	5	18	34	127	41.375000	165.500000
124125000	750000	9	6	32	34	127	41.375000	165.500000
124312500	187500	3	0	73	69	1	41.437500	165.750000
124312500	375000	6	3	53	74	1	41.437500	165.750000
124500000	187500	3	0	73	67	1	41.500000	166.000000
124500000	20312	12	9	0	64	70	41.500000	166.000000
124687500	187500	3	0	73	67	1	41.562500	166.250000
124687500	187500	6	3	53	72	1	41.562500	166.250000
124875000	187500	3	0	73	67	1	41.625000	166.500000
124875000	562500	4	1	0	58	89	41.625000	166.500000
124875000	562500	4	1	0	62	89	41.625000	166.500000
124875000	562500	7	4	35	34	127	41.625000	166.500000
124875000	562500	8	5	18	34	127	41.625000	166.500000
124875000	562500	9	6	32	34	127	41.625000	166.500000
124875000	20312	12	9	0	64	83	41.625000	166.500000
125062500	187500	3	0	73	67	1	41.687500	166.750000
125250000	187500	3	0	73	67	1	41.750000	167.000000
125250000	20312	12	9	0	63	116	41.750000	167.000000
125437500	187500	3	0	73	67	1	41.812500	167.250000
125437500	562500	4	1	0	57	89	41.812500	167.250000
125437500	562500	4	1	0	60	89	41.812500	167.250000
125437500	562500	7	4	35	29	127	41.812500	167.250000
125437500	562500	8	5	18	29	127	41.812500	167.250000
125437500	562500	9	6	32	29	127	41.812500	167.250000
125625000	187500	3	0	73	67	1	41.875000	167.500000
125625000	187500	6	3	53	70	1	41.875000	167.500000
125812500	187500	3	0	73	69	1	41.937500	167.750000
125812500	187500	6	3	53	67	1	41.937500	167.750000
126000000	187500	3	0	73	67	1	42.000000	168.000000
126000000	1125000	4	1	0	58	89	42.000000	168.000000
126000000	1125000	4	1	0	62	89	42.000000	168.000000
126000000	562500	6	3	53	70	89	42.000000	168.000000
126000000	1125000	7	4	35	27	127	42.000000	168.000000
126000000	1125000	8	5	18	27	127	42.000000	168.000000
126000000	1125000	9	6	32	27	127	42.000000	168.000000
126000000	20312	12	9	0	64	76	42.000000	168.000000
126187500	187500	3	0	73	67	1	42.062500	168.250000
126375000	187500	3	0	73	67	1	42.125000	168.500000
126562500	187500	3	0	73	67	1	42.187500	168.750000
126562500	187500	6	3	53	67	89	42.187500	168.750000
126750000	187500	3	0	73	67	1	42.250000	169.000000
126750000	375000	6	3	53	70	1	42.250000	169.000000
126750000	20312	12	9	0	63	109	42.250000	169.000000
126937500	187500	3	0	73	67	1	42.312500	169.250000
127125000	187500	3	0	73	67	1	42.375000	169.500000
127125000	750000	4	1	0	58	89	42.375000	169.500000
127125000	750000	4	1	0	62	89	42.375000	169.500000
127125000	187500	6	3	53	72	1	42.375000	169.500000
127125000	750000	7	4	35	34	127	42.375000	169.500000
127125000	750000	8	5	18	34	127	42.375000	169.500000
127125000	750000	9	6	32	34	127	42.375000	169.500000
127312500	187500	3	0	73	69	1	42.437500	169.750000
127312500	562500	6	3	53	70	1	42.437500	169.750000
127500000	187500	3	0	73	67	1	42.500000	170.000000
127500000	20312	12	9	0	64	70	42.500000	170.000000
127687500	187500	3	0	73	67	1	42.562500	170.250000
127875000	187500	3	0	73	67	1	42.625000	170.500000
127875000	375000	4	1	0	58	89	42.625000	170.500000
127875000	375000	4	1	0	62	89	42.625000	170.500000
127875000	375000	7	4	35	34	127	42.625000	170.500000
127875000	375000	8	5	18	34	127	42.625000	170.500000
127875000	375000	9	6	32	34	127	42.625000	170.500000
127875000	20312	12	9	0	64	83	42.625000	170.500000
128062500	187500	3	0	73	67	1	42.687500	170.750000
128250000	375000	3	0	73	67	1	42.750000	171.000000
128250000	20312	12	9	0	63	116	42.750000	171.000000
128812500	187500	3	0	73	67	1	42.937500	171.750000
129000000	187500	3	0	73	67	1	43.000000	172.000000
129000000	1125000	4	1	0	58	89	43.000000	172.000000
129000000	1125000	4	1	0	62	89	43.000000	172.000000
129000000	562500	6	3	53	74	89	43.000000	172.000000
129000000	1125000	7	4	35	31	127	43.000000	172.000000
129000000	1125000	8	5	18	31	127	43.000000	172.000000
129000000	1125000	9	6	32	31	127	43.000000	172.000000
129187500	187500	3	0	73	67	1	43.062500	172.250000
129375000	187500	3	0	73	67	1	43.125000	172.500000
129562500	187500	3	0	73	67	1	43.187500	172.750000
129562500	187500	6	3	53	72	89	43.187500	172.750000
129750000	187500	3	0	73	67	1	43.250000	173.000000
129750000	562500	6	3	53	74	89	43.250000	173.000000
129937500	187500	3	0	73	67	1	43.312500	173.250000
130125000	187500	3	0	73	67	1	43.375000	173.500000
130125000	750000	4	1	0	58	89	43.375000	173.500000
130125000	750000	4	1	0	62	89	43.375000	173.500000
130125000	750000	7	4	35	34	127	43.375000	173.500000
130125000	750000	8	5	18	34	127	43.375000	173.500000
130125000	750000	9	6	32	34	127	43.375000	173.500000
130312500	187500	6	3	53	72	89	43.437500	173.750000
130500000	562500	6	3	53	74	89	43.500000	174.000000
130875000	562500	4	1	0	58	89	43.625000	174.500000
130875000	562500	4	1	0	62	89	43.625000	174.500000
130875000	562500	7	4	35	34	127	43.625000	174.500000
130875000	562500	8	5	18	34	127	43.625000	174.500000
130875000	562500	9	6	32	34	127	43.625000	174.500000
131062500	187500	6	3	53	72	89	43.687500	174.750000
131250000	187500	6	3	53	74	89	43.750000	175.000000
131250000	46875	12	9	0	36	89	43.750000	175.000000
131250000	20312	12	9	0	69	52	43.750000	175.000000
131265625	20312	12	9	0	42	127	43.755208	175.020833
131265625	20312	12	9	0	49	85	43.755208	175.020833
131281250	20312	12	9	0	33	127	43.760417	175.041667
131437500	187500	3	0	73	67	1	43.812500	175.250000
131437500	562500	4	1	0	57	89	43.812500	175.250000
131437500	562500	4	1	0	60	89	43.812500	175.250000
131437500	187500	6	3	53	77	89	43.812500	175.250000
131437500	562500	7	4	35	29	127	43.812500	175.250000
131437500	562500	8	5	18	29	127	43.812500	175.250000
131437500	562500	9	6	32	29	127	43.812500	175.250000
131625000	187500	3	0	73	67	1	43.875000	175.500000
131625000	187500	6	3	53	74	89	43.875000	175.500000
131625000	20312	12	9	0	69	29	43.875000	175.500000
131632812	20313	12	9	0	42	93	43.877604	175.510417
131812500	187500	3	0	73	69	1	43.937500	175.750000
131812500	187500	6	3	53	72	89	43.937500	175.750000
132000000	187500	3	0	73	67	1	44.000000	176.000000
132000000	1125000	4	1	0	58	89	44.000000	176.000000
132000000	1125000	4	1	0	62	89	44.000000	176.000000
132000000	562500	6	3	53	70	89	44.000000	176.000000
132000000	1125000	7	4	35	27	127	44.000000	176.000000
132000000	1125000	8	5	18	27	127	44.000000	176.000000
132000000	1125000	9	6	32	27	127	44.000000	176.000000
132000000	20312	12	9	0	34	22	44.000000	176.000000
132000000	46875	12	9	0	36	89	44.000000	176.000000
132000000	20312	12	9	0	69	49	44.000000	176.000000
132000000	1125000	13	10	50	58	89	44.000000	176.000000
132000000	1125000	13	10	50	62	89	44.000000	176.000000
132000000	1125000	14	11	51	58	89	44.000000	176.000000
132000000	1125000	14	11	51	62	89	44.000000	176.000000
132007812	20313	12	9	0	42	127	44.002604	176.010417
132125000	20312	12	9	0	34	21	44.041667	176.166667
132187500	187500	3	0	73	67	1	44.062500	176.250000
132250000	20312	12	9	0	34	29	44.083333	176.333333
132375000	375000	3	0	73	67	1	44.125000	176.500000
132375000	20312	12	9	0	34	30	44.125000	176.500000
132375000	46875	12	9	0	36	89	44.125000	176.500000
132375000	20312	12	9	0	69	29	44.125000	176.500000
132382812	20313	12	9	0	42	93	44.127604	176.510417
132500000	20312	12	9	0	34	44	44.166667	176.666667
132562500	187500	6	3	53	67	89	44.187500	176.750000
132625000	20312	12	9	0	34	49	44.208333	176.833333
132750000	187500	3	0	73	67	1	44.250000	177.000000
132750000	375000	6	3	53	70	1	44.250000	177.000000
132750000	20312	12	9	0	34	68	44.250000	177.000000
132750000	20312	12	9	0	39	62	44.250000	177.000000
132750000	20312	12	9	0	69	49	44.250000	177.000000
132757812	20313	12	9	0	42	127	44.252604	177.010417
132937500	187500	3	0	73	67	1	44.312500	177.250000
133125000	187500	3	0	73	67	1	44.375000	177.500000
133125000	750000	4	1	0	58	89	44.375000	177.500000
133125000	750000	4	1	0	62	89	44.375000	177.500000
133125000	187500	6	3	53	72	1	44.375000	177.500000
133125000	750000	7	4	35	34	127	44.375000	177.500000
133125000	750000	8	5	18	34	127	44.375000	177.500000
133125000	750000	9	6	32	34	127	44.375000	177.500000
133125000	20312	12	9	0	34	45	44.375000	177.500000
133125000	20312	12	9	0	69	29	44.375000	177.500000
133125000	750000	13	10	50	58	89	44.375000	177.500000
133125000	750000	13	10	50	62	89	44.375000	177.500000
133125000	750000	14	11	51	58	89	44.375000	177.500000
133125000	750000	14	11	51	62	89	44.375000	177.500000
133132812	20313	12	9	0	42	93	44.377604	177.510417
133312500	187500	3	0	73	69	1	44.437500	177.750000
133312500	375000	6	3	53	74	1	44.437500	177.750000
133500000	187500	3	0	73	67	1	44.500000	178.000000
133500000	20312	12	9	0	34	57	44.500000	178.000000
133500000	20312	12	9	0	69	49	44.500000	178.000000
133507812	20313	12	9	0	42	127	44.502604	178.010417
133515625	20312	12	9	0	33	127	44.505208	178.020833
133687500	187500	3	0	73	67	1	44.562500	178.250000
133687500	187500	6	3	53	72	1	44.562500	178.250000
133875000	187500	3	0	73	67	1	44.625000	178.500000
133875000	562500	4	1	0	58	89	44.625000	178.500000
133875000	562500	4	1	0	62	89	44.625000	178.500000
133875000	562500	7	4	35	34	127	44.625000	178.500000
133875000	562500	8	5	18	34	127	44.625000	178.500000
133875000	562500	9	6	32	34	127	44.625000	178.500000
133875000	20312	12	9	0	42	127	44.625000	178.500000
133875000	20312	12	9	0	69	29	44.625000	178.500000
133875000	562500	13	10	50	58	89	44.625000	178.500000
133875000	562500	13	10	50	62	89	44.625000	178.500000
133875000	562500	14	11	51	58	89	44.625000	178.500000
133875000	562500	14	11	51	62	89	44.625000	178.500000
134000000	20312	12	9	0	42	127	44.666667	178.666667
134015625	46875	12	9	0	38	89	44.671875	178.687500
134062500	187500	3	0	73	67	1	44.687500	178.750000
134109375	46875	12	9	0	38	89	44.703125	178.812500
134125000	20312	12	9	0	42	127	44.708333	178.833333
134250000	375000	3	0	73	67	1	44.750000	179.000000
134250000	20312	12	9	0	33	87	44.750000	179.000000
134250000	20312	12	9	0	34	36	44.750000	179.000000
134250000	46875	12	9	0	36	89	44.750000	179.000000
134250000	46875	12	9	0	38	89	44.750000	179.000000
134250000	20312	12	9	0	69	51	44.750000	179.000000
134265625	20312	12	9	0	42	127	44.755208	179.020833
134437500	562500	4	1	0	57	89	44.812500	179.250000
134437500	562500	4	1	0	60	89	44.812500	179.250000
134437500	562500	7	4	35	29	127	44.812500	179.250000
134437500	562500	8	5	18	29	127	44.812500	179.250000
134437500	562500	9	6	32	29	127	44.812500	179.250000
134437500	562500	13	10	50	57	89	44.812500	179.250000
134437500	562500	13	10	50	60	89	44.812500	179.250000
134437500	562500	14	11	51	57	89	44.812500	179.250000
134437500	562500	14	11	51	60	89	44.812500	179.250000
134625000	187500	3	0	73	67	1	44.875000	179.500000
134625000	187500	6	3	53	70	1	44.875000	179.500000
134625000	20312	12	9	0	34	45	44.875000	179.500000
134625000	46875	12	9	0	36	89	44.875000	179.500000
134625000	46875	12	9	0	37	89	44.875000	179.500000
134625000	20312	12	9	0	69	29	44.875000	179.500000
134632812	20313	12	9	0	42	93	44.877604	179.510417
134812500	187500	3	0	73	69	1	44.937500	179.750000
134812500	187500	6	3	53	67	1	44.937500	179.750000
135000000	187500	3	0	73	67	1	45.000000	180.000000
135000000	1125000	4	1	0	58	89	45.000000	180.000000
135000000	1125000	4	1	0	62	89	45.000000	180.000000
135000000	562500	6	3	53	70	89	45.000000	180.000000
135000000	1125000	7	4	35	31	127	45.000000	180.000000
135000000	1125000	8	5	18	31	127	45.000000	180.000000
135000000	1125000	9	6	32	31	127	45.000000	180.000000
135000000	20312	12	9	0	34	22	45.000000	180.000000
135000000	46875	12	9	0	36	89	45.000000	180.000000
135000000	20312	12	9	0	69	49	45.000000	180.000000
135000000	1125000	13	10	50	58	89	45.000000	180.000000
135000000	1125000	13	10	50	62	89	45.000000	180.000000
135000000	1125000	14	11	51	58	89	45.000000	180.000000
135000000	1125000	14	11	51	62	89	45.000000	180.000000
135007812	20313	12	9	0	42	127	45.002604	180.010417
135125000	20312	12	9	0	34	21	45.041667	180.166667
135187500	187500	3	0	73	67	1	45.062500	180.250000
135250000	20312	12	9	0	34	29	45.083333	180.333333
135375000	187500	3	0	73	67	1	45.125000	180.500000
135375000	20312	12	9	0	34	30	45.125000	180.500000
135375000	46875	12	9	0	36	89	45.125000	180.500000
135375000	20312	12	9	0	69	29	45.125000	180.500000
135382812	20313	12	9	0	42	93	45.127604	180.510417
135500000	20312	12	9	0	34	44	45.166667	180.666667
135562500	187500	3	0	73	67	1	45.187500	180.750000
135562500	187500	6	3	53	67	89	45.187500	180.750000
135625000	20312	12	9	0	34	49	45.208333	180.833333
135750000	187500	3	0	73	67	1	45.250000	181.000000
135750000	375000	6	3	53	70	1	45.250000	181.000000
135750000	20312	12	9	0	34	68	45.250000	181.000000
135750000	20312	12	9	0	39	62	45.250000	181.000000
135750000	20312	12	9	0	69	49	45.250000	181.000000
135757812	20313	12	9	0	42	127	45.252604	181.010417
135937500	187500	3	0	73	67	1	45.312500	181.250000
136125000	187500	3	0	73	67	1	45.375000	181.500000
136125000	750000	4	1	0	58	89	45.375000	181.500000
136125000	750000	4	1	0	62	89	45.375000	181.500000
136125000	187500	6	3	53	72	1	45.375000	181.500000
136125000	750000	7	4	35	34	127	45.375000	181.500000
136125000	750000	8	5	18	34	127	45.375000	181.500000
136125000	750000	9	6	32	34	127	45.375000	181.500000
136125000	20312	12	9	0	34	45	45.375000	181.500000
136125000	20312	12	9	0	69	29	45.375000	181.500000
136125000	750000	13	10	50	58	89	45.375000	181.500000
136125000	750000	13	10	50	62	89	45.375000	181.500000
136125000	750000	14	11	51	58	89	45.375000	181.500000
136125000	750000	14	11	51	62	89	45.375000	181.500000
136132812	20313	12	9	0	42	93	45.377604	181.510417
136312500	375000	3	0	73	69	1	45.437500	181.750000
136312500	375000	6	3	53	74	1	45.437500	181.750000
136500000	20312	12	9	0	34	57	45.500000	182.000000
136500000	20312	12	9	0	69	49	45.500000	182.000000
136507812	20313	12	9	0	42	127	45.502604	182.010417
136515625	20312	12	9	0	33	127	45.505208	182.020833
136687500	187500	3	0	73	67	1	45.562500	182.250000
136687500	187500	6	3	53	72	1	45.562500	182.250000
136875000	187500	3	0	73	67	1	45.625000	182.500000
136875000	562500	4	1	0	58	89	45.625000	182.500000
136875000	562500	4	1	0	62	89	45.625000	182.500000
136875000	562500	7	4	35	34	127	45.625000	182.500000
136875000	562500	8	5	18	34	127	45.625000	182.500000
136875000	562500	9	6	32	34	127	45.625000	182.500000
136875000	20312	12	9	0	42	127	45.625000	182.500000
136875000	20312	12	9	0	69	29	45.625000	182.500000
136875000	562500	13	10	50	58	89	45.625000	182.500000
136875000	562500	13	10	50	62	89	45.625000	182.500000
136875000	562500	14	11	51	58	89	45.625000	182.500000
136875000	562500	14	11	51	62	89	45.625000	182.500000
137000000	20312	12	9	0	42	127	45.666667	182.666667
137015625	46875	12	9	0	38	89	45.671875	182.687500
137062500	187500	3	0	73	67	1	45.687500	182.750000
137109375	46875	12	9	0	38	89	45.703125	182.812500
137125000	20312	12	9	0	42	127	45.708333	182.833333
137250000	187500	3	0	73	67	1	45.750000	183.000000
137250000	20312	12	9	0	33	87	45.750000	183.000000
137250000	20312	12	9	0	34	36	45.750000	183.000000
137250000	46875	12	9	0	36	89	45.750000	183.000000
137250000	46875	12	9	0	38	89	45.750000	183.000000
137250000	20312	12	9	0	69	51	45.750000	183.000000
137265625	20312	12	9	0	42	127	45.755208	183.020833
137437500	187500	3	0	73	67	1	45.812500	183.250000
137437500	562500	4	1	0	57	89	45.812500	183.250000
137437500	562500	4	1	0	60	89	45.812500	183.250000
137437500	562500	7	4	35	29	127	45.812500	183.250000
137437500	562500	8	5	18	29	127	45.812500	183.250000
137437500	562500	9	6	32	29	127	45.812500	183.250000
137437500	562500	13	10	50	57	89	45.812500	183.250000
137437500	562500	13	10	50	60	89	45.812500	183.250000
137437500	562500	14	11	51	57	89	45.812500	183.250000
137437500	562500	14	11	51	60	89	45.812500	183.250000
137625000	187500	3	0	73	67	1	45.875000	183.500000
137625000	187500	6	3	53	70	1	45.875000	183.500000
137625000	20312	12	9	0	34	45	45.875000	183.500000
137625000	46875	12	9	0	36	89	45.875000	183.500000
137625000	46875	12	9	0	37	89	45.875000	183.500000
137625000	20312	12	9	0	69	29	45.875000	183.500000
137632812	20313	12	9	0	42	93	45.877604	183.510417
137812500	375000	3	0	73	69	1	45.937500	183.750000
137812500	187500	6	3	53	67	1	45.937500	183.750000
138000000	1125000	4	1	0	58	89	46.000000	184.000000
138000000	1125000	4	1	0	62	89	46.000000	184.000000
138000000	562500	6	3	53	70	89	46.000000	184.000000
138000000	1125000	7	4	35	27	127	46.000000	184.000000
138000000	1125000	8	5	18	27	127	46.000000	184.000000
138000000	1125000	9	6	32	27	127	46.000000	184.000000
138000000	20312	12	9	0	34	22	46.000000	184.000000
138000000	46875	12	9	0	36	89	46.000000	184.000000
138000000	20312	12	9	0	69	49	46.000000	184.000000
138000000	1125000	13	10	50	58	89	46.000000	184.000000
138000000	1125000	13	10	50	62	89	46.000000	184.000000
138000000	1125000	14	11	51	58	89	46.000000	184.000000
138000000	1125000	14	11	51	62	89	46.000000	184.000000
138007812	20313	12	9	0	42	127	46.002604	184.010417
138125000	20312	12	9	0	34	21	46.041667	184.166667
138187500	187500	3	0	73	67	1	46.062500	184.250000
138250000	20312	12	9	0	34	29	46.083333	184.333333
138375000	187500	3	0	73	67	1	46.125000	184.500000
138375000	20312	12	9	0	34	30	46.125000	184.500000
138375000	46875	12	9	0	36	89	46.125000	184.500000
138375000	20312	12	9	0	69	29	46.125000	184.500000
138382812	20313	12	9	0	42	93	46.127604	184.510417
138500000	20312	12	9	0	34	44	46.166667	184.666667
138562500	187500	3	0	73	67	1	46.187500	184.750000
138562500	187500	6	3	53	67	89	46.187500	184.750000
138625000	20312	12	9	0	34	49	46.208333	184.833333
138750000	187500	3	0	73	67	1	46.250000	185.000000
138750000	375000	6	3	53	70	1	46.250000	185.000000
138750000	20312	12	9	0	34	68	46.250000	185.000000
138750000	20312	12	9	0	39	62	46.250000	185.000000
138750000	20312	12	9	0	69	49	46.250000	185.000000
138757812	20313	12	9	0	42	127	46.252604	185.010417
138937500	187500	3	0	73	67	1	46.312500	185.250000
139125000	187500	3	0	73	67	1	46.375000	185.500000
139125000	750000	4	1	0	58	89	46.375000	185.500000
139125000	750000	4	1	0	62	89	46.375000	185.500000
139125000	187500	6	3	53	72	1	46.375000	185.500000
139125000	750000	7	4	35	34	127	46.375000	185.500000
139125000	750000	8	5	18	34	127	46.375000	185.500000
139125000	750000	9	6	32	34	127	46.375000	185.500000
139125000	20312	12	9	0	34	45	46.375000	185.500000
139125000	20312	12	9	0	69	29	46.375000	185.500000
139125000	750000	13	10	50	58	89	46.375000	185.500000
139125000	750000	13	10	50	62	89	46.375000	185.500000
139125000	750000	14	11	51	58	89	46.375000	185.500000
139125000	750000	14	11	51	62	89	46.375000	185.500000
139132812	20313	12	9	0	42	93	46.377604	185.510417
139312500	187500	3	0	73	69	1	46.437500	185.750000
139312500	562500	6	3	53	70	1	46.437500	185.750000
139500000	187500	3	0	73	67	1	46.500000	186.000000
139500000	20312	12	9	0	34	57	46.500000	186.000000
139500000	20312	12	9	0	69	49	46.500000	186.000000
139507812	20313	12	9	0	42	127	46.502604	186.010417
139515625	20312	12	9	0	33	127	46.505208	186.020833
139687500	187500	3	0	73	67	1	46.562500	186.250000
139875000	187500	3	0	73	67	1	46.625000	186.500000
139875000	375000	4	1	0	58	89	46.625000	186.500000
139875000	375000	4	1	0	62	89	46.625000	186.500000
139875000	375000	7	4	35	34	127	46.625000	186.500000
139875000	375000	8	5	18	34	127	46.625000	186.500000
139875000	375000	9	6	32	34	127	46.625000	186.500000
139875000	20312	12	9	0	42	127	46.625000	186.500000
139875000	20312	12	9	0	69	29	46.625000	186.500000
139875000	375000	13	10	50	58	89	46.625000	186.500000
139875000	375000	13	10	50	62	89	46.625000	186.500000
139875000	375000	14	11	51	58	89	46.625000	186.500000
139875000	375000	14	11	51	62	89	46.625000	186.500000
140000000	20312	12	9	0	42	127	46.666667	186.666667
140015625	46875	12	9	0	38	89	46.671875	186.687500
140062500	187500	3	0	73	67	1	46.687500	186.750000
140109375	46875	12	9	0	38	89	46.703125	186.812500
140125000	20312	12	9	0	42	127	46.708333	186.833333
140250000	750000	3	0	73	67	1	46.750000	187.000000
140250000	20312	12	9	0	33	87	46.750000	187.000000
140250000	20312	12	9	0	34	36	46.750000	187.000000
140250000	46875	12	9	0	36	89	46.750000	187.000000
140250000	46875	12	9	0	38	89	46.750000	187.000000
140250000	20312	12	9	0	69	51	46.750000	187.000000
140265625	20312	12	9	0	42	127	46.755208	187.020833
140625000	20312	12	9	0	34	45	46.875000	187.500000
140625000	46875	12	9	0	36	89	46.875000	187.500000
140625000	46875	12	9	0	37	89	46.875000	187.500000
140625000	20312	12	9	0	69	29	46.875000	187.500000
140632812	20313	12	9	0	42	93	46.877604	187.510417
141000000	1125000	4	1	0	62	89	47.000000	188.000000
141000000	1125000	4	1	0	65	89	47.000000	188.000000
141000000	1125000	4	1	0	70	89	47.000000	188.000000
141000000	1125000	7	4	35	31	127	47.000000	188.000000
141000000	1125000	8	5	18	31	127	47.000000	188.000000
141000000	1125000	9	6	32	31	127	47.000000	188.000000
141000000	20312	12	9	0	34	22	47.000000	188.000000
141000000	46875	12	9	0	36	89	47.000000	188.000000
141000000	20312	12	9	0	69	49	47.000000	188.000000
141007812	20313	12	9	0	42	127	47.002604	188.010417
141125000	20312	12	9	0	34	21	47.041667	188.166667
141187500	187500	3	0	73	69	1	47.062500	188.250000
141250000	20312	12	9	0	34	29	47.083333	188.333333
141375000	187500	3	0	73	67	1	47.125000	188.500000
141375000	20312	12	9	0	34	30	47.125000	188.500000
141375000	46875	12	9	0	36	89	47.125000	188.500000
141375000	20312	12	9	0	69	29	47.125000	188.500000
141382812	20313	12	9	0	42	93	47.127604	188.510417
141500000	20312	12	9	0	34	44	47.166667	188.666667
141562500	187500	3	0	73	67	1	47.187500	188.750000
141625000	20312	12	9	0	34	49	47.208333	188.833333
141750000	187500	3	0	73	67	1	47.250000	189.000000
141750000	20312	12	9	0	34	68	47.250000	189.000000
141750000	20312	12	9	0	39	62	47.250000	189.000000
141750000	20312	12	9	0	69	49	47.250000	189.000000
141757812	20313	12	9	0	42	127	47.252604	189.010417
141937500	187500	3	0	73	67	1	47.312500	189.250000
142125000	187500	3	0	73	67	1	47.375000	189.500000
142125000	750000	4	1	0	65	89	47.375000	189.500000
142125000	750000	4	1	0	70	89	47.375000	189.500000
142125000	750000	4	1	0	74	89	47.375000	189.500000
142125000	750000	7	4	35	34	127	47.375000	189.500000
142125000	750000	8	5	18	34	127	47.375000	189.500000
142125000	750000	9	6	32	34	127	47.375000	189.500000
142125000	20312	12	9	0	34	45	47.375000	189.500000
142125000	20312	12	9	0	69	29	47.375000	189.500000
142132812	20313	12	9	0	42	93	47.377604	189.510417
142312500	750000	3	0	73	67	1	47.437500	189.750000
142500000	20312	12	9	0	34	57	47.500000	190.000000
142500000	20312	12	9	0	69	49	47.500000	190.000000
142507812	20313	12	9	0	42	127	47.502604	190.010417
142515625	20312	12	9	0	33	127	47.505208	190.020833
142875000	562500	4	1	0	65	89	47.625000	190.500000
142875000	562500	4	1	0	70	89	47.625000	190.500000
142875000	562500	4	1	0	74	89	47.625000	190.500000
142875000	562500	7	4	35	34	127	47.625000	190.500000
142875000	562500	8	5	18	34	127	47.625000	190.500000
142875000	562500	9	6	32	34	127	47.625000	190.500000
142875000	20312	12	9	0	42	127	47.625000	190.500000
142875000	20312	12	9	0	69	29	47.625000	190.500000
143000000	20312	12	9	0	42	127	47.666667	190.666667
143015625	46875	12	9	0	38	89	47.671875	190.687500
143109375	46875	12	9	0	38	89	47.703125	190.812500
143125000	20312	12	9	0	42	127	47.708333	190.833333
143250000	187500	3	0	73	70	1	47.750000	191.000000
143250000	20312	12	9	0	33	87	47.750000	191.000000
143250000	20312	12	9	0	34	36	47.750000	191.000000
143250000	46875	12	9	0	36	89	47.750000	191.000000
143250000	46875	12	9	0	38	89	47.750000	191.000000
143250000	20312	12	9	0	69	51	47.750000	191.000000
143265625	20312	12	9	0	42	127	47.755208	191.020833
143437500	187500	3	0	73	70	1	47.812500	191.250000
143437500	562500	4	1	0	65	89	47.812500	191.250000
143437500	562500	4	1	0	69	89	47.812500	191.250000
143437500	562500	4	1	0	72	89	47.812500	191.250000
143437500	562500	7	4	35	29	127	47.812500	191.250000
143437500	562500	8	5	18	29	127	47.812500	191.250000
143437500	562500	9	6	32	29	127	47.812500	191.250000
143625000	187500	3	0	73	70	1	47.875000	191.500000
143625000	20312	12	9	0	34	45	47.875000	191.500000
143625000	46875	12	9	0	36	89	47.875000	191.500000
143625000	46875	12	9	0	37	89	47.875000	191.500000
143625000	20312	12	9	0	69	29	47.875000	191.500000
143632812	20313	12	9	0	42	93	47.877604	191.510417
143812500	375000	3	0	73	74	1	47.937500	191.750000
144000000	1125000	4	1	0	62	89	48.000000	192.000000
144000000	1125000	4	1	0	65	89	48.000000	192.000000
144000000	1125000	4	1	0	70	89	48.000000	192.000000
144000000	1125000	7	4	35	27	127	48.000000	192.000000
144000000	1125000	8	5	18	27	127	48.000000	192.000000
144000000	1125000	9	6	32	27	127	48.000000	192.000000
144000000	20312	12	9	0	34	22	48.000000	192.000000
144000000	46875	12	9	0	36	89	48.000000	192.000000
144000000	20312	12	9	0	69	49	48.000000	192.000000
144007812	20313	12	9	0	42	127	48.002604	192.010417
144125000	20312	12	9	0	34	21	48.041667	192.166667
144187500	187500	3	0	73	70	1	48.062500	192.250000
144250000	20312	12	9	0	34	29	48.083333	192.333333
144375000	187500	3	0	73	70	1	48.125000	192.500000
144375000	20312	12	9	0	34	30	48.125000	192.500000
144375000	46875	12	9	0	36	89	48.125000	192.500000
144375000	20312	12	9	0	69	29	48.125000	192.500000
144382812	20313	12	9	0	42	93	48.127604	192.510417
144500000	20312	12	9	0	34	44	48.166667	192.666667
144562500	187500	3	0	73	70	1	48.187500	192.750000
144625000	20312	12	9	0	34	49	48.208333	192.833333
144750000	187500	3	0	73	70	1	48.250000	193.000000
144750000	20312	12	9	0	34	68	48.250000	193.000000
144750000	20312	12	9	0	39	62	48.250000	193.000000
144750000	20312	12	9	0	69	49	48.250000	193.000000
144757812	20313	12	9	0	42	127	48.252604	193.010417
144937500	187500	3	0	73	70	1	48.312500	193.250000
145125000	187500	3	0	73	70	1	48.375000	193.500000
145125000	750000	4	1	0	65	89	48.375000	193.500000
145125000	750000	4	1	0	70	89	48.375000	193.500000
145125000	750000	4	1	0	74	89	48.375000	193.500000
145125000	750000	7	4	35	34	127	48.375000	193.500000
145125000	750000	8	5	18	34	127	48.375000	193.500000
145125000	750000	9	6	32	34	127	48.375000	193.500000
145125000	20312	12	9	0	34	45	48.375000	193.500000
145125000	20312	12	9	0	69	29	48.375000	193.500000
145132812	20313	12	9	0	42	93	48.377604	193.510417
145312500	187500	3	0	73	70	1	48.437500	193.750000
145500000	187500	3	0	73	70	1	48.500000	194.000000
145500000	20312	12	9	0	34	57	48.500000	194.000000
145500000	20312	12	9	0	69	49	48.500000	194.000000
145507812	20313	12	9	0	42	127	48.502604	194.010417
145515625	20312	12	9	0	33	127	48.505208	194.020833
145687500	187500	3	0	73	70	1	48.562500	194.250000
145875000	187500	3	0	73	70	1	48.625000	194.500000
145875000	562500	4	1	0	65	89	48.625000	194.500000
145875000	562500	4	1	0	70	89	48.625000	194.500000
145875000	562500	4	1	0	74	89	48.625000	194.500000
145875000	562500	7	4	35	34	127	48.625000	194.500000
145875000	562500	8	5	18	34	127	48.625000	194.500000
145875000	562500	9	6	32	34	127	48.625000	194.500000
145875000	20312	12	9	0	42	127	48.625000	194.500000
145875000	20312	12	9	0	69	29	48.625000	194.500000
146000000	20312	12	9	0	42	127	48.666667	194.666667
146015625	46875	12	9	0	38	89	48.671875	194.687500
146062500	187500	3	0	73	70	1	48.687500	194.750000
146109375	46875	12	9	0	38	89	48.703125	194.812500
146125000	20312	12	9	0	42	127	48.708333	194.833333
146250000	375000	3	0	73	67	1	48.750000	195.000000
146250000	20312	12	9	0	33	87	48.750000	195.000000
146250000	20312	12	9	0	34	36	48.750000	195.000000
146250000	46875	12	9	0	36	89	48.750000	195.000000
146250000	46875	12	9	0	38	89	48.750000	195.000000
146250000	20312	12	9	0	69	51	48.750000	195.000000
146265625	20312	12	9	0	42	127	48.755208	195.020833
146437500	562500	4	1	0	65	89	48.812500	195.250000
146437500	562500	4	1	0	69	89	48.812500	195.250000
146437500	562500	4	1	0	72	89	48.812500	195.250000
146437500	562500	7	4	35	29	127	48.812500	195.250000
146437500	562500	8	5	18	29	127	48.812500	195.250000
146437500	562500	9	6	32	29	127	48.812500	195.250000
146625000	20312	12	9	0	34	45	48.875000	195.500000
146625000	46875	12	9	0	36	89	48.875000	195.500000
146625000	46875	12	9	0	37	89	48.875000	195.500000
146625000	20312	12	9	0	69	29	48.875000	195.500000
146632812	20313	12	9	0	42	93	48.877604	195.510417
146812500	187500	3	0	73	74	1	48.937500	195.750000
147000000	187500	3	0	73	70	1	49.000000	196.000000
147000000	1125000	4	1	0	62	89	49.000000	196.000000
147000000	1125000	4	1	0	65	89	49.000000	196.000000
147000000	1125000	4	1	0	70	89	49.000000	196.000000
147000000	1125000	7	4	35	31	127	49.000000	196.000000
147000000	1125000	8	5	18	31	127	49.000000	196.000000
147000000	1125000	9	6	32	31	127	49.000000	196.000000
147000000	20312	12	9	0	34	22	49.000000	196.000000
147000000	46875	12	9	0	36	89	49.000000	196.000000
147000000	20312	12	9	0	69	49	49.000000	196.000000
147007812	20313	12	9	0	42	127	49.002604	196.010417
147125000	20312	12	9	0	34	21	49.041667	196.166667
147187500	187500	3	0	73	70	1	49.062500	196.250000
147250000	20312	12	9	0	34	29	49.083333	196.333333
147375000	187500	3	0	73	70	1	49.125000	196.500000
147375000	20312	12	9	0	34	30	49.125000	196.500000
147375000	46875	12	9	0	36	89	49.125000	196.500000
147375000	20312	12	9	0	69	29	49.125000	196.500000
147382812	20313	12	9	0	42	93	49.127604	196.510417
147500000	20312	12	9	0	34	44	49.166667	196.666667
147562500	187500	3	0	73	70	1	49.187500	196.750000
147625000	20312	12	9	0	34	49	49.208333	196.833333
147750000	187500	3	0	73	70	1	49.250000	197.000000
147750000	20312	12	9	0	34	68	49.250000	197.000000
147750000	20312	12	9	0	39	62	49.250000	197.000000
147750000	20312	12	9	0	69	49	49.250000	197.000000
147757812	20313	12	9	0	42	127	49.252604	197.010417
147937500	187500	3	0	73	70	1	49.312500	197.250000
148125000	187500	3	0	73	70	1	49.375000	197.500000
148125000	750000	4	1	0	65	89	49.375000	197.500000
148125000	750000	4	1	0	70	89	49.375000	197.500000
148125000	750000	4	1	0	74	89	49.375000	197.500000
148125000	750000	7	4	35	34	127	49.375000	197.500000
148125000	750000	8	5	18	34	127	49.375000	197.500000
148125000	750000	9	6	32	34	127	49.375000	197.500000
148125000	20312	12	9	0	34	45	49.375000	197.500000
148125000	20312	12	9	0	69	29	49.375000	197.500000
148132812	20313	12	9	0	42	93	49.377604	197.510417
148312500	187500	3	0	73	70	1	49.437500	197.750000
148500000	187500	3	0	73	70	1	49.500000	198.000000
148500000	20312	12	9	0	34	57	49.500000	198.000000
148500000	20312	12	9	0	69	49	49.500000	198.000000
148507812	20313	12	9	0	42	127	49.502604	198.010417
148515625	20312	12	9	0	33	127	49.505208	198.020833
148687500	187500	3	0	73	70	1	49.562500	198.250000
148875000	187500	3	0	73	70	1	49.625000	198.500000
148875000	562500	4	1	0	65	89	49.625000	198.500000
148875000	562500	4	1	0	70	89	49.625000	198.500000
148875000	562500	4	1	0	74	89	49.625000	198.500000
148875000	562500	7	4	35	34	127	49.625000	198.500000
148875000	562500	8	5	18	34	127	49.625000	198.500000
148875000	562500	9	6	32	34	127	49.625000	198.500000
148875000	20312	12	9	0	42	127	49.625000	198.500000
148875000	20312	12	9	0	69	29	49.625000	198.500000
149000000	20312	12	9	0	42	127	49.666667	198.666667
149015625	46875	12	9	0	38	89	49.671875	198.687500
149062500	187500	3	0	73	70	1	49.687500	198.750000
149109375	46875	12	9	0	38	89	49.703125	198.812500
149125000	20312	12	9	0	42	127	49.708333	198.833333
149250000	375000	3	0	73	67	1	49.750000	199.000000
149250000	20312	12	9	0	33	87	49.750000	199.000000
149250000	20312	12	9	0	34	36	49.750000	199.000000
149250000	46875	12	9	0	36	89	49.750000	199.000000
149250000	46875	12	9	0	38	89	49.750000	199.000000
149250000	20312	12	9	0	69	51	49.750000	199.000000
149265625	20312	12	9	0	42	127	49.755208	199.020833
149437500	562500	4	1	0	65	89	49.812500	199.250000
149437500	562500	4	1	0	69	89	49.812500	199.250000
149437500	562500	4	1	0	72	89	49.812500	199.250000
149437500	562500	7	4	35	29	127	49.812500	199.250000
149437500	562500	8	5	18	29	127	49.812500	199.250000
149437500	562500	9	6	32	29	127	49.812500	199.250000
149625000	20312	12	9	0	34	45	49.875000	199.500000
149625000	46875	12	9	0	36	89	49.875000	199.500000
149625000	46875	12	9	0	37	89	49.875000	199.500000
149625000	20312	12	9	0	69	29	49.875000	199.500000
149632812	20313	12	9	0	42	93	49.877604	199.510417
149812500	187500	3	0	73	67	1	49.937500	199.750000
150000000	187500	3	0	73	74	1	50.000000	200.000000
150000000	1125000	4	1	0	62	89	50.000000	200.000000
150000000	1125000	4	1	0	65	89	50.000000	200.000000
150000000	1125000	4	1	0	70	89	50.000000	200.000000
150000000	1125000	7	4	35	27	127	50.000000	200.000000
150000000	1125000	8	5	18	27	127	50.000000	200.000000
150000000	1125000	9	6	32	27	127	50.000000	200.000000
150000000	20312	12	9	0	34	22	50.000000	200.000000
150000000	46875	12	9	0	36	89	50.000000	200.000000
150000000	20312	12	9	0	69	49	50.000000	200.000000
150007812	20313	12	9	0	42	127	50.002604	200.010417
150125000	20312	12	9	0	34	21	50.041667	200.166667
150187500	187500	3	0	73	70	1	50.062500	200.250000
150250000	20312	12	9	0	34	29	50.083333	200.333333
150375000	93750	3	0	73	70	1	50.125000	200.500000
150375000	20312	12	9	0	34	30	50.125000	200.500000
150375000	46875	12	9	0	36	89	50.125000	200.500000
150375000	20312	12	9	0	69	29	50.125000	200.500000
150382812	20313	12	9	0	42	93	50.127604	200.510417
150468750	93750	3	0	73	70	1	50.156250	200.625000
150500000	20312	12	9	0	34	44	50.166667	200.666667
150562500	187500	3	0	73	70	1	50.187500	200.750000
150625000	20312	12	9	0	34	49	50.208333	200.833333
150750000	187500	3	0	73	70	1	50.250000	201.000000
150750000	20312	12	9	0	34	68	50.250000	201.000000
150750000	20312	12	9	0	39	62	50.250000	201.000000
150750000	20312	12	9	0	69	49	50.250000	201.000000
150757812	20313	12	9	0	42	127	50.252604	201.010417
150937500	187500	3	0	73	70	1	50.312500	201.250000
151125000	187500	3	0	73	70	1	50.375000	201.500000
151125000	750000	4	1	0	65	89	50.375000	201.500000
151125000	750000	4	1	0	70	89	50.375000	201.500000
151125000	750000	4	1	0	74	89	50.375000	201.500000
151125000	750000	7	4	35	34	127	50.375000	201.500000
151125000	750000	8	5	18	34	127	50.375000	201.500000
151125000	750000	9	6	32	34	127	50.375000	201.500000
151125000	20312	12	9	0	34	45	50.375000	201.500000
151125000	20312	12	9	0	69	29	50.375000	201.500000
151132812	20313	12	9	0	42	93	50.377604	201.510417
151312500	187500	3	0	73	70	1	50.437500	201.750000
151500000	375000	3	0	73	70	1	50.500000	202.000000
151500000	20312	12	9	0	34	57	50.500000	202.000000
151500000	20312	12	9	0	69	49	50.500000	202.000000
151507812	20313	12	9	0	42	127	50.502604	202.010417
151515625	20312	12	9	0	33	127	50.505208	202.020833
151875000	375000	3	0	73	70	89	50.625000	202.500000
151875000	375000	4	1	0	65	89	50.625000	202.500000
151875000	375000	4	1	0	70	89	50.625000	202.500000
151875000	375000	4	1	0	74	89	50.625000	202.500000
151875000	375000	7	4	35	34	127	50.625000	202.500000
151875000	375000	8	5	18	34	127	50.625000	202.500000
151875000	375000	9	6	32	34	127	50.625000	202.500000
151875000	20312	12	9	0	42	127	50.625000	202.500000
151875000	20312	12	9	0	69	29	50.625000	202.500000
152000000	20312	12	9	0	42	127	50.666667	202.666667
152015625	46875	12	9	0	38	89	50.671875	202.687500
152109375	46875	12	9	0	38	89	50.703125	202.812500
152125000	20312	12	9	0	42	127	50.708333	202.833333
152250000	375000	3	0	73	74	89	50.750000	203.000000
152250000	20312	12	9	0	33	87	50.750000	203.000000
152250000	20312	12	9	0	34	36	50.750000	203.000000
152250000	46875	12	9	0	36	89	50.750000	203.000000
152250000	46875	12	9	0	38	89	50.750000	203.000000
152250000	20312	12	9	0	69	51	50.750000	203.000000
152265625	20312	12	9	0	42	127	50.755208	203.020833
152625000	375000	3	0	73	77	89	50.875000	203.500000
152625000	20312	12	9	0	34	45	50.875000	203.500000
152625000	46875	12	9	0	36	89	50.875000	203.500000
152625000	46875	12	9	0	37	89	50.875000	203.500000
152625000	20312	12	9	0	69	29	50.875000	203.500000
152632812	20313	12	9	0	42	93	50.877604	203.510417
153000000	750000	3	0	73	79	89	51.000000	204.000000
153000000	1500000	4	1	0	55	89	51.000000	204.000000
153000000	1500000	4	1	0	58	89	51.000000	204.000000
153000000	1500000	4	1	0	63	89	51.000000	204.000000
153000000	562500	11	8	32	36	89	51.000000	204.000000
153000000	20312	12	9	0	64	76	51.000000	204.000000
153562500	1312500	11	8	32	36	89	51.187500	204.750000
153750000	375000	3	0	73	77	89	51.250000	205.000000
153750000	20312	12	9	0	63	109	51.250000	205.000000
154125000	1125000	3	0	73	77	89	51.375000	205.500000
154500000	1125000	4	1	0	53	89	51.500000	206.000000
154500000	1125000	4	1	0	58	89	51.500000	206.000000
154500000	1125000	4	1	0	62	89	51.500000	206.000000
154500000	20312	12	9	0	64	70	51.500000	206.000000
154875000	1125000	11	8	32	34	89	51.625000	206.500000
154875000	20312	12	9	0	64	83	51.625000	206.500000
155250000	375000	3	0	73	70	89	51.750000	207.000000
155250000	20312	12	9	0	63	116	51.750000	207.000000
155625000	750000	3	0	73	72	89	51.875000	207.500000
155625000	3375000	4	1	0	53	89	51.875000	207.500000
155625000	3375000	4	1	0	58	89	51.875000	207.500000
155625000	3375000	4	1	0	60	89	51.875000	207.500000
156000000	562500	11	8	32	41	89	52.000000	208.000000
156000000	20312	12	9	0	64	76	52.000000	208.000000
156375000	375000	3	0	73	74	89	52.125000	208.500000
156562500	1125000	11	8	32	41	89	52.187500	208.750000
156750000	20312	12	9	0	63	109	52.250000	209.000000
157500000	20312	12	9	0	64	70	52.500000	210.000000
157687500	187500	11	8	32	41	89	52.562500	210.250000
157875000	375000	3	0	73	70	89	52.625000	210.500000
157875000	750000	11	8	32	41	89	52.625000	210.500000
157875000	20312	12	9	0	64	83	52.625000	210.500000
158250000	20312	12	9	0	63	116	52.750000	211.000000
158625000	375000	11	8	32	41	89	52.875000	211.500000
159000000	750000	4	1	0	55	89	53.000000	212.000000
159000000	750000	4	1	0	58	89	53.000000	212.000000
159000000	750000	4	1	0	65	89	53.000000	212.000000
159000000	562500	11	8	32	36	89	53.000000	212.000000
159000000	20312	12	9	0	64	76	53.000000	212.000000
159375000	375000	3	0	73	79	89	53.125000	212.500000
159562500	1312500	11	8	32	36	89	53.187500	212.750000
159750000	375000	3	0	73	79	89	53.250000	213.000000
159750000	375000	4	1	0	63	89	53.250000	213.000000
159750000	20312	12	9	0	63	109	53.250000	213.000000
160125000	187500	3	0	73	79	89	53.375000	213.500000
160125000	375000	4	1	0	65	89	53.375000	213.500000
160312500	187500	3	0	73	81	89	53.437500	213.750000
160500000	375000	3	0	73	79	89	53.500000	214.000000
160500000	375000	4	1	0	58	89	53.500000	214.000000
160500000	375000	4	1	0	62	89	53.500000	214.000000
160500000	20312	12	9	0	64	70	53.500000	214.000000
160875000	375000	3	0	73	77	89	53.625000	214.500000
160875000	375000	4	1	0	53	89	53.625000	214.500000
160875000	1125000	11	8	32	34	89	53.625000	214.500000
160875000	20312	12	9	0	64	83	53.625000	214.500000
161250000	187500	3	0	73	77	89	53.750000	215.000000
161250000	375000	4	1	0	58	89	53.750000	215.000000
161250000	20312	12	9	0	63	116	53.750000	215.000000
161437500	187500	3	0	73	74	89	53.812500	215.250000
161625000	187500	3	0	73	74	89	53.875000	215.500000
161625000	375000	4	1	0	65	89	53.875000	215.500000
161812500	562500	3	0	73	77	89	53.937500	215.750000
162000000	2250000	4	1	0	53	89	54.000000	216.000000
162000000	2250000	4	1	0	58	89	54.000000	216.000000
162000000	2250000	4	1	0	60	89	54.000000	216.000000
162000000	562500	11	8	32	41	89	54.000000	216.000000
162000000	20312	12	9	0	64	76	54.000000	216.000000
162375000	375000	3	0	73	79	89	54.125000	216.500000
162562500	1125000	11	8	32	41	89	54.187500	216.750000
162750000	20312	12	9	0	63	109	54.250000	217.000000
163500000	20312	12	9	0	64	70	54.500000	218.000000
163687500	187500	11	8	32	41	89	54.562500	218.250000
163875000	375000	11	8	32	41	89	54.625000	218.500000
163875000	20312	12	9	0	64	83	54.625000	218.500000
164250000	750000	4	1	0	53	89	54.750000	219.000000
164250000	750000	4	1	0	58	89	54.750000	219.000000
164250000	750000	4	1	0	62	89	54.750000	219.000000
164250000	375000	11	8	32	43	89	54.750000	219.000000
164250000	20312	12	9	0	63	116	54.750000	219.000000
164437500	187500	3	0	73	72	89	54.812500	219.250000
164625000	187500	3	0	73	74	89	54.875000	219.500000
164625000	375000	11	8	32	43	89	54.875000	219.500000
164812500	187500	3	0	73	74	89	54.937500	219.750000
165000000	375000	3	0	73	75	89	55.000000	220.000000
165000000	1125000	4	1	0	55	89	55.000000	220.000000
165000000	1125000	4	1	0	58	89	55.000000	220.000000
165000000	1125000	4	1	0	63	89	55.000000	220.000000
165000000	562500	11	8	32	36	89	55.000000	220.000000
165000000	20312	12	9	0	64	76	55.000000	220.000000
165375000	375000	3	0	73	84	89	55.125000	220.500000
165562500	1312500	11	8	32	36	89	55.187500	220.750000
165750000	562500	3	0	73	82	89	55.250000	221.000000
165750000	20312	12	9	0	63	109	55.250000	221.000000
166125000	1875000	4	1	0	53	89	55.375000	221.500000
166125000	1875000	4	1	0	58	89	55.375000	221.500000
166125000	1875000	4	1	0	62	89	55.375000	221.500000
166312500	187500	3	0	73	79	89	55.437500	221.750000
166500000	20312	12	9	0	64	70	55.500000	222.000000
166875000	1125000	11	8	32	34	89	55.625000	222.500000
166875000	20312	12	9	0	64	83	55.625000	222.500000
167250000	20312	12	9	0	63	116	55.750000	223.000000
167812500	187500	3	0	73	70	89	55.937500	223.750000
168000000	187500	3	0	73	84	89	56.000000	224.000000
168000000	750000	4	1	0	53	89	56.000000	224.000000
168000000	750000	4	1	0	58	89	56.000000	224.000000
168000000	750000	4	1	0	62	89	56.000000	224.000000
168000000	750000	11	8	32	46	89	56.000000	224.000000
168000000	20312	12	9	0	64	76	56.000000	224.000000
168187500	187500	3	0	73	86	89	56.062500	224.250000
168375000	375000	3	0	73	84	89	56.125000	224.500000
168750000	187500	3	0	73	84	89	56.250000	225.000000
168750000	750000	4	1	0	53	89	56.250000	225.000000
168750000	750000	4	1	0	57	89	56.250000	225.000000
168750000	750000	4	1	0	60	89	56.250000	225.000000
168750000	750000	11	8	32	45	89	56.250000	225.000000
168750000	20312	12	9	0	63	109	56.250000	225.000000
168937500	187500	3	0	73	86	89	56.312500	225.250000
169125000	375000	3	0	73	84	89	56.375000	225.500000
169500000	750000	3	0	73	82	89	56.500000	226.000000
169500000	750000	4	1	0	58	89	56.500000	226.000000
169500000	750000	4	1	0	62	89	56.500000	226.000000
169500000	750000	4	1	0	65	89	56.500000	226.000000
169500000	750000	11	8	32	43	89	56.500000	226.000000
169500000	20312	12	9	0	64	70	56.500000	226.000000
169875000	20312	12	9	0	64	83	56.625000	226.500000
170250000	187500	3	0	73	81	89	56.750000	227.000000
170250000	750000	4	1	0	57	89	56.750000	227.000000
170250000	750000	4	1	0	60	89	56.750000	227.000000
170250000	750000	4	1	0	65	89	56.750000	227.000000
170250000	750000	11	8	32	41	89	56.750000	227.000000
170250000	20312	12	9	0	63	116	56.750000	227.000000
170437500	187500	3	0	73	82	89	56.812500	227.250000
170625000	375000	3	0	73	81	89	56.875000	227.500000
171000000	750000	3	0	73	79	89	57.000000	228.000000
171000000	2250000	4	1	0	55	89	57.000000	228.000000
171000000	2250000	4	1	0	58	89	57.000000	228.000000
171000000	2250000	4	1	0	65	89	57.000000	228.000000
171000000	562500	11	8	32	39	89	57.000000	228.000000
171000000	20312	12	9	0	64	76	57.000000	228.000000
171562500	1312500	11	8	32	39	89	57.187500	228.750000
171750000	1125000	3	0	73	81	89	57.250000	229.000000
171750000	20312	12	9	0	63	109	57.250000	229.000000
172500000	20312	12	9	0	64	70	57.500000	230.000000
172875000	750000	11	8	32	39	89	57.625000	230.500000
172875000	20312	12	9	0	64	83	57.625000	230.500000
173250000	3750000	4	1	0	55	89	57.750000	231.000000
173250000	3750000	4	1	0	58	89	57.750000	231.000000
173250000	3750000	4	1	0	65	89	57.750000	231.000000
173250000	20312	12	9	0	63	116	57.750000	231.000000
173625000	375000	3	0	73	82	89	57.875000	231.500000
173625000	375000	11	8	32	46	89	57.875000	231.500000
174000000	562500	3	0	73	82	89	58.000000	232.000000
174000000	562500	11	8	32	39	89	58.000000	232.000000
174562500	187500	3	0	73	79	89	58.187500	232.750000
174562500	2437500	11	8	32	39	89	58.187500	232.750000
175875000	375000	3	0	73	70	89	58.625000	234.500000
176250000	375000	3	0	73	74	89	58.750000	235.000000
176625000	375000	3	0	73	77	89	58.875000	235.500000
177000000	187500	3	0	73	79	89	59.000000	236.000000
177000000	1125000	4	1	0	70	89	59.000000	236.000000
177000000	1125000	4	1	0	77	89	59.000000	236.000000
177000000	1125000	5	2	0	55	89	59.000000	236.000000
177000000	1125000	5	2	0	62	89	59.000000	236.000000
177000000	1125000	11	8	32	55	89	59.000000	236.000000
177000000	1125000	11	8	32	62	89	59.000000	236.000000
177187500	187500	3	0	73	81	89	59.062500	236.250000
177375000	750000	3	0	73	79	89	59.125000	236.500000
178125000	562500	3	0	73	77	89	59.375000	237.500000
178125000	1875000	4	1	0	70	89	59.375000	237.500000
178125000	1875000	4	1	0	77	89	59.375000	237.500000
178125000	1875000	5	2	0	58	89	59.375000	237.500000
178125000	1875000	5	2	0	62	89	59.375000	237.500000
178125000	1875000	5	2	0	65	89	59.375000	237.500000
178125000	1875000	11	8	32	58	89	59.375000	237.500000
178125000	1875000	11	8	32	62	89	59.375000	237.500000
178125000	1875000	11	8	32	65	89	59.375000	237.500000
178687500	187500	3	0	73	79	89	59.562500	238.250000
179812500	187500	3	0	73	70	89	59.937500	239.750000
180000000	375000	3	0	73	72	89	60.000000	240.000000
180000000	1125000	4	1	0	70	89	60.000000	240.000000
180000000	1125000	4	1	0	77	89	60.000000	240.000000
180000000	1125000	5	2	0	51	89	60.000000	240.000000
180000000	1125000	5	2	0	58	89	60.000000	240.000000
180000000	1125000	5	2	0	63	89	60.000000	240.000000
180000000	1125000	11	8	32	51	89	60.000000	240.000000
180000000	1125000	11	8	32	58	89	60.000000	240.000000
180000000	1125000	11	8	32	63	89	60.000000	240.000000
180375000	375000	3	0	73	72	89	60.125000	240.500000
180750000	375000	3	0	73	70	89	60.250000	241.000000
181125000	750000	3	0	73	74	89	60.375000	241.500000
181125000	1875000	4	1	0	70	89	60.375000	241.500000
181125000	1875000	4	1	0	77	89	60.375000	241.500000
181125000	1875000	5	2	0	58	89	60.375000	241.500000
181125000	1875000	5	2	0	62	89	60.375000	241.500000
181125000	1875000	5	2	0	65	89	60.375000	241.500000
181125000	1875000	11	8	32	58	89	60.375000	241.500000
181125000	1875000	11	8	32	62	89	60.375000	241.500000
181125000	1875000	11	8	32	65	89	60.375000	241.500000
182625000	187500	3	0	73	74	89	60.875000	243.500000
182812500	187500	3	0	73	77	89	60.937500	243.750000
183000000	375000	3	0	73	79	89	61.000000	244.000000
183000000	1125000	4	1	0	70	89	61.000000	244.000000
183000000	1125000	4	1	0	77	89	61.000000	244.000000
183000000	1125000	5	2	0	55	89	61.000000	244.000000
183000000	1125000	5	2	0	62	89	61.000000	244.000000
183000000	1125000	11	8	32	55	89	61.000000	244.000000
183000000	1125000	11	8	32	62	89	61.000000	244.000000
183375000	375000	3	0	73	81	89	61.125000	244.500000
183750000	375000	3	0	73	79	89	61.250000	245.000000
184125000	375000	3	0	73	77	89	61.375000	245.500000
184125000	1875000	4	1	0	70	89	61.375000	245.500000
184125000	1875000	4	1	0	77	89	61.375000	245.500000
184125000	1875000	5	2	0	58	89	61.375000	245.500000
184125000	1875000	5	2	0	62	89	61.375000	245.500000
184125000	1875000	5	2	0	65	89	61.375000	245.500000
184125000	1875000	11	8	32	58	89	61.375000	245.500000
184125000	1875000	11	8	32	62	89	61.375000	245.500000
184125000	1875000	11	8	32	65	89	61.375000	245.500000
184500000	375000	3	0	73	74	89	61.500000	246.000000
184875000	375000	3	0	73	72	89	61.625000	246.500000
185250000	375000	3	0	73	72	89	61.750000	247.000000
185625000	375000	3	0	73	70	89	61.875000	247.500000
186000000	375000	3	0	73	72	89	62.000000	248.000000
186000000	1125000	4	1	0	70	89	62.000000	248.000000
186000000	1125000	4	1	0	77	89	62.000000	248.000000
186000000	1125000	5	2	0	51	89	62.000000	248.000000
186000000	1125000	5	2	0	58	89	62.000000	248.000000
186000000	1125000	5	2	0	63	89	62.000000	248.000000
186000000	1125000	11	8	32	51	89	62.000000	248.000000
186000000	1125000	11	8	32	58	89	62.000000	248.000000
186000000	1125000	11	8	32	63	89	62.000000	248.000000
186375000	375000	3	0	73	72	89	62.125000	248.500000
186750000	375000	3	0	73	74	89	62.250000	249.000000
187125000	375000	3	0	73	70	89	62.375000	249.500000
187125000	1875000	4	1	0	70	89	62.375000	249.500000
187125000	1875000	4	1	0	77	89	62.375000	249.500000
187125000	1875000	5	2	0	58	89	62.375000	249.500000
187125000	1875000	5	2	0	62	89	62.375000	249.500000
187125000	1875000	5	2	0	65	89	62.375000	249.500000
187125000	1875000	11	8	32	58	89	62.375000	249.500000
187125000	1875000	11	8	32	62	89	62.375000	249.500000
187125000	1875000	11	8	32	65	89	62.375000	249.500000
187500000	375000	3	0	73	67	89	62.500000	250.000000
188437500	187500	3	0	73	70	89	62.812500	251.250000
188625000	187500	3	0	73	74	89	62.875000	251.500000
188812500	187500	3	0	73	77	89	62.937500	251.750000
189000000	187500	3	0	73	79	89	63.000000	252.000000
189000000	1125000	4	1	0	70	89	63.000000	252.000000
189000000	1125000	4	1	0	77	89	63.000000	252.000000
189000000	1125000	5	2	0	55	89	63.000000	252.000000
189000000	1125000	5	2	0	62	89	63.000000	252.000000
189000000	1125000	11	8	32	55	89	63.000000	252.000000
189000000	1125000	11	8	32	62	89	63.000000	252.000000
189187500	187500	3	0	73	81	89	63.062500	252.250000
189375000	375000	3	0	73	79	89	63.125000	252.500000
189750000	375000	3	0	73	77	89	63.250000	253.000000
190125000	750000	3	0	73	77	89	63.375000	253.500000
190125000	1875000	4	1	0	70	89	63.375000	253.500000
190125000	1875000	4	1	0	77	89	63.375000	253.500000
190125000	1875000	5	2	0	58	89	63.375000	253.500000
190125000	1875000	5	2	0	62	89	63.375000	253.500000
190125000	1875000	5	2	0	65	89	63.375000	253.500000
190125000	1875000	11	8	32	58	89	63.375000	253.500000
190125000	1875000	11	8	32	62	89	63.375000	253.500000
190125000	1875000	11	8	32	65	89	63.375000	253.500000
190875000	375000	3	0	73	79	89	63.625000	254.500000
191812500	187500	3	0	73	70	89	63.937500	255.750000
192000000	375000	3	0	73	72	89	64.000000	256.000000
192000000	1125000	4	1	0	70	89	64.000000	256.000000
192000000	1125000	4	1	0	77	89	64.000000	256.000000
192000000	1125000	5	2	0	51	89	64.000000	256.000000
192000000	1125000	5	2	0	58	89	64.000000	256.000000
192000000	1125000	5	2	0	63	89	64.000000	256.000000
192000000	1125000	11	8	32	51	89	64.000000	256.000000
192000000	1125000	11	8	32	58	89	64.000000	256.000000
192000000	1125000	11	8	32	63	89	64.000000	256.000000
192375000	375000	3	0	73	72	89	64.125000	256.500000
192750000	375000	3	0	73	70	89	64.250000	257.000000
193125000	375000	3	0	73	74	89	64.375000	257.500000
193125000	1125000	4	1	0	70	89	64.375000	257.500000
193125000	1125000	4	1	0	77	89	64.375000	257.500000
193125000	1125000	5	2	0	58	89	64.375000	257.500000
193125000	1125000	5	2	0	62	89	64.375000	257.500000
193125000	1125000	5	2	0	65	89	64.375000	257.500000
193125000	1125000	11	8	32	58	89	64.375000	257.500000
193125000	1125000	11	8	32	62	89	64.375000	257.500000
193125000	1125000	11	8	32	65	89	64.375000	257.500000
193500000	375000	3	0	73	72	89	64.500000	258.000000
194250000	375000	3	0	73	74	89	64.750000	259.000000
194250000	750000	4	1	0	69	89	64.750000	259.000000
194250000	750000	4	1	0	77	89	64.750000	259.000000
194250000	750000	5	2	0	53	89	64.750000	259.000000
194250000	750000	5	2	0	60	89	64.750000	259.000000
194250000	750000	5	2	0	65	89	64.750000	259.000000
194250000	750000	11	8	32	53	89	64.750000	259.000000
194250000	750000	11	8	32	60	89	64.750000	259.000000
194250000	750000	11	8	32	65	89	64.750000	259.000000
194625000	375000	3	0	73	77	89	64.875000	259.500000
195000000	375000	3	0	73	79	89	65.000000	260.000000
195000000	1125000	4	1	0	70	89	65.000000	260.000000
195000000	1125000	4	1	0	77	89	65.000000	260.000000
195000000	1125000	5	2	0	55	89	65.000000	260.000000
195000000	1125000	5	2	0	62	89	65.000000	260.000000
195000000	1125000	11	8	32	55	89	65.000000	260.000000
195000000	1125000	11	8	32	62	89	65.000000	260.000000
195375000	375000	3	0	73	82	89	65.125000	260.500000
195750000	375000	3	0	73	84	89	65.250000	261.000000
196125000	375000	3	0	73	86	89	65.375000	261.500000
196125000	1875000	4	1	0	70	89	65.375000	261.500000
196125000	1875000	4	1	0	77	89	65.375000	261.500000
196125000	1875000	5	2	0	58	89	65.375000	261.500000
196125000	1875000	5	2	0	62	89	65.375000	261.500000
196125000	1875000	5	2	0	65	89	65.375000	261.500000
196125000	1875000	11	8	32	58	89	65.375000	261.500000
196125000	1875000	11	8	32	62	89	65.375000	261.500000
196125000	1875000	11	8	32	65	89	65.375000	261.500000
196500000	375000	3	0	73	84	89	65.500000	262.000000
196875000	375000	3	0	73	82	89	65.625000	262.500000
197250000	375000	3	0	73	79	89	65.750000	263.000000
197625000	375000	3	0	73	82	89	65.875000	263.500000
198000000	375000	3	0	73	84	89	66.000000	264.000000
198000000	1125000	4	1	0	70	89	66.000000	264.000000
198000000	1125000	4	1	0	77	89	66.000000	264.000000
198000000	1125000	5	2	0	51	89	66.000000	264.000000
198000000	1125000	5	2	0	58	89	66.000000	264.000000
198000000	1125000	5	2	0	63	89	66.000000	264.000000
198000000	1125000	11	8	32	51	89	66.000000	264.000000
198000000	1125000	11	8	32	58	89	66.000000	264.000000
198000000	1125000	11	8	32	63	89	66.000000	264.000000
198375000	375000	3	0	73	84	89	66.125000	264.500000
198750000	375000	3	0	73	82	89	66.250000	265.000000
199125000	375000	3	0	73	82	89	66.375000	265.500000
199125000	1875000	4	1	0	70	89	66.375000	265.500000
199125000	1875000	4	1	0	77	89	66.375000	265.500000
199125000	1875000	5	2	0	58	89	66.375000	265.500000
199125000	1875000	5	2	0	62	89	66.375000	265.500000
199125000	1875000	5	2	0	65	89	66.375000	265.500000
199125000	1875000	11	8	32	58	89	66.375000	265.500000
199125000	1875000	11	8	32	62	89	66.375000	265.500000
199125000	1875000	11	8	32	65	89	66.375000	265.500000
199500000	375000	3	0	73	79	89	66.500000	266.000000
200250000	375000	3	0	73	79	89	66.750000	267.000000
200625000	375000	3	0	73	82	89	66.875000	267.500000
201000000	375000	3	0	73	84	89	67.000000	268.000000
201000000	1125000	4	1	0	70	89	67.000000	268.000000
201000000	1125000	4	1	0	77	89	67.000000	268.000000
201000000	1125000	5	2	0	51	89	67.000000	268.000000
201000000	1125000	5	2	0	58	89	67.000000	268.000000
201000000	1125000	5	2	0	63	89	67.000000	268.000000
201000000	1125000	11	8	32	51	89	67.000000	268.000000
201000000	1125000	11	8	32	58	89	67.000000	268.000000
201000000	1125000	11	8	32	63	89	67.000000	268.000000
201375000	375000	3	0	73	84	89	67.125000	268.500000
201750000	375000	3	0	73	82	89	67.250000	269.000000
202125000	750000	3	0	73	82	89	67.375000	269.500000
202125000	1875000	4	1	0	70	89	67.375000	269.500000
202125000	1875000	4	1	0	77	89	67.375000	269.500000
202125000	1875000	5	2	0	58	89	67.375000	269.500000
202125000	1875000	5	2	0	62	89	67.375000	269.500000
202125000	1875000	5	2	0	65	89	67.375000	269.500000
202125000	1875000	11	8	32	58	89	67.375000	269.500000
202125000	1875000	11	8	32	62	89	67.375000	269.500000
202125000	1875000	11	8	32	65	89	67.375000	269.500000
203250000	375000	6	3	53	82	89	67.750000	271.000000
203250000	46875	12	9	0	36	89	67.750000	271.000000
203250000	20312	12	9	0	69	52	67.750000	271.000000
203265625	20312	12	9	0	42	127	67.755208	271.020833
203265625	20312	12	9	0	49	85	67.755208	271.020833
203281250	20312	12	9	0	33	127	67.760417	271.041667
203625000	375000	6	3	53	81	89	67.875000	271.500000
203625000	20312	12	9	0	69	29	67.875000	271.500000
203632812	20313	12	9	0	42	93	67.877604	271.510417
204000000	1125000	4	1	0	62	89	68.000000	272.000000
204000000	1125000	4	1	0	65	89	68.000000	272.000000
204000000	1125000	4	1	0	70	89	68.000000	272.000000
204000000	1125000	6	3	53	79	89	68.000000	272.000000
204000000	1125000	7	4	35	31	127	68.000000	272.000000
204000000	1125000	8	5	18	31	127	68.000000	272.000000
204000000	1125000	9	6	32	31	127	68.000000	272.000000
204000000	20312	12	9	0	34	22	68.000000	272.000000
204000000	46875	12	9	0	36	89	68.000000	272.000000
204000000	20312	12	9	0	69	49	68.000000	272.000000
204000000	1125000	13	10	50	62	89	68.000000	272.000000
204000000	1125000	13	10	50	65	89	68.000000	272.000000
204000000	1125000	13	10	50	70	89	68.000000	272.000000
204000000	1125000	14	11	51	62	89	68.000000	272.000000
204000000	1125000	14	11	51	65	89	68.000000	272.000000
204000000	1125000	14	11	51	70	89	68.000000	272.000000
204007812	20313	12	9	0	42	127	68.002604	272.010417
204125000	20312	12	9	0	34	21	68.041667	272.166667
204250000	20312	12	9	0	34	29	68.083333	272.333333
204375000	20312	12	9	0	34	30	68.125000	272.500000
204375000	46875	12	9	0	36	89	68.125000	272.500000
204375000	20312	12	9	0	69	29	68.125000	272.500000
204382812	20313	12	9	0	42	93	68.127604	272.510417
204500000	20312	12	9	0	34	44	68.166667	272.666667
204625000	20312	12	9	0	34	49	68.208333	272.833333
204750000	20312	12	9	0	34	68	68.250000	273.000000
204750000	20312	12	9	0	39	62	68.250000	273.000000
204750000	20312	12	9	0	69	49	68.250000	273.000000
204757812	20313	12	9	0	42	127	68.252604	273.010417
205125000	750000	4	1	0	62	89	68.375000	273.500000
205125000	750000	4	1	0	65	89	68.375000	273.500000
205125000	750000	4	1	0	70	89	68.375000	273.500000
205125000	750000	6	3	53	77	89	68.375000	273.500000
205125000	750000	7	4	35	34	127	68.375000	273.500000
205125000	750000	8	5	18	34	127	68.375000	273.500000
205125000	750000	9	6	32	34	127	68.375000	273.500000
205125000	20312	12	9	0	34	45	68.375000	273.500000
205125000	20312	12	9	0	69	29	68.375000	273.500000
205125000	750000	13	10	50	62	89	68.375000	273.500000
205125000	750000	13	10	50	65	89	68.375000	273.500000
205125000	750000	13	10	50	70	89	68.375000	273.500000
205125000	750000	14	11	51	62	89	68.375000	273.500000
205125000	750000	14	11	51	65	89	68.375000	273.500000
205125000	750000	14	11	51	70	89	68.375000	273.500000
205132812	20313	12	9	0	42	93	68.377604	273.510417
205500000	20312	12	9	0	34	57	68.500000	274.000000
205500000	20312	12	9	0	69	49	68.500000	274.000000
205507812	20313	12	9	0	42	127	68.502604	274.010417
205515625	20312	12	9	0	33	127	68.505208	274.020833
205875000	562500	4	1	0	62	89	68.625000	274.500000
205875000	562500	4	1	0	65	89	68.625000	274.500000
205875000	562500	4	1	0	70	89	68.625000	274.500000
205875000	562500	7	4	35	34	127	68.625000	274.500000
205875000	562500	8	5	18	34	127	68.625000	274.500000
205875000	562500	9	6	32	34	127	68.625000	274.500000
205875000	20312	12	9	0	42	127	68.625000	274.500000
205875000	20312	12	9	0	69	29	68.625000	274.500000
205875000	562500	13	10	50	62	89	68.625000	274.500000
205875000	562500	13	10	50	65	89	68.625000	274.500000
205875000	562500	13	10	50	70	89	68.625000	274.500000
205875000	562500	14	11	51	62	89	68.625000	274.500000
205875000	562500	14	11	51	65	89	68.625000	274.500000
205875000	562500	14	11	51	70	89	68.625000	274.500000
206000000	20312	12	9	0	42	127	68.666667	274.666667
206015625	46875	12	9	0	38	89	68.671875	274.687500
206109375	46875	12	9	0	38	89	68.703125	274.812500
206125000	20312	12	9	0	42	127	68.708333	274.833333
206250000	375000	6	3	53	82	89	68.750000	275.000000
206250000	20312	12	9	0	33	87	68.750000	275.000000
206250000	20312	12	9	0	34	36	68.750000	275.000000
206250000	46875	12	9	0	36	89	68.750000	275.000000
206250000	46875	12	9	0	38	89	68.750000	275.000000
206250000	20312	12	9	0	69	51	68.750000	275.000000
206265625	20312	12	9	0	42	127	68.755208	275.020833
206437500	562500	4	1	0	60	89	68.812500	275.250000
206437500	562500	4	1	0	65	89	68.812500	275.250000
206437500	562500	4	1	0	69	89	68.812500	275.250000
206437500	562500	7	4	35	29	127	68.812500	275.250000
206437500	562500	8	5	18	29	127	68.812500	275.250000
206437500	562500	9	6	32	29	127	68.812500	275.250000
206437500	562500	13	10	50	60	89	68.812500	275.250000
206437500	562500	13	10	50	65	89	68.812500	275.250000
206437500	562500	13	10	50	69	89	68.812500	275.250000
206437500	562500	14	11	51	60	89	68.812500	275.250000
206437500	562500	14	11	51	65	89	68.812500	275.250000
206437500	562500	14	11	51	69	89	68.812500	275.250000
206625000	375000	6	3	53	81	89	68.875000	275.500000
206625000	20312	12	9	0	34	45	68.875000	275.500000
206625000	46875	12	9	0	36	89	68.875000	275.500000
206625000	46875	12	9	0	37	89	68.875000	275.500000
206625000	20312	12	9	0	69	29	68.875000	275.500000
206632812	20313	12	9	0	42	93	68.877604	275.510417
207000000	1125000	4	1	0	63	89	69.000000	276.000000
207000000	1125000	4	1	0	67	89	69.000000	276.000000
207000000	1125000	4	1	0	70	89	69.000000	276.000000
207000000	562500	6	3	53	79	89	69.000000	276.000000
207000000	1125000	7	4	35	27	127	69.000000	276.000000
207000000	1125000	8	5	18	27	127	69.000000	276.000000
207000000	1125000	9	6	32	27	127	69.000000	276.000000
207000000	20312	12	9	0	34	22	69.000000	276.000000
207000000	46875	12	9	0	36	89	69.000000	276.000000
207000000	20312	12	9	0	69	49	69.000000	276.000000
207000000	1125000	13	10	50	63	89	69.000000	276.000000
207000000	1125000	13	10	50	67	89	69.000000	276.000000
207000000	1125000	13	10	50	70	89	69.000000	276.000000
207000000	1125000	14	11	51	63	89	69.000000	276.000000
207000000	1125000	14	11	51	67	89	69.000000	276.000000
207000000	1125000	14	11	51	70	89	69.000000	276.000000
207007812	20313	12	9	0	42	127	69.002604	276.010417
207125000	20312	12	9	0	34	21	69.041667	276.166667
207250000	20312	12	9	0	34	29	69.083333	276.333333
207375000	20312	12	9	0	34	30	69.125000	276.500000
207375000	46875	12	9	0	36	89	69.125000	276.500000
207375000	20312	12	9	0	69	29	69.125000	276.500000
207382812	20313	12	9	0	42	93	69.127604	276.510417
207500000	20312	12	9	0	34	44	69.166667	276.666667
207562500	187500	6	3	53	81	89	69.187500	276.750000
207625000	20312	12	9	0	34	49	69.208333	276.833333
207750000	375000	6	3	53	79	89	69.250000	277.000000
207750000	20312	12	9	0	34	68	69.250000	277.000000
207750000	20312	12	9	0	39	62	69.250000	277.000000
207750000	20312	12	9	0	69	49	69.250000	277.000000
207757812	20313	12	9	0	42	127	69.252604	277.010417
208125000	750000	4	1	0	62	89	69.375000	277.500000
208125000	750000	4	1	0	65	89	69.375000	277.500000
208125000	750000	4	1	0	70	89	69.375000	277.500000
208125000	375000	6	3	53	77	89	69.375000	277.500000
208125000	750000	7	4	35	34	127	69.375000	277.500000
208125000	750000	8	5	18	34	127	69.375000	277.500000
208125000	750000	9	6	32	34	127	69.375000	277.500000
208125000	20312	12	9	0	34	45	69.375000	277.500000
208125000	20312	12	9	0	69	29	69.375000	277.500000
208125000	750000	13	10	50	62	89	69.375000	277.500000
208125000	750000	13	10	50	65	89	69.375000	277.500000
208125000	750000	13	10	50	70	89	69.375000	277.500000
208125000	750000	14	11	51	62	89	69.375000	277.500000
208125000	750000	14	11	51	65	89	69.375000	277.500000
208125000	750000	14	11	51	70	89	69.375000	277.500000
208132812	20313	12	9	0	42	93	69.377604	277.510417
208500000	750000	6	3	53	74	89	69.500000	278.000000
208500000	20312	12	9	0	34	57	69.500000	278.000000
208500000	20312	12	9	0	69	49	69.500000	278.000000
208507812	20313	12	9	0	42	127	69.502604	278.010417
208515625	20312	12	9	0	33	127	69.505208	278.020833
208875000	562500	4	1	0	62	89	69.625000	278.500000
208875000	562500	4	1	0	65	89	69.625000	278.500000
208875000	562500	4	1	0	70	89	69.625000	278.500000
208875000	562500	7	4	35	34	127	69.625000	278.500000
208875000	562500	8	5	18	34	127	69.625000	278.500000
208875000	562500	9	6	32	34	127	69.625000	278.500000
208875000	20312	12	9	0	42	127	69.625000	278.500000
208875000	20312	12	9	0	69	29	69.625000	278.500000
208875000	562500	13	10	50	62	89	69.625000	278.500000
208875000	562500	13	10	50	65	89	69.625000	278.500000
208875000	562500	13	10	50	70	89	69.625000	278.500000
208875000	562500	14	11	51	62	89	69.625000	278.500000
208875000	562500	14	11	51	65	89	69.625000	278.500000
208875000	562500	14	11	51	70	89	69.625000	278.500000
209000000	20312	12	9	0	42	127	69.666667	278.666667
209015625	46875	12	9	0	38	89	69.671875	278.687500
209109375	46875	12	9	0	38	89	69.703125	278.812500
209125000	20312	12	9	0	42	127	69.708333	278.833333
209250000	187500	6	3	53	77	89	69.750000	279.000000
209250000	20312	12	9	0	33	87	69.750000	279.000000
209250000	20312	12	9	0	34	36	69.750000	279.000000
209250000	46875	12	9	0	36	89	69.750000	279.000000
209250000	46875	12	9	0	38	89	69.750000	279.000000
209250000	20312	12	9	0	69	51	69.750000	279.000000
209265625	20312	12	9	0	42	127	69.755208	279.020833
209437500	562500	4	1	0	60	89	69.812500	279.250000
209437500	562500	4	1	0	65	89	69.812500	279.250000
209437500	562500	4	1	0	69	89	69.812500	279.250000
209437500	187500	6	3	53	79	89	69.812500	279.250000
209437500	562500	7	4	35	29	127	69.812500	279.250000
209437500	562500	8	5	18	29	127	69.812500	279.250000
209437500	562500	9	6	32	29	127	69.812500	279.250000
209437500	562500	13	10	50	60	89	69.812500	279.250000
209437500	562500	13	10	50	65	89	69.812500	279.250000
209437500	562500	13	10	50	69	89	69.812500	279.250000
209437500	562500	14	11	51	60	89	69.812500	279.250000
209437500	562500	14	11	51	65	89	69.812500	279.250000
209437500	562500	14	11	51	69	89	69.812500	279.250000
209625000	187500	6	3	53	82	89	69.875000	279.500000
209625000	20312	12	9	0	34	45	69.875000	279.500000
209625000	46875	12	9	0	36	89	69.875000	279.500000
209625000	46875	12	9	0	37	89	69.875000	279.500000
209625000	20312	12	9	0	69	29	69.875000	279.500000
209632812	20313	12	9	0	42	93	69.877604	279.510417
209812500	187500	6	3	53	84	89	69.937500	279.750000
210000000	1125000	4	1	0	62	89	70.000000	280.000000
210000000	1125000	4	1	0	65	89	70.000000	280.000000
210000000	1125000	4	1	0	70	89	70.000000	280.000000
210000000	562500	6	3	53	86	89	70.000000	280.000000
210000000	1125000	7	4	35	31	127	70.000000	280.000000
210000000	1125000	8	5	18	31	127	70.000000	280.000000
210000000	1125000	9	6	32	31	127	70.000000	280.000000
210000000	20312	12	9	0	34	22	70.000000	280.000000
210000000	46875	12	9	0	36	89	70.000000	280.000000
210000000	20312	12	9	0	69	49	70.000000	280.000000
210000000	1125000	13	10	50	62	89	70.000000	280.000000
210000000	1125000	13	10	50	65	89	70.000000	280.000000
210000000	1125000	13	10	50	70	89	70.000000	280.000000
210000000	1125000	14	11	51	62	89	70.000000	280.000000
210000000	1125000	14	11	51	65	89	70.000000	280.000000
210000000	1125000	14	11	51	70	89	70.000000	280.000000
210007812	20313	12	9	0	42	127	70.002604	280.010417
210125000	20312	12	9	0	34	21	70.041667	280.166667
210250000	20312	12	9	0	34	29	70.083333	280.333333
210375000	20312	12	9	0	34	30	70.125000	280.500000
210375000	46875	12	9	0	36	89	70.125000	280.500000
210375000	20312	12	9	0	69	29	70.125000	280.500000
210382812	20313	12	9	0	42	93	70.127604	280.510417
210500000	20312	12	9	0	34	44	70.166667	280.666667
210562500	187500	6	3	53	84	89	70.187500	280.750000
210625000	20312	12	9	0	34	49	70.208333	280.833333
210750000	562500	6	3	53	86	89	70.250000	281.000000
210750000	20312	12	9	0	34	68	70.250000	281.000000
210750000	20312	12	9	0	39	62	70.250000	281.000000
210750000	20312	12	9	0	69	49	70.250000	281.000000
210757812	20313	12	9	0	42	127	70.252604	281.010417
211125000	750000	4	1	0	62	89	70.375000	281.500000
211125000	750000	4	1	0	65	89	70.375000	281.500000
211125000	750000	4	1	0	70	89	70.375000	281.500000
211125000	750000	7	4	35	34	127	70.375000	281.500000
211125000	750000	8	5	18	34	127	70.375000	281.500000
211125000	750000	9	6	32	34	127	70.375000	281.500000
211125000	20312	12	9	0	34	45	70.375000	281.500000
211125000	20312	12	9	0	69	29	70.375000	281.500000
211125000	750000	13	10	50	62	89	70.375000	281.500000
211125000	750000	13	10	50	65	89	70.375000	281.500000
211125000	750000	13	10	50	70	89	70.375000	281.500000
211125000	750000	14	11	51	62	89	70.375000	281.500000
211125000	750000	14	11	51	65	89	70.375000	281.500000
211125000	750000	14	11	51	70	89	70.375000	281.500000
211132812	20313	12	9	0	42	93	70.377604	281.510417
211312500	187500	6	3	53	84	89	70.437500	281.750000
211500000	562500	6	3	53	86	89	70.500000	282.000000
211500000	20312	12	9	0	34	57	70.500000	282.000000
211500000	20312	12	9	0	69	49	70.500000	282.000000
211507812	20313	12	9	0	42	127	70.502604	282.010417
211515625	20312	12	9	0	33	127	70.505208	282.020833
211875000	562500	4	1	0	62	89	70.625000	282.500000
211875000	562500	4	1	0	65	89	70.625000	282.500000
211875000	562500	4	1	0	70	89	70.625000	282.500000
211875000	562500	7	4	35	34	127	70.625000	282.500000
211875000	562500	8	5	18	34	127	70.625000	282.500000
211875000	562500	9	6	32	34	127	70.625000	282.500000
211875000	20312	12	9	0	42	127	70.625000	282.500000
211875000	20312	12	9	0	69	29	70.625000	282.500000
211875000	562500	13	10	50	62	89	70.625000	282.500000
211875000	562500	13	10	50	65	89	70.625000	282.500000
211875000	562500	13	10	50	70	89	70.625000	282.500000
211875000	562500	14	11	51	62	89	70.625000	282.500000
211875000	562500	14	11	51	65	89	70.625000	282.500000
211875000	562500	14	11	51	70	89	70.625000	282.500000
212000000	20312	12	9	0	42	127	70.666667	282.666667
212015625	46875	12	9	0	38	89	70.671875	282.687500
212062500	187500	6	3	53	84	89	70.687500	282.750000
212109375	46875	12	9	0	38	89	70.703125	282.812500
212125000	20312	12	9	0	42	127	70.708333	282.833333
212250000	187500	6	3	53	86	89	70.750000	283.000000
212250000	20312	12	9	0	33	87	70.750000	283.000000
212250000	20312	12	9	0	34	36	70.750000	283.000000
212250000	46875	12	9	0	36	89	70.750000	283.000000
212250000	46875	12	9	0	38	89	70.750000	283.000000
212250000	20312	12	9	0	69	51	70.750000	283.000000
212265625	20312	12	9	0	42	127	70.755208	283.020833
212437500	562500	4	1	0	60	89	70.812500	283.250000
212437500	562500	4	1	0	65	89	70.812500	283.250000
212437500	562500	4	1	0	69	89	70.812500	283.250000
212437500	187500	6	3	53	89	89	70.812500	283.250000
212437500	562500	7	4	35	29	127	70.812500	283.250000
212437500	562500	8	5	18	29	127	70.812500	283.250000
212437500	562500	9	6	32	29	127	70.812500	283.250000
212437500	562500	13	10	50	60	89	70.812500	283.250000
212437500	562500	13	10	50	65	89	70.812500	283.250000
212437500	562500	13	10	50	69	89	70.812500	283.250000
212437500	562500	14	11	51	60	89	70.812500	283.250000
212437500	562500	14	11	51	65	89	70.812500	283.250000
212437500	562500	14	11	51	69	89	70.812500	283.250000
212625000	187500	6	3	53	86	89	70.875000	283.500000
212625000	20312	12	9	0	34	45	70.875000	283.500000
212625000	46875	12	9	0	36	89	70.875000	283.500000
212625000	46875	12	9	0	37	89	70.875000	283.500000
212625000	20312	12	9	0	69	29	70.875000	283.500000
212632812	20313	12	9	0	42	93	70.877604	283.510417
212812500	187500	6	3	53	84	89	70.937500	283.750000
213000000	1125000	4	1	0	63	89	71.000000	284.000000
213000000	1125000	4	1	0	67	89	71.000000	284.000000
213000000	1125000	4	1	0	70	89	71.000000	284.000000
213000000	562500	6	3	53	82	89	71.000000	284.000000
213000000	1125000	7	4	35	27	127	71.000000	284.000000
213000000	1125000	8	5	18	27	127	71.000000	284.000000
213000000	1125000	9	6	32	27	127	71.000000	284.000000
213000000	20312	12	9	0	34	22	71.000000	284.000000
213000000	46875	12	9	0	36	89	71.000000	284.000000
213000000	20312	12	9	0	69	49	71.000000	284.000000
213000000	1125000	13	10	50	63	89	71.000000	284.000000
213000000	1125000	13	10	50	67	89	71.000000	284.000000
213000000	1125000	13	10	50	70	89	71.000000	284.000000
213000000	1125000	14	11	51	63	89	71.000000	284.000000
213000000	1125000	14	11	51	67	89	71.000000	284.000000
213000000	1125000	14	11	51	70	89	71.000000	284.000000
213007812	20313	12	9	0	42	127	71.002604	284.010417
213125000	20312	12	9	0	34	21	71.041667	284.166667
213250000	20312	12	9	0	34	29	71.083333	284.333333
213375000	20312	12	9	0	34	30	71.125000	284.500000
213375000	46875	12	9	0	36	89	71.125000	284.500000
213375000	20312	12	9	0	69	29	71.125000	284.500000
213382812	20313	12	9	0	42	93	71.127604	284.510417
213500000	20312	12	9	0	34	44	71.166667	284.666667
213562500	187500	6	3	53	79	89	71.187500	284.750000
213625000	20312	12	9	0	34	49	71.208333	284.833333
213750000	375000	6	3	53	82	89	71.250000	285.000000
213750000	20312	12	9	0	34	68	71.250000	285.000000
213750000	20312	12	9	0	39	62	71.250000	285.000000
213750000	20312	12	9	0	69	49	71.250000	285.000000
213757812	20313	12	9	0	42	127	71.252604	285.010417
214125000	750000	4	1	0	62	89	71.375000	285.500000
214125000	750000	4	1	0	65	89	71.375000	285.500000
214125000	750000	4	1	0	70	89	71.375000	285.500000
214125000	187500	6	3	53	84	89	71.375000	285.500000
214125000	750000	7	4	35	34	127	71.375000	285.500000
214125000	750000	8	5	18	34	127	71.375000	285.500000
214125000	750000	9	6	32	34	127	71.375000	285.500000
214125000	20312	12	9	0	34	45	71.375000	285.500000
214125000	20312	12	9	0	69	29	71.375000	285.500000
214125000	750000	13	10	50	62	89	71.375000	285.500000
214125000	750000	13	10	50	65	89	71.375000	285.500000
214125000	750000	13	10	50	70	89	71.375000	285.500000
214125000	750000	14	11	51	62	89	71.375000	285.500000
214125000	750000	14	11	51	65	89	71.375000	285.500000
214125000	750000	14	11	51	70	89	71.375000	285.500000
214132812	20313	12	9	0	42	93	71.377604	285.510417
214312500	937500	6	3	53	82	89	71.437500	285.750000
214500000	20312	12	9	0	34	57	71.500000	286.000000
214500000	20312	12	9	0	69	49	71.500000	286.000000
214507812	20313	12	9	0	42	127	71.502604	286.010417
214515625	20312	12	9	0	33	127	71.505208	286.020833
214875000	562500	4	1	0	62	89	71.625000	286.500000
214875000	562500	4	1	0	65	89	71.625000	286.500000
214875000	562500	4	1	0	70	89	71.625000	286.500000
214875000	562500	7	4	35	34	127	71.625000	286.500000
214875000	562500	8	5	18	34	127	71.625000	286.500000
214875000	562500	9	6	32	34	127	71.625000	286.500000
214875000	20312	12	9	0	42	127	71.625000	286.500000
214875000	20312	12	9	0	69	29	71.625000	286.500000
214875000	562500	13	10	50	62	89	71.625000	286.500000
214875000	562500	13	10	50	65	89	71.625000	286.500000
214875000	562500	13	10	50	70	89	71.625000	286.500000
214875000	562500	14	11	51	62	89	71.625000	286.500000
214875000	562500	14	11	51	65	89	71.625000	286.500000
214875000	562500	14	11	51	70	89	71.625000	286.500000
215000000	20312	12	9	0	42	127	71.666667	286.666667
215015625	46875	12	9	0	38	89	71.671875	286.687500
215109375	46875	12	9	0	38	89	71.703125	286.812500
215125000	20312	12	9	0	42	127	71.708333	286.833333
215250000	375000	6	3	53	82	89	71.750000	287.000000
215250000	20312	12	9	0	33	87	71.750000	287.000000
215250000	20312	12	9	0	34	36	71.750000	287.000000
215250000	46875	12	9	0	36	89	71.750000	287.000000
215250000	46875	12	9	0	38	89	71.750000	287.000000
215250000	20312	12	9	0	69	51	71.750000	287.000000
215265625	20312	12	9	0	42	127	71.755208	287.020833
215437500	562500	4	1	0	60	89	71.812500	287.250000
215437500	562500	4	1	0	65	89	71.812500	287.250000
215437500	562500	4	1	0	69	89	71.812500	287.250000
215437500	562500	7	4	35	29	127	71.812500	287.250000
215437500	562500	8	5	18	29	127	71.812500	287.250000
215437500	562500	9	6	32	29	127	71.812500	287.250000
215437500	562500	13	10	50	60	89	71.812500	287.250000
215437500	562500	13	10	50	65	89	71.812500	287.250000
215437500	562500	13	10	50	69	89	71.812500	287.250000
215437500	562500	14	11	51	60	89	71.812500	287.250000
215437500	562500	14	11	51	65	89	71.812500	287.250000
215437500	562500	14	11	51	69	89	71.812500	287.250000
215625000	375000	6	3	53	81	89	71.875000	287.500000
215625000	20312	12	9	0	34	45	71.875000	287.500000
215625000	46875	12	9	0	36	89	71.875000	287.500000
215625000	46875	12	9	0	37	89	71.875000	287.500000
215625000	20312	12	9	0	69	29	71.875000	287.500000
215632812	20313	12	9	0	42	93	71.877604	287.510417
216000000	1125000	4	1	0	62	89	72.000000	288.000000
216000000	1125000	4	1	0	65	89	72.000000	288.000000
216000000	1125000	4	1	0	70	89	72.000000	288.000000
216000000	1125000	6	3	53	79	89	72.000000	288.000000
216000000	1125000	7	4	35	31	127	72.000000	288.000000
216000000	1125000	8	5	18	31	127	72.000000	288.000000
216000000	1125000	9	6	32	31	127	72.000000	288.000000
216000000	20312	12	9	0	34	22	72.000000	288.000000
216000000	46875	12	9	0	36	89	72.000000	288.000000
216000000	20312	12	9	0	69	49	72.000000	288.000000
216000000	1125000	13	10	50	62	89	72.000000	288.000000
216000000	1125000	13	10	50	65	89	72.000000	288.000000
216000000	1125000	13	10	50	70	89	72.000000	288.000000
216000000	1125000	14	11	51	62	89	72.000000	288.000000
216000000	1125000	14	11	51	65	89	72.000000	288.000000
216000000	1125000	14	11	51	70	89	72.000000	288.000000
216007812	20313	12	9	0	42	127	72.002604	288.010417
216125000	20312	12	9	0	34	21	72.041667	288.166667
216250000	20312	12	9	0	34	29	72.083333	288.333333
216375000	20312	12	9	0	34	30	72.125000	288.500000
216375000	46875	12	9	0	36	89	72.125000	288.500000
216375000	20312	12	9	0	69	29	72.125000	288.500000
216382812	20313	12	9	0	42	93	72.127604	288.510417
216500000	20312	12	9	0	34	44	72.166667	288.666667
216625000	20312	12	9	0	34	49	72.208333	288.833333
216750000	20312	12	9	0	34	68	72.250000	289.000000
216750000	20312	12	9	0	39	62	72.250000	289.000000
216750000	20312	12	9	0	69	49	72.250000	289.000000
216757812	20313	12	9	0	42	127	72.252604	289.010417
217125000	750000	4	1	0	62	89	72.375000	289.500000
217125000	750000	4	1	0	65	89	72.375000	289.500000
217125000	750000	4	1	0	70	89	72.375000	289.500000
217125000	750000	6	3	53	77	89	72.375000	289.500000
217125000	750000	7	4	35	34	127	72.375000	289.500000
217125000	750000	8	5	18	34	127	72.375000	289.500000
217125000	750000	9	6	32	34	127	72.375000	289.500000
217125000	20312	12	9	0	34	45	72.375000	289.500000
217125000	20312	12	9	0	69	29	72.375000	289.500000
217125000	750000	13	10	50	62	89	72.375000	289.500000
217125000	750000	13	10	50	65	89	72.375000	289.500000
217125000	750000	13	10	50	70	89	72.375000	289.500000
217125000	750000	14	11	51	62	89	72.375000	289.500000
217125000	750000	14	11	51	65	89	72.375000	289.500000
217125000	750000	14	11	51	70	89	72.375000	289.500000
217132812	20313	12	9	0	42	93	72.377604	289.510417
217500000	20312	12	9	0	34	57	72.500000	290.000000
217500000	20312	12	9	0	69	49	72.500000	290.000000
217507812	20313	12	9	0	42	127	72.502604	290.010417
217515625	20312	12	9	0	33	127	72.505208	290.020833
217875000	562500	4	1	0	62	89	72.625000	290.500000
217875000	562500	4	1	0	65	89	72.625000	290.500000
217875000	562500	4	1	0	70	89	72.625000	290.500000
217875000	562500	7	4	35	34	127	72.625000	290.500000
217875000	562500	8	5	18	34	127	72.625000	290.500000
217875000	562500	9	6	32	34	127	72.625000	290.500000
217875000	20312	12	9	0	42	127	72.625000	290.500000
217875000	20312	12	9	0	69	29	72.625000	290.500000
217875000	562500	13	10	50	62	89	72.625000	290.500000
217875000	562500	13	10	50	65	89	72.625000	290.500000
217875000	562500	13	10	50	70	89	72.625000	290.500000
217875000	562500	14	11	51	62	89	72.625000	290.500000
217875000	562500	14	11	51	65	89	72.625000	290.500000
217875000	562500	14	11	51	70	89	72.625000	290.500000
218000000	20312	12	9	0	42	127	72.666667	290.666667
218015625	46875	12	9	0	38	89	72.671875	290.687500
218109375	46875	12	9	0	38	89	72.703125	290.812500
218125000	20312	12	9	0	42	127	72.708333	290.833333
218250000	375000	6	3	53	82	89	72.750000	291.000000
218250000	20312	12	9	0	33	87	72.750000	291.000000
218250000	20312	12	9	0	34	36	72.750000	291.000000
218250000	46875	12	9	0	36	89	72.750000	291.000000
218250000	46875	12	9	0	38	89	72.750000	291.000000
218250000	20312	12	9	0	69	51	72.750000	291.000000
218265625	20312	12	9	0	42	127	72.755208	291.020833
218437500	562500	4	1	0	60	89	72.812500	291.250000
218437500	562500	4	1	0	65	89	72.812500	291.250000
218437500	562500	4	1	0	69	89	72.812500	291.250000
218437500	562500	7	4	35	29	127	72.812500	291.250000
218437500	562500	8	5	18	29	127	72.812500	291.250000
218437500	562500	9	6	32	29	127	72.812500	291.250000
218437500	562500	13	10	50	60	89	72.812500	291.250000
218437500	562500	13	10	50	65	89	72.812500	291.250000
218437500	562500	13	10	50	69	89	72.812500	291.250000
218437500	562500	14	11	51	60	89	72.812500	291.250000
218437500	562500	14	11	51	65	89	72.812500	291.250000
218437500	562500	14	11	51	69	89	72.812500	291.250000
218625000	375000	6	3	53	81	89	72.875000	291.500000
218625000	20312	12	9	0	34	45	72.875000	291.500000
218625000	46875	12	9	0	36	89	72.875000	291.500000
218625000	46875	12	9	0	37	89	72.875000	291.500000
218625000	20312	12	9	0	69	29	72.875000	291.500000
218632812	20313	12	9	0	42	93	72.877604	291.510417
219000000	1125000	4	1	0	63	89	73.000000	292.000000
219000000	1125000	4	1	0	67	89	73.000000	292.000000
219000000	1125000	4	1	0	70	89	73.000000	292.000000
219000000	562500	6	3	53	79	89	73.000000	292.000000
219000000	1125000	7	4	35	27	127	73.000000	292.000000
219000000	1125000	8	5	18	27	127	73.000000	292.000000
219000000	1125000	9	6	32	27	127	73.000000	292.000000
219000000	20312	12	9	0	34	22	73.000000	292.000000
219000000	46875	12	9	0	36	89	73.000000	292.000000
219000000	20312	12	9	0	69	49	73.000000	292.000000
219000000	1125000	13	10	50	63	89	73.000000	292.000000
219000000	1125000	13	10	50	67	89	73.000000	292.000000
219000000	1125000	13	10	50	70	89	73.000000	292.000000
219000000	1125000	14	11	51	63	89	73.000000	292.000000
219000000	1125000	14	11	51	67	89	73.000000	292.000000
219000000	1125000	14	11	51	70	89	73.000000	292.000000
219007812	20313	12	9	0	42	127	73.002604	292.010417
219125000	20312	12	9	0	34	21	73.041667	292.166667
219250000	20312	12	9	0	34	29	73.083333	292.333333
219375000	20312	12	9	0	34	30	73.125000	292.500000
219375000	46875	12	9	0	36	89	73.125000	292.500000
219375000	20312	12	9	0	69	29	73.125000	292.500000
219382812	20313	12	9	0	42	93	73.127604	292.510417
219500000	20312	12	9	0	34	44	73.166667	292.666667
219562500	187500	6	3	53	81	89	73.187500	292.750000
219625000	20312	12	9	0	34	49	73.208333	292.833333
219750000	375000	6	3	53	79	89	73.250000	293.000000
219750000	20312	12	9	0	34	68	73.250000	293.000000
219750000	20312	12	9	0	39	62	73.250000	293.000000
219750000	20312	12	9	0	69	49	73.250000	293.000000
219757812	20313	12	9	0	42	127	73.252604	293.010417
220125000	750000	4	1	0	62	89	73.375000	293.500000
220125000	750000	4	1	0	65	89	73.375000	293.500000
220125000	750000	4	1	0	70	89	73.375000	293.500000
220125000	375000	6	3	53	77	89	73.375000	293.500000
220125000	750000	7	4	35	34	127	73.375000	293.500000
220125000	750000	8	5	18	34	127	73.375000	293.500000
220125000	750000	9	6	32	34	127	73.375000	293.500000
220125000	20312	12	9	0	34	45	73.375000	293.500000
220125000	20312	12	9	0	69	29	73.375000	293.500000
220125000	750000	13	10	50	62	89	73.375000	293.500000
220125000	750000	13	10	50	65	89	73.375000	293.500000
220125000	750000	13	10	50	70	89	73.375000	293.500000
220125000	750000	14	11	51	62	89	73.375000	293.500000
220125000	750000	14	11	51	65	89	73.375000	293.500000
220125000	750000	14	11	51	70	89	73.375000	293.500000
220132812	20313	12	9	0	42	93	73.377604	293.510417
220500000	750000	6	3	53	74	89	73.500000	294.000000
220500000	20312	12	9	0	34	57	73.500000	294.000000
220500000	20312	12	9	0	69	49	73.500000	294.000000
220507812	20313	12	9	0	42	127	73.502604	294.010417
220515625	20312	12	9	0	33	127	73.505208	294.020833
220875000	562500	4	1	0	62	89	73.625000	294.500000
220875000	562500	4	1	0	65	89	73.625000	294.500000
220875000	562500	4	1	0	70	89	73.625000	294.500000
220875000	562500	7	4	35	34	127	73.625000	294.500000
220875000	562500	8	5	18	34	127	73.625000	294.500000
220875000	562500	9	6	32	34	127	73.625000	294.500000
220875000	20312	12	9	0	42	127	73.625000	294.500000
220875000	20312	12	9	0	69	29	73.625000	294.500000
220875000	562500	13	10	50	62	89	73.625000	294.500000
220875000	562500	13	10	50	65	89	73.625000	294.500000
220875000	562500	13	10	50	70	89	73.625000	294.500000
220875000	562500	14	11	51	62	89	73.625000	294.500000
220875000	562500	14	11	51	65	89	73.625000	294.500000
220875000	562500	14	11	51	70	89	73.625000	294.500000
221000000	20312	12	9	0	42	127	73.666667	294.666667
221015625	46875	12	9	0	38	89	73.671875	294.687500
221109375	46875	12	9	0	38	89	73.703125	294.812500
221125000	20312	12	9	0	42	127	73.708333	294.833333
221250000	187500	6	3	53	77	89	73.750000	295.000000
221250000	20312	12	9	0	33	87	73.750000	295.000000
221250000	20312	12	9	0	34	36	73.750000	295.000000
221250000	46875	12	9	0	36	89	73.750000	295.000000
221250000	46875	12	9	0	38	89	73.750000	295.000000
221250000	20312	12	9	0	69	51	73.750000	295.000000
221265625	20312	12	9	0	42	127	73.755208	295.020833
221437500	562500	4	1	0	60	89	73.812500	295.250000
221437500	562500	4	1	0	65	89	73.812500	295.250000
221437500	562500	4	1	0	69	89	73.812500	295.250000
221437500	187500	6	3	53	79	89	73.812500	295.250000
221437500	562500	7	4	35	29	127	73.812500	295.250000
221437500	562500	8	5	18	29	127	73.812500	295.250000
221437500	562500	9	6	32	29	127	73.812500	295.250000
221437500	562500	13	10	50	60	89	73.812500	295.250000
221437500	562500	13	10	50	65	89	73.812500	295.250000
221437500	562500	13	10	50	69	89	73.812500	295.250000
221437500	562500	14	11	51	60	89	73.812500	295.250000
221437500	562500	14	11	51	65	89	73.812500	295.250000
221437500	562500	14	11	51	69	89	73.812500	295.250000
221625000	187500	6	3	53	82	89	73.875000	295.500000
221625000	20312	12	9	0	34	45	73.875000	295.500000
221625000	46875	12	9	0	36	89	73.875000	295.500000
221625000	46875	12	9	0	37	89	73.875000	295.500000
221625000	20312	12	9	0	69	29	73.875000	295.500000
221632812	20313	12	9	0	42	93	73.877604	295.510417
221812500	187500	6	3	53	84	89	73.937500	295.750000
222000000	1125000	4	1	0	62	89	74.000000	296.000000
222000000	1125000	4	1	0	65	89	74.000000	296.000000
222000000	1125000	4	1	0	70	89	74.000000	296.000000
222000000	562500	6	3	53	86	89	74.000000	296.000000
222000000	1125000	7	4	35	31	127	74.000000	296.000000
222000000	1125000	8	5	18	31	127	74.000000	296.000000
222000000	1125000	9	6	32	31	127	74.000000	296.000000
222000000	20312	12	9	0	34	22	74.000000	296.000000
222000000	46875	12	9	0	36	89	74.000000	296.000000
222000000	20312	12	9	0	69	49	74.000000	296.000000
222000000	1125000	13	10	50	62	89	74.000000	296.000000
222000000	1125000	13	10	50	65	89	74.000000	296.000000
222000000	1125000	13	10	50	70	89	74.000000	296.000000
222000000	1125000	14	11	51	62	89	74.000000	296.000000
222000000	1125000	14	11	51	65	89	74.000000	296.000000
222000000	1125000	14	11	51	70	89	74.000000	296.000000
222007812	20313	12	9	0	42	127	74.002604	296.010417
222125000	20312	12	9	0	34	21	74.041667	296.166667
222250000	20312	12	9	0	34	29	74.083333	296.333333
222375000	20312	12	9	0	34	30	74.125000	296.500000
222375000	46875	12	9	0	36	89	74.125000	296.500000
222375000	20312	12	9	0	69	29	74.125000	296.500000
222382812	20313	12	9	0	42	93	74.127604	296.510417
222500000	20312	12	9	0	34	44	74.166667	296.666667
222562500	187500	6	3	53	84	89	74.187500	296.750000
222625000	20312	12	9	0	34	49	74.208333	296.833333
222750000	562500	6	3	53	86	89	74.250000	297.000000
222750000	20312	12	9	0	34	68	74.250000	297.000000
222750000	20312	12	9	0	39	62	74.250000	297.000000
222750000	20312	12	9	0	69	49	74.250000	297.000000
222757812	20313	12	9	0	42	127	74.252604	297.010417
223125000	750000	4	1	0	62	89	74.375000	297.500000
223125000	750000	4	1	0	65	89	74.375000	297.500000
223125000	750000	4	1	0	70	89	74.375000	297.500000
223125000	750000	7	4	35	34	127	74.375000	297.500000
223125000	750000	8	5	18	34	127	74.375000	297.500000
223125000	750000	9	6	32	34	127	74.375000	297.500000
223125000	20312	12	9	0	34	45	74.375000	297.500000
223125000	20312	12	9	0	69	29	74.375000	297.500000
223125000	750000	13	10	50	62	89	74.375000	297.500000
223125000	750000	13	10	50	65	89	74.375000	297.500000
223125000	750000	13	10	50	70	89	74.375000	297.500000
223125000	750000	14	11	51	62	89	74.375000	297.500000
223125000	750000	14	11	51	65	89	74.375000	297.500000
223125000	750000	14	11	51	70	89	74.375000	297.500000
223132812	20313	12	9	0	42	93	74.377604	297.510417
223312500	187500	6	3	53	84	89	74.437500	297.750000
223500000	562500	6	3	53	86	89	74.500000	298.000000
223500000	20312	12	9	0	34	57	74.500000	298.000000
223500000	20312	12	9	0	69	49	74.500000	298.000000
223507812	20313	12	9	0	42	127	74.502604	298.010417
223515625	20312	12	9	0	33	127	74.505208	298.020833
223875000	562500	4	1	0	62	89	74.625000	298.500000
223875000	562500	4	1	0	65	89	74.625000	298.500000
223875000	562500	4	1	0	70	89	74.625000	298.500000
223875000	562500	7	4	35	34	127	74.625000	298.500000
223875000	562500	8	5	18	34	127	74.625000	298.500000
223875000	562500	9	6	32	34	127	74.625000	298.500000
223875000	20312	12	9	0	42	127	74.625000	298.500000
223875000	20312	12	9	0	69	29	74.625000	298.500000
223875000	562500	13	10	50	62	89	74.625000	298.500000
223875000	562500	13	10	50	65	89	74.625000	298.500000
223875000	562500	13	10	50	70	89	74.625000	298.500000
223875000	562500	14	11	51	62	89	74.625000	298.500000
223875000	562500	14	11	51	65	89	74.625000	298.500000
223875000	562500	14	11	51	70	89	74.625000	298.500000
224000000	20312	12	9	0	42	127	74.666667	298.666667
224015625	46875	12	9	0	38	89	74.671875	298.687500
224062500	187500	6	3	53	84	89	74.687500	298.750000
224109375	46875	12	9	0	38	89	74.703125	298.812500
224125000	20312	12	9	0	42	127	74.708333	298.833333
224250000	187500	6	3	53	86	89	74.750000	299.000000
224250000	20312	12	9	0	33	87	74.750000	299.000000
224250000	20312	12	9	0	34	36	74.750000	299.000000
224250000	46875	12	9	0	36	89	74.750000	299.000000
224250000	46875	12	9	0	38	89	74.750000	299.000000
224250000	20312	12	9	0	69	51	74.750000	299.000000
224265625	20312	12	9	0	42	127	74.755208	299.020833
224437500	562500	4	1	0	60	89	74.812500	299.250000
224437500	562500	4	1	0	65	89	74.812500	299.250000
224437500	562500	4	1	0	69	89	74.812500	299.250000
224437500	187500	6	3	53	89	89	74.812500	299.250000
224437500	562500	7	4	35	29	127	74.812500	299.250000
224437500	562500	8	5	18	29	127	74.812500	299.250000
224437500	562500	9	6	32	29	127	74.812500	299.250000
224437500	562500	13	10	50	60	89	74.812500	299.250000
224437500	562500	13	10	50	65	89	74.812500	299.250000
224437500	562500	13	10	50	69	89	74.812500	299.250000
224437500	562500	14	11	51	60	89	74.812500	299.250000
224437500	562500	14	11	51	65	89	74.812500	299.250000
224437500	562500	14	11	51	69	89	74.812500	299.250000
224625000	187500	6	3	53	86	89	74.875000	299.500000
224625000	20312	12	9	0	34	45	74.875000	299.500000
224625000	46875	12	9	0	36	89	74.875000	299.500000
224625000	46875	12	9	0	37	89	74.875000	299.500000
224625000	20312	12	9	0	69	29	74.875000	299.500000
224632812	20313	12	9	0	42	93	74.877604	299.510417
224812500	187500	6	3	53	84	89	74.937500	299.750000
225000000	562500	3	0	73	82	89	75.000000	300.000000
225000000	1125000	4	1	0	63	89	75.000000	300.000000
225000000	1125000	4	1	0	67	89	75.000000	300.000000
225000000	1125000	4	1	0	70	89	75.000000	300.000000
225000000	1125000	7	4	35	27	127	75.000000	300.000000
225000000	1125000	8	5	18	27	127	75.000000	300.000000
225000000	1125000	9	6	32	27	127	75.000000	300.000000
225000000	20312	12	9	0	34	22	75.000000	300.000000
225000000	46875	12	9	0	36	89	75.000000	300.000000
225000000	20312	12	9	0	69	49	75.000000	300.000000
225000000	1125000	13	10	50	63	89	75.000000	300.000000
225000000	1125000	13	10	50	67	89	75.000000	300.000000
225000000	1125000	13	10	50	70	89	75.000000	300.000000
225000000	1125000	14	11	51	63	89	75.000000	300.000000
225000000	1125000	14	11	51	67	89	75.000000	300.000000
225000000	1125000	14	11	51	70	89	75.000000	300.000000
225007812	20313	12	9	0	42	127	75.002604	300.010417
225125000	20312	12	9	0	34	21	75.041667	300.166667
225250000	20312	12	9	0	34	29	75.083333	300.333333
225375000	20312	12	9	0	34	30	75.125000	300.500000
225375000	46875	12	9	0	36	89	75.125000	300.500000
225375000	20312	12	9	0	69	29	75.125000	300.500000
225382812	20313	12	9	0	42	93	75.127604	300.510417
225500000	20312	12	9	0	34	44	75.166667	300.666667
225562500	187500	3	0	73	79	89	75.187500	300.750000
225625000	20312	12	9	0	34	49	75.208333	300.833333
225750000	375000	3	0	73	82	89	75.250000	301.000000
225750000	20312	12	9	0	34	68	75.250000	301.000000
225750000	20312	12	9	0	39	62	75.250000	301.000000
225750000	20312	12	9	0	69	49	75.250000	301.000000
225757812	20313	12	9	0	42	127	75.252604	301.010417
226125000	187500	3	0	73	84	89	75.375000	301.500000
226125000	750000	4	1	0	62	89	75.375000	301.500000
226125000	750000	4	1	0	65	89	75.375000	301.500000
226125000	750000	4	1	0	70	89	75.375000	301.500000
226125000	750000	7	4	35	34	127	75.375000	301.500000
226125000	750000	8	5	18	34	127	75.375000	301.500000
226125000	750000	9	6	32	34	127	75.375000	301.500000
226125000	20312	12	9	0	34	45	75.375000	301.500000
226125000	20312	12	9	0	69	29	75.375000	301.500000
226125000	750000	13	10	50	62	89	75.375000	301.500000
226125000	750000	13	10	50	65	89	75.375000	301.500000
226125000	750000	13	10	50	70	89	75.375000	301.500000
226125000	750000	14	11	51	62	89	75.375000	301.500000
226125000	750000	14	11	51	65	89	75.375000	301.500000
226125000	750000	14	11	51	70	89	75.375000	301.500000
226132812	20313	12	9	0	42	93	75.377604	301.510417
226312500	187500	3	0	73	82	89	75.437500	301.750000
226500000	750000	3	0	73	82	89	75.500000	302.000000
226500000	20312	12	9	0	34	57	75.500000	302.000000
226500000	20312	12	9	0	69	49	75.500000	302.000000
226507812	20313	12	9	0	42	127	75.502604	302.010417
226515625	20312	12	9	0	33	127	75.505208	302.020833
226875000	375000	4	1	0	62	89	75.625000	302.500000
226875000	375000	4	1	0	65	89	75.625000	302.500000
226875000	375000	4	1	0	70	89	75.625000	302.500000
226875000	375000	7	4	35	34	127	75.625000	302.500000
226875000	375000	8	5	18	34	127	75.625000	302.500000
226875000	375000	9	6	32	34	127	75.625000	302.500000
226875000	20312	12	9	0	42	127	75.625000	302.500000
226875000	20312	12	9	0	69	29	75.625000	302.500000
226875000	375000	13	10	50	62	89	75.625000	302.500000
226875000	375000	13	10	50	65	89	75.625000	302.500000
226875000	375000	13	10	50	70	89	75.625000	302.500000
226875000	375000	14	11	51	62	89	75.625000	302.500000
226875000	375000	14	11	51	65	89	75.625000	302.500000
226875000	375000	14	11	51	70	89	75.625000	302.500000
227000000	20312	12	9	0	42	127	75.666667	302.666667
227015625	46875	12	9	0	38	89	75.671875	302.687500
227109375	46875	12	9	0	38	89	75.703125	302.812500
227125000	20312	12	9	0	42	127	75.708333	302.833333
227250000	20312	12	9	0	33	87	75.750000	303.000000
227250000	20312	12	9	0	34	36	75.750000	303.000000
227250000	46875	12	9	0	36	89	75.750000	303.000000
227250000	46875	12	9	0	38	89	75.750000	303.000000
227250000	20312	12	9	0	69	51	75.750000	303.000000
227265625	20312	12	9	0	42	127	75.755208	303.020833
227625000	20312	12	9	0	34	45	75.875000	303.500000
227625000	46875	12	9	0	36	89	75.875000	303.500000
227625000	46875	12	9	0	37	89	75.875000	303.500000
227625000	46875	12	9	0	49	89	75.875000	303.500000
227625000	20312	12	9	0	69	29	75.875000	303.500000
227632812	20313	12	9	0	42	93	75.877604	303.510417
